%TF.GenerationSoftware,KiCad,Pcbnew,10.0.4-10.0.4~ubuntu24.04.1*%
%TF.CreationDate,2026-07-19T12:18:52-04:00*%
%TF.ProjectId,kmm-pmask-mask,6b6d6d2d-706d-4617-936b-2d6d61736b2e,2.0*%
%TF.SameCoordinates,Original*%
%TF.FileFunction,Copper,L1,Top*%
%TF.FilePolarity,Positive*%
%FSLAX46Y46*%
G04 Gerber Fmt 4.6, Leading zero omitted, Abs format (unit mm)*
G04 Created by KiCad (PCBNEW 10.0.4-10.0.4~ubuntu24.04.1) date 2026-07-19 12:18:52*
%MOMM*%
%LPD*%
G01*
G04 APERTURE LIST*
G04 Aperture macros list*
%AMRoundRect*
0 Rectangle with rounded corners*
0 $1 Rounding radius*
0 $2 $3 $4 $5 $6 $7 $8 $9 X,Y pos of 4 corners*
0 Add a 4 corners polygon primitive as box body*
4,1,4,$2,$3,$4,$5,$6,$7,$8,$9,$2,$3,0*
0 Add four circle primitives for the rounded corners*
1,1,$1+$1,$2,$3*
1,1,$1+$1,$4,$5*
1,1,$1+$1,$6,$7*
1,1,$1+$1,$8,$9*
0 Add four rect primitives between the rounded corners*
20,1,$1+$1,$2,$3,$4,$5,0*
20,1,$1+$1,$4,$5,$6,$7,0*
20,1,$1+$1,$6,$7,$8,$9,0*
20,1,$1+$1,$8,$9,$2,$3,0*%
G04 Aperture macros list end*
%TA.AperFunction,SMDPad,CuDef*%
%ADD10RoundRect,0.100000X0.100000X-0.217500X0.100000X0.217500X-0.100000X0.217500X-0.100000X-0.217500X0*%
%TD*%
%TA.AperFunction,SMDPad,CuDef*%
%ADD11RoundRect,0.100000X0.100000X-0.320000X0.100000X0.320000X-0.100000X0.320000X-0.100000X-0.320000X0*%
%TD*%
%TA.AperFunction,SMDPad,CuDef*%
%ADD12RoundRect,0.093750X-0.106250X0.093750X-0.106250X-0.093750X0.106250X-0.093750X0.106250X0.093750X0*%
%TD*%
%TA.AperFunction,HeatsinkPad*%
%ADD13R,1.600000X1.000000*%
%TD*%
%TA.AperFunction,SMDPad,CuDef*%
%ADD14R,0.300000X1.300000*%
%TD*%
%TA.AperFunction,SMDPad,CuDef*%
%ADD15R,1.800000X2.200000*%
%TD*%
%TA.AperFunction,SMDPad,CuDef*%
%ADD16RoundRect,0.100000X-0.217500X-0.100000X0.217500X-0.100000X0.217500X0.100000X-0.217500X0.100000X0*%
%TD*%
%TA.AperFunction,SMDPad,CuDef*%
%ADD17C,1.000000*%
%TD*%
%TA.AperFunction,SMDPad,CuDef*%
%ADD18RoundRect,0.155000X0.155000X-0.212500X0.155000X0.212500X-0.155000X0.212500X-0.155000X-0.212500X0*%
%TD*%
%TA.AperFunction,SMDPad,CuDef*%
%ADD19R,0.950000X0.550000*%
%TD*%
%TA.AperFunction,SMDPad,CuDef*%
%ADD20RoundRect,0.100000X-0.100000X0.217500X-0.100000X-0.217500X0.100000X-0.217500X0.100000X0.217500X0*%
%TD*%
%TA.AperFunction,SMDPad,CuDef*%
%ADD21RoundRect,0.093750X-0.093750X-0.106250X0.093750X-0.106250X0.093750X0.106250X-0.093750X0.106250X0*%
%TD*%
%TA.AperFunction,HeatsinkPad*%
%ADD22R,1.000000X1.600000*%
%TD*%
%TA.AperFunction,SMDPad,CuDef*%
%ADD23RoundRect,0.155000X-0.212500X-0.155000X0.212500X-0.155000X0.212500X0.155000X-0.212500X0.155000X0*%
%TD*%
%TA.AperFunction,SMDPad,CuDef*%
%ADD24RoundRect,0.155000X0.212500X0.155000X-0.212500X0.155000X-0.212500X-0.155000X0.212500X-0.155000X0*%
%TD*%
%TA.AperFunction,SMDPad,CuDef*%
%ADD25R,0.500000X0.300000*%
%TD*%
%TA.AperFunction,SMDPad,CuDef*%
%ADD26RoundRect,0.100000X0.217500X0.100000X-0.217500X0.100000X-0.217500X-0.100000X0.217500X-0.100000X0*%
%TD*%
%TA.AperFunction,SMDPad,CuDef*%
%ADD27RoundRect,0.100000X-0.637500X-0.100000X0.637500X-0.100000X0.637500X0.100000X-0.637500X0.100000X0*%
%TD*%
%TA.AperFunction,SMDPad,CuDef*%
%ADD28R,0.300000X0.500000*%
%TD*%
%TA.AperFunction,ViaPad*%
%ADD29C,0.600000*%
%TD*%
%TA.AperFunction,Conductor*%
%ADD30C,0.254000*%
%TD*%
%TA.AperFunction,Conductor*%
%ADD31C,0.381000*%
%TD*%
G04 APERTURE END LIST*
D10*
%TO.P,C18,1*%
%TO.N,+1.8V*%
X79600000Y-141407500D03*
%TO.P,C18,2*%
%TO.N,GND*%
X79600000Y-140592500D03*
%TD*%
D11*
%TO.P,U9,1*%
%TO.N,N/C*%
X44600000Y-101195000D03*
%TO.P,U9,2,SCL_2*%
%TO.N,/I2C0_SCL*%
X45400000Y-101195000D03*
%TO.P,U9,3,SDA_3*%
%TO.N,/I2C0_SDA*%
X46200000Y-101195000D03*
%TO.P,U9,4,PGND_4*%
%TO.N,GND*%
X47000000Y-101195000D03*
%TO.P,U9,5*%
%TO.N,N/C*%
X47800000Y-101195000D03*
%TO.P,U9,6*%
X48600000Y-101195000D03*
%TO.P,U9,7*%
X49400000Y-101195000D03*
%TO.P,U9,8*%
X49400000Y-98805000D03*
%TO.P,U9,9,VLED+_9*%
%TO.N,+5V*%
X48600000Y-98805000D03*
%TO.P,U9,10,VLED+_10*%
X47800000Y-98805000D03*
%TO.P,U9,11,VDD_11*%
%TO.N,+1.8V*%
X47000000Y-98805000D03*
%TO.P,U9,12,GND_12*%
%TO.N,GND*%
X46200000Y-98805000D03*
%TO.P,U9,13,~{INT}_13*%
%TO.N,Net-(U9-~{INT})*%
X45400000Y-98805000D03*
%TO.P,U9,14*%
%TO.N,N/C*%
X44600000Y-98805000D03*
%TD*%
D12*
%TO.P,U14,1,SCL_1*%
%TO.N,/I2C2_SCL*%
X55650000Y-142112500D03*
%TO.P,U14,2,GND_2*%
%TO.N,GND*%
X55000000Y-142112500D03*
%TO.P,U14,3,ALERT_3*%
%TO.N,unconnected-(U14-ALERT-Pad3)*%
X54350000Y-142112500D03*
%TO.P,U14,4,ADD0_4*%
%TO.N,GND*%
X54350000Y-143887500D03*
%TO.P,U14,5,V+_5*%
%TO.N,+3.3V*%
X55000000Y-143887500D03*
%TO.P,U14,6,SDA_6*%
%TO.N,/I2C2_SDA*%
X55650000Y-143887500D03*
D13*
%TO.P,U14,7*%
%TO.N,N/C*%
X55000000Y-143000000D03*
%TD*%
D10*
%TO.P,R6,1*%
%TO.N,+3.3V*%
X75600000Y-59207500D03*
%TO.P,R6,2*%
%TO.N,/I2C2_SCL*%
X75600000Y-58392500D03*
%TD*%
D14*
%TO.P,J1,1,Pin_1_1*%
%TO.N,+5V*%
X82250000Y-49090000D03*
%TO.P,J1,2,Pin_2_2*%
X81750000Y-49090000D03*
%TO.P,J1,3,Pin_3_3*%
%TO.N,GND*%
X81250000Y-49090000D03*
%TO.P,J1,4,Pin_4_4*%
%TO.N,+3.3V*%
X80750000Y-49090000D03*
%TO.P,J1,5,Pin_5_5*%
X80250000Y-49090000D03*
%TO.P,J1,6,Pin_6_6*%
%TO.N,GND*%
X79750000Y-49090000D03*
%TO.P,J1,7,Pin_7_7*%
%TO.N,+1.8V*%
X79250000Y-49090000D03*
%TO.P,J1,8,Pin_8_8*%
%TO.N,GND*%
X78750000Y-49090000D03*
%TO.P,J1,9,Pin_9_9*%
X78250000Y-49090000D03*
%TO.P,J1,10,Pin_10_10*%
%TO.N,/~{I2C_M_RST}*%
X77750000Y-49090000D03*
%TO.P,J1,11,Pin_11_11*%
%TO.N,GND*%
X77250000Y-49090000D03*
%TO.P,J1,12,Pin_12_12*%
%TO.N,/I2C_M_SDA*%
X76750000Y-49090000D03*
%TO.P,J1,13,Pin_13_13*%
%TO.N,GND*%
X76250000Y-49090000D03*
%TO.P,J1,14,Pin_14_14*%
%TO.N,/I2C_M_SCL*%
X75750000Y-49090000D03*
%TO.P,J1,15,Pin_15_15*%
%TO.N,GND*%
X75250000Y-49090000D03*
%TO.P,J1,16,Pin_16_16*%
X74750000Y-49090000D03*
%TO.P,J1,17,Pin_17_17*%
%TO.N,/I2C_M_SCL*%
X74250000Y-49090000D03*
%TO.P,J1,18,Pin_18_18*%
%TO.N,GND*%
X73750000Y-49090000D03*
%TO.P,J1,19,Pin_19_19*%
%TO.N,/I2C_M_SDA*%
X73250000Y-49090000D03*
%TO.P,J1,20,Pin_20_20*%
%TO.N,GND*%
X72750000Y-49090000D03*
%TO.P,J1,21,Pin_21_21*%
%TO.N,/~{I2C_M_RST}*%
X72250000Y-49090000D03*
%TO.P,J1,22,Pin_22_22*%
%TO.N,GND*%
X71750000Y-49090000D03*
%TO.P,J1,23,Pin_23_23*%
X71250000Y-49090000D03*
%TO.P,J1,24,Pin_24_24*%
%TO.N,+1.8V*%
X70750000Y-49090000D03*
%TO.P,J1,25,Pin_25_25*%
%TO.N,GND*%
X70250000Y-49090000D03*
%TO.P,J1,26,Pin_26_26*%
%TO.N,+3.3V*%
X69750000Y-49090000D03*
%TO.P,J1,27,Pin_27_27*%
X69250000Y-49090000D03*
%TO.P,J1,28,Pin_28_28*%
%TO.N,GND*%
X68750000Y-49090000D03*
%TO.P,J1,29,Pin_29_29*%
%TO.N,+5V*%
X68250000Y-49090000D03*
%TO.P,J1,30,Pin_30_30*%
X67750000Y-49090000D03*
D15*
%TO.P,J1,SH1*%
%TO.N,N/C*%
X84400000Y-43440000D03*
%TO.P,J1,SH2*%
X65600000Y-43440000D03*
%TD*%
D16*
%TO.P,C21,1*%
%TO.N,+3.3V*%
X60992500Y-78800000D03*
%TO.P,C21,2*%
%TO.N,GND*%
X61807500Y-78800000D03*
%TD*%
D10*
%TO.P,R4,1*%
%TO.N,+3.3V*%
X72800000Y-59207500D03*
%TO.P,R4,2*%
%TO.N,/I2C1_SCL*%
X72800000Y-58392500D03*
%TD*%
D17*
%TO.P,FID3,*%
%TO.N,*%
X83500000Y-57500000D03*
%TD*%
%TO.P,TP9,1,1_1*%
%TO.N,/I2C_M_SDA*%
X77600000Y-51200000D03*
%TD*%
D10*
%TO.P,R8,1*%
%TO.N,+3.3V*%
X81000000Y-59207500D03*
%TO.P,R8,2*%
%TO.N,/I2C3_SCL*%
X81000000Y-58392500D03*
%TD*%
D11*
%TO.P,U8,1*%
%TO.N,N/C*%
X92600000Y-87195000D03*
%TO.P,U8,2,SCL_2*%
%TO.N,/I2C3_SCL*%
X93400000Y-87195000D03*
%TO.P,U8,3,SDA_3*%
%TO.N,/I2C3_SDA*%
X94200000Y-87195000D03*
%TO.P,U8,4,PGND_4*%
%TO.N,GND*%
X95000000Y-87195000D03*
%TO.P,U8,5*%
%TO.N,N/C*%
X95800000Y-87195000D03*
%TO.P,U8,6*%
X96600000Y-87195000D03*
%TO.P,U8,7*%
X97400000Y-87195000D03*
%TO.P,U8,8*%
X97400000Y-84805000D03*
%TO.P,U8,9,VLED+_9*%
%TO.N,+5V*%
X96600000Y-84805000D03*
%TO.P,U8,10,VLED+_10*%
X95800000Y-84805000D03*
%TO.P,U8,11,VDD_11*%
%TO.N,+1.8V*%
X95000000Y-84805000D03*
%TO.P,U8,12,GND_12*%
%TO.N,GND*%
X94200000Y-84805000D03*
%TO.P,U8,13,~{INT}_13*%
%TO.N,Net-(U8-~{INT})*%
X93400000Y-84805000D03*
%TO.P,U8,14*%
%TO.N,N/C*%
X92600000Y-84805000D03*
%TD*%
D17*
%TO.P,FID1,*%
%TO.N,*%
X115000000Y-130000000D03*
%TD*%
D18*
%TO.P,C17,1*%
%TO.N,+5V*%
X84600000Y-143367500D03*
%TO.P,C17,2*%
%TO.N,GND*%
X84600000Y-142232500D03*
%TD*%
D19*
%TO.P,U7,1,VDD_1*%
%TO.N,+3.3V*%
X68925000Y-141125000D03*
%TO.P,U7,2,PS_2*%
X68925000Y-142375000D03*
%TO.P,U7,3,GND_3*%
%TO.N,GND*%
X68925000Y-143625000D03*
%TO.P,U7,4,CSB_4*%
X68925000Y-144875000D03*
%TO.P,U7,5,CSB_5*%
X71075000Y-144875000D03*
%TO.P,U7,6,SDO_6*%
%TO.N,unconnected-(U7-SDO-Pad6)*%
X71075000Y-143625000D03*
%TO.P,U7,7,SDI/SDA_7*%
%TO.N,/I2C2_SDA*%
X71075000Y-142375000D03*
%TO.P,U7,8,SCLK_8*%
%TO.N,/I2C2_SCL*%
X71075000Y-141125000D03*
%TD*%
D11*
%TO.P,U10,1*%
%TO.N,N/C*%
X77600000Y-145195000D03*
%TO.P,U10,2,SCL_2*%
%TO.N,/I2C2_SCL*%
X78400000Y-145195000D03*
%TO.P,U10,3,SDA_3*%
%TO.N,/I2C2_SDA*%
X79200000Y-145195000D03*
%TO.P,U10,4,PGND_4*%
%TO.N,GND*%
X80000000Y-145195000D03*
%TO.P,U10,5*%
%TO.N,N/C*%
X80800000Y-145195000D03*
%TO.P,U10,6*%
X81600000Y-145195000D03*
%TO.P,U10,7*%
X82400000Y-145195000D03*
%TO.P,U10,8*%
X82400000Y-142805000D03*
%TO.P,U10,9,VLED+_9*%
%TO.N,+5V*%
X81600000Y-142805000D03*
%TO.P,U10,10,VLED+_10*%
X80800000Y-142805000D03*
%TO.P,U10,11,VDD_11*%
%TO.N,+1.8V*%
X80000000Y-142805000D03*
%TO.P,U10,12,GND_12*%
%TO.N,GND*%
X79200000Y-142805000D03*
%TO.P,U10,13,~{INT}_13*%
%TO.N,Net-(U10-~{INT})*%
X78400000Y-142805000D03*
%TO.P,U10,14*%
%TO.N,N/C*%
X77600000Y-142805000D03*
%TD*%
D20*
%TO.P,R11,1*%
%TO.N,+1.8V*%
X92200000Y-82592500D03*
%TO.P,R11,2*%
%TO.N,Net-(U8-~{INT})*%
X92200000Y-83407500D03*
%TD*%
%TO.P,R9,1*%
%TO.N,+1.8V*%
X72600000Y-73592500D03*
%TO.P,R9,2*%
%TO.N,Net-(U2-~{INT})*%
X72600000Y-74407500D03*
%TD*%
D16*
%TO.P,C14,1*%
%TO.N,+1.8V*%
X46392500Y-97600000D03*
%TO.P,C14,2*%
%TO.N,GND*%
X47207500Y-97600000D03*
%TD*%
D10*
%TO.P,C22,1*%
%TO.N,+3.3V*%
X109800000Y-109007500D03*
%TO.P,C22,2*%
%TO.N,GND*%
X109800000Y-108192500D03*
%TD*%
D20*
%TO.P,C4,1*%
%TO.N,+3.3V*%
X67600000Y-141192500D03*
%TO.P,C4,2*%
%TO.N,GND*%
X67600000Y-142007500D03*
%TD*%
D21*
%TO.P,U13,1,SCL_1*%
%TO.N,/I2C3_SCL*%
X107112500Y-108350000D03*
%TO.P,U13,2,GND_2*%
%TO.N,GND*%
X107112500Y-109000000D03*
%TO.P,U13,3,ALERT_3*%
%TO.N,unconnected-(U13-ALERT-Pad3)*%
X107112500Y-109650000D03*
%TO.P,U13,4,ADD0_4*%
%TO.N,GND*%
X108887500Y-109650000D03*
%TO.P,U13,5,V+_5*%
%TO.N,+3.3V*%
X108887500Y-109000000D03*
%TO.P,U13,6,SDA_6*%
%TO.N,/I2C3_SDA*%
X108887500Y-108350000D03*
D22*
%TO.P,U13,7*%
%TO.N,N/C*%
X108000000Y-109000000D03*
%TD*%
D11*
%TO.P,U2,1*%
%TO.N,N/C*%
X72600000Y-78195000D03*
%TO.P,U2,2,SCL_2*%
%TO.N,/I2C1_SCL*%
X73400000Y-78195000D03*
%TO.P,U2,3,SDA_3*%
%TO.N,/I2C1_SDA*%
X74200000Y-78195000D03*
%TO.P,U2,4,PGND_4*%
%TO.N,GND*%
X75000000Y-78195000D03*
%TO.P,U2,5*%
%TO.N,N/C*%
X75800000Y-78195000D03*
%TO.P,U2,6*%
X76600000Y-78195000D03*
%TO.P,U2,7*%
X77400000Y-78195000D03*
%TO.P,U2,8*%
X77400000Y-75805000D03*
%TO.P,U2,9,VLED+_9*%
%TO.N,+5V*%
X76600000Y-75805000D03*
%TO.P,U2,10,VLED+_10*%
X75800000Y-75805000D03*
%TO.P,U2,11,VDD_11*%
%TO.N,+1.8V*%
X75000000Y-75805000D03*
%TO.P,U2,12,GND_12*%
%TO.N,GND*%
X74200000Y-75805000D03*
%TO.P,U2,13,~{INT}_13*%
%TO.N,Net-(U2-~{INT})*%
X73400000Y-75805000D03*
%TO.P,U2,14*%
%TO.N,N/C*%
X72600000Y-75805000D03*
%TD*%
D20*
%TO.P,C3,1*%
%TO.N,+3.3V*%
X100600000Y-98192500D03*
%TO.P,C3,2*%
%TO.N,GND*%
X100600000Y-99007500D03*
%TD*%
D23*
%TO.P,C13,1*%
%TO.N,+5V*%
X48832500Y-96600000D03*
%TO.P,C13,2*%
%TO.N,GND*%
X49967500Y-96600000D03*
%TD*%
D16*
%TO.P,C24,1*%
%TO.N,+3.3V*%
X41547745Y-110800000D03*
%TO.P,C24,2*%
%TO.N,GND*%
X42362745Y-110800000D03*
%TD*%
D10*
%TO.P,R3,1*%
%TO.N,+3.3V*%
X74800000Y-59207500D03*
%TO.P,R3,2*%
%TO.N,/I2C1_SDA*%
X74800000Y-58392500D03*
%TD*%
D16*
%TO.P,C12,1*%
%TO.N,+5V*%
X95992500Y-83500000D03*
%TO.P,C12,2*%
%TO.N,GND*%
X96807500Y-83500000D03*
%TD*%
D17*
%TO.P,TP10,1,1_1*%
%TO.N,/I2C_M_SCL*%
X80000000Y-54200000D03*
%TD*%
D10*
%TO.P,R5,1*%
%TO.N,+3.3V*%
X77600000Y-59207500D03*
%TO.P,R5,2*%
%TO.N,/I2C2_SDA*%
X77600000Y-58392500D03*
%TD*%
D20*
%TO.P,C26,1*%
%TO.N,+3.3V*%
X93200000Y-142592500D03*
%TO.P,C26,2*%
%TO.N,GND*%
X93200000Y-143407500D03*
%TD*%
D24*
%TO.P,C11,1*%
%TO.N,+1.8V*%
X94367500Y-82400000D03*
%TO.P,C11,2*%
%TO.N,GND*%
X93232500Y-82400000D03*
%TD*%
D25*
%TO.P,U12,1,SDA_1*%
%TO.N,/I2C2_SDA*%
X95700000Y-143400000D03*
%TO.P,U12,2,SCL_2*%
%TO.N,/I2C2_SCL*%
X95700000Y-142600000D03*
%TO.P,U12,3,VDD_3*%
%TO.N,+3.3V*%
X94300000Y-142600000D03*
%TO.P,U12,4,VSS_4*%
%TO.N,GND*%
X94300000Y-143400000D03*
%TD*%
D18*
%TO.P,C19,1*%
%TO.N,+1.8V*%
X78600000Y-141467500D03*
%TO.P,C19,2*%
%TO.N,GND*%
X78600000Y-140332500D03*
%TD*%
D10*
%TO.P,C20,1*%
%TO.N,+5V*%
X83600000Y-143407500D03*
%TO.P,C20,2*%
%TO.N,GND*%
X83600000Y-142592500D03*
%TD*%
%TO.P,C27,1*%
%TO.N,+3.3V*%
X79600000Y-52607500D03*
%TO.P,C27,2*%
%TO.N,GND*%
X79600000Y-51792500D03*
%TD*%
D12*
%TO.P,U4,1,SCL_1*%
%TO.N,/I2C0_SCL*%
X61650000Y-76112500D03*
%TO.P,U4,2,GND_2*%
%TO.N,GND*%
X61000000Y-76112500D03*
%TO.P,U4,3,ALERT_3*%
%TO.N,unconnected-(U4-ALERT-Pad3)*%
X60350000Y-76112500D03*
%TO.P,U4,4,ADD0_4*%
%TO.N,GND*%
X60350000Y-77887500D03*
%TO.P,U4,5,V+_5*%
%TO.N,+3.3V*%
X61000000Y-77887500D03*
%TO.P,U4,6,SDA_6*%
%TO.N,/I2C0_SDA*%
X61650000Y-77887500D03*
D13*
%TO.P,U4,7*%
%TO.N,N/C*%
X61000000Y-77000000D03*
%TD*%
D19*
%TO.P,U6,1,VDD_1*%
%TO.N,+3.3V*%
X101925000Y-98125000D03*
%TO.P,U6,2,PS_2*%
X101925000Y-99375000D03*
%TO.P,U6,3,GND_3*%
%TO.N,GND*%
X101925000Y-100625000D03*
%TO.P,U6,4,CSB_4*%
X101925000Y-101875000D03*
%TO.P,U6,5,CSB_5*%
X104075000Y-101875000D03*
%TO.P,U6,6,SDO_6*%
%TO.N,unconnected-(U6-SDO-Pad6)*%
X104075000Y-100625000D03*
%TO.P,U6,7,SDI/SDA_7*%
%TO.N,/I2C3_SDA*%
X104075000Y-99375000D03*
%TO.P,U6,8,SCLK_8*%
%TO.N,/I2C3_SCL*%
X104075000Y-98125000D03*
%TD*%
D20*
%TO.P,C25,1*%
%TO.N,+3.3V*%
X90600000Y-77492500D03*
%TO.P,C25,2*%
%TO.N,GND*%
X90600000Y-78307500D03*
%TD*%
D10*
%TO.P,R2,1*%
%TO.N,+3.3V*%
X71200000Y-59207500D03*
%TO.P,R2,2*%
%TO.N,/I2C0_SCL*%
X71200000Y-58392500D03*
%TD*%
D20*
%TO.P,R10,1*%
%TO.N,+1.8V*%
X45200000Y-96592500D03*
%TO.P,R10,2*%
%TO.N,Net-(U9-~{INT})*%
X45200000Y-97407500D03*
%TD*%
D10*
%TO.P,R1,1*%
%TO.N,+3.3V*%
X69200000Y-59207500D03*
%TO.P,R1,2*%
%TO.N,/I2C0_SDA*%
X69200000Y-58392500D03*
%TD*%
D20*
%TO.P,R12,1*%
%TO.N,+1.8V*%
X76400000Y-142392500D03*
%TO.P,R12,2*%
%TO.N,Net-(U10-~{INT})*%
X76400000Y-143207500D03*
%TD*%
D19*
%TO.P,U5,1,VDD_1*%
%TO.N,+3.3V*%
X53925000Y-84125000D03*
%TO.P,U5,2,PS_2*%
X53925000Y-85375000D03*
%TO.P,U5,3,GND_3*%
%TO.N,GND*%
X53925000Y-86625000D03*
%TO.P,U5,4,CSB_4*%
X53925000Y-87875000D03*
%TO.P,U5,5,CSB_5*%
X56075000Y-87875000D03*
%TO.P,U5,6,SDO_6*%
%TO.N,unconnected-(U5-SDO-Pad6)*%
X56075000Y-86625000D03*
%TO.P,U5,7,SDI/SDA_7*%
%TO.N,/I2C0_SDA*%
X56075000Y-85375000D03*
%TO.P,U5,8,SCLK_8*%
%TO.N,/I2C0_SCL*%
X56075000Y-84125000D03*
%TD*%
D23*
%TO.P,C8,1*%
%TO.N,+5V*%
X76432500Y-73600000D03*
%TO.P,C8,2*%
%TO.N,GND*%
X77567500Y-73600000D03*
%TD*%
D16*
%TO.P,C2,1*%
%TO.N,+3.3V*%
X53792500Y-82800000D03*
%TO.P,C2,2*%
%TO.N,GND*%
X54607500Y-82800000D03*
%TD*%
D26*
%TO.P,C7,1*%
%TO.N,+1.8V*%
X75007500Y-74600000D03*
%TO.P,C7,2*%
%TO.N,GND*%
X74192500Y-74600000D03*
%TD*%
D27*
%TO.P,U15,1,A0_1*%
%TO.N,GND*%
X72137500Y-52725000D03*
%TO.P,U15,2,A1_2*%
X72137500Y-53375000D03*
%TO.P,U15,3,~{RESET}_3*%
%TO.N,/~{I2C_M_RST}*%
X72137500Y-54025000D03*
%TO.P,U15,4,SD0_4*%
%TO.N,/I2C0_SDA*%
X72137500Y-54675000D03*
%TO.P,U15,5,SC0_5*%
%TO.N,/I2C0_SCL*%
X72137500Y-55325000D03*
%TO.P,U15,6,SD1_6*%
%TO.N,/I2C1_SDA*%
X72137500Y-55975000D03*
%TO.P,U15,7,SC1_7*%
%TO.N,/I2C1_SCL*%
X72137500Y-56625000D03*
%TO.P,U15,8,GND_8*%
%TO.N,GND*%
X72137500Y-57275000D03*
%TO.P,U15,9,SD2_9*%
%TO.N,/I2C2_SDA*%
X77862500Y-57275000D03*
%TO.P,U15,10,SC2_10*%
%TO.N,/I2C2_SCL*%
X77862500Y-56625000D03*
%TO.P,U15,11,SD3_11*%
%TO.N,/I2C3_SDA*%
X77862500Y-55975000D03*
%TO.P,U15,12,SC3_12*%
%TO.N,/I2C3_SCL*%
X77862500Y-55325000D03*
%TO.P,U15,13,A2_13*%
%TO.N,GND*%
X77862500Y-54675000D03*
%TO.P,U15,14,SCL_14*%
%TO.N,/I2C_M_SCL*%
X77862500Y-54025000D03*
%TO.P,U15,15,SDA_15*%
%TO.N,/I2C_M_SDA*%
X77862500Y-53375000D03*
%TO.P,U15,16,VCC_16*%
%TO.N,+3.3V*%
X77862500Y-52725000D03*
%TD*%
D23*
%TO.P,C9,1*%
%TO.N,+5V*%
X95432500Y-82400000D03*
%TO.P,C9,2*%
%TO.N,GND*%
X96567500Y-82400000D03*
%TD*%
D24*
%TO.P,C6,1*%
%TO.N,+1.8V*%
X74967500Y-73600000D03*
%TO.P,C6,2*%
%TO.N,GND*%
X73832500Y-73600000D03*
%TD*%
D10*
%TO.P,R7,1*%
%TO.N,+3.3V*%
X79000000Y-59207500D03*
%TO.P,R7,2*%
%TO.N,/I2C3_SDA*%
X79000000Y-58392500D03*
%TD*%
D25*
%TO.P,U3,1,SDA_1*%
%TO.N,/I2C3_SDA*%
X88300000Y-76600000D03*
%TO.P,U3,2,SCL_2*%
%TO.N,/I2C3_SCL*%
X88300000Y-77400000D03*
%TO.P,U3,3,VDD_3*%
%TO.N,+3.3V*%
X89700000Y-77400000D03*
%TO.P,U3,4,VSS_4*%
%TO.N,GND*%
X89700000Y-76600000D03*
%TD*%
D16*
%TO.P,C23,1*%
%TO.N,+3.3V*%
X54992500Y-144800000D03*
%TO.P,C23,2*%
%TO.N,GND*%
X55807500Y-144800000D03*
%TD*%
D23*
%TO.P,C15,1*%
%TO.N,+1.8V*%
X46432500Y-96600000D03*
%TO.P,C15,2*%
%TO.N,GND*%
X47567500Y-96600000D03*
%TD*%
D16*
%TO.P,C5,1*%
%TO.N,+5V*%
X76392500Y-74600000D03*
%TO.P,C5,2*%
%TO.N,GND*%
X77207500Y-74600000D03*
%TD*%
D17*
%TO.P,FID2,*%
%TO.N,*%
X35000000Y-130000000D03*
%TD*%
D26*
%TO.P,C10,1*%
%TO.N,+1.8V*%
X94907500Y-83500000D03*
%TO.P,C10,2*%
%TO.N,GND*%
X94092500Y-83500000D03*
%TD*%
D20*
%TO.P,C1,1*%
%TO.N,+3.3V*%
X77400000Y-68792500D03*
%TO.P,C1,2*%
%TO.N,GND*%
X77400000Y-69607500D03*
%TD*%
D19*
%TO.P,U1,1,VDD_1*%
%TO.N,+3.3V*%
X76075000Y-68875000D03*
%TO.P,U1,2,PS_2*%
X76075000Y-67625000D03*
%TO.P,U1,3,GND_3*%
%TO.N,GND*%
X76075000Y-66375000D03*
%TO.P,U1,4,CSB_4*%
X76075000Y-65125000D03*
%TO.P,U1,5,CSB_5*%
X73925000Y-65125000D03*
%TO.P,U1,6,SDO_6*%
%TO.N,unconnected-(U1-SDO-Pad6)*%
X73925000Y-66375000D03*
%TO.P,U1,7,SDI/SDA_7*%
%TO.N,/I2C1_SDA*%
X73925000Y-67625000D03*
%TO.P,U1,8,SCLK_8*%
%TO.N,/I2C1_SCL*%
X73925000Y-68875000D03*
%TD*%
D16*
%TO.P,C16,1*%
%TO.N,+5V*%
X48792500Y-97600000D03*
%TO.P,C16,2*%
%TO.N,GND*%
X49607500Y-97600000D03*
%TD*%
D28*
%TO.P,U11,1,SDA_1*%
%TO.N,/I2C0_SDA*%
X42400000Y-108300000D03*
%TO.P,U11,2,SCL_2*%
%TO.N,/I2C0_SCL*%
X41600000Y-108300000D03*
%TO.P,U11,3,VDD_3*%
%TO.N,+3.3V*%
X41600000Y-109700000D03*
%TO.P,U11,4,VSS_4*%
%TO.N,GND*%
X42400000Y-109700000D03*
%TD*%
D29*
%TO.N,+1.8V*%
X46500000Y-95500000D03*
X78600000Y-65776516D03*
X74900000Y-52500000D03*
X79393098Y-47984815D03*
X94000000Y-80600000D03*
X75400000Y-143000000D03*
X70700000Y-48000000D03*
%TO.N,GND*%
X78100000Y-74600000D03*
X50000000Y-96000000D03*
X76200000Y-50400000D03*
X96200000Y-81800000D03*
X106400000Y-109300000D03*
X97400000Y-83600000D03*
X84600000Y-141600000D03*
X68750000Y-50300000D03*
X73832500Y-73032500D03*
X50000000Y-98200000D03*
X42955245Y-110800000D03*
X78750000Y-50300000D03*
X42866400Y-110026498D03*
X47300000Y-102000000D03*
X70925000Y-52725000D03*
X101100000Y-100300000D03*
X73800000Y-50400000D03*
X77900000Y-140300000D03*
X76708114Y-66875657D03*
X61200000Y-79600000D03*
X55200000Y-82800000D03*
X94458133Y-85533652D03*
X73925000Y-64500000D03*
X78400000Y-73600000D03*
X60613631Y-75445251D03*
X92700000Y-143500000D03*
X90600000Y-79000000D03*
X76700000Y-54675000D03*
X79200000Y-143500000D03*
X74439731Y-76512250D03*
X54613631Y-141445251D03*
X77100000Y-70200000D03*
X95000000Y-86500000D03*
X102319000Y-102600000D03*
X53025000Y-86625000D03*
X46200000Y-99500000D03*
X75000000Y-77600000D03*
X109800000Y-107554320D03*
X56075000Y-88575000D03*
X57000000Y-144200000D03*
X53600000Y-143600000D03*
X83600000Y-142000000D03*
X109700000Y-109900000D03*
X70000000Y-50300000D03*
X80200000Y-140600000D03*
X71100000Y-145600000D03*
X81250057Y-50300000D03*
X71500000Y-50300000D03*
X77073738Y-47726262D03*
X67600000Y-142800000D03*
X75000000Y-48100000D03*
X72858262Y-47858262D03*
X93500000Y-83500000D03*
X72000000Y-58000000D03*
X76700000Y-65700000D03*
X59400000Y-78000000D03*
X68925000Y-145600000D03*
X47400000Y-95800000D03*
X79750000Y-50300000D03*
X47800000Y-97600000D03*
X93200000Y-81800000D03*
X53925000Y-88575000D03*
X94000000Y-144100000D03*
X89904349Y-75992752D03*
X73468896Y-74531104D03*
X104075000Y-102625000D03*
X80000000Y-145900000D03*
X67825000Y-143625000D03*
X79000000Y-51800000D03*
X100000000Y-99000000D03*
%TO.N,/I2C0_SCL*%
X70600000Y-62000000D03*
X40800000Y-108400000D03*
X69000000Y-62400000D03*
%TO.N,/I2C0_SDA*%
X63600000Y-76400000D03*
X43000000Y-107600000D03*
X66000000Y-74000000D03*
%TO.N,+5V*%
X46565218Y-93965218D03*
X95400000Y-80800000D03*
X82900000Y-49100000D03*
X75600000Y-61800000D03*
X85400000Y-143400000D03*
X75600000Y-55400000D03*
X67100000Y-49100000D03*
%TO.N,/I2C2_SCL*%
X96300000Y-142100000D03*
X56250000Y-140500000D03*
X96600000Y-139400000D03*
%TO.N,+3.3V*%
X69000000Y-59800000D03*
X54400000Y-146154545D03*
X55400000Y-77933334D03*
X37217822Y-107617822D03*
X65000000Y-59800000D03*
X78800000Y-59800000D03*
X82500000Y-47500000D03*
X91385149Y-147106035D03*
X81200000Y-59800000D03*
X67400000Y-47500000D03*
X113000000Y-108000000D03*
X92800000Y-75400000D03*
X85000000Y-59800000D03*
X102000000Y-97200000D03*
X71400000Y-59800000D03*
X53018868Y-81618868D03*
X72600000Y-63000000D03*
X66000000Y-147640741D03*
X74981540Y-63218460D03*
%TO.N,/I2C2_SDA*%
X58250000Y-142750000D03*
%TO.N,/~{I2C_M_RST}*%
X73721700Y-54025000D03*
X72300000Y-50300000D03*
%TO.N,/I2C1_SCL*%
X73200000Y-79000000D03*
%TO.N,/I2C3_SCL*%
X87300000Y-77300000D03*
X106250000Y-107500000D03*
X85231776Y-76017277D03*
%TO.N,/I2C3_SDA*%
X82000000Y-62800000D03*
X80000000Y-62800000D03*
X109250000Y-107000000D03*
%TO.N,/I2C1_SDA*%
X74400000Y-79000000D03*
%TD*%
%TO.N,+1.8V*%
D30*
X92200000Y-82592500D02*
X92200000Y-81800000D01*
X71200000Y-51200000D02*
X73600000Y-51200000D01*
D31*
X80000000Y-142805000D02*
X80000000Y-142007500D01*
D30*
X77658283Y-46250000D02*
X79393098Y-47984815D01*
X78600000Y-69967500D02*
X76183750Y-72383750D01*
X72600000Y-73481525D02*
X73697775Y-72383750D01*
X92200000Y-81800000D02*
X93400000Y-80600000D01*
X72600000Y-73592500D02*
X72600000Y-73481525D01*
D31*
X94367500Y-82400000D02*
X94367500Y-82767500D01*
D30*
X46432500Y-96600000D02*
X46432500Y-95567500D01*
X79250000Y-49090000D02*
X79250000Y-48127913D01*
X73697775Y-72383750D02*
X76183750Y-72383750D01*
D31*
X75000000Y-75805000D02*
X75000000Y-73632500D01*
X78600000Y-141467500D02*
X78740000Y-141607500D01*
D30*
X46432500Y-95567500D02*
X46500000Y-95500000D01*
X45200000Y-96592500D02*
X46425000Y-96592500D01*
D31*
X47000000Y-98407499D02*
X46392500Y-97799999D01*
X94367500Y-82767500D02*
X95000000Y-83400000D01*
D30*
X73600000Y-51200000D02*
X74900000Y-52500000D01*
X70750000Y-49090000D02*
X70750000Y-48050000D01*
X70750000Y-48050000D02*
X70700000Y-48000000D01*
D31*
X80000000Y-142007500D02*
X79600000Y-141607500D01*
D30*
X70700000Y-48000000D02*
X72450000Y-46250000D01*
X46425000Y-96592500D02*
X46432500Y-96600000D01*
D31*
X95000000Y-84805000D02*
X95000000Y-83592500D01*
D30*
X93400000Y-80600000D02*
X94000000Y-80600000D01*
X94367500Y-82400000D02*
X94367500Y-80967500D01*
X74967500Y-73600000D02*
X76183750Y-72383750D01*
X72450000Y-46250000D02*
X77658283Y-46250000D01*
D31*
X95000000Y-83592500D02*
X94907500Y-83500000D01*
X95000000Y-83400000D02*
X95000000Y-83592500D01*
D30*
X94367500Y-80967500D02*
X94000000Y-80600000D01*
X70750000Y-50750000D02*
X71200000Y-51200000D01*
D31*
X47000000Y-98805000D02*
X47000000Y-98407499D01*
D30*
X78600000Y-141467500D02*
X76932500Y-141467500D01*
D31*
X46392500Y-97799999D02*
X46392500Y-97600000D01*
D30*
X76932500Y-141467500D02*
X75400000Y-143000000D01*
D31*
X46392500Y-97600000D02*
X46392500Y-96640000D01*
D30*
X78600000Y-65776516D02*
X78600000Y-69967500D01*
D31*
X78740000Y-141607500D02*
X79600000Y-141607500D01*
D30*
X79250000Y-48127913D02*
X79393098Y-47984815D01*
X70750000Y-49090000D02*
X70750000Y-50750000D01*
%TO.N,GND*%
D31*
X67825000Y-143625000D02*
X68925000Y-143625000D01*
X42362745Y-110800000D02*
X42955245Y-110800000D01*
X56962245Y-144200000D02*
X56362245Y-144800000D01*
X96567500Y-82167500D02*
X96200000Y-81800000D01*
X57000000Y-144200000D02*
X56962245Y-144200000D01*
X77207500Y-74600000D02*
X78100000Y-74600000D01*
X76700000Y-54675000D02*
X77862500Y-54675000D01*
X77100000Y-70200000D02*
X77400000Y-69900000D01*
D30*
X94000000Y-143620394D02*
X94000000Y-144100000D01*
X49607500Y-97600000D02*
X49607500Y-97807500D01*
D31*
X83600000Y-142592500D02*
X83600000Y-142000000D01*
X75000000Y-78195000D02*
X75000000Y-77600000D01*
D30*
X55000000Y-141831620D02*
X54613631Y-141445251D01*
X74750000Y-48450000D02*
X74750000Y-49090000D01*
D31*
X47000000Y-101195000D02*
X47000000Y-101700000D01*
X72000000Y-57412500D02*
X72137500Y-57275000D01*
X96807500Y-83500000D02*
X97300000Y-83500000D01*
D30*
X61000000Y-76112500D02*
X61000000Y-75831620D01*
X60237500Y-78000000D02*
X60350000Y-77887500D01*
D31*
X61207499Y-79600000D02*
X61200000Y-79600000D01*
X73537792Y-74600000D02*
X73468896Y-74531104D01*
X76708114Y-66858114D02*
X76225000Y-66375000D01*
X93200000Y-81800000D02*
X93232500Y-81832500D01*
D30*
X78250000Y-49090000D02*
X78750000Y-49090000D01*
D31*
X79600000Y-51792500D02*
X79007500Y-51792500D01*
X93232500Y-81832500D02*
X93232500Y-82400000D01*
X94200000Y-84805000D02*
X94200000Y-85275519D01*
D30*
X47567500Y-95967500D02*
X47400000Y-95800000D01*
D31*
X100600000Y-99007500D02*
X100007500Y-99007500D01*
D30*
X71750000Y-49090000D02*
X71250000Y-49090000D01*
D31*
X84600000Y-142232500D02*
X84600000Y-141600000D01*
X101425000Y-100625000D02*
X101925000Y-100625000D01*
D30*
X55000000Y-142112500D02*
X55000000Y-141831620D01*
D31*
X73925000Y-64500000D02*
X73925000Y-65125000D01*
X74439731Y-76509520D02*
X74200000Y-76269789D01*
X101100000Y-100300000D02*
X101425000Y-100625000D01*
X67600000Y-142007500D02*
X67600000Y-142800000D01*
D30*
X81250057Y-50300000D02*
X81250057Y-50097129D01*
D31*
X92792500Y-143407500D02*
X92700000Y-143500000D01*
D30*
X70250000Y-50050000D02*
X70250000Y-49090000D01*
X53600000Y-143675000D02*
X53812500Y-143887500D01*
D31*
X102319000Y-102600000D02*
X101925000Y-102206000D01*
X77932500Y-140332500D02*
X77900000Y-140300000D01*
D30*
X71250000Y-50050000D02*
X71250000Y-49090000D01*
D31*
X61807500Y-78800000D02*
X61807500Y-78999999D01*
X79200000Y-143500000D02*
X79200000Y-142805000D01*
X101925000Y-102206000D02*
X101925000Y-101875000D01*
X94092500Y-83500000D02*
X93500000Y-83500000D01*
X77567500Y-73600000D02*
X78400000Y-73600000D01*
D30*
X42400000Y-109779606D02*
X42646892Y-110026498D01*
X61000000Y-75831620D02*
X60613631Y-75445251D01*
D31*
X96567500Y-82400000D02*
X96567500Y-82167500D01*
D30*
X68750000Y-50300000D02*
X68750000Y-49090000D01*
X81250057Y-50097129D02*
X81250000Y-50097072D01*
D31*
X74439731Y-76512250D02*
X74439731Y-76509520D01*
X56362245Y-144800000D02*
X55807500Y-144800000D01*
D30*
X109450000Y-109650000D02*
X109700000Y-109900000D01*
X59400000Y-78000000D02*
X60237500Y-78000000D01*
D31*
X109800000Y-107554320D02*
X109800000Y-108192500D01*
D30*
X75000000Y-48200000D02*
X75250000Y-48450000D01*
D31*
X79007500Y-51792500D02*
X79000000Y-51800000D01*
X97300000Y-83500000D02*
X97400000Y-83600000D01*
D30*
X76250000Y-49090000D02*
X76250000Y-50350000D01*
D31*
X76708114Y-66875657D02*
X76708114Y-66858114D01*
X72137500Y-53375000D02*
X72137500Y-52725000D01*
D30*
X53812500Y-143887500D02*
X54350000Y-143887500D01*
X108887500Y-109650000D02*
X109450000Y-109650000D01*
X89904349Y-76475257D02*
X89904349Y-75992752D01*
X47567500Y-96600000D02*
X47567500Y-95967500D01*
D31*
X90600000Y-78307500D02*
X90600000Y-79000000D01*
X74192500Y-74600000D02*
X73537792Y-74600000D01*
X100007500Y-99007500D02*
X100000000Y-99000000D01*
D30*
X73750000Y-50350000D02*
X73800000Y-50400000D01*
D31*
X76700000Y-65700000D02*
X76125000Y-65125000D01*
D30*
X106700000Y-109000000D02*
X106400000Y-109300000D01*
X71500000Y-50300000D02*
X71250000Y-50050000D01*
X70000000Y-50300000D02*
X70250000Y-50050000D01*
X75000000Y-48100000D02*
X75000000Y-48200000D01*
X72750000Y-49090000D02*
X72750000Y-47966524D01*
D31*
X80000000Y-145195000D02*
X80000000Y-145900000D01*
D30*
X72750000Y-47966524D02*
X72858262Y-47858262D01*
D31*
X68925000Y-145600000D02*
X68925000Y-144875000D01*
X53025000Y-86625000D02*
X53925000Y-86625000D01*
X71075000Y-145575000D02*
X71075000Y-144875000D01*
D30*
X77250000Y-49090000D02*
X77250000Y-47902524D01*
X75000000Y-48200000D02*
X74750000Y-48450000D01*
X76250000Y-50350000D02*
X76200000Y-50400000D01*
X89779606Y-76600000D02*
X89904349Y-76475257D01*
X94220394Y-143400000D02*
X94000000Y-143620394D01*
D31*
X74200000Y-76269789D02*
X74200000Y-75805000D01*
D30*
X73750000Y-49090000D02*
X73750000Y-50350000D01*
X107112500Y-109000000D02*
X106700000Y-109000000D01*
D31*
X61807500Y-78999999D02*
X61207499Y-79600000D01*
D30*
X49967500Y-96600000D02*
X49967500Y-96032500D01*
X49967500Y-96032500D02*
X50000000Y-96000000D01*
X78750000Y-50300000D02*
X78750000Y-49090000D01*
D31*
X72000000Y-58000000D02*
X72000000Y-57412500D01*
X56075000Y-88575000D02*
X56075000Y-87875000D01*
X95000000Y-87195000D02*
X95000000Y-86500000D01*
X53925000Y-88575000D02*
X53925000Y-87875000D01*
X79600000Y-140592500D02*
X80200000Y-140600000D01*
X54607500Y-82800000D02*
X55200000Y-82800000D01*
X104075000Y-102625000D02*
X104075000Y-101875000D01*
X77400000Y-69900000D02*
X77400000Y-69607500D01*
D30*
X53600000Y-143600000D02*
X53600000Y-143675000D01*
D31*
X70925000Y-52725000D02*
X72137500Y-52725000D01*
X46200000Y-98805000D02*
X46200000Y-99500000D01*
X78600000Y-140332500D02*
X77932500Y-140332500D01*
D30*
X77250000Y-47902524D02*
X77073738Y-47726262D01*
X75250000Y-48450000D02*
X75250000Y-49090000D01*
D31*
X71100000Y-145600000D02*
X71075000Y-145575000D01*
X93200000Y-143407500D02*
X92792500Y-143407500D01*
D30*
X42646892Y-110026498D02*
X42866400Y-110026498D01*
D31*
X73832500Y-73032500D02*
X73832500Y-73600000D01*
X94200000Y-85275519D02*
X94458133Y-85533652D01*
D30*
X49607500Y-97807500D02*
X50000000Y-98200000D01*
D31*
X47000000Y-101700000D02*
X47300000Y-102000000D01*
D30*
X47207500Y-97600000D02*
X47800000Y-97600000D01*
X79750000Y-50300000D02*
X79750000Y-49090000D01*
X81250000Y-50097072D02*
X81250000Y-49090000D01*
%TO.N,/I2C0_SCL*%
X41600000Y-106400000D02*
X45400000Y-102600000D01*
X45400000Y-100891992D02*
X46091992Y-100200000D01*
X62287500Y-76112500D02*
X64400000Y-74000000D01*
X71200000Y-58392500D02*
X70607500Y-57800000D01*
X70607500Y-57800000D02*
X70600000Y-57800000D01*
X49600000Y-100200000D02*
X50500000Y-99300000D01*
X50500000Y-99300000D02*
X50800000Y-98600000D01*
X50800000Y-98600000D02*
X50800000Y-93950000D01*
X50800000Y-93950000D02*
X55000000Y-89750000D01*
X56850000Y-83400000D02*
X58400000Y-83400000D01*
X45400000Y-102600000D02*
X45400000Y-101195000D01*
X55000000Y-85000000D02*
X55875000Y-84125000D01*
X70600000Y-62000000D02*
X70600000Y-57800000D01*
X56125000Y-84125000D02*
X56850000Y-83400000D01*
X41600000Y-107400000D02*
X40800000Y-108200000D01*
X55000000Y-89750000D02*
X55000000Y-85000000D01*
X71220996Y-55325000D02*
X70600000Y-55945996D01*
X58400000Y-83400000D02*
X64400000Y-77400000D01*
X64400000Y-77400000D02*
X64400000Y-74000000D01*
X69000000Y-68200000D02*
X64400000Y-72800000D01*
X64400000Y-72800000D02*
X64400000Y-74000000D01*
X41600000Y-108300000D02*
X41600000Y-107400000D01*
X72137500Y-55325000D02*
X71220996Y-55325000D01*
X69000000Y-62400000D02*
X69000000Y-68200000D01*
X70600000Y-55945996D02*
X70600000Y-57800000D01*
X41600000Y-107400000D02*
X41600000Y-106400000D01*
X40800000Y-108200000D02*
X40800000Y-108400000D01*
X61650000Y-76112500D02*
X62287500Y-76112500D01*
X45400000Y-101195000D02*
X45400000Y-100891992D01*
X46091992Y-100200000D02*
X49600000Y-100200000D01*
%TO.N,/I2C0_SDA*%
X62112500Y-77887500D02*
X63600000Y-76400000D01*
X70725000Y-54675000D02*
X69800000Y-55600000D01*
X66000000Y-74000000D02*
X65400000Y-73400000D01*
X43200000Y-106400000D02*
X42800000Y-106800000D01*
X42800000Y-106800000D02*
X42600000Y-107000000D01*
X46800000Y-102800000D02*
X43600000Y-106000000D01*
X52000000Y-94375000D02*
X52000000Y-98800000D01*
X43000000Y-107600000D02*
X42800000Y-107400000D01*
X69792500Y-57800000D02*
X69800000Y-57800000D01*
X58700000Y-84500000D02*
X57250000Y-84500000D01*
X65400000Y-73200000D02*
X65400000Y-73400000D01*
X46800000Y-102800000D02*
X46200000Y-102200000D01*
X50824727Y-100924727D02*
X48949454Y-102800000D01*
X42800000Y-107400000D02*
X42800000Y-106800000D01*
X57250000Y-89125000D02*
X52000000Y-94375000D01*
X46800000Y-102800000D02*
X48949454Y-102800000D01*
X65400000Y-77800000D02*
X58700000Y-84500000D01*
X69800000Y-55600000D02*
X69800000Y-57800000D01*
X50824727Y-100924727D02*
X52000000Y-98800000D01*
X69800000Y-68800000D02*
X65400000Y-73200000D01*
X65400000Y-73400000D02*
X65400000Y-77800000D01*
X57250000Y-84500000D02*
X57250000Y-89125000D01*
X61650000Y-77887500D02*
X62112500Y-77887500D01*
X69800000Y-57800000D02*
X69800000Y-68800000D01*
X72137500Y-54675000D02*
X70725000Y-54675000D01*
X42400000Y-107200000D02*
X42400000Y-108300000D01*
X69200000Y-58392500D02*
X69792500Y-57800000D01*
X46200000Y-102200000D02*
X46200000Y-101195000D01*
X42600000Y-107000000D02*
X42400000Y-107200000D01*
X56375000Y-85375000D02*
X57250000Y-84500000D01*
X43600000Y-106000000D02*
X43200000Y-106400000D01*
%TO.N,+5V*%
D31*
X68000000Y-50700000D02*
X69300000Y-52000000D01*
X84600000Y-143367500D02*
X85367500Y-143367500D01*
X47800000Y-98805000D02*
X48600000Y-98805000D01*
X85367500Y-143367500D02*
X85400000Y-143400000D01*
X82124296Y-143542500D02*
X84425000Y-143542500D01*
X95432500Y-82400000D02*
X95432500Y-80832500D01*
X96000000Y-84805000D02*
X95800000Y-84805000D01*
X84425000Y-143542500D02*
X84600000Y-143367500D01*
X48792500Y-98612500D02*
X48600000Y-98805000D01*
X76432500Y-75637500D02*
X76600000Y-75805000D01*
X81600000Y-143018204D02*
X82124296Y-143542500D01*
X48832500Y-96232500D02*
X46565218Y-93965218D01*
X73300000Y-52000000D02*
X75600000Y-54300000D01*
X76432500Y-73067500D02*
X79300000Y-70200000D01*
X76432500Y-73600000D02*
X76432500Y-75637500D01*
X96600000Y-84805000D02*
X96000000Y-84805000D01*
X48832500Y-96600000D02*
X48832500Y-96232500D01*
X48832500Y-96600000D02*
X48832500Y-97560000D01*
X95432500Y-80832500D02*
X95400000Y-80800000D01*
X81600000Y-142805000D02*
X81600000Y-143018204D01*
X48832500Y-97560000D02*
X48792500Y-97600000D01*
X69300000Y-52000000D02*
X73300000Y-52000000D01*
X80800000Y-142805000D02*
X81600000Y-142805000D01*
X48792500Y-97600000D02*
X48792500Y-98612500D01*
X68000000Y-49500000D02*
X68000000Y-50700000D01*
X76600000Y-75805000D02*
X75800000Y-75805000D01*
X75600000Y-54300000D02*
X75600000Y-55400000D01*
X79300000Y-65500000D02*
X75600000Y-61800000D01*
X96000000Y-83000000D02*
X96000000Y-84805000D01*
X79300000Y-70200000D02*
X79300000Y-65500000D01*
X95432500Y-82432500D02*
X96000000Y-83000000D01*
X76432500Y-73600000D02*
X76432500Y-73067500D01*
%TO.N,Net-(U9-~{INT})*%
D30*
X45400000Y-98805000D02*
X45400000Y-97607500D01*
X45400000Y-97607500D02*
X45200000Y-97407500D01*
%TO.N,/I2C2_SCL*%
X97500000Y-98400000D02*
X95100000Y-94400000D01*
X71075000Y-140475000D02*
X70200000Y-139600000D01*
X110900000Y-127200000D02*
X110900000Y-123800000D01*
X90500000Y-140100000D02*
X96800000Y-140100000D01*
X76200000Y-57000000D02*
X76575000Y-56625000D01*
X97500000Y-139400000D02*
X99300000Y-137600000D01*
X102500000Y-135600000D02*
X104900000Y-134200000D01*
X95800000Y-142600000D02*
X96300000Y-142100000D01*
X71075000Y-141125000D02*
X71075000Y-140475000D01*
X76200000Y-61400000D02*
X80000000Y-65200000D01*
X81553846Y-74246154D02*
X80703022Y-73196978D01*
X89700000Y-85800000D02*
X86803485Y-81597619D01*
X96600000Y-139400000D02*
X97500000Y-139400000D01*
X57050000Y-140550000D02*
X57000000Y-140500000D01*
X58000000Y-139600000D02*
X57050000Y-140550000D01*
X99300000Y-137600000D02*
X102500000Y-135600000D01*
X110300000Y-129100000D02*
X110900000Y-127200000D01*
X109300000Y-130700000D02*
X110300000Y-129100000D01*
X82400000Y-75400000D02*
X81553846Y-74246154D01*
X71825000Y-141125000D02*
X74900000Y-144200000D01*
X80703022Y-73196978D02*
X80000000Y-72100000D01*
X76192500Y-57800000D02*
X76200000Y-57800000D01*
X110900000Y-123800000D02*
X110300000Y-121300000D01*
X107800000Y-132300000D02*
X109300000Y-130700000D01*
X57000000Y-140500000D02*
X56250000Y-140500000D01*
X80000000Y-72100000D02*
X80000000Y-65200000D01*
X100400000Y-103300000D02*
X97500000Y-98400000D01*
X83700000Y-77200000D02*
X82400000Y-75400000D01*
X86803485Y-81597619D02*
X85300000Y-79300000D01*
X76200000Y-61400000D02*
X76200000Y-57800000D01*
X110300000Y-121300000D02*
X108800000Y-117800000D01*
X108800000Y-117800000D02*
X106600000Y-113700000D01*
X95100000Y-94400000D02*
X89700000Y-85800000D01*
X77900000Y-144200000D02*
X78000000Y-144200000D01*
X71075000Y-141125000D02*
X71825000Y-141125000D01*
X70200000Y-139600000D02*
X58000000Y-139600000D01*
X55650000Y-141950000D02*
X55650000Y-142112500D01*
X85300000Y-79300000D02*
X83700000Y-77200000D01*
X75600000Y-58392500D02*
X76192500Y-57800000D01*
X104900000Y-134200000D02*
X107800000Y-132300000D01*
X76575000Y-56625000D02*
X77862500Y-56625000D01*
X57050000Y-140550000D02*
X55650000Y-141950000D01*
X74900000Y-144200000D02*
X77900000Y-144200000D01*
X96800000Y-140100000D02*
X97500000Y-139400000D01*
X76200000Y-57800000D02*
X76200000Y-57000000D01*
X106600000Y-113700000D02*
X100400000Y-103300000D01*
X77900000Y-144200000D02*
X86400000Y-144200000D01*
X78000000Y-144200000D02*
X78400000Y-144600000D01*
X78400000Y-144600000D02*
X78400000Y-145195000D01*
X86400000Y-144200000D02*
X90500000Y-140100000D01*
%TO.N,+3.3V*%
D31*
X77600000Y-68592500D02*
X77400000Y-68792500D01*
D30*
X61000000Y-77887500D02*
X61000000Y-78792500D01*
X41600000Y-109700000D02*
X41600000Y-110747745D01*
D31*
X40400000Y-110800000D02*
X37217822Y-107617822D01*
X81000000Y-59600000D02*
X81200000Y-59800000D01*
X66000000Y-142592501D02*
X66000000Y-147640741D01*
X77317500Y-68875000D02*
X77400000Y-68792500D01*
X111992500Y-109007500D02*
X113000000Y-108000000D01*
X93200000Y-142592500D02*
X92507500Y-142592500D01*
X69400000Y-45500000D02*
X80500000Y-45500000D01*
X53792500Y-82392500D02*
X53018868Y-81618868D01*
X90707500Y-77492500D02*
X92800000Y-75400000D01*
X72800000Y-59207500D02*
X72800000Y-59600000D01*
X69200000Y-59600000D02*
X69000000Y-59800000D01*
X109800000Y-109007500D02*
X111992500Y-109007500D01*
X54992500Y-144800000D02*
X54992500Y-145562045D01*
X72600000Y-63000000D02*
X72000000Y-62400000D01*
X81200000Y-59800000D02*
X85000000Y-59800000D01*
X53792500Y-83992500D02*
X53925000Y-84125000D01*
X101925000Y-98125000D02*
X101925000Y-99375000D01*
X72000000Y-62400000D02*
X72000000Y-60400000D01*
X80092500Y-52607500D02*
X80500000Y-52200000D01*
X90600000Y-77492500D02*
X90707500Y-77492500D01*
X74800000Y-63036920D02*
X74800000Y-60000000D01*
X72800000Y-59600000D02*
X72600000Y-59800000D01*
X54992500Y-145562045D02*
X54400000Y-146154545D01*
X56266666Y-78800000D02*
X55400000Y-77933334D01*
D30*
X90507500Y-77400000D02*
X90600000Y-77492500D01*
D31*
X77600000Y-59600000D02*
X77800000Y-59800000D01*
X68925000Y-141125000D02*
X68925000Y-142375000D01*
X92507500Y-142592500D02*
X91385149Y-143714851D01*
D30*
X89700000Y-77400000D02*
X90507500Y-77400000D01*
D31*
X79600000Y-52607500D02*
X80092500Y-52607500D01*
X74981540Y-63218460D02*
X74800000Y-63036920D01*
D30*
X109800000Y-109007500D02*
X108895000Y-109007500D01*
D31*
X74981540Y-63218460D02*
X75818460Y-63218460D01*
X80500000Y-45500000D02*
X82500000Y-47500000D01*
X75600000Y-59207500D02*
X74807500Y-60000000D01*
X74807500Y-60000000D02*
X74800000Y-60000000D01*
X60992500Y-78800000D02*
X56400000Y-78800000D01*
X80500000Y-52200000D02*
X80500000Y-49600000D01*
X91385149Y-143714851D02*
X91385149Y-147106035D01*
X67400001Y-141192500D02*
X66000000Y-142592501D01*
X79000000Y-59207500D02*
X79000000Y-59600000D01*
X72000000Y-59800000D02*
X72600000Y-59800000D01*
X100600000Y-98192500D02*
X101857500Y-98192500D01*
X77600000Y-65000000D02*
X77600000Y-68592500D01*
X79000000Y-59600000D02*
X78800000Y-59800000D01*
X101925000Y-97275000D02*
X102000000Y-97200000D01*
X76075000Y-67625000D02*
X76075000Y-68875000D01*
X53792500Y-82800000D02*
X53792500Y-82392500D01*
X81000000Y-59207500D02*
X81000000Y-59600000D01*
X71400000Y-59800000D02*
X72000000Y-59800000D01*
X67667500Y-141125000D02*
X67600000Y-141192500D01*
X53925000Y-84125000D02*
X53925000Y-85375000D01*
D30*
X93200000Y-142592500D02*
X94292500Y-142592500D01*
D31*
X71200000Y-59600000D02*
X71400000Y-59800000D01*
D30*
X55000000Y-143887500D02*
X55000000Y-144792500D01*
D31*
X41547745Y-110800000D02*
X40400000Y-110800000D01*
X67400000Y-47500000D02*
X69400000Y-45500000D01*
X101925000Y-98125000D02*
X101925000Y-97275000D01*
X67600000Y-141192500D02*
X67400001Y-141192500D01*
X76075000Y-68875000D02*
X77317500Y-68875000D01*
X69200000Y-59207500D02*
X69200000Y-59600000D01*
X79482500Y-52725000D02*
X79600000Y-52607500D01*
X71200000Y-59207500D02*
X71200000Y-59600000D01*
X72000000Y-60400000D02*
X71400000Y-59800000D01*
X75818460Y-63218460D02*
X77600000Y-65000000D01*
X77800000Y-59800000D02*
X78800000Y-59800000D01*
X68925000Y-141125000D02*
X67667500Y-141125000D01*
X65000000Y-59800000D02*
X69000000Y-59800000D01*
X74800000Y-59207500D02*
X74800000Y-60000000D01*
X77862500Y-52725000D02*
X79482500Y-52725000D01*
X77600000Y-59207500D02*
X77600000Y-59600000D01*
X53792500Y-82800000D02*
X53792500Y-83992500D01*
%TO.N,/I2C2_SDA*%
D30*
X77600000Y-58392500D02*
X77007500Y-57800000D01*
X84600000Y-77300000D02*
X86200000Y-79400000D01*
X95400000Y-93600000D02*
X97900000Y-97700000D01*
X79200000Y-146200000D02*
X78800000Y-146600000D01*
X111500000Y-128000000D02*
X111000000Y-129400000D01*
X97000000Y-142604000D02*
X97000000Y-141500000D01*
X58800000Y-141400000D02*
X64900000Y-141400000D01*
X106800000Y-112800000D02*
X109700000Y-118100000D01*
X77000000Y-57800000D02*
X77000000Y-57400000D01*
X55650000Y-143887500D02*
X56312500Y-143887500D01*
X109700000Y-118100000D02*
X110500000Y-120000000D01*
X110100000Y-130900000D02*
X109000000Y-132200000D01*
X92400000Y-88800000D02*
X95400000Y-93600000D01*
X90000000Y-85100000D02*
X92400000Y-88800000D01*
X71075000Y-142375000D02*
X75300000Y-146600000D01*
X65900000Y-140400000D02*
X69631580Y-140400000D01*
X111000000Y-129400000D02*
X110100000Y-130900000D01*
X79200000Y-145195000D02*
X79200000Y-146200000D01*
X56312500Y-143887500D02*
X58225000Y-141975000D01*
X70000000Y-140768420D02*
X70000000Y-141800000D01*
X81500000Y-73000000D02*
X82900000Y-74900000D01*
X97000000Y-141500000D02*
X97300000Y-141200000D01*
X58225000Y-141975000D02*
X58800000Y-141400000D01*
X75300000Y-146600000D02*
X78800000Y-146600000D01*
X101000000Y-137600000D02*
X99900000Y-138600000D01*
X77000000Y-61000000D02*
X81000000Y-65000000D01*
X77007500Y-57800000D02*
X77000000Y-57800000D01*
X107700000Y-133400000D02*
X106000000Y-134500000D01*
X78800000Y-146600000D02*
X86200000Y-146600000D01*
X102700000Y-136500000D02*
X101000000Y-137600000D01*
X106000000Y-134500000D02*
X104100000Y-135600000D01*
X98150000Y-140350000D02*
X97300000Y-141200000D01*
X58250000Y-142000000D02*
X58250000Y-142750000D01*
X70000000Y-141800000D02*
X70575000Y-142375000D01*
X77000000Y-57800000D02*
X77000000Y-61000000D01*
X97900000Y-97700000D02*
X100900000Y-102900000D01*
X96204000Y-143400000D02*
X97000000Y-142604000D01*
X111600000Y-126400000D02*
X111500000Y-128000000D01*
X77125000Y-57275000D02*
X77000000Y-57400000D01*
X104100000Y-135600000D02*
X102700000Y-136500000D01*
X110500000Y-120000000D02*
X111200000Y-121900000D01*
X111200000Y-121900000D02*
X111600000Y-123900000D01*
X81000000Y-71900000D02*
X81500000Y-73000000D01*
X88000000Y-82200000D02*
X90000000Y-85100000D01*
X82900000Y-74900000D02*
X84600000Y-77300000D01*
X100900000Y-102900000D02*
X103400000Y-107000000D01*
X58225000Y-141975000D02*
X58250000Y-142000000D01*
X86200000Y-146600000D02*
X91600000Y-141200000D01*
X70575000Y-142375000D02*
X71075000Y-142375000D01*
X109000000Y-132200000D02*
X107700000Y-133400000D01*
X91600000Y-141200000D02*
X97300000Y-141200000D01*
X95700000Y-143400000D02*
X96204000Y-143400000D01*
X69631580Y-140400000D02*
X70000000Y-140768420D01*
X86200000Y-79400000D02*
X88000000Y-82200000D01*
X103400000Y-107000000D02*
X106800000Y-112800000D01*
X111600000Y-123900000D02*
X111600000Y-126400000D01*
X77862500Y-57275000D02*
X77125000Y-57275000D01*
X81000000Y-65000000D02*
X81000000Y-71900000D01*
X99900000Y-138600000D02*
X98150000Y-140350000D01*
X64900000Y-141400000D02*
X65900000Y-140400000D01*
%TO.N,/~{I2C_M_RST}*%
X72250000Y-49090000D02*
X72250000Y-47550000D01*
X77750000Y-47550000D02*
X77750000Y-49090000D01*
X72900000Y-46900000D02*
X77100000Y-46900000D01*
X73721700Y-54025000D02*
X72137500Y-54025000D01*
X72250000Y-49090000D02*
X72250000Y-50250000D01*
X72250000Y-50250000D02*
X72300000Y-50300000D01*
X72250000Y-47550000D02*
X72900000Y-46900000D01*
X77100000Y-46900000D02*
X77750000Y-47550000D01*
%TO.N,/I2C_M_SDA*%
X76754000Y-50354000D02*
X76754000Y-49094000D01*
X73954000Y-47546000D02*
X76110000Y-47546000D01*
X77862500Y-53375000D02*
X77125001Y-53375000D01*
X73250000Y-49090000D02*
X73250000Y-48250000D01*
X73250000Y-48250000D02*
X73954000Y-47546000D01*
X77125001Y-53375000D02*
X76754000Y-53003999D01*
X77600000Y-51200000D02*
X76754000Y-50354000D01*
X76754000Y-53003999D02*
X76754000Y-50354000D01*
X76110000Y-47546000D02*
X76750000Y-48186000D01*
X76750000Y-48186000D02*
X76750000Y-49090000D01*
%TO.N,/I2C_M_SCL*%
X74250000Y-49898000D02*
X74552000Y-50200000D01*
X75544000Y-50200000D02*
X75750000Y-49994000D01*
X75544000Y-53144000D02*
X75544000Y-50200000D01*
X74250000Y-49090000D02*
X74250000Y-49898000D01*
X77862500Y-54025000D02*
X79825000Y-54025000D01*
X75750000Y-49994000D02*
X75750000Y-49090000D01*
X74552000Y-50200000D02*
X75544000Y-50200000D01*
X79825000Y-54025000D02*
X80000000Y-54200000D01*
X76425000Y-54025000D02*
X75544000Y-53144000D01*
X77862500Y-54025000D02*
X76425000Y-54025000D01*
%TO.N,/I2C1_SCL*%
X73400000Y-78800000D02*
X73200000Y-79000000D01*
X72700000Y-70400000D02*
X72700000Y-67850000D01*
X73725000Y-68875000D02*
X72700000Y-67850000D01*
X71606000Y-77394000D02*
X71100000Y-76888000D01*
X73400000Y-57800000D02*
X73400000Y-63700000D01*
X73400000Y-57116992D02*
X73400000Y-57800000D01*
X72137500Y-56625000D02*
X72908008Y-56625000D01*
X73392500Y-57800000D02*
X73400000Y-57800000D01*
X72800000Y-58392500D02*
X73392500Y-57800000D01*
X72700000Y-64400000D02*
X72700000Y-67850000D01*
X73400000Y-78195000D02*
X73400000Y-77775001D01*
X73400000Y-78195000D02*
X73400000Y-78800000D01*
X71100000Y-72000000D02*
X72700000Y-70400000D01*
X71100000Y-76888000D02*
X71100000Y-72000000D01*
X73018999Y-77394000D02*
X71606000Y-77394000D01*
X72908008Y-56625000D02*
X73400000Y-57116992D01*
X73400000Y-77775001D02*
X73018999Y-77394000D01*
X73400000Y-63700000D02*
X72700000Y-64400000D01*
%TO.N,/I2C3_SCL*%
X85400000Y-77300000D02*
X84370588Y-75829412D01*
X104075000Y-98125000D02*
X103000000Y-97050000D01*
X103000000Y-97050000D02*
X103000000Y-103400000D01*
X84000000Y-75300000D02*
X82800000Y-73600000D01*
X93400000Y-87195000D02*
X93400000Y-86800000D01*
X86800000Y-79100000D02*
X85400000Y-77300000D01*
X94800000Y-89600000D02*
X93400000Y-88200000D01*
X84558453Y-76017277D02*
X84370588Y-75829412D01*
X90900000Y-85400000D02*
X89900000Y-83900000D01*
X84370588Y-75829412D02*
X84000000Y-75300000D01*
X106300000Y-106700000D02*
X107112500Y-107512500D01*
X107112500Y-107512500D02*
X107112500Y-108350000D01*
X81000000Y-58392500D02*
X80407500Y-57800000D01*
X88300000Y-77400000D02*
X87400000Y-77400000D01*
X106250000Y-107500000D02*
X106300000Y-107450000D01*
X82000000Y-72200000D02*
X81800000Y-70600000D01*
X91400000Y-86200000D02*
X90900000Y-85400000D01*
X93400000Y-88200000D02*
X93400000Y-87195000D01*
X80400000Y-61700000D02*
X80400000Y-57800000D01*
X95550000Y-89600000D02*
X94800000Y-89600000D01*
X81800000Y-70600000D02*
X81800000Y-64000000D01*
X87700000Y-80500000D02*
X86800000Y-79100000D01*
X106300000Y-107450000D02*
X106300000Y-106700000D01*
X92994000Y-86394000D02*
X91594000Y-86394000D01*
X89900000Y-83900000D02*
X88600000Y-82000000D01*
X77862500Y-55325000D02*
X79325000Y-55325000D01*
X103000000Y-103400000D02*
X106300000Y-106700000D01*
X82800000Y-73600000D02*
X82000000Y-72200000D01*
X88600000Y-82000000D02*
X87700000Y-80500000D01*
X103000000Y-97050000D02*
X95550000Y-89600000D01*
X85231776Y-76017277D02*
X84558453Y-76017277D01*
X87400000Y-77400000D02*
X87300000Y-77300000D01*
X91594000Y-86394000D02*
X91400000Y-86200000D01*
X93400000Y-86800000D02*
X92994000Y-86394000D01*
X80400000Y-61700000D02*
X81800000Y-64000000D01*
X79325000Y-55325000D02*
X80400000Y-56400000D01*
X80400000Y-56400000D02*
X80400000Y-57800000D01*
X80407500Y-57800000D02*
X80400000Y-57800000D01*
%TO.N,/I2C3_SDA*%
X93600000Y-85800000D02*
X92000000Y-85800000D01*
X79600000Y-56770996D02*
X79600000Y-57800000D01*
X108887500Y-107487500D02*
X108400000Y-107000000D01*
X91600000Y-85300000D02*
X89000000Y-81400000D01*
X79592500Y-57800000D02*
X79600000Y-57800000D01*
X82600000Y-70600000D02*
X82600000Y-63400000D01*
X105200000Y-97600000D02*
X96249004Y-88649004D01*
X86100000Y-77000000D02*
X85900000Y-75800000D01*
X77862500Y-55975000D02*
X78804004Y-55975000D01*
X94200000Y-86400000D02*
X93600000Y-85800000D01*
X84000000Y-73600000D02*
X85200000Y-75000000D01*
X85200000Y-75000000D02*
X85900000Y-75800000D01*
X82600000Y-63400000D02*
X82000000Y-62800000D01*
X80000000Y-62800000D02*
X79600000Y-62400000D01*
X105200000Y-98450000D02*
X105200000Y-97600000D01*
X104275000Y-99375000D02*
X105200000Y-98450000D01*
X108887500Y-108350000D02*
X108887500Y-107487500D01*
X94200000Y-87195000D02*
X94200000Y-86400000D01*
X95350996Y-88649004D02*
X94200000Y-87498008D01*
X87400000Y-78900000D02*
X86600000Y-77800000D01*
X82600000Y-70600000D02*
X83000000Y-71800000D01*
X109250000Y-107000000D02*
X108400000Y-107000000D01*
X105200000Y-103800000D02*
X105200000Y-98450000D01*
X83000000Y-71800000D02*
X84000000Y-73600000D01*
X89000000Y-81400000D02*
X88200000Y-80100000D01*
X108400000Y-107000000D02*
X105200000Y-103800000D01*
X94200000Y-87498008D02*
X94200000Y-87195000D01*
X79000000Y-58392500D02*
X79592500Y-57800000D01*
X86700000Y-76600000D02*
X85900000Y-75800000D01*
X92000000Y-85800000D02*
X91600000Y-85300000D01*
X96249004Y-88649004D02*
X95350996Y-88649004D01*
X86600000Y-77800000D02*
X86100000Y-77000000D01*
X78804004Y-55975000D02*
X79600000Y-56770996D01*
X88300000Y-76600000D02*
X86700000Y-76600000D01*
X79600000Y-62400000D02*
X79600000Y-57800000D01*
X88200000Y-80100000D02*
X87400000Y-78900000D01*
%TO.N,Net-(U8-~{INT})*%
X93400000Y-84805000D02*
X93400000Y-84200000D01*
X92607500Y-83407500D02*
X92200000Y-83407500D01*
X93400000Y-84200000D02*
X92607500Y-83407500D01*
%TO.N,Net-(U10-~{INT})*%
X76671500Y-143479000D02*
X78145999Y-143479000D01*
X76400000Y-143207500D02*
X76671500Y-143479000D01*
X78400000Y-143224999D02*
X78400000Y-142805000D01*
X78145999Y-143479000D02*
X78400000Y-143224999D01*
%TO.N,Net-(U2-~{INT})*%
X72600000Y-74445683D02*
X73400000Y-75245683D01*
X73400000Y-75245683D02*
X73400000Y-75805000D01*
X72600000Y-74407500D02*
X72600000Y-74445683D01*
%TO.N,/I2C1_SDA*%
X71800000Y-76300000D02*
X71800000Y-73000000D01*
X73575000Y-55975000D02*
X74200000Y-56600000D01*
X74200000Y-78800000D02*
X74400000Y-79000000D01*
X75000000Y-64500000D02*
X75000000Y-66800000D01*
X71800000Y-73000000D02*
X75000000Y-69800000D01*
X74200000Y-77500000D02*
X73400000Y-76700000D01*
X72137500Y-55975000D02*
X73575000Y-55975000D01*
X72200000Y-76700000D02*
X71800000Y-76300000D01*
X74200000Y-63700000D02*
X75000000Y-64500000D01*
X74200000Y-57800000D02*
X74200000Y-63700000D01*
X74800000Y-58392500D02*
X74207500Y-57800000D01*
X75000000Y-69800000D02*
X75000000Y-66800000D01*
X74175000Y-67625000D02*
X75000000Y-66800000D01*
X73400000Y-76700000D02*
X72200000Y-76700000D01*
X74200000Y-78195000D02*
X74200000Y-77500000D01*
X74207500Y-57800000D02*
X74200000Y-57800000D01*
X74200000Y-78195000D02*
X74200000Y-78800000D01*
X74200000Y-56600000D02*
X74200000Y-57800000D01*
%TD*%
%TA.AperFunction,Conductor*%
%TO.N,+5V*%
G36*
X82906454Y-48264995D02*
G01*
X82933770Y-48270934D01*
X82936718Y-48273881D01*
X82941157Y-48275185D01*
X82967756Y-48298210D01*
X82967993Y-48298483D01*
X82974689Y-48311844D01*
X82983181Y-48320334D01*
X82995518Y-48353402D01*
X82997163Y-48360960D01*
X83000000Y-48387331D01*
X83000000Y-49858170D01*
X82994975Y-49893114D01*
X82990570Y-49908112D01*
X82952827Y-49966855D01*
X82951458Y-49968042D01*
X82896597Y-49995518D01*
X82889039Y-49997163D01*
X82862668Y-50000000D01*
X81797773Y-50000000D01*
X81765533Y-49995735D01*
X81764151Y-49995363D01*
X81750502Y-49991355D01*
X81744069Y-49989955D01*
X81741133Y-49989165D01*
X81713809Y-49972464D01*
X81685693Y-49957112D01*
X81683885Y-49955304D01*
X81682325Y-49953221D01*
X81681517Y-49952727D01*
X81680713Y-49951067D01*
X81662737Y-49927056D01*
X81652677Y-49908633D01*
X81637515Y-49850318D01*
X81637455Y-49843585D01*
X81639831Y-49818308D01*
X81650500Y-49764676D01*
X81650500Y-48415324D01*
X81650500Y-48415318D01*
X81649903Y-48409255D01*
X81650224Y-48409223D01*
X81648681Y-48380438D01*
X81649753Y-48368453D01*
X81675332Y-48303434D01*
X81732002Y-48262565D01*
X81773260Y-48255500D01*
X82874118Y-48255500D01*
X82906454Y-48264995D01*
G37*
%TD.AperFunction*%
%TD*%
%TA.AperFunction,Conductor*%
%TO.N,+3.3V*%
G36*
X69893106Y-47005023D02*
G01*
X69908104Y-47009427D01*
X69923094Y-47019057D01*
X69940175Y-47024067D01*
X69966855Y-47047172D01*
X69968042Y-47048541D01*
X69995518Y-47103402D01*
X69997163Y-47110960D01*
X70000000Y-47137331D01*
X70000000Y-48121434D01*
X69994976Y-48156371D01*
X69989064Y-48176504D01*
X69981750Y-48188956D01*
X69979448Y-48200018D01*
X69958550Y-48228460D01*
X69953843Y-48233252D01*
X69934268Y-48249463D01*
X69919402Y-48259395D01*
X69919398Y-48259399D01*
X69864033Y-48342258D01*
X69864032Y-48342266D01*
X69864028Y-48342281D01*
X69849500Y-48415318D01*
X69849500Y-49661807D01*
X69849499Y-49661809D01*
X69849500Y-49661811D01*
X69844476Y-49696745D01*
X69839174Y-49714800D01*
X69805771Y-49769602D01*
X69798232Y-49776791D01*
X69774659Y-49794438D01*
X69661985Y-49859490D01*
X69570401Y-49951074D01*
X69544592Y-49970853D01*
X69543348Y-49971568D01*
X69530867Y-49978384D01*
X69525319Y-49981949D01*
X69522694Y-49983461D01*
X69491563Y-49990973D01*
X69460825Y-50000000D01*
X69297716Y-50000000D01*
X69262780Y-49994977D01*
X69237538Y-49987565D01*
X69184793Y-49956269D01*
X69183875Y-49955351D01*
X69162727Y-49927103D01*
X69152667Y-49908680D01*
X69149033Y-49894701D01*
X69142840Y-49885251D01*
X69137505Y-49850369D01*
X69137445Y-49843636D01*
X69139822Y-49818352D01*
X69147017Y-49782180D01*
X69147018Y-49782176D01*
X69147019Y-49782176D01*
X69147019Y-49782169D01*
X69150500Y-49764675D01*
X69150500Y-48415323D01*
X69150500Y-48415139D01*
X69150064Y-48413134D01*
X69135972Y-48342289D01*
X69135967Y-48342266D01*
X69135966Y-48342260D01*
X69080600Y-48259398D01*
X69080596Y-48259395D01*
X69069931Y-48252269D01*
X69043675Y-48228685D01*
X69043487Y-48228460D01*
X69030222Y-48212587D01*
X69003973Y-48158347D01*
X69002603Y-48151767D01*
X69000000Y-48126491D01*
X69000000Y-48000000D01*
X68278413Y-48000000D01*
X68260767Y-47998738D01*
X68231291Y-47994500D01*
X68231290Y-47994500D01*
X67125882Y-47994500D01*
X67092706Y-47984758D01*
X67058968Y-47974896D01*
X67058890Y-47974828D01*
X67058843Y-47974815D01*
X67032267Y-47951815D01*
X67032029Y-47951541D01*
X67004477Y-47896583D01*
X67002832Y-47889021D01*
X67000000Y-47862668D01*
X67000000Y-47141829D01*
X67005023Y-47106893D01*
X67009427Y-47091895D01*
X67019057Y-47076904D01*
X67024067Y-47059824D01*
X67047172Y-47033144D01*
X67048541Y-47031957D01*
X67103420Y-47004477D01*
X67110979Y-47002833D01*
X67137332Y-47000000D01*
X69858170Y-47000000D01*
X69893106Y-47005023D01*
G37*
%TD.AperFunction*%
%TD*%
%TA.AperFunction,Conductor*%
%TO.N,+3.3V*%
G36*
X82943039Y-47019685D02*
G01*
X82988794Y-47072489D01*
X83000000Y-47124000D01*
X83000000Y-47876000D01*
X82980315Y-47943039D01*
X82927511Y-47988794D01*
X82876000Y-48000000D01*
X81000000Y-48000000D01*
X81000000Y-48139264D01*
X80980315Y-48206303D01*
X80944891Y-48242366D01*
X80919399Y-48259398D01*
X80864033Y-48342260D01*
X80864032Y-48342264D01*
X80849500Y-48415321D01*
X80849500Y-49764673D01*
X80862677Y-49830921D01*
X80861969Y-49838826D01*
X80864743Y-49846262D01*
X80858899Y-49873125D01*
X80856449Y-49900512D01*
X80851201Y-49908519D01*
X80849893Y-49914535D01*
X80828742Y-49942790D01*
X80807854Y-49963679D01*
X80746532Y-49997166D01*
X80720171Y-50000000D01*
X80279886Y-50000000D01*
X80212847Y-49980315D01*
X80192205Y-49963681D01*
X80171268Y-49942744D01*
X80137783Y-49881421D01*
X80137332Y-49830872D01*
X80150500Y-49764674D01*
X80150500Y-48415326D01*
X80150500Y-48415323D01*
X80150499Y-48415321D01*
X80135967Y-48342264D01*
X80135966Y-48342260D01*
X80080600Y-48259398D01*
X80055109Y-48242366D01*
X80010304Y-48188754D01*
X80000000Y-48139264D01*
X80000000Y-47124000D01*
X80019685Y-47056961D01*
X80072489Y-47011206D01*
X80124000Y-47000000D01*
X82876000Y-47000000D01*
X82943039Y-47019685D01*
G37*
%TD.AperFunction*%
%TD*%
%TA.AperFunction,Conductor*%
%TO.N,+5V*%
G36*
X68298330Y-48269685D02*
G01*
X68344085Y-48322489D01*
X68354029Y-48391647D01*
X68352908Y-48398193D01*
X68349500Y-48415324D01*
X68349500Y-49764678D01*
X68362667Y-49830872D01*
X68361959Y-49838776D01*
X68364734Y-49846214D01*
X68358890Y-49873081D01*
X68356440Y-49900463D01*
X68351192Y-49908469D01*
X68349884Y-49914487D01*
X68328733Y-49942742D01*
X68307797Y-49963679D01*
X68246475Y-49997166D01*
X68220114Y-50000000D01*
X67124000Y-50000000D01*
X67056961Y-49980315D01*
X67011206Y-49927511D01*
X67000000Y-49876000D01*
X67000000Y-48374000D01*
X67019685Y-48306961D01*
X67072489Y-48261206D01*
X67124000Y-48250000D01*
X68231291Y-48250000D01*
X68298330Y-48269685D01*
G37*
%TD.AperFunction*%
%TD*%
M02*
