%TF.GenerationSoftware,KiCad,Pcbnew,10.0.4-10.0.4~ubuntu24.04.1*%
%TF.CreationDate,2026-07-14T17:14:10-04:00*%
%TF.ProjectId,kmm-pmask-mask,6b6d6d2d-706d-4617-936b-2d6d61736b2e,2.0*%
%TF.SameCoordinates,Original*%
%TF.FileFunction,Legend,Top*%
%TF.FilePolarity,Positive*%
%FSLAX46Y46*%
G04 Gerber Fmt 4.6, Leading zero omitted, Abs format (unit mm)*
G04 Created by KiCad (PCBNEW 10.0.4-10.0.4~ubuntu24.04.1) date 2026-07-14 17:14:10*
%MOMM*%
%LPD*%
G01*
G04 APERTURE LIST*
%ADD10C,0.100000*%
%ADD11C,0.150000*%
%ADD12C,0.127000*%
%ADD13C,0.200000*%
%ADD14C,0.120000*%
G04 APERTURE END LIST*
D10*
X45750000Y-95750000D02*
X53000000Y-95750000D01*
X45750000Y-97750000D02*
X45750000Y-95750000D01*
X53000000Y-95750000D02*
X53000000Y-92750000D01*
X68000000Y-69500000D02*
X72500000Y-69500000D01*
X72500000Y-69500000D02*
X72500000Y-73000000D01*
X72500000Y-73000000D02*
X78000000Y-73000000D01*
X73800000Y-139800000D02*
X80200000Y-139800000D01*
X78250000Y-73000000D02*
X78000000Y-73000000D01*
X78250000Y-74750000D02*
X78250000Y-73000000D01*
X86600000Y-79000000D02*
X91600000Y-79000000D01*
X91600000Y-79000000D02*
X92400000Y-79000000D01*
X92400000Y-79000000D02*
X92400000Y-81800000D01*
X92400000Y-81800000D02*
X97200000Y-81800000D01*
X97200000Y-81800000D02*
X97200000Y-82800000D01*
X97200000Y-82800000D02*
X97600000Y-83200000D01*
X97600000Y-83200000D02*
X97600000Y-83800000D01*
D11*
X65039819Y-63574874D02*
X65039819Y-63479636D01*
X65039819Y-63479636D02*
X65087438Y-63384398D01*
X65087438Y-63384398D02*
X65135057Y-63336779D01*
X65135057Y-63336779D02*
X65230295Y-63289160D01*
X65230295Y-63289160D02*
X65420771Y-63241541D01*
X65420771Y-63241541D02*
X65658866Y-63241541D01*
X65658866Y-63241541D02*
X65849342Y-63289160D01*
X65849342Y-63289160D02*
X65944580Y-63336779D01*
X65944580Y-63336779D02*
X65992200Y-63384398D01*
X65992200Y-63384398D02*
X66039819Y-63479636D01*
X66039819Y-63479636D02*
X66039819Y-63574874D01*
X66039819Y-63574874D02*
X65992200Y-63670112D01*
X65992200Y-63670112D02*
X65944580Y-63717731D01*
X65944580Y-63717731D02*
X65849342Y-63765350D01*
X65849342Y-63765350D02*
X65658866Y-63812969D01*
X65658866Y-63812969D02*
X65420771Y-63812969D01*
X65420771Y-63812969D02*
X65230295Y-63765350D01*
X65230295Y-63765350D02*
X65135057Y-63717731D01*
X65135057Y-63717731D02*
X65087438Y-63670112D01*
X65087438Y-63670112D02*
X65039819Y-63574874D01*
X65944580Y-62812969D02*
X65992200Y-62765350D01*
X65992200Y-62765350D02*
X66039819Y-62812969D01*
X66039819Y-62812969D02*
X65992200Y-62860588D01*
X65992200Y-62860588D02*
X65944580Y-62812969D01*
X65944580Y-62812969D02*
X66039819Y-62812969D01*
X65039819Y-61860589D02*
X65039819Y-62336779D01*
X65039819Y-62336779D02*
X65516009Y-62384398D01*
X65516009Y-62384398D02*
X65468390Y-62336779D01*
X65468390Y-62336779D02*
X65420771Y-62241541D01*
X65420771Y-62241541D02*
X65420771Y-62003446D01*
X65420771Y-62003446D02*
X65468390Y-61908208D01*
X65468390Y-61908208D02*
X65516009Y-61860589D01*
X65516009Y-61860589D02*
X65611247Y-61812970D01*
X65611247Y-61812970D02*
X65849342Y-61812970D01*
X65849342Y-61812970D02*
X65944580Y-61860589D01*
X65944580Y-61860589D02*
X65992200Y-61908208D01*
X65992200Y-61908208D02*
X66039819Y-62003446D01*
X66039819Y-62003446D02*
X66039819Y-62241541D01*
X66039819Y-62241541D02*
X65992200Y-62336779D01*
X65992200Y-62336779D02*
X65944580Y-62384398D01*
X66039819Y-60622493D02*
X65373152Y-60622493D01*
X65468390Y-60622493D02*
X65420771Y-60574874D01*
X65420771Y-60574874D02*
X65373152Y-60479636D01*
X65373152Y-60479636D02*
X65373152Y-60336779D01*
X65373152Y-60336779D02*
X65420771Y-60241541D01*
X65420771Y-60241541D02*
X65516009Y-60193922D01*
X65516009Y-60193922D02*
X66039819Y-60193922D01*
X65516009Y-60193922D02*
X65420771Y-60146303D01*
X65420771Y-60146303D02*
X65373152Y-60051065D01*
X65373152Y-60051065D02*
X65373152Y-59908208D01*
X65373152Y-59908208D02*
X65420771Y-59812969D01*
X65420771Y-59812969D02*
X65516009Y-59765350D01*
X65516009Y-59765350D02*
X66039819Y-59765350D01*
X66039819Y-59289160D02*
X65373152Y-59289160D01*
X65468390Y-59289160D02*
X65420771Y-59241541D01*
X65420771Y-59241541D02*
X65373152Y-59146303D01*
X65373152Y-59146303D02*
X65373152Y-59003446D01*
X65373152Y-59003446D02*
X65420771Y-58908208D01*
X65420771Y-58908208D02*
X65516009Y-58860589D01*
X65516009Y-58860589D02*
X66039819Y-58860589D01*
X65516009Y-58860589D02*
X65420771Y-58812970D01*
X65420771Y-58812970D02*
X65373152Y-58717732D01*
X65373152Y-58717732D02*
X65373152Y-58574875D01*
X65373152Y-58574875D02*
X65420771Y-58479636D01*
X65420771Y-58479636D02*
X65516009Y-58432017D01*
X65516009Y-58432017D02*
X66039819Y-58432017D01*
X64992200Y-57241542D02*
X66277914Y-58098684D01*
X65039819Y-57003446D02*
X65039819Y-56384399D01*
X65039819Y-56384399D02*
X65420771Y-56717732D01*
X65420771Y-56717732D02*
X65420771Y-56574875D01*
X65420771Y-56574875D02*
X65468390Y-56479637D01*
X65468390Y-56479637D02*
X65516009Y-56432018D01*
X65516009Y-56432018D02*
X65611247Y-56384399D01*
X65611247Y-56384399D02*
X65849342Y-56384399D01*
X65849342Y-56384399D02*
X65944580Y-56432018D01*
X65944580Y-56432018D02*
X65992200Y-56479637D01*
X65992200Y-56479637D02*
X66039819Y-56574875D01*
X66039819Y-56574875D02*
X66039819Y-56860589D01*
X66039819Y-56860589D02*
X65992200Y-56955827D01*
X65992200Y-56955827D02*
X65944580Y-57003446D01*
X65039819Y-55765351D02*
X65039819Y-55670113D01*
X65039819Y-55670113D02*
X65087438Y-55574875D01*
X65087438Y-55574875D02*
X65135057Y-55527256D01*
X65135057Y-55527256D02*
X65230295Y-55479637D01*
X65230295Y-55479637D02*
X65420771Y-55432018D01*
X65420771Y-55432018D02*
X65658866Y-55432018D01*
X65658866Y-55432018D02*
X65849342Y-55479637D01*
X65849342Y-55479637D02*
X65944580Y-55527256D01*
X65944580Y-55527256D02*
X65992200Y-55574875D01*
X65992200Y-55574875D02*
X66039819Y-55670113D01*
X66039819Y-55670113D02*
X66039819Y-55765351D01*
X66039819Y-55765351D02*
X65992200Y-55860589D01*
X65992200Y-55860589D02*
X65944580Y-55908208D01*
X65944580Y-55908208D02*
X65849342Y-55955827D01*
X65849342Y-55955827D02*
X65658866Y-56003446D01*
X65658866Y-56003446D02*
X65420771Y-56003446D01*
X65420771Y-56003446D02*
X65230295Y-55955827D01*
X65230295Y-55955827D02*
X65135057Y-55908208D01*
X65135057Y-55908208D02*
X65087438Y-55860589D01*
X65087438Y-55860589D02*
X65039819Y-55765351D01*
X65373152Y-54241541D02*
X66373152Y-54241541D01*
X65420771Y-54241541D02*
X65373152Y-54146303D01*
X65373152Y-54146303D02*
X65373152Y-53955827D01*
X65373152Y-53955827D02*
X65420771Y-53860589D01*
X65420771Y-53860589D02*
X65468390Y-53812970D01*
X65468390Y-53812970D02*
X65563628Y-53765351D01*
X65563628Y-53765351D02*
X65849342Y-53765351D01*
X65849342Y-53765351D02*
X65944580Y-53812970D01*
X65944580Y-53812970D02*
X65992200Y-53860589D01*
X65992200Y-53860589D02*
X66039819Y-53955827D01*
X66039819Y-53955827D02*
X66039819Y-54146303D01*
X66039819Y-54146303D02*
X65992200Y-54241541D01*
X66039819Y-53193922D02*
X65992200Y-53289160D01*
X65992200Y-53289160D02*
X65944580Y-53336779D01*
X65944580Y-53336779D02*
X65849342Y-53384398D01*
X65849342Y-53384398D02*
X65563628Y-53384398D01*
X65563628Y-53384398D02*
X65468390Y-53336779D01*
X65468390Y-53336779D02*
X65420771Y-53289160D01*
X65420771Y-53289160D02*
X65373152Y-53193922D01*
X65373152Y-53193922D02*
X65373152Y-53051065D01*
X65373152Y-53051065D02*
X65420771Y-52955827D01*
X65420771Y-52955827D02*
X65468390Y-52908208D01*
X65468390Y-52908208D02*
X65563628Y-52860589D01*
X65563628Y-52860589D02*
X65849342Y-52860589D01*
X65849342Y-52860589D02*
X65944580Y-52908208D01*
X65944580Y-52908208D02*
X65992200Y-52955827D01*
X65992200Y-52955827D02*
X66039819Y-53051065D01*
X66039819Y-53051065D02*
X66039819Y-53193922D01*
X65992200Y-52479636D02*
X66039819Y-52384398D01*
X66039819Y-52384398D02*
X66039819Y-52193922D01*
X66039819Y-52193922D02*
X65992200Y-52098684D01*
X65992200Y-52098684D02*
X65896961Y-52051065D01*
X65896961Y-52051065D02*
X65849342Y-52051065D01*
X65849342Y-52051065D02*
X65754104Y-52098684D01*
X65754104Y-52098684D02*
X65706485Y-52193922D01*
X65706485Y-52193922D02*
X65706485Y-52336779D01*
X65706485Y-52336779D02*
X65658866Y-52432017D01*
X65658866Y-52432017D02*
X65563628Y-52479636D01*
X65563628Y-52479636D02*
X65516009Y-52479636D01*
X65516009Y-52479636D02*
X65420771Y-52432017D01*
X65420771Y-52432017D02*
X65373152Y-52336779D01*
X65373152Y-52336779D02*
X65373152Y-52193922D01*
X65373152Y-52193922D02*
X65420771Y-52098684D01*
X67125953Y-63003448D02*
X67125953Y-63336781D01*
X67649763Y-63336781D02*
X66649763Y-63336781D01*
X66649763Y-63336781D02*
X66649763Y-62860591D01*
X67125953Y-62146305D02*
X67125953Y-62479638D01*
X67649763Y-62479638D02*
X66649763Y-62479638D01*
X66649763Y-62479638D02*
X66649763Y-62003448D01*
X67554524Y-61051067D02*
X67602144Y-61098686D01*
X67602144Y-61098686D02*
X67649763Y-61241543D01*
X67649763Y-61241543D02*
X67649763Y-61336781D01*
X67649763Y-61336781D02*
X67602144Y-61479638D01*
X67602144Y-61479638D02*
X67506905Y-61574876D01*
X67506905Y-61574876D02*
X67411667Y-61622495D01*
X67411667Y-61622495D02*
X67221191Y-61670114D01*
X67221191Y-61670114D02*
X67078334Y-61670114D01*
X67078334Y-61670114D02*
X66887858Y-61622495D01*
X66887858Y-61622495D02*
X66792620Y-61574876D01*
X66792620Y-61574876D02*
X66697382Y-61479638D01*
X66697382Y-61479638D02*
X66649763Y-61336781D01*
X66649763Y-61336781D02*
X66649763Y-61241543D01*
X66649763Y-61241543D02*
X66697382Y-61098686D01*
X66697382Y-61098686D02*
X66745001Y-61051067D01*
X68030715Y-59574876D02*
X67983096Y-59622495D01*
X67983096Y-59622495D02*
X67840239Y-59717733D01*
X67840239Y-59717733D02*
X67745001Y-59765352D01*
X67745001Y-59765352D02*
X67602144Y-59812971D01*
X67602144Y-59812971D02*
X67364048Y-59860590D01*
X67364048Y-59860590D02*
X67173572Y-59860590D01*
X67173572Y-59860590D02*
X66935477Y-59812971D01*
X66935477Y-59812971D02*
X66792620Y-59765352D01*
X66792620Y-59765352D02*
X66697382Y-59717733D01*
X66697382Y-59717733D02*
X66554524Y-59622495D01*
X66554524Y-59622495D02*
X66506905Y-59574876D01*
X67649763Y-58622495D02*
X67173572Y-58955828D01*
X67649763Y-59193923D02*
X66649763Y-59193923D01*
X66649763Y-59193923D02*
X66649763Y-58812971D01*
X66649763Y-58812971D02*
X66697382Y-58717733D01*
X66697382Y-58717733D02*
X66745001Y-58670114D01*
X66745001Y-58670114D02*
X66840239Y-58622495D01*
X66840239Y-58622495D02*
X66983096Y-58622495D01*
X66983096Y-58622495D02*
X67078334Y-58670114D01*
X67078334Y-58670114D02*
X67125953Y-58717733D01*
X67125953Y-58717733D02*
X67173572Y-58812971D01*
X67173572Y-58812971D02*
X67173572Y-59193923D01*
X67602144Y-57812971D02*
X67649763Y-57908209D01*
X67649763Y-57908209D02*
X67649763Y-58098685D01*
X67649763Y-58098685D02*
X67602144Y-58193923D01*
X67602144Y-58193923D02*
X67506905Y-58241542D01*
X67506905Y-58241542D02*
X67125953Y-58241542D01*
X67125953Y-58241542D02*
X67030715Y-58193923D01*
X67030715Y-58193923D02*
X66983096Y-58098685D01*
X66983096Y-58098685D02*
X66983096Y-57908209D01*
X66983096Y-57908209D02*
X67030715Y-57812971D01*
X67030715Y-57812971D02*
X67125953Y-57765352D01*
X67125953Y-57765352D02*
X67221191Y-57765352D01*
X67221191Y-57765352D02*
X67316429Y-58241542D01*
X66983096Y-57432018D02*
X67649763Y-57193923D01*
X67649763Y-57193923D02*
X66983096Y-56955828D01*
X67602144Y-56193923D02*
X67649763Y-56289161D01*
X67649763Y-56289161D02*
X67649763Y-56479637D01*
X67649763Y-56479637D02*
X67602144Y-56574875D01*
X67602144Y-56574875D02*
X67506905Y-56622494D01*
X67506905Y-56622494D02*
X67125953Y-56622494D01*
X67125953Y-56622494D02*
X67030715Y-56574875D01*
X67030715Y-56574875D02*
X66983096Y-56479637D01*
X66983096Y-56479637D02*
X66983096Y-56289161D01*
X66983096Y-56289161D02*
X67030715Y-56193923D01*
X67030715Y-56193923D02*
X67125953Y-56146304D01*
X67125953Y-56146304D02*
X67221191Y-56146304D01*
X67221191Y-56146304D02*
X67316429Y-56622494D01*
X67649763Y-55717732D02*
X66983096Y-55717732D01*
X67173572Y-55717732D02*
X67078334Y-55670113D01*
X67078334Y-55670113D02*
X67030715Y-55622494D01*
X67030715Y-55622494D02*
X66983096Y-55527256D01*
X66983096Y-55527256D02*
X66983096Y-55432018D01*
X67602144Y-55146303D02*
X67649763Y-55051065D01*
X67649763Y-55051065D02*
X67649763Y-54860589D01*
X67649763Y-54860589D02*
X67602144Y-54765351D01*
X67602144Y-54765351D02*
X67506905Y-54717732D01*
X67506905Y-54717732D02*
X67459286Y-54717732D01*
X67459286Y-54717732D02*
X67364048Y-54765351D01*
X67364048Y-54765351D02*
X67316429Y-54860589D01*
X67316429Y-54860589D02*
X67316429Y-55003446D01*
X67316429Y-55003446D02*
X67268810Y-55098684D01*
X67268810Y-55098684D02*
X67173572Y-55146303D01*
X67173572Y-55146303D02*
X67125953Y-55146303D01*
X67125953Y-55146303D02*
X67030715Y-55098684D01*
X67030715Y-55098684D02*
X66983096Y-55003446D01*
X66983096Y-55003446D02*
X66983096Y-54860589D01*
X66983096Y-54860589D02*
X67030715Y-54765351D01*
X67649763Y-54289160D02*
X66983096Y-54289160D01*
X66649763Y-54289160D02*
X66697382Y-54336779D01*
X66697382Y-54336779D02*
X66745001Y-54289160D01*
X66745001Y-54289160D02*
X66697382Y-54241541D01*
X66697382Y-54241541D02*
X66649763Y-54289160D01*
X66649763Y-54289160D02*
X66745001Y-54289160D01*
X67649763Y-53812970D02*
X66649763Y-53812970D01*
X67030715Y-53812970D02*
X66983096Y-53717732D01*
X66983096Y-53717732D02*
X66983096Y-53527256D01*
X66983096Y-53527256D02*
X67030715Y-53432018D01*
X67030715Y-53432018D02*
X67078334Y-53384399D01*
X67078334Y-53384399D02*
X67173572Y-53336780D01*
X67173572Y-53336780D02*
X67459286Y-53336780D01*
X67459286Y-53336780D02*
X67554524Y-53384399D01*
X67554524Y-53384399D02*
X67602144Y-53432018D01*
X67602144Y-53432018D02*
X67649763Y-53527256D01*
X67649763Y-53527256D02*
X67649763Y-53717732D01*
X67649763Y-53717732D02*
X67602144Y-53812970D01*
X67649763Y-52765351D02*
X67602144Y-52860589D01*
X67602144Y-52860589D02*
X67506905Y-52908208D01*
X67506905Y-52908208D02*
X66649763Y-52908208D01*
X67602144Y-52003446D02*
X67649763Y-52098684D01*
X67649763Y-52098684D02*
X67649763Y-52289160D01*
X67649763Y-52289160D02*
X67602144Y-52384398D01*
X67602144Y-52384398D02*
X67506905Y-52432017D01*
X67506905Y-52432017D02*
X67125953Y-52432017D01*
X67125953Y-52432017D02*
X67030715Y-52384398D01*
X67030715Y-52384398D02*
X66983096Y-52289160D01*
X66983096Y-52289160D02*
X66983096Y-52098684D01*
X66983096Y-52098684D02*
X67030715Y-52003446D01*
X67030715Y-52003446D02*
X67125953Y-51955827D01*
X67125953Y-51955827D02*
X67221191Y-51955827D01*
X67221191Y-51955827D02*
X67316429Y-52432017D01*
X68030715Y-51622493D02*
X67983096Y-51574874D01*
X67983096Y-51574874D02*
X67840239Y-51479636D01*
X67840239Y-51479636D02*
X67745001Y-51432017D01*
X67745001Y-51432017D02*
X67602144Y-51384398D01*
X67602144Y-51384398D02*
X67364048Y-51336779D01*
X67364048Y-51336779D02*
X67173572Y-51336779D01*
X67173572Y-51336779D02*
X66935477Y-51384398D01*
X66935477Y-51384398D02*
X66792620Y-51432017D01*
X66792620Y-51432017D02*
X66697382Y-51479636D01*
X66697382Y-51479636D02*
X66554524Y-51574874D01*
X66554524Y-51574874D02*
X66506905Y-51622493D01*
X80504762Y-40540419D02*
X80552381Y-40492800D01*
X80552381Y-40492800D02*
X80695238Y-40445180D01*
X80695238Y-40445180D02*
X80790476Y-40445180D01*
X80790476Y-40445180D02*
X80933333Y-40492800D01*
X80933333Y-40492800D02*
X81028571Y-40588038D01*
X81028571Y-40588038D02*
X81076190Y-40683276D01*
X81076190Y-40683276D02*
X81123809Y-40873752D01*
X81123809Y-40873752D02*
X81123809Y-41016609D01*
X81123809Y-41016609D02*
X81076190Y-41207085D01*
X81076190Y-41207085D02*
X81028571Y-41302323D01*
X81028571Y-41302323D02*
X80933333Y-41397561D01*
X80933333Y-41397561D02*
X80790476Y-41445180D01*
X80790476Y-41445180D02*
X80695238Y-41445180D01*
X80695238Y-41445180D02*
X80552381Y-41397561D01*
X80552381Y-41397561D02*
X80504762Y-41349942D01*
X79885714Y-41445180D02*
X79695238Y-41445180D01*
X79695238Y-41445180D02*
X79600000Y-41397561D01*
X79600000Y-41397561D02*
X79504762Y-41302323D01*
X79504762Y-41302323D02*
X79457143Y-41111847D01*
X79457143Y-41111847D02*
X79457143Y-40778514D01*
X79457143Y-40778514D02*
X79504762Y-40588038D01*
X79504762Y-40588038D02*
X79600000Y-40492800D01*
X79600000Y-40492800D02*
X79695238Y-40445180D01*
X79695238Y-40445180D02*
X79885714Y-40445180D01*
X79885714Y-40445180D02*
X79980952Y-40492800D01*
X79980952Y-40492800D02*
X80076190Y-40588038D01*
X80076190Y-40588038D02*
X80123809Y-40778514D01*
X80123809Y-40778514D02*
X80123809Y-41111847D01*
X80123809Y-41111847D02*
X80076190Y-41302323D01*
X80076190Y-41302323D02*
X79980952Y-41397561D01*
X79980952Y-41397561D02*
X79885714Y-41445180D01*
X79028571Y-40445180D02*
X79028571Y-41445180D01*
X79028571Y-41445180D02*
X78457143Y-40445180D01*
X78457143Y-40445180D02*
X78457143Y-41445180D01*
X78123809Y-41445180D02*
X77552381Y-41445180D01*
X77838095Y-40445180D02*
X77838095Y-41445180D01*
X77266666Y-40730895D02*
X76790476Y-40730895D01*
X77361904Y-40445180D02*
X77028571Y-41445180D01*
X77028571Y-41445180D02*
X76695238Y-40445180D01*
X75790476Y-40540419D02*
X75838095Y-40492800D01*
X75838095Y-40492800D02*
X75980952Y-40445180D01*
X75980952Y-40445180D02*
X76076190Y-40445180D01*
X76076190Y-40445180D02*
X76219047Y-40492800D01*
X76219047Y-40492800D02*
X76314285Y-40588038D01*
X76314285Y-40588038D02*
X76361904Y-40683276D01*
X76361904Y-40683276D02*
X76409523Y-40873752D01*
X76409523Y-40873752D02*
X76409523Y-41016609D01*
X76409523Y-41016609D02*
X76361904Y-41207085D01*
X76361904Y-41207085D02*
X76314285Y-41302323D01*
X76314285Y-41302323D02*
X76219047Y-41397561D01*
X76219047Y-41397561D02*
X76076190Y-41445180D01*
X76076190Y-41445180D02*
X75980952Y-41445180D01*
X75980952Y-41445180D02*
X75838095Y-41397561D01*
X75838095Y-41397561D02*
X75790476Y-41349942D01*
X75504761Y-41445180D02*
X74933333Y-41445180D01*
X75219047Y-40445180D02*
X75219047Y-41445180D01*
X74647618Y-40492800D02*
X74504761Y-40445180D01*
X74504761Y-40445180D02*
X74266666Y-40445180D01*
X74266666Y-40445180D02*
X74171428Y-40492800D01*
X74171428Y-40492800D02*
X74123809Y-40540419D01*
X74123809Y-40540419D02*
X74076190Y-40635657D01*
X74076190Y-40635657D02*
X74076190Y-40730895D01*
X74076190Y-40730895D02*
X74123809Y-40826133D01*
X74123809Y-40826133D02*
X74171428Y-40873752D01*
X74171428Y-40873752D02*
X74266666Y-40921371D01*
X74266666Y-40921371D02*
X74457142Y-40968990D01*
X74457142Y-40968990D02*
X74552380Y-41016609D01*
X74552380Y-41016609D02*
X74599999Y-41064228D01*
X74599999Y-41064228D02*
X74647618Y-41159466D01*
X74647618Y-41159466D02*
X74647618Y-41254704D01*
X74647618Y-41254704D02*
X74599999Y-41349942D01*
X74599999Y-41349942D02*
X74552380Y-41397561D01*
X74552380Y-41397561D02*
X74457142Y-41445180D01*
X74457142Y-41445180D02*
X74219047Y-41445180D01*
X74219047Y-41445180D02*
X74076190Y-41397561D01*
X72885713Y-40445180D02*
X72885713Y-41445180D01*
X72885713Y-41445180D02*
X72647618Y-41445180D01*
X72647618Y-41445180D02*
X72504761Y-41397561D01*
X72504761Y-41397561D02*
X72409523Y-41302323D01*
X72409523Y-41302323D02*
X72361904Y-41207085D01*
X72361904Y-41207085D02*
X72314285Y-41016609D01*
X72314285Y-41016609D02*
X72314285Y-40873752D01*
X72314285Y-40873752D02*
X72361904Y-40683276D01*
X72361904Y-40683276D02*
X72409523Y-40588038D01*
X72409523Y-40588038D02*
X72504761Y-40492800D01*
X72504761Y-40492800D02*
X72647618Y-40445180D01*
X72647618Y-40445180D02*
X72885713Y-40445180D01*
X71695237Y-41445180D02*
X71504761Y-41445180D01*
X71504761Y-41445180D02*
X71409523Y-41397561D01*
X71409523Y-41397561D02*
X71314285Y-41302323D01*
X71314285Y-41302323D02*
X71266666Y-41111847D01*
X71266666Y-41111847D02*
X71266666Y-40778514D01*
X71266666Y-40778514D02*
X71314285Y-40588038D01*
X71314285Y-40588038D02*
X71409523Y-40492800D01*
X71409523Y-40492800D02*
X71504761Y-40445180D01*
X71504761Y-40445180D02*
X71695237Y-40445180D01*
X71695237Y-40445180D02*
X71790475Y-40492800D01*
X71790475Y-40492800D02*
X71885713Y-40588038D01*
X71885713Y-40588038D02*
X71933332Y-40778514D01*
X71933332Y-40778514D02*
X71933332Y-41111847D01*
X71933332Y-41111847D02*
X71885713Y-41302323D01*
X71885713Y-41302323D02*
X71790475Y-41397561D01*
X71790475Y-41397561D02*
X71695237Y-41445180D01*
X70933332Y-41445180D02*
X70695237Y-40445180D01*
X70695237Y-40445180D02*
X70504761Y-41159466D01*
X70504761Y-41159466D02*
X70314285Y-40445180D01*
X70314285Y-40445180D02*
X70076190Y-41445180D01*
X69695237Y-40445180D02*
X69695237Y-41445180D01*
X69695237Y-41445180D02*
X69123809Y-40445180D01*
X69123809Y-40445180D02*
X69123809Y-41445180D01*
X76159580Y-142042857D02*
X76207200Y-142090476D01*
X76207200Y-142090476D02*
X76254819Y-142233333D01*
X76254819Y-142233333D02*
X76254819Y-142328571D01*
X76254819Y-142328571D02*
X76207200Y-142471428D01*
X76207200Y-142471428D02*
X76111961Y-142566666D01*
X76111961Y-142566666D02*
X76016723Y-142614285D01*
X76016723Y-142614285D02*
X75826247Y-142661904D01*
X75826247Y-142661904D02*
X75683390Y-142661904D01*
X75683390Y-142661904D02*
X75492914Y-142614285D01*
X75492914Y-142614285D02*
X75397676Y-142566666D01*
X75397676Y-142566666D02*
X75302438Y-142471428D01*
X75302438Y-142471428D02*
X75254819Y-142328571D01*
X75254819Y-142328571D02*
X75254819Y-142233333D01*
X75254819Y-142233333D02*
X75302438Y-142090476D01*
X75302438Y-142090476D02*
X75350057Y-142042857D01*
X76254819Y-141090476D02*
X76254819Y-141661904D01*
X76254819Y-141376190D02*
X75254819Y-141376190D01*
X75254819Y-141376190D02*
X75397676Y-141471428D01*
X75397676Y-141471428D02*
X75492914Y-141566666D01*
X75492914Y-141566666D02*
X75540533Y-141661904D01*
X75683390Y-140519047D02*
X75635771Y-140614285D01*
X75635771Y-140614285D02*
X75588152Y-140661904D01*
X75588152Y-140661904D02*
X75492914Y-140709523D01*
X75492914Y-140709523D02*
X75445295Y-140709523D01*
X75445295Y-140709523D02*
X75350057Y-140661904D01*
X75350057Y-140661904D02*
X75302438Y-140614285D01*
X75302438Y-140614285D02*
X75254819Y-140519047D01*
X75254819Y-140519047D02*
X75254819Y-140328571D01*
X75254819Y-140328571D02*
X75302438Y-140233333D01*
X75302438Y-140233333D02*
X75350057Y-140185714D01*
X75350057Y-140185714D02*
X75445295Y-140138095D01*
X75445295Y-140138095D02*
X75492914Y-140138095D01*
X75492914Y-140138095D02*
X75588152Y-140185714D01*
X75588152Y-140185714D02*
X75635771Y-140233333D01*
X75635771Y-140233333D02*
X75683390Y-140328571D01*
X75683390Y-140328571D02*
X75683390Y-140519047D01*
X75683390Y-140519047D02*
X75731009Y-140614285D01*
X75731009Y-140614285D02*
X75778628Y-140661904D01*
X75778628Y-140661904D02*
X75873866Y-140709523D01*
X75873866Y-140709523D02*
X76064342Y-140709523D01*
X76064342Y-140709523D02*
X76159580Y-140661904D01*
X76159580Y-140661904D02*
X76207200Y-140614285D01*
X76207200Y-140614285D02*
X76254819Y-140519047D01*
X76254819Y-140519047D02*
X76254819Y-140328571D01*
X76254819Y-140328571D02*
X76207200Y-140233333D01*
X76207200Y-140233333D02*
X76159580Y-140185714D01*
X76159580Y-140185714D02*
X76064342Y-140138095D01*
X76064342Y-140138095D02*
X75873866Y-140138095D01*
X75873866Y-140138095D02*
X75778628Y-140185714D01*
X75778628Y-140185714D02*
X75731009Y-140233333D01*
X75731009Y-140233333D02*
X75683390Y-140328571D01*
X46238095Y-102254819D02*
X46238095Y-103064342D01*
X46238095Y-103064342D02*
X46285714Y-103159580D01*
X46285714Y-103159580D02*
X46333333Y-103207200D01*
X46333333Y-103207200D02*
X46428571Y-103254819D01*
X46428571Y-103254819D02*
X46619047Y-103254819D01*
X46619047Y-103254819D02*
X46714285Y-103207200D01*
X46714285Y-103207200D02*
X46761904Y-103159580D01*
X46761904Y-103159580D02*
X46809523Y-103064342D01*
X46809523Y-103064342D02*
X46809523Y-102254819D01*
X47333333Y-103254819D02*
X47523809Y-103254819D01*
X47523809Y-103254819D02*
X47619047Y-103207200D01*
X47619047Y-103207200D02*
X47666666Y-103159580D01*
X47666666Y-103159580D02*
X47761904Y-103016723D01*
X47761904Y-103016723D02*
X47809523Y-102826247D01*
X47809523Y-102826247D02*
X47809523Y-102445295D01*
X47809523Y-102445295D02*
X47761904Y-102350057D01*
X47761904Y-102350057D02*
X47714285Y-102302438D01*
X47714285Y-102302438D02*
X47619047Y-102254819D01*
X47619047Y-102254819D02*
X47428571Y-102254819D01*
X47428571Y-102254819D02*
X47333333Y-102302438D01*
X47333333Y-102302438D02*
X47285714Y-102350057D01*
X47285714Y-102350057D02*
X47238095Y-102445295D01*
X47238095Y-102445295D02*
X47238095Y-102683390D01*
X47238095Y-102683390D02*
X47285714Y-102778628D01*
X47285714Y-102778628D02*
X47333333Y-102826247D01*
X47333333Y-102826247D02*
X47428571Y-102873866D01*
X47428571Y-102873866D02*
X47619047Y-102873866D01*
X47619047Y-102873866D02*
X47714285Y-102826247D01*
X47714285Y-102826247D02*
X47761904Y-102778628D01*
X47761904Y-102778628D02*
X47809523Y-102683390D01*
X50761905Y-142454819D02*
X50761905Y-143264342D01*
X50761905Y-143264342D02*
X50809524Y-143359580D01*
X50809524Y-143359580D02*
X50857143Y-143407200D01*
X50857143Y-143407200D02*
X50952381Y-143454819D01*
X50952381Y-143454819D02*
X51142857Y-143454819D01*
X51142857Y-143454819D02*
X51238095Y-143407200D01*
X51238095Y-143407200D02*
X51285714Y-143359580D01*
X51285714Y-143359580D02*
X51333333Y-143264342D01*
X51333333Y-143264342D02*
X51333333Y-142454819D01*
X52333333Y-143454819D02*
X51761905Y-143454819D01*
X52047619Y-143454819D02*
X52047619Y-142454819D01*
X52047619Y-142454819D02*
X51952381Y-142597676D01*
X51952381Y-142597676D02*
X51857143Y-142692914D01*
X51857143Y-142692914D02*
X51761905Y-142740533D01*
X53190476Y-142788152D02*
X53190476Y-143454819D01*
X52952381Y-142407200D02*
X52714286Y-143121485D01*
X52714286Y-143121485D02*
X53333333Y-143121485D01*
X76454819Y-61166666D02*
X75978628Y-61499999D01*
X76454819Y-61738094D02*
X75454819Y-61738094D01*
X75454819Y-61738094D02*
X75454819Y-61357142D01*
X75454819Y-61357142D02*
X75502438Y-61261904D01*
X75502438Y-61261904D02*
X75550057Y-61214285D01*
X75550057Y-61214285D02*
X75645295Y-61166666D01*
X75645295Y-61166666D02*
X75788152Y-61166666D01*
X75788152Y-61166666D02*
X75883390Y-61214285D01*
X75883390Y-61214285D02*
X75931009Y-61261904D01*
X75931009Y-61261904D02*
X75978628Y-61357142D01*
X75978628Y-61357142D02*
X75978628Y-61738094D01*
X75454819Y-60309523D02*
X75454819Y-60499999D01*
X75454819Y-60499999D02*
X75502438Y-60595237D01*
X75502438Y-60595237D02*
X75550057Y-60642856D01*
X75550057Y-60642856D02*
X75692914Y-60738094D01*
X75692914Y-60738094D02*
X75883390Y-60785713D01*
X75883390Y-60785713D02*
X76264342Y-60785713D01*
X76264342Y-60785713D02*
X76359580Y-60738094D01*
X76359580Y-60738094D02*
X76407200Y-60690475D01*
X76407200Y-60690475D02*
X76454819Y-60595237D01*
X76454819Y-60595237D02*
X76454819Y-60404761D01*
X76454819Y-60404761D02*
X76407200Y-60309523D01*
X76407200Y-60309523D02*
X76359580Y-60261904D01*
X76359580Y-60261904D02*
X76264342Y-60214285D01*
X76264342Y-60214285D02*
X76026247Y-60214285D01*
X76026247Y-60214285D02*
X75931009Y-60261904D01*
X75931009Y-60261904D02*
X75883390Y-60309523D01*
X75883390Y-60309523D02*
X75835771Y-60404761D01*
X75835771Y-60404761D02*
X75835771Y-60595237D01*
X75835771Y-60595237D02*
X75883390Y-60690475D01*
X75883390Y-60690475D02*
X75931009Y-60738094D01*
X75931009Y-60738094D02*
X76026247Y-60785713D01*
X84166666Y-48954819D02*
X84166666Y-49669104D01*
X84166666Y-49669104D02*
X84119047Y-49811961D01*
X84119047Y-49811961D02*
X84023809Y-49907200D01*
X84023809Y-49907200D02*
X83880952Y-49954819D01*
X83880952Y-49954819D02*
X83785714Y-49954819D01*
X85166666Y-49954819D02*
X84595238Y-49954819D01*
X84880952Y-49954819D02*
X84880952Y-48954819D01*
X84880952Y-48954819D02*
X84785714Y-49097676D01*
X84785714Y-49097676D02*
X84690476Y-49192914D01*
X84690476Y-49192914D02*
X84595238Y-49240533D01*
X60757142Y-80359580D02*
X60709523Y-80407200D01*
X60709523Y-80407200D02*
X60566666Y-80454819D01*
X60566666Y-80454819D02*
X60471428Y-80454819D01*
X60471428Y-80454819D02*
X60328571Y-80407200D01*
X60328571Y-80407200D02*
X60233333Y-80311961D01*
X60233333Y-80311961D02*
X60185714Y-80216723D01*
X60185714Y-80216723D02*
X60138095Y-80026247D01*
X60138095Y-80026247D02*
X60138095Y-79883390D01*
X60138095Y-79883390D02*
X60185714Y-79692914D01*
X60185714Y-79692914D02*
X60233333Y-79597676D01*
X60233333Y-79597676D02*
X60328571Y-79502438D01*
X60328571Y-79502438D02*
X60471428Y-79454819D01*
X60471428Y-79454819D02*
X60566666Y-79454819D01*
X60566666Y-79454819D02*
X60709523Y-79502438D01*
X60709523Y-79502438D02*
X60757142Y-79550057D01*
X61138095Y-79550057D02*
X61185714Y-79502438D01*
X61185714Y-79502438D02*
X61280952Y-79454819D01*
X61280952Y-79454819D02*
X61519047Y-79454819D01*
X61519047Y-79454819D02*
X61614285Y-79502438D01*
X61614285Y-79502438D02*
X61661904Y-79550057D01*
X61661904Y-79550057D02*
X61709523Y-79645295D01*
X61709523Y-79645295D02*
X61709523Y-79740533D01*
X61709523Y-79740533D02*
X61661904Y-79883390D01*
X61661904Y-79883390D02*
X61090476Y-80454819D01*
X61090476Y-80454819D02*
X61709523Y-80454819D01*
X62661904Y-80454819D02*
X62090476Y-80454819D01*
X62376190Y-80454819D02*
X62376190Y-79454819D01*
X62376190Y-79454819D02*
X62280952Y-79597676D01*
X62280952Y-79597676D02*
X62185714Y-79692914D01*
X62185714Y-79692914D02*
X62090476Y-79740533D01*
X73454819Y-61166666D02*
X72978628Y-61499999D01*
X73454819Y-61738094D02*
X72454819Y-61738094D01*
X72454819Y-61738094D02*
X72454819Y-61357142D01*
X72454819Y-61357142D02*
X72502438Y-61261904D01*
X72502438Y-61261904D02*
X72550057Y-61214285D01*
X72550057Y-61214285D02*
X72645295Y-61166666D01*
X72645295Y-61166666D02*
X72788152Y-61166666D01*
X72788152Y-61166666D02*
X72883390Y-61214285D01*
X72883390Y-61214285D02*
X72931009Y-61261904D01*
X72931009Y-61261904D02*
X72978628Y-61357142D01*
X72978628Y-61357142D02*
X72978628Y-61738094D01*
X72788152Y-60309523D02*
X73454819Y-60309523D01*
X72407200Y-60547618D02*
X73121485Y-60785713D01*
X73121485Y-60785713D02*
X73121485Y-60166666D01*
X82428571Y-59931009D02*
X82095238Y-59931009D01*
X82095238Y-60454819D02*
X82095238Y-59454819D01*
X82095238Y-59454819D02*
X82571428Y-59454819D01*
X82952381Y-60454819D02*
X82952381Y-59454819D01*
X83428571Y-60454819D02*
X83428571Y-59454819D01*
X83428571Y-59454819D02*
X83666666Y-59454819D01*
X83666666Y-59454819D02*
X83809523Y-59502438D01*
X83809523Y-59502438D02*
X83904761Y-59597676D01*
X83904761Y-59597676D02*
X83952380Y-59692914D01*
X83952380Y-59692914D02*
X83999999Y-59883390D01*
X83999999Y-59883390D02*
X83999999Y-60026247D01*
X83999999Y-60026247D02*
X83952380Y-60216723D01*
X83952380Y-60216723D02*
X83904761Y-60311961D01*
X83904761Y-60311961D02*
X83809523Y-60407200D01*
X83809523Y-60407200D02*
X83666666Y-60454819D01*
X83666666Y-60454819D02*
X83428571Y-60454819D01*
X84333333Y-59454819D02*
X84952380Y-59454819D01*
X84952380Y-59454819D02*
X84619047Y-59835771D01*
X84619047Y-59835771D02*
X84761904Y-59835771D01*
X84761904Y-59835771D02*
X84857142Y-59883390D01*
X84857142Y-59883390D02*
X84904761Y-59931009D01*
X84904761Y-59931009D02*
X84952380Y-60026247D01*
X84952380Y-60026247D02*
X84952380Y-60264342D01*
X84952380Y-60264342D02*
X84904761Y-60359580D01*
X84904761Y-60359580D02*
X84857142Y-60407200D01*
X84857142Y-60407200D02*
X84761904Y-60454819D01*
X84761904Y-60454819D02*
X84476190Y-60454819D01*
X84476190Y-60454819D02*
X84380952Y-60407200D01*
X84380952Y-60407200D02*
X84333333Y-60359580D01*
X73938095Y-50654819D02*
X74509523Y-50654819D01*
X74223809Y-51654819D02*
X74223809Y-50654819D01*
X74842857Y-51654819D02*
X74842857Y-50654819D01*
X74842857Y-50654819D02*
X75223809Y-50654819D01*
X75223809Y-50654819D02*
X75319047Y-50702438D01*
X75319047Y-50702438D02*
X75366666Y-50750057D01*
X75366666Y-50750057D02*
X75414285Y-50845295D01*
X75414285Y-50845295D02*
X75414285Y-50988152D01*
X75414285Y-50988152D02*
X75366666Y-51083390D01*
X75366666Y-51083390D02*
X75319047Y-51131009D01*
X75319047Y-51131009D02*
X75223809Y-51178628D01*
X75223809Y-51178628D02*
X74842857Y-51178628D01*
X75890476Y-51654819D02*
X76080952Y-51654819D01*
X76080952Y-51654819D02*
X76176190Y-51607200D01*
X76176190Y-51607200D02*
X76223809Y-51559580D01*
X76223809Y-51559580D02*
X76319047Y-51416723D01*
X76319047Y-51416723D02*
X76366666Y-51226247D01*
X76366666Y-51226247D02*
X76366666Y-50845295D01*
X76366666Y-50845295D02*
X76319047Y-50750057D01*
X76319047Y-50750057D02*
X76271428Y-50702438D01*
X76271428Y-50702438D02*
X76176190Y-50654819D01*
X76176190Y-50654819D02*
X75985714Y-50654819D01*
X75985714Y-50654819D02*
X75890476Y-50702438D01*
X75890476Y-50702438D02*
X75842857Y-50750057D01*
X75842857Y-50750057D02*
X75795238Y-50845295D01*
X75795238Y-50845295D02*
X75795238Y-51083390D01*
X75795238Y-51083390D02*
X75842857Y-51178628D01*
X75842857Y-51178628D02*
X75890476Y-51226247D01*
X75890476Y-51226247D02*
X75985714Y-51273866D01*
X75985714Y-51273866D02*
X76176190Y-51273866D01*
X76176190Y-51273866D02*
X76271428Y-51226247D01*
X76271428Y-51226247D02*
X76319047Y-51178628D01*
X76319047Y-51178628D02*
X76366666Y-51083390D01*
X80954819Y-61166666D02*
X80478628Y-61499999D01*
X80954819Y-61738094D02*
X79954819Y-61738094D01*
X79954819Y-61738094D02*
X79954819Y-61357142D01*
X79954819Y-61357142D02*
X80002438Y-61261904D01*
X80002438Y-61261904D02*
X80050057Y-61214285D01*
X80050057Y-61214285D02*
X80145295Y-61166666D01*
X80145295Y-61166666D02*
X80288152Y-61166666D01*
X80288152Y-61166666D02*
X80383390Y-61214285D01*
X80383390Y-61214285D02*
X80431009Y-61261904D01*
X80431009Y-61261904D02*
X80478628Y-61357142D01*
X80478628Y-61357142D02*
X80478628Y-61738094D01*
X80383390Y-60595237D02*
X80335771Y-60690475D01*
X80335771Y-60690475D02*
X80288152Y-60738094D01*
X80288152Y-60738094D02*
X80192914Y-60785713D01*
X80192914Y-60785713D02*
X80145295Y-60785713D01*
X80145295Y-60785713D02*
X80050057Y-60738094D01*
X80050057Y-60738094D02*
X80002438Y-60690475D01*
X80002438Y-60690475D02*
X79954819Y-60595237D01*
X79954819Y-60595237D02*
X79954819Y-60404761D01*
X79954819Y-60404761D02*
X80002438Y-60309523D01*
X80002438Y-60309523D02*
X80050057Y-60261904D01*
X80050057Y-60261904D02*
X80145295Y-60214285D01*
X80145295Y-60214285D02*
X80192914Y-60214285D01*
X80192914Y-60214285D02*
X80288152Y-60261904D01*
X80288152Y-60261904D02*
X80335771Y-60309523D01*
X80335771Y-60309523D02*
X80383390Y-60404761D01*
X80383390Y-60404761D02*
X80383390Y-60595237D01*
X80383390Y-60595237D02*
X80431009Y-60690475D01*
X80431009Y-60690475D02*
X80478628Y-60738094D01*
X80478628Y-60738094D02*
X80573866Y-60785713D01*
X80573866Y-60785713D02*
X80764342Y-60785713D01*
X80764342Y-60785713D02*
X80859580Y-60738094D01*
X80859580Y-60738094D02*
X80907200Y-60690475D01*
X80907200Y-60690475D02*
X80954819Y-60595237D01*
X80954819Y-60595237D02*
X80954819Y-60404761D01*
X80954819Y-60404761D02*
X80907200Y-60309523D01*
X80907200Y-60309523D02*
X80859580Y-60261904D01*
X80859580Y-60261904D02*
X80764342Y-60214285D01*
X80764342Y-60214285D02*
X80573866Y-60214285D01*
X80573866Y-60214285D02*
X80478628Y-60261904D01*
X80478628Y-60261904D02*
X80431009Y-60309523D01*
X80431009Y-60309523D02*
X80383390Y-60404761D01*
X94238095Y-88254819D02*
X94238095Y-89064342D01*
X94238095Y-89064342D02*
X94285714Y-89159580D01*
X94285714Y-89159580D02*
X94333333Y-89207200D01*
X94333333Y-89207200D02*
X94428571Y-89254819D01*
X94428571Y-89254819D02*
X94619047Y-89254819D01*
X94619047Y-89254819D02*
X94714285Y-89207200D01*
X94714285Y-89207200D02*
X94761904Y-89159580D01*
X94761904Y-89159580D02*
X94809523Y-89064342D01*
X94809523Y-89064342D02*
X94809523Y-88254819D01*
X95428571Y-88683390D02*
X95333333Y-88635771D01*
X95333333Y-88635771D02*
X95285714Y-88588152D01*
X95285714Y-88588152D02*
X95238095Y-88492914D01*
X95238095Y-88492914D02*
X95238095Y-88445295D01*
X95238095Y-88445295D02*
X95285714Y-88350057D01*
X95285714Y-88350057D02*
X95333333Y-88302438D01*
X95333333Y-88302438D02*
X95428571Y-88254819D01*
X95428571Y-88254819D02*
X95619047Y-88254819D01*
X95619047Y-88254819D02*
X95714285Y-88302438D01*
X95714285Y-88302438D02*
X95761904Y-88350057D01*
X95761904Y-88350057D02*
X95809523Y-88445295D01*
X95809523Y-88445295D02*
X95809523Y-88492914D01*
X95809523Y-88492914D02*
X95761904Y-88588152D01*
X95761904Y-88588152D02*
X95714285Y-88635771D01*
X95714285Y-88635771D02*
X95619047Y-88683390D01*
X95619047Y-88683390D02*
X95428571Y-88683390D01*
X95428571Y-88683390D02*
X95333333Y-88731009D01*
X95333333Y-88731009D02*
X95285714Y-88778628D01*
X95285714Y-88778628D02*
X95238095Y-88873866D01*
X95238095Y-88873866D02*
X95238095Y-89064342D01*
X95238095Y-89064342D02*
X95285714Y-89159580D01*
X95285714Y-89159580D02*
X95333333Y-89207200D01*
X95333333Y-89207200D02*
X95428571Y-89254819D01*
X95428571Y-89254819D02*
X95619047Y-89254819D01*
X95619047Y-89254819D02*
X95714285Y-89207200D01*
X95714285Y-89207200D02*
X95761904Y-89159580D01*
X95761904Y-89159580D02*
X95809523Y-89064342D01*
X95809523Y-89064342D02*
X95809523Y-88873866D01*
X95809523Y-88873866D02*
X95761904Y-88778628D01*
X95761904Y-88778628D02*
X95714285Y-88731009D01*
X95714285Y-88731009D02*
X95619047Y-88683390D01*
X113928571Y-127481009D02*
X113595238Y-127481009D01*
X113595238Y-128004819D02*
X113595238Y-127004819D01*
X113595238Y-127004819D02*
X114071428Y-127004819D01*
X114452381Y-128004819D02*
X114452381Y-127004819D01*
X114928571Y-128004819D02*
X114928571Y-127004819D01*
X114928571Y-127004819D02*
X115166666Y-127004819D01*
X115166666Y-127004819D02*
X115309523Y-127052438D01*
X115309523Y-127052438D02*
X115404761Y-127147676D01*
X115404761Y-127147676D02*
X115452380Y-127242914D01*
X115452380Y-127242914D02*
X115499999Y-127433390D01*
X115499999Y-127433390D02*
X115499999Y-127576247D01*
X115499999Y-127576247D02*
X115452380Y-127766723D01*
X115452380Y-127766723D02*
X115404761Y-127861961D01*
X115404761Y-127861961D02*
X115309523Y-127957200D01*
X115309523Y-127957200D02*
X115166666Y-128004819D01*
X115166666Y-128004819D02*
X114928571Y-128004819D01*
X116452380Y-128004819D02*
X115880952Y-128004819D01*
X116166666Y-128004819D02*
X116166666Y-127004819D01*
X116166666Y-127004819D02*
X116071428Y-127147676D01*
X116071428Y-127147676D02*
X115976190Y-127242914D01*
X115976190Y-127242914D02*
X115880952Y-127290533D01*
X85559580Y-146242857D02*
X85607200Y-146290476D01*
X85607200Y-146290476D02*
X85654819Y-146433333D01*
X85654819Y-146433333D02*
X85654819Y-146528571D01*
X85654819Y-146528571D02*
X85607200Y-146671428D01*
X85607200Y-146671428D02*
X85511961Y-146766666D01*
X85511961Y-146766666D02*
X85416723Y-146814285D01*
X85416723Y-146814285D02*
X85226247Y-146861904D01*
X85226247Y-146861904D02*
X85083390Y-146861904D01*
X85083390Y-146861904D02*
X84892914Y-146814285D01*
X84892914Y-146814285D02*
X84797676Y-146766666D01*
X84797676Y-146766666D02*
X84702438Y-146671428D01*
X84702438Y-146671428D02*
X84654819Y-146528571D01*
X84654819Y-146528571D02*
X84654819Y-146433333D01*
X84654819Y-146433333D02*
X84702438Y-146290476D01*
X84702438Y-146290476D02*
X84750057Y-146242857D01*
X85654819Y-145290476D02*
X85654819Y-145861904D01*
X85654819Y-145576190D02*
X84654819Y-145576190D01*
X84654819Y-145576190D02*
X84797676Y-145671428D01*
X84797676Y-145671428D02*
X84892914Y-145766666D01*
X84892914Y-145766666D02*
X84940533Y-145861904D01*
X84654819Y-144957142D02*
X84654819Y-144290476D01*
X84654819Y-144290476D02*
X85654819Y-144719047D01*
X69238095Y-146054819D02*
X69238095Y-146864342D01*
X69238095Y-146864342D02*
X69285714Y-146959580D01*
X69285714Y-146959580D02*
X69333333Y-147007200D01*
X69333333Y-147007200D02*
X69428571Y-147054819D01*
X69428571Y-147054819D02*
X69619047Y-147054819D01*
X69619047Y-147054819D02*
X69714285Y-147007200D01*
X69714285Y-147007200D02*
X69761904Y-146959580D01*
X69761904Y-146959580D02*
X69809523Y-146864342D01*
X69809523Y-146864342D02*
X69809523Y-146054819D01*
X70190476Y-146054819D02*
X70857142Y-146054819D01*
X70857142Y-146054819D02*
X70428571Y-147054819D01*
X78761905Y-146454819D02*
X78761905Y-147264342D01*
X78761905Y-147264342D02*
X78809524Y-147359580D01*
X78809524Y-147359580D02*
X78857143Y-147407200D01*
X78857143Y-147407200D02*
X78952381Y-147454819D01*
X78952381Y-147454819D02*
X79142857Y-147454819D01*
X79142857Y-147454819D02*
X79238095Y-147407200D01*
X79238095Y-147407200D02*
X79285714Y-147359580D01*
X79285714Y-147359580D02*
X79333333Y-147264342D01*
X79333333Y-147264342D02*
X79333333Y-146454819D01*
X80333333Y-147454819D02*
X79761905Y-147454819D01*
X80047619Y-147454819D02*
X80047619Y-146454819D01*
X80047619Y-146454819D02*
X79952381Y-146597676D01*
X79952381Y-146597676D02*
X79857143Y-146692914D01*
X79857143Y-146692914D02*
X79761905Y-146740533D01*
X80952381Y-146454819D02*
X81047619Y-146454819D01*
X81047619Y-146454819D02*
X81142857Y-146502438D01*
X81142857Y-146502438D02*
X81190476Y-146550057D01*
X81190476Y-146550057D02*
X81238095Y-146645295D01*
X81238095Y-146645295D02*
X81285714Y-146835771D01*
X81285714Y-146835771D02*
X81285714Y-147073866D01*
X81285714Y-147073866D02*
X81238095Y-147264342D01*
X81238095Y-147264342D02*
X81190476Y-147359580D01*
X81190476Y-147359580D02*
X81142857Y-147407200D01*
X81142857Y-147407200D02*
X81047619Y-147454819D01*
X81047619Y-147454819D02*
X80952381Y-147454819D01*
X80952381Y-147454819D02*
X80857143Y-147407200D01*
X80857143Y-147407200D02*
X80809524Y-147359580D01*
X80809524Y-147359580D02*
X80761905Y-147264342D01*
X80761905Y-147264342D02*
X80714286Y-147073866D01*
X80714286Y-147073866D02*
X80714286Y-146835771D01*
X80714286Y-146835771D02*
X80761905Y-146645295D01*
X80761905Y-146645295D02*
X80809524Y-146550057D01*
X80809524Y-146550057D02*
X80857143Y-146502438D01*
X80857143Y-146502438D02*
X80952381Y-146454819D01*
X47357142Y-95359580D02*
X47309523Y-95407200D01*
X47309523Y-95407200D02*
X47166666Y-95454819D01*
X47166666Y-95454819D02*
X47071428Y-95454819D01*
X47071428Y-95454819D02*
X46928571Y-95407200D01*
X46928571Y-95407200D02*
X46833333Y-95311961D01*
X46833333Y-95311961D02*
X46785714Y-95216723D01*
X46785714Y-95216723D02*
X46738095Y-95026247D01*
X46738095Y-95026247D02*
X46738095Y-94883390D01*
X46738095Y-94883390D02*
X46785714Y-94692914D01*
X46785714Y-94692914D02*
X46833333Y-94597676D01*
X46833333Y-94597676D02*
X46928571Y-94502438D01*
X46928571Y-94502438D02*
X47071428Y-94454819D01*
X47071428Y-94454819D02*
X47166666Y-94454819D01*
X47166666Y-94454819D02*
X47309523Y-94502438D01*
X47309523Y-94502438D02*
X47357142Y-94550057D01*
X48309523Y-95454819D02*
X47738095Y-95454819D01*
X48023809Y-95454819D02*
X48023809Y-94454819D01*
X48023809Y-94454819D02*
X47928571Y-94597676D01*
X47928571Y-94597676D02*
X47833333Y-94692914D01*
X47833333Y-94692914D02*
X47738095Y-94740533D01*
X49166666Y-94788152D02*
X49166666Y-95454819D01*
X48928571Y-94407200D02*
X48690476Y-95121485D01*
X48690476Y-95121485D02*
X49309523Y-95121485D01*
X110957142Y-108959580D02*
X110909523Y-109007200D01*
X110909523Y-109007200D02*
X110766666Y-109054819D01*
X110766666Y-109054819D02*
X110671428Y-109054819D01*
X110671428Y-109054819D02*
X110528571Y-109007200D01*
X110528571Y-109007200D02*
X110433333Y-108911961D01*
X110433333Y-108911961D02*
X110385714Y-108816723D01*
X110385714Y-108816723D02*
X110338095Y-108626247D01*
X110338095Y-108626247D02*
X110338095Y-108483390D01*
X110338095Y-108483390D02*
X110385714Y-108292914D01*
X110385714Y-108292914D02*
X110433333Y-108197676D01*
X110433333Y-108197676D02*
X110528571Y-108102438D01*
X110528571Y-108102438D02*
X110671428Y-108054819D01*
X110671428Y-108054819D02*
X110766666Y-108054819D01*
X110766666Y-108054819D02*
X110909523Y-108102438D01*
X110909523Y-108102438D02*
X110957142Y-108150057D01*
X111338095Y-108150057D02*
X111385714Y-108102438D01*
X111385714Y-108102438D02*
X111480952Y-108054819D01*
X111480952Y-108054819D02*
X111719047Y-108054819D01*
X111719047Y-108054819D02*
X111814285Y-108102438D01*
X111814285Y-108102438D02*
X111861904Y-108150057D01*
X111861904Y-108150057D02*
X111909523Y-108245295D01*
X111909523Y-108245295D02*
X111909523Y-108340533D01*
X111909523Y-108340533D02*
X111861904Y-108483390D01*
X111861904Y-108483390D02*
X111290476Y-109054819D01*
X111290476Y-109054819D02*
X111909523Y-109054819D01*
X112290476Y-108150057D02*
X112338095Y-108102438D01*
X112338095Y-108102438D02*
X112433333Y-108054819D01*
X112433333Y-108054819D02*
X112671428Y-108054819D01*
X112671428Y-108054819D02*
X112766666Y-108102438D01*
X112766666Y-108102438D02*
X112814285Y-108150057D01*
X112814285Y-108150057D02*
X112861904Y-108245295D01*
X112861904Y-108245295D02*
X112861904Y-108340533D01*
X112861904Y-108340533D02*
X112814285Y-108483390D01*
X112814285Y-108483390D02*
X112242857Y-109054819D01*
X112242857Y-109054819D02*
X112861904Y-109054819D01*
X65833333Y-141959580D02*
X65785714Y-142007200D01*
X65785714Y-142007200D02*
X65642857Y-142054819D01*
X65642857Y-142054819D02*
X65547619Y-142054819D01*
X65547619Y-142054819D02*
X65404762Y-142007200D01*
X65404762Y-142007200D02*
X65309524Y-141911961D01*
X65309524Y-141911961D02*
X65261905Y-141816723D01*
X65261905Y-141816723D02*
X65214286Y-141626247D01*
X65214286Y-141626247D02*
X65214286Y-141483390D01*
X65214286Y-141483390D02*
X65261905Y-141292914D01*
X65261905Y-141292914D02*
X65309524Y-141197676D01*
X65309524Y-141197676D02*
X65404762Y-141102438D01*
X65404762Y-141102438D02*
X65547619Y-141054819D01*
X65547619Y-141054819D02*
X65642857Y-141054819D01*
X65642857Y-141054819D02*
X65785714Y-141102438D01*
X65785714Y-141102438D02*
X65833333Y-141150057D01*
X66690476Y-141388152D02*
X66690476Y-142054819D01*
X66452381Y-141007200D02*
X66214286Y-141721485D01*
X66214286Y-141721485D02*
X66833333Y-141721485D01*
X106761905Y-106454819D02*
X106761905Y-107264342D01*
X106761905Y-107264342D02*
X106809524Y-107359580D01*
X106809524Y-107359580D02*
X106857143Y-107407200D01*
X106857143Y-107407200D02*
X106952381Y-107454819D01*
X106952381Y-107454819D02*
X107142857Y-107454819D01*
X107142857Y-107454819D02*
X107238095Y-107407200D01*
X107238095Y-107407200D02*
X107285714Y-107359580D01*
X107285714Y-107359580D02*
X107333333Y-107264342D01*
X107333333Y-107264342D02*
X107333333Y-106454819D01*
X108333333Y-107454819D02*
X107761905Y-107454819D01*
X108047619Y-107454819D02*
X108047619Y-106454819D01*
X108047619Y-106454819D02*
X107952381Y-106597676D01*
X107952381Y-106597676D02*
X107857143Y-106692914D01*
X107857143Y-106692914D02*
X107761905Y-106740533D01*
X108666667Y-106454819D02*
X109285714Y-106454819D01*
X109285714Y-106454819D02*
X108952381Y-106835771D01*
X108952381Y-106835771D02*
X109095238Y-106835771D01*
X109095238Y-106835771D02*
X109190476Y-106883390D01*
X109190476Y-106883390D02*
X109238095Y-106931009D01*
X109238095Y-106931009D02*
X109285714Y-107026247D01*
X109285714Y-107026247D02*
X109285714Y-107264342D01*
X109285714Y-107264342D02*
X109238095Y-107359580D01*
X109238095Y-107359580D02*
X109190476Y-107407200D01*
X109190476Y-107407200D02*
X109095238Y-107454819D01*
X109095238Y-107454819D02*
X108809524Y-107454819D01*
X108809524Y-107454819D02*
X108714286Y-107407200D01*
X108714286Y-107407200D02*
X108666667Y-107359580D01*
X70290009Y-77384444D02*
X71099532Y-77384444D01*
X71099532Y-77384444D02*
X71194770Y-77336825D01*
X71194770Y-77336825D02*
X71242390Y-77289206D01*
X71242390Y-77289206D02*
X71290009Y-77193968D01*
X71290009Y-77193968D02*
X71290009Y-77003492D01*
X71290009Y-77003492D02*
X71242390Y-76908254D01*
X71242390Y-76908254D02*
X71194770Y-76860635D01*
X71194770Y-76860635D02*
X71099532Y-76813016D01*
X71099532Y-76813016D02*
X70290009Y-76813016D01*
X70385247Y-76384444D02*
X70337628Y-76336825D01*
X70337628Y-76336825D02*
X70290009Y-76241587D01*
X70290009Y-76241587D02*
X70290009Y-76003492D01*
X70290009Y-76003492D02*
X70337628Y-75908254D01*
X70337628Y-75908254D02*
X70385247Y-75860635D01*
X70385247Y-75860635D02*
X70480485Y-75813016D01*
X70480485Y-75813016D02*
X70575723Y-75813016D01*
X70575723Y-75813016D02*
X70718580Y-75860635D01*
X70718580Y-75860635D02*
X71290009Y-76432063D01*
X71290009Y-76432063D02*
X71290009Y-75813016D01*
X98833333Y-98959580D02*
X98785714Y-99007200D01*
X98785714Y-99007200D02*
X98642857Y-99054819D01*
X98642857Y-99054819D02*
X98547619Y-99054819D01*
X98547619Y-99054819D02*
X98404762Y-99007200D01*
X98404762Y-99007200D02*
X98309524Y-98911961D01*
X98309524Y-98911961D02*
X98261905Y-98816723D01*
X98261905Y-98816723D02*
X98214286Y-98626247D01*
X98214286Y-98626247D02*
X98214286Y-98483390D01*
X98214286Y-98483390D02*
X98261905Y-98292914D01*
X98261905Y-98292914D02*
X98309524Y-98197676D01*
X98309524Y-98197676D02*
X98404762Y-98102438D01*
X98404762Y-98102438D02*
X98547619Y-98054819D01*
X98547619Y-98054819D02*
X98642857Y-98054819D01*
X98642857Y-98054819D02*
X98785714Y-98102438D01*
X98785714Y-98102438D02*
X98833333Y-98150057D01*
X99166667Y-98054819D02*
X99785714Y-98054819D01*
X99785714Y-98054819D02*
X99452381Y-98435771D01*
X99452381Y-98435771D02*
X99595238Y-98435771D01*
X99595238Y-98435771D02*
X99690476Y-98483390D01*
X99690476Y-98483390D02*
X99738095Y-98531009D01*
X99738095Y-98531009D02*
X99785714Y-98626247D01*
X99785714Y-98626247D02*
X99785714Y-98864342D01*
X99785714Y-98864342D02*
X99738095Y-98959580D01*
X99738095Y-98959580D02*
X99690476Y-99007200D01*
X99690476Y-99007200D02*
X99595238Y-99054819D01*
X99595238Y-99054819D02*
X99309524Y-99054819D01*
X99309524Y-99054819D02*
X99214286Y-99007200D01*
X99214286Y-99007200D02*
X99166667Y-98959580D01*
X50607142Y-93959580D02*
X50559523Y-94007200D01*
X50559523Y-94007200D02*
X50416666Y-94054819D01*
X50416666Y-94054819D02*
X50321428Y-94054819D01*
X50321428Y-94054819D02*
X50178571Y-94007200D01*
X50178571Y-94007200D02*
X50083333Y-93911961D01*
X50083333Y-93911961D02*
X50035714Y-93816723D01*
X50035714Y-93816723D02*
X49988095Y-93626247D01*
X49988095Y-93626247D02*
X49988095Y-93483390D01*
X49988095Y-93483390D02*
X50035714Y-93292914D01*
X50035714Y-93292914D02*
X50083333Y-93197676D01*
X50083333Y-93197676D02*
X50178571Y-93102438D01*
X50178571Y-93102438D02*
X50321428Y-93054819D01*
X50321428Y-93054819D02*
X50416666Y-93054819D01*
X50416666Y-93054819D02*
X50559523Y-93102438D01*
X50559523Y-93102438D02*
X50607142Y-93150057D01*
X51559523Y-94054819D02*
X50988095Y-94054819D01*
X51273809Y-94054819D02*
X51273809Y-93054819D01*
X51273809Y-93054819D02*
X51178571Y-93197676D01*
X51178571Y-93197676D02*
X51083333Y-93292914D01*
X51083333Y-93292914D02*
X50988095Y-93340533D01*
X51892857Y-93054819D02*
X52511904Y-93054819D01*
X52511904Y-93054819D02*
X52178571Y-93435771D01*
X52178571Y-93435771D02*
X52321428Y-93435771D01*
X52321428Y-93435771D02*
X52416666Y-93483390D01*
X52416666Y-93483390D02*
X52464285Y-93531009D01*
X52464285Y-93531009D02*
X52511904Y-93626247D01*
X52511904Y-93626247D02*
X52511904Y-93864342D01*
X52511904Y-93864342D02*
X52464285Y-93959580D01*
X52464285Y-93959580D02*
X52416666Y-94007200D01*
X52416666Y-94007200D02*
X52321428Y-94054819D01*
X52321428Y-94054819D02*
X52035714Y-94054819D01*
X52035714Y-94054819D02*
X51940476Y-94007200D01*
X51940476Y-94007200D02*
X51892857Y-93959580D01*
X41312387Y-112359580D02*
X41264768Y-112407200D01*
X41264768Y-112407200D02*
X41121911Y-112454819D01*
X41121911Y-112454819D02*
X41026673Y-112454819D01*
X41026673Y-112454819D02*
X40883816Y-112407200D01*
X40883816Y-112407200D02*
X40788578Y-112311961D01*
X40788578Y-112311961D02*
X40740959Y-112216723D01*
X40740959Y-112216723D02*
X40693340Y-112026247D01*
X40693340Y-112026247D02*
X40693340Y-111883390D01*
X40693340Y-111883390D02*
X40740959Y-111692914D01*
X40740959Y-111692914D02*
X40788578Y-111597676D01*
X40788578Y-111597676D02*
X40883816Y-111502438D01*
X40883816Y-111502438D02*
X41026673Y-111454819D01*
X41026673Y-111454819D02*
X41121911Y-111454819D01*
X41121911Y-111454819D02*
X41264768Y-111502438D01*
X41264768Y-111502438D02*
X41312387Y-111550057D01*
X41693340Y-111550057D02*
X41740959Y-111502438D01*
X41740959Y-111502438D02*
X41836197Y-111454819D01*
X41836197Y-111454819D02*
X42074292Y-111454819D01*
X42074292Y-111454819D02*
X42169530Y-111502438D01*
X42169530Y-111502438D02*
X42217149Y-111550057D01*
X42217149Y-111550057D02*
X42264768Y-111645295D01*
X42264768Y-111645295D02*
X42264768Y-111740533D01*
X42264768Y-111740533D02*
X42217149Y-111883390D01*
X42217149Y-111883390D02*
X41645721Y-112454819D01*
X41645721Y-112454819D02*
X42264768Y-112454819D01*
X43121911Y-111788152D02*
X43121911Y-112454819D01*
X42883816Y-111407200D02*
X42645721Y-112121485D01*
X42645721Y-112121485D02*
X43264768Y-112121485D01*
X74954819Y-61166666D02*
X74478628Y-61499999D01*
X74954819Y-61738094D02*
X73954819Y-61738094D01*
X73954819Y-61738094D02*
X73954819Y-61357142D01*
X73954819Y-61357142D02*
X74002438Y-61261904D01*
X74002438Y-61261904D02*
X74050057Y-61214285D01*
X74050057Y-61214285D02*
X74145295Y-61166666D01*
X74145295Y-61166666D02*
X74288152Y-61166666D01*
X74288152Y-61166666D02*
X74383390Y-61214285D01*
X74383390Y-61214285D02*
X74431009Y-61261904D01*
X74431009Y-61261904D02*
X74478628Y-61357142D01*
X74478628Y-61357142D02*
X74478628Y-61738094D01*
X73954819Y-60833332D02*
X73954819Y-60214285D01*
X73954819Y-60214285D02*
X74335771Y-60547618D01*
X74335771Y-60547618D02*
X74335771Y-60404761D01*
X74335771Y-60404761D02*
X74383390Y-60309523D01*
X74383390Y-60309523D02*
X74431009Y-60261904D01*
X74431009Y-60261904D02*
X74526247Y-60214285D01*
X74526247Y-60214285D02*
X74764342Y-60214285D01*
X74764342Y-60214285D02*
X74859580Y-60261904D01*
X74859580Y-60261904D02*
X74907200Y-60309523D01*
X74907200Y-60309523D02*
X74954819Y-60404761D01*
X74954819Y-60404761D02*
X74954819Y-60690475D01*
X74954819Y-60690475D02*
X74907200Y-60785713D01*
X74907200Y-60785713D02*
X74859580Y-60833332D01*
X90157142Y-81559580D02*
X90109523Y-81607200D01*
X90109523Y-81607200D02*
X89966666Y-81654819D01*
X89966666Y-81654819D02*
X89871428Y-81654819D01*
X89871428Y-81654819D02*
X89728571Y-81607200D01*
X89728571Y-81607200D02*
X89633333Y-81511961D01*
X89633333Y-81511961D02*
X89585714Y-81416723D01*
X89585714Y-81416723D02*
X89538095Y-81226247D01*
X89538095Y-81226247D02*
X89538095Y-81083390D01*
X89538095Y-81083390D02*
X89585714Y-80892914D01*
X89585714Y-80892914D02*
X89633333Y-80797676D01*
X89633333Y-80797676D02*
X89728571Y-80702438D01*
X89728571Y-80702438D02*
X89871428Y-80654819D01*
X89871428Y-80654819D02*
X89966666Y-80654819D01*
X89966666Y-80654819D02*
X90109523Y-80702438D01*
X90109523Y-80702438D02*
X90157142Y-80750057D01*
X91109523Y-81654819D02*
X90538095Y-81654819D01*
X90823809Y-81654819D02*
X90823809Y-80654819D01*
X90823809Y-80654819D02*
X90728571Y-80797676D01*
X90728571Y-80797676D02*
X90633333Y-80892914D01*
X90633333Y-80892914D02*
X90538095Y-80940533D01*
X91490476Y-80750057D02*
X91538095Y-80702438D01*
X91538095Y-80702438D02*
X91633333Y-80654819D01*
X91633333Y-80654819D02*
X91871428Y-80654819D01*
X91871428Y-80654819D02*
X91966666Y-80702438D01*
X91966666Y-80702438D02*
X92014285Y-80750057D01*
X92014285Y-80750057D02*
X92061904Y-80845295D01*
X92061904Y-80845295D02*
X92061904Y-80940533D01*
X92061904Y-80940533D02*
X92014285Y-81083390D01*
X92014285Y-81083390D02*
X91442857Y-81654819D01*
X91442857Y-81654819D02*
X92061904Y-81654819D01*
X81011905Y-53654819D02*
X81583333Y-53654819D01*
X81297619Y-54654819D02*
X81297619Y-53654819D01*
X81916667Y-54654819D02*
X81916667Y-53654819D01*
X81916667Y-53654819D02*
X82297619Y-53654819D01*
X82297619Y-53654819D02*
X82392857Y-53702438D01*
X82392857Y-53702438D02*
X82440476Y-53750057D01*
X82440476Y-53750057D02*
X82488095Y-53845295D01*
X82488095Y-53845295D02*
X82488095Y-53988152D01*
X82488095Y-53988152D02*
X82440476Y-54083390D01*
X82440476Y-54083390D02*
X82392857Y-54131009D01*
X82392857Y-54131009D02*
X82297619Y-54178628D01*
X82297619Y-54178628D02*
X81916667Y-54178628D01*
X83440476Y-54654819D02*
X82869048Y-54654819D01*
X83154762Y-54654819D02*
X83154762Y-53654819D01*
X83154762Y-53654819D02*
X83059524Y-53797676D01*
X83059524Y-53797676D02*
X82964286Y-53892914D01*
X82964286Y-53892914D02*
X82869048Y-53940533D01*
X84059524Y-53654819D02*
X84154762Y-53654819D01*
X84154762Y-53654819D02*
X84250000Y-53702438D01*
X84250000Y-53702438D02*
X84297619Y-53750057D01*
X84297619Y-53750057D02*
X84345238Y-53845295D01*
X84345238Y-53845295D02*
X84392857Y-54035771D01*
X84392857Y-54035771D02*
X84392857Y-54273866D01*
X84392857Y-54273866D02*
X84345238Y-54464342D01*
X84345238Y-54464342D02*
X84297619Y-54559580D01*
X84297619Y-54559580D02*
X84250000Y-54607200D01*
X84250000Y-54607200D02*
X84154762Y-54654819D01*
X84154762Y-54654819D02*
X84059524Y-54654819D01*
X84059524Y-54654819D02*
X83964286Y-54607200D01*
X83964286Y-54607200D02*
X83916667Y-54559580D01*
X83916667Y-54559580D02*
X83869048Y-54464342D01*
X83869048Y-54464342D02*
X83821429Y-54273866D01*
X83821429Y-54273866D02*
X83821429Y-54035771D01*
X83821429Y-54035771D02*
X83869048Y-53845295D01*
X83869048Y-53845295D02*
X83916667Y-53750057D01*
X83916667Y-53750057D02*
X83964286Y-53702438D01*
X83964286Y-53702438D02*
X84059524Y-53654819D01*
X77954819Y-61166666D02*
X77478628Y-61499999D01*
X77954819Y-61738094D02*
X76954819Y-61738094D01*
X76954819Y-61738094D02*
X76954819Y-61357142D01*
X76954819Y-61357142D02*
X77002438Y-61261904D01*
X77002438Y-61261904D02*
X77050057Y-61214285D01*
X77050057Y-61214285D02*
X77145295Y-61166666D01*
X77145295Y-61166666D02*
X77288152Y-61166666D01*
X77288152Y-61166666D02*
X77383390Y-61214285D01*
X77383390Y-61214285D02*
X77431009Y-61261904D01*
X77431009Y-61261904D02*
X77478628Y-61357142D01*
X77478628Y-61357142D02*
X77478628Y-61738094D01*
X76954819Y-60261904D02*
X76954819Y-60738094D01*
X76954819Y-60738094D02*
X77431009Y-60785713D01*
X77431009Y-60785713D02*
X77383390Y-60738094D01*
X77383390Y-60738094D02*
X77335771Y-60642856D01*
X77335771Y-60642856D02*
X77335771Y-60404761D01*
X77335771Y-60404761D02*
X77383390Y-60309523D01*
X77383390Y-60309523D02*
X77431009Y-60261904D01*
X77431009Y-60261904D02*
X77526247Y-60214285D01*
X77526247Y-60214285D02*
X77764342Y-60214285D01*
X77764342Y-60214285D02*
X77859580Y-60261904D01*
X77859580Y-60261904D02*
X77907200Y-60309523D01*
X77907200Y-60309523D02*
X77954819Y-60404761D01*
X77954819Y-60404761D02*
X77954819Y-60642856D01*
X77954819Y-60642856D02*
X77907200Y-60738094D01*
X77907200Y-60738094D02*
X77859580Y-60785713D01*
X92359580Y-143642857D02*
X92407200Y-143690476D01*
X92407200Y-143690476D02*
X92454819Y-143833333D01*
X92454819Y-143833333D02*
X92454819Y-143928571D01*
X92454819Y-143928571D02*
X92407200Y-144071428D01*
X92407200Y-144071428D02*
X92311961Y-144166666D01*
X92311961Y-144166666D02*
X92216723Y-144214285D01*
X92216723Y-144214285D02*
X92026247Y-144261904D01*
X92026247Y-144261904D02*
X91883390Y-144261904D01*
X91883390Y-144261904D02*
X91692914Y-144214285D01*
X91692914Y-144214285D02*
X91597676Y-144166666D01*
X91597676Y-144166666D02*
X91502438Y-144071428D01*
X91502438Y-144071428D02*
X91454819Y-143928571D01*
X91454819Y-143928571D02*
X91454819Y-143833333D01*
X91454819Y-143833333D02*
X91502438Y-143690476D01*
X91502438Y-143690476D02*
X91550057Y-143642857D01*
X91550057Y-143261904D02*
X91502438Y-143214285D01*
X91502438Y-143214285D02*
X91454819Y-143119047D01*
X91454819Y-143119047D02*
X91454819Y-142880952D01*
X91454819Y-142880952D02*
X91502438Y-142785714D01*
X91502438Y-142785714D02*
X91550057Y-142738095D01*
X91550057Y-142738095D02*
X91645295Y-142690476D01*
X91645295Y-142690476D02*
X91740533Y-142690476D01*
X91740533Y-142690476D02*
X91883390Y-142738095D01*
X91883390Y-142738095D02*
X92454819Y-143309523D01*
X92454819Y-143309523D02*
X92454819Y-142690476D01*
X91454819Y-141833333D02*
X91454819Y-142023809D01*
X91454819Y-142023809D02*
X91502438Y-142119047D01*
X91502438Y-142119047D02*
X91550057Y-142166666D01*
X91550057Y-142166666D02*
X91692914Y-142261904D01*
X91692914Y-142261904D02*
X91883390Y-142309523D01*
X91883390Y-142309523D02*
X92264342Y-142309523D01*
X92264342Y-142309523D02*
X92359580Y-142261904D01*
X92359580Y-142261904D02*
X92407200Y-142214285D01*
X92407200Y-142214285D02*
X92454819Y-142119047D01*
X92454819Y-142119047D02*
X92454819Y-141928571D01*
X92454819Y-141928571D02*
X92407200Y-141833333D01*
X92407200Y-141833333D02*
X92359580Y-141785714D01*
X92359580Y-141785714D02*
X92264342Y-141738095D01*
X92264342Y-141738095D02*
X92026247Y-141738095D01*
X92026247Y-141738095D02*
X91931009Y-141785714D01*
X91931009Y-141785714D02*
X91883390Y-141833333D01*
X91883390Y-141833333D02*
X91835771Y-141928571D01*
X91835771Y-141928571D02*
X91835771Y-142119047D01*
X91835771Y-142119047D02*
X91883390Y-142214285D01*
X91883390Y-142214285D02*
X91931009Y-142261904D01*
X91931009Y-142261904D02*
X92026247Y-142309523D01*
X87157142Y-80159580D02*
X87109523Y-80207200D01*
X87109523Y-80207200D02*
X86966666Y-80254819D01*
X86966666Y-80254819D02*
X86871428Y-80254819D01*
X86871428Y-80254819D02*
X86728571Y-80207200D01*
X86728571Y-80207200D02*
X86633333Y-80111961D01*
X86633333Y-80111961D02*
X86585714Y-80016723D01*
X86585714Y-80016723D02*
X86538095Y-79826247D01*
X86538095Y-79826247D02*
X86538095Y-79683390D01*
X86538095Y-79683390D02*
X86585714Y-79492914D01*
X86585714Y-79492914D02*
X86633333Y-79397676D01*
X86633333Y-79397676D02*
X86728571Y-79302438D01*
X86728571Y-79302438D02*
X86871428Y-79254819D01*
X86871428Y-79254819D02*
X86966666Y-79254819D01*
X86966666Y-79254819D02*
X87109523Y-79302438D01*
X87109523Y-79302438D02*
X87157142Y-79350057D01*
X88109523Y-80254819D02*
X87538095Y-80254819D01*
X87823809Y-80254819D02*
X87823809Y-79254819D01*
X87823809Y-79254819D02*
X87728571Y-79397676D01*
X87728571Y-79397676D02*
X87633333Y-79492914D01*
X87633333Y-79492914D02*
X87538095Y-79540533D01*
X89061904Y-80254819D02*
X88490476Y-80254819D01*
X88776190Y-80254819D02*
X88776190Y-79254819D01*
X88776190Y-79254819D02*
X88680952Y-79397676D01*
X88680952Y-79397676D02*
X88585714Y-79492914D01*
X88585714Y-79492914D02*
X88490476Y-79540533D01*
X93761905Y-144154819D02*
X93761905Y-144964342D01*
X93761905Y-144964342D02*
X93809524Y-145059580D01*
X93809524Y-145059580D02*
X93857143Y-145107200D01*
X93857143Y-145107200D02*
X93952381Y-145154819D01*
X93952381Y-145154819D02*
X94142857Y-145154819D01*
X94142857Y-145154819D02*
X94238095Y-145107200D01*
X94238095Y-145107200D02*
X94285714Y-145059580D01*
X94285714Y-145059580D02*
X94333333Y-144964342D01*
X94333333Y-144964342D02*
X94333333Y-144154819D01*
X95333333Y-145154819D02*
X94761905Y-145154819D01*
X95047619Y-145154819D02*
X95047619Y-144154819D01*
X95047619Y-144154819D02*
X94952381Y-144297676D01*
X94952381Y-144297676D02*
X94857143Y-144392914D01*
X94857143Y-144392914D02*
X94761905Y-144440533D01*
X95714286Y-144250057D02*
X95761905Y-144202438D01*
X95761905Y-144202438D02*
X95857143Y-144154819D01*
X95857143Y-144154819D02*
X96095238Y-144154819D01*
X96095238Y-144154819D02*
X96190476Y-144202438D01*
X96190476Y-144202438D02*
X96238095Y-144250057D01*
X96238095Y-144250057D02*
X96285714Y-144345295D01*
X96285714Y-144345295D02*
X96285714Y-144440533D01*
X96285714Y-144440533D02*
X96238095Y-144583390D01*
X96238095Y-144583390D02*
X95666667Y-145154819D01*
X95666667Y-145154819D02*
X96285714Y-145154819D01*
X74759580Y-142042857D02*
X74807200Y-142090476D01*
X74807200Y-142090476D02*
X74854819Y-142233333D01*
X74854819Y-142233333D02*
X74854819Y-142328571D01*
X74854819Y-142328571D02*
X74807200Y-142471428D01*
X74807200Y-142471428D02*
X74711961Y-142566666D01*
X74711961Y-142566666D02*
X74616723Y-142614285D01*
X74616723Y-142614285D02*
X74426247Y-142661904D01*
X74426247Y-142661904D02*
X74283390Y-142661904D01*
X74283390Y-142661904D02*
X74092914Y-142614285D01*
X74092914Y-142614285D02*
X73997676Y-142566666D01*
X73997676Y-142566666D02*
X73902438Y-142471428D01*
X73902438Y-142471428D02*
X73854819Y-142328571D01*
X73854819Y-142328571D02*
X73854819Y-142233333D01*
X73854819Y-142233333D02*
X73902438Y-142090476D01*
X73902438Y-142090476D02*
X73950057Y-142042857D01*
X74854819Y-141090476D02*
X74854819Y-141661904D01*
X74854819Y-141376190D02*
X73854819Y-141376190D01*
X73854819Y-141376190D02*
X73997676Y-141471428D01*
X73997676Y-141471428D02*
X74092914Y-141566666D01*
X74092914Y-141566666D02*
X74140533Y-141661904D01*
X74854819Y-140614285D02*
X74854819Y-140423809D01*
X74854819Y-140423809D02*
X74807200Y-140328571D01*
X74807200Y-140328571D02*
X74759580Y-140280952D01*
X74759580Y-140280952D02*
X74616723Y-140185714D01*
X74616723Y-140185714D02*
X74426247Y-140138095D01*
X74426247Y-140138095D02*
X74045295Y-140138095D01*
X74045295Y-140138095D02*
X73950057Y-140185714D01*
X73950057Y-140185714D02*
X73902438Y-140233333D01*
X73902438Y-140233333D02*
X73854819Y-140328571D01*
X73854819Y-140328571D02*
X73854819Y-140519047D01*
X73854819Y-140519047D02*
X73902438Y-140614285D01*
X73902438Y-140614285D02*
X73950057Y-140661904D01*
X73950057Y-140661904D02*
X74045295Y-140709523D01*
X74045295Y-140709523D02*
X74283390Y-140709523D01*
X74283390Y-140709523D02*
X74378628Y-140661904D01*
X74378628Y-140661904D02*
X74426247Y-140614285D01*
X74426247Y-140614285D02*
X74473866Y-140519047D01*
X74473866Y-140519047D02*
X74473866Y-140328571D01*
X74473866Y-140328571D02*
X74426247Y-140233333D01*
X74426247Y-140233333D02*
X74378628Y-140185714D01*
X74378628Y-140185714D02*
X74283390Y-140138095D01*
X84159580Y-146242857D02*
X84207200Y-146290476D01*
X84207200Y-146290476D02*
X84254819Y-146433333D01*
X84254819Y-146433333D02*
X84254819Y-146528571D01*
X84254819Y-146528571D02*
X84207200Y-146671428D01*
X84207200Y-146671428D02*
X84111961Y-146766666D01*
X84111961Y-146766666D02*
X84016723Y-146814285D01*
X84016723Y-146814285D02*
X83826247Y-146861904D01*
X83826247Y-146861904D02*
X83683390Y-146861904D01*
X83683390Y-146861904D02*
X83492914Y-146814285D01*
X83492914Y-146814285D02*
X83397676Y-146766666D01*
X83397676Y-146766666D02*
X83302438Y-146671428D01*
X83302438Y-146671428D02*
X83254819Y-146528571D01*
X83254819Y-146528571D02*
X83254819Y-146433333D01*
X83254819Y-146433333D02*
X83302438Y-146290476D01*
X83302438Y-146290476D02*
X83350057Y-146242857D01*
X83350057Y-145861904D02*
X83302438Y-145814285D01*
X83302438Y-145814285D02*
X83254819Y-145719047D01*
X83254819Y-145719047D02*
X83254819Y-145480952D01*
X83254819Y-145480952D02*
X83302438Y-145385714D01*
X83302438Y-145385714D02*
X83350057Y-145338095D01*
X83350057Y-145338095D02*
X83445295Y-145290476D01*
X83445295Y-145290476D02*
X83540533Y-145290476D01*
X83540533Y-145290476D02*
X83683390Y-145338095D01*
X83683390Y-145338095D02*
X84254819Y-145909523D01*
X84254819Y-145909523D02*
X84254819Y-145290476D01*
X83254819Y-144671428D02*
X83254819Y-144576190D01*
X83254819Y-144576190D02*
X83302438Y-144480952D01*
X83302438Y-144480952D02*
X83350057Y-144433333D01*
X83350057Y-144433333D02*
X83445295Y-144385714D01*
X83445295Y-144385714D02*
X83635771Y-144338095D01*
X83635771Y-144338095D02*
X83873866Y-144338095D01*
X83873866Y-144338095D02*
X84064342Y-144385714D01*
X84064342Y-144385714D02*
X84159580Y-144433333D01*
X84159580Y-144433333D02*
X84207200Y-144480952D01*
X84207200Y-144480952D02*
X84254819Y-144576190D01*
X84254819Y-144576190D02*
X84254819Y-144671428D01*
X84254819Y-144671428D02*
X84207200Y-144766666D01*
X84207200Y-144766666D02*
X84159580Y-144814285D01*
X84159580Y-144814285D02*
X84064342Y-144861904D01*
X84064342Y-144861904D02*
X83873866Y-144909523D01*
X83873866Y-144909523D02*
X83635771Y-144909523D01*
X83635771Y-144909523D02*
X83445295Y-144861904D01*
X83445295Y-144861904D02*
X83350057Y-144814285D01*
X83350057Y-144814285D02*
X83302438Y-144766666D01*
X83302438Y-144766666D02*
X83254819Y-144671428D01*
X80957142Y-52559580D02*
X80909523Y-52607200D01*
X80909523Y-52607200D02*
X80766666Y-52654819D01*
X80766666Y-52654819D02*
X80671428Y-52654819D01*
X80671428Y-52654819D02*
X80528571Y-52607200D01*
X80528571Y-52607200D02*
X80433333Y-52511961D01*
X80433333Y-52511961D02*
X80385714Y-52416723D01*
X80385714Y-52416723D02*
X80338095Y-52226247D01*
X80338095Y-52226247D02*
X80338095Y-52083390D01*
X80338095Y-52083390D02*
X80385714Y-51892914D01*
X80385714Y-51892914D02*
X80433333Y-51797676D01*
X80433333Y-51797676D02*
X80528571Y-51702438D01*
X80528571Y-51702438D02*
X80671428Y-51654819D01*
X80671428Y-51654819D02*
X80766666Y-51654819D01*
X80766666Y-51654819D02*
X80909523Y-51702438D01*
X80909523Y-51702438D02*
X80957142Y-51750057D01*
X81338095Y-51750057D02*
X81385714Y-51702438D01*
X81385714Y-51702438D02*
X81480952Y-51654819D01*
X81480952Y-51654819D02*
X81719047Y-51654819D01*
X81719047Y-51654819D02*
X81814285Y-51702438D01*
X81814285Y-51702438D02*
X81861904Y-51750057D01*
X81861904Y-51750057D02*
X81909523Y-51845295D01*
X81909523Y-51845295D02*
X81909523Y-51940533D01*
X81909523Y-51940533D02*
X81861904Y-52083390D01*
X81861904Y-52083390D02*
X81290476Y-52654819D01*
X81290476Y-52654819D02*
X81909523Y-52654819D01*
X82242857Y-51654819D02*
X82909523Y-51654819D01*
X82909523Y-51654819D02*
X82480952Y-52654819D01*
X62488095Y-76454819D02*
X62488095Y-77264342D01*
X62488095Y-77264342D02*
X62535714Y-77359580D01*
X62535714Y-77359580D02*
X62583333Y-77407200D01*
X62583333Y-77407200D02*
X62678571Y-77454819D01*
X62678571Y-77454819D02*
X62869047Y-77454819D01*
X62869047Y-77454819D02*
X62964285Y-77407200D01*
X62964285Y-77407200D02*
X63011904Y-77359580D01*
X63011904Y-77359580D02*
X63059523Y-77264342D01*
X63059523Y-77264342D02*
X63059523Y-76454819D01*
X63964285Y-76788152D02*
X63964285Y-77454819D01*
X63726190Y-76407200D02*
X63488095Y-77121485D01*
X63488095Y-77121485D02*
X64107142Y-77121485D01*
X102238095Y-95804819D02*
X102238095Y-96614342D01*
X102238095Y-96614342D02*
X102285714Y-96709580D01*
X102285714Y-96709580D02*
X102333333Y-96757200D01*
X102333333Y-96757200D02*
X102428571Y-96804819D01*
X102428571Y-96804819D02*
X102619047Y-96804819D01*
X102619047Y-96804819D02*
X102714285Y-96757200D01*
X102714285Y-96757200D02*
X102761904Y-96709580D01*
X102761904Y-96709580D02*
X102809523Y-96614342D01*
X102809523Y-96614342D02*
X102809523Y-95804819D01*
X103714285Y-95804819D02*
X103523809Y-95804819D01*
X103523809Y-95804819D02*
X103428571Y-95852438D01*
X103428571Y-95852438D02*
X103380952Y-95900057D01*
X103380952Y-95900057D02*
X103285714Y-96042914D01*
X103285714Y-96042914D02*
X103238095Y-96233390D01*
X103238095Y-96233390D02*
X103238095Y-96614342D01*
X103238095Y-96614342D02*
X103285714Y-96709580D01*
X103285714Y-96709580D02*
X103333333Y-96757200D01*
X103333333Y-96757200D02*
X103428571Y-96804819D01*
X103428571Y-96804819D02*
X103619047Y-96804819D01*
X103619047Y-96804819D02*
X103714285Y-96757200D01*
X103714285Y-96757200D02*
X103761904Y-96709580D01*
X103761904Y-96709580D02*
X103809523Y-96614342D01*
X103809523Y-96614342D02*
X103809523Y-96376247D01*
X103809523Y-96376247D02*
X103761904Y-96281009D01*
X103761904Y-96281009D02*
X103714285Y-96233390D01*
X103714285Y-96233390D02*
X103619047Y-96185771D01*
X103619047Y-96185771D02*
X103428571Y-96185771D01*
X103428571Y-96185771D02*
X103333333Y-96233390D01*
X103333333Y-96233390D02*
X103285714Y-96281009D01*
X103285714Y-96281009D02*
X103238095Y-96376247D01*
X91957142Y-78259580D02*
X91909523Y-78307200D01*
X91909523Y-78307200D02*
X91766666Y-78354819D01*
X91766666Y-78354819D02*
X91671428Y-78354819D01*
X91671428Y-78354819D02*
X91528571Y-78307200D01*
X91528571Y-78307200D02*
X91433333Y-78211961D01*
X91433333Y-78211961D02*
X91385714Y-78116723D01*
X91385714Y-78116723D02*
X91338095Y-77926247D01*
X91338095Y-77926247D02*
X91338095Y-77783390D01*
X91338095Y-77783390D02*
X91385714Y-77592914D01*
X91385714Y-77592914D02*
X91433333Y-77497676D01*
X91433333Y-77497676D02*
X91528571Y-77402438D01*
X91528571Y-77402438D02*
X91671428Y-77354819D01*
X91671428Y-77354819D02*
X91766666Y-77354819D01*
X91766666Y-77354819D02*
X91909523Y-77402438D01*
X91909523Y-77402438D02*
X91957142Y-77450057D01*
X92338095Y-77450057D02*
X92385714Y-77402438D01*
X92385714Y-77402438D02*
X92480952Y-77354819D01*
X92480952Y-77354819D02*
X92719047Y-77354819D01*
X92719047Y-77354819D02*
X92814285Y-77402438D01*
X92814285Y-77402438D02*
X92861904Y-77450057D01*
X92861904Y-77450057D02*
X92909523Y-77545295D01*
X92909523Y-77545295D02*
X92909523Y-77640533D01*
X92909523Y-77640533D02*
X92861904Y-77783390D01*
X92861904Y-77783390D02*
X92290476Y-78354819D01*
X92290476Y-78354819D02*
X92909523Y-78354819D01*
X93814285Y-77354819D02*
X93338095Y-77354819D01*
X93338095Y-77354819D02*
X93290476Y-77831009D01*
X93290476Y-77831009D02*
X93338095Y-77783390D01*
X93338095Y-77783390D02*
X93433333Y-77735771D01*
X93433333Y-77735771D02*
X93671428Y-77735771D01*
X93671428Y-77735771D02*
X93766666Y-77783390D01*
X93766666Y-77783390D02*
X93814285Y-77831009D01*
X93814285Y-77831009D02*
X93861904Y-77926247D01*
X93861904Y-77926247D02*
X93861904Y-78164342D01*
X93861904Y-78164342D02*
X93814285Y-78259580D01*
X93814285Y-78259580D02*
X93766666Y-78307200D01*
X93766666Y-78307200D02*
X93671428Y-78354819D01*
X93671428Y-78354819D02*
X93433333Y-78354819D01*
X93433333Y-78354819D02*
X93338095Y-78307200D01*
X93338095Y-78307200D02*
X93290476Y-78259580D01*
X71954819Y-61166666D02*
X71478628Y-61499999D01*
X71954819Y-61738094D02*
X70954819Y-61738094D01*
X70954819Y-61738094D02*
X70954819Y-61357142D01*
X70954819Y-61357142D02*
X71002438Y-61261904D01*
X71002438Y-61261904D02*
X71050057Y-61214285D01*
X71050057Y-61214285D02*
X71145295Y-61166666D01*
X71145295Y-61166666D02*
X71288152Y-61166666D01*
X71288152Y-61166666D02*
X71383390Y-61214285D01*
X71383390Y-61214285D02*
X71431009Y-61261904D01*
X71431009Y-61261904D02*
X71478628Y-61357142D01*
X71478628Y-61357142D02*
X71478628Y-61738094D01*
X71050057Y-60785713D02*
X71002438Y-60738094D01*
X71002438Y-60738094D02*
X70954819Y-60642856D01*
X70954819Y-60642856D02*
X70954819Y-60404761D01*
X70954819Y-60404761D02*
X71002438Y-60309523D01*
X71002438Y-60309523D02*
X71050057Y-60261904D01*
X71050057Y-60261904D02*
X71145295Y-60214285D01*
X71145295Y-60214285D02*
X71240533Y-60214285D01*
X71240533Y-60214285D02*
X71383390Y-60261904D01*
X71383390Y-60261904D02*
X71954819Y-60833332D01*
X71954819Y-60833332D02*
X71954819Y-60214285D01*
X70454819Y-61166666D02*
X69978628Y-61499999D01*
X70454819Y-61738094D02*
X69454819Y-61738094D01*
X69454819Y-61738094D02*
X69454819Y-61357142D01*
X69454819Y-61357142D02*
X69502438Y-61261904D01*
X69502438Y-61261904D02*
X69550057Y-61214285D01*
X69550057Y-61214285D02*
X69645295Y-61166666D01*
X69645295Y-61166666D02*
X69788152Y-61166666D01*
X69788152Y-61166666D02*
X69883390Y-61214285D01*
X69883390Y-61214285D02*
X69931009Y-61261904D01*
X69931009Y-61261904D02*
X69978628Y-61357142D01*
X69978628Y-61357142D02*
X69978628Y-61738094D01*
X70454819Y-60214285D02*
X70454819Y-60785713D01*
X70454819Y-60499999D02*
X69454819Y-60499999D01*
X69454819Y-60499999D02*
X69597676Y-60595237D01*
X69597676Y-60595237D02*
X69692914Y-60690475D01*
X69692914Y-60690475D02*
X69740533Y-60785713D01*
X54238095Y-88954819D02*
X54238095Y-89764342D01*
X54238095Y-89764342D02*
X54285714Y-89859580D01*
X54285714Y-89859580D02*
X54333333Y-89907200D01*
X54333333Y-89907200D02*
X54428571Y-89954819D01*
X54428571Y-89954819D02*
X54619047Y-89954819D01*
X54619047Y-89954819D02*
X54714285Y-89907200D01*
X54714285Y-89907200D02*
X54761904Y-89859580D01*
X54761904Y-89859580D02*
X54809523Y-89764342D01*
X54809523Y-89764342D02*
X54809523Y-88954819D01*
X55761904Y-88954819D02*
X55285714Y-88954819D01*
X55285714Y-88954819D02*
X55238095Y-89431009D01*
X55238095Y-89431009D02*
X55285714Y-89383390D01*
X55285714Y-89383390D02*
X55380952Y-89335771D01*
X55380952Y-89335771D02*
X55619047Y-89335771D01*
X55619047Y-89335771D02*
X55714285Y-89383390D01*
X55714285Y-89383390D02*
X55761904Y-89431009D01*
X55761904Y-89431009D02*
X55809523Y-89526247D01*
X55809523Y-89526247D02*
X55809523Y-89764342D01*
X55809523Y-89764342D02*
X55761904Y-89859580D01*
X55761904Y-89859580D02*
X55714285Y-89907200D01*
X55714285Y-89907200D02*
X55619047Y-89954819D01*
X55619047Y-89954819D02*
X55380952Y-89954819D01*
X55380952Y-89954819D02*
X55285714Y-89907200D01*
X55285714Y-89907200D02*
X55238095Y-89859580D01*
X71083333Y-70859580D02*
X71035714Y-70907200D01*
X71035714Y-70907200D02*
X70892857Y-70954819D01*
X70892857Y-70954819D02*
X70797619Y-70954819D01*
X70797619Y-70954819D02*
X70654762Y-70907200D01*
X70654762Y-70907200D02*
X70559524Y-70811961D01*
X70559524Y-70811961D02*
X70511905Y-70716723D01*
X70511905Y-70716723D02*
X70464286Y-70526247D01*
X70464286Y-70526247D02*
X70464286Y-70383390D01*
X70464286Y-70383390D02*
X70511905Y-70192914D01*
X70511905Y-70192914D02*
X70559524Y-70097676D01*
X70559524Y-70097676D02*
X70654762Y-70002438D01*
X70654762Y-70002438D02*
X70797619Y-69954819D01*
X70797619Y-69954819D02*
X70892857Y-69954819D01*
X70892857Y-69954819D02*
X71035714Y-70002438D01*
X71035714Y-70002438D02*
X71083333Y-70050057D01*
X71654762Y-70383390D02*
X71559524Y-70335771D01*
X71559524Y-70335771D02*
X71511905Y-70288152D01*
X71511905Y-70288152D02*
X71464286Y-70192914D01*
X71464286Y-70192914D02*
X71464286Y-70145295D01*
X71464286Y-70145295D02*
X71511905Y-70050057D01*
X71511905Y-70050057D02*
X71559524Y-70002438D01*
X71559524Y-70002438D02*
X71654762Y-69954819D01*
X71654762Y-69954819D02*
X71845238Y-69954819D01*
X71845238Y-69954819D02*
X71940476Y-70002438D01*
X71940476Y-70002438D02*
X71988095Y-70050057D01*
X71988095Y-70050057D02*
X72035714Y-70145295D01*
X72035714Y-70145295D02*
X72035714Y-70192914D01*
X72035714Y-70192914D02*
X71988095Y-70288152D01*
X71988095Y-70288152D02*
X71940476Y-70335771D01*
X71940476Y-70335771D02*
X71845238Y-70383390D01*
X71845238Y-70383390D02*
X71654762Y-70383390D01*
X71654762Y-70383390D02*
X71559524Y-70431009D01*
X71559524Y-70431009D02*
X71511905Y-70478628D01*
X71511905Y-70478628D02*
X71464286Y-70573866D01*
X71464286Y-70573866D02*
X71464286Y-70764342D01*
X71464286Y-70764342D02*
X71511905Y-70859580D01*
X71511905Y-70859580D02*
X71559524Y-70907200D01*
X71559524Y-70907200D02*
X71654762Y-70954819D01*
X71654762Y-70954819D02*
X71845238Y-70954819D01*
X71845238Y-70954819D02*
X71940476Y-70907200D01*
X71940476Y-70907200D02*
X71988095Y-70859580D01*
X71988095Y-70859580D02*
X72035714Y-70764342D01*
X72035714Y-70764342D02*
X72035714Y-70573866D01*
X72035714Y-70573866D02*
X71988095Y-70478628D01*
X71988095Y-70478628D02*
X71940476Y-70431009D01*
X71940476Y-70431009D02*
X71845238Y-70383390D01*
X54033333Y-82109580D02*
X53985714Y-82157200D01*
X53985714Y-82157200D02*
X53842857Y-82204819D01*
X53842857Y-82204819D02*
X53747619Y-82204819D01*
X53747619Y-82204819D02*
X53604762Y-82157200D01*
X53604762Y-82157200D02*
X53509524Y-82061961D01*
X53509524Y-82061961D02*
X53461905Y-81966723D01*
X53461905Y-81966723D02*
X53414286Y-81776247D01*
X53414286Y-81776247D02*
X53414286Y-81633390D01*
X53414286Y-81633390D02*
X53461905Y-81442914D01*
X53461905Y-81442914D02*
X53509524Y-81347676D01*
X53509524Y-81347676D02*
X53604762Y-81252438D01*
X53604762Y-81252438D02*
X53747619Y-81204819D01*
X53747619Y-81204819D02*
X53842857Y-81204819D01*
X53842857Y-81204819D02*
X53985714Y-81252438D01*
X53985714Y-81252438D02*
X54033333Y-81300057D01*
X54414286Y-81300057D02*
X54461905Y-81252438D01*
X54461905Y-81252438D02*
X54557143Y-81204819D01*
X54557143Y-81204819D02*
X54795238Y-81204819D01*
X54795238Y-81204819D02*
X54890476Y-81252438D01*
X54890476Y-81252438D02*
X54938095Y-81300057D01*
X54938095Y-81300057D02*
X54985714Y-81395295D01*
X54985714Y-81395295D02*
X54985714Y-81490533D01*
X54985714Y-81490533D02*
X54938095Y-81633390D01*
X54938095Y-81633390D02*
X54366667Y-82204819D01*
X54366667Y-82204819D02*
X54985714Y-82204819D01*
X68583333Y-72359580D02*
X68535714Y-72407200D01*
X68535714Y-72407200D02*
X68392857Y-72454819D01*
X68392857Y-72454819D02*
X68297619Y-72454819D01*
X68297619Y-72454819D02*
X68154762Y-72407200D01*
X68154762Y-72407200D02*
X68059524Y-72311961D01*
X68059524Y-72311961D02*
X68011905Y-72216723D01*
X68011905Y-72216723D02*
X67964286Y-72026247D01*
X67964286Y-72026247D02*
X67964286Y-71883390D01*
X67964286Y-71883390D02*
X68011905Y-71692914D01*
X68011905Y-71692914D02*
X68059524Y-71597676D01*
X68059524Y-71597676D02*
X68154762Y-71502438D01*
X68154762Y-71502438D02*
X68297619Y-71454819D01*
X68297619Y-71454819D02*
X68392857Y-71454819D01*
X68392857Y-71454819D02*
X68535714Y-71502438D01*
X68535714Y-71502438D02*
X68583333Y-71550057D01*
X68916667Y-71454819D02*
X69583333Y-71454819D01*
X69583333Y-71454819D02*
X69154762Y-72454819D01*
X69854819Y-56238094D02*
X70664342Y-56238094D01*
X70664342Y-56238094D02*
X70759580Y-56190475D01*
X70759580Y-56190475D02*
X70807200Y-56142856D01*
X70807200Y-56142856D02*
X70854819Y-56047618D01*
X70854819Y-56047618D02*
X70854819Y-55857142D01*
X70854819Y-55857142D02*
X70807200Y-55761904D01*
X70807200Y-55761904D02*
X70759580Y-55714285D01*
X70759580Y-55714285D02*
X70664342Y-55666666D01*
X70664342Y-55666666D02*
X69854819Y-55666666D01*
X70854819Y-54666666D02*
X70854819Y-55238094D01*
X70854819Y-54952380D02*
X69854819Y-54952380D01*
X69854819Y-54952380D02*
X69997676Y-55047618D01*
X69997676Y-55047618D02*
X70092914Y-55142856D01*
X70092914Y-55142856D02*
X70140533Y-55238094D01*
X69854819Y-53761904D02*
X69854819Y-54238094D01*
X69854819Y-54238094D02*
X70331009Y-54285713D01*
X70331009Y-54285713D02*
X70283390Y-54238094D01*
X70283390Y-54238094D02*
X70235771Y-54142856D01*
X70235771Y-54142856D02*
X70235771Y-53904761D01*
X70235771Y-53904761D02*
X70283390Y-53809523D01*
X70283390Y-53809523D02*
X70331009Y-53761904D01*
X70331009Y-53761904D02*
X70426247Y-53714285D01*
X70426247Y-53714285D02*
X70664342Y-53714285D01*
X70664342Y-53714285D02*
X70759580Y-53761904D01*
X70759580Y-53761904D02*
X70807200Y-53809523D01*
X70807200Y-53809523D02*
X70854819Y-53904761D01*
X70854819Y-53904761D02*
X70854819Y-54142856D01*
X70854819Y-54142856D02*
X70807200Y-54238094D01*
X70807200Y-54238094D02*
X70759580Y-54285713D01*
X90633333Y-80159580D02*
X90585714Y-80207200D01*
X90585714Y-80207200D02*
X90442857Y-80254819D01*
X90442857Y-80254819D02*
X90347619Y-80254819D01*
X90347619Y-80254819D02*
X90204762Y-80207200D01*
X90204762Y-80207200D02*
X90109524Y-80111961D01*
X90109524Y-80111961D02*
X90061905Y-80016723D01*
X90061905Y-80016723D02*
X90014286Y-79826247D01*
X90014286Y-79826247D02*
X90014286Y-79683390D01*
X90014286Y-79683390D02*
X90061905Y-79492914D01*
X90061905Y-79492914D02*
X90109524Y-79397676D01*
X90109524Y-79397676D02*
X90204762Y-79302438D01*
X90204762Y-79302438D02*
X90347619Y-79254819D01*
X90347619Y-79254819D02*
X90442857Y-79254819D01*
X90442857Y-79254819D02*
X90585714Y-79302438D01*
X90585714Y-79302438D02*
X90633333Y-79350057D01*
X91109524Y-80254819D02*
X91300000Y-80254819D01*
X91300000Y-80254819D02*
X91395238Y-80207200D01*
X91395238Y-80207200D02*
X91442857Y-80159580D01*
X91442857Y-80159580D02*
X91538095Y-80016723D01*
X91538095Y-80016723D02*
X91585714Y-79826247D01*
X91585714Y-79826247D02*
X91585714Y-79445295D01*
X91585714Y-79445295D02*
X91538095Y-79350057D01*
X91538095Y-79350057D02*
X91490476Y-79302438D01*
X91490476Y-79302438D02*
X91395238Y-79254819D01*
X91395238Y-79254819D02*
X91204762Y-79254819D01*
X91204762Y-79254819D02*
X91109524Y-79302438D01*
X91109524Y-79302438D02*
X91061905Y-79350057D01*
X91061905Y-79350057D02*
X91014286Y-79445295D01*
X91014286Y-79445295D02*
X91014286Y-79683390D01*
X91014286Y-79683390D02*
X91061905Y-79778628D01*
X91061905Y-79778628D02*
X91109524Y-79826247D01*
X91109524Y-79826247D02*
X91204762Y-79873866D01*
X91204762Y-79873866D02*
X91395238Y-79873866D01*
X91395238Y-79873866D02*
X91490476Y-79826247D01*
X91490476Y-79826247D02*
X91538095Y-79778628D01*
X91538095Y-79778628D02*
X91585714Y-79683390D01*
X68583333Y-70859580D02*
X68535714Y-70907200D01*
X68535714Y-70907200D02*
X68392857Y-70954819D01*
X68392857Y-70954819D02*
X68297619Y-70954819D01*
X68297619Y-70954819D02*
X68154762Y-70907200D01*
X68154762Y-70907200D02*
X68059524Y-70811961D01*
X68059524Y-70811961D02*
X68011905Y-70716723D01*
X68011905Y-70716723D02*
X67964286Y-70526247D01*
X67964286Y-70526247D02*
X67964286Y-70383390D01*
X67964286Y-70383390D02*
X68011905Y-70192914D01*
X68011905Y-70192914D02*
X68059524Y-70097676D01*
X68059524Y-70097676D02*
X68154762Y-70002438D01*
X68154762Y-70002438D02*
X68297619Y-69954819D01*
X68297619Y-69954819D02*
X68392857Y-69954819D01*
X68392857Y-69954819D02*
X68535714Y-70002438D01*
X68535714Y-70002438D02*
X68583333Y-70050057D01*
X69440476Y-69954819D02*
X69250000Y-69954819D01*
X69250000Y-69954819D02*
X69154762Y-70002438D01*
X69154762Y-70002438D02*
X69107143Y-70050057D01*
X69107143Y-70050057D02*
X69011905Y-70192914D01*
X69011905Y-70192914D02*
X68964286Y-70383390D01*
X68964286Y-70383390D02*
X68964286Y-70764342D01*
X68964286Y-70764342D02*
X69011905Y-70859580D01*
X69011905Y-70859580D02*
X69059524Y-70907200D01*
X69059524Y-70907200D02*
X69154762Y-70954819D01*
X69154762Y-70954819D02*
X69345238Y-70954819D01*
X69345238Y-70954819D02*
X69440476Y-70907200D01*
X69440476Y-70907200D02*
X69488095Y-70859580D01*
X69488095Y-70859580D02*
X69535714Y-70764342D01*
X69535714Y-70764342D02*
X69535714Y-70526247D01*
X69535714Y-70526247D02*
X69488095Y-70431009D01*
X69488095Y-70431009D02*
X69440476Y-70383390D01*
X69440476Y-70383390D02*
X69345238Y-70335771D01*
X69345238Y-70335771D02*
X69154762Y-70335771D01*
X69154762Y-70335771D02*
X69059524Y-70383390D01*
X69059524Y-70383390D02*
X69011905Y-70431009D01*
X69011905Y-70431009D02*
X68964286Y-70526247D01*
X79454819Y-61166666D02*
X78978628Y-61499999D01*
X79454819Y-61738094D02*
X78454819Y-61738094D01*
X78454819Y-61738094D02*
X78454819Y-61357142D01*
X78454819Y-61357142D02*
X78502438Y-61261904D01*
X78502438Y-61261904D02*
X78550057Y-61214285D01*
X78550057Y-61214285D02*
X78645295Y-61166666D01*
X78645295Y-61166666D02*
X78788152Y-61166666D01*
X78788152Y-61166666D02*
X78883390Y-61214285D01*
X78883390Y-61214285D02*
X78931009Y-61261904D01*
X78931009Y-61261904D02*
X78978628Y-61357142D01*
X78978628Y-61357142D02*
X78978628Y-61738094D01*
X78454819Y-60833332D02*
X78454819Y-60166666D01*
X78454819Y-60166666D02*
X79454819Y-60595237D01*
X88238095Y-74754819D02*
X88238095Y-75564342D01*
X88238095Y-75564342D02*
X88285714Y-75659580D01*
X88285714Y-75659580D02*
X88333333Y-75707200D01*
X88333333Y-75707200D02*
X88428571Y-75754819D01*
X88428571Y-75754819D02*
X88619047Y-75754819D01*
X88619047Y-75754819D02*
X88714285Y-75707200D01*
X88714285Y-75707200D02*
X88761904Y-75659580D01*
X88761904Y-75659580D02*
X88809523Y-75564342D01*
X88809523Y-75564342D02*
X88809523Y-74754819D01*
X89190476Y-74754819D02*
X89809523Y-74754819D01*
X89809523Y-74754819D02*
X89476190Y-75135771D01*
X89476190Y-75135771D02*
X89619047Y-75135771D01*
X89619047Y-75135771D02*
X89714285Y-75183390D01*
X89714285Y-75183390D02*
X89761904Y-75231009D01*
X89761904Y-75231009D02*
X89809523Y-75326247D01*
X89809523Y-75326247D02*
X89809523Y-75564342D01*
X89809523Y-75564342D02*
X89761904Y-75659580D01*
X89761904Y-75659580D02*
X89714285Y-75707200D01*
X89714285Y-75707200D02*
X89619047Y-75754819D01*
X89619047Y-75754819D02*
X89333333Y-75754819D01*
X89333333Y-75754819D02*
X89238095Y-75707200D01*
X89238095Y-75707200D02*
X89190476Y-75659580D01*
X57357142Y-145159580D02*
X57309523Y-145207200D01*
X57309523Y-145207200D02*
X57166666Y-145254819D01*
X57166666Y-145254819D02*
X57071428Y-145254819D01*
X57071428Y-145254819D02*
X56928571Y-145207200D01*
X56928571Y-145207200D02*
X56833333Y-145111961D01*
X56833333Y-145111961D02*
X56785714Y-145016723D01*
X56785714Y-145016723D02*
X56738095Y-144826247D01*
X56738095Y-144826247D02*
X56738095Y-144683390D01*
X56738095Y-144683390D02*
X56785714Y-144492914D01*
X56785714Y-144492914D02*
X56833333Y-144397676D01*
X56833333Y-144397676D02*
X56928571Y-144302438D01*
X56928571Y-144302438D02*
X57071428Y-144254819D01*
X57071428Y-144254819D02*
X57166666Y-144254819D01*
X57166666Y-144254819D02*
X57309523Y-144302438D01*
X57309523Y-144302438D02*
X57357142Y-144350057D01*
X57738095Y-144350057D02*
X57785714Y-144302438D01*
X57785714Y-144302438D02*
X57880952Y-144254819D01*
X57880952Y-144254819D02*
X58119047Y-144254819D01*
X58119047Y-144254819D02*
X58214285Y-144302438D01*
X58214285Y-144302438D02*
X58261904Y-144350057D01*
X58261904Y-144350057D02*
X58309523Y-144445295D01*
X58309523Y-144445295D02*
X58309523Y-144540533D01*
X58309523Y-144540533D02*
X58261904Y-144683390D01*
X58261904Y-144683390D02*
X57690476Y-145254819D01*
X57690476Y-145254819D02*
X58309523Y-145254819D01*
X58642857Y-144254819D02*
X59261904Y-144254819D01*
X59261904Y-144254819D02*
X58928571Y-144635771D01*
X58928571Y-144635771D02*
X59071428Y-144635771D01*
X59071428Y-144635771D02*
X59166666Y-144683390D01*
X59166666Y-144683390D02*
X59214285Y-144731009D01*
X59214285Y-144731009D02*
X59261904Y-144826247D01*
X59261904Y-144826247D02*
X59261904Y-145064342D01*
X59261904Y-145064342D02*
X59214285Y-145159580D01*
X59214285Y-145159580D02*
X59166666Y-145207200D01*
X59166666Y-145207200D02*
X59071428Y-145254819D01*
X59071428Y-145254819D02*
X58785714Y-145254819D01*
X58785714Y-145254819D02*
X58690476Y-145207200D01*
X58690476Y-145207200D02*
X58642857Y-145159580D01*
X47357142Y-93959580D02*
X47309523Y-94007200D01*
X47309523Y-94007200D02*
X47166666Y-94054819D01*
X47166666Y-94054819D02*
X47071428Y-94054819D01*
X47071428Y-94054819D02*
X46928571Y-94007200D01*
X46928571Y-94007200D02*
X46833333Y-93911961D01*
X46833333Y-93911961D02*
X46785714Y-93816723D01*
X46785714Y-93816723D02*
X46738095Y-93626247D01*
X46738095Y-93626247D02*
X46738095Y-93483390D01*
X46738095Y-93483390D02*
X46785714Y-93292914D01*
X46785714Y-93292914D02*
X46833333Y-93197676D01*
X46833333Y-93197676D02*
X46928571Y-93102438D01*
X46928571Y-93102438D02*
X47071428Y-93054819D01*
X47071428Y-93054819D02*
X47166666Y-93054819D01*
X47166666Y-93054819D02*
X47309523Y-93102438D01*
X47309523Y-93102438D02*
X47357142Y-93150057D01*
X48309523Y-94054819D02*
X47738095Y-94054819D01*
X48023809Y-94054819D02*
X48023809Y-93054819D01*
X48023809Y-93054819D02*
X47928571Y-93197676D01*
X47928571Y-93197676D02*
X47833333Y-93292914D01*
X47833333Y-93292914D02*
X47738095Y-93340533D01*
X49214285Y-93054819D02*
X48738095Y-93054819D01*
X48738095Y-93054819D02*
X48690476Y-93531009D01*
X48690476Y-93531009D02*
X48738095Y-93483390D01*
X48738095Y-93483390D02*
X48833333Y-93435771D01*
X48833333Y-93435771D02*
X49071428Y-93435771D01*
X49071428Y-93435771D02*
X49166666Y-93483390D01*
X49166666Y-93483390D02*
X49214285Y-93531009D01*
X49214285Y-93531009D02*
X49261904Y-93626247D01*
X49261904Y-93626247D02*
X49261904Y-93864342D01*
X49261904Y-93864342D02*
X49214285Y-93959580D01*
X49214285Y-93959580D02*
X49166666Y-94007200D01*
X49166666Y-94007200D02*
X49071428Y-94054819D01*
X49071428Y-94054819D02*
X48833333Y-94054819D01*
X48833333Y-94054819D02*
X48738095Y-94007200D01*
X48738095Y-94007200D02*
X48690476Y-93959580D01*
X71083333Y-72359580D02*
X71035714Y-72407200D01*
X71035714Y-72407200D02*
X70892857Y-72454819D01*
X70892857Y-72454819D02*
X70797619Y-72454819D01*
X70797619Y-72454819D02*
X70654762Y-72407200D01*
X70654762Y-72407200D02*
X70559524Y-72311961D01*
X70559524Y-72311961D02*
X70511905Y-72216723D01*
X70511905Y-72216723D02*
X70464286Y-72026247D01*
X70464286Y-72026247D02*
X70464286Y-71883390D01*
X70464286Y-71883390D02*
X70511905Y-71692914D01*
X70511905Y-71692914D02*
X70559524Y-71597676D01*
X70559524Y-71597676D02*
X70654762Y-71502438D01*
X70654762Y-71502438D02*
X70797619Y-71454819D01*
X70797619Y-71454819D02*
X70892857Y-71454819D01*
X70892857Y-71454819D02*
X71035714Y-71502438D01*
X71035714Y-71502438D02*
X71083333Y-71550057D01*
X71988095Y-71454819D02*
X71511905Y-71454819D01*
X71511905Y-71454819D02*
X71464286Y-71931009D01*
X71464286Y-71931009D02*
X71511905Y-71883390D01*
X71511905Y-71883390D02*
X71607143Y-71835771D01*
X71607143Y-71835771D02*
X71845238Y-71835771D01*
X71845238Y-71835771D02*
X71940476Y-71883390D01*
X71940476Y-71883390D02*
X71988095Y-71931009D01*
X71988095Y-71931009D02*
X72035714Y-72026247D01*
X72035714Y-72026247D02*
X72035714Y-72264342D01*
X72035714Y-72264342D02*
X71988095Y-72359580D01*
X71988095Y-72359580D02*
X71940476Y-72407200D01*
X71940476Y-72407200D02*
X71845238Y-72454819D01*
X71845238Y-72454819D02*
X71607143Y-72454819D01*
X71607143Y-72454819D02*
X71511905Y-72407200D01*
X71511905Y-72407200D02*
X71464286Y-72359580D01*
X33928571Y-127481009D02*
X33595238Y-127481009D01*
X33595238Y-128004819D02*
X33595238Y-127004819D01*
X33595238Y-127004819D02*
X34071428Y-127004819D01*
X34452381Y-128004819D02*
X34452381Y-127004819D01*
X34928571Y-128004819D02*
X34928571Y-127004819D01*
X34928571Y-127004819D02*
X35166666Y-127004819D01*
X35166666Y-127004819D02*
X35309523Y-127052438D01*
X35309523Y-127052438D02*
X35404761Y-127147676D01*
X35404761Y-127147676D02*
X35452380Y-127242914D01*
X35452380Y-127242914D02*
X35499999Y-127433390D01*
X35499999Y-127433390D02*
X35499999Y-127576247D01*
X35499999Y-127576247D02*
X35452380Y-127766723D01*
X35452380Y-127766723D02*
X35404761Y-127861961D01*
X35404761Y-127861961D02*
X35309523Y-127957200D01*
X35309523Y-127957200D02*
X35166666Y-128004819D01*
X35166666Y-128004819D02*
X34928571Y-128004819D01*
X35880952Y-127100057D02*
X35928571Y-127052438D01*
X35928571Y-127052438D02*
X36023809Y-127004819D01*
X36023809Y-127004819D02*
X36261904Y-127004819D01*
X36261904Y-127004819D02*
X36357142Y-127052438D01*
X36357142Y-127052438D02*
X36404761Y-127100057D01*
X36404761Y-127100057D02*
X36452380Y-127195295D01*
X36452380Y-127195295D02*
X36452380Y-127290533D01*
X36452380Y-127290533D02*
X36404761Y-127433390D01*
X36404761Y-127433390D02*
X35833333Y-128004819D01*
X35833333Y-128004819D02*
X36452380Y-128004819D01*
X87157142Y-81559580D02*
X87109523Y-81607200D01*
X87109523Y-81607200D02*
X86966666Y-81654819D01*
X86966666Y-81654819D02*
X86871428Y-81654819D01*
X86871428Y-81654819D02*
X86728571Y-81607200D01*
X86728571Y-81607200D02*
X86633333Y-81511961D01*
X86633333Y-81511961D02*
X86585714Y-81416723D01*
X86585714Y-81416723D02*
X86538095Y-81226247D01*
X86538095Y-81226247D02*
X86538095Y-81083390D01*
X86538095Y-81083390D02*
X86585714Y-80892914D01*
X86585714Y-80892914D02*
X86633333Y-80797676D01*
X86633333Y-80797676D02*
X86728571Y-80702438D01*
X86728571Y-80702438D02*
X86871428Y-80654819D01*
X86871428Y-80654819D02*
X86966666Y-80654819D01*
X86966666Y-80654819D02*
X87109523Y-80702438D01*
X87109523Y-80702438D02*
X87157142Y-80750057D01*
X88109523Y-81654819D02*
X87538095Y-81654819D01*
X87823809Y-81654819D02*
X87823809Y-80654819D01*
X87823809Y-80654819D02*
X87728571Y-80797676D01*
X87728571Y-80797676D02*
X87633333Y-80892914D01*
X87633333Y-80892914D02*
X87538095Y-80940533D01*
X88728571Y-80654819D02*
X88823809Y-80654819D01*
X88823809Y-80654819D02*
X88919047Y-80702438D01*
X88919047Y-80702438D02*
X88966666Y-80750057D01*
X88966666Y-80750057D02*
X89014285Y-80845295D01*
X89014285Y-80845295D02*
X89061904Y-81035771D01*
X89061904Y-81035771D02*
X89061904Y-81273866D01*
X89061904Y-81273866D02*
X89014285Y-81464342D01*
X89014285Y-81464342D02*
X88966666Y-81559580D01*
X88966666Y-81559580D02*
X88919047Y-81607200D01*
X88919047Y-81607200D02*
X88823809Y-81654819D01*
X88823809Y-81654819D02*
X88728571Y-81654819D01*
X88728571Y-81654819D02*
X88633333Y-81607200D01*
X88633333Y-81607200D02*
X88585714Y-81559580D01*
X88585714Y-81559580D02*
X88538095Y-81464342D01*
X88538095Y-81464342D02*
X88490476Y-81273866D01*
X88490476Y-81273866D02*
X88490476Y-81035771D01*
X88490476Y-81035771D02*
X88538095Y-80845295D01*
X88538095Y-80845295D02*
X88585714Y-80750057D01*
X88585714Y-80750057D02*
X88633333Y-80702438D01*
X88633333Y-80702438D02*
X88728571Y-80654819D01*
X78633333Y-69559580D02*
X78585714Y-69607200D01*
X78585714Y-69607200D02*
X78442857Y-69654819D01*
X78442857Y-69654819D02*
X78347619Y-69654819D01*
X78347619Y-69654819D02*
X78204762Y-69607200D01*
X78204762Y-69607200D02*
X78109524Y-69511961D01*
X78109524Y-69511961D02*
X78061905Y-69416723D01*
X78061905Y-69416723D02*
X78014286Y-69226247D01*
X78014286Y-69226247D02*
X78014286Y-69083390D01*
X78014286Y-69083390D02*
X78061905Y-68892914D01*
X78061905Y-68892914D02*
X78109524Y-68797676D01*
X78109524Y-68797676D02*
X78204762Y-68702438D01*
X78204762Y-68702438D02*
X78347619Y-68654819D01*
X78347619Y-68654819D02*
X78442857Y-68654819D01*
X78442857Y-68654819D02*
X78585714Y-68702438D01*
X78585714Y-68702438D02*
X78633333Y-68750057D01*
X79585714Y-69654819D02*
X79014286Y-69654819D01*
X79300000Y-69654819D02*
X79300000Y-68654819D01*
X79300000Y-68654819D02*
X79204762Y-68797676D01*
X79204762Y-68797676D02*
X79109524Y-68892914D01*
X79109524Y-68892914D02*
X79014286Y-68940533D01*
X74238095Y-70104819D02*
X74238095Y-70914342D01*
X74238095Y-70914342D02*
X74285714Y-71009580D01*
X74285714Y-71009580D02*
X74333333Y-71057200D01*
X74333333Y-71057200D02*
X74428571Y-71104819D01*
X74428571Y-71104819D02*
X74619047Y-71104819D01*
X74619047Y-71104819D02*
X74714285Y-71057200D01*
X74714285Y-71057200D02*
X74761904Y-71009580D01*
X74761904Y-71009580D02*
X74809523Y-70914342D01*
X74809523Y-70914342D02*
X74809523Y-70104819D01*
X75809523Y-71104819D02*
X75238095Y-71104819D01*
X75523809Y-71104819D02*
X75523809Y-70104819D01*
X75523809Y-70104819D02*
X75428571Y-70247676D01*
X75428571Y-70247676D02*
X75333333Y-70342914D01*
X75333333Y-70342914D02*
X75238095Y-70390533D01*
X50607142Y-95359580D02*
X50559523Y-95407200D01*
X50559523Y-95407200D02*
X50416666Y-95454819D01*
X50416666Y-95454819D02*
X50321428Y-95454819D01*
X50321428Y-95454819D02*
X50178571Y-95407200D01*
X50178571Y-95407200D02*
X50083333Y-95311961D01*
X50083333Y-95311961D02*
X50035714Y-95216723D01*
X50035714Y-95216723D02*
X49988095Y-95026247D01*
X49988095Y-95026247D02*
X49988095Y-94883390D01*
X49988095Y-94883390D02*
X50035714Y-94692914D01*
X50035714Y-94692914D02*
X50083333Y-94597676D01*
X50083333Y-94597676D02*
X50178571Y-94502438D01*
X50178571Y-94502438D02*
X50321428Y-94454819D01*
X50321428Y-94454819D02*
X50416666Y-94454819D01*
X50416666Y-94454819D02*
X50559523Y-94502438D01*
X50559523Y-94502438D02*
X50607142Y-94550057D01*
X51559523Y-95454819D02*
X50988095Y-95454819D01*
X51273809Y-95454819D02*
X51273809Y-94454819D01*
X51273809Y-94454819D02*
X51178571Y-94597676D01*
X51178571Y-94597676D02*
X51083333Y-94692914D01*
X51083333Y-94692914D02*
X50988095Y-94740533D01*
X52416666Y-94454819D02*
X52226190Y-94454819D01*
X52226190Y-94454819D02*
X52130952Y-94502438D01*
X52130952Y-94502438D02*
X52083333Y-94550057D01*
X52083333Y-94550057D02*
X51988095Y-94692914D01*
X51988095Y-94692914D02*
X51940476Y-94883390D01*
X51940476Y-94883390D02*
X51940476Y-95264342D01*
X51940476Y-95264342D02*
X51988095Y-95359580D01*
X51988095Y-95359580D02*
X52035714Y-95407200D01*
X52035714Y-95407200D02*
X52130952Y-95454819D01*
X52130952Y-95454819D02*
X52321428Y-95454819D01*
X52321428Y-95454819D02*
X52416666Y-95407200D01*
X52416666Y-95407200D02*
X52464285Y-95359580D01*
X52464285Y-95359580D02*
X52511904Y-95264342D01*
X52511904Y-95264342D02*
X52511904Y-95026247D01*
X52511904Y-95026247D02*
X52464285Y-94931009D01*
X52464285Y-94931009D02*
X52416666Y-94883390D01*
X52416666Y-94883390D02*
X52321428Y-94835771D01*
X52321428Y-94835771D02*
X52130952Y-94835771D01*
X52130952Y-94835771D02*
X52035714Y-94883390D01*
X52035714Y-94883390D02*
X51988095Y-94931009D01*
X51988095Y-94931009D02*
X51940476Y-95026247D01*
X38161905Y-108454819D02*
X38161905Y-109264342D01*
X38161905Y-109264342D02*
X38209524Y-109359580D01*
X38209524Y-109359580D02*
X38257143Y-109407200D01*
X38257143Y-109407200D02*
X38352381Y-109454819D01*
X38352381Y-109454819D02*
X38542857Y-109454819D01*
X38542857Y-109454819D02*
X38638095Y-109407200D01*
X38638095Y-109407200D02*
X38685714Y-109359580D01*
X38685714Y-109359580D02*
X38733333Y-109264342D01*
X38733333Y-109264342D02*
X38733333Y-108454819D01*
X39733333Y-109454819D02*
X39161905Y-109454819D01*
X39447619Y-109454819D02*
X39447619Y-108454819D01*
X39447619Y-108454819D02*
X39352381Y-108597676D01*
X39352381Y-108597676D02*
X39257143Y-108692914D01*
X39257143Y-108692914D02*
X39161905Y-108740533D01*
X40685714Y-109454819D02*
X40114286Y-109454819D01*
X40400000Y-109454819D02*
X40400000Y-108454819D01*
X40400000Y-108454819D02*
X40304762Y-108597676D01*
X40304762Y-108597676D02*
X40209524Y-108692914D01*
X40209524Y-108692914D02*
X40114286Y-108740533D01*
%TO.C,U9*%
D12*
X44086000Y-98300000D02*
X44086000Y-101700000D01*
X49914000Y-101700000D02*
X49914000Y-98300000D01*
D13*
X44612190Y-102360540D02*
G75*
G02*
X44412190Y-102360540I-100000J0D01*
G01*
X44412190Y-102360540D02*
G75*
G02*
X44612190Y-102360540I100000J0D01*
G01*
%TO.C,U14*%
D14*
X53890000Y-144110000D02*
X53890000Y-141890000D01*
X56110000Y-142300748D02*
X56110000Y-144110000D01*
X56120000Y-142010000D02*
X56310000Y-141870000D01*
X56310000Y-142150000D01*
X56120000Y-142010000D01*
G36*
X56310000Y-142150000D02*
G01*
X56120000Y-142010000D01*
X56310000Y-141870000D01*
X56310000Y-142150000D01*
G37*
%TO.C,J1*%
D12*
X64850000Y-41790000D02*
X64850000Y-42020000D01*
X64850000Y-44890000D02*
X64850000Y-48210000D01*
X64850000Y-48210000D02*
X67200000Y-48210000D01*
X82800000Y-48210000D02*
X85150000Y-48210000D01*
X85150000Y-41790000D02*
X64850000Y-41790000D01*
X85150000Y-41790000D02*
X85150000Y-42020000D01*
X85150000Y-48210000D02*
X85150000Y-44890000D01*
D13*
X82369800Y-50295800D02*
G75*
G02*
X82169800Y-50295800I-100000J0D01*
G01*
X82169800Y-50295800D02*
G75*
G02*
X82369800Y-50295800I100000J0D01*
G01*
%TO.C,TP9*%
D14*
X78300000Y-51200000D02*
G75*
G02*
X76900000Y-51200000I-700000J0D01*
G01*
X76900000Y-51200000D02*
G75*
G02*
X78300000Y-51200000I700000J0D01*
G01*
%TO.C,U8*%
D12*
X92086000Y-84300000D02*
X92086000Y-87700000D01*
X97914000Y-87700000D02*
X97914000Y-84300000D01*
D13*
X92612190Y-88360540D02*
G75*
G02*
X92412190Y-88360540I-100000J0D01*
G01*
X92412190Y-88360540D02*
G75*
G02*
X92612190Y-88360540I100000J0D01*
G01*
%TO.C,C17*%
D14*
X84240000Y-142915835D02*
X84240000Y-142684165D01*
X84960000Y-142915835D02*
X84960000Y-142684165D01*
%TO.C,U7*%
X68350000Y-145600000D02*
X68350000Y-145100000D01*
X68650000Y-140400000D02*
X69400000Y-140400000D01*
X68850000Y-145600000D02*
X68350000Y-145600000D01*
X71150000Y-140400000D02*
X71650000Y-140400000D01*
X71650000Y-140400000D02*
X71650000Y-140900000D01*
X71650000Y-145100000D02*
X71650000Y-145600000D01*
X71650000Y-145600000D02*
X71150000Y-145600000D01*
X68450000Y-140400000D02*
X68090000Y-140400000D01*
X68450000Y-140040000D01*
X68450000Y-140400000D01*
G36*
X68450000Y-140400000D02*
G01*
X68090000Y-140400000D01*
X68450000Y-140040000D01*
X68450000Y-140400000D01*
G37*
%TO.C,U10*%
D12*
X77086000Y-142300000D02*
X77086000Y-145700000D01*
X82914000Y-145700000D02*
X82914000Y-142300000D01*
D13*
X77612190Y-146360540D02*
G75*
G02*
X77412190Y-146360540I-100000J0D01*
G01*
X77412190Y-146360540D02*
G75*
G02*
X77612190Y-146360540I100000J0D01*
G01*
%TO.C,U13*%
D14*
X107300748Y-107890000D02*
X109110000Y-107890000D01*
X109110000Y-110110000D02*
X106890000Y-110110000D01*
X107010000Y-107880000D02*
X106870000Y-107690000D01*
X107150000Y-107690000D01*
X107010000Y-107880000D01*
G36*
X107010000Y-107880000D02*
G01*
X106870000Y-107690000D01*
X107150000Y-107690000D01*
X107010000Y-107880000D01*
G37*
%TO.C,U2*%
D12*
X72086000Y-75300000D02*
X72086000Y-78700000D01*
X77914000Y-78700000D02*
X77914000Y-75300000D01*
D13*
X72612190Y-79360540D02*
G75*
G02*
X72412190Y-79360540I-100000J0D01*
G01*
X72412190Y-79360540D02*
G75*
G02*
X72612190Y-79360540I100000J0D01*
G01*
%TO.C,C13*%
D14*
X49284165Y-96240000D02*
X49515835Y-96240000D01*
X49284165Y-96960000D02*
X49515835Y-96960000D01*
%TO.C,TP10*%
X80700000Y-54200000D02*
G75*
G02*
X79300000Y-54200000I-700000J0D01*
G01*
X79300000Y-54200000D02*
G75*
G02*
X80700000Y-54200000I700000J0D01*
G01*
%TO.C,C11*%
X93515835Y-82040000D02*
X93284165Y-82040000D01*
X93515835Y-82760000D02*
X93284165Y-82760000D01*
%TO.C,U12*%
X95750000Y-142140000D02*
X94250000Y-142140000D01*
X95750000Y-143860000D02*
X94250000Y-143860000D01*
X96200000Y-143600000D02*
X96480000Y-143600000D01*
X96200000Y-143880000D01*
X96200000Y-143600000D01*
G36*
X96200000Y-143880000D02*
G01*
X96200000Y-143600000D01*
X96480000Y-143600000D01*
X96200000Y-143880000D01*
G37*
%TO.C,C19*%
X78240000Y-141015835D02*
X78240000Y-140784165D01*
X78960000Y-141015835D02*
X78960000Y-140784165D01*
%TO.C,U4*%
X59890000Y-78110000D02*
X59890000Y-75890000D01*
X62110000Y-76300748D02*
X62110000Y-78110000D01*
X62120000Y-76010000D02*
X62310000Y-75870000D01*
X62310000Y-76150000D01*
X62120000Y-76010000D01*
G36*
X62310000Y-76150000D02*
G01*
X62120000Y-76010000D01*
X62310000Y-75870000D01*
X62310000Y-76150000D01*
G37*
%TO.C,U6*%
X101350000Y-102600000D02*
X101350000Y-102100000D01*
X101650000Y-97400000D02*
X102400000Y-97400000D01*
X101850000Y-102600000D02*
X101350000Y-102600000D01*
X104150000Y-97400000D02*
X104650000Y-97400000D01*
X104650000Y-97400000D02*
X104650000Y-97900000D01*
X104650000Y-102100000D02*
X104650000Y-102600000D01*
X104650000Y-102600000D02*
X104150000Y-102600000D01*
X101450000Y-97400000D02*
X101090000Y-97400000D01*
X101450000Y-97040000D01*
X101450000Y-97400000D01*
G36*
X101450000Y-97400000D02*
G01*
X101090000Y-97400000D01*
X101450000Y-97040000D01*
X101450000Y-97400000D01*
G37*
%TO.C,U5*%
X53350000Y-88600000D02*
X53350000Y-88100000D01*
X53650000Y-83400000D02*
X54400000Y-83400000D01*
X53850000Y-88600000D02*
X53350000Y-88600000D01*
X56150000Y-83400000D02*
X56650000Y-83400000D01*
X56650000Y-83400000D02*
X56650000Y-83900000D01*
X56650000Y-88100000D02*
X56650000Y-88600000D01*
X56650000Y-88600000D02*
X56150000Y-88600000D01*
X53450000Y-83400000D02*
X53090000Y-83400000D01*
X53450000Y-83040000D01*
X53450000Y-83400000D01*
G36*
X53450000Y-83400000D02*
G01*
X53090000Y-83400000D01*
X53450000Y-83040000D01*
X53450000Y-83400000D01*
G37*
%TO.C,C8*%
X76884165Y-73240000D02*
X77115835Y-73240000D01*
X76884165Y-73960000D02*
X77115835Y-73960000D01*
%TO.C,U15*%
X72690000Y-52265000D02*
X77310000Y-52265000D01*
X77310000Y-57735000D02*
X72690000Y-57735000D01*
X71140000Y-52720000D02*
X70810000Y-52960000D01*
X70810000Y-52480000D01*
X71140000Y-52720000D01*
G36*
X71140000Y-52720000D02*
G01*
X70810000Y-52960000D01*
X70810000Y-52480000D01*
X71140000Y-52720000D01*
G37*
%TO.C,C9*%
X95884165Y-82040000D02*
X96115835Y-82040000D01*
X95884165Y-82760000D02*
X96115835Y-82760000D01*
%TO.C,C6*%
X74515835Y-73240000D02*
X74284165Y-73240000D01*
X74515835Y-73960000D02*
X74284165Y-73960000D01*
%TO.C,U3*%
X88250000Y-76140000D02*
X89750000Y-76140000D01*
X88250000Y-77860000D02*
X89750000Y-77860000D01*
X87800000Y-76400000D02*
X87520000Y-76400000D01*
X87800000Y-76120000D01*
X87800000Y-76400000D01*
G36*
X87800000Y-76400000D02*
G01*
X87520000Y-76400000D01*
X87800000Y-76120000D01*
X87800000Y-76400000D01*
G37*
%TO.C,C15*%
X46884165Y-96240000D02*
X47115835Y-96240000D01*
X46884165Y-96960000D02*
X47115835Y-96960000D01*
%TO.C,U1*%
X73350000Y-64400000D02*
X73850000Y-64400000D01*
X73350000Y-64900000D02*
X73350000Y-64400000D01*
X73350000Y-69600000D02*
X73350000Y-69100000D01*
X73850000Y-69600000D02*
X73350000Y-69600000D01*
X76150000Y-64400000D02*
X76650000Y-64400000D01*
X76350000Y-69600000D02*
X75600000Y-69600000D01*
X76650000Y-64400000D02*
X76650000Y-64900000D01*
X76550000Y-69600000D02*
X76910000Y-69600000D01*
X76550000Y-69960000D01*
X76550000Y-69600000D01*
G36*
X76550000Y-69960000D02*
G01*
X76550000Y-69600000D01*
X76910000Y-69600000D01*
X76550000Y-69960000D01*
G37*
%TO.C,U11*%
X41140000Y-108250000D02*
X41140000Y-109750000D01*
X42860000Y-108250000D02*
X42860000Y-109750000D01*
X42600000Y-107800000D02*
X42600000Y-107520000D01*
X42880000Y-107800000D01*
X42600000Y-107800000D01*
G36*
X42880000Y-107800000D02*
G01*
X42600000Y-107800000D01*
X42600000Y-107520000D01*
X42880000Y-107800000D01*
G37*
%TD*%
M02*
