%TF.GenerationSoftware,KiCad,Pcbnew,10.0.4-10.0.4~ubuntu24.04.1*%
%TF.CreationDate,2026-07-14T17:14:10-04:00*%
%TF.ProjectId,kmm-pmask-mask,6b6d6d2d-706d-4617-936b-2d6d61736b2e,2.0*%
%TF.SameCoordinates,Original*%
%TF.FileFunction,Profile,NP*%
%FSLAX46Y46*%
G04 Gerber Fmt 4.6, Leading zero omitted, Abs format (unit mm)*
G04 Created by KiCad (PCBNEW 10.0.4-10.0.4~ubuntu24.04.1) date 2026-07-14 17:14:10*
%MOMM*%
%LPD*%
G01*
G04 APERTURE LIST*
%TA.AperFunction,Profile*%
%ADD10C,0.050000*%
%TD*%
%ADD11C,0.050000*%
G04 APERTURE END LIST*
D10*
X29800365Y-124337867D02*
X29804057Y-123683689D01*
X29804057Y-123683689D02*
X29831705Y-123028867D01*
X29818201Y-124990942D02*
X29800365Y-124337867D01*
X29831705Y-123028867D02*
X29884082Y-122373860D01*
X29857157Y-125642454D02*
X29818201Y-124990942D01*
X29884082Y-122373860D02*
X29961314Y-121719129D01*
X29917024Y-126291944D02*
X29857157Y-125642454D01*
X29961314Y-121719129D02*
X30063497Y-121065128D01*
X29997592Y-126938951D02*
X29917024Y-126291944D01*
X30063497Y-121065128D02*
X30190189Y-120412143D01*
X30098652Y-127583017D02*
X29997592Y-126938951D01*
X30190189Y-120412143D02*
X30340308Y-119760256D01*
X30219993Y-128223682D02*
X30098652Y-127583017D01*
X30340308Y-119760256D02*
X30512730Y-119109539D01*
X30361407Y-128860485D02*
X30219993Y-128223682D01*
X30512730Y-119109539D02*
X30706323Y-118460059D01*
X30522682Y-129492969D02*
X30361407Y-128860485D01*
X30703610Y-130120673D02*
X30522682Y-129492969D01*
X30706323Y-118460059D02*
X30919954Y-117811888D01*
X30903981Y-130743138D02*
X30703610Y-130120673D01*
X30919954Y-117811888D02*
X31152485Y-117165095D01*
X31123584Y-131359903D02*
X30903981Y-130743138D01*
X31152485Y-117165095D02*
X31402778Y-116519751D01*
X31362211Y-131970510D02*
X31123584Y-131359903D01*
X31402778Y-116519751D02*
X31669692Y-115875924D01*
X31619651Y-132574499D02*
X31362211Y-131970510D01*
X31669692Y-115875924D02*
X31952087Y-115233686D01*
X31895694Y-133171411D02*
X31619651Y-132574499D01*
X31952087Y-115233686D02*
X32248825Y-114593105D01*
X32190132Y-133760785D02*
X31895694Y-133171411D01*
X32248825Y-114593105D02*
X32558765Y-113954253D01*
X32502754Y-134342163D02*
X32190132Y-133760785D01*
X32558765Y-113954253D02*
X32880774Y-113317198D01*
X32833350Y-134915085D02*
X32502754Y-134342163D01*
X32880774Y-113317198D02*
X33213716Y-112682010D01*
X33181710Y-135479090D02*
X32833350Y-134915085D01*
X33213716Y-112682010D02*
X33556462Y-112048760D01*
X33547626Y-136033721D02*
X33181710Y-135479090D01*
X33556462Y-112048760D02*
X33907886Y-111417518D01*
X33907886Y-111417518D02*
X34266867Y-110788353D01*
X33930886Y-136578516D02*
X33547626Y-136033721D01*
X34266867Y-110788353D02*
X34632289Y-110161335D01*
X34331282Y-137113017D02*
X33930886Y-136578516D01*
X34632289Y-110161335D02*
X35003040Y-109536535D01*
X34748604Y-137636765D02*
X34331282Y-137113017D01*
X35003040Y-109536535D02*
X35378017Y-108914021D01*
X35182642Y-138149298D02*
X34748604Y-137636765D01*
X35378017Y-108914021D02*
X35756121Y-108293865D01*
X35633185Y-138650159D02*
X35182642Y-138149298D01*
X35756121Y-108293865D02*
X36136261Y-107676135D01*
X36100025Y-139138887D02*
X35633185Y-138650159D01*
X36136261Y-107676135D02*
X36517353Y-107060902D01*
X36517353Y-107060902D02*
X36898321Y-106448236D01*
X36582952Y-139615022D02*
X36100025Y-139138887D01*
X36898321Y-106448236D02*
X37278096Y-105838207D01*
X37081755Y-140078106D02*
X36582952Y-139615022D01*
X37278096Y-105838207D02*
X37655782Y-105230858D01*
X37596225Y-140527679D02*
X37081755Y-140078106D01*
X37655782Y-105230858D02*
X38031230Y-104626112D01*
X38031230Y-104626112D02*
X38404497Y-104023863D01*
X38126153Y-140963281D02*
X37596225Y-140527679D01*
X38404497Y-104023863D02*
X38775645Y-103424000D01*
X38671328Y-141384452D02*
X38126153Y-140963281D01*
X38775645Y-103424000D02*
X39144738Y-102826415D01*
X39144738Y-102826415D02*
X39511841Y-102231000D01*
X39231542Y-141790734D02*
X38671328Y-141384452D01*
X39511841Y-102231000D02*
X39877024Y-101637646D01*
X39801831Y-124106428D02*
X39820558Y-123567452D01*
X39806583Y-142181666D02*
X39231542Y-141790734D01*
X39815412Y-124645603D02*
X39801831Y-124106428D01*
X39820558Y-123567452D02*
X39877641Y-123031169D01*
X39857232Y-125183369D02*
X39815412Y-124645603D01*
X39877024Y-101637646D02*
X40240356Y-101046244D01*
X39877641Y-123031169D02*
X39971575Y-122500042D01*
X39928372Y-125718030D02*
X39857232Y-125183369D01*
X39971575Y-122500042D02*
X40098354Y-121975774D01*
X40025011Y-126248674D02*
X39928372Y-125718030D01*
X40098354Y-121975774D02*
X40247668Y-121457447D01*
X40149243Y-126773567D02*
X40025011Y-126248674D01*
X40240356Y-101046244D02*
X40601912Y-100456685D01*
X40247668Y-121457447D02*
X40419742Y-120946207D01*
X40298361Y-127291910D02*
X40149243Y-126773567D01*
X40396242Y-142556789D02*
X39806583Y-142181666D01*
X40419742Y-120946207D02*
X40607857Y-120440654D01*
X40471958Y-127802608D02*
X40298361Y-127291910D01*
X40601912Y-100456685D02*
X40961763Y-99868861D01*
X40607857Y-120440654D02*
X40809924Y-119940506D01*
X40670035Y-128304296D02*
X40471958Y-127802608D01*
X40809924Y-119940506D02*
X41024170Y-119445442D01*
X40890157Y-128796736D02*
X40670035Y-128304296D01*
X40961763Y-99868861D02*
X41319988Y-99282663D01*
X41000310Y-142915643D02*
X40396242Y-142556789D01*
X41024170Y-119445442D02*
X41249027Y-118955097D01*
X41133697Y-129278008D02*
X40890157Y-128796736D01*
X41249027Y-118955097D02*
X41483115Y-118469087D01*
X41319988Y-99282663D02*
X41676662Y-98697982D01*
X41397483Y-129748507D02*
X41133697Y-129278008D01*
X41483115Y-118469087D02*
X41725228Y-117987022D01*
X41618577Y-143257769D02*
X41000310Y-142915643D01*
X41676662Y-98697982D02*
X42031865Y-98114709D01*
X41683105Y-130206063D02*
X41397483Y-129748507D01*
X41725228Y-117987022D02*
X41974307Y-117508519D01*
X41974307Y-117508519D02*
X42229431Y-117033211D01*
X41987702Y-130651229D02*
X41683105Y-130206063D01*
X42031865Y-98114709D02*
X42385676Y-97532737D01*
X42229431Y-117033211D02*
X42489794Y-116560752D01*
X42250817Y-143582742D02*
X41618577Y-143257769D01*
X42312149Y-131082124D02*
X41987702Y-130651229D01*
X42385676Y-97532737D02*
X42738177Y-96951956D01*
X42489794Y-116560752D02*
X42754694Y-116090820D01*
X42654690Y-131498796D02*
X42312149Y-131082124D01*
X42738177Y-96951956D02*
X43089448Y-96372257D01*
X42754694Y-116090820D02*
X43023515Y-115623118D01*
X42896529Y-143890721D02*
X42250817Y-143582742D01*
X43014782Y-131900382D02*
X42654690Y-131498796D01*
X43023515Y-115623118D02*
X43295723Y-115157375D01*
X43089448Y-96372257D02*
X43439574Y-95793531D01*
X43295723Y-115157375D02*
X43571014Y-114693446D01*
X43392344Y-132285607D02*
X43014782Y-131900382D01*
X43439574Y-95793531D02*
X43788638Y-95215671D01*
X43554978Y-144182365D02*
X42896529Y-143890721D01*
X43571014Y-114693446D02*
X43849198Y-114231245D01*
X43784904Y-132655541D02*
X43392344Y-132285607D01*
X43788638Y-95215671D02*
X44136723Y-94638568D01*
X43849198Y-114231245D02*
X44129302Y-113770208D01*
X44129302Y-113770208D02*
X44410985Y-113310132D01*
X44136723Y-94638568D02*
X44483915Y-94062111D01*
X44194442Y-133006592D02*
X43784904Y-132655541D01*
X44225422Y-144458347D02*
X43554978Y-144182365D01*
X44410985Y-113310132D02*
X44693944Y-112850840D01*
X44483915Y-94062111D02*
X44830299Y-93486194D01*
X44617322Y-133341443D02*
X44194442Y-133006592D01*
X44693944Y-112850840D02*
X44978016Y-112392235D01*
X44830299Y-93486194D02*
X45175961Y-92910707D01*
X44907118Y-144719340D02*
X44225422Y-144458347D01*
X44978016Y-112392235D02*
X45262780Y-111934059D01*
X45054520Y-133657353D02*
X44617322Y-133341443D01*
X45175961Y-92910707D02*
X45520987Y-92335542D01*
X45262780Y-111934059D02*
X45547779Y-111476029D01*
X45504655Y-133954552D02*
X45054520Y-133657353D01*
X45520987Y-92335542D02*
X45865464Y-91760589D01*
X45547779Y-111476029D02*
X45832833Y-111018033D01*
X45599325Y-144966017D02*
X44907118Y-144719340D01*
X45832833Y-111018033D02*
X46117711Y-110559928D01*
X45865464Y-91760589D02*
X46209477Y-91185741D01*
X45965977Y-134234092D02*
X45504655Y-133954552D01*
X46117711Y-110559928D02*
X46402288Y-110101635D01*
X46209477Y-91185741D02*
X46553115Y-90610888D01*
X46301300Y-145199053D02*
X45599325Y-144966017D01*
X46402288Y-110101635D02*
X46686634Y-109643200D01*
X46439647Y-134492152D02*
X45965977Y-134234092D01*
X46553115Y-90610888D02*
X46896464Y-90035921D01*
X46686634Y-109643200D02*
X46970745Y-109184619D01*
X46896464Y-90035921D02*
X47239610Y-89460733D01*
X46922841Y-134731892D02*
X46439647Y-134492152D01*
X46970745Y-109184619D02*
X47254585Y-108725870D01*
X47012301Y-145419119D02*
X46301300Y-145199053D01*
X47239610Y-89460733D02*
X47582684Y-88885225D01*
X47254585Y-108725870D02*
X47538098Y-108266919D01*
X47414107Y-134954656D02*
X46922841Y-134731892D01*
X47538098Y-108266919D02*
X47821364Y-107807815D01*
X47582684Y-88885225D02*
X47925926Y-88309331D01*
X47731586Y-145626890D02*
X47012301Y-145419119D01*
X47821364Y-107807815D02*
X48104379Y-107348557D01*
X47912162Y-135161857D02*
X47414107Y-134954656D01*
X47925926Y-88309331D02*
X48269596Y-87732988D01*
X48104379Y-107348557D02*
X48387134Y-106889138D01*
X48269596Y-87732988D02*
X48613954Y-87156136D01*
X48387134Y-106889138D02*
X48669531Y-106429499D01*
X48416277Y-135353874D02*
X47912162Y-135161857D01*
X48458413Y-145823039D02*
X47731586Y-145626890D01*
X48613954Y-87156136D02*
X48959259Y-86578712D01*
X48669531Y-106429499D02*
X48951672Y-105969703D01*
X48924967Y-135533409D02*
X48416277Y-135353874D01*
X48951672Y-105969703D02*
X49233557Y-105509751D01*
X48959259Y-86578712D02*
X49305767Y-86000655D01*
X49192039Y-146008239D02*
X48458413Y-145823039D01*
X49233557Y-105509751D02*
X49515185Y-105049640D01*
X49305767Y-86000655D02*
X49653735Y-85421903D01*
X49437487Y-135701705D02*
X48924967Y-135533409D01*
X49515185Y-105049640D02*
X49796483Y-104589328D01*
X49653735Y-85421903D02*
X50003420Y-84842394D01*
X49796483Y-104589328D02*
X50077496Y-104128842D01*
X49931723Y-146183163D02*
X49192039Y-146008239D01*
X49953248Y-135859798D02*
X49437487Y-135701705D01*
X50003420Y-84842394D02*
X50355075Y-84262067D01*
X50077496Y-104128842D02*
X50358255Y-103668201D01*
X50355075Y-84262067D02*
X50708956Y-83680859D01*
X50358255Y-103668201D02*
X50638762Y-103207406D01*
X50471762Y-136008632D02*
X49953248Y-135859798D01*
X50638762Y-103207406D02*
X50919003Y-102746450D01*
X50676722Y-146348485D02*
X49931723Y-146183163D01*
X50708956Y-83680859D02*
X51065316Y-83098710D01*
X50919003Y-102746450D02*
X51198919Y-102285296D01*
X50992620Y-136149066D02*
X50471762Y-136008632D01*
X51065316Y-83098710D02*
X51424408Y-82515558D01*
X51198919Y-102285296D02*
X51478592Y-101823995D01*
X51424408Y-82515558D02*
X51786483Y-81931340D01*
X51426294Y-146504878D02*
X50676722Y-146348485D01*
X51478592Y-101823995D02*
X51758026Y-101362549D01*
X51515669Y-136281106D02*
X50992620Y-136149066D01*
X51758026Y-101362549D02*
X52037223Y-100900960D01*
X51786483Y-81931340D02*
X52151795Y-81345995D01*
X52037223Y-100900960D02*
X52316152Y-100439208D01*
X52040460Y-136406026D02*
X51515669Y-136281106D01*
X52151795Y-81345995D02*
X52520594Y-80759461D01*
X52179696Y-146653015D02*
X51426294Y-146504878D01*
X52316152Y-100439208D02*
X52594810Y-99977293D01*
X52520594Y-80759461D02*
X52893132Y-80171678D01*
X52566709Y-136524631D02*
X52040460Y-136406026D01*
X52594810Y-99977293D02*
X52873249Y-99515246D01*
X52873249Y-99515246D02*
X53151472Y-99053069D01*
X52893132Y-80171678D02*
X53269659Y-79582582D01*
X52936188Y-146793570D02*
X52179696Y-146653015D01*
X53094210Y-136637536D02*
X52566709Y-136524631D01*
X53151472Y-99053069D02*
X53429486Y-98590766D01*
X53269659Y-79582582D02*
X53650426Y-78992112D01*
X53429486Y-98590766D02*
X53707255Y-98128315D01*
X53622789Y-136745290D02*
X53094210Y-136637536D01*
X53650426Y-78992112D02*
X54035685Y-78400207D01*
X53695025Y-146927215D02*
X52936188Y-146793570D01*
X53707255Y-98128315D02*
X53984800Y-97665731D01*
X53984800Y-97665731D02*
X54262158Y-97203034D01*
X54035685Y-78400207D02*
X54425686Y-77806805D01*
X54152301Y-136848381D02*
X53622789Y-136745290D01*
X54262158Y-97203034D02*
X54539333Y-96740228D01*
X54425686Y-77806805D02*
X54820681Y-77211844D01*
X54455467Y-147054625D02*
X53695025Y-146927215D01*
X54539333Y-96740228D02*
X54816332Y-96277316D01*
X54682683Y-136946925D02*
X54152301Y-136848381D01*
X54816332Y-96277316D02*
X55093127Y-95814282D01*
X54820681Y-77211844D02*
X55220921Y-76615262D01*
X55093127Y-95814282D02*
X55369743Y-95351141D01*
X55213907Y-137040814D02*
X54682683Y-136946925D01*
X55216771Y-147176473D02*
X54455467Y-147054625D01*
X55220921Y-76615262D02*
X55626660Y-76016998D01*
X55369743Y-95351141D02*
X55646209Y-94887911D01*
X55626660Y-76016998D02*
X56038150Y-75416990D01*
X55646209Y-94887911D02*
X55922539Y-94424600D01*
X55745700Y-137131411D02*
X55213907Y-137040814D01*
X55922539Y-94424600D02*
X56198763Y-93961225D01*
X55978195Y-147293431D02*
X55216771Y-147176473D01*
X56038150Y-75416990D02*
X56455646Y-74815177D01*
X56198763Y-93961225D02*
X56474954Y-93497830D01*
X56277989Y-137219050D02*
X55745700Y-137131411D01*
X56455646Y-74815177D02*
X56879404Y-74211496D01*
X56474954Y-93497830D02*
X56751226Y-93034484D01*
X56738997Y-147406174D02*
X55978195Y-147293431D01*
X56751226Y-93034484D02*
X57027652Y-92571230D01*
X56810712Y-137304025D02*
X56277989Y-137219050D01*
X56879404Y-74211496D02*
X57309681Y-73605886D01*
X57027652Y-92571230D02*
X57304302Y-92108110D01*
X57304302Y-92108110D02*
X57581247Y-91645166D01*
X57309681Y-73605886D02*
X57746703Y-72998357D01*
X57343918Y-137385928D02*
X56810712Y-137304025D01*
X57498435Y-147515373D02*
X56738997Y-147406174D01*
X57581247Y-91645166D02*
X57858605Y-91182468D01*
X57746703Y-72998357D02*
X58190376Y-72389644D01*
X57858605Y-91182468D02*
X58136529Y-90720112D01*
X57877448Y-137465676D02*
X57343918Y-137385928D01*
X58136529Y-90720112D02*
X58415016Y-90258094D01*
X58190376Y-72389644D02*
X58640435Y-71780897D01*
X58255990Y-147621495D02*
X57498435Y-147515373D01*
X58411222Y-137543774D02*
X57877448Y-137465676D01*
X58415016Y-90258094D02*
X58694135Y-89796457D01*
X58640435Y-71780897D02*
X59096620Y-71173272D01*
X58694135Y-89796457D02*
X58973956Y-89335246D01*
X58945211Y-137620402D02*
X58411222Y-137543774D01*
X58973956Y-89335246D02*
X59254546Y-88874502D01*
X59011662Y-147724524D02*
X58255990Y-147621495D01*
X59096620Y-71173272D02*
X59558690Y-70567923D01*
X59254546Y-88874502D02*
X59536193Y-88414403D01*
X59479453Y-137695242D02*
X58945211Y-137620402D01*
X59536193Y-88414403D02*
X59818832Y-87954914D01*
X59558690Y-70567923D02*
X60000000Y-70000000D01*
X59765527Y-147824374D02*
X59011662Y-147724524D01*
X59818832Y-87954914D02*
X60102486Y-87496051D01*
X60000000Y-70000000D02*
X63342606Y-65821742D01*
X60013893Y-137768653D02*
X59479453Y-137695242D01*
X60102486Y-87496051D02*
X60387216Y-87037854D01*
X60387216Y-87037854D02*
X60673082Y-86580365D01*
X60517661Y-147920959D02*
X59765527Y-147824374D01*
X60548512Y-137840747D02*
X60013893Y-137768653D01*
X60673082Y-86580365D02*
X60960234Y-86123682D01*
X60960234Y-86123682D02*
X61248931Y-85667974D01*
X61083313Y-137911483D02*
X60548512Y-137840747D01*
X61248931Y-85667974D02*
X61538974Y-85213122D01*
X61268138Y-148014192D02*
X60517661Y-147920959D01*
X61538974Y-85213122D02*
X61830413Y-84759164D01*
X61618378Y-137980193D02*
X61083313Y-137911483D01*
X61830413Y-84759164D02*
X62123294Y-84306135D01*
X62017033Y-148103989D02*
X61268138Y-148014192D01*
X62123294Y-84306135D02*
X62417660Y-83854069D01*
X62153642Y-138047328D02*
X61618378Y-137980193D01*
X62417660Y-83854069D02*
X62713946Y-83403258D01*
X62689094Y-138112943D02*
X62153642Y-138047328D01*
X62713946Y-83403258D02*
X63011930Y-82953568D01*
X62764424Y-148190262D02*
X62017033Y-148103989D01*
X63011930Y-82953568D02*
X63311556Y-82504972D01*
X63224737Y-138176994D02*
X62689094Y-138112943D01*
X63311556Y-82504972D02*
X63612856Y-82057499D01*
X63510383Y-148272927D02*
X62764424Y-148190262D01*
X63612856Y-82057499D02*
X63915857Y-81611174D01*
X63760637Y-138238855D02*
X63224737Y-138176994D01*
X63915857Y-81611174D02*
X64220964Y-81166286D01*
X64000000Y-43000000D02*
G75*
G02*
X67000000Y-40000000I3000000J0D01*
G01*
X64000000Y-63947657D02*
G75*
G02*
X63342593Y-65821732I-2999800J-43D01*
G01*
X64000000Y-63947657D02*
X64000000Y-43000000D01*
X64220964Y-81166286D02*
X64528073Y-80722779D01*
X64254988Y-148351897D02*
X63510383Y-148272927D01*
X64296748Y-138298855D02*
X63760637Y-138238855D01*
X64528073Y-80722779D02*
X64836991Y-80280531D01*
X64833049Y-138357122D02*
X64296748Y-138298855D01*
X64836991Y-80280531D02*
X65147732Y-79839562D01*
X64998313Y-148427087D02*
X64254988Y-148351897D01*
X65147732Y-79839562D02*
X65460306Y-79399888D01*
X65369542Y-138413608D02*
X64833049Y-138357122D01*
X65460306Y-79399888D02*
X65775325Y-78961962D01*
X65740433Y-148498410D02*
X64998313Y-148427087D01*
X65775325Y-78961962D02*
X66092459Y-78525569D01*
X65906262Y-138467899D02*
X65369542Y-138413608D01*
X66092459Y-78525569D02*
X66411683Y-78090703D01*
X66411683Y-78090703D02*
X66733109Y-77657460D01*
X66443210Y-138519875D02*
X65906262Y-138467899D01*
X66481425Y-148565780D02*
X65740433Y-148498410D01*
X66733109Y-77657460D02*
X67056996Y-77226052D01*
X66980343Y-138569895D02*
X66443210Y-138519875D01*
X67000000Y-40000000D02*
X83000000Y-40000000D01*
X67056996Y-77226052D02*
X67384178Y-76797139D01*
X67221363Y-148629112D02*
X66481425Y-148565780D01*
X67384178Y-76797139D02*
X67714087Y-76370323D01*
X67517659Y-138617910D02*
X66980343Y-138569895D01*
X67714087Y-76370323D02*
X68046898Y-75945769D01*
X67960322Y-148688320D02*
X67221363Y-148629112D01*
X68046898Y-75945769D02*
X68382811Y-75523664D01*
X68055156Y-138663871D02*
X67517659Y-138617910D01*
X68382811Y-75523664D02*
X68722054Y-75104224D01*
X68592892Y-138706956D02*
X68055156Y-138663871D01*
X68698378Y-148743317D02*
X67960322Y-148688320D01*
X68722054Y-75104224D02*
X69065808Y-74688472D01*
X69065808Y-74688472D02*
X69413502Y-74276018D01*
X69130800Y-138747815D02*
X68592892Y-138706956D01*
X69413502Y-74276018D02*
X69765418Y-73867166D01*
X69435607Y-148794019D02*
X68698378Y-148743317D01*
X69668872Y-138786441D02*
X69130800Y-138747815D01*
D11*
X69765418Y-73867166D02*
X69767918Y-73864342D01*
X69770399Y-73861569D01*
X69772849Y-73858862D01*
X69775281Y-73856204D01*
X69777681Y-73853610D01*
X69780064Y-73851064D01*
X69782415Y-73848581D01*
X69784750Y-73846145D01*
X69787054Y-73843770D01*
X69789341Y-73841440D01*
X69791598Y-73839170D01*
X69793838Y-73836945D01*
X69796049Y-73834777D01*
X69798244Y-73832653D01*
X69800409Y-73830586D01*
X69802559Y-73828560D01*
X69804680Y-73826590D01*
X69806786Y-73824661D01*
X69808863Y-73822785D01*
X69810925Y-73820949D01*
X69812959Y-73819165D01*
X69814979Y-73817420D01*
X69816971Y-73815726D01*
X69818949Y-73814069D01*
X69820900Y-73812462D01*
X69822837Y-73810892D01*
X69824747Y-73809368D01*
X69826644Y-73807882D01*
X69828515Y-73806441D01*
X69830373Y-73805036D01*
X69832205Y-73803674D01*
X69834024Y-73802348D01*
X69835818Y-73801064D01*
X69837599Y-73799814D01*
X69839356Y-73798606D01*
X69841100Y-73797430D01*
X69842820Y-73796295D01*
X69844529Y-73795191D01*
X69846214Y-73794126D01*
X69847886Y-73793093D01*
X69849537Y-73792097D01*
X69851175Y-73791132D01*
X69852791Y-73790202D01*
X69854396Y-73789302D01*
X69855979Y-73788438D01*
X69857551Y-73787602D01*
X69859102Y-73786800D01*
X69860642Y-73786026D01*
X69862162Y-73785284D01*
X69863671Y-73784571D01*
X69865160Y-73783888D01*
X69866638Y-73783232D01*
X69868098Y-73782607D01*
X69869547Y-73782008D01*
X69870977Y-73781438D01*
X69872397Y-73780893D01*
X69873800Y-73780377D01*
X69875193Y-73779886D01*
X69876568Y-73779422D01*
X69877933Y-73778982D01*
X69879283Y-73778568D01*
X69880622Y-73778179D01*
X69881946Y-73777814D01*
X69883260Y-73777474D01*
X69884559Y-73777157D01*
X69885849Y-73776863D01*
X69887125Y-73776593D01*
X69888391Y-73776346D01*
X69889644Y-73776121D01*
X69890887Y-73775918D01*
X69892118Y-73775738D01*
X69893339Y-73775579D01*
X69894549Y-73775442D01*
X69895750Y-73775325D01*
X69896939Y-73775230D01*
X69898120Y-73775156D01*
X69899290Y-73775102D01*
X69900451Y-73775069D01*
X69901603Y-73775055D01*
X69902746Y-73775062D01*
X69903880Y-73775089D01*
X69905005Y-73775135D01*
X69906122Y-73775201D01*
X69907231Y-73775287D01*
X69908332Y-73775392D01*
X69909424Y-73775516D01*
X69910510Y-73775659D01*
X69911587Y-73775821D01*
X69913722Y-73776203D01*
X69915829Y-73776661D01*
X69917910Y-73777194D01*
X69919966Y-73777803D01*
X69921999Y-73778489D01*
X69924011Y-73779251D01*
X69926002Y-73780090D01*
X69927973Y-73781007D01*
X69929925Y-73782004D01*
X69931861Y-73783081D01*
X69933779Y-73784240D01*
X69935682Y-73785483D01*
X69937570Y-73786811D01*
X69939443Y-73788226D01*
X69941302Y-73789730D01*
X69943147Y-73791326D01*
X69944980Y-73793016D01*
X69946799Y-73794803D01*
X69948605Y-73796688D01*
X69950398Y-73798675D01*
X69952179Y-73800767D01*
X69953946Y-73802966D01*
X69955700Y-73805276D01*
X69957440Y-73807700D01*
X69959166Y-73810240D01*
X69960877Y-73812901D01*
X69962573Y-73815684D01*
X69964253Y-73818595D01*
X69965915Y-73821635D01*
X69967560Y-73824809D01*
X69969187Y-73828119D01*
X69970793Y-73831569D01*
X69972378Y-73835162D01*
X69973941Y-73838902D01*
X69975481Y-73842791D01*
X69976996Y-73846833D01*
X69978484Y-73851031D01*
X69979944Y-73855386D01*
X69981375Y-73859903D01*
X69982774Y-73864583D01*
X69984141Y-73869427D01*
X69985472Y-73874439D01*
X69986766Y-73879619D01*
X69988021Y-73884967D01*
X69989235Y-73890484D01*
X69990406Y-73896169D01*
X69991531Y-73902021D01*
X69992607Y-73908036D01*
X69993633Y-73914211D01*
X69994605Y-73920540D01*
X69995521Y-73927014D01*
X69996379Y-73933623D01*
X69997174Y-73940352D01*
X69997903Y-73947183D01*
X69998565Y-73954089D01*
X69999154Y-73961037D01*
X69999668Y-73967979D01*
X70000103Y-73974850D01*
X70000455Y-73981550D01*
X70000721Y-73987926D01*
X70000897Y-73993709D01*
X70000983Y-73998322D01*
X70000996Y-74000000D01*
D10*
X70000996Y-74000000D02*
X70000996Y-79278132D01*
X70000996Y-79278132D02*
X70001743Y-79325468D01*
X70001743Y-79325468D02*
X70003984Y-79372758D01*
X70003984Y-79372758D02*
X70007716Y-79419953D01*
X70007716Y-79419953D02*
X70012935Y-79467007D01*
X70012935Y-79467007D02*
X70019637Y-79513873D01*
X70019637Y-79513873D02*
X70027814Y-79560504D01*
X70027814Y-79560504D02*
X70037459Y-79606854D01*
X70037459Y-79606854D02*
X70048561Y-79652876D01*
X70048561Y-79652876D02*
X70061111Y-79698525D01*
X70061111Y-79698525D02*
X70075095Y-79743756D01*
X70075095Y-79743756D02*
X70090499Y-79788522D01*
X70090499Y-79788522D02*
X70107308Y-79832780D01*
X70107308Y-79832780D02*
X70125506Y-79876486D01*
X70125506Y-79876486D02*
X70145074Y-79919595D01*
X70145074Y-79919595D02*
X70165992Y-79962066D01*
X70165992Y-79962066D02*
X70188241Y-80003855D01*
X70172083Y-148840339D02*
X69435607Y-148794019D01*
X70188241Y-80003855D02*
X70211797Y-80044921D01*
X70207103Y-138822783D02*
X69668872Y-138786441D01*
X70211797Y-80044921D02*
X70236637Y-80085223D01*
X70236637Y-80085223D02*
X70262737Y-80124722D01*
X70262737Y-80124722D02*
X70290070Y-80163377D01*
X70290070Y-80163377D02*
X70318610Y-80201150D01*
X70318610Y-80201150D02*
X70348327Y-80238004D01*
X70348327Y-80238004D02*
X70379193Y-80273902D01*
X70379193Y-80273902D02*
X70411176Y-80308807D01*
X70411176Y-80308807D02*
X70444245Y-80342686D01*
X70444245Y-80342686D02*
X70478366Y-80375505D01*
X70478366Y-80375505D02*
X70513506Y-80407230D01*
X70513506Y-80407230D02*
X70549630Y-80437831D01*
X70549630Y-80437831D02*
X70586701Y-80467276D01*
X70586701Y-80467276D02*
X70624683Y-80495537D01*
X70624683Y-80495537D02*
X70663538Y-80522585D01*
X70663538Y-80522585D02*
X70703228Y-80548394D01*
X70703228Y-80548394D02*
X70743712Y-80572937D01*
X70743712Y-80572937D02*
X70784950Y-80596190D01*
X70745498Y-138856644D02*
X70207103Y-138822783D01*
X70784950Y-80596190D02*
X70826902Y-80618131D01*
X70826902Y-80618131D02*
X70869525Y-80638736D01*
X70869525Y-80638736D02*
X70912777Y-80657986D01*
X70907883Y-148882190D02*
X70172083Y-148840339D01*
X70912777Y-80657986D02*
X70956616Y-80675862D01*
X70956616Y-80675862D02*
X71000996Y-80692345D01*
X71000996Y-80692345D02*
X71129410Y-80736930D01*
X71129410Y-80736930D02*
X71258322Y-80780057D01*
X71258322Y-80780057D02*
X71387713Y-80821721D01*
X71284078Y-138887425D02*
X70745498Y-138856644D01*
X71387713Y-80821721D02*
X71517568Y-80861917D01*
X71517568Y-80861917D02*
X71647870Y-80900640D01*
X71643081Y-148919488D02*
X70907883Y-148882190D01*
X71647870Y-80900640D02*
X71778603Y-80937883D01*
X71778603Y-80937883D02*
X71909749Y-80973644D01*
X71822791Y-138915745D02*
X71284078Y-138887425D01*
X71909749Y-80973644D02*
X72041291Y-81007917D01*
X72041291Y-81007917D02*
X72173214Y-81040697D01*
X72173214Y-81040697D02*
X72305499Y-81071981D01*
X72305499Y-81071981D02*
X72438130Y-81101764D01*
X72361629Y-138941554D02*
X71822791Y-138915745D01*
X72377752Y-148952146D02*
X71643081Y-148919488D01*
X72438130Y-81101764D02*
X72571090Y-81130043D01*
X72571090Y-81130043D02*
X72704362Y-81156815D01*
X72704362Y-81156815D02*
X72837928Y-81182074D01*
X72837928Y-81182074D02*
X72971772Y-81205820D01*
X72900585Y-138964803D02*
X72361629Y-138941554D01*
X72971772Y-81205820D02*
X73105877Y-81228047D01*
X73105877Y-81228047D02*
X73240224Y-81248754D01*
X73111972Y-148980079D02*
X72377752Y-148952146D01*
X73240224Y-81248754D02*
X73374798Y-81267938D01*
X73374798Y-81267938D02*
X73509580Y-81285596D01*
X73439654Y-138985311D02*
X72900585Y-138964803D01*
X73509580Y-81285596D02*
X73644554Y-81301726D01*
X73644554Y-81301726D02*
X73779701Y-81316327D01*
X73779701Y-81316327D02*
X73915006Y-81329395D01*
X73845817Y-149003200D02*
X73111972Y-148980079D01*
X73915006Y-81329395D02*
X74050450Y-81340930D01*
X73978841Y-139002429D02*
X73439654Y-138985311D01*
X74050450Y-81340930D02*
X74186015Y-81350930D01*
X74186015Y-81350930D02*
X74321686Y-81359394D01*
X74321686Y-81359394D02*
X74457443Y-81366320D01*
X74457443Y-81366320D02*
X74593270Y-81371708D01*
X74518105Y-139016816D02*
X73978841Y-139002429D01*
X74579362Y-149021424D02*
X73845817Y-149003200D01*
X74593270Y-81371708D02*
X74729150Y-81375557D01*
X74729150Y-81375557D02*
X74865064Y-81377867D01*
X74865064Y-81377867D02*
X75000996Y-81378637D01*
X75000996Y-81378637D02*
X75136928Y-81377867D01*
D11*
X75000996Y-84000000D02*
X75000996Y-84000000D01*
D10*
X75057436Y-139028426D02*
X74518105Y-139016816D01*
X75136928Y-81377867D02*
X75272842Y-81375557D01*
X75272842Y-81375557D02*
X75408722Y-81371708D01*
X75312681Y-149034664D02*
X74579362Y-149021424D01*
X75408722Y-81371708D02*
X75544549Y-81366320D01*
X75544549Y-81366320D02*
X75680306Y-81359394D01*
X75596821Y-139037210D02*
X75057436Y-139028426D01*
X75680306Y-81359394D02*
X75815977Y-81350930D01*
X75815977Y-81350930D02*
X75951542Y-81340930D01*
X75951542Y-81340930D02*
X76086986Y-81329395D01*
X76045851Y-149042835D02*
X75312681Y-149034664D01*
X76086986Y-81329395D02*
X76222291Y-81316327D01*
X76136247Y-139043122D02*
X75596821Y-139037210D01*
X76222291Y-81316327D02*
X76357438Y-81301726D01*
X76357438Y-81301726D02*
X76492412Y-81285596D01*
X76492412Y-81285596D02*
X76627194Y-81267938D01*
X76627194Y-81267938D02*
X76761768Y-81248754D01*
X76675701Y-139045341D02*
X76136247Y-139043122D01*
X76761768Y-81248754D02*
X76896115Y-81228047D01*
X76778947Y-149045851D02*
X76045851Y-149042835D01*
X76896115Y-81228047D02*
X77030220Y-81205820D01*
X77030220Y-81205820D02*
X77164064Y-81182074D01*
X77164064Y-81182074D02*
X77297630Y-81156815D01*
X77215157Y-139044481D02*
X76675701Y-139045341D01*
X77297630Y-81156815D02*
X77430902Y-81130043D01*
X77430902Y-81130043D02*
X77563862Y-81101764D01*
X77512043Y-149043626D02*
X76778947Y-149045851D01*
X77563862Y-81101764D02*
X77696493Y-81071981D01*
X77696493Y-81071981D02*
X77828778Y-81040697D01*
X77754598Y-139040597D02*
X77215157Y-139044481D01*
X77828778Y-81040697D02*
X77960701Y-81007917D01*
X77960701Y-81007917D02*
X78092243Y-80973644D01*
X78092243Y-80973644D02*
X78223389Y-80937883D01*
X78223389Y-80937883D02*
X78354122Y-80900640D01*
X78245216Y-149036073D02*
X77512043Y-149043626D01*
X78294009Y-139033648D02*
X77754598Y-139040597D01*
X78354122Y-80900640D02*
X78484424Y-80861917D01*
X78484424Y-80861917D02*
X78614279Y-80821721D01*
X78614279Y-80821721D02*
X78743670Y-80780057D01*
X78743670Y-80780057D02*
X78872582Y-80736930D01*
X78833372Y-139023595D02*
X78294009Y-139033648D01*
X78872582Y-80736930D02*
X79000996Y-80692345D01*
X78978541Y-149023108D02*
X78245216Y-149036073D01*
X79000996Y-80692345D02*
X79045376Y-80675862D01*
X79045376Y-80675862D02*
X79089215Y-80657986D01*
X79089215Y-80657986D02*
X79132467Y-80638736D01*
X79132467Y-80638736D02*
X79175090Y-80618131D01*
X79175090Y-80618131D02*
X79217042Y-80596190D01*
X79217042Y-80596190D02*
X79258280Y-80572937D01*
X79258280Y-80572937D02*
X79298764Y-80548394D01*
X79298764Y-80548394D02*
X79338454Y-80522585D01*
X79338454Y-80522585D02*
X79377309Y-80495537D01*
X79372660Y-139010021D02*
X78833372Y-139023595D01*
X79377309Y-80495537D02*
X79415291Y-80467276D01*
X79415291Y-80467276D02*
X79452362Y-80437831D01*
X79452362Y-80437831D02*
X79488486Y-80407230D01*
X79488486Y-80407230D02*
X79523626Y-80375505D01*
X79523626Y-80375505D02*
X79557747Y-80342686D01*
X79557747Y-80342686D02*
X79590816Y-80308807D01*
X79590816Y-80308807D02*
X79622799Y-80273902D01*
X79622799Y-80273902D02*
X79653665Y-80238004D01*
X79653665Y-80238004D02*
X79683382Y-80201150D01*
X79683382Y-80201150D02*
X79711922Y-80163377D01*
X79711922Y-80163377D02*
X79739255Y-80124722D01*
X79712093Y-149004645D02*
X78978541Y-149023108D01*
X79739255Y-80124722D02*
X79765355Y-80085223D01*
X79765355Y-80085223D02*
X79790195Y-80044921D01*
X79790195Y-80044921D02*
X79813751Y-80003855D01*
X79813751Y-80003855D02*
X79836000Y-79962066D01*
X79836000Y-79962066D02*
X79856918Y-79919595D01*
X79856918Y-79919595D02*
X79876486Y-79876486D01*
X79876486Y-79876486D02*
X79894684Y-79832780D01*
X79894684Y-79832780D02*
X79911493Y-79788522D01*
X79911493Y-79788522D02*
X79926897Y-79743756D01*
X79911841Y-138992731D02*
X79372660Y-139010021D01*
X79926897Y-79743756D02*
X79940881Y-79698525D01*
X79940881Y-79698525D02*
X79953431Y-79652876D01*
X79953431Y-79652876D02*
X79964533Y-79606854D01*
X79964533Y-79606854D02*
X79974178Y-79560504D01*
X79974178Y-79560504D02*
X79982355Y-79513873D01*
X79982355Y-79513873D02*
X79989057Y-79467007D01*
X79989057Y-79467007D02*
X79994276Y-79419953D01*
X79994276Y-79419953D02*
X79998008Y-79372758D01*
X79998008Y-79372758D02*
X80000249Y-79325468D01*
X80000249Y-79325468D02*
X80000996Y-79278132D01*
X80000996Y-74000000D02*
X80000996Y-79278132D01*
D11*
X80250327Y-73844524D02*
X80247800Y-73841632D01*
X80245291Y-73838790D01*
X80242813Y-73836015D01*
X80240353Y-73833288D01*
X80237924Y-73830626D01*
X80235511Y-73828011D01*
X80233129Y-73825460D01*
X80230764Y-73822955D01*
X80228429Y-73820512D01*
X80226109Y-73818114D01*
X80223820Y-73815776D01*
X80221547Y-73813482D01*
X80219303Y-73811247D01*
X80217075Y-73809055D01*
X80214875Y-73806920D01*
X80212691Y-73804827D01*
X80210535Y-73802789D01*
X80208394Y-73800792D01*
X80206281Y-73798849D01*
X80204182Y-73796947D01*
X80202112Y-73795096D01*
X80200055Y-73793285D01*
X80198025Y-73791525D01*
X80196010Y-73789803D01*
X80194021Y-73788130D01*
X80192045Y-73786494D01*
X80190096Y-73784906D01*
X80188160Y-73783355D01*
X80186250Y-73781850D01*
X80184353Y-73780380D01*
X80182481Y-73778956D01*
X80180622Y-73777566D01*
X80178787Y-73776219D01*
X80176965Y-73774907D01*
X80175167Y-73773636D01*
X80173382Y-73772399D01*
X80171620Y-73771202D01*
X80169870Y-73770037D01*
X80168143Y-73768912D01*
X80166428Y-73767818D01*
X80164735Y-73766763D01*
X80163054Y-73765738D01*
X80161395Y-73764750D01*
X80159748Y-73763792D01*
X80158121Y-73762869D01*
X80156506Y-73761976D01*
X80154912Y-73761117D01*
X80153328Y-73760286D01*
X80151765Y-73759489D01*
X80150212Y-73758719D01*
X80148679Y-73757982D01*
X80147157Y-73757272D01*
X80145653Y-73756592D01*
X80144160Y-73755939D01*
X80142686Y-73755316D01*
X80141221Y-73754719D01*
X80139774Y-73754151D01*
X80138337Y-73753608D01*
X80136917Y-73753093D01*
X80135507Y-73752603D01*
X80134113Y-73752139D01*
X80132729Y-73751700D01*
X80131361Y-73751286D01*
X80130002Y-73750897D01*
X80128659Y-73750532D01*
X80127324Y-73750191D01*
X80126004Y-73749874D01*
X80124694Y-73749579D01*
X80123397Y-73749309D01*
X80122109Y-73749060D01*
X80120834Y-73748834D01*
X80119568Y-73748630D01*
X80118314Y-73748449D01*
X80117069Y-73748288D01*
X80115835Y-73748150D01*
X80114611Y-73748032D01*
X80113397Y-73747935D01*
X80112192Y-73747859D01*
X80110997Y-73747804D01*
X80109810Y-73747769D01*
X80108633Y-73747754D01*
X80107464Y-73747760D01*
X80106304Y-73747785D01*
X80105152Y-73747830D01*
X80104008Y-73747895D01*
X80102873Y-73747979D01*
X80101745Y-73748082D01*
X80100625Y-73748205D01*
X80099511Y-73748347D01*
X80098406Y-73748508D01*
X80096215Y-73748888D01*
X80094050Y-73749343D01*
X80091910Y-73749875D01*
X80089794Y-73750483D01*
X80087701Y-73751167D01*
X80085628Y-73751928D01*
X80083576Y-73752767D01*
X80081542Y-73753684D01*
X80079526Y-73754681D01*
X80077526Y-73755758D01*
X80075542Y-73756917D01*
X80073574Y-73758159D01*
X80071619Y-73759487D01*
X80069679Y-73760902D01*
X80067751Y-73762406D01*
X80065836Y-73764002D01*
X80063934Y-73765691D01*
X80062043Y-73767475D01*
X80060164Y-73769359D01*
X80058297Y-73771344D01*
X80056442Y-73773432D01*
X80054598Y-73775628D01*
X80052766Y-73777933D01*
X80050947Y-73780351D01*
X80049140Y-73782884D01*
X80047346Y-73785537D01*
X80045566Y-73788313D01*
X80043800Y-73791213D01*
X80042049Y-73794243D01*
X80040313Y-73797405D01*
X80038593Y-73800702D01*
X80036891Y-73804138D01*
X80035208Y-73807717D01*
X80033543Y-73811441D01*
X80031899Y-73815314D01*
X80030277Y-73819339D01*
X80028678Y-73823520D01*
X80027104Y-73827859D01*
X80025555Y-73832359D01*
X80024034Y-73837023D01*
X80022541Y-73841854D01*
X80021080Y-73846855D01*
X80019650Y-73852026D01*
X80018255Y-73857370D01*
X80016896Y-73862888D01*
X80015575Y-73868582D01*
X80014294Y-73874451D01*
X80013056Y-73880495D01*
X80011862Y-73886714D01*
X80010715Y-73893104D01*
X80009617Y-73899663D01*
X80008571Y-73906386D01*
X80007579Y-73913266D01*
X80006644Y-73920295D01*
X80005769Y-73927460D01*
X80004957Y-73934746D01*
X80004211Y-73942134D01*
X80003534Y-73949595D01*
X80002929Y-73957095D01*
X80002401Y-73964585D01*
X80001951Y-73971996D01*
X80001585Y-73979230D01*
X80001305Y-73986132D01*
X80001115Y-73992441D01*
X80001016Y-73997617D01*
X80000996Y-74000000D01*
D10*
X80250327Y-73844524D02*
X80599151Y-74256028D01*
X80445947Y-148980596D02*
X79712093Y-149004645D01*
X80450906Y-138972207D02*
X79911841Y-138992731D01*
X80599151Y-74256028D02*
X80943137Y-74671588D01*
X80943137Y-74671588D02*
X81282616Y-75090835D01*
X80989836Y-138948417D02*
X80450906Y-138972207D01*
X81180180Y-148950877D02*
X80445947Y-148980596D01*
X81282616Y-75090835D02*
X81618223Y-75513184D01*
X81528611Y-138921329D02*
X80989836Y-138948417D01*
X81618223Y-75513184D02*
X81950310Y-75938306D01*
X81914865Y-148915401D02*
X81180180Y-148950877D01*
X81950310Y-75938306D02*
X82279197Y-76365909D01*
X82067211Y-138890916D02*
X81528611Y-138921329D01*
X82279197Y-76365909D02*
X82605173Y-76795736D01*
X82605173Y-76795736D02*
X82928504Y-77227559D01*
X82605561Y-138856349D02*
X82067211Y-138890916D01*
X82650079Y-148874083D02*
X81914865Y-148915401D01*
X82928504Y-77227559D02*
X83249347Y-77661236D01*
X83000000Y-40000000D02*
G75*
G02*
X86000000Y-43000000I0J-3000000D01*
G01*
X83143670Y-138818240D02*
X82605561Y-138856349D01*
X83249347Y-77661236D02*
X83567592Y-78096822D01*
X83385896Y-148826837D02*
X82650079Y-148874083D01*
X83567592Y-78096822D02*
X83883978Y-78533759D01*
X83681523Y-138776712D02*
X83143670Y-138818240D01*
X83883978Y-78533759D02*
X84198705Y-78971893D01*
X84122393Y-148773576D02*
X83385896Y-148826837D01*
X84198705Y-78971893D02*
X84511958Y-79411083D01*
X84219100Y-138731744D02*
X83681523Y-138776712D01*
X84511958Y-79411083D02*
X84823894Y-79851209D01*
X84756379Y-138683321D02*
X84219100Y-138731744D01*
X84823894Y-79851209D02*
X85134294Y-80292421D01*
X84859644Y-148714216D02*
X84122393Y-148773576D01*
X85134294Y-80292421D02*
X85443448Y-80734506D01*
X85293308Y-138631140D02*
X84756379Y-138683321D01*
X85443448Y-80734506D02*
X85751423Y-81177412D01*
X85597725Y-148648669D02*
X84859644Y-148714216D01*
X85751423Y-81177412D02*
X86058229Y-81621130D01*
X85829811Y-138574750D02*
X85293308Y-138631140D01*
X86000000Y-43000000D02*
X86000000Y-63947657D01*
X86058229Y-81621130D02*
X86363876Y-82065647D01*
X86336711Y-148576850D02*
X85597725Y-148648669D01*
X86363876Y-82065647D02*
X86668176Y-82511088D01*
X86365929Y-138514847D02*
X85829811Y-138574750D01*
X86657394Y-65821742D02*
G75*
G02*
X86000009Y-63947657I2342806J1874142D01*
G01*
X86668176Y-82511088D02*
X86971221Y-82957383D01*
X86901642Y-138451423D02*
X86365929Y-138514847D01*
X86971221Y-82957383D02*
X87273158Y-83404427D01*
X87076677Y-148498674D02*
X86336711Y-148576850D01*
X87273158Y-83404427D02*
X87574001Y-83852209D01*
X87436926Y-138384474D02*
X86901642Y-138451423D01*
X87574001Y-83852209D02*
X87873764Y-84300715D01*
X87817700Y-148414053D02*
X87076677Y-148498674D01*
X87873764Y-84300715D02*
X88172432Y-84749951D01*
X87971761Y-138314000D02*
X87436926Y-138384474D01*
X88172432Y-84749951D02*
X88469800Y-85200049D01*
X88469800Y-85200049D02*
X88766151Y-85650817D01*
X88505989Y-138239052D02*
X87971761Y-138314000D01*
X88559854Y-148322903D02*
X87817700Y-148414053D01*
X88766151Y-85650817D02*
X89061501Y-86102241D01*
X89039684Y-138160430D02*
X88505989Y-138239052D01*
X89061501Y-86102241D02*
X89355867Y-86554307D01*
X89303214Y-148225138D02*
X88559854Y-148322903D01*
X89355867Y-86554307D02*
X89649269Y-87007000D01*
X89572844Y-138078270D02*
X89039684Y-138160430D01*
X89649269Y-87007000D02*
X89941626Y-87460369D01*
X89941626Y-87460369D02*
X90232924Y-87914419D01*
X90000000Y-70000000D02*
X86657394Y-65821742D01*
X90000000Y-70000000D02*
X90891422Y-71177075D01*
X90047856Y-148120671D02*
X89303214Y-148225138D01*
X90105450Y-137992583D02*
X89572844Y-138078270D01*
X90232924Y-87914419D02*
X90523332Y-88369038D01*
X90523332Y-88369038D02*
X90812870Y-88824212D01*
X90637481Y-137903381D02*
X90105450Y-137992583D01*
X90793855Y-148009416D02*
X90047856Y-148120671D01*
X90812870Y-88824212D02*
X91101560Y-89279924D01*
X90891422Y-71177075D02*
X91317228Y-71752629D01*
X91101560Y-89279924D02*
X91389423Y-89736159D01*
X91168769Y-137809843D02*
X90637481Y-137903381D01*
X91317228Y-71752629D02*
X91738976Y-72330125D01*
X91389423Y-89736159D02*
X91676358Y-90192978D01*
X91541287Y-147891288D02*
X90793855Y-148009416D01*
X91676358Y-90192978D02*
X91962447Y-90650328D01*
X91699350Y-137712396D02*
X91168769Y-137809843D01*
X91738976Y-72330125D02*
X92156737Y-72908715D01*
X91962447Y-90650328D02*
X92247793Y-91108142D01*
X92156737Y-72908715D02*
X92570572Y-73487554D01*
X92229246Y-137611299D02*
X91699350Y-137712396D01*
X92247793Y-91108142D02*
X92532421Y-91566402D01*
X92290226Y-147766201D02*
X91541287Y-147891288D01*
X92532421Y-91566402D02*
X92816353Y-92025094D01*
X92570572Y-73487554D02*
X92980537Y-74065826D01*
X92758415Y-137506466D02*
X92229246Y-137611299D01*
X92816353Y-92025094D02*
X93099614Y-92484201D01*
X92980537Y-74065826D02*
X93386724Y-74643192D01*
X93040733Y-147634067D02*
X92290226Y-147766201D01*
X93099614Y-92484201D02*
X93382094Y-92943789D01*
X93286814Y-137397802D02*
X92758415Y-137506466D01*
X93382094Y-92943789D02*
X93663938Y-93403766D01*
X93386724Y-74643192D02*
X93789256Y-75219696D01*
X93663938Y-93403766D02*
X93945202Y-93864099D01*
X93789256Y-75219696D02*
X94188254Y-75795392D01*
X93792534Y-147494761D02*
X93040733Y-147634067D01*
X93814210Y-137284359D02*
X93286814Y-137397802D01*
X93945202Y-93864099D02*
X94225910Y-94324771D01*
X94188254Y-75795392D02*
X94583839Y-76370335D01*
X94225910Y-94324771D02*
X94506086Y-94785767D01*
X94340605Y-137166377D02*
X93814210Y-137284359D01*
X94506086Y-94785767D02*
X94785735Y-95247083D01*
X94545046Y-147348123D02*
X93792534Y-147494761D01*
X94583839Y-76370335D02*
X94976130Y-76944580D01*
X94785735Y-95247083D02*
X95064802Y-95708751D01*
X94866031Y-137044165D02*
X94340605Y-137166377D01*
X94976130Y-76944580D02*
X95365245Y-77518181D01*
X95064802Y-95708751D02*
X95343429Y-96170684D01*
X95297675Y-147193990D02*
X94545046Y-147348123D01*
X95343429Y-96170684D02*
X95621642Y-96632867D01*
X95365245Y-77518181D02*
X95751300Y-78091192D01*
X95390422Y-136917587D02*
X94866031Y-137044165D01*
X95621642Y-96632867D02*
X95899466Y-97095285D01*
X95751300Y-78091192D02*
X96134413Y-78663670D01*
X95899466Y-97095285D02*
X96176923Y-97557922D01*
X95913705Y-136786494D02*
X95390422Y-136917587D01*
X96049824Y-147032202D02*
X95297675Y-147193990D01*
X96134413Y-78663670D02*
X96514697Y-79235667D01*
X96176923Y-97557922D02*
X96453978Y-98020800D01*
X96435718Y-136650411D02*
X95913705Y-136786494D01*
X96453978Y-98020800D02*
X96730702Y-98483877D01*
X96514697Y-79235667D02*
X96892267Y-79807239D01*
X96730702Y-98483877D02*
X97007150Y-98947118D01*
X96800899Y-146862597D02*
X96049824Y-147032202D01*
X96892267Y-79807239D02*
X97267235Y-80378441D01*
X96956171Y-136508488D02*
X96435718Y-136650411D01*
X97007150Y-98947118D02*
X97283346Y-99410509D01*
X97267235Y-80378441D02*
X97639715Y-80949327D01*
X97283346Y-99410509D02*
X97559312Y-99874037D01*
X97475208Y-136361490D02*
X96956171Y-136508488D01*
X97550304Y-146685013D02*
X96800899Y-146862597D01*
X97559312Y-99874037D02*
X97835047Y-100337703D01*
X97639715Y-80949327D02*
X98009817Y-81519951D01*
X97835047Y-100337703D02*
X98110579Y-100801490D01*
X97992716Y-136209208D02*
X97475208Y-136361490D01*
X98009817Y-81519951D02*
X98377654Y-82090369D01*
X98110579Y-100801490D02*
X98385966Y-101265362D01*
X98297445Y-146499288D02*
X97550304Y-146685013D01*
X98377654Y-82090369D02*
X98743335Y-82660634D01*
X98385966Y-101265362D02*
X98661229Y-101729309D01*
X98508569Y-136051413D02*
X97992716Y-136209208D01*
X98661229Y-101729309D02*
X98936388Y-102193316D01*
X98743335Y-82660634D02*
X99106971Y-83230803D01*
X98936388Y-102193316D02*
X99211455Y-102657379D01*
X99022627Y-135887855D02*
X98508569Y-136051413D01*
X99041726Y-146305262D02*
X98297445Y-146499288D01*
X99106971Y-83230803D02*
X99468670Y-83800928D01*
X99211455Y-102657379D02*
X99486462Y-103121477D01*
X99468670Y-83800928D02*
X99828543Y-84371065D01*
X99486462Y-103121477D02*
X99761441Y-103585591D01*
X99534729Y-135718259D02*
X99022627Y-135887855D01*
X99761441Y-103585591D02*
X100036411Y-104049711D01*
X99782552Y-146102772D02*
X99041726Y-146305262D01*
X99828543Y-84371065D02*
X100186697Y-84941269D01*
X100036411Y-104049711D02*
X100311389Y-104513827D01*
X100044540Y-135541884D02*
X99534729Y-135718259D01*
X100186697Y-84941269D02*
X100543240Y-85511594D01*
X100311389Y-104513827D02*
X100586405Y-104977919D01*
X100519327Y-145891656D02*
X99782552Y-146102772D01*
X100543240Y-85511594D02*
X100898281Y-86082095D01*
X100551824Y-135358374D02*
X100044540Y-135541884D01*
X100586405Y-104977919D02*
X100861484Y-105441974D01*
X100861484Y-105441974D02*
X101136637Y-105905986D01*
X100898281Y-86082095D02*
X101251927Y-86652826D01*
X101056536Y-135167924D02*
X100551824Y-135358374D01*
X101136637Y-105905986D02*
X101411878Y-106369945D01*
X101251457Y-145671754D02*
X100519327Y-145891656D01*
X101251927Y-86652826D02*
X101604285Y-87223842D01*
X101411878Y-106369945D02*
X101687228Y-106833840D01*
X101558425Y-134970165D02*
X101056536Y-135167924D01*
X101604285Y-87223842D02*
X101955461Y-87795198D01*
X101687228Y-106833840D02*
X101962747Y-107297634D01*
X101955461Y-87795198D02*
X102305561Y-88366948D01*
X101962747Y-107297634D02*
X102238410Y-107761343D01*
X101978347Y-145442903D02*
X101251457Y-145671754D01*
X102057203Y-134764695D02*
X101558425Y-134970165D01*
X102238410Y-107761343D02*
X102514228Y-108224960D01*
X102305561Y-88366948D02*
X102654693Y-88939147D01*
X102514228Y-108224960D02*
X102790211Y-108688478D01*
X102552543Y-134551078D02*
X102057203Y-134764695D01*
X102654693Y-88939147D02*
X103002961Y-89511850D01*
X102699400Y-145204942D02*
X101978347Y-145442903D01*
X102790211Y-108688478D02*
X103066445Y-109151846D01*
X103002961Y-89511850D02*
X103350471Y-90085111D01*
X103044074Y-134328841D02*
X102552543Y-134551078D01*
X103066445Y-109151846D02*
X103342893Y-109615087D01*
X103342893Y-109615087D02*
X103619550Y-110078204D01*
X103350471Y-90085111D02*
X103697327Y-90658984D01*
X103414023Y-144957710D02*
X102699400Y-145204942D01*
X103531372Y-134097475D02*
X103044074Y-134328841D01*
X103619550Y-110078204D02*
X103896421Y-110541192D01*
X103697327Y-90658984D02*
X104043634Y-91233526D01*
X103896421Y-110541192D02*
X104173596Y-111003999D01*
X104013953Y-133856429D02*
X103531372Y-134097475D01*
X104043634Y-91233526D02*
X104389497Y-91808789D01*
X104121620Y-144701044D02*
X103414023Y-144957710D01*
X104173596Y-111003999D02*
X104450889Y-111466734D01*
X104389497Y-91808789D02*
X104735019Y-92384829D01*
X104450889Y-111466734D02*
X104728068Y-111929538D01*
X104491267Y-133605116D02*
X104013953Y-133856429D01*
X104728068Y-111929538D02*
X105004934Y-112392530D01*
X104735019Y-92384829D02*
X105080304Y-92961701D01*
X104821595Y-144434783D02*
X104121620Y-144701044D01*
X104962684Y-133342909D02*
X104491267Y-133605116D01*
X105004934Y-112392530D02*
X105281065Y-112855959D01*
X105080304Y-92961701D02*
X105425454Y-93539458D01*
X105281065Y-112855959D02*
X105556002Y-113320099D01*
X105425454Y-93539458D02*
X105770572Y-94118156D01*
X105427490Y-133069145D02*
X104962684Y-133342909D01*
X105513354Y-144158766D02*
X104821595Y-144434783D01*
X105556002Y-113320099D02*
X105829601Y-113785027D01*
X105770572Y-94118156D02*
X106115759Y-94697850D01*
X105829601Y-113785027D02*
X106101562Y-114250914D01*
X105884297Y-132782237D02*
X105427490Y-133069145D01*
X106101562Y-114250914D02*
X106371545Y-114717952D01*
X106115759Y-94697850D02*
X106461117Y-95278593D01*
X106196301Y-143872831D02*
X105513354Y-144158766D01*
X106331814Y-132481062D02*
X105884297Y-132782237D01*
X106371545Y-114717952D02*
X106638912Y-115186492D01*
X106461117Y-95278593D02*
X106806747Y-95860442D01*
X106638912Y-115186492D02*
X106902959Y-115656912D01*
X106769428Y-132165695D02*
X106331814Y-132481062D01*
X106806747Y-95860442D02*
X107152749Y-96443449D01*
X106869841Y-143576816D02*
X106196301Y-143872831D01*
X106902959Y-115656912D02*
X107163631Y-116129205D01*
X107152749Y-96443449D02*
X107499221Y-97027670D01*
X107163631Y-116129205D02*
X107420427Y-116603615D01*
X107195719Y-131835178D02*
X106769428Y-132165695D01*
X107420427Y-116603615D02*
X107672781Y-117080400D01*
X107499221Y-97027670D02*
X107846263Y-97613160D01*
X107533379Y-143270560D02*
X106869841Y-143576816D01*
X107606182Y-131485213D02*
X107195719Y-131835178D01*
X107672781Y-117080400D02*
X107920058Y-117559837D01*
X107846263Y-97613160D02*
X108193971Y-98199972D01*
X107920058Y-117559837D02*
X108161544Y-118042215D01*
X108000931Y-131117656D02*
X107606182Y-131485213D01*
X108161544Y-118042215D02*
X108396437Y-118527837D01*
X108186320Y-142953900D02*
X107533379Y-143270560D01*
X108193971Y-98199972D02*
X108542444Y-98788163D01*
X108373909Y-130728018D02*
X108000931Y-131117656D01*
X108396437Y-118527837D02*
X108623838Y-119017010D01*
X108542444Y-98788163D02*
X108891775Y-99377786D01*
X108623838Y-119017010D02*
X108842740Y-119510042D01*
X108721169Y-130315375D02*
X108373909Y-130728018D01*
X108828068Y-142626677D02*
X108186320Y-142953900D01*
X108842740Y-119510042D02*
X109052020Y-120007229D01*
X108891775Y-99377786D02*
X109242061Y-99968895D01*
X109036759Y-129878089D02*
X108721169Y-130315375D01*
X109052020Y-120007229D02*
X109250428Y-120508846D01*
X109242061Y-99968895D02*
X109593394Y-100561547D01*
X109250428Y-120508846D02*
X109436582Y-121015132D01*
X109312356Y-129414609D02*
X109036759Y-129878089D01*
X109436582Y-121015132D02*
X109608964Y-121526268D01*
X109458029Y-142288727D02*
X108828068Y-142626677D01*
X109543315Y-128927324D02*
X109312356Y-129414609D01*
X109593394Y-100561547D02*
X109945868Y-101155795D01*
X109608964Y-121526268D02*
X109765473Y-122042487D01*
X109734217Y-128422969D02*
X109543315Y-128927324D01*
X109765473Y-122042487D02*
X109901336Y-122564509D01*
X109889140Y-127906380D02*
X109734217Y-128422969D01*
X109901336Y-122564509D02*
X110017054Y-123091346D01*
X109945868Y-101155795D02*
X110299571Y-101751694D01*
X110011289Y-127381015D02*
X109889140Y-127906380D01*
X110017054Y-123091346D02*
X110106590Y-123623228D01*
X110075607Y-141939889D02*
X109458029Y-142288727D01*
X110101805Y-126849293D02*
X110011289Y-127381015D01*
X110106590Y-123623228D02*
X110170361Y-124158831D01*
X110166015Y-126313762D02*
X110101805Y-126849293D01*
X110170361Y-124158831D02*
X110204547Y-124697127D01*
X110202808Y-125775623D02*
X110166015Y-126313762D01*
X110204547Y-124697127D02*
X110216168Y-125236404D01*
X110216168Y-125236404D02*
X110202808Y-125775623D01*
X110299571Y-101751694D02*
X110654595Y-102349298D01*
X110654595Y-102349298D02*
X111011027Y-102948663D01*
X110680207Y-141580002D02*
X110075607Y-141939889D01*
X111011027Y-102948663D02*
X111368954Y-103549842D01*
X111271234Y-141208904D02*
X110680207Y-141580002D01*
X111368954Y-103549842D02*
X111728459Y-104152891D01*
X111728459Y-104152891D02*
X112089626Y-104757864D01*
X111848093Y-140826434D02*
X111271234Y-141208904D01*
X112089626Y-104757864D02*
X112452535Y-105364816D01*
X112410188Y-140432429D02*
X111848093Y-140826434D01*
X112452535Y-105364816D02*
X112817258Y-105973801D01*
X112817258Y-105973801D02*
X113183504Y-106584865D01*
X112956924Y-140026729D02*
X112410188Y-140432429D01*
X113183504Y-106584865D02*
X113550407Y-107198045D01*
X113487707Y-139609171D02*
X112956924Y-140026729D01*
X113550407Y-107198045D02*
X113917046Y-107813372D01*
X113917046Y-107813372D02*
X114282491Y-108430880D01*
X114001940Y-139179594D02*
X113487707Y-139609171D01*
X114282491Y-108430880D02*
X114645807Y-109050603D01*
X114499029Y-138737837D02*
X114001940Y-139179594D01*
X114645807Y-109050603D02*
X115006051Y-109672573D01*
X114978379Y-138283737D02*
X114499029Y-138737837D01*
X115006051Y-109672573D02*
X115362273Y-110296825D01*
X115362273Y-110296825D02*
X115713517Y-110923391D01*
X115439394Y-137817133D02*
X114978379Y-138283737D01*
X115713517Y-110923391D02*
X116058820Y-111552305D01*
X115881480Y-137337865D02*
X115439394Y-137817133D01*
X116058820Y-111552305D02*
X116397216Y-112183600D01*
X116304040Y-136845769D02*
X115881480Y-137337865D01*
X116397216Y-112183600D02*
X116727728Y-112817310D01*
X116706480Y-136340684D02*
X116304040Y-136845769D01*
X116727728Y-112817310D02*
X117049380Y-113453467D01*
X117049380Y-113453467D02*
X117361185Y-114092106D01*
X117088205Y-135822449D02*
X116706480Y-136340684D01*
X117361185Y-114092106D02*
X117662156Y-114733260D01*
X117448620Y-135290903D02*
X117088205Y-135822449D01*
X117662156Y-114733260D02*
X117951298Y-115376962D01*
X117787129Y-134745883D02*
X117448620Y-135290903D01*
X117951298Y-115376962D02*
X118227616Y-116023245D01*
X118103145Y-134187238D02*
X117787129Y-134745883D01*
X118227616Y-116023245D02*
X118490110Y-116672142D01*
X118396402Y-133615223D02*
X118103145Y-134187238D01*
X118490110Y-116672142D02*
X118737775Y-117323688D01*
X118667053Y-133030622D02*
X118396402Y-133615223D01*
X118737775Y-117323688D02*
X118969607Y-117977916D01*
X118915281Y-132434255D02*
X118667053Y-133030622D01*
X118969607Y-117977916D02*
X119184600Y-118634858D01*
X119141265Y-131826942D02*
X118915281Y-132434255D01*
X119184600Y-118634858D02*
X119381745Y-119294548D01*
X119345187Y-131209504D02*
X119141265Y-131826942D01*
X119381745Y-119294548D02*
X119560034Y-119957020D01*
X119527229Y-130582759D02*
X119345187Y-131209504D01*
X119560034Y-119957020D02*
X119718461Y-120622306D01*
X119687571Y-129947529D02*
X119527229Y-130582759D01*
X119718461Y-120622306D02*
X119856017Y-121290441D01*
X119826396Y-129304633D02*
X119687571Y-129947529D01*
X119856017Y-121290441D02*
X119971774Y-121961365D01*
X119943884Y-128654892D02*
X119826396Y-129304633D01*
X119971774Y-121961365D02*
X120065240Y-122634462D01*
X120040217Y-127999124D02*
X119943884Y-128654892D01*
X120065240Y-122634462D02*
X120136109Y-123308915D01*
X120115576Y-127338151D02*
X120040217Y-127999124D01*
X120136109Y-123308915D02*
X120184107Y-123983901D01*
X120170142Y-126672792D02*
X120115576Y-127338151D01*
X120184107Y-123983901D02*
X120210898Y-124658602D01*
X120204097Y-126003868D02*
X120170142Y-126672792D01*
X120210898Y-124658602D02*
X120217622Y-125332198D01*
X120217622Y-125332198D02*
X120204097Y-126003868D01*
M02*
