%TF.GenerationSoftware,KiCad,Pcbnew,10.0.4-10.0.4~ubuntu24.04.1*%
%TF.CreationDate,2026-07-15T00:24:15-04:00*%
%TF.ProjectId,kmm-pmask-mask,6b6d6d2d-706d-4617-936b-2d6d61736b2e,2.0*%
%TF.SameCoordinates,Original*%
%TF.FileFunction,Paste,Top*%
%TF.FilePolarity,Positive*%
%FSLAX46Y46*%
G04 Gerber Fmt 4.6, Leading zero omitted, Abs format (unit mm)*
G04 Created by KiCad (PCBNEW 10.0.4-10.0.4~ubuntu24.04.1) date 2026-07-15 00:24:15*
%MOMM*%
%LPD*%
G01*
G04 APERTURE LIST*
G04 Aperture macros list*
%AMRoundRect*
0 Rectangle with rounded corners*
0 $1 Rounding radius*
0 $2 $3 $4 $5 $6 $7 $8 $9 X,Y pos of 4 corners*
0 Add a 4 corners polygon primitive as box body*
4,1,4,$2,$3,$4,$5,$6,$7,$8,$9,$2,$3,0*
0 Add four circle primitives for the rounded corners*
1,1,$1+$1,$2,$3*
1,1,$1+$1,$4,$5*
1,1,$1+$1,$6,$7*
1,1,$1+$1,$8,$9*
0 Add four rect primitives between the rounded corners*
20,1,$1+$1,$2,$3,$4,$5,0*
20,1,$1+$1,$4,$5,$6,$7,0*
20,1,$1+$1,$6,$7,$8,$9,0*
20,1,$1+$1,$8,$9,$2,$3,0*%
G04 Aperture macros list end*
%ADD10RoundRect,0.090000X0.090000X-0.139000X0.090000X0.139000X-0.090000X0.139000X-0.090000X-0.139000X0*%
%ADD11RoundRect,0.100000X0.100000X-0.320000X0.100000X0.320000X-0.100000X0.320000X-0.100000X-0.320000X0*%
%ADD12RoundRect,0.160000X-0.160000X0.245000X-0.160000X-0.245000X0.160000X-0.245000X0.160000X0.245000X0*%
%ADD13RoundRect,0.093750X-0.106250X0.093750X-0.106250X-0.093750X0.106250X-0.093750X0.106250X0.093750X0*%
%ADD14R,0.300000X1.300000*%
%ADD15R,1.800000X2.200000*%
%ADD16RoundRect,0.090000X-0.139000X-0.090000X0.139000X-0.090000X0.139000X0.090000X-0.139000X0.090000X0*%
%ADD17RoundRect,0.155000X0.155000X-0.212500X0.155000X0.212500X-0.155000X0.212500X-0.155000X-0.212500X0*%
%ADD18R,0.950000X0.550000*%
%ADD19RoundRect,0.090000X-0.090000X0.139000X-0.090000X-0.139000X0.090000X-0.139000X0.090000X0.139000X0*%
%ADD20RoundRect,0.160000X-0.245000X-0.160000X0.245000X-0.160000X0.245000X0.160000X-0.245000X0.160000X0*%
%ADD21RoundRect,0.093750X-0.093750X-0.106250X0.093750X-0.106250X0.093750X0.106250X-0.093750X0.106250X0*%
%ADD22RoundRect,0.155000X-0.212500X-0.155000X0.212500X-0.155000X0.212500X0.155000X-0.212500X0.155000X0*%
%ADD23RoundRect,0.155000X0.212500X0.155000X-0.212500X0.155000X-0.212500X-0.155000X0.212500X-0.155000X0*%
%ADD24R,0.500000X0.300000*%
%ADD25RoundRect,0.090000X0.139000X0.090000X-0.139000X0.090000X-0.139000X-0.090000X0.139000X-0.090000X0*%
%ADD26RoundRect,0.100000X-0.637500X-0.100000X0.637500X-0.100000X0.637500X0.100000X-0.637500X0.100000X0*%
%ADD27R,0.300000X0.500000*%
G04 APERTURE END LIST*
D10*
%TO.C,C18*%
X79600000Y-141432500D03*
X79600000Y-140567500D03*
%TD*%
D11*
%TO.C,U9*%
X44600000Y-101195000D03*
X45400000Y-101195000D03*
X46200000Y-101195000D03*
X47000000Y-101195000D03*
X47800000Y-101195000D03*
X48600000Y-101195000D03*
X49400000Y-101195000D03*
X49400000Y-98805000D03*
X48600000Y-98805000D03*
X47800000Y-98805000D03*
X47000000Y-98805000D03*
X46200000Y-98805000D03*
X45400000Y-98805000D03*
X44600000Y-98805000D03*
%TD*%
D12*
%TO.C,U14*%
X55400000Y-143000000D03*
X54600000Y-143000000D03*
D13*
X55650000Y-142112500D03*
X55000000Y-142112500D03*
X54350000Y-142112500D03*
X54350000Y-143887500D03*
X55000000Y-143887500D03*
X55650000Y-143887500D03*
%TD*%
D10*
%TO.C,R6*%
X75600000Y-59232500D03*
X75600000Y-58367500D03*
%TD*%
D14*
%TO.C,J1*%
X82250000Y-49090000D03*
X81750000Y-49090000D03*
X81250000Y-49090000D03*
X80750000Y-49090000D03*
X80250000Y-49090000D03*
X79750000Y-49090000D03*
X79250000Y-49090000D03*
X78750000Y-49090000D03*
X78250000Y-49090000D03*
X77750000Y-49090000D03*
X77250000Y-49090000D03*
X76750000Y-49090000D03*
X76250000Y-49090000D03*
X75750000Y-49090000D03*
X75250000Y-49090000D03*
X74750000Y-49090000D03*
X74250000Y-49090000D03*
X73750000Y-49090000D03*
X73250000Y-49090000D03*
X72750000Y-49090000D03*
X72250000Y-49090000D03*
X71750000Y-49090000D03*
X71250000Y-49090000D03*
X70750000Y-49090000D03*
X70250000Y-49090000D03*
X69750000Y-49090000D03*
X69250000Y-49090000D03*
X68750000Y-49090000D03*
X68250000Y-49090000D03*
X67750000Y-49090000D03*
D15*
X84400000Y-43440000D03*
X65600000Y-43440000D03*
%TD*%
D16*
%TO.C,C21*%
X60967500Y-78800000D03*
X61832500Y-78800000D03*
%TD*%
D10*
%TO.C,R4*%
X72800000Y-59232500D03*
X72800000Y-58367500D03*
%TD*%
%TO.C,R8*%
X81000000Y-59232500D03*
X81000000Y-58367500D03*
%TD*%
D11*
%TO.C,U8*%
X92600000Y-87195000D03*
X93400000Y-87195000D03*
X94200000Y-87195000D03*
X95000000Y-87195000D03*
X95800000Y-87195000D03*
X96600000Y-87195000D03*
X97400000Y-87195000D03*
X97400000Y-84805000D03*
X96600000Y-84805000D03*
X95800000Y-84805000D03*
X95000000Y-84805000D03*
X94200000Y-84805000D03*
X93400000Y-84805000D03*
X92600000Y-84805000D03*
%TD*%
D17*
%TO.C,C17*%
X84600000Y-143367500D03*
X84600000Y-142232500D03*
%TD*%
D18*
%TO.C,U7*%
X68925000Y-141125000D03*
X68925000Y-142375000D03*
X68925000Y-143625000D03*
X68925000Y-144875000D03*
X71075000Y-144875000D03*
X71075000Y-143625000D03*
X71075000Y-142375000D03*
X71075000Y-141125000D03*
%TD*%
D11*
%TO.C,U10*%
X77600000Y-145195000D03*
X78400000Y-145195000D03*
X79200000Y-145195000D03*
X80000000Y-145195000D03*
X80800000Y-145195000D03*
X81600000Y-145195000D03*
X82400000Y-145195000D03*
X82400000Y-142805000D03*
X81600000Y-142805000D03*
X80800000Y-142805000D03*
X80000000Y-142805000D03*
X79200000Y-142805000D03*
X78400000Y-142805000D03*
X77600000Y-142805000D03*
%TD*%
D19*
%TO.C,R11*%
X92200000Y-82567500D03*
X92200000Y-83432500D03*
%TD*%
%TO.C,R9*%
X72600000Y-73567500D03*
X72600000Y-74432500D03*
%TD*%
D16*
%TO.C,C14*%
X46367500Y-97600000D03*
X47232500Y-97600000D03*
%TD*%
D10*
%TO.C,C22*%
X109800000Y-109032500D03*
X109800000Y-108167500D03*
%TD*%
D19*
%TO.C,C4*%
X67600000Y-141167500D03*
X67600000Y-142032500D03*
%TD*%
D20*
%TO.C,U13*%
X108000000Y-108600000D03*
X108000000Y-109400000D03*
D21*
X107112500Y-108350000D03*
X107112500Y-109000000D03*
X107112500Y-109650000D03*
X108887500Y-109650000D03*
X108887500Y-109000000D03*
X108887500Y-108350000D03*
%TD*%
D11*
%TO.C,U2*%
X72600000Y-78195000D03*
X73400000Y-78195000D03*
X74200000Y-78195000D03*
X75000000Y-78195000D03*
X75800000Y-78195000D03*
X76600000Y-78195000D03*
X77400000Y-78195000D03*
X77400000Y-75805000D03*
X76600000Y-75805000D03*
X75800000Y-75805000D03*
X75000000Y-75805000D03*
X74200000Y-75805000D03*
X73400000Y-75805000D03*
X72600000Y-75805000D03*
%TD*%
D19*
%TO.C,C3*%
X100600000Y-98167500D03*
X100600000Y-99032500D03*
%TD*%
D22*
%TO.C,C13*%
X48832500Y-96600000D03*
X49967500Y-96600000D03*
%TD*%
D16*
%TO.C,C24*%
X41522745Y-110800000D03*
X42387745Y-110800000D03*
%TD*%
D10*
%TO.C,R3*%
X74800000Y-59232500D03*
X74800000Y-58367500D03*
%TD*%
D16*
%TO.C,C12*%
X95967500Y-83500000D03*
X96832500Y-83500000D03*
%TD*%
D10*
%TO.C,R5*%
X77600000Y-59232500D03*
X77600000Y-58367500D03*
%TD*%
D19*
%TO.C,C26*%
X93200000Y-142567500D03*
X93200000Y-143432500D03*
%TD*%
D23*
%TO.C,C11*%
X94367500Y-82400000D03*
X93232500Y-82400000D03*
%TD*%
D24*
%TO.C,U12*%
X95700000Y-143400000D03*
X95700000Y-142600000D03*
X94300000Y-142600000D03*
X94300000Y-143400000D03*
%TD*%
D17*
%TO.C,C19*%
X78600000Y-141467500D03*
X78600000Y-140332500D03*
%TD*%
D10*
%TO.C,C20*%
X83600000Y-143432500D03*
X83600000Y-142567500D03*
%TD*%
%TO.C,C27*%
X79600000Y-52632500D03*
X79600000Y-51767500D03*
%TD*%
D12*
%TO.C,U4*%
X61400000Y-77000000D03*
X60600000Y-77000000D03*
D13*
X61650000Y-76112500D03*
X61000000Y-76112500D03*
X60350000Y-76112500D03*
X60350000Y-77887500D03*
X61000000Y-77887500D03*
X61650000Y-77887500D03*
%TD*%
D18*
%TO.C,U6*%
X101925000Y-98125000D03*
X101925000Y-99375000D03*
X101925000Y-100625000D03*
X101925000Y-101875000D03*
X104075000Y-101875000D03*
X104075000Y-100625000D03*
X104075000Y-99375000D03*
X104075000Y-98125000D03*
%TD*%
D19*
%TO.C,C25*%
X90600000Y-77467500D03*
X90600000Y-78332500D03*
%TD*%
D10*
%TO.C,R2*%
X71200000Y-59232500D03*
X71200000Y-58367500D03*
%TD*%
D19*
%TO.C,R10*%
X45200000Y-96567500D03*
X45200000Y-97432500D03*
%TD*%
D10*
%TO.C,R1*%
X69200000Y-59232500D03*
X69200000Y-58367500D03*
%TD*%
D19*
%TO.C,R12*%
X76400000Y-142367500D03*
X76400000Y-143232500D03*
%TD*%
D18*
%TO.C,U5*%
X53925000Y-84125000D03*
X53925000Y-85375000D03*
X53925000Y-86625000D03*
X53925000Y-87875000D03*
X56075000Y-87875000D03*
X56075000Y-86625000D03*
X56075000Y-85375000D03*
X56075000Y-84125000D03*
%TD*%
D22*
%TO.C,C8*%
X76432500Y-73600000D03*
X77567500Y-73600000D03*
%TD*%
D16*
%TO.C,C2*%
X53767500Y-82800000D03*
X54632500Y-82800000D03*
%TD*%
D25*
%TO.C,C7*%
X75032500Y-74600000D03*
X74167500Y-74600000D03*
%TD*%
D26*
%TO.C,U15*%
X72137500Y-52725000D03*
X72137500Y-53375000D03*
X72137500Y-54025000D03*
X72137500Y-54675000D03*
X72137500Y-55325000D03*
X72137500Y-55975000D03*
X72137500Y-56625000D03*
X72137500Y-57275000D03*
X77862500Y-57275000D03*
X77862500Y-56625000D03*
X77862500Y-55975000D03*
X77862500Y-55325000D03*
X77862500Y-54675000D03*
X77862500Y-54025000D03*
X77862500Y-53375000D03*
X77862500Y-52725000D03*
%TD*%
D22*
%TO.C,C9*%
X95432500Y-82400000D03*
X96567500Y-82400000D03*
%TD*%
D23*
%TO.C,C6*%
X74967500Y-73600000D03*
X73832500Y-73600000D03*
%TD*%
D10*
%TO.C,R7*%
X79000000Y-59232500D03*
X79000000Y-58367500D03*
%TD*%
D24*
%TO.C,U3*%
X88300000Y-76600000D03*
X88300000Y-77400000D03*
X89700000Y-77400000D03*
X89700000Y-76600000D03*
%TD*%
D16*
%TO.C,C23*%
X54967500Y-144800000D03*
X55832500Y-144800000D03*
%TD*%
D22*
%TO.C,C15*%
X46432500Y-96600000D03*
X47567500Y-96600000D03*
%TD*%
D16*
%TO.C,C5*%
X76367500Y-74600000D03*
X77232500Y-74600000D03*
%TD*%
D25*
%TO.C,C10*%
X94932500Y-83500000D03*
X94067500Y-83500000D03*
%TD*%
D19*
%TO.C,C1*%
X77400000Y-68767500D03*
X77400000Y-69632500D03*
%TD*%
D18*
%TO.C,U1*%
X76075000Y-68875000D03*
X76075000Y-67625000D03*
X76075000Y-66375000D03*
X76075000Y-65125000D03*
X73925000Y-65125000D03*
X73925000Y-66375000D03*
X73925000Y-67625000D03*
X73925000Y-68875000D03*
%TD*%
D16*
%TO.C,C16*%
X48767500Y-97600000D03*
X49632500Y-97600000D03*
%TD*%
D27*
%TO.C,U11*%
X42400000Y-108300000D03*
X41600000Y-108300000D03*
X41600000Y-109700000D03*
X42400000Y-109700000D03*
%TD*%
M02*
