M48
; DRILL file KiCad 10.0.4-10.0.4~ubuntu24.04.1 date 2026-07-15T00:44:42
; FORMAT={-:-/ absolute / metric / decimal}
; #@! TF.CreationDate,2026-07-15T00:44:42-04:00
; #@! TF.GenerationSoftware,Kicad,Pcbnew,10.0.4-10.0.4~ubuntu24.04.1
; #@! TF.FileFunction,Plated,1,2,PTH
FMAT,2
METRIC
; #@! TA.AperFunction,Plated,PTH,ViaDrill
T1C0.300
%
G90
G05
T1
X37.218Y-107.618
X40.8Y-108.4
X42.866Y-110.026
X42.955Y-110.8
X43.0Y-107.6
X46.2Y-99.5
X46.5Y-95.5
X46.565Y-93.965
X47.3Y-102.0
X47.4Y-95.8
X47.8Y-97.6
X50.0Y-96.0
X50.0Y-98.2
X53.019Y-81.619
X53.025Y-86.625
X53.6Y-143.6
X53.925Y-88.575
X54.4Y-146.155
X54.614Y-141.445
X55.2Y-82.8
X55.4Y-77.933
X56.075Y-88.575
X56.25Y-140.5
X57.0Y-144.2
X58.25Y-142.75
X59.4Y-78.0
X60.614Y-75.445
X61.2Y-79.6
X63.6Y-76.4
X65.0Y-59.8
X66.0Y-74.0
X66.0Y-147.641
X67.1Y-49.1
X67.4Y-47.5
X67.6Y-142.8
X67.825Y-143.625
X68.75Y-50.3
X68.925Y-145.6
X69.0Y-59.8
X69.0Y-62.4
X70.0Y-50.3
X70.6Y-62.0
X70.7Y-48.0
X70.925Y-52.725
X71.1Y-145.6
X71.4Y-59.8
X71.5Y-50.3
X72.0Y-58.0
X72.3Y-50.3
X72.6Y-63.0
X72.858Y-47.858
X73.2Y-79.0
X73.469Y-74.531
X73.722Y-54.025
X73.8Y-50.4
X73.832Y-73.032
X73.925Y-64.5
X74.4Y-79.0
X74.44Y-76.512
X74.9Y-52.5
X74.982Y-63.218
X75.0Y-48.1
X75.0Y-77.6
X75.4Y-143.0
X75.6Y-55.4
X75.6Y-61.8
X76.2Y-50.4
X76.7Y-54.675
X76.7Y-65.7
X76.708Y-66.876
X77.074Y-47.726
X77.1Y-70.2
X77.9Y-140.3
X78.1Y-74.6
X78.4Y-73.6
X78.6Y-65.777
X78.75Y-50.3
X78.8Y-59.8
X79.0Y-51.8
X79.2Y-143.5
X79.393Y-47.985
X79.75Y-50.3
X80.0Y-62.8
X80.0Y-145.9
X80.2Y-140.6
X81.2Y-59.8
X81.25Y-50.3
X82.0Y-62.8
X82.5Y-47.5
X82.9Y-49.1
X83.6Y-142.0
X84.6Y-141.6
X85.0Y-59.8
X85.232Y-76.017
X85.4Y-143.4
X87.3Y-77.3
X89.904Y-75.993
X90.6Y-79.0
X91.385Y-147.106
X92.7Y-143.5
X92.8Y-75.4
X93.2Y-81.8
X93.5Y-83.5
X94.0Y-80.6
X94.0Y-144.1
X94.458Y-85.534
X95.0Y-86.5
X95.4Y-80.8
X96.2Y-81.8
X96.3Y-142.1
X96.6Y-139.4
X97.4Y-83.6
X100.0Y-99.0
X101.1Y-100.3
X102.0Y-97.2
X102.319Y-102.6
X104.075Y-102.625
X106.25Y-107.5
X106.4Y-109.3
X109.25Y-107.0
X109.7Y-109.9
X109.8Y-107.554
X113.0Y-108.0
M30
