%TF.GenerationSoftware,KiCad,Pcbnew,10.0.4-10.0.4~ubuntu24.04.1*%
%TF.CreationDate,2026-07-19T12:17:15-04:00*%
%TF.ProjectId,kmm-pmask-control,6b6d6d2d-706d-4617-936b-2d636f6e7472,rev?*%
%TF.SameCoordinates,Original*%
%TF.FileFunction,Copper,L3,Inr*%
%TF.FilePolarity,Positive*%
%FSLAX46Y46*%
G04 Gerber Fmt 4.6, Leading zero omitted, Abs format (unit mm)*
G04 Created by KiCad (PCBNEW 10.0.4-10.0.4~ubuntu24.04.1) date 2026-07-19 12:17:15*
%MOMM*%
%LPD*%
G01*
G04 APERTURE LIST*
G04 Aperture macros list*
%AMRoundRect*
0 Rectangle with rounded corners*
0 $1 Rounding radius*
0 $2 $3 $4 $5 $6 $7 $8 $9 X,Y pos of 4 corners*
0 Add a 4 corners polygon primitive as box body*
4,1,4,$2,$3,$4,$5,$6,$7,$8,$9,$2,$3,0*
0 Add four circle primitives for the rounded corners*
1,1,$1+$1,$2,$3*
1,1,$1+$1,$4,$5*
1,1,$1+$1,$6,$7*
1,1,$1+$1,$8,$9*
0 Add four rect primitives between the rounded corners*
20,1,$1+$1,$2,$3,$4,$5,0*
20,1,$1+$1,$4,$5,$6,$7,0*
20,1,$1+$1,$6,$7,$8,$9,0*
20,1,$1+$1,$8,$9,$2,$3,0*%
G04 Aperture macros list end*
%TA.AperFunction,ComponentPad*%
%ADD10C,6.400000*%
%TD*%
%TA.AperFunction,ComponentPad*%
%ADD11RoundRect,0.250000X-0.625000X0.350000X-0.625000X-0.350000X0.625000X-0.350000X0.625000X0.350000X0*%
%TD*%
%TA.AperFunction,ComponentPad*%
%ADD12O,1.750000X1.200000*%
%TD*%
%TA.AperFunction,ComponentPad*%
%ADD13R,1.700000X1.700000*%
%TD*%
%TA.AperFunction,ComponentPad*%
%ADD14C,1.700000*%
%TD*%
%TA.AperFunction,ComponentPad*%
%ADD15C,0.600000*%
%TD*%
%TA.AperFunction,ViaPad*%
%ADD16C,0.500000*%
%TD*%
%TA.AperFunction,ViaPad*%
%ADD17C,0.600000*%
%TD*%
G04 APERTURE END LIST*
D10*
%TO.N,GND*%
%TO.C,H3*%
X85000000Y-105000000D03*
%TD*%
D11*
%TO.N,/Power/BATT_RAW_P*%
%TO.C,J2*%
X47450000Y-94000000D03*
D12*
%TO.N,GND*%
X47450000Y-96000000D03*
%TD*%
D10*
%TO.N,GND*%
%TO.C,H1*%
X45000000Y-65000000D03*
%TD*%
D13*
%TO.N,GND*%
%TO.C,J3*%
X51385000Y-96275000D03*
D14*
%TO.N,/Power/BATT_RAW_P*%
X51385000Y-93735000D03*
%TD*%
D10*
%TO.N,GND*%
%TO.C,H2*%
X85000000Y-65000000D03*
%TD*%
D15*
%TO.N,GND*%
%TO.C,U2*%
X65500000Y-101750000D03*
X65500000Y-100250000D03*
X65000000Y-101000000D03*
X64500000Y-101750000D03*
X64500000Y-100250000D03*
%TD*%
D10*
%TO.N,GND*%
%TO.C,H4*%
X45000000Y-105000000D03*
%TD*%
D16*
%TO.N,+5V*%
X82800000Y-92000000D03*
X70600000Y-102400000D03*
X82800000Y-78000000D03*
D17*
X62600000Y-102200000D03*
D16*
X71500000Y-102400000D03*
D17*
%TO.N,GND*%
X47500000Y-72500000D03*
D16*
X68000000Y-105000000D03*
X70500000Y-65250000D03*
D17*
X87500000Y-97500000D03*
D16*
X68000000Y-65250000D03*
X62000000Y-94750000D03*
X69750000Y-92250000D03*
X68500000Y-93250000D03*
X58750000Y-76250000D03*
X62000000Y-66000000D03*
X65000000Y-67000000D03*
D17*
X82500000Y-97500000D03*
X42500000Y-97500000D03*
X52500000Y-102500000D03*
D16*
X79200000Y-80700000D03*
X83010002Y-82250000D03*
D17*
X72500000Y-77500000D03*
D16*
X71250000Y-66000000D03*
D17*
X50000000Y-90000000D03*
D16*
X62000000Y-68000000D03*
X59500000Y-65250000D03*
X72000000Y-92000000D03*
X79200000Y-86300000D03*
D17*
X72500000Y-87500000D03*
X60000000Y-85000000D03*
X62500000Y-107500000D03*
D16*
X83000000Y-80250000D03*
D17*
X42500000Y-77500000D03*
D16*
X61500000Y-93250000D03*
X53500000Y-102500000D03*
X68000000Y-75000000D03*
D17*
X87500000Y-77500000D03*
D16*
X64000000Y-73000000D03*
X83000000Y-88750000D03*
X61250000Y-65250000D03*
X83000000Y-78750000D03*
D17*
X42500000Y-87500000D03*
D16*
X68250000Y-77000000D03*
D17*
X70000000Y-80000000D03*
D16*
X69750000Y-77000000D03*
D17*
X62500000Y-87500000D03*
D16*
X83000000Y-81250000D03*
X63000000Y-74000000D03*
X55500000Y-103750000D03*
X61250000Y-66750000D03*
D17*
X87500000Y-82500000D03*
D16*
X63000000Y-67000000D03*
D17*
X80000000Y-105000000D03*
X67500000Y-87500000D03*
D16*
X62750000Y-92250000D03*
D17*
X85000000Y-80000000D03*
X47500000Y-97500000D03*
D16*
X69000000Y-94750000D03*
X68750000Y-77750000D03*
D17*
X85000000Y-95000000D03*
D16*
X58500000Y-65250000D03*
X76000000Y-108250000D03*
X83000000Y-86173000D03*
D17*
X50000000Y-105000000D03*
X47500000Y-87500000D03*
D16*
X59500000Y-92250000D03*
X78000000Y-108250000D03*
D17*
X45000000Y-100000000D03*
D16*
X74000000Y-108250000D03*
X83000000Y-89750000D03*
X59500000Y-66000000D03*
X58500000Y-92250000D03*
X53500000Y-103750000D03*
D17*
X52500000Y-107500000D03*
D16*
X64000000Y-68000000D03*
X56200000Y-90000000D03*
X66500000Y-105500000D03*
D17*
X42500000Y-92500000D03*
D16*
X63600000Y-98000000D03*
X66000000Y-68000000D03*
X83000000Y-91250000D03*
X66000000Y-73000000D03*
D17*
X75000000Y-95000000D03*
D16*
X67000000Y-72000000D03*
X70500000Y-77000000D03*
D17*
X72500000Y-107500000D03*
X42500000Y-82500000D03*
D16*
X58750000Y-77000000D03*
X59500000Y-77000000D03*
X83000000Y-83827000D03*
D17*
X55000000Y-100000000D03*
D16*
X65000000Y-92000000D03*
D17*
X45000000Y-90000000D03*
D16*
X67000000Y-67000000D03*
X58500000Y-66000000D03*
D17*
X84500000Y-70100000D03*
D16*
X69600000Y-79000000D03*
D17*
X67500000Y-107500000D03*
X45000000Y-85000000D03*
D16*
X62000000Y-75000000D03*
X59500000Y-76250000D03*
D17*
X45000000Y-95000000D03*
D16*
X65000000Y-72000000D03*
D17*
X85000000Y-85000000D03*
X70000000Y-85000000D03*
D16*
X63000000Y-72000000D03*
X55500000Y-102500000D03*
D17*
X47500000Y-92500000D03*
X55000000Y-75000000D03*
D16*
X83000000Y-85000000D03*
X62000000Y-73000000D03*
D17*
X65000000Y-85000000D03*
D16*
X71250000Y-65250000D03*
X66000000Y-66000000D03*
X68000000Y-66750000D03*
D17*
X55000000Y-105000000D03*
X85000000Y-90000000D03*
D16*
X78750000Y-75250000D03*
X59500000Y-94750000D03*
D17*
X87500000Y-87500000D03*
D16*
X58500000Y-94750000D03*
X69000000Y-77000000D03*
D17*
X57500000Y-107500000D03*
D16*
X69500000Y-105000000D03*
D17*
X55000000Y-85000000D03*
D16*
X83010002Y-87750000D03*
X76100000Y-82300000D03*
X68000000Y-66000000D03*
D17*
X87500000Y-70100000D03*
X85000000Y-75000000D03*
X87500000Y-92500000D03*
X50000000Y-75000000D03*
D16*
X65000000Y-74000000D03*
X61250000Y-66000000D03*
%TO.N,+3.3V*%
X81000000Y-90500000D03*
D17*
X66947500Y-79752500D03*
D16*
X52250000Y-70750000D03*
X59500000Y-91000000D03*
X60500000Y-90000000D03*
X56600000Y-74000000D03*
X78500000Y-88500000D03*
X78000000Y-87800000D03*
X52250000Y-69250000D03*
X81000000Y-79500000D03*
X71500000Y-75500000D03*
X71500000Y-70750000D03*
X76000000Y-102250000D03*
X76750000Y-75250000D03*
X59500000Y-90000000D03*
X52250000Y-67750000D03*
X73250000Y-66500000D03*
X75500000Y-88500000D03*
D17*
X44750000Y-80000000D03*
D16*
X56600000Y-75000000D03*
X52250000Y-66250000D03*
X60000000Y-90500000D03*
X77750000Y-75250000D03*
X78000000Y-79300000D03*
X60500000Y-91000000D03*
%TO.N,/MCU/PRESEN.A*%
X79500000Y-88200000D03*
X60300000Y-73300000D03*
%TO.N,/Board Perhipherals/~{RESET}*%
X68000000Y-72400000D03*
X77800000Y-72400000D03*
%TO.N,+1.8V*%
X67750000Y-90750000D03*
X80977156Y-89250001D03*
X80977156Y-80750001D03*
%TO.N,/MCU/I2C.EN*%
X71100000Y-76500000D03*
X68100000Y-74000000D03*
%TO.N,/MCU/BATT_SENSE*%
X59000000Y-72000000D03*
X58100000Y-89400000D03*
%TO.N,/MCU/DEBUG_LED2*%
X70400000Y-70400000D03*
X58750000Y-68000000D03*
%TO.N,/Board Perhipherals/SPI.CS*%
X66000000Y-78000000D03*
X67000000Y-74600000D03*
%TO.N,/Board Perhipherals/SPI.CLK*%
X66200000Y-74600000D03*
X63800000Y-77000000D03*
%TO.N,/Board Perhipherals/SPI.SDO*%
X64600000Y-74600000D03*
X62600000Y-76900000D03*
%TO.N,/MCU/DEBUG_LED3*%
X70400000Y-69699997D03*
X58750000Y-67000000D03*
%TO.N,/MCU/PRESEN.B*%
X61200000Y-72900000D03*
X79300000Y-81700000D03*
%TO.N,/MCU/I2C.~{RST}*%
X80250000Y-82250000D03*
X80250000Y-87750000D03*
X68100000Y-73200000D03*
X76250000Y-73200000D03*
%TO.N,/MCU/DEBUG_LED0*%
X58750000Y-70000000D03*
X68000000Y-71400000D03*
%TO.N,/MCU/DEBUG_LED1*%
X58750000Y-69000000D03*
X68000000Y-70600000D03*
%TO.N,/Board Perhipherals/SWD.IO*%
X77000000Y-66500000D03*
X72000000Y-67000000D03*
%TO.N,/Board Perhipherals/SWD.CLK*%
X77000000Y-67750000D03*
X70250000Y-66250000D03*
%TD*%
%TA.AperFunction,Conductor*%
%TO.N,+3.3V*%
G36*
X41492539Y-65019685D02*
G01*
X41538294Y-65072489D01*
X41549500Y-65124000D01*
X41549500Y-65169508D01*
X41582729Y-65506901D01*
X41648870Y-65839410D01*
X41747284Y-66163841D01*
X41827131Y-66356608D01*
X41873124Y-66467646D01*
X41877024Y-66477060D01*
X41877026Y-66477065D01*
X42036831Y-66776039D01*
X42036842Y-66776057D01*
X42225184Y-67057930D01*
X42225194Y-67057944D01*
X42440269Y-67320014D01*
X42679985Y-67559730D01*
X42679990Y-67559734D01*
X42679991Y-67559735D01*
X42942061Y-67774810D01*
X43223949Y-67963162D01*
X43223958Y-67963167D01*
X43223960Y-67963168D01*
X43522934Y-68122973D01*
X43522936Y-68122973D01*
X43522942Y-68122977D01*
X43836160Y-68252716D01*
X44160586Y-68351129D01*
X44493096Y-68417270D01*
X44830488Y-68450500D01*
X44830491Y-68450500D01*
X45169509Y-68450500D01*
X45169512Y-68450500D01*
X45506904Y-68417270D01*
X45839414Y-68351129D01*
X46163840Y-68252716D01*
X46477058Y-68122977D01*
X46776051Y-67963162D01*
X47057939Y-67774810D01*
X47320009Y-67559735D01*
X47559735Y-67320009D01*
X47774810Y-67057939D01*
X47963162Y-66776051D01*
X48122977Y-66477058D01*
X48252716Y-66163840D01*
X48351129Y-65839414D01*
X48417270Y-65506904D01*
X48450500Y-65169512D01*
X48450500Y-65124000D01*
X48470185Y-65056961D01*
X48522989Y-65011206D01*
X48574500Y-65000000D01*
X57887232Y-65000000D01*
X57954271Y-65019685D01*
X58000026Y-65072489D01*
X58009970Y-65141647D01*
X58007009Y-65156082D01*
X57999500Y-65184108D01*
X57999500Y-65315892D01*
X57999500Y-65315893D01*
X58033609Y-65443188D01*
X58033609Y-65443189D01*
X58102782Y-65563000D01*
X58119255Y-65630900D01*
X58102782Y-65687000D01*
X58033609Y-65806810D01*
X58033609Y-65806811D01*
X58033609Y-65806812D01*
X58033608Y-65806814D01*
X58022170Y-65849502D01*
X57999500Y-65934108D01*
X57999500Y-66065891D01*
X58033608Y-66193187D01*
X58066554Y-66250250D01*
X58099500Y-66307314D01*
X58192686Y-66400500D01*
X58306814Y-66466392D01*
X58311497Y-66467646D01*
X58371156Y-66504012D01*
X58401685Y-66566859D01*
X58393390Y-66636234D01*
X58367085Y-66675100D01*
X58349503Y-66692682D01*
X58349500Y-66692686D01*
X58283608Y-66806812D01*
X58249500Y-66934108D01*
X58249500Y-67065891D01*
X58283608Y-67193187D01*
X58297005Y-67216391D01*
X58349500Y-67307314D01*
X58349502Y-67307316D01*
X58442687Y-67400501D01*
X58444158Y-67401630D01*
X58445083Y-67402897D01*
X58448433Y-67406247D01*
X58447910Y-67406769D01*
X58485356Y-67458060D01*
X58489506Y-67527807D01*
X58455289Y-67588725D01*
X58444158Y-67598370D01*
X58442687Y-67599498D01*
X58349502Y-67692683D01*
X58349500Y-67692686D01*
X58283608Y-67806812D01*
X58249500Y-67934108D01*
X58249500Y-68065891D01*
X58283608Y-68193187D01*
X58297005Y-68216391D01*
X58349500Y-68307314D01*
X58349502Y-68307316D01*
X58442687Y-68400501D01*
X58444158Y-68401630D01*
X58445083Y-68402897D01*
X58448433Y-68406247D01*
X58447910Y-68406769D01*
X58485356Y-68458060D01*
X58489506Y-68527807D01*
X58455289Y-68588725D01*
X58444158Y-68598370D01*
X58442687Y-68599498D01*
X58349502Y-68692683D01*
X58349500Y-68692686D01*
X58283608Y-68806812D01*
X58249500Y-68934108D01*
X58249500Y-69065891D01*
X58283608Y-69193187D01*
X58306944Y-69233605D01*
X58349500Y-69307314D01*
X58349502Y-69307316D01*
X58442687Y-69400501D01*
X58444158Y-69401630D01*
X58445083Y-69402897D01*
X58448433Y-69406247D01*
X58447910Y-69406769D01*
X58485356Y-69458060D01*
X58489506Y-69527807D01*
X58455289Y-69588725D01*
X58444158Y-69598370D01*
X58442687Y-69599498D01*
X58349502Y-69692683D01*
X58349500Y-69692686D01*
X58283608Y-69806812D01*
X58261984Y-69887515D01*
X58249500Y-69934108D01*
X58249500Y-70065892D01*
X58258505Y-70099500D01*
X58283608Y-70193187D01*
X58291474Y-70206811D01*
X58349500Y-70307314D01*
X58442686Y-70400500D01*
X58541521Y-70457563D01*
X58555944Y-70465890D01*
X58556814Y-70466392D01*
X58684108Y-70500500D01*
X58684110Y-70500500D01*
X58815890Y-70500500D01*
X58815892Y-70500500D01*
X58943186Y-70466392D01*
X59057314Y-70400500D01*
X59150500Y-70307314D01*
X59216392Y-70193186D01*
X59250500Y-70065892D01*
X59250500Y-69934108D01*
X59216392Y-69806814D01*
X59150500Y-69692686D01*
X59091919Y-69634105D01*
X69899500Y-69634105D01*
X69899500Y-69765889D01*
X69932089Y-69887515D01*
X69933609Y-69893185D01*
X69933609Y-69893186D01*
X69988349Y-69987998D01*
X70004822Y-70055898D01*
X69988349Y-70111998D01*
X69933609Y-70206810D01*
X69933609Y-70206811D01*
X69899500Y-70334108D01*
X69899500Y-70465891D01*
X69933608Y-70593187D01*
X69945037Y-70612982D01*
X69999500Y-70707314D01*
X70092686Y-70800500D01*
X70206814Y-70866392D01*
X70334108Y-70900500D01*
X70334110Y-70900500D01*
X70465890Y-70900500D01*
X70465892Y-70900500D01*
X70593186Y-70866392D01*
X70707314Y-70800500D01*
X70800500Y-70707314D01*
X70866392Y-70593186D01*
X70900500Y-70465892D01*
X70900500Y-70334108D01*
X70866392Y-70206814D01*
X70862170Y-70199502D01*
X70811650Y-70111998D01*
X70808819Y-70100331D01*
X70801857Y-70090554D01*
X70800735Y-70067008D01*
X70795177Y-70044098D01*
X70799020Y-70031009D01*
X70798854Y-70027525D01*
X83949500Y-70027525D01*
X83949500Y-70172475D01*
X83985631Y-70307316D01*
X83987017Y-70312488D01*
X84059488Y-70438011D01*
X84059490Y-70438013D01*
X84059491Y-70438015D01*
X84161985Y-70540509D01*
X84161986Y-70540510D01*
X84161988Y-70540511D01*
X84287511Y-70612982D01*
X84287512Y-70612982D01*
X84287515Y-70612984D01*
X84427525Y-70650500D01*
X84427528Y-70650500D01*
X84572472Y-70650500D01*
X84572475Y-70650500D01*
X84712485Y-70612984D01*
X84838015Y-70540509D01*
X84940509Y-70438015D01*
X85012984Y-70312485D01*
X85050500Y-70172475D01*
X85050500Y-70027525D01*
X86949500Y-70027525D01*
X86949500Y-70172475D01*
X86985631Y-70307316D01*
X86987017Y-70312488D01*
X87059488Y-70438011D01*
X87059490Y-70438013D01*
X87059491Y-70438015D01*
X87161985Y-70540509D01*
X87161986Y-70540510D01*
X87161988Y-70540511D01*
X87287511Y-70612982D01*
X87287512Y-70612982D01*
X87287515Y-70612984D01*
X87427525Y-70650500D01*
X87427528Y-70650500D01*
X87572472Y-70650500D01*
X87572475Y-70650500D01*
X87712485Y-70612984D01*
X87838015Y-70540509D01*
X87940509Y-70438015D01*
X88012984Y-70312485D01*
X88050500Y-70172475D01*
X88050500Y-70027525D01*
X88012984Y-69887515D01*
X87966389Y-69806811D01*
X87940511Y-69761988D01*
X87940506Y-69761982D01*
X87838017Y-69659493D01*
X87838011Y-69659488D01*
X87712488Y-69587017D01*
X87712489Y-69587017D01*
X87701006Y-69583940D01*
X87572475Y-69549500D01*
X87427525Y-69549500D01*
X87298993Y-69583940D01*
X87287511Y-69587017D01*
X87161988Y-69659488D01*
X87161982Y-69659493D01*
X87059493Y-69761982D01*
X87059488Y-69761988D01*
X86987017Y-69887511D01*
X86987016Y-69887515D01*
X86949500Y-70027525D01*
X85050500Y-70027525D01*
X85012984Y-69887515D01*
X84966389Y-69806811D01*
X84940511Y-69761988D01*
X84940506Y-69761982D01*
X84838017Y-69659493D01*
X84838011Y-69659488D01*
X84712488Y-69587017D01*
X84712489Y-69587017D01*
X84701006Y-69583940D01*
X84572475Y-69549500D01*
X84427525Y-69549500D01*
X84298993Y-69583940D01*
X84287511Y-69587017D01*
X84161988Y-69659488D01*
X84161982Y-69659493D01*
X84059493Y-69761982D01*
X84059488Y-69761988D01*
X83987017Y-69887511D01*
X83987016Y-69887515D01*
X83949500Y-70027525D01*
X70798854Y-70027525D01*
X70798532Y-70020764D01*
X70811650Y-69987998D01*
X70829317Y-69957398D01*
X70866392Y-69893183D01*
X70900500Y-69765889D01*
X70900500Y-69634105D01*
X70866392Y-69506811D01*
X70800500Y-69392683D01*
X70707314Y-69299497D01*
X70650250Y-69266551D01*
X70593187Y-69233605D01*
X70529539Y-69216551D01*
X70465892Y-69199497D01*
X70334108Y-69199497D01*
X70206812Y-69233605D01*
X70092686Y-69299497D01*
X70092683Y-69299499D01*
X69999502Y-69392680D01*
X69999500Y-69392683D01*
X69933608Y-69506809D01*
X69918432Y-69563449D01*
X69899500Y-69634105D01*
X59091919Y-69634105D01*
X59057314Y-69599500D01*
X59052573Y-69596763D01*
X59042904Y-69586926D01*
X59030345Y-69563449D01*
X59014645Y-69541947D01*
X59014119Y-69533116D01*
X59009947Y-69525317D01*
X59012073Y-69498779D01*
X59010491Y-69472201D01*
X59014822Y-69464488D01*
X59015529Y-69455671D01*
X59031667Y-69434493D01*
X59044704Y-69411281D01*
X59055847Y-69401625D01*
X59057306Y-69400504D01*
X59057314Y-69400500D01*
X59150500Y-69307314D01*
X59216392Y-69193186D01*
X59250500Y-69065892D01*
X59250500Y-68934108D01*
X59216392Y-68806814D01*
X59150500Y-68692686D01*
X59057314Y-68599500D01*
X59057311Y-68599498D01*
X59055847Y-68598375D01*
X59054921Y-68597107D01*
X59051567Y-68593753D01*
X59052090Y-68593229D01*
X59014645Y-68541947D01*
X59010491Y-68472201D01*
X59044704Y-68411281D01*
X59055847Y-68401625D01*
X59057306Y-68400504D01*
X59057314Y-68400500D01*
X59150500Y-68307314D01*
X59216392Y-68193186D01*
X59250500Y-68065892D01*
X59250500Y-67934108D01*
X61499500Y-67934108D01*
X61499500Y-68065891D01*
X61533608Y-68193187D01*
X61547005Y-68216391D01*
X61599500Y-68307314D01*
X61692686Y-68400500D01*
X61806814Y-68466392D01*
X61934108Y-68500500D01*
X61934110Y-68500500D01*
X62065890Y-68500500D01*
X62065892Y-68500500D01*
X62193186Y-68466392D01*
X62307314Y-68400500D01*
X62400500Y-68307314D01*
X62466392Y-68193186D01*
X62500500Y-68065892D01*
X62500500Y-67934108D01*
X63499500Y-67934108D01*
X63499500Y-68065891D01*
X63533608Y-68193187D01*
X63547005Y-68216391D01*
X63599500Y-68307314D01*
X63692686Y-68400500D01*
X63806814Y-68466392D01*
X63934108Y-68500500D01*
X63934110Y-68500500D01*
X64065890Y-68500500D01*
X64065892Y-68500500D01*
X64193186Y-68466392D01*
X64307314Y-68400500D01*
X64400500Y-68307314D01*
X64466392Y-68193186D01*
X64500500Y-68065892D01*
X64500500Y-67934108D01*
X65499500Y-67934108D01*
X65499500Y-68065891D01*
X65533608Y-68193187D01*
X65547005Y-68216391D01*
X65599500Y-68307314D01*
X65692686Y-68400500D01*
X65806814Y-68466392D01*
X65934108Y-68500500D01*
X65934110Y-68500500D01*
X66065890Y-68500500D01*
X66065892Y-68500500D01*
X66193186Y-68466392D01*
X66307314Y-68400500D01*
X66400500Y-68307314D01*
X66466392Y-68193186D01*
X66500500Y-68065892D01*
X66500500Y-67934108D01*
X66466392Y-67806814D01*
X66400500Y-67692686D01*
X66391922Y-67684108D01*
X76499500Y-67684108D01*
X76499500Y-67815891D01*
X76533608Y-67943187D01*
X76566554Y-68000250D01*
X76599500Y-68057314D01*
X76692686Y-68150500D01*
X76806814Y-68216392D01*
X76934108Y-68250500D01*
X76934110Y-68250500D01*
X77065890Y-68250500D01*
X77065892Y-68250500D01*
X77193186Y-68216392D01*
X77307314Y-68150500D01*
X77400500Y-68057314D01*
X77466392Y-67943186D01*
X77500500Y-67815892D01*
X77500500Y-67684108D01*
X77466392Y-67556814D01*
X77400500Y-67442686D01*
X77307314Y-67349500D01*
X77250250Y-67316554D01*
X77193187Y-67283608D01*
X77129539Y-67266554D01*
X77065892Y-67249500D01*
X76934108Y-67249500D01*
X76806812Y-67283608D01*
X76692686Y-67349500D01*
X76692683Y-67349502D01*
X76599502Y-67442683D01*
X76599500Y-67442686D01*
X76533608Y-67556812D01*
X76499500Y-67684108D01*
X66391922Y-67684108D01*
X66307314Y-67599500D01*
X66233380Y-67556814D01*
X66193187Y-67533608D01*
X66129539Y-67516554D01*
X66065892Y-67499500D01*
X65934108Y-67499500D01*
X65806812Y-67533608D01*
X65692686Y-67599500D01*
X65692683Y-67599502D01*
X65599502Y-67692683D01*
X65599500Y-67692686D01*
X65533608Y-67806812D01*
X65499500Y-67934108D01*
X64500500Y-67934108D01*
X64466392Y-67806814D01*
X64400500Y-67692686D01*
X64307314Y-67599500D01*
X64233380Y-67556814D01*
X64193187Y-67533608D01*
X64129539Y-67516554D01*
X64065892Y-67499500D01*
X63934108Y-67499500D01*
X63806812Y-67533608D01*
X63692686Y-67599500D01*
X63692683Y-67599502D01*
X63599502Y-67692683D01*
X63599500Y-67692686D01*
X63533608Y-67806812D01*
X63499500Y-67934108D01*
X62500500Y-67934108D01*
X62466392Y-67806814D01*
X62400500Y-67692686D01*
X62307314Y-67599500D01*
X62233380Y-67556814D01*
X62193187Y-67533608D01*
X62129539Y-67516554D01*
X62065892Y-67499500D01*
X61934108Y-67499500D01*
X61806812Y-67533608D01*
X61692686Y-67599500D01*
X61692683Y-67599502D01*
X61599502Y-67692683D01*
X61599500Y-67692686D01*
X61533608Y-67806812D01*
X61499500Y-67934108D01*
X59250500Y-67934108D01*
X59216392Y-67806814D01*
X59150500Y-67692686D01*
X59057314Y-67599500D01*
X59057311Y-67599498D01*
X59055847Y-67598375D01*
X59054921Y-67597107D01*
X59051567Y-67593753D01*
X59052090Y-67593229D01*
X59014645Y-67541947D01*
X59010491Y-67472201D01*
X59044704Y-67411281D01*
X59055847Y-67401625D01*
X59057306Y-67400504D01*
X59057314Y-67400500D01*
X59150500Y-67307314D01*
X59216392Y-67193186D01*
X59250500Y-67065892D01*
X59250500Y-66934108D01*
X59216392Y-66806814D01*
X59150500Y-66692686D01*
X59067557Y-66609743D01*
X59034072Y-66548420D01*
X59039056Y-66478728D01*
X59080928Y-66422795D01*
X59146392Y-66398378D01*
X59214665Y-66413230D01*
X59217194Y-66414649D01*
X59266622Y-66443187D01*
X59306810Y-66466390D01*
X59306814Y-66466392D01*
X59434108Y-66500500D01*
X59434110Y-66500500D01*
X59565890Y-66500500D01*
X59565892Y-66500500D01*
X59693186Y-66466392D01*
X59807314Y-66400500D01*
X59900500Y-66307314D01*
X59966392Y-66193186D01*
X60000500Y-66065892D01*
X60000500Y-65934108D01*
X59966392Y-65806814D01*
X59900500Y-65692686D01*
X59900498Y-65692684D01*
X59897217Y-65687001D01*
X59880744Y-65619101D01*
X59897217Y-65562999D01*
X59900498Y-65557315D01*
X59900500Y-65557314D01*
X59966392Y-65443186D01*
X60000500Y-65315892D01*
X60000500Y-65184108D01*
X59992993Y-65156091D01*
X59994656Y-65086244D01*
X60033818Y-65028381D01*
X60098047Y-65000877D01*
X60112768Y-65000000D01*
X60637232Y-65000000D01*
X60704271Y-65019685D01*
X60750026Y-65072489D01*
X60759970Y-65141647D01*
X60757009Y-65156082D01*
X60749500Y-65184108D01*
X60749500Y-65315892D01*
X60749500Y-65315893D01*
X60783609Y-65443188D01*
X60783609Y-65443189D01*
X60852782Y-65563000D01*
X60869255Y-65630900D01*
X60852782Y-65687000D01*
X60783609Y-65806810D01*
X60783609Y-65806811D01*
X60783609Y-65806812D01*
X60783608Y-65806814D01*
X60749500Y-65934108D01*
X60749500Y-66065892D01*
X60783473Y-66192683D01*
X60783609Y-66193188D01*
X60783609Y-66193189D01*
X60852782Y-66313000D01*
X60869255Y-66380900D01*
X60852782Y-66437000D01*
X60783609Y-66556810D01*
X60783609Y-66556811D01*
X60783609Y-66556812D01*
X60783608Y-66556814D01*
X60767459Y-66617083D01*
X60749500Y-66684108D01*
X60749500Y-66815891D01*
X60783608Y-66943187D01*
X60797005Y-66966391D01*
X60849500Y-67057314D01*
X60942686Y-67150500D01*
X61056814Y-67216392D01*
X61184108Y-67250500D01*
X61184110Y-67250500D01*
X61315890Y-67250500D01*
X61315892Y-67250500D01*
X61443186Y-67216392D01*
X61557314Y-67150500D01*
X61650500Y-67057314D01*
X61716392Y-66943186D01*
X61718824Y-66934108D01*
X62499500Y-66934108D01*
X62499500Y-67065891D01*
X62533608Y-67193187D01*
X62547005Y-67216391D01*
X62599500Y-67307314D01*
X62692686Y-67400500D01*
X62806814Y-67466392D01*
X62934108Y-67500500D01*
X62934110Y-67500500D01*
X63065890Y-67500500D01*
X63065892Y-67500500D01*
X63193186Y-67466392D01*
X63307314Y-67400500D01*
X63400500Y-67307314D01*
X63466392Y-67193186D01*
X63500500Y-67065892D01*
X63500500Y-66934108D01*
X64499500Y-66934108D01*
X64499500Y-67065891D01*
X64533608Y-67193187D01*
X64547005Y-67216391D01*
X64599500Y-67307314D01*
X64692686Y-67400500D01*
X64806814Y-67466392D01*
X64934108Y-67500500D01*
X64934110Y-67500500D01*
X65065890Y-67500500D01*
X65065892Y-67500500D01*
X65193186Y-67466392D01*
X65307314Y-67400500D01*
X65400500Y-67307314D01*
X65466392Y-67193186D01*
X65500500Y-67065892D01*
X65500500Y-66934108D01*
X65466392Y-66806814D01*
X65400500Y-66692686D01*
X65307314Y-66599500D01*
X65249100Y-66565890D01*
X65193187Y-66533608D01*
X65116417Y-66513038D01*
X65065892Y-66499500D01*
X64934108Y-66499500D01*
X64806812Y-66533608D01*
X64692686Y-66599500D01*
X64692683Y-66599502D01*
X64599502Y-66692683D01*
X64599500Y-66692686D01*
X64533608Y-66806812D01*
X64499500Y-66934108D01*
X63500500Y-66934108D01*
X63466392Y-66806814D01*
X63400500Y-66692686D01*
X63307314Y-66599500D01*
X63249100Y-66565890D01*
X63193187Y-66533608D01*
X63116417Y-66513038D01*
X63065892Y-66499500D01*
X62934108Y-66499500D01*
X62806812Y-66533608D01*
X62692686Y-66599500D01*
X62692683Y-66599502D01*
X62599502Y-66692683D01*
X62599500Y-66692686D01*
X62533608Y-66806812D01*
X62499500Y-66934108D01*
X61718824Y-66934108D01*
X61750500Y-66815892D01*
X61750500Y-66684108D01*
X61738882Y-66640748D01*
X61740544Y-66570901D01*
X61779705Y-66513038D01*
X61843934Y-66485533D01*
X61890747Y-66488881D01*
X61934108Y-66500500D01*
X61934110Y-66500500D01*
X62065890Y-66500500D01*
X62065892Y-66500500D01*
X62193186Y-66466392D01*
X62307314Y-66400500D01*
X62400500Y-66307314D01*
X62466392Y-66193186D01*
X62500500Y-66065892D01*
X62500500Y-65934108D01*
X65499500Y-65934108D01*
X65499500Y-66065891D01*
X65533608Y-66193187D01*
X65566554Y-66250250D01*
X65599500Y-66307314D01*
X65692686Y-66400500D01*
X65766622Y-66443187D01*
X65806810Y-66466390D01*
X65806814Y-66466392D01*
X65934108Y-66500500D01*
X65934110Y-66500500D01*
X66065890Y-66500500D01*
X66065892Y-66500500D01*
X66193186Y-66466392D01*
X66307314Y-66400500D01*
X66400500Y-66307314D01*
X66466392Y-66193186D01*
X66500500Y-66065892D01*
X66500500Y-65934108D01*
X66466392Y-65806814D01*
X66400500Y-65692686D01*
X66307314Y-65599500D01*
X66244093Y-65562999D01*
X66193187Y-65533608D01*
X66093513Y-65506901D01*
X66065892Y-65499500D01*
X65934108Y-65499500D01*
X65806812Y-65533608D01*
X65692686Y-65599500D01*
X65692683Y-65599502D01*
X65599502Y-65692683D01*
X65599500Y-65692686D01*
X65533608Y-65806812D01*
X65499500Y-65934108D01*
X62500500Y-65934108D01*
X62466392Y-65806814D01*
X62400500Y-65692686D01*
X62307314Y-65599500D01*
X62244093Y-65562999D01*
X62193187Y-65533608D01*
X62093513Y-65506901D01*
X62065892Y-65499500D01*
X61934108Y-65499500D01*
X61890749Y-65511118D01*
X61820899Y-65509455D01*
X61763037Y-65470292D01*
X61735533Y-65406063D01*
X61738881Y-65359252D01*
X61750500Y-65315892D01*
X61750500Y-65184108D01*
X61742993Y-65156091D01*
X61744656Y-65086244D01*
X61783818Y-65028381D01*
X61848047Y-65000877D01*
X61862768Y-65000000D01*
X67387232Y-65000000D01*
X67454271Y-65019685D01*
X67500026Y-65072489D01*
X67509970Y-65141647D01*
X67507009Y-65156082D01*
X67499500Y-65184108D01*
X67499500Y-65315892D01*
X67499500Y-65315893D01*
X67533609Y-65443188D01*
X67533609Y-65443189D01*
X67602782Y-65563000D01*
X67619255Y-65630900D01*
X67602782Y-65687000D01*
X67533609Y-65806810D01*
X67533609Y-65806811D01*
X67533609Y-65806812D01*
X67533608Y-65806814D01*
X67499500Y-65934108D01*
X67499500Y-66065892D01*
X67533473Y-66192683D01*
X67533609Y-66193188D01*
X67533609Y-66193189D01*
X67602782Y-66313000D01*
X67605155Y-66322785D01*
X67611249Y-66330799D01*
X67613254Y-66356165D01*
X67619255Y-66380900D01*
X67616108Y-66392271D01*
X67616755Y-66400451D01*
X67606218Y-66428010D01*
X67604669Y-66433611D01*
X67600150Y-66442035D01*
X67599500Y-66442686D01*
X67533608Y-66556814D01*
X67528638Y-66575360D01*
X67521852Y-66588013D01*
X67506998Y-66603090D01*
X67495981Y-66621163D01*
X67482968Y-66627482D01*
X67472817Y-66637787D01*
X67452169Y-66642440D01*
X67433131Y-66651687D01*
X67418768Y-66649968D01*
X67404657Y-66653149D01*
X67384770Y-66645900D01*
X67363756Y-66643386D01*
X67347286Y-66632237D01*
X67339012Y-66629222D01*
X67334962Y-66623896D01*
X67324897Y-66617083D01*
X67307316Y-66599502D01*
X67307314Y-66599500D01*
X67249100Y-66565890D01*
X67193187Y-66533608D01*
X67116417Y-66513038D01*
X67065892Y-66499500D01*
X66934108Y-66499500D01*
X66806812Y-66533608D01*
X66692686Y-66599500D01*
X66692683Y-66599502D01*
X66599502Y-66692683D01*
X66599500Y-66692686D01*
X66533608Y-66806812D01*
X66499500Y-66934108D01*
X66499500Y-67065891D01*
X66533608Y-67193187D01*
X66547005Y-67216391D01*
X66599500Y-67307314D01*
X66692686Y-67400500D01*
X66806814Y-67466392D01*
X66934108Y-67500500D01*
X66934110Y-67500500D01*
X67065890Y-67500500D01*
X67065892Y-67500500D01*
X67193186Y-67466392D01*
X67307314Y-67400500D01*
X67400500Y-67307314D01*
X67466392Y-67193186D01*
X67467646Y-67188504D01*
X67504010Y-67128844D01*
X67566856Y-67098314D01*
X67636232Y-67106608D01*
X67675102Y-67132916D01*
X67692686Y-67150500D01*
X67806814Y-67216392D01*
X67934108Y-67250500D01*
X67934110Y-67250500D01*
X68065890Y-67250500D01*
X68065892Y-67250500D01*
X68193186Y-67216392D01*
X68307314Y-67150500D01*
X68400500Y-67057314D01*
X68466392Y-66943186D01*
X68468824Y-66934108D01*
X71499500Y-66934108D01*
X71499500Y-67065891D01*
X71533608Y-67193187D01*
X71547005Y-67216391D01*
X71599500Y-67307314D01*
X71692686Y-67400500D01*
X71806814Y-67466392D01*
X71934108Y-67500500D01*
X71934110Y-67500500D01*
X72065890Y-67500500D01*
X72065892Y-67500500D01*
X72193186Y-67466392D01*
X72307314Y-67400500D01*
X72400500Y-67307314D01*
X72466392Y-67193186D01*
X72500500Y-67065892D01*
X72500500Y-66934108D01*
X72466392Y-66806814D01*
X72400500Y-66692686D01*
X72307314Y-66599500D01*
X72193186Y-66533608D01*
X72065892Y-66499500D01*
X71934108Y-66499500D01*
X71806814Y-66533608D01*
X71806813Y-66533608D01*
X71806811Y-66533609D01*
X71806810Y-66533609D01*
X71722973Y-66582012D01*
X71722961Y-66582020D01*
X71692686Y-66599500D01*
X71675636Y-66616549D01*
X71675633Y-66616552D01*
X71599500Y-66692686D01*
X71533608Y-66806812D01*
X71499500Y-66934108D01*
X68468824Y-66934108D01*
X68500500Y-66815892D01*
X68500500Y-66684108D01*
X68466392Y-66556814D01*
X68400500Y-66442686D01*
X68400498Y-66442684D01*
X68397217Y-66437001D01*
X68380744Y-66369101D01*
X68397217Y-66312999D01*
X68400498Y-66307315D01*
X68400500Y-66307314D01*
X68466392Y-66193186D01*
X68500500Y-66065892D01*
X68500500Y-65934108D01*
X68466392Y-65806814D01*
X68400500Y-65692686D01*
X68400498Y-65692684D01*
X68397217Y-65687001D01*
X68380744Y-65619101D01*
X68397217Y-65562999D01*
X68400498Y-65557315D01*
X68400500Y-65557314D01*
X68466392Y-65443186D01*
X68500500Y-65315892D01*
X68500500Y-65184108D01*
X68492993Y-65156091D01*
X68494656Y-65086244D01*
X68533818Y-65028381D01*
X68598047Y-65000877D01*
X68612768Y-65000000D01*
X69887232Y-65000000D01*
X69954271Y-65019685D01*
X70000026Y-65072489D01*
X70009970Y-65141647D01*
X70007009Y-65156082D01*
X69999500Y-65184108D01*
X69999500Y-65315892D01*
X70000000Y-65317758D01*
X70033608Y-65443187D01*
X70066121Y-65499500D01*
X70099500Y-65557314D01*
X70099502Y-65557316D01*
X70117083Y-65574897D01*
X70150568Y-65636220D01*
X70145584Y-65705912D01*
X70103712Y-65761845D01*
X70061505Y-65782350D01*
X70056817Y-65783606D01*
X70056814Y-65783607D01*
X69942686Y-65849500D01*
X69942683Y-65849502D01*
X69849502Y-65942683D01*
X69849500Y-65942686D01*
X69783608Y-66056812D01*
X69749500Y-66184108D01*
X69749500Y-66315891D01*
X69783608Y-66443187D01*
X69797004Y-66466389D01*
X69849500Y-66557314D01*
X69942686Y-66650500D01*
X70056814Y-66716392D01*
X70184108Y-66750500D01*
X70184110Y-66750500D01*
X70315890Y-66750500D01*
X70315892Y-66750500D01*
X70443186Y-66716392D01*
X70557314Y-66650500D01*
X70650500Y-66557314D01*
X70716392Y-66443186D01*
X70717646Y-66438504D01*
X70754010Y-66378844D01*
X70816856Y-66348314D01*
X70886232Y-66356608D01*
X70925102Y-66382916D01*
X70942686Y-66400500D01*
X71016622Y-66443187D01*
X71056810Y-66466390D01*
X71056814Y-66466392D01*
X71184108Y-66500500D01*
X71184110Y-66500500D01*
X71315890Y-66500500D01*
X71315892Y-66500500D01*
X71443186Y-66466392D01*
X71499103Y-66434108D01*
X76499500Y-66434108D01*
X76499500Y-66565892D01*
X76514310Y-66621163D01*
X76533608Y-66693187D01*
X76547005Y-66716391D01*
X76599500Y-66807314D01*
X76692686Y-66900500D01*
X76806814Y-66966392D01*
X76934108Y-67000500D01*
X76934110Y-67000500D01*
X77065890Y-67000500D01*
X77065892Y-67000500D01*
X77193186Y-66966392D01*
X77307314Y-66900500D01*
X77400500Y-66807314D01*
X77466392Y-66693186D01*
X77500500Y-66565892D01*
X77500500Y-66434108D01*
X77466392Y-66306814D01*
X77400500Y-66192686D01*
X77307314Y-66099500D01*
X77233380Y-66056814D01*
X77193187Y-66033608D01*
X77129539Y-66016554D01*
X77065892Y-65999500D01*
X76934108Y-65999500D01*
X76806812Y-66033608D01*
X76692686Y-66099500D01*
X76692683Y-66099502D01*
X76599502Y-66192683D01*
X76599500Y-66192686D01*
X76533608Y-66306812D01*
X76510710Y-66392271D01*
X76499500Y-66434108D01*
X71499103Y-66434108D01*
X71557314Y-66400500D01*
X71650500Y-66307314D01*
X71716392Y-66193186D01*
X71750500Y-66065892D01*
X71750500Y-65934108D01*
X71716392Y-65806814D01*
X71650500Y-65692686D01*
X71650498Y-65692684D01*
X71647217Y-65687001D01*
X71630744Y-65619101D01*
X71647217Y-65562999D01*
X71650498Y-65557315D01*
X71650500Y-65557314D01*
X71716392Y-65443186D01*
X71750500Y-65315892D01*
X71750500Y-65184108D01*
X71742993Y-65156091D01*
X71744656Y-65086244D01*
X71783818Y-65028381D01*
X71848047Y-65000877D01*
X71862768Y-65000000D01*
X81425500Y-65000000D01*
X81492539Y-65019685D01*
X81538294Y-65072489D01*
X81549500Y-65124000D01*
X81549500Y-65169508D01*
X81582729Y-65506901D01*
X81648870Y-65839410D01*
X81747284Y-66163841D01*
X81827131Y-66356608D01*
X81873124Y-66467646D01*
X81877024Y-66477060D01*
X81877026Y-66477065D01*
X82036831Y-66776039D01*
X82036842Y-66776057D01*
X82225184Y-67057930D01*
X82225194Y-67057944D01*
X82440269Y-67320014D01*
X82679985Y-67559730D01*
X82679990Y-67559734D01*
X82679991Y-67559735D01*
X82942061Y-67774810D01*
X83223949Y-67963162D01*
X83223958Y-67963167D01*
X83223960Y-67963168D01*
X83522934Y-68122973D01*
X83522936Y-68122973D01*
X83522942Y-68122977D01*
X83836160Y-68252716D01*
X84160586Y-68351129D01*
X84493096Y-68417270D01*
X84830488Y-68450500D01*
X84830491Y-68450500D01*
X85169509Y-68450500D01*
X85169512Y-68450500D01*
X85506904Y-68417270D01*
X85839414Y-68351129D01*
X86163840Y-68252716D01*
X86477058Y-68122977D01*
X86776051Y-67963162D01*
X87057939Y-67774810D01*
X87320009Y-67559735D01*
X87559735Y-67320009D01*
X87774810Y-67057939D01*
X87963162Y-66776051D01*
X88122977Y-66477058D01*
X88252716Y-66163840D01*
X88351129Y-65839414D01*
X88417270Y-65506904D01*
X88450500Y-65169512D01*
X88450500Y-65124000D01*
X88470185Y-65056961D01*
X88522989Y-65011206D01*
X88574500Y-65000000D01*
X89375500Y-65000000D01*
X89442539Y-65019685D01*
X89488294Y-65072489D01*
X89499500Y-65124000D01*
X89499500Y-106996249D01*
X89499274Y-107003736D01*
X89481728Y-107293794D01*
X89479923Y-107308659D01*
X89428219Y-107590797D01*
X89424635Y-107605335D01*
X89339304Y-107879174D01*
X89333994Y-107893176D01*
X89216277Y-108154730D01*
X89209319Y-108167987D01*
X89060928Y-108413458D01*
X89052422Y-108425782D01*
X88875525Y-108651573D01*
X88865595Y-108662781D01*
X88662781Y-108865595D01*
X88651573Y-108875525D01*
X88425782Y-109052422D01*
X88413458Y-109060928D01*
X88167987Y-109209319D01*
X88154730Y-109216277D01*
X87893176Y-109333994D01*
X87879174Y-109339304D01*
X87605335Y-109424635D01*
X87590797Y-109428219D01*
X87308659Y-109479923D01*
X87293794Y-109481728D01*
X87003736Y-109499274D01*
X86996249Y-109499500D01*
X43003751Y-109499500D01*
X42996264Y-109499274D01*
X42706205Y-109481728D01*
X42691340Y-109479923D01*
X42409202Y-109428219D01*
X42394664Y-109424635D01*
X42120825Y-109339304D01*
X42106827Y-109333995D01*
X41954096Y-109265256D01*
X41845269Y-109216277D01*
X41832012Y-109209319D01*
X41586541Y-109060928D01*
X41574217Y-109052422D01*
X41348426Y-108875525D01*
X41337218Y-108865595D01*
X41134404Y-108662781D01*
X41124474Y-108651573D01*
X41050628Y-108557316D01*
X40947573Y-108425776D01*
X40939071Y-108413458D01*
X40790680Y-108167987D01*
X40783722Y-108154730D01*
X40769430Y-108122975D01*
X40666000Y-107893163D01*
X40660698Y-107879182D01*
X40575363Y-107605334D01*
X40571780Y-107590797D01*
X40557752Y-107514250D01*
X40520075Y-107308657D01*
X40518271Y-107293794D01*
X40500726Y-107003736D01*
X40500500Y-106996249D01*
X40500500Y-104830488D01*
X41549500Y-104830488D01*
X41549500Y-105169512D01*
X41553733Y-105212488D01*
X41582729Y-105506901D01*
X41642486Y-105807314D01*
X41648871Y-105839414D01*
X41667400Y-105900497D01*
X41747284Y-106163841D01*
X41764056Y-106204332D01*
X41864382Y-106446541D01*
X41877024Y-106477060D01*
X41877026Y-106477065D01*
X42036831Y-106776039D01*
X42036842Y-106776057D01*
X42225184Y-107057930D01*
X42225194Y-107057944D01*
X42440269Y-107320014D01*
X42679985Y-107559730D01*
X42679990Y-107559734D01*
X42679991Y-107559735D01*
X42942061Y-107774810D01*
X43223949Y-107963162D01*
X43223958Y-107963167D01*
X43223960Y-107963168D01*
X43522934Y-108122973D01*
X43522936Y-108122973D01*
X43522942Y-108122977D01*
X43836160Y-108252716D01*
X44160586Y-108351129D01*
X44493096Y-108417270D01*
X44830488Y-108450500D01*
X44830491Y-108450500D01*
X45169509Y-108450500D01*
X45169512Y-108450500D01*
X45506904Y-108417270D01*
X45839414Y-108351129D01*
X46163840Y-108252716D01*
X46329475Y-108184108D01*
X73499500Y-108184108D01*
X73499500Y-108315891D01*
X73533608Y-108443187D01*
X73565522Y-108498462D01*
X73599500Y-108557314D01*
X73692686Y-108650500D01*
X73806814Y-108716392D01*
X73934108Y-108750500D01*
X73934110Y-108750500D01*
X74065890Y-108750500D01*
X74065892Y-108750500D01*
X74193186Y-108716392D01*
X74307314Y-108650500D01*
X74400500Y-108557314D01*
X74466392Y-108443186D01*
X74500500Y-108315892D01*
X74500500Y-108184108D01*
X75499500Y-108184108D01*
X75499500Y-108315891D01*
X75533608Y-108443187D01*
X75565522Y-108498462D01*
X75599500Y-108557314D01*
X75692686Y-108650500D01*
X75806814Y-108716392D01*
X75934108Y-108750500D01*
X75934110Y-108750500D01*
X76065890Y-108750500D01*
X76065892Y-108750500D01*
X76193186Y-108716392D01*
X76307314Y-108650500D01*
X76400500Y-108557314D01*
X76466392Y-108443186D01*
X76500500Y-108315892D01*
X76500500Y-108184108D01*
X77499500Y-108184108D01*
X77499500Y-108315891D01*
X77533608Y-108443187D01*
X77565522Y-108498462D01*
X77599500Y-108557314D01*
X77692686Y-108650500D01*
X77806814Y-108716392D01*
X77934108Y-108750500D01*
X77934110Y-108750500D01*
X78065890Y-108750500D01*
X78065892Y-108750500D01*
X78193186Y-108716392D01*
X78307314Y-108650500D01*
X78400500Y-108557314D01*
X78466392Y-108443186D01*
X78500500Y-108315892D01*
X78500500Y-108184108D01*
X78466392Y-108056814D01*
X78400500Y-107942686D01*
X78307314Y-107849500D01*
X78250250Y-107816554D01*
X78193187Y-107783608D01*
X78129539Y-107766554D01*
X78065892Y-107749500D01*
X77934108Y-107749500D01*
X77806812Y-107783608D01*
X77692686Y-107849500D01*
X77692683Y-107849502D01*
X77599502Y-107942683D01*
X77599500Y-107942686D01*
X77533608Y-108056812D01*
X77499500Y-108184108D01*
X76500500Y-108184108D01*
X76466392Y-108056814D01*
X76400500Y-107942686D01*
X76307314Y-107849500D01*
X76250250Y-107816554D01*
X76193187Y-107783608D01*
X76129539Y-107766554D01*
X76065892Y-107749500D01*
X75934108Y-107749500D01*
X75806812Y-107783608D01*
X75692686Y-107849500D01*
X75692683Y-107849502D01*
X75599502Y-107942683D01*
X75599500Y-107942686D01*
X75533608Y-108056812D01*
X75499500Y-108184108D01*
X74500500Y-108184108D01*
X74466392Y-108056814D01*
X74400500Y-107942686D01*
X74307314Y-107849500D01*
X74250250Y-107816554D01*
X74193187Y-107783608D01*
X74129539Y-107766554D01*
X74065892Y-107749500D01*
X73934108Y-107749500D01*
X73806812Y-107783608D01*
X73692686Y-107849500D01*
X73692683Y-107849502D01*
X73599502Y-107942683D01*
X73599500Y-107942686D01*
X73533608Y-108056812D01*
X73499500Y-108184108D01*
X46329475Y-108184108D01*
X46477058Y-108122977D01*
X46510889Y-108104893D01*
X46582490Y-108066623D01*
X46692645Y-108007743D01*
X46776051Y-107963162D01*
X47057939Y-107774810D01*
X47320009Y-107559735D01*
X47365494Y-107514250D01*
X47452219Y-107427525D01*
X51949500Y-107427525D01*
X51949500Y-107572475D01*
X51987016Y-107712485D01*
X51987017Y-107712488D01*
X52059488Y-107838011D01*
X52059490Y-107838013D01*
X52059491Y-107838015D01*
X52161985Y-107940509D01*
X52161986Y-107940510D01*
X52161988Y-107940511D01*
X52287511Y-108012982D01*
X52287512Y-108012982D01*
X52287515Y-108012984D01*
X52427525Y-108050500D01*
X52427528Y-108050500D01*
X52572472Y-108050500D01*
X52572475Y-108050500D01*
X52712485Y-108012984D01*
X52838015Y-107940509D01*
X52940509Y-107838015D01*
X53012984Y-107712485D01*
X53050500Y-107572475D01*
X53050500Y-107427525D01*
X56949500Y-107427525D01*
X56949500Y-107572475D01*
X56987016Y-107712485D01*
X56987017Y-107712488D01*
X57059488Y-107838011D01*
X57059490Y-107838013D01*
X57059491Y-107838015D01*
X57161985Y-107940509D01*
X57161986Y-107940510D01*
X57161988Y-107940511D01*
X57287511Y-108012982D01*
X57287512Y-108012982D01*
X57287515Y-108012984D01*
X57427525Y-108050500D01*
X57427528Y-108050500D01*
X57572472Y-108050500D01*
X57572475Y-108050500D01*
X57712485Y-108012984D01*
X57838015Y-107940509D01*
X57940509Y-107838015D01*
X58012984Y-107712485D01*
X58050500Y-107572475D01*
X58050500Y-107427525D01*
X61949500Y-107427525D01*
X61949500Y-107572475D01*
X61987016Y-107712485D01*
X61987017Y-107712488D01*
X62059488Y-107838011D01*
X62059490Y-107838013D01*
X62059491Y-107838015D01*
X62161985Y-107940509D01*
X62161986Y-107940510D01*
X62161988Y-107940511D01*
X62287511Y-108012982D01*
X62287512Y-108012982D01*
X62287515Y-108012984D01*
X62427525Y-108050500D01*
X62427528Y-108050500D01*
X62572472Y-108050500D01*
X62572475Y-108050500D01*
X62712485Y-108012984D01*
X62838015Y-107940509D01*
X62940509Y-107838015D01*
X63012984Y-107712485D01*
X63050500Y-107572475D01*
X63050500Y-107427525D01*
X66949500Y-107427525D01*
X66949500Y-107572475D01*
X66987016Y-107712485D01*
X66987017Y-107712488D01*
X67059488Y-107838011D01*
X67059490Y-107838013D01*
X67059491Y-107838015D01*
X67161985Y-107940509D01*
X67161986Y-107940510D01*
X67161988Y-107940511D01*
X67287511Y-108012982D01*
X67287512Y-108012982D01*
X67287515Y-108012984D01*
X67427525Y-108050500D01*
X67427528Y-108050500D01*
X67572472Y-108050500D01*
X67572475Y-108050500D01*
X67712485Y-108012984D01*
X67838015Y-107940509D01*
X67940509Y-107838015D01*
X68012984Y-107712485D01*
X68050500Y-107572475D01*
X68050500Y-107427525D01*
X71949500Y-107427525D01*
X71949500Y-107572475D01*
X71987016Y-107712485D01*
X71987017Y-107712488D01*
X72059488Y-107838011D01*
X72059490Y-107838013D01*
X72059491Y-107838015D01*
X72161985Y-107940509D01*
X72161986Y-107940510D01*
X72161988Y-107940511D01*
X72287511Y-108012982D01*
X72287512Y-108012982D01*
X72287515Y-108012984D01*
X72427525Y-108050500D01*
X72427528Y-108050500D01*
X72572472Y-108050500D01*
X72572475Y-108050500D01*
X72712485Y-108012984D01*
X72838015Y-107940509D01*
X72940509Y-107838015D01*
X73012984Y-107712485D01*
X73050500Y-107572475D01*
X73050500Y-107427525D01*
X73012984Y-107287515D01*
X72946273Y-107171969D01*
X72940511Y-107161988D01*
X72940506Y-107161982D01*
X72838017Y-107059493D01*
X72838011Y-107059488D01*
X72712488Y-106987017D01*
X72712489Y-106987017D01*
X72701006Y-106983940D01*
X72572475Y-106949500D01*
X72427525Y-106949500D01*
X72298993Y-106983940D01*
X72287511Y-106987017D01*
X72161988Y-107059488D01*
X72161982Y-107059493D01*
X72059493Y-107161982D01*
X72059488Y-107161988D01*
X71987017Y-107287511D01*
X71983327Y-107301281D01*
X71949500Y-107427525D01*
X68050500Y-107427525D01*
X68012984Y-107287515D01*
X67946273Y-107171969D01*
X67940511Y-107161988D01*
X67940506Y-107161982D01*
X67838017Y-107059493D01*
X67838011Y-107059488D01*
X67712488Y-106987017D01*
X67712489Y-106987017D01*
X67701006Y-106983940D01*
X67572475Y-106949500D01*
X67427525Y-106949500D01*
X67298993Y-106983940D01*
X67287511Y-106987017D01*
X67161988Y-107059488D01*
X67161982Y-107059493D01*
X67059493Y-107161982D01*
X67059488Y-107161988D01*
X66987017Y-107287511D01*
X66983327Y-107301281D01*
X66949500Y-107427525D01*
X63050500Y-107427525D01*
X63012984Y-107287515D01*
X62946273Y-107171969D01*
X62940511Y-107161988D01*
X62940506Y-107161982D01*
X62838017Y-107059493D01*
X62838011Y-107059488D01*
X62712488Y-106987017D01*
X62712489Y-106987017D01*
X62701006Y-106983940D01*
X62572475Y-106949500D01*
X62427525Y-106949500D01*
X62298993Y-106983940D01*
X62287511Y-106987017D01*
X62161988Y-107059488D01*
X62161982Y-107059493D01*
X62059493Y-107161982D01*
X62059488Y-107161988D01*
X61987017Y-107287511D01*
X61983327Y-107301281D01*
X61949500Y-107427525D01*
X58050500Y-107427525D01*
X58012984Y-107287515D01*
X57946273Y-107171969D01*
X57940511Y-107161988D01*
X57940506Y-107161982D01*
X57838017Y-107059493D01*
X57838011Y-107059488D01*
X57712488Y-106987017D01*
X57712489Y-106987017D01*
X57701006Y-106983940D01*
X57572475Y-106949500D01*
X57427525Y-106949500D01*
X57298993Y-106983940D01*
X57287511Y-106987017D01*
X57161988Y-107059488D01*
X57161982Y-107059493D01*
X57059493Y-107161982D01*
X57059488Y-107161988D01*
X56987017Y-107287511D01*
X56983327Y-107301281D01*
X56949500Y-107427525D01*
X53050500Y-107427525D01*
X53012984Y-107287515D01*
X52946273Y-107171969D01*
X52940511Y-107161988D01*
X52940506Y-107161982D01*
X52838017Y-107059493D01*
X52838011Y-107059488D01*
X52712488Y-106987017D01*
X52712489Y-106987017D01*
X52701006Y-106983940D01*
X52572475Y-106949500D01*
X52427525Y-106949500D01*
X52298993Y-106983940D01*
X52287511Y-106987017D01*
X52161988Y-107059488D01*
X52161982Y-107059493D01*
X52059493Y-107161982D01*
X52059488Y-107161988D01*
X51987017Y-107287511D01*
X51983327Y-107301281D01*
X51949500Y-107427525D01*
X47452219Y-107427525D01*
X47548028Y-107331717D01*
X47559730Y-107320014D01*
X47559735Y-107320009D01*
X47774810Y-107057939D01*
X47963162Y-106776051D01*
X48122977Y-106477058D01*
X48252716Y-106163840D01*
X48281487Y-106068995D01*
X52899499Y-106068995D01*
X52926418Y-106204322D01*
X52926421Y-106204332D01*
X52979221Y-106331804D01*
X52979228Y-106331817D01*
X53055885Y-106446541D01*
X53055888Y-106446545D01*
X53153454Y-106544111D01*
X53153458Y-106544114D01*
X53268182Y-106620771D01*
X53268195Y-106620778D01*
X53395667Y-106673578D01*
X53395672Y-106673580D01*
X53395676Y-106673580D01*
X53395677Y-106673581D01*
X53531004Y-106700500D01*
X53531007Y-106700500D01*
X53668995Y-106700500D01*
X53760041Y-106682389D01*
X53804328Y-106673580D01*
X53931811Y-106620775D01*
X54046542Y-106544114D01*
X54144114Y-106446542D01*
X54220775Y-106331811D01*
X54273580Y-106204328D01*
X54300500Y-106068995D01*
X59699499Y-106068995D01*
X59726418Y-106204322D01*
X59726421Y-106204332D01*
X59779221Y-106331804D01*
X59779228Y-106331817D01*
X59855885Y-106446541D01*
X59855888Y-106446545D01*
X59953454Y-106544111D01*
X59953458Y-106544114D01*
X60068182Y-106620771D01*
X60068195Y-106620778D01*
X60195667Y-106673578D01*
X60195672Y-106673580D01*
X60195676Y-106673580D01*
X60195677Y-106673581D01*
X60331004Y-106700500D01*
X60331007Y-106700500D01*
X60468995Y-106700500D01*
X60560041Y-106682389D01*
X60604328Y-106673580D01*
X60731811Y-106620775D01*
X60846542Y-106544114D01*
X60944114Y-106446542D01*
X61020775Y-106331811D01*
X61073580Y-106204328D01*
X61100500Y-106068993D01*
X61100500Y-105931007D01*
X61100500Y-105931004D01*
X61073581Y-105795677D01*
X61073580Y-105795676D01*
X61073580Y-105795672D01*
X61073578Y-105795667D01*
X61020778Y-105668195D01*
X61020771Y-105668182D01*
X60944114Y-105553458D01*
X60944111Y-105553454D01*
X60846545Y-105455888D01*
X60846541Y-105455885D01*
X60813950Y-105434108D01*
X65999500Y-105434108D01*
X65999500Y-105565891D01*
X66033608Y-105693187D01*
X66066554Y-105750250D01*
X66099500Y-105807314D01*
X66192686Y-105900500D01*
X66306814Y-105966392D01*
X66434108Y-106000500D01*
X66434110Y-106000500D01*
X66565890Y-106000500D01*
X66565892Y-106000500D01*
X66693186Y-105966392D01*
X66807314Y-105900500D01*
X66900500Y-105807314D01*
X66966392Y-105693186D01*
X67000500Y-105565892D01*
X67000500Y-105434108D01*
X66966392Y-105306814D01*
X66900500Y-105192686D01*
X66807314Y-105099500D01*
X66693186Y-105033608D01*
X66565892Y-104999500D01*
X66434108Y-104999500D01*
X66306812Y-105033608D01*
X66192686Y-105099500D01*
X66192683Y-105099502D01*
X66099502Y-105192683D01*
X66099500Y-105192686D01*
X66033608Y-105306812D01*
X65999500Y-105434108D01*
X60813950Y-105434108D01*
X60731817Y-105379228D01*
X60731804Y-105379221D01*
X60604332Y-105326421D01*
X60604322Y-105326418D01*
X60468995Y-105299500D01*
X60468993Y-105299500D01*
X60331007Y-105299500D01*
X60331005Y-105299500D01*
X60195677Y-105326418D01*
X60195667Y-105326421D01*
X60068195Y-105379221D01*
X60068182Y-105379228D01*
X59953458Y-105455885D01*
X59953454Y-105455888D01*
X59855888Y-105553454D01*
X59855885Y-105553458D01*
X59779228Y-105668182D01*
X59779221Y-105668195D01*
X59726421Y-105795667D01*
X59726418Y-105795677D01*
X59699500Y-105931004D01*
X59699500Y-105931007D01*
X59699500Y-106068993D01*
X59699500Y-106068995D01*
X59699499Y-106068995D01*
X54300500Y-106068995D01*
X54300500Y-106068993D01*
X54300500Y-105931007D01*
X54300500Y-105931004D01*
X54273581Y-105795677D01*
X54273580Y-105795676D01*
X54273580Y-105795672D01*
X54273578Y-105795667D01*
X54220778Y-105668195D01*
X54220771Y-105668182D01*
X54144114Y-105553458D01*
X54144111Y-105553454D01*
X54046545Y-105455888D01*
X54046541Y-105455885D01*
X53931817Y-105379228D01*
X53931804Y-105379221D01*
X53804332Y-105326421D01*
X53804322Y-105326418D01*
X53668995Y-105299500D01*
X53668993Y-105299500D01*
X53531007Y-105299500D01*
X53531005Y-105299500D01*
X53395677Y-105326418D01*
X53395667Y-105326421D01*
X53268195Y-105379221D01*
X53268182Y-105379228D01*
X53153458Y-105455885D01*
X53153454Y-105455888D01*
X53055888Y-105553454D01*
X53055885Y-105553458D01*
X52979228Y-105668182D01*
X52979221Y-105668195D01*
X52926421Y-105795667D01*
X52926418Y-105795677D01*
X52899500Y-105931004D01*
X52899500Y-105931007D01*
X52899500Y-106068993D01*
X52899500Y-106068995D01*
X52899499Y-106068995D01*
X48281487Y-106068995D01*
X48351129Y-105839414D01*
X48417270Y-105506904D01*
X48450500Y-105169512D01*
X48450500Y-104927525D01*
X49449500Y-104927525D01*
X49449500Y-105072475D01*
X49481710Y-105192683D01*
X49487017Y-105212488D01*
X49559488Y-105338011D01*
X49559490Y-105338013D01*
X49559491Y-105338015D01*
X49661985Y-105440509D01*
X49661986Y-105440510D01*
X49661988Y-105440511D01*
X49787511Y-105512982D01*
X49787512Y-105512982D01*
X49787515Y-105512984D01*
X49927525Y-105550500D01*
X49927528Y-105550500D01*
X50072472Y-105550500D01*
X50072475Y-105550500D01*
X50212485Y-105512984D01*
X50338015Y-105440509D01*
X50440509Y-105338015D01*
X50512984Y-105212485D01*
X50550500Y-105072475D01*
X50550500Y-104927525D01*
X54449500Y-104927525D01*
X54449500Y-105072475D01*
X54481710Y-105192683D01*
X54487017Y-105212488D01*
X54559488Y-105338011D01*
X54559490Y-105338013D01*
X54559491Y-105338015D01*
X54661985Y-105440509D01*
X54661986Y-105440510D01*
X54661988Y-105440511D01*
X54787511Y-105512982D01*
X54787512Y-105512982D01*
X54787515Y-105512984D01*
X54927525Y-105550500D01*
X54927528Y-105550500D01*
X55072472Y-105550500D01*
X55072475Y-105550500D01*
X55212485Y-105512984D01*
X55338015Y-105440509D01*
X55440509Y-105338015D01*
X55512984Y-105212485D01*
X55550500Y-105072475D01*
X55550500Y-104934108D01*
X67499500Y-104934108D01*
X67499500Y-105065891D01*
X67533608Y-105193187D01*
X67544750Y-105212485D01*
X67599500Y-105307314D01*
X67692686Y-105400500D01*
X67806814Y-105466392D01*
X67934108Y-105500500D01*
X67934110Y-105500500D01*
X68065890Y-105500500D01*
X68065892Y-105500500D01*
X68193186Y-105466392D01*
X68307314Y-105400500D01*
X68400500Y-105307314D01*
X68466392Y-105193186D01*
X68500500Y-105065892D01*
X68500500Y-104934108D01*
X68999500Y-104934108D01*
X68999500Y-105065891D01*
X69033608Y-105193187D01*
X69044750Y-105212485D01*
X69099500Y-105307314D01*
X69192686Y-105400500D01*
X69306814Y-105466392D01*
X69434108Y-105500500D01*
X69434110Y-105500500D01*
X69565890Y-105500500D01*
X69565892Y-105500500D01*
X69693186Y-105466392D01*
X69807314Y-105400500D01*
X69900500Y-105307314D01*
X69966392Y-105193186D01*
X70000500Y-105065892D01*
X70000500Y-104934108D01*
X69998736Y-104927525D01*
X79449500Y-104927525D01*
X79449500Y-105072475D01*
X79481710Y-105192683D01*
X79487017Y-105212488D01*
X79559488Y-105338011D01*
X79559490Y-105338013D01*
X79559491Y-105338015D01*
X79661985Y-105440509D01*
X79661986Y-105440510D01*
X79661988Y-105440511D01*
X79787511Y-105512982D01*
X79787512Y-105512982D01*
X79787515Y-105512984D01*
X79927525Y-105550500D01*
X79927528Y-105550500D01*
X80072472Y-105550500D01*
X80072475Y-105550500D01*
X80212485Y-105512984D01*
X80338015Y-105440509D01*
X80440509Y-105338015D01*
X80512984Y-105212485D01*
X80550500Y-105072475D01*
X80550500Y-104927525D01*
X80524499Y-104830488D01*
X81549500Y-104830488D01*
X81549500Y-105169512D01*
X81553733Y-105212488D01*
X81582729Y-105506901D01*
X81642486Y-105807314D01*
X81648871Y-105839414D01*
X81667400Y-105900497D01*
X81747284Y-106163841D01*
X81764056Y-106204332D01*
X81864382Y-106446541D01*
X81877024Y-106477060D01*
X81877026Y-106477065D01*
X82036831Y-106776039D01*
X82036842Y-106776057D01*
X82225184Y-107057930D01*
X82225194Y-107057944D01*
X82440269Y-107320014D01*
X82679985Y-107559730D01*
X82679990Y-107559734D01*
X82679991Y-107559735D01*
X82942061Y-107774810D01*
X83223949Y-107963162D01*
X83223958Y-107963167D01*
X83223960Y-107963168D01*
X83522934Y-108122973D01*
X83522936Y-108122973D01*
X83522942Y-108122977D01*
X83836160Y-108252716D01*
X84160586Y-108351129D01*
X84493096Y-108417270D01*
X84830488Y-108450500D01*
X84830491Y-108450500D01*
X85169509Y-108450500D01*
X85169512Y-108450500D01*
X85506904Y-108417270D01*
X85839414Y-108351129D01*
X86163840Y-108252716D01*
X86477058Y-108122977D01*
X86776051Y-107963162D01*
X87057939Y-107774810D01*
X87320009Y-107559735D01*
X87559735Y-107320009D01*
X87774810Y-107057939D01*
X87963162Y-106776051D01*
X88122977Y-106477058D01*
X88252716Y-106163840D01*
X88351129Y-105839414D01*
X88417270Y-105506904D01*
X88450500Y-105169512D01*
X88450500Y-104830488D01*
X88417270Y-104493096D01*
X88351129Y-104160586D01*
X88252716Y-103836160D01*
X88122977Y-103522942D01*
X88080079Y-103442686D01*
X87963168Y-103223960D01*
X87963167Y-103223958D01*
X87963162Y-103223949D01*
X87774810Y-102942061D01*
X87559735Y-102679991D01*
X87559734Y-102679990D01*
X87559730Y-102679985D01*
X87320014Y-102440269D01*
X87057944Y-102225194D01*
X87057943Y-102225193D01*
X87057939Y-102225190D01*
X86776051Y-102036838D01*
X86776046Y-102036835D01*
X86776039Y-102036831D01*
X86477065Y-101877026D01*
X86477060Y-101877024D01*
X86163841Y-101747284D01*
X85965162Y-101687016D01*
X85839414Y-101648871D01*
X85839411Y-101648870D01*
X85839410Y-101648870D01*
X85506901Y-101582729D01*
X85269199Y-101559318D01*
X85169512Y-101549500D01*
X84830488Y-101549500D01*
X84739738Y-101558437D01*
X84493098Y-101582729D01*
X84160589Y-101648870D01*
X83836158Y-101747284D01*
X83522939Y-101877024D01*
X83522934Y-101877026D01*
X83223960Y-102036831D01*
X83223942Y-102036842D01*
X82942069Y-102225184D01*
X82942055Y-102225194D01*
X82679985Y-102440269D01*
X82440269Y-102679985D01*
X82225194Y-102942055D01*
X82225184Y-102942069D01*
X82036842Y-103223942D01*
X82036831Y-103223960D01*
X81877026Y-103522934D01*
X81877024Y-103522939D01*
X81747284Y-103836158D01*
X81648870Y-104160589D01*
X81582729Y-104493098D01*
X81563072Y-104692686D01*
X81549500Y-104830488D01*
X80524499Y-104830488D01*
X80512984Y-104787515D01*
X80458234Y-104692686D01*
X80440511Y-104661988D01*
X80440506Y-104661982D01*
X80338017Y-104559493D01*
X80338011Y-104559488D01*
X80212488Y-104487017D01*
X80212489Y-104487017D01*
X80201006Y-104483940D01*
X80072475Y-104449500D01*
X79927525Y-104449500D01*
X79798993Y-104483940D01*
X79787511Y-104487017D01*
X79661988Y-104559488D01*
X79661982Y-104559493D01*
X79559493Y-104661982D01*
X79559488Y-104661988D01*
X79487017Y-104787511D01*
X79487016Y-104787515D01*
X79449500Y-104927525D01*
X69998736Y-104927525D01*
X69966392Y-104806814D01*
X69900500Y-104692686D01*
X69807314Y-104599500D01*
X69738017Y-104559491D01*
X69693187Y-104533608D01*
X69629539Y-104516554D01*
X69565892Y-104499500D01*
X69434108Y-104499500D01*
X69306812Y-104533608D01*
X69192686Y-104599500D01*
X69192683Y-104599502D01*
X69099502Y-104692683D01*
X69099500Y-104692686D01*
X69033608Y-104806812D01*
X68999500Y-104934108D01*
X68500500Y-104934108D01*
X68466392Y-104806814D01*
X68400500Y-104692686D01*
X68307314Y-104599500D01*
X68238017Y-104559491D01*
X68193187Y-104533608D01*
X68129539Y-104516554D01*
X68065892Y-104499500D01*
X67934108Y-104499500D01*
X67806812Y-104533608D01*
X67692686Y-104599500D01*
X67692683Y-104599502D01*
X67599502Y-104692683D01*
X67599500Y-104692686D01*
X67533608Y-104806812D01*
X67499500Y-104934108D01*
X55550500Y-104934108D01*
X55550500Y-104927525D01*
X55512984Y-104787515D01*
X55458234Y-104692686D01*
X55440511Y-104661988D01*
X55440506Y-104661982D01*
X55338017Y-104559493D01*
X55338011Y-104559488D01*
X55212488Y-104487017D01*
X55212489Y-104487017D01*
X55201006Y-104483940D01*
X55072475Y-104449500D01*
X54927525Y-104449500D01*
X54798993Y-104483940D01*
X54787511Y-104487017D01*
X54661988Y-104559488D01*
X54661982Y-104559493D01*
X54559493Y-104661982D01*
X54559488Y-104661988D01*
X54487017Y-104787511D01*
X54487016Y-104787515D01*
X54449500Y-104927525D01*
X50550500Y-104927525D01*
X50512984Y-104787515D01*
X50458234Y-104692686D01*
X50440511Y-104661988D01*
X50440506Y-104661982D01*
X50338017Y-104559493D01*
X50338011Y-104559488D01*
X50212488Y-104487017D01*
X50212489Y-104487017D01*
X50201006Y-104483940D01*
X50072475Y-104449500D01*
X49927525Y-104449500D01*
X49798993Y-104483940D01*
X49787511Y-104487017D01*
X49661988Y-104559488D01*
X49661982Y-104559493D01*
X49559493Y-104661982D01*
X49559488Y-104661988D01*
X49487017Y-104787511D01*
X49487016Y-104787515D01*
X49449500Y-104927525D01*
X48450500Y-104927525D01*
X48450500Y-104830488D01*
X48417270Y-104493096D01*
X48351129Y-104160586D01*
X48252716Y-103836160D01*
X48189734Y-103684108D01*
X52999500Y-103684108D01*
X52999500Y-103815891D01*
X53033608Y-103943187D01*
X53066554Y-104000250D01*
X53099500Y-104057314D01*
X53192686Y-104150500D01*
X53306814Y-104216392D01*
X53434108Y-104250500D01*
X53434110Y-104250500D01*
X53565890Y-104250500D01*
X53565892Y-104250500D01*
X53693186Y-104216392D01*
X53807314Y-104150500D01*
X53900500Y-104057314D01*
X53966392Y-103943186D01*
X54000500Y-103815892D01*
X54000500Y-103684108D01*
X54999500Y-103684108D01*
X54999500Y-103815891D01*
X55033608Y-103943187D01*
X55066554Y-104000250D01*
X55099500Y-104057314D01*
X55192686Y-104150500D01*
X55306814Y-104216392D01*
X55434108Y-104250500D01*
X55434110Y-104250500D01*
X55565890Y-104250500D01*
X55565892Y-104250500D01*
X55693186Y-104216392D01*
X55807314Y-104150500D01*
X55900500Y-104057314D01*
X55966392Y-103943186D01*
X56000500Y-103815892D01*
X56000500Y-103684108D01*
X55966392Y-103556814D01*
X55900500Y-103442686D01*
X55807314Y-103349500D01*
X55750250Y-103316554D01*
X55693187Y-103283608D01*
X55629539Y-103266554D01*
X55565892Y-103249500D01*
X55434108Y-103249500D01*
X55306812Y-103283608D01*
X55192686Y-103349500D01*
X55192683Y-103349502D01*
X55099502Y-103442683D01*
X55099500Y-103442686D01*
X55033608Y-103556812D01*
X54999500Y-103684108D01*
X54000500Y-103684108D01*
X53966392Y-103556814D01*
X53900500Y-103442686D01*
X53807314Y-103349500D01*
X53750250Y-103316554D01*
X53693187Y-103283608D01*
X53629539Y-103266554D01*
X53565892Y-103249500D01*
X53434108Y-103249500D01*
X53306812Y-103283608D01*
X53192686Y-103349500D01*
X53192683Y-103349502D01*
X53099502Y-103442683D01*
X53099500Y-103442686D01*
X53033608Y-103556812D01*
X52999500Y-103684108D01*
X48189734Y-103684108D01*
X48122977Y-103522942D01*
X48080079Y-103442686D01*
X47963168Y-103223960D01*
X47963167Y-103223958D01*
X47963162Y-103223949D01*
X47774810Y-102942061D01*
X47559735Y-102679991D01*
X47559734Y-102679990D01*
X47559730Y-102679985D01*
X47320014Y-102440269D01*
X47304485Y-102427525D01*
X51949500Y-102427525D01*
X51949500Y-102572475D01*
X51985631Y-102707316D01*
X51987017Y-102712488D01*
X52059488Y-102838011D01*
X52059490Y-102838013D01*
X52059491Y-102838015D01*
X52161985Y-102940509D01*
X52161986Y-102940510D01*
X52161988Y-102940511D01*
X52287511Y-103012982D01*
X52287512Y-103012982D01*
X52287515Y-103012984D01*
X52427525Y-103050500D01*
X52427528Y-103050500D01*
X52572472Y-103050500D01*
X52572475Y-103050500D01*
X52712485Y-103012984D01*
X52838015Y-102940509D01*
X52940509Y-102838015D01*
X52940509Y-102838014D01*
X52946256Y-102832268D01*
X52948385Y-102834397D01*
X52993194Y-102801664D01*
X53062940Y-102797494D01*
X53122849Y-102830663D01*
X53192686Y-102900500D01*
X53306814Y-102966392D01*
X53434108Y-103000500D01*
X53434110Y-103000500D01*
X53565890Y-103000500D01*
X53565892Y-103000500D01*
X53693186Y-102966392D01*
X53807314Y-102900500D01*
X53900500Y-102807314D01*
X53966392Y-102693186D01*
X54000500Y-102565892D01*
X54000500Y-102434108D01*
X54999500Y-102434108D01*
X54999500Y-102565891D01*
X55033608Y-102693187D01*
X55063809Y-102745495D01*
X55099500Y-102807314D01*
X55192686Y-102900500D01*
X55306814Y-102966392D01*
X55434108Y-103000500D01*
X55434110Y-103000500D01*
X55565890Y-103000500D01*
X55565892Y-103000500D01*
X55693186Y-102966392D01*
X55807314Y-102900500D01*
X55900500Y-102807314D01*
X55966392Y-102693186D01*
X56000500Y-102565892D01*
X56000500Y-102434108D01*
X55966392Y-102306814D01*
X55900500Y-102192686D01*
X55835339Y-102127525D01*
X62049500Y-102127525D01*
X62049500Y-102272475D01*
X62066428Y-102335649D01*
X62087017Y-102412488D01*
X62159488Y-102538011D01*
X62159490Y-102538013D01*
X62159491Y-102538015D01*
X62261985Y-102640509D01*
X62261986Y-102640510D01*
X62261988Y-102640511D01*
X62387511Y-102712982D01*
X62387512Y-102712982D01*
X62387515Y-102712984D01*
X62527525Y-102750500D01*
X62527528Y-102750500D01*
X62672472Y-102750500D01*
X62672475Y-102750500D01*
X62812485Y-102712984D01*
X62938015Y-102640509D01*
X63040509Y-102538015D01*
X63112984Y-102412485D01*
X63133985Y-102334108D01*
X70099500Y-102334108D01*
X70099500Y-102465891D01*
X70133608Y-102593187D01*
X70160928Y-102640506D01*
X70199500Y-102707314D01*
X70292686Y-102800500D01*
X70406814Y-102866392D01*
X70534108Y-102900500D01*
X70534110Y-102900500D01*
X70665890Y-102900500D01*
X70665892Y-102900500D01*
X70793186Y-102866392D01*
X70907314Y-102800500D01*
X70962319Y-102745495D01*
X71023642Y-102712010D01*
X71093334Y-102716994D01*
X71137681Y-102745495D01*
X71192686Y-102800500D01*
X71306814Y-102866392D01*
X71434108Y-102900500D01*
X71434110Y-102900500D01*
X71565890Y-102900500D01*
X71565892Y-102900500D01*
X71693186Y-102866392D01*
X71807314Y-102800500D01*
X71900500Y-102707314D01*
X71966392Y-102593186D01*
X72000500Y-102465892D01*
X72000500Y-102334108D01*
X71966392Y-102206814D01*
X71900500Y-102092686D01*
X71807314Y-101999500D01*
X71750250Y-101966554D01*
X71693187Y-101933608D01*
X71629539Y-101916554D01*
X71565892Y-101899500D01*
X71434108Y-101899500D01*
X71306812Y-101933608D01*
X71192686Y-101999500D01*
X71192683Y-101999502D01*
X71137681Y-102054505D01*
X71076358Y-102087990D01*
X71006666Y-102083006D01*
X70962319Y-102054505D01*
X70907316Y-101999502D01*
X70907314Y-101999500D01*
X70850250Y-101966554D01*
X70793187Y-101933608D01*
X70729539Y-101916554D01*
X70665892Y-101899500D01*
X70534108Y-101899500D01*
X70406812Y-101933608D01*
X70292686Y-101999500D01*
X70292683Y-101999502D01*
X70199502Y-102092683D01*
X70199500Y-102092686D01*
X70133608Y-102206812D01*
X70099500Y-102334108D01*
X63133985Y-102334108D01*
X63150500Y-102272475D01*
X63150500Y-102127525D01*
X63112984Y-101987515D01*
X63112696Y-101987017D01*
X63040511Y-101861988D01*
X63040506Y-101861982D01*
X62938017Y-101759493D01*
X62938011Y-101759488D01*
X62812488Y-101687017D01*
X62812489Y-101687017D01*
X62801006Y-101683940D01*
X62672475Y-101649500D01*
X62527525Y-101649500D01*
X62398993Y-101683940D01*
X62387511Y-101687017D01*
X62261988Y-101759488D01*
X62261982Y-101759493D01*
X62159493Y-101861982D01*
X62159488Y-101861988D01*
X62087017Y-101987511D01*
X62087016Y-101987515D01*
X62049500Y-102127525D01*
X55835339Y-102127525D01*
X55807314Y-102099500D01*
X55738017Y-102059491D01*
X55693187Y-102033608D01*
X55629539Y-102016554D01*
X55565892Y-101999500D01*
X55434108Y-101999500D01*
X55306812Y-102033608D01*
X55192686Y-102099500D01*
X55192683Y-102099502D01*
X55099502Y-102192683D01*
X55099500Y-102192686D01*
X55033608Y-102306812D01*
X54999500Y-102434108D01*
X54000500Y-102434108D01*
X53966392Y-102306814D01*
X53900500Y-102192686D01*
X53807314Y-102099500D01*
X53738017Y-102059491D01*
X53693187Y-102033608D01*
X53629539Y-102016554D01*
X53565892Y-101999500D01*
X53434108Y-101999500D01*
X53306812Y-102033608D01*
X53192686Y-102099500D01*
X53122849Y-102169337D01*
X53061525Y-102202821D01*
X52991834Y-102197836D01*
X52948320Y-102165667D01*
X52946256Y-102167732D01*
X52838017Y-102059493D01*
X52838011Y-102059488D01*
X52712488Y-101987017D01*
X52712489Y-101987017D01*
X52701006Y-101983940D01*
X52572475Y-101949500D01*
X52427525Y-101949500D01*
X52298993Y-101983940D01*
X52287511Y-101987017D01*
X52161988Y-102059488D01*
X52161982Y-102059493D01*
X52059493Y-102161982D01*
X52059488Y-102161988D01*
X51987017Y-102287511D01*
X51987016Y-102287515D01*
X51949500Y-102427525D01*
X47304485Y-102427525D01*
X47057944Y-102225194D01*
X47057943Y-102225193D01*
X47057939Y-102225190D01*
X46776051Y-102036838D01*
X46776046Y-102036835D01*
X46776039Y-102036831D01*
X46477065Y-101877026D01*
X46477060Y-101877024D01*
X46163841Y-101747284D01*
X45965162Y-101687016D01*
X45839414Y-101648871D01*
X45839411Y-101648870D01*
X45839410Y-101648870D01*
X45506901Y-101582729D01*
X45269199Y-101559318D01*
X45169512Y-101549500D01*
X44830488Y-101549500D01*
X44739738Y-101558437D01*
X44493098Y-101582729D01*
X44160589Y-101648870D01*
X43836158Y-101747284D01*
X43522939Y-101877024D01*
X43522934Y-101877026D01*
X43223960Y-102036831D01*
X43223942Y-102036842D01*
X42942069Y-102225184D01*
X42942055Y-102225194D01*
X42679985Y-102440269D01*
X42440269Y-102679985D01*
X42225194Y-102942055D01*
X42225184Y-102942069D01*
X42036842Y-103223942D01*
X42036831Y-103223960D01*
X41877026Y-103522934D01*
X41877024Y-103522939D01*
X41747284Y-103836158D01*
X41648870Y-104160589D01*
X41582729Y-104493098D01*
X41563072Y-104692686D01*
X41549500Y-104830488D01*
X40500500Y-104830488D01*
X40500500Y-99927525D01*
X44449500Y-99927525D01*
X44449500Y-100072475D01*
X44477649Y-100177527D01*
X44487017Y-100212488D01*
X44559488Y-100338011D01*
X44559490Y-100338013D01*
X44559491Y-100338015D01*
X44661985Y-100440509D01*
X44661986Y-100440510D01*
X44661988Y-100440511D01*
X44787511Y-100512982D01*
X44787512Y-100512982D01*
X44787515Y-100512984D01*
X44927525Y-100550500D01*
X44927528Y-100550500D01*
X45072472Y-100550500D01*
X45072475Y-100550500D01*
X45212485Y-100512984D01*
X45338015Y-100440509D01*
X45440509Y-100338015D01*
X45512984Y-100212485D01*
X45550500Y-100072475D01*
X45550500Y-99927525D01*
X54449500Y-99927525D01*
X54449500Y-100072475D01*
X54477649Y-100177527D01*
X54487017Y-100212488D01*
X54559488Y-100338011D01*
X54559490Y-100338013D01*
X54559491Y-100338015D01*
X54661985Y-100440509D01*
X54661986Y-100440510D01*
X54661988Y-100440511D01*
X54787511Y-100512982D01*
X54787512Y-100512982D01*
X54787515Y-100512984D01*
X54927525Y-100550500D01*
X54927528Y-100550500D01*
X55072472Y-100550500D01*
X55072475Y-100550500D01*
X55212485Y-100512984D01*
X55338015Y-100440509D01*
X55440509Y-100338015D01*
X55512984Y-100212485D01*
X55522352Y-100177525D01*
X63949500Y-100177525D01*
X63949500Y-100322475D01*
X63981128Y-100440511D01*
X63987017Y-100462488D01*
X64059488Y-100588011D01*
X64059490Y-100588013D01*
X64059491Y-100588015D01*
X64161985Y-100690509D01*
X64161986Y-100690510D01*
X64161988Y-100690511D01*
X64287511Y-100762982D01*
X64287512Y-100762982D01*
X64287515Y-100762984D01*
X64360011Y-100782409D01*
X64419670Y-100818773D01*
X64450199Y-100881620D01*
X64451916Y-100902183D01*
X64451916Y-100918508D01*
X64449500Y-100927525D01*
X64449500Y-101072475D01*
X64451916Y-101081491D01*
X64451916Y-101097816D01*
X64446487Y-101116303D01*
X64446030Y-101135566D01*
X64436846Y-101149135D01*
X64432231Y-101164855D01*
X64417670Y-101177472D01*
X64406870Y-101193431D01*
X64388061Y-101203128D01*
X64379427Y-101210610D01*
X64371277Y-101211781D01*
X64360010Y-101217590D01*
X64306580Y-101231907D01*
X64287511Y-101237017D01*
X64161988Y-101309488D01*
X64161982Y-101309493D01*
X64059493Y-101411982D01*
X64059488Y-101411988D01*
X63987017Y-101537511D01*
X63987016Y-101537515D01*
X63949500Y-101677525D01*
X63949500Y-101822475D01*
X63983537Y-101949500D01*
X63987017Y-101962488D01*
X64059488Y-102088011D01*
X64059490Y-102088013D01*
X64059491Y-102088015D01*
X64161985Y-102190509D01*
X64161986Y-102190510D01*
X64161988Y-102190511D01*
X64287511Y-102262982D01*
X64287512Y-102262982D01*
X64287515Y-102262984D01*
X64427525Y-102300500D01*
X64427528Y-102300500D01*
X64572472Y-102300500D01*
X64572475Y-102300500D01*
X64712485Y-102262984D01*
X64838015Y-102190509D01*
X64912319Y-102116205D01*
X64973642Y-102082720D01*
X65043334Y-102087704D01*
X65087681Y-102116205D01*
X65161985Y-102190509D01*
X65161986Y-102190510D01*
X65161988Y-102190511D01*
X65287511Y-102262982D01*
X65287512Y-102262982D01*
X65287515Y-102262984D01*
X65427525Y-102300500D01*
X65427528Y-102300500D01*
X65572472Y-102300500D01*
X65572475Y-102300500D01*
X65712485Y-102262984D01*
X65838015Y-102190509D01*
X65940509Y-102088015D01*
X66012984Y-101962485D01*
X66050500Y-101822475D01*
X66050500Y-101677525D01*
X66012984Y-101537515D01*
X65940509Y-101411985D01*
X65838015Y-101309491D01*
X65838013Y-101309490D01*
X65838011Y-101309488D01*
X65712488Y-101237017D01*
X65712489Y-101237017D01*
X65702865Y-101234438D01*
X65639987Y-101217590D01*
X65580329Y-101181226D01*
X65549800Y-101118378D01*
X65548083Y-101097816D01*
X65548083Y-101081495D01*
X65550500Y-101072475D01*
X65550500Y-100927525D01*
X65548083Y-100918504D01*
X65548083Y-100902183D01*
X65553501Y-100883730D01*
X65553946Y-100864506D01*
X65563141Y-100850899D01*
X65567768Y-100835144D01*
X65582299Y-100822552D01*
X65593069Y-100806617D01*
X65611906Y-100796897D01*
X65620572Y-100789389D01*
X65628734Y-100788215D01*
X65639985Y-100782410D01*
X65712485Y-100762984D01*
X65838015Y-100690509D01*
X65940509Y-100588015D01*
X66012984Y-100462485D01*
X66050500Y-100322475D01*
X66050500Y-100177525D01*
X66012984Y-100037515D01*
X65940509Y-99911985D01*
X65838015Y-99809491D01*
X65838013Y-99809490D01*
X65838011Y-99809488D01*
X65712488Y-99737017D01*
X65712489Y-99737017D01*
X65701006Y-99733940D01*
X65572475Y-99699500D01*
X65427525Y-99699500D01*
X65298993Y-99733940D01*
X65287511Y-99737017D01*
X65161988Y-99809488D01*
X65161982Y-99809493D01*
X65087681Y-99883795D01*
X65026358Y-99917280D01*
X64956666Y-99912296D01*
X64912319Y-99883795D01*
X64838017Y-99809493D01*
X64838011Y-99809488D01*
X64712488Y-99737017D01*
X64712489Y-99737017D01*
X64701006Y-99733940D01*
X64572475Y-99699500D01*
X64427525Y-99699500D01*
X64298993Y-99733940D01*
X64287511Y-99737017D01*
X64161988Y-99809488D01*
X64161982Y-99809493D01*
X64059493Y-99911982D01*
X64059488Y-99911988D01*
X63987017Y-100037511D01*
X63987016Y-100037515D01*
X63949500Y-100177525D01*
X55522352Y-100177525D01*
X55550500Y-100072475D01*
X55550500Y-99927525D01*
X55512984Y-99787515D01*
X55483828Y-99737016D01*
X55440511Y-99661988D01*
X55440506Y-99661982D01*
X55338017Y-99559493D01*
X55338011Y-99559488D01*
X55212488Y-99487017D01*
X55212489Y-99487017D01*
X55201006Y-99483940D01*
X55072475Y-99449500D01*
X54927525Y-99449500D01*
X54798993Y-99483940D01*
X54787511Y-99487017D01*
X54661988Y-99559488D01*
X54661982Y-99559493D01*
X54559493Y-99661982D01*
X54559488Y-99661988D01*
X54487017Y-99787511D01*
X54487016Y-99787515D01*
X54449500Y-99927525D01*
X45550500Y-99927525D01*
X45512984Y-99787515D01*
X45483828Y-99737016D01*
X45440511Y-99661988D01*
X45440506Y-99661982D01*
X45338017Y-99559493D01*
X45338011Y-99559488D01*
X45212488Y-99487017D01*
X45212489Y-99487017D01*
X45201006Y-99483940D01*
X45072475Y-99449500D01*
X44927525Y-99449500D01*
X44798993Y-99483940D01*
X44787511Y-99487017D01*
X44661988Y-99559488D01*
X44661982Y-99559493D01*
X44559493Y-99661982D01*
X44559488Y-99661988D01*
X44487017Y-99787511D01*
X44487016Y-99787515D01*
X44449500Y-99927525D01*
X40500500Y-99927525D01*
X40500500Y-97427525D01*
X41949500Y-97427525D01*
X41949500Y-97572475D01*
X41981710Y-97692683D01*
X41987017Y-97712488D01*
X42059488Y-97838011D01*
X42059490Y-97838013D01*
X42059491Y-97838015D01*
X42161985Y-97940509D01*
X42161986Y-97940510D01*
X42161988Y-97940511D01*
X42287511Y-98012982D01*
X42287512Y-98012982D01*
X42287515Y-98012984D01*
X42427525Y-98050500D01*
X42427528Y-98050500D01*
X42572472Y-98050500D01*
X42572475Y-98050500D01*
X42712485Y-98012984D01*
X42838015Y-97940509D01*
X42940509Y-97838015D01*
X43012984Y-97712485D01*
X43050500Y-97572475D01*
X43050500Y-97427525D01*
X43012984Y-97287515D01*
X42975585Y-97222739D01*
X42940511Y-97161988D01*
X42940506Y-97161982D01*
X42838017Y-97059493D01*
X42838011Y-97059488D01*
X42712488Y-96987017D01*
X42712489Y-96987017D01*
X42701006Y-96983940D01*
X42572475Y-96949500D01*
X42427525Y-96949500D01*
X42298993Y-96983940D01*
X42287511Y-96987017D01*
X42161988Y-97059488D01*
X42161982Y-97059493D01*
X42059493Y-97161982D01*
X42059488Y-97161988D01*
X41987017Y-97287511D01*
X41987016Y-97287515D01*
X41949500Y-97427525D01*
X40500500Y-97427525D01*
X40500500Y-95916228D01*
X46324500Y-95916228D01*
X46324500Y-96083771D01*
X46357182Y-96248074D01*
X46357184Y-96248082D01*
X46421295Y-96402860D01*
X46514373Y-96542162D01*
X46632837Y-96660626D01*
X46725494Y-96722537D01*
X46772137Y-96753703D01*
X46926918Y-96817816D01*
X47015878Y-96835511D01*
X47097033Y-96851654D01*
X47158944Y-96884038D01*
X47193518Y-96944754D01*
X47189779Y-97014524D01*
X47160524Y-97060952D01*
X47059488Y-97161988D01*
X46987017Y-97287511D01*
X46987016Y-97287515D01*
X46949500Y-97427525D01*
X46949500Y-97572475D01*
X46981710Y-97692683D01*
X46987017Y-97712488D01*
X47059488Y-97838011D01*
X47059490Y-97838013D01*
X47059491Y-97838015D01*
X47161985Y-97940509D01*
X47161986Y-97940510D01*
X47161988Y-97940511D01*
X47287511Y-98012982D01*
X47287512Y-98012982D01*
X47287515Y-98012984D01*
X47427525Y-98050500D01*
X47427528Y-98050500D01*
X47572472Y-98050500D01*
X47572475Y-98050500D01*
X47712485Y-98012984D01*
X47838015Y-97940509D01*
X47844416Y-97934108D01*
X63099500Y-97934108D01*
X63099500Y-98065891D01*
X63133608Y-98193187D01*
X63166554Y-98250250D01*
X63199500Y-98307314D01*
X63292686Y-98400500D01*
X63406814Y-98466392D01*
X63534108Y-98500500D01*
X63534110Y-98500500D01*
X63665890Y-98500500D01*
X63665892Y-98500500D01*
X63793186Y-98466392D01*
X63907314Y-98400500D01*
X64000500Y-98307314D01*
X64066392Y-98193186D01*
X64100500Y-98065892D01*
X64100500Y-97934108D01*
X64066392Y-97806814D01*
X64000500Y-97692686D01*
X63907314Y-97599500D01*
X63793186Y-97533608D01*
X63665892Y-97499500D01*
X63534108Y-97499500D01*
X63406812Y-97533608D01*
X63292686Y-97599500D01*
X63292683Y-97599502D01*
X63199502Y-97692683D01*
X63199500Y-97692686D01*
X63133608Y-97806812D01*
X63099500Y-97934108D01*
X47844416Y-97934108D01*
X47940509Y-97838015D01*
X48012984Y-97712485D01*
X48050500Y-97572475D01*
X48050500Y-97427525D01*
X81949500Y-97427525D01*
X81949500Y-97572475D01*
X81981710Y-97692683D01*
X81987017Y-97712488D01*
X82059488Y-97838011D01*
X82059490Y-97838013D01*
X82059491Y-97838015D01*
X82161985Y-97940509D01*
X82161986Y-97940510D01*
X82161988Y-97940511D01*
X82287511Y-98012982D01*
X82287512Y-98012982D01*
X82287515Y-98012984D01*
X82427525Y-98050500D01*
X82427528Y-98050500D01*
X82572472Y-98050500D01*
X82572475Y-98050500D01*
X82712485Y-98012984D01*
X82838015Y-97940509D01*
X82940509Y-97838015D01*
X83012984Y-97712485D01*
X83050500Y-97572475D01*
X83050500Y-97427525D01*
X86949500Y-97427525D01*
X86949500Y-97572475D01*
X86981710Y-97692683D01*
X86987017Y-97712488D01*
X87059488Y-97838011D01*
X87059490Y-97838013D01*
X87059491Y-97838015D01*
X87161985Y-97940509D01*
X87161986Y-97940510D01*
X87161988Y-97940511D01*
X87287511Y-98012982D01*
X87287512Y-98012982D01*
X87287515Y-98012984D01*
X87427525Y-98050500D01*
X87427528Y-98050500D01*
X87572472Y-98050500D01*
X87572475Y-98050500D01*
X87712485Y-98012984D01*
X87838015Y-97940509D01*
X87940509Y-97838015D01*
X88012984Y-97712485D01*
X88050500Y-97572475D01*
X88050500Y-97427525D01*
X88012984Y-97287515D01*
X87975585Y-97222739D01*
X87940511Y-97161988D01*
X87940506Y-97161982D01*
X87838017Y-97059493D01*
X87838011Y-97059488D01*
X87712488Y-96987017D01*
X87712489Y-96987017D01*
X87701006Y-96983940D01*
X87572475Y-96949500D01*
X87427525Y-96949500D01*
X87298993Y-96983940D01*
X87287511Y-96987017D01*
X87161988Y-97059488D01*
X87161982Y-97059493D01*
X87059493Y-97161982D01*
X87059488Y-97161988D01*
X86987017Y-97287511D01*
X86987016Y-97287515D01*
X86949500Y-97427525D01*
X83050500Y-97427525D01*
X83012984Y-97287515D01*
X82975585Y-97222739D01*
X82940511Y-97161988D01*
X82940506Y-97161982D01*
X82838017Y-97059493D01*
X82838011Y-97059488D01*
X82712488Y-96987017D01*
X82712489Y-96987017D01*
X82701006Y-96983940D01*
X82572475Y-96949500D01*
X82427525Y-96949500D01*
X82298993Y-96983940D01*
X82287511Y-96987017D01*
X82161988Y-97059488D01*
X82161982Y-97059493D01*
X82059493Y-97161982D01*
X82059488Y-97161988D01*
X81987017Y-97287511D01*
X81987016Y-97287515D01*
X81949500Y-97427525D01*
X48050500Y-97427525D01*
X48012984Y-97287515D01*
X47975585Y-97222739D01*
X47940511Y-97161988D01*
X47940506Y-97161982D01*
X47838017Y-97059493D01*
X47838015Y-97059491D01*
X47838010Y-97059488D01*
X47832816Y-97055502D01*
X47791616Y-96999072D01*
X47787464Y-96929326D01*
X47821679Y-96868407D01*
X47883398Y-96835657D01*
X47883855Y-96835564D01*
X47973082Y-96817816D01*
X48127863Y-96753703D01*
X48267162Y-96660626D01*
X48385626Y-96542162D01*
X48478703Y-96402863D01*
X48542816Y-96248082D01*
X48575500Y-96083767D01*
X48575500Y-95916233D01*
X48542816Y-95751918D01*
X48478703Y-95597137D01*
X48385626Y-95457838D01*
X48385625Y-95457837D01*
X48385623Y-95457834D01*
X48328110Y-95400321D01*
X50284500Y-95400321D01*
X50284500Y-97149678D01*
X50299032Y-97222735D01*
X50299033Y-97222739D01*
X50299034Y-97222740D01*
X50354399Y-97305601D01*
X50437260Y-97360966D01*
X50437264Y-97360967D01*
X50510321Y-97375499D01*
X50510324Y-97375500D01*
X50510326Y-97375500D01*
X52259676Y-97375500D01*
X52259677Y-97375499D01*
X52332740Y-97360966D01*
X52415601Y-97305601D01*
X52470966Y-97222740D01*
X52485500Y-97149674D01*
X52485500Y-95400326D01*
X52485500Y-95400323D01*
X52485499Y-95400321D01*
X52470967Y-95327264D01*
X52470966Y-95327260D01*
X52419677Y-95250500D01*
X52415601Y-95244399D01*
X52332740Y-95189034D01*
X52332739Y-95189033D01*
X52332735Y-95189032D01*
X52259677Y-95174500D01*
X52259674Y-95174500D01*
X50510326Y-95174500D01*
X50510323Y-95174500D01*
X50437264Y-95189032D01*
X50437260Y-95189033D01*
X50354399Y-95244399D01*
X50299033Y-95327260D01*
X50299032Y-95327264D01*
X50284500Y-95400321D01*
X48328110Y-95400321D01*
X48267162Y-95339373D01*
X48127860Y-95246295D01*
X47973082Y-95182184D01*
X47973074Y-95182182D01*
X47808771Y-95149500D01*
X47808767Y-95149500D01*
X47091233Y-95149500D01*
X47091228Y-95149500D01*
X46926925Y-95182182D01*
X46926917Y-95182184D01*
X46772139Y-95246295D01*
X46632837Y-95339373D01*
X46514373Y-95457837D01*
X46421295Y-95597139D01*
X46357184Y-95751917D01*
X46357182Y-95751925D01*
X46324500Y-95916228D01*
X40500500Y-95916228D01*
X40500500Y-94927525D01*
X44449500Y-94927525D01*
X44449500Y-95072475D01*
X44487016Y-95212485D01*
X44487017Y-95212488D01*
X44559488Y-95338011D01*
X44559490Y-95338013D01*
X44559491Y-95338015D01*
X44661985Y-95440509D01*
X44661986Y-95440510D01*
X44661988Y-95440511D01*
X44787511Y-95512982D01*
X44787512Y-95512982D01*
X44787515Y-95512984D01*
X44927525Y-95550500D01*
X44927528Y-95550500D01*
X45072472Y-95550500D01*
X45072475Y-95550500D01*
X45212485Y-95512984D01*
X45338015Y-95440509D01*
X45440509Y-95338015D01*
X45512984Y-95212485D01*
X45550500Y-95072475D01*
X45550500Y-94927525D01*
X45512984Y-94787515D01*
X45466814Y-94707547D01*
X45440511Y-94661988D01*
X45440506Y-94661982D01*
X45338017Y-94559493D01*
X45338011Y-94559488D01*
X45212488Y-94487017D01*
X45212489Y-94487017D01*
X45201006Y-94483940D01*
X45072475Y-94449500D01*
X44927525Y-94449500D01*
X44798993Y-94483940D01*
X44787511Y-94487017D01*
X44661988Y-94559488D01*
X44661982Y-94559493D01*
X44559493Y-94661982D01*
X44559488Y-94661988D01*
X44487017Y-94787511D01*
X44487016Y-94787515D01*
X44449500Y-94927525D01*
X40500500Y-94927525D01*
X40500500Y-93602135D01*
X46324500Y-93602135D01*
X46324500Y-94397870D01*
X46324501Y-94397876D01*
X46330908Y-94457483D01*
X46381202Y-94592328D01*
X46381206Y-94592335D01*
X46467452Y-94707544D01*
X46467455Y-94707547D01*
X46582664Y-94793793D01*
X46582671Y-94793797D01*
X46717517Y-94844091D01*
X46717516Y-94844091D01*
X46724444Y-94844835D01*
X46777127Y-94850500D01*
X48122872Y-94850499D01*
X48182483Y-94844091D01*
X48317331Y-94793796D01*
X48432546Y-94707546D01*
X48518796Y-94592331D01*
X48569091Y-94457483D01*
X48575500Y-94397873D01*
X48575499Y-93648389D01*
X50284500Y-93648389D01*
X50284500Y-93821611D01*
X50311598Y-93992701D01*
X50365127Y-94157445D01*
X50443768Y-94311788D01*
X50545586Y-94451928D01*
X50668072Y-94574414D01*
X50808212Y-94676232D01*
X50962555Y-94754873D01*
X51127299Y-94808402D01*
X51298389Y-94835500D01*
X51298390Y-94835500D01*
X51471610Y-94835500D01*
X51471611Y-94835500D01*
X51642701Y-94808402D01*
X51807445Y-94754873D01*
X51946330Y-94684108D01*
X57999500Y-94684108D01*
X57999500Y-94815891D01*
X58033608Y-94943187D01*
X58066554Y-95000250D01*
X58099500Y-95057314D01*
X58192686Y-95150500D01*
X58306814Y-95216392D01*
X58434108Y-95250500D01*
X58434110Y-95250500D01*
X58565890Y-95250500D01*
X58565892Y-95250500D01*
X58693186Y-95216392D01*
X58807314Y-95150500D01*
X58900500Y-95057314D01*
X58900504Y-95057306D01*
X58901625Y-95055847D01*
X58902892Y-95054921D01*
X58906247Y-95051567D01*
X58906770Y-95052090D01*
X58958053Y-95014645D01*
X59027799Y-95010491D01*
X59088719Y-95044704D01*
X59098375Y-95055847D01*
X59099498Y-95057311D01*
X59099500Y-95057314D01*
X59192686Y-95150500D01*
X59306814Y-95216392D01*
X59434108Y-95250500D01*
X59434110Y-95250500D01*
X59565890Y-95250500D01*
X59565892Y-95250500D01*
X59693186Y-95216392D01*
X59807314Y-95150500D01*
X59900500Y-95057314D01*
X59966392Y-94943186D01*
X60000500Y-94815892D01*
X60000500Y-94684108D01*
X61499500Y-94684108D01*
X61499500Y-94815891D01*
X61533608Y-94943187D01*
X61566554Y-95000250D01*
X61599500Y-95057314D01*
X61692686Y-95150500D01*
X61806814Y-95216392D01*
X61934108Y-95250500D01*
X61934110Y-95250500D01*
X62065890Y-95250500D01*
X62065892Y-95250500D01*
X62193186Y-95216392D01*
X62307314Y-95150500D01*
X62400500Y-95057314D01*
X62466392Y-94943186D01*
X62500500Y-94815892D01*
X62500500Y-94684108D01*
X68499500Y-94684108D01*
X68499500Y-94815891D01*
X68533608Y-94943187D01*
X68566554Y-95000250D01*
X68599500Y-95057314D01*
X68692686Y-95150500D01*
X68806814Y-95216392D01*
X68934108Y-95250500D01*
X68934110Y-95250500D01*
X69065890Y-95250500D01*
X69065892Y-95250500D01*
X69193186Y-95216392D01*
X69307314Y-95150500D01*
X69400500Y-95057314D01*
X69466392Y-94943186D01*
X69470588Y-94927525D01*
X74449500Y-94927525D01*
X74449500Y-95072475D01*
X74487016Y-95212485D01*
X74487017Y-95212488D01*
X74559488Y-95338011D01*
X74559490Y-95338013D01*
X74559491Y-95338015D01*
X74661985Y-95440509D01*
X74661986Y-95440510D01*
X74661988Y-95440511D01*
X74787511Y-95512982D01*
X74787512Y-95512982D01*
X74787515Y-95512984D01*
X74927525Y-95550500D01*
X74927528Y-95550500D01*
X75072472Y-95550500D01*
X75072475Y-95550500D01*
X75212485Y-95512984D01*
X75338015Y-95440509D01*
X75440509Y-95338015D01*
X75512984Y-95212485D01*
X75550500Y-95072475D01*
X75550500Y-94927525D01*
X84449500Y-94927525D01*
X84449500Y-95072475D01*
X84487016Y-95212485D01*
X84487017Y-95212488D01*
X84559488Y-95338011D01*
X84559490Y-95338013D01*
X84559491Y-95338015D01*
X84661985Y-95440509D01*
X84661986Y-95440510D01*
X84661988Y-95440511D01*
X84787511Y-95512982D01*
X84787512Y-95512982D01*
X84787515Y-95512984D01*
X84927525Y-95550500D01*
X84927528Y-95550500D01*
X85072472Y-95550500D01*
X85072475Y-95550500D01*
X85212485Y-95512984D01*
X85338015Y-95440509D01*
X85440509Y-95338015D01*
X85512984Y-95212485D01*
X85550500Y-95072475D01*
X85550500Y-94927525D01*
X85512984Y-94787515D01*
X85466814Y-94707547D01*
X85440511Y-94661988D01*
X85440506Y-94661982D01*
X85338017Y-94559493D01*
X85338011Y-94559488D01*
X85212488Y-94487017D01*
X85212489Y-94487017D01*
X85201006Y-94483940D01*
X85072475Y-94449500D01*
X84927525Y-94449500D01*
X84798993Y-94483940D01*
X84787511Y-94487017D01*
X84661988Y-94559488D01*
X84661982Y-94559493D01*
X84559493Y-94661982D01*
X84559488Y-94661988D01*
X84487017Y-94787511D01*
X84487016Y-94787515D01*
X84449500Y-94927525D01*
X75550500Y-94927525D01*
X75512984Y-94787515D01*
X75466814Y-94707547D01*
X75440511Y-94661988D01*
X75440506Y-94661982D01*
X75338017Y-94559493D01*
X75338011Y-94559488D01*
X75212488Y-94487017D01*
X75212489Y-94487017D01*
X75201006Y-94483940D01*
X75072475Y-94449500D01*
X74927525Y-94449500D01*
X74798993Y-94483940D01*
X74787511Y-94487017D01*
X74661988Y-94559488D01*
X74661982Y-94559493D01*
X74559493Y-94661982D01*
X74559488Y-94661988D01*
X74487017Y-94787511D01*
X74487016Y-94787515D01*
X74449500Y-94927525D01*
X69470588Y-94927525D01*
X69500500Y-94815892D01*
X69500500Y-94684108D01*
X69466392Y-94556814D01*
X69400500Y-94442686D01*
X69307314Y-94349500D01*
X69241995Y-94311788D01*
X69193187Y-94283608D01*
X69129539Y-94266554D01*
X69065892Y-94249500D01*
X68934108Y-94249500D01*
X68806812Y-94283608D01*
X68692686Y-94349500D01*
X68692683Y-94349502D01*
X68599502Y-94442683D01*
X68599500Y-94442686D01*
X68533608Y-94556812D01*
X68499500Y-94684108D01*
X62500500Y-94684108D01*
X62466392Y-94556814D01*
X62400500Y-94442686D01*
X62307314Y-94349500D01*
X62241995Y-94311788D01*
X62193187Y-94283608D01*
X62129539Y-94266554D01*
X62065892Y-94249500D01*
X61934108Y-94249500D01*
X61806812Y-94283608D01*
X61692686Y-94349500D01*
X61692683Y-94349502D01*
X61599502Y-94442683D01*
X61599500Y-94442686D01*
X61533608Y-94556812D01*
X61499500Y-94684108D01*
X60000500Y-94684108D01*
X59966392Y-94556814D01*
X59900500Y-94442686D01*
X59807314Y-94349500D01*
X59741995Y-94311788D01*
X59693187Y-94283608D01*
X59629539Y-94266554D01*
X59565892Y-94249500D01*
X59434108Y-94249500D01*
X59306812Y-94283608D01*
X59192686Y-94349500D01*
X59192683Y-94349502D01*
X59099498Y-94442687D01*
X59098370Y-94444158D01*
X59097102Y-94445083D01*
X59093753Y-94448433D01*
X59093230Y-94447910D01*
X59041940Y-94485356D01*
X58972193Y-94489506D01*
X58911275Y-94455289D01*
X58901630Y-94444158D01*
X58900501Y-94442687D01*
X58807316Y-94349502D01*
X58807314Y-94349500D01*
X58741995Y-94311788D01*
X58693187Y-94283608D01*
X58629539Y-94266554D01*
X58565892Y-94249500D01*
X58434108Y-94249500D01*
X58306812Y-94283608D01*
X58192686Y-94349500D01*
X58192683Y-94349502D01*
X58099502Y-94442683D01*
X58099500Y-94442686D01*
X58033608Y-94556812D01*
X57999500Y-94684108D01*
X51946330Y-94684108D01*
X51961788Y-94676232D01*
X52101928Y-94574414D01*
X52224414Y-94451928D01*
X52326232Y-94311788D01*
X52404873Y-94157445D01*
X52458402Y-93992701D01*
X52485500Y-93821611D01*
X52485500Y-93648389D01*
X52458402Y-93477299D01*
X52404873Y-93312555D01*
X52339427Y-93184108D01*
X60999500Y-93184108D01*
X60999500Y-93315891D01*
X61033608Y-93443187D01*
X61053303Y-93477299D01*
X61099500Y-93557314D01*
X61192686Y-93650500D01*
X61306814Y-93716392D01*
X61434108Y-93750500D01*
X61434110Y-93750500D01*
X61565890Y-93750500D01*
X61565892Y-93750500D01*
X61693186Y-93716392D01*
X61807314Y-93650500D01*
X61900500Y-93557314D01*
X61966392Y-93443186D01*
X62000500Y-93315892D01*
X62000500Y-93184108D01*
X67999500Y-93184108D01*
X67999500Y-93315891D01*
X68033608Y-93443187D01*
X68053303Y-93477299D01*
X68099500Y-93557314D01*
X68192686Y-93650500D01*
X68306814Y-93716392D01*
X68434108Y-93750500D01*
X68434110Y-93750500D01*
X68565890Y-93750500D01*
X68565892Y-93750500D01*
X68693186Y-93716392D01*
X68807314Y-93650500D01*
X68900500Y-93557314D01*
X68966392Y-93443186D01*
X69000500Y-93315892D01*
X69000500Y-93184108D01*
X68966392Y-93056814D01*
X68900500Y-92942686D01*
X68807314Y-92849500D01*
X68710784Y-92793768D01*
X68693187Y-92783608D01*
X68629539Y-92766554D01*
X68565892Y-92749500D01*
X68434108Y-92749500D01*
X68306812Y-92783608D01*
X68192686Y-92849500D01*
X68192683Y-92849502D01*
X68099502Y-92942683D01*
X68099500Y-92942686D01*
X68033608Y-93056812D01*
X67999500Y-93184108D01*
X62000500Y-93184108D01*
X61966392Y-93056814D01*
X61900500Y-92942686D01*
X61807314Y-92849500D01*
X61710784Y-92793768D01*
X61693187Y-92783608D01*
X61629539Y-92766554D01*
X61565892Y-92749500D01*
X61434108Y-92749500D01*
X61306812Y-92783608D01*
X61192686Y-92849500D01*
X61192683Y-92849502D01*
X61099502Y-92942683D01*
X61099500Y-92942686D01*
X61033608Y-93056812D01*
X60999500Y-93184108D01*
X52339427Y-93184108D01*
X52326232Y-93158212D01*
X52326231Y-93158211D01*
X52301933Y-93124767D01*
X52224414Y-93018072D01*
X52101928Y-92895586D01*
X51961788Y-92793768D01*
X51807445Y-92715127D01*
X51642701Y-92661598D01*
X51642699Y-92661597D01*
X51642698Y-92661597D01*
X51511271Y-92640781D01*
X51471611Y-92634500D01*
X51298389Y-92634500D01*
X51258728Y-92640781D01*
X51127302Y-92661597D01*
X50962552Y-92715128D01*
X50808211Y-92793768D01*
X50731504Y-92849500D01*
X50668072Y-92895586D01*
X50668070Y-92895588D01*
X50668069Y-92895588D01*
X50545588Y-93018069D01*
X50545588Y-93018070D01*
X50545586Y-93018072D01*
X50522026Y-93050500D01*
X50443768Y-93158211D01*
X50365128Y-93312552D01*
X50311597Y-93477302D01*
X50291829Y-93602116D01*
X50284500Y-93648389D01*
X48575499Y-93648389D01*
X48575499Y-93602128D01*
X48569091Y-93542517D01*
X48544767Y-93477302D01*
X48518797Y-93407671D01*
X48518793Y-93407664D01*
X48432547Y-93292455D01*
X48432544Y-93292452D01*
X48317335Y-93206206D01*
X48317328Y-93206202D01*
X48182482Y-93155908D01*
X48182483Y-93155908D01*
X48122883Y-93149501D01*
X48122881Y-93149500D01*
X48122873Y-93149500D01*
X48122865Y-93149500D01*
X47928385Y-93149500D01*
X47861346Y-93129815D01*
X47815591Y-93077011D01*
X47805647Y-93007853D01*
X47834672Y-92944297D01*
X47840677Y-92937846D01*
X47940509Y-92838015D01*
X48012984Y-92712485D01*
X48050500Y-92572475D01*
X48050500Y-92427525D01*
X48012984Y-92287515D01*
X47953282Y-92184108D01*
X57999500Y-92184108D01*
X57999500Y-92315891D01*
X58033608Y-92443187D01*
X58047005Y-92466391D01*
X58099500Y-92557314D01*
X58192686Y-92650500D01*
X58291521Y-92707563D01*
X58304624Y-92715128D01*
X58306814Y-92716392D01*
X58434108Y-92750500D01*
X58434110Y-92750500D01*
X58565890Y-92750500D01*
X58565892Y-92750500D01*
X58693186Y-92716392D01*
X58807314Y-92650500D01*
X58900500Y-92557314D01*
X58900504Y-92557306D01*
X58901625Y-92555847D01*
X58902892Y-92554921D01*
X58906247Y-92551567D01*
X58906770Y-92552090D01*
X58958053Y-92514645D01*
X59027799Y-92510491D01*
X59088719Y-92544704D01*
X59098375Y-92555847D01*
X59099498Y-92557311D01*
X59099500Y-92557314D01*
X59192686Y-92650500D01*
X59291521Y-92707563D01*
X59304624Y-92715128D01*
X59306814Y-92716392D01*
X59434108Y-92750500D01*
X59434110Y-92750500D01*
X59565890Y-92750500D01*
X59565892Y-92750500D01*
X59693186Y-92716392D01*
X59807314Y-92650500D01*
X59900500Y-92557314D01*
X59966392Y-92443186D01*
X60000500Y-92315892D01*
X60000500Y-92184108D01*
X62249500Y-92184108D01*
X62249500Y-92315891D01*
X62283608Y-92443187D01*
X62297005Y-92466391D01*
X62349500Y-92557314D01*
X62442686Y-92650500D01*
X62541521Y-92707563D01*
X62554624Y-92715128D01*
X62556814Y-92716392D01*
X62684108Y-92750500D01*
X62684110Y-92750500D01*
X62815890Y-92750500D01*
X62815892Y-92750500D01*
X62943186Y-92716392D01*
X63057314Y-92650500D01*
X63150500Y-92557314D01*
X63216392Y-92443186D01*
X63250500Y-92315892D01*
X63250500Y-92184108D01*
X63216392Y-92056814D01*
X63150500Y-91942686D01*
X63141922Y-91934108D01*
X64499500Y-91934108D01*
X64499500Y-92065891D01*
X64533608Y-92193187D01*
X64559471Y-92237982D01*
X64599500Y-92307314D01*
X64692686Y-92400500D01*
X64806814Y-92466392D01*
X64934108Y-92500500D01*
X64934110Y-92500500D01*
X65065890Y-92500500D01*
X65065892Y-92500500D01*
X65193186Y-92466392D01*
X65307314Y-92400500D01*
X65400500Y-92307314D01*
X65466392Y-92193186D01*
X65468824Y-92184108D01*
X69249500Y-92184108D01*
X69249500Y-92315891D01*
X69283608Y-92443187D01*
X69297005Y-92466391D01*
X69349500Y-92557314D01*
X69442686Y-92650500D01*
X69541521Y-92707563D01*
X69554624Y-92715128D01*
X69556814Y-92716392D01*
X69684108Y-92750500D01*
X69684110Y-92750500D01*
X69815890Y-92750500D01*
X69815892Y-92750500D01*
X69943186Y-92716392D01*
X70057314Y-92650500D01*
X70150500Y-92557314D01*
X70216392Y-92443186D01*
X70250500Y-92315892D01*
X70250500Y-92184108D01*
X70216392Y-92056814D01*
X70150500Y-91942686D01*
X70141922Y-91934108D01*
X71499500Y-91934108D01*
X71499500Y-92065891D01*
X71533608Y-92193187D01*
X71559471Y-92237982D01*
X71599500Y-92307314D01*
X71692686Y-92400500D01*
X71806814Y-92466392D01*
X71934108Y-92500500D01*
X71934110Y-92500500D01*
X72065890Y-92500500D01*
X72065892Y-92500500D01*
X72193186Y-92466392D01*
X72307314Y-92400500D01*
X72400500Y-92307314D01*
X72466392Y-92193186D01*
X72500500Y-92065892D01*
X72500500Y-91934108D01*
X82299500Y-91934108D01*
X82299500Y-92065891D01*
X82333608Y-92193187D01*
X82359471Y-92237982D01*
X82399500Y-92307314D01*
X82492686Y-92400500D01*
X82606814Y-92466392D01*
X82734108Y-92500500D01*
X82734110Y-92500500D01*
X82865890Y-92500500D01*
X82865892Y-92500500D01*
X82993186Y-92466392D01*
X83060505Y-92427525D01*
X86949500Y-92427525D01*
X86949500Y-92572475D01*
X86973381Y-92661598D01*
X86987017Y-92712488D01*
X87059488Y-92838011D01*
X87059490Y-92838013D01*
X87059491Y-92838015D01*
X87161985Y-92940509D01*
X87161986Y-92940510D01*
X87161988Y-92940511D01*
X87287511Y-93012982D01*
X87287512Y-93012982D01*
X87287515Y-93012984D01*
X87427525Y-93050500D01*
X87427528Y-93050500D01*
X87572472Y-93050500D01*
X87572475Y-93050500D01*
X87712485Y-93012984D01*
X87838015Y-92940509D01*
X87940509Y-92838015D01*
X88012984Y-92712485D01*
X88050500Y-92572475D01*
X88050500Y-92427525D01*
X88012984Y-92287515D01*
X87940509Y-92161985D01*
X87838015Y-92059491D01*
X87838013Y-92059490D01*
X87838011Y-92059488D01*
X87712488Y-91987017D01*
X87712489Y-91987017D01*
X87701006Y-91983940D01*
X87572475Y-91949500D01*
X87427525Y-91949500D01*
X87298993Y-91983940D01*
X87287511Y-91987017D01*
X87161988Y-92059488D01*
X87161982Y-92059493D01*
X87059493Y-92161982D01*
X87059488Y-92161988D01*
X86987017Y-92287511D01*
X86987016Y-92287515D01*
X86949500Y-92427525D01*
X83060505Y-92427525D01*
X83107314Y-92400500D01*
X83200500Y-92307314D01*
X83266392Y-92193186D01*
X83300500Y-92065892D01*
X83300500Y-91934108D01*
X83266392Y-91806814D01*
X83266388Y-91806807D01*
X83263540Y-91799929D01*
X83256074Y-91730460D01*
X83287351Y-91667981D01*
X83302616Y-91654105D01*
X83307309Y-91650502D01*
X83307314Y-91650500D01*
X83400500Y-91557314D01*
X83466392Y-91443186D01*
X83500500Y-91315892D01*
X83500500Y-91184108D01*
X83466392Y-91056814D01*
X83400500Y-90942686D01*
X83307314Y-90849500D01*
X83249100Y-90815890D01*
X83193187Y-90783608D01*
X83129539Y-90766554D01*
X83065892Y-90749500D01*
X82934108Y-90749500D01*
X82806812Y-90783608D01*
X82692686Y-90849500D01*
X82692683Y-90849502D01*
X82599502Y-90942683D01*
X82599500Y-90942686D01*
X82533608Y-91056812D01*
X82499500Y-91184108D01*
X82499500Y-91315891D01*
X82533609Y-91443189D01*
X82536458Y-91450067D01*
X82543927Y-91519536D01*
X82512651Y-91582015D01*
X82497390Y-91595890D01*
X82492686Y-91599499D01*
X82399502Y-91692683D01*
X82399500Y-91692686D01*
X82333608Y-91806812D01*
X82299500Y-91934108D01*
X72500500Y-91934108D01*
X72466392Y-91806814D01*
X72400500Y-91692686D01*
X72307314Y-91599500D01*
X72250250Y-91566554D01*
X72193187Y-91533608D01*
X72129539Y-91516554D01*
X72065892Y-91499500D01*
X71934108Y-91499500D01*
X71806812Y-91533608D01*
X71692686Y-91599500D01*
X71692683Y-91599502D01*
X71599502Y-91692683D01*
X71599500Y-91692686D01*
X71533608Y-91806812D01*
X71499500Y-91934108D01*
X70141922Y-91934108D01*
X70057314Y-91849500D01*
X69983380Y-91806814D01*
X69943187Y-91783608D01*
X69879539Y-91766554D01*
X69815892Y-91749500D01*
X69684108Y-91749500D01*
X69556812Y-91783608D01*
X69442686Y-91849500D01*
X69442683Y-91849502D01*
X69349502Y-91942683D01*
X69349500Y-91942686D01*
X69283608Y-92056812D01*
X69249500Y-92184108D01*
X65468824Y-92184108D01*
X65500500Y-92065892D01*
X65500500Y-91934108D01*
X65466392Y-91806814D01*
X65400500Y-91692686D01*
X65307314Y-91599500D01*
X65250250Y-91566554D01*
X65193187Y-91533608D01*
X65129539Y-91516554D01*
X65065892Y-91499500D01*
X64934108Y-91499500D01*
X64806812Y-91533608D01*
X64692686Y-91599500D01*
X64692683Y-91599502D01*
X64599502Y-91692683D01*
X64599500Y-91692686D01*
X64533608Y-91806812D01*
X64499500Y-91934108D01*
X63141922Y-91934108D01*
X63057314Y-91849500D01*
X62983380Y-91806814D01*
X62943187Y-91783608D01*
X62879539Y-91766554D01*
X62815892Y-91749500D01*
X62684108Y-91749500D01*
X62556812Y-91783608D01*
X62442686Y-91849500D01*
X62442683Y-91849502D01*
X62349502Y-91942683D01*
X62349500Y-91942686D01*
X62283608Y-92056812D01*
X62249500Y-92184108D01*
X60000500Y-92184108D01*
X59966392Y-92056814D01*
X59900500Y-91942686D01*
X59807314Y-91849500D01*
X59733380Y-91806814D01*
X59693187Y-91783608D01*
X59629539Y-91766554D01*
X59565892Y-91749500D01*
X59434108Y-91749500D01*
X59306812Y-91783608D01*
X59192686Y-91849500D01*
X59192683Y-91849502D01*
X59099498Y-91942687D01*
X59098370Y-91944158D01*
X59097102Y-91945083D01*
X59093753Y-91948433D01*
X59093230Y-91947910D01*
X59041940Y-91985356D01*
X58972193Y-91989506D01*
X58911275Y-91955289D01*
X58901630Y-91944158D01*
X58900501Y-91942687D01*
X58807316Y-91849502D01*
X58807314Y-91849500D01*
X58733380Y-91806814D01*
X58693187Y-91783608D01*
X58629539Y-91766554D01*
X58565892Y-91749500D01*
X58434108Y-91749500D01*
X58306812Y-91783608D01*
X58192686Y-91849500D01*
X58192683Y-91849502D01*
X58099502Y-91942683D01*
X58099500Y-91942686D01*
X58033608Y-92056812D01*
X57999500Y-92184108D01*
X47953282Y-92184108D01*
X47940509Y-92161985D01*
X47838015Y-92059491D01*
X47838013Y-92059490D01*
X47838011Y-92059488D01*
X47712488Y-91987017D01*
X47712489Y-91987017D01*
X47701006Y-91983940D01*
X47572475Y-91949500D01*
X47427525Y-91949500D01*
X47298993Y-91983940D01*
X47287511Y-91987017D01*
X47161988Y-92059488D01*
X47161982Y-92059493D01*
X47059493Y-92161982D01*
X47059488Y-92161988D01*
X46987017Y-92287511D01*
X46987016Y-92287515D01*
X46949500Y-92427525D01*
X46949500Y-92572475D01*
X46973381Y-92661598D01*
X46987017Y-92712488D01*
X47059488Y-92838011D01*
X47059493Y-92838017D01*
X47159295Y-92937819D01*
X47192780Y-92999142D01*
X47187796Y-93068834D01*
X47145924Y-93124767D01*
X47080460Y-93149184D01*
X47071614Y-93149500D01*
X46777130Y-93149500D01*
X46777123Y-93149501D01*
X46717516Y-93155908D01*
X46582671Y-93206202D01*
X46582664Y-93206206D01*
X46467455Y-93292452D01*
X46467452Y-93292455D01*
X46381206Y-93407664D01*
X46381202Y-93407671D01*
X46330908Y-93542517D01*
X46324501Y-93602116D01*
X46324501Y-93602123D01*
X46324500Y-93602135D01*
X40500500Y-93602135D01*
X40500500Y-92427525D01*
X41949500Y-92427525D01*
X41949500Y-92572475D01*
X41973381Y-92661598D01*
X41987017Y-92712488D01*
X42059488Y-92838011D01*
X42059490Y-92838013D01*
X42059491Y-92838015D01*
X42161985Y-92940509D01*
X42161986Y-92940510D01*
X42161988Y-92940511D01*
X42287511Y-93012982D01*
X42287512Y-93012982D01*
X42287515Y-93012984D01*
X42427525Y-93050500D01*
X42427528Y-93050500D01*
X42572472Y-93050500D01*
X42572475Y-93050500D01*
X42712485Y-93012984D01*
X42838015Y-92940509D01*
X42940509Y-92838015D01*
X43012984Y-92712485D01*
X43050500Y-92572475D01*
X43050500Y-92427525D01*
X43012984Y-92287515D01*
X42940509Y-92161985D01*
X42838015Y-92059491D01*
X42838013Y-92059490D01*
X42838011Y-92059488D01*
X42712488Y-91987017D01*
X42712489Y-91987017D01*
X42701006Y-91983940D01*
X42572475Y-91949500D01*
X42427525Y-91949500D01*
X42298993Y-91983940D01*
X42287511Y-91987017D01*
X42161988Y-92059488D01*
X42161982Y-92059493D01*
X42059493Y-92161982D01*
X42059488Y-92161988D01*
X41987017Y-92287511D01*
X41987016Y-92287515D01*
X41949500Y-92427525D01*
X40500500Y-92427525D01*
X40500500Y-90684108D01*
X67249500Y-90684108D01*
X67249500Y-90815891D01*
X67283608Y-90943187D01*
X67316554Y-91000250D01*
X67349500Y-91057314D01*
X67442686Y-91150500D01*
X67556814Y-91216392D01*
X67684108Y-91250500D01*
X67684110Y-91250500D01*
X67815890Y-91250500D01*
X67815892Y-91250500D01*
X67943186Y-91216392D01*
X68057314Y-91150500D01*
X68150500Y-91057314D01*
X68216392Y-90943186D01*
X68250500Y-90815892D01*
X68250500Y-90684108D01*
X68216392Y-90556814D01*
X68150500Y-90442686D01*
X68057314Y-90349500D01*
X68000250Y-90316554D01*
X67943187Y-90283608D01*
X67879539Y-90266554D01*
X67815892Y-90249500D01*
X67684108Y-90249500D01*
X67556812Y-90283608D01*
X67442686Y-90349500D01*
X67442683Y-90349502D01*
X67349502Y-90442683D01*
X67349500Y-90442686D01*
X67283608Y-90556812D01*
X67249500Y-90684108D01*
X40500500Y-90684108D01*
X40500500Y-89927525D01*
X44449500Y-89927525D01*
X44449500Y-90072475D01*
X44470407Y-90150499D01*
X44487017Y-90212488D01*
X44559488Y-90338011D01*
X44559490Y-90338013D01*
X44559491Y-90338015D01*
X44661985Y-90440509D01*
X44661986Y-90440510D01*
X44661988Y-90440511D01*
X44787511Y-90512982D01*
X44787512Y-90512982D01*
X44787515Y-90512984D01*
X44927525Y-90550500D01*
X44927528Y-90550500D01*
X45072472Y-90550500D01*
X45072475Y-90550500D01*
X45212485Y-90512984D01*
X45338015Y-90440509D01*
X45440509Y-90338015D01*
X45512984Y-90212485D01*
X45550500Y-90072475D01*
X45550500Y-89927525D01*
X49449500Y-89927525D01*
X49449500Y-90072475D01*
X49470407Y-90150499D01*
X49487017Y-90212488D01*
X49559488Y-90338011D01*
X49559490Y-90338013D01*
X49559491Y-90338015D01*
X49661985Y-90440509D01*
X49661986Y-90440510D01*
X49661988Y-90440511D01*
X49787511Y-90512982D01*
X49787512Y-90512982D01*
X49787515Y-90512984D01*
X49927525Y-90550500D01*
X49927528Y-90550500D01*
X50072472Y-90550500D01*
X50072475Y-90550500D01*
X50212485Y-90512984D01*
X50338015Y-90440509D01*
X50440509Y-90338015D01*
X50512984Y-90212485D01*
X50550500Y-90072475D01*
X50550500Y-89934108D01*
X55699500Y-89934108D01*
X55699500Y-90065891D01*
X55733608Y-90193187D01*
X55744750Y-90212485D01*
X55799500Y-90307314D01*
X55892686Y-90400500D01*
X56006814Y-90466392D01*
X56134108Y-90500500D01*
X56134110Y-90500500D01*
X56265890Y-90500500D01*
X56265892Y-90500500D01*
X56393186Y-90466392D01*
X56507314Y-90400500D01*
X56600500Y-90307314D01*
X56666392Y-90193186D01*
X56700500Y-90065892D01*
X56700500Y-89934108D01*
X56666392Y-89806814D01*
X56600500Y-89692686D01*
X56507314Y-89599500D01*
X56438017Y-89559491D01*
X56393187Y-89533608D01*
X56329539Y-89516554D01*
X56265892Y-89499500D01*
X56134108Y-89499500D01*
X56006812Y-89533608D01*
X55892686Y-89599500D01*
X55892683Y-89599502D01*
X55799502Y-89692683D01*
X55799500Y-89692686D01*
X55733608Y-89806812D01*
X55699500Y-89934108D01*
X50550500Y-89934108D01*
X50550500Y-89927525D01*
X50512984Y-89787515D01*
X50491613Y-89750500D01*
X50440511Y-89661988D01*
X50440506Y-89661982D01*
X50338017Y-89559493D01*
X50338011Y-89559488D01*
X50212488Y-89487017D01*
X50212489Y-89487017D01*
X50201006Y-89483940D01*
X50072475Y-89449500D01*
X49927525Y-89449500D01*
X49798993Y-89483940D01*
X49787511Y-89487017D01*
X49661988Y-89559488D01*
X49661982Y-89559493D01*
X49559493Y-89661982D01*
X49559488Y-89661988D01*
X49487017Y-89787511D01*
X49487016Y-89787515D01*
X49449500Y-89927525D01*
X45550500Y-89927525D01*
X45512984Y-89787515D01*
X45491613Y-89750500D01*
X45440511Y-89661988D01*
X45440506Y-89661982D01*
X45338017Y-89559493D01*
X45338011Y-89559488D01*
X45212488Y-89487017D01*
X45212489Y-89487017D01*
X45201006Y-89483940D01*
X45072475Y-89449500D01*
X44927525Y-89449500D01*
X44798993Y-89483940D01*
X44787511Y-89487017D01*
X44661988Y-89559488D01*
X44661982Y-89559493D01*
X44559493Y-89661982D01*
X44559488Y-89661988D01*
X44487017Y-89787511D01*
X44487016Y-89787515D01*
X44449500Y-89927525D01*
X40500500Y-89927525D01*
X40500500Y-89334108D01*
X57599500Y-89334108D01*
X57599500Y-89465892D01*
X57608505Y-89499500D01*
X57633608Y-89593187D01*
X57666554Y-89650250D01*
X57699500Y-89707314D01*
X57792686Y-89800500D01*
X57906814Y-89866392D01*
X58034108Y-89900500D01*
X58034110Y-89900500D01*
X58165890Y-89900500D01*
X58165892Y-89900500D01*
X58293186Y-89866392D01*
X58407314Y-89800500D01*
X58500500Y-89707314D01*
X58566392Y-89593186D01*
X58600500Y-89465892D01*
X58600500Y-89334108D01*
X58566730Y-89208075D01*
X58566730Y-89208073D01*
X58566393Y-89206816D01*
X58566392Y-89206814D01*
X58553283Y-89184109D01*
X80476656Y-89184109D01*
X80476656Y-89315893D01*
X80493710Y-89379540D01*
X80510764Y-89443188D01*
X80536069Y-89487016D01*
X80576656Y-89557315D01*
X80669842Y-89650501D01*
X80783970Y-89716393D01*
X80911264Y-89750501D01*
X80911266Y-89750501D01*
X81043046Y-89750501D01*
X81043048Y-89750501D01*
X81170342Y-89716393D01*
X81284470Y-89650501D01*
X81377656Y-89557315D01*
X81443548Y-89443187D01*
X81477656Y-89315893D01*
X81477656Y-89184109D01*
X81443548Y-89056815D01*
X81377656Y-88942687D01*
X81284470Y-88849501D01*
X81226254Y-88815890D01*
X81170343Y-88783609D01*
X81106695Y-88766555D01*
X81043048Y-88749501D01*
X80911264Y-88749501D01*
X80783968Y-88783609D01*
X80669842Y-88849501D01*
X80669839Y-88849503D01*
X80576658Y-88942684D01*
X80576656Y-88942687D01*
X80510764Y-89056813D01*
X80483982Y-89156769D01*
X80476656Y-89184109D01*
X58553283Y-89184109D01*
X58537197Y-89156247D01*
X58500500Y-89092686D01*
X58407314Y-88999500D01*
X58350250Y-88966554D01*
X58293187Y-88933608D01*
X58229539Y-88916554D01*
X58165892Y-88899500D01*
X58034108Y-88899500D01*
X57906812Y-88933608D01*
X57792686Y-88999500D01*
X57792683Y-88999502D01*
X57699502Y-89092683D01*
X57699500Y-89092686D01*
X57633608Y-89206812D01*
X57613031Y-89283608D01*
X57599500Y-89334108D01*
X40500500Y-89334108D01*
X40500500Y-88134108D01*
X78999500Y-88134108D01*
X78999500Y-88265892D01*
X79004247Y-88283608D01*
X79033608Y-88393187D01*
X79062185Y-88442683D01*
X79099500Y-88507314D01*
X79192686Y-88600500D01*
X79306814Y-88666392D01*
X79434108Y-88700500D01*
X79434110Y-88700500D01*
X79565890Y-88700500D01*
X79565892Y-88700500D01*
X79627068Y-88684108D01*
X82499500Y-88684108D01*
X82499500Y-88815892D01*
X82508506Y-88849503D01*
X82533608Y-88943187D01*
X82566121Y-88999500D01*
X82599500Y-89057314D01*
X82599502Y-89057316D01*
X82692687Y-89150501D01*
X82694158Y-89151630D01*
X82695083Y-89152897D01*
X82698433Y-89156247D01*
X82697910Y-89156769D01*
X82735356Y-89208060D01*
X82739506Y-89277807D01*
X82705289Y-89338725D01*
X82694158Y-89348370D01*
X82692687Y-89349498D01*
X82599502Y-89442683D01*
X82599500Y-89442686D01*
X82533608Y-89556812D01*
X82499500Y-89684108D01*
X82499500Y-89815891D01*
X82533608Y-89943187D01*
X82566554Y-90000250D01*
X82599500Y-90057314D01*
X82692686Y-90150500D01*
X82806814Y-90216392D01*
X82934108Y-90250500D01*
X82934110Y-90250500D01*
X83065890Y-90250500D01*
X83065892Y-90250500D01*
X83193186Y-90216392D01*
X83307314Y-90150500D01*
X83400500Y-90057314D01*
X83466392Y-89943186D01*
X83470588Y-89927525D01*
X84449500Y-89927525D01*
X84449500Y-90072475D01*
X84470407Y-90150499D01*
X84487017Y-90212488D01*
X84559488Y-90338011D01*
X84559490Y-90338013D01*
X84559491Y-90338015D01*
X84661985Y-90440509D01*
X84661986Y-90440510D01*
X84661988Y-90440511D01*
X84787511Y-90512982D01*
X84787512Y-90512982D01*
X84787515Y-90512984D01*
X84927525Y-90550500D01*
X84927528Y-90550500D01*
X85072472Y-90550500D01*
X85072475Y-90550500D01*
X85212485Y-90512984D01*
X85338015Y-90440509D01*
X85440509Y-90338015D01*
X85512984Y-90212485D01*
X85550500Y-90072475D01*
X85550500Y-89927525D01*
X85512984Y-89787515D01*
X85491613Y-89750500D01*
X85440511Y-89661988D01*
X85440506Y-89661982D01*
X85338017Y-89559493D01*
X85338011Y-89559488D01*
X85212488Y-89487017D01*
X85212489Y-89487017D01*
X85201006Y-89483940D01*
X85072475Y-89449500D01*
X84927525Y-89449500D01*
X84798993Y-89483940D01*
X84787511Y-89487017D01*
X84661988Y-89559488D01*
X84661982Y-89559493D01*
X84559493Y-89661982D01*
X84559488Y-89661988D01*
X84487017Y-89787511D01*
X84487016Y-89787515D01*
X84449500Y-89927525D01*
X83470588Y-89927525D01*
X83500500Y-89815892D01*
X83500500Y-89684108D01*
X83466392Y-89556814D01*
X83400500Y-89442686D01*
X83307314Y-89349500D01*
X83307311Y-89349498D01*
X83305847Y-89348375D01*
X83304921Y-89347107D01*
X83301567Y-89343753D01*
X83302090Y-89343229D01*
X83264645Y-89291947D01*
X83260491Y-89222201D01*
X83294704Y-89161281D01*
X83305847Y-89151625D01*
X83307306Y-89150504D01*
X83307314Y-89150500D01*
X83400500Y-89057314D01*
X83466392Y-88943186D01*
X83500500Y-88815892D01*
X83500500Y-88684108D01*
X83466392Y-88556814D01*
X83400500Y-88442686D01*
X83307314Y-88349500D01*
X83301567Y-88343753D01*
X83303359Y-88341960D01*
X83269642Y-88295777D01*
X83265490Y-88226031D01*
X83299706Y-88165112D01*
X83311560Y-88156351D01*
X83310867Y-88155448D01*
X83317308Y-88150504D01*
X83317316Y-88150500D01*
X83410502Y-88057314D01*
X83476394Y-87943186D01*
X83510502Y-87815892D01*
X83510502Y-87684108D01*
X83476394Y-87556814D01*
X83476392Y-87556810D01*
X83432853Y-87481398D01*
X83432852Y-87481396D01*
X83410505Y-87442692D01*
X83410502Y-87442686D01*
X83395341Y-87427525D01*
X86949500Y-87427525D01*
X86949500Y-87572475D01*
X86979413Y-87684110D01*
X86987017Y-87712488D01*
X87059488Y-87838011D01*
X87059490Y-87838013D01*
X87059491Y-87838015D01*
X87161985Y-87940509D01*
X87161986Y-87940510D01*
X87161988Y-87940511D01*
X87287511Y-88012982D01*
X87287512Y-88012982D01*
X87287515Y-88012984D01*
X87427525Y-88050500D01*
X87427528Y-88050500D01*
X87572472Y-88050500D01*
X87572475Y-88050500D01*
X87712485Y-88012984D01*
X87838015Y-87940509D01*
X87940509Y-87838015D01*
X88012984Y-87712485D01*
X88050500Y-87572475D01*
X88050500Y-87427525D01*
X88012984Y-87287515D01*
X88010728Y-87283608D01*
X87940511Y-87161988D01*
X87940506Y-87161982D01*
X87838017Y-87059493D01*
X87838011Y-87059488D01*
X87712488Y-86987017D01*
X87712489Y-86987017D01*
X87701006Y-86983940D01*
X87572475Y-86949500D01*
X87427525Y-86949500D01*
X87298993Y-86983940D01*
X87287511Y-86987017D01*
X87161988Y-87059488D01*
X87161982Y-87059493D01*
X87059493Y-87161982D01*
X87059488Y-87161988D01*
X86987017Y-87287511D01*
X86987016Y-87287515D01*
X86949500Y-87427525D01*
X83395341Y-87427525D01*
X83317316Y-87349500D01*
X83260252Y-87316554D01*
X83203189Y-87283608D01*
X83139541Y-87266554D01*
X83075894Y-87249500D01*
X82944110Y-87249500D01*
X82816814Y-87283608D01*
X82702688Y-87349500D01*
X82702685Y-87349502D01*
X82609504Y-87442683D01*
X82609502Y-87442686D01*
X82543610Y-87556812D01*
X82509502Y-87684108D01*
X82509502Y-87815891D01*
X82543610Y-87943187D01*
X82576556Y-88000250D01*
X82609502Y-88057314D01*
X82609504Y-88057316D01*
X82708435Y-88156247D01*
X82706641Y-88158040D01*
X82740357Y-88204216D01*
X82744512Y-88273962D01*
X82710299Y-88334883D01*
X82698686Y-88343968D01*
X82699135Y-88344552D01*
X82692683Y-88349502D01*
X82599502Y-88442683D01*
X82599500Y-88442686D01*
X82533608Y-88556812D01*
X82521902Y-88600500D01*
X82499500Y-88684108D01*
X79627068Y-88684108D01*
X79693186Y-88666392D01*
X79807314Y-88600500D01*
X79900500Y-88507314D01*
X79966392Y-88393186D01*
X79984554Y-88325402D01*
X80020917Y-88265744D01*
X80083764Y-88235214D01*
X80136419Y-88237721D01*
X80184108Y-88250500D01*
X80184110Y-88250500D01*
X80315890Y-88250500D01*
X80315892Y-88250500D01*
X80443186Y-88216392D01*
X80557314Y-88150500D01*
X80650500Y-88057314D01*
X80716392Y-87943186D01*
X80750500Y-87815892D01*
X80750500Y-87684108D01*
X80716392Y-87556814D01*
X80650500Y-87442686D01*
X80557314Y-87349500D01*
X80500250Y-87316554D01*
X80443187Y-87283608D01*
X80379539Y-87266554D01*
X80315892Y-87249500D01*
X80184108Y-87249500D01*
X80056812Y-87283608D01*
X79942686Y-87349500D01*
X79942683Y-87349502D01*
X79849502Y-87442683D01*
X79849500Y-87442686D01*
X79783608Y-87556814D01*
X79779412Y-87572475D01*
X79765446Y-87624596D01*
X79729080Y-87684256D01*
X79666233Y-87714785D01*
X79613579Y-87712277D01*
X79565893Y-87699500D01*
X79565892Y-87699500D01*
X79434108Y-87699500D01*
X79306812Y-87733608D01*
X79192686Y-87799500D01*
X79192683Y-87799502D01*
X79099502Y-87892683D01*
X79099500Y-87892686D01*
X79033608Y-88006812D01*
X79020076Y-88057316D01*
X78999500Y-88134108D01*
X40500500Y-88134108D01*
X40500500Y-87427525D01*
X41949500Y-87427525D01*
X41949500Y-87572475D01*
X41979413Y-87684110D01*
X41987017Y-87712488D01*
X42059488Y-87838011D01*
X42059490Y-87838013D01*
X42059491Y-87838015D01*
X42161985Y-87940509D01*
X42161986Y-87940510D01*
X42161988Y-87940511D01*
X42287511Y-88012982D01*
X42287512Y-88012982D01*
X42287515Y-88012984D01*
X42427525Y-88050500D01*
X42427528Y-88050500D01*
X42572472Y-88050500D01*
X42572475Y-88050500D01*
X42712485Y-88012984D01*
X42838015Y-87940509D01*
X42940509Y-87838015D01*
X43012984Y-87712485D01*
X43050500Y-87572475D01*
X43050500Y-87427525D01*
X46949500Y-87427525D01*
X46949500Y-87572475D01*
X46979413Y-87684110D01*
X46987017Y-87712488D01*
X47059488Y-87838011D01*
X47059490Y-87838013D01*
X47059491Y-87838015D01*
X47161985Y-87940509D01*
X47161986Y-87940510D01*
X47161988Y-87940511D01*
X47287511Y-88012982D01*
X47287512Y-88012982D01*
X47287515Y-88012984D01*
X47427525Y-88050500D01*
X47427528Y-88050500D01*
X47572472Y-88050500D01*
X47572475Y-88050500D01*
X47712485Y-88012984D01*
X47838015Y-87940509D01*
X47940509Y-87838015D01*
X48012984Y-87712485D01*
X48050500Y-87572475D01*
X48050500Y-87427525D01*
X61949500Y-87427525D01*
X61949500Y-87572475D01*
X61979413Y-87684110D01*
X61987017Y-87712488D01*
X62059488Y-87838011D01*
X62059490Y-87838013D01*
X62059491Y-87838015D01*
X62161985Y-87940509D01*
X62161986Y-87940510D01*
X62161988Y-87940511D01*
X62287511Y-88012982D01*
X62287512Y-88012982D01*
X62287515Y-88012984D01*
X62427525Y-88050500D01*
X62427528Y-88050500D01*
X62572472Y-88050500D01*
X62572475Y-88050500D01*
X62712485Y-88012984D01*
X62838015Y-87940509D01*
X62940509Y-87838015D01*
X63012984Y-87712485D01*
X63050500Y-87572475D01*
X63050500Y-87427525D01*
X66949500Y-87427525D01*
X66949500Y-87572475D01*
X66979413Y-87684110D01*
X66987017Y-87712488D01*
X67059488Y-87838011D01*
X67059490Y-87838013D01*
X67059491Y-87838015D01*
X67161985Y-87940509D01*
X67161986Y-87940510D01*
X67161988Y-87940511D01*
X67287511Y-88012982D01*
X67287512Y-88012982D01*
X67287515Y-88012984D01*
X67427525Y-88050500D01*
X67427528Y-88050500D01*
X67572472Y-88050500D01*
X67572475Y-88050500D01*
X67712485Y-88012984D01*
X67838015Y-87940509D01*
X67940509Y-87838015D01*
X68012984Y-87712485D01*
X68050500Y-87572475D01*
X68050500Y-87427525D01*
X71949500Y-87427525D01*
X71949500Y-87572475D01*
X71979413Y-87684110D01*
X71987017Y-87712488D01*
X72059488Y-87838011D01*
X72059490Y-87838013D01*
X72059491Y-87838015D01*
X72161985Y-87940509D01*
X72161986Y-87940510D01*
X72161988Y-87940511D01*
X72287511Y-88012982D01*
X72287512Y-88012982D01*
X72287515Y-88012984D01*
X72427525Y-88050500D01*
X72427528Y-88050500D01*
X72572472Y-88050500D01*
X72572475Y-88050500D01*
X72712485Y-88012984D01*
X72838015Y-87940509D01*
X72940509Y-87838015D01*
X73012984Y-87712485D01*
X73050500Y-87572475D01*
X73050500Y-87427525D01*
X73012984Y-87287515D01*
X73010728Y-87283608D01*
X72940511Y-87161988D01*
X72940506Y-87161982D01*
X72838017Y-87059493D01*
X72838011Y-87059488D01*
X72712488Y-86987017D01*
X72712489Y-86987017D01*
X72701006Y-86983940D01*
X72572475Y-86949500D01*
X72427525Y-86949500D01*
X72298993Y-86983940D01*
X72287511Y-86987017D01*
X72161988Y-87059488D01*
X72161982Y-87059493D01*
X72059493Y-87161982D01*
X72059488Y-87161988D01*
X71987017Y-87287511D01*
X71987016Y-87287515D01*
X71949500Y-87427525D01*
X68050500Y-87427525D01*
X68012984Y-87287515D01*
X68010728Y-87283608D01*
X67940511Y-87161988D01*
X67940506Y-87161982D01*
X67838017Y-87059493D01*
X67838011Y-87059488D01*
X67712488Y-86987017D01*
X67712489Y-86987017D01*
X67701006Y-86983940D01*
X67572475Y-86949500D01*
X67427525Y-86949500D01*
X67298993Y-86983940D01*
X67287511Y-86987017D01*
X67161988Y-87059488D01*
X67161982Y-87059493D01*
X67059493Y-87161982D01*
X67059488Y-87161988D01*
X66987017Y-87287511D01*
X66987016Y-87287515D01*
X66949500Y-87427525D01*
X63050500Y-87427525D01*
X63012984Y-87287515D01*
X63010728Y-87283608D01*
X62940511Y-87161988D01*
X62940506Y-87161982D01*
X62838017Y-87059493D01*
X62838011Y-87059488D01*
X62712488Y-86987017D01*
X62712489Y-86987017D01*
X62701006Y-86983940D01*
X62572475Y-86949500D01*
X62427525Y-86949500D01*
X62298993Y-86983940D01*
X62287511Y-86987017D01*
X62161988Y-87059488D01*
X62161982Y-87059493D01*
X62059493Y-87161982D01*
X62059488Y-87161988D01*
X61987017Y-87287511D01*
X61987016Y-87287515D01*
X61949500Y-87427525D01*
X48050500Y-87427525D01*
X48012984Y-87287515D01*
X48010728Y-87283608D01*
X47940511Y-87161988D01*
X47940506Y-87161982D01*
X47838017Y-87059493D01*
X47838011Y-87059488D01*
X47712488Y-86987017D01*
X47712489Y-86987017D01*
X47701006Y-86983940D01*
X47572475Y-86949500D01*
X47427525Y-86949500D01*
X47298993Y-86983940D01*
X47287511Y-86987017D01*
X47161988Y-87059488D01*
X47161982Y-87059493D01*
X47059493Y-87161982D01*
X47059488Y-87161988D01*
X46987017Y-87287511D01*
X46987016Y-87287515D01*
X46949500Y-87427525D01*
X43050500Y-87427525D01*
X43012984Y-87287515D01*
X43010728Y-87283608D01*
X42940511Y-87161988D01*
X42940506Y-87161982D01*
X42838017Y-87059493D01*
X42838011Y-87059488D01*
X42712488Y-86987017D01*
X42712489Y-86987017D01*
X42701006Y-86983940D01*
X42572475Y-86949500D01*
X42427525Y-86949500D01*
X42298993Y-86983940D01*
X42287511Y-86987017D01*
X42161988Y-87059488D01*
X42161982Y-87059493D01*
X42059493Y-87161982D01*
X42059488Y-87161988D01*
X41987017Y-87287511D01*
X41987016Y-87287515D01*
X41949500Y-87427525D01*
X40500500Y-87427525D01*
X40500500Y-86234108D01*
X78699500Y-86234108D01*
X78699500Y-86365891D01*
X78733608Y-86493187D01*
X78766554Y-86550250D01*
X78799500Y-86607314D01*
X78892686Y-86700500D01*
X79006814Y-86766392D01*
X79134108Y-86800500D01*
X79134110Y-86800500D01*
X79265890Y-86800500D01*
X79265892Y-86800500D01*
X79393186Y-86766392D01*
X79507314Y-86700500D01*
X79600500Y-86607314D01*
X79666392Y-86493186D01*
X79700500Y-86365892D01*
X79700500Y-86234108D01*
X79666392Y-86106814D01*
X79600500Y-85992686D01*
X79507314Y-85899500D01*
X79448741Y-85865683D01*
X79393187Y-85833608D01*
X79329539Y-85816554D01*
X79265892Y-85799500D01*
X79134108Y-85799500D01*
X79006812Y-85833608D01*
X78892686Y-85899500D01*
X78892683Y-85899502D01*
X78799502Y-85992683D01*
X78799500Y-85992686D01*
X78733608Y-86106812D01*
X78699500Y-86234108D01*
X40500500Y-86234108D01*
X40500500Y-84927525D01*
X44449500Y-84927525D01*
X44449500Y-85072475D01*
X44481845Y-85193186D01*
X44487017Y-85212488D01*
X44559488Y-85338011D01*
X44559490Y-85338013D01*
X44559491Y-85338015D01*
X44661985Y-85440509D01*
X44661986Y-85440510D01*
X44661988Y-85440511D01*
X44787511Y-85512982D01*
X44787512Y-85512982D01*
X44787515Y-85512984D01*
X44927525Y-85550500D01*
X44927528Y-85550500D01*
X45072472Y-85550500D01*
X45072475Y-85550500D01*
X45212485Y-85512984D01*
X45338015Y-85440509D01*
X45440509Y-85338015D01*
X45512984Y-85212485D01*
X45550500Y-85072475D01*
X45550500Y-84927525D01*
X54449500Y-84927525D01*
X54449500Y-85072475D01*
X54481845Y-85193186D01*
X54487017Y-85212488D01*
X54559488Y-85338011D01*
X54559490Y-85338013D01*
X54559491Y-85338015D01*
X54661985Y-85440509D01*
X54661986Y-85440510D01*
X54661988Y-85440511D01*
X54787511Y-85512982D01*
X54787512Y-85512982D01*
X54787515Y-85512984D01*
X54927525Y-85550500D01*
X54927528Y-85550500D01*
X55072472Y-85550500D01*
X55072475Y-85550500D01*
X55212485Y-85512984D01*
X55338015Y-85440509D01*
X55440509Y-85338015D01*
X55512984Y-85212485D01*
X55550500Y-85072475D01*
X55550500Y-84927525D01*
X59449500Y-84927525D01*
X59449500Y-85072475D01*
X59481845Y-85193186D01*
X59487017Y-85212488D01*
X59559488Y-85338011D01*
X59559490Y-85338013D01*
X59559491Y-85338015D01*
X59661985Y-85440509D01*
X59661986Y-85440510D01*
X59661988Y-85440511D01*
X59787511Y-85512982D01*
X59787512Y-85512982D01*
X59787515Y-85512984D01*
X59927525Y-85550500D01*
X59927528Y-85550500D01*
X60072472Y-85550500D01*
X60072475Y-85550500D01*
X60212485Y-85512984D01*
X60338015Y-85440509D01*
X60440509Y-85338015D01*
X60512984Y-85212485D01*
X60550500Y-85072475D01*
X60550500Y-84927525D01*
X64449500Y-84927525D01*
X64449500Y-85072475D01*
X64481845Y-85193186D01*
X64487017Y-85212488D01*
X64559488Y-85338011D01*
X64559490Y-85338013D01*
X64559491Y-85338015D01*
X64661985Y-85440509D01*
X64661986Y-85440510D01*
X64661988Y-85440511D01*
X64787511Y-85512982D01*
X64787512Y-85512982D01*
X64787515Y-85512984D01*
X64927525Y-85550500D01*
X64927528Y-85550500D01*
X65072472Y-85550500D01*
X65072475Y-85550500D01*
X65212485Y-85512984D01*
X65338015Y-85440509D01*
X65440509Y-85338015D01*
X65512984Y-85212485D01*
X65550500Y-85072475D01*
X65550500Y-84927525D01*
X69449500Y-84927525D01*
X69449500Y-85072475D01*
X69481845Y-85193186D01*
X69487017Y-85212488D01*
X69559488Y-85338011D01*
X69559490Y-85338013D01*
X69559491Y-85338015D01*
X69661985Y-85440509D01*
X69661986Y-85440510D01*
X69661988Y-85440511D01*
X69787511Y-85512982D01*
X69787512Y-85512982D01*
X69787515Y-85512984D01*
X69927525Y-85550500D01*
X69927528Y-85550500D01*
X70072472Y-85550500D01*
X70072475Y-85550500D01*
X70212485Y-85512984D01*
X70338015Y-85440509D01*
X70440509Y-85338015D01*
X70512984Y-85212485D01*
X70550500Y-85072475D01*
X70550500Y-84927525D01*
X70512984Y-84787515D01*
X70458234Y-84692686D01*
X70440511Y-84661988D01*
X70440506Y-84661982D01*
X70338017Y-84559493D01*
X70338011Y-84559488D01*
X70212488Y-84487017D01*
X70212489Y-84487017D01*
X70201006Y-84483940D01*
X70072475Y-84449500D01*
X69927525Y-84449500D01*
X69798993Y-84483940D01*
X69787511Y-84487017D01*
X69661988Y-84559488D01*
X69661982Y-84559493D01*
X69559493Y-84661982D01*
X69559488Y-84661988D01*
X69487017Y-84787511D01*
X69487016Y-84787515D01*
X69449500Y-84927525D01*
X65550500Y-84927525D01*
X65512984Y-84787515D01*
X65458234Y-84692686D01*
X65440511Y-84661988D01*
X65440506Y-84661982D01*
X65338017Y-84559493D01*
X65338011Y-84559488D01*
X65212488Y-84487017D01*
X65212489Y-84487017D01*
X65201006Y-84483940D01*
X65072475Y-84449500D01*
X64927525Y-84449500D01*
X64798993Y-84483940D01*
X64787511Y-84487017D01*
X64661988Y-84559488D01*
X64661982Y-84559493D01*
X64559493Y-84661982D01*
X64559488Y-84661988D01*
X64487017Y-84787511D01*
X64487016Y-84787515D01*
X64449500Y-84927525D01*
X60550500Y-84927525D01*
X60512984Y-84787515D01*
X60458234Y-84692686D01*
X60440511Y-84661988D01*
X60440506Y-84661982D01*
X60338017Y-84559493D01*
X60338011Y-84559488D01*
X60212488Y-84487017D01*
X60212489Y-84487017D01*
X60201006Y-84483940D01*
X60072475Y-84449500D01*
X59927525Y-84449500D01*
X59798993Y-84483940D01*
X59787511Y-84487017D01*
X59661988Y-84559488D01*
X59661982Y-84559493D01*
X59559493Y-84661982D01*
X59559488Y-84661988D01*
X59487017Y-84787511D01*
X59487016Y-84787515D01*
X59449500Y-84927525D01*
X55550500Y-84927525D01*
X55512984Y-84787515D01*
X55458234Y-84692686D01*
X55440511Y-84661988D01*
X55440506Y-84661982D01*
X55338017Y-84559493D01*
X55338011Y-84559488D01*
X55212488Y-84487017D01*
X55212489Y-84487017D01*
X55201006Y-84483940D01*
X55072475Y-84449500D01*
X54927525Y-84449500D01*
X54798993Y-84483940D01*
X54787511Y-84487017D01*
X54661988Y-84559488D01*
X54661982Y-84559493D01*
X54559493Y-84661982D01*
X54559488Y-84661988D01*
X54487017Y-84787511D01*
X54487016Y-84787515D01*
X54449500Y-84927525D01*
X45550500Y-84927525D01*
X45512984Y-84787515D01*
X45458234Y-84692686D01*
X45440511Y-84661988D01*
X45440506Y-84661982D01*
X45338017Y-84559493D01*
X45338011Y-84559488D01*
X45212488Y-84487017D01*
X45212489Y-84487017D01*
X45201006Y-84483940D01*
X45072475Y-84449500D01*
X44927525Y-84449500D01*
X44798993Y-84483940D01*
X44787511Y-84487017D01*
X44661988Y-84559488D01*
X44661982Y-84559493D01*
X44559493Y-84661982D01*
X44559488Y-84661988D01*
X44487017Y-84787511D01*
X44487016Y-84787515D01*
X44449500Y-84927525D01*
X40500500Y-84927525D01*
X40500500Y-83761108D01*
X82499500Y-83761108D01*
X82499500Y-83892891D01*
X82533608Y-84020187D01*
X82566554Y-84077250D01*
X82599500Y-84134314D01*
X82692686Y-84227500D01*
X82806814Y-84293392D01*
X82808060Y-84293726D01*
X82808994Y-84294295D01*
X82814318Y-84296500D01*
X82813974Y-84297330D01*
X82867719Y-84330090D01*
X82898248Y-84392937D01*
X82889953Y-84462313D01*
X82845468Y-84516191D01*
X82814288Y-84530429D01*
X82814318Y-84530500D01*
X82812356Y-84531312D01*
X82808062Y-84533273D01*
X82806814Y-84533608D01*
X82806812Y-84533608D01*
X82806812Y-84533609D01*
X82692686Y-84599500D01*
X82692683Y-84599502D01*
X82599502Y-84692683D01*
X82599500Y-84692686D01*
X82533608Y-84806812D01*
X82499500Y-84934108D01*
X82499500Y-85065891D01*
X82533608Y-85193187D01*
X82544750Y-85212485D01*
X82599500Y-85307314D01*
X82692686Y-85400500D01*
X82806814Y-85466392D01*
X82808060Y-85466726D01*
X82808994Y-85467295D01*
X82814318Y-85469500D01*
X82813974Y-85470330D01*
X82867719Y-85503090D01*
X82898248Y-85565937D01*
X82889953Y-85635313D01*
X82845468Y-85689191D01*
X82814288Y-85703429D01*
X82814318Y-85703500D01*
X82812356Y-85704312D01*
X82808062Y-85706273D01*
X82806814Y-85706608D01*
X82806812Y-85706608D01*
X82806812Y-85706609D01*
X82692686Y-85772500D01*
X82692683Y-85772502D01*
X82599502Y-85865683D01*
X82599500Y-85865686D01*
X82533608Y-85979812D01*
X82499500Y-86107108D01*
X82499500Y-86238891D01*
X82533608Y-86366187D01*
X82566554Y-86423250D01*
X82599500Y-86480314D01*
X82692686Y-86573500D01*
X82806814Y-86639392D01*
X82934108Y-86673500D01*
X82934110Y-86673500D01*
X83065890Y-86673500D01*
X83065892Y-86673500D01*
X83193186Y-86639392D01*
X83307314Y-86573500D01*
X83400500Y-86480314D01*
X83466392Y-86366186D01*
X83500500Y-86238892D01*
X83500500Y-86107108D01*
X83466392Y-85979814D01*
X83400500Y-85865686D01*
X83307314Y-85772500D01*
X83193186Y-85706608D01*
X83191941Y-85706274D01*
X83191009Y-85705706D01*
X83185682Y-85703500D01*
X83186026Y-85702669D01*
X83132282Y-85669912D01*
X83101751Y-85607066D01*
X83110044Y-85537690D01*
X83154528Y-85483811D01*
X83185711Y-85469570D01*
X83185682Y-85469500D01*
X83187651Y-85468684D01*
X83191939Y-85466725D01*
X83193186Y-85466392D01*
X83307314Y-85400500D01*
X83400500Y-85307314D01*
X83466392Y-85193186D01*
X83500500Y-85065892D01*
X83500500Y-84934108D01*
X83498736Y-84927525D01*
X84449500Y-84927525D01*
X84449500Y-85072475D01*
X84481845Y-85193186D01*
X84487017Y-85212488D01*
X84559488Y-85338011D01*
X84559490Y-85338013D01*
X84559491Y-85338015D01*
X84661985Y-85440509D01*
X84661986Y-85440510D01*
X84661988Y-85440511D01*
X84787511Y-85512982D01*
X84787512Y-85512982D01*
X84787515Y-85512984D01*
X84927525Y-85550500D01*
X84927528Y-85550500D01*
X85072472Y-85550500D01*
X85072475Y-85550500D01*
X85212485Y-85512984D01*
X85338015Y-85440509D01*
X85440509Y-85338015D01*
X85512984Y-85212485D01*
X85550500Y-85072475D01*
X85550500Y-84927525D01*
X85512984Y-84787515D01*
X85458234Y-84692686D01*
X85440511Y-84661988D01*
X85440506Y-84661982D01*
X85338017Y-84559493D01*
X85338011Y-84559488D01*
X85212488Y-84487017D01*
X85212489Y-84487017D01*
X85201006Y-84483940D01*
X85072475Y-84449500D01*
X84927525Y-84449500D01*
X84798993Y-84483940D01*
X84787511Y-84487017D01*
X84661988Y-84559488D01*
X84661982Y-84559493D01*
X84559493Y-84661982D01*
X84559488Y-84661988D01*
X84487017Y-84787511D01*
X84487016Y-84787515D01*
X84449500Y-84927525D01*
X83498736Y-84927525D01*
X83466392Y-84806814D01*
X83400500Y-84692686D01*
X83307314Y-84599500D01*
X83193186Y-84533608D01*
X83191941Y-84533274D01*
X83191009Y-84532706D01*
X83185682Y-84530500D01*
X83186026Y-84529669D01*
X83132282Y-84496912D01*
X83101751Y-84434066D01*
X83110044Y-84364690D01*
X83154528Y-84310811D01*
X83185711Y-84296570D01*
X83185682Y-84296500D01*
X83187651Y-84295684D01*
X83191939Y-84293725D01*
X83193186Y-84293392D01*
X83307314Y-84227500D01*
X83400500Y-84134314D01*
X83466392Y-84020186D01*
X83500500Y-83892892D01*
X83500500Y-83761108D01*
X83466392Y-83633814D01*
X83400500Y-83519686D01*
X83307314Y-83426500D01*
X83250250Y-83393554D01*
X83193187Y-83360608D01*
X83129539Y-83343554D01*
X83065892Y-83326500D01*
X82934108Y-83326500D01*
X82806812Y-83360608D01*
X82692686Y-83426500D01*
X82692683Y-83426502D01*
X82599502Y-83519683D01*
X82599500Y-83519686D01*
X82533608Y-83633812D01*
X82499500Y-83761108D01*
X40500500Y-83761108D01*
X40500500Y-82427525D01*
X41949500Y-82427525D01*
X41949500Y-82572475D01*
X41983805Y-82700500D01*
X41987017Y-82712488D01*
X42059488Y-82838011D01*
X42059490Y-82838013D01*
X42059491Y-82838015D01*
X42161985Y-82940509D01*
X42161986Y-82940510D01*
X42161988Y-82940511D01*
X42287511Y-83012982D01*
X42287512Y-83012982D01*
X42287515Y-83012984D01*
X42427525Y-83050500D01*
X42427528Y-83050500D01*
X42572472Y-83050500D01*
X42572475Y-83050500D01*
X42712485Y-83012984D01*
X42838015Y-82940509D01*
X42940509Y-82838015D01*
X43012984Y-82712485D01*
X43050500Y-82572475D01*
X43050500Y-82427525D01*
X43012984Y-82287515D01*
X42982149Y-82234108D01*
X75599500Y-82234108D01*
X75599500Y-82365891D01*
X75633608Y-82493187D01*
X75666554Y-82550250D01*
X75699500Y-82607314D01*
X75792686Y-82700500D01*
X75906814Y-82766392D01*
X76034108Y-82800500D01*
X76034110Y-82800500D01*
X76165890Y-82800500D01*
X76165892Y-82800500D01*
X76293186Y-82766392D01*
X76407314Y-82700500D01*
X76500500Y-82607314D01*
X76566392Y-82493186D01*
X76600500Y-82365892D01*
X76600500Y-82234108D01*
X76566392Y-82106814D01*
X76500500Y-81992686D01*
X76407314Y-81899500D01*
X76350250Y-81866554D01*
X76293187Y-81833608D01*
X76229539Y-81816554D01*
X76165892Y-81799500D01*
X76034108Y-81799500D01*
X75906812Y-81833608D01*
X75792686Y-81899500D01*
X75792683Y-81899502D01*
X75699502Y-81992683D01*
X75699500Y-81992686D01*
X75633608Y-82106812D01*
X75599500Y-82234108D01*
X42982149Y-82234108D01*
X42940509Y-82161985D01*
X42838015Y-82059491D01*
X42838013Y-82059490D01*
X42838011Y-82059488D01*
X42712488Y-81987017D01*
X42712489Y-81987017D01*
X42701006Y-81983940D01*
X42572475Y-81949500D01*
X42427525Y-81949500D01*
X42298993Y-81983940D01*
X42287511Y-81987017D01*
X42161988Y-82059488D01*
X42161982Y-82059493D01*
X42059493Y-82161982D01*
X42059488Y-82161988D01*
X41987017Y-82287511D01*
X41987016Y-82287515D01*
X41949500Y-82427525D01*
X40500500Y-82427525D01*
X40500500Y-80634108D01*
X78699500Y-80634108D01*
X78699500Y-80765892D01*
X78712897Y-80815891D01*
X78733608Y-80893187D01*
X78762185Y-80942683D01*
X78799500Y-81007314D01*
X78892686Y-81100500D01*
X78906890Y-81108701D01*
X78942295Y-81129143D01*
X78990510Y-81179710D01*
X79003732Y-81248317D01*
X78977764Y-81313182D01*
X78967976Y-81324210D01*
X78899500Y-81392686D01*
X78833608Y-81506812D01*
X78799500Y-81634108D01*
X78799500Y-81765891D01*
X78833608Y-81893187D01*
X78862185Y-81942683D01*
X78899500Y-82007314D01*
X78992686Y-82100500D01*
X79106814Y-82166392D01*
X79234108Y-82200500D01*
X79234110Y-82200500D01*
X79365890Y-82200500D01*
X79365892Y-82200500D01*
X79493186Y-82166392D01*
X79563500Y-82125795D01*
X79631399Y-82109323D01*
X79697426Y-82132175D01*
X79740617Y-82187096D01*
X79749500Y-82233183D01*
X79749500Y-82315891D01*
X79783608Y-82443187D01*
X79812476Y-82493186D01*
X79849500Y-82557314D01*
X79942686Y-82650500D01*
X80056814Y-82716392D01*
X80184108Y-82750500D01*
X80184110Y-82750500D01*
X80315890Y-82750500D01*
X80315892Y-82750500D01*
X80443186Y-82716392D01*
X80557314Y-82650500D01*
X80650500Y-82557314D01*
X80716392Y-82443186D01*
X80750500Y-82315892D01*
X80750500Y-82184108D01*
X80716392Y-82056814D01*
X80650500Y-81942686D01*
X80557314Y-81849500D01*
X80500250Y-81816554D01*
X80443187Y-81783608D01*
X80365909Y-81762902D01*
X80315892Y-81749500D01*
X80184108Y-81749500D01*
X80056814Y-81783608D01*
X80056813Y-81783608D01*
X80056811Y-81783609D01*
X80056810Y-81783609D01*
X79986500Y-81824203D01*
X79918600Y-81840676D01*
X79852573Y-81817823D01*
X79809382Y-81762902D01*
X79800500Y-81716816D01*
X79800500Y-81634110D01*
X79800500Y-81634108D01*
X79766392Y-81506814D01*
X79700500Y-81392686D01*
X79607314Y-81299500D01*
X79595610Y-81292743D01*
X79557703Y-81270856D01*
X79509488Y-81220288D01*
X79496267Y-81151681D01*
X79522236Y-81086817D01*
X79532008Y-81075805D01*
X79600500Y-81007314D01*
X79666392Y-80893186D01*
X79700500Y-80765892D01*
X79700500Y-80684109D01*
X80476656Y-80684109D01*
X80476656Y-80815893D01*
X80493710Y-80879540D01*
X80510764Y-80943188D01*
X80543710Y-81000251D01*
X80576656Y-81057315D01*
X80669842Y-81150501D01*
X80783970Y-81216393D01*
X80911264Y-81250501D01*
X80911266Y-81250501D01*
X81043046Y-81250501D01*
X81043048Y-81250501D01*
X81170342Y-81216393D01*
X81284470Y-81150501D01*
X81377656Y-81057315D01*
X81443548Y-80943187D01*
X81477656Y-80815893D01*
X81477656Y-80684109D01*
X81443548Y-80556815D01*
X81377656Y-80442687D01*
X81284470Y-80349501D01*
X81226254Y-80315890D01*
X81170343Y-80283609D01*
X81106695Y-80266555D01*
X81043048Y-80249501D01*
X80911264Y-80249501D01*
X80783968Y-80283609D01*
X80669842Y-80349501D01*
X80669839Y-80349503D01*
X80576658Y-80442684D01*
X80576656Y-80442687D01*
X80510764Y-80556813D01*
X80483982Y-80656769D01*
X80476656Y-80684109D01*
X79700500Y-80684109D01*
X79700500Y-80634108D01*
X79666392Y-80506814D01*
X79600500Y-80392686D01*
X79507314Y-80299500D01*
X79450250Y-80266554D01*
X79393187Y-80233608D01*
X79314353Y-80212485D01*
X79265892Y-80199500D01*
X79134108Y-80199500D01*
X79006812Y-80233608D01*
X78892686Y-80299500D01*
X78892683Y-80299502D01*
X78799502Y-80392683D01*
X78799500Y-80392686D01*
X78733608Y-80506812D01*
X78720076Y-80557316D01*
X78699500Y-80634108D01*
X40500500Y-80634108D01*
X40500500Y-78934108D01*
X69099500Y-78934108D01*
X69099500Y-79065891D01*
X69133608Y-79193187D01*
X69133609Y-79193188D01*
X69199500Y-79307314D01*
X69292686Y-79400500D01*
X69406814Y-79466392D01*
X69480740Y-79486200D01*
X69540398Y-79522564D01*
X69570928Y-79585410D01*
X69562634Y-79654786D01*
X69556032Y-79667974D01*
X69487017Y-79787511D01*
X69487016Y-79787515D01*
X69449500Y-79927525D01*
X69449500Y-80072475D01*
X69479413Y-80184110D01*
X69487017Y-80212488D01*
X69559488Y-80338011D01*
X69559490Y-80338013D01*
X69559491Y-80338015D01*
X69661985Y-80440509D01*
X69661986Y-80440510D01*
X69661988Y-80440511D01*
X69787511Y-80512982D01*
X69787512Y-80512982D01*
X69787515Y-80512984D01*
X69927525Y-80550500D01*
X69927528Y-80550500D01*
X70072472Y-80550500D01*
X70072475Y-80550500D01*
X70212485Y-80512984D01*
X70338015Y-80440509D01*
X70440509Y-80338015D01*
X70512984Y-80212485D01*
X70520588Y-80184108D01*
X82499500Y-80184108D01*
X82499500Y-80315892D01*
X82508506Y-80349503D01*
X82533608Y-80443187D01*
X82566554Y-80500250D01*
X82599500Y-80557314D01*
X82599502Y-80557316D01*
X82692687Y-80650501D01*
X82694158Y-80651630D01*
X82695083Y-80652897D01*
X82698433Y-80656247D01*
X82697910Y-80656769D01*
X82735356Y-80708060D01*
X82739506Y-80777807D01*
X82705289Y-80838725D01*
X82694158Y-80848370D01*
X82692687Y-80849498D01*
X82599502Y-80942683D01*
X82599500Y-80942686D01*
X82533608Y-81056812D01*
X82499500Y-81184108D01*
X82499500Y-81315891D01*
X82533608Y-81443187D01*
X82566554Y-81500250D01*
X82599500Y-81557314D01*
X82692686Y-81650500D01*
X82692689Y-81650502D01*
X82699135Y-81655448D01*
X82696906Y-81658352D01*
X82733630Y-81696525D01*
X82747158Y-81765072D01*
X82721479Y-81830052D01*
X82708058Y-81843376D01*
X82708435Y-81843753D01*
X82609504Y-81942683D01*
X82609502Y-81942686D01*
X82543610Y-82056812D01*
X82509502Y-82184108D01*
X82509502Y-82315891D01*
X82543610Y-82443187D01*
X82572478Y-82493186D01*
X82609502Y-82557314D01*
X82702688Y-82650500D01*
X82816816Y-82716392D01*
X82944110Y-82750500D01*
X82944112Y-82750500D01*
X83075892Y-82750500D01*
X83075894Y-82750500D01*
X83203188Y-82716392D01*
X83317316Y-82650500D01*
X83410502Y-82557314D01*
X83476394Y-82443186D01*
X83480590Y-82427525D01*
X86949500Y-82427525D01*
X86949500Y-82572475D01*
X86983805Y-82700500D01*
X86987017Y-82712488D01*
X87059488Y-82838011D01*
X87059490Y-82838013D01*
X87059491Y-82838015D01*
X87161985Y-82940509D01*
X87161986Y-82940510D01*
X87161988Y-82940511D01*
X87287511Y-83012982D01*
X87287512Y-83012982D01*
X87287515Y-83012984D01*
X87427525Y-83050500D01*
X87427528Y-83050500D01*
X87572472Y-83050500D01*
X87572475Y-83050500D01*
X87712485Y-83012984D01*
X87838015Y-82940509D01*
X87940509Y-82838015D01*
X88012984Y-82712485D01*
X88050500Y-82572475D01*
X88050500Y-82427525D01*
X88012984Y-82287515D01*
X87982149Y-82234108D01*
X87940511Y-82161988D01*
X87940506Y-82161982D01*
X87838017Y-82059493D01*
X87838011Y-82059488D01*
X87712488Y-81987017D01*
X87712489Y-81987017D01*
X87701006Y-81983940D01*
X87572475Y-81949500D01*
X87427525Y-81949500D01*
X87298993Y-81983940D01*
X87287511Y-81987017D01*
X87161988Y-82059488D01*
X87161982Y-82059493D01*
X87059493Y-82161982D01*
X87059488Y-82161988D01*
X86987017Y-82287511D01*
X86987016Y-82287515D01*
X86949500Y-82427525D01*
X83480590Y-82427525D01*
X83510502Y-82315892D01*
X83510502Y-82184108D01*
X83476394Y-82056814D01*
X83410502Y-81942686D01*
X83317316Y-81849500D01*
X83317313Y-81849498D01*
X83310867Y-81844552D01*
X83312925Y-81841868D01*
X83275549Y-81801867D01*
X83263020Y-81733130D01*
X83289642Y-81668531D01*
X83301880Y-81656560D01*
X83301567Y-81656247D01*
X83323706Y-81634108D01*
X83400500Y-81557314D01*
X83466392Y-81443186D01*
X83500500Y-81315892D01*
X83500500Y-81184108D01*
X83466392Y-81056814D01*
X83400500Y-80942686D01*
X83307314Y-80849500D01*
X83307311Y-80849498D01*
X83305847Y-80848375D01*
X83304921Y-80847107D01*
X83301567Y-80843753D01*
X83302090Y-80843229D01*
X83264645Y-80791947D01*
X83260491Y-80722201D01*
X83294704Y-80661281D01*
X83305847Y-80651625D01*
X83307306Y-80650504D01*
X83307314Y-80650500D01*
X83400500Y-80557314D01*
X83466392Y-80443186D01*
X83500500Y-80315892D01*
X83500500Y-80184108D01*
X83466392Y-80056814D01*
X83466390Y-80056810D01*
X83422851Y-79981398D01*
X83422850Y-79981396D01*
X83400503Y-79942692D01*
X83400500Y-79942686D01*
X83385339Y-79927525D01*
X84449500Y-79927525D01*
X84449500Y-80072475D01*
X84479413Y-80184110D01*
X84487017Y-80212488D01*
X84559488Y-80338011D01*
X84559490Y-80338013D01*
X84559491Y-80338015D01*
X84661985Y-80440509D01*
X84661986Y-80440510D01*
X84661988Y-80440511D01*
X84787511Y-80512982D01*
X84787512Y-80512982D01*
X84787515Y-80512984D01*
X84927525Y-80550500D01*
X84927528Y-80550500D01*
X85072472Y-80550500D01*
X85072475Y-80550500D01*
X85212485Y-80512984D01*
X85338015Y-80440509D01*
X85440509Y-80338015D01*
X85512984Y-80212485D01*
X85550500Y-80072475D01*
X85550500Y-79927525D01*
X85512984Y-79787515D01*
X85510728Y-79783608D01*
X85440511Y-79661988D01*
X85440506Y-79661982D01*
X85338017Y-79559493D01*
X85338011Y-79559488D01*
X85212488Y-79487017D01*
X85212489Y-79487017D01*
X85201006Y-79483940D01*
X85072475Y-79449500D01*
X84927525Y-79449500D01*
X84798993Y-79483940D01*
X84787511Y-79487017D01*
X84661988Y-79559488D01*
X84661982Y-79559493D01*
X84559493Y-79661982D01*
X84559488Y-79661988D01*
X84487017Y-79787511D01*
X84487016Y-79787515D01*
X84449500Y-79927525D01*
X83385339Y-79927525D01*
X83307314Y-79849500D01*
X83250250Y-79816554D01*
X83193187Y-79783608D01*
X83129539Y-79766554D01*
X83065892Y-79749500D01*
X82934108Y-79749500D01*
X82806812Y-79783608D01*
X82692686Y-79849500D01*
X82692683Y-79849502D01*
X82599502Y-79942683D01*
X82599500Y-79942686D01*
X82533608Y-80056812D01*
X82499500Y-80184108D01*
X70520588Y-80184108D01*
X70550500Y-80072475D01*
X70550500Y-79927525D01*
X70512984Y-79787515D01*
X70510728Y-79783608D01*
X70440511Y-79661988D01*
X70440506Y-79661982D01*
X70338017Y-79559493D01*
X70338011Y-79559488D01*
X70212488Y-79487017D01*
X70212489Y-79487017D01*
X70191277Y-79481333D01*
X70095141Y-79455573D01*
X70035482Y-79419208D01*
X70004953Y-79356361D01*
X70013248Y-79286986D01*
X70019842Y-79273811D01*
X70066392Y-79193186D01*
X70100500Y-79065892D01*
X70100500Y-78934108D01*
X70066392Y-78806814D01*
X70000500Y-78692686D01*
X69907314Y-78599500D01*
X69833380Y-78556814D01*
X69793187Y-78533608D01*
X69729539Y-78516554D01*
X69665892Y-78499500D01*
X69534108Y-78499500D01*
X69406812Y-78533608D01*
X69292686Y-78599500D01*
X69292683Y-78599502D01*
X69199502Y-78692683D01*
X69199500Y-78692686D01*
X69133608Y-78806812D01*
X69099500Y-78934108D01*
X40500500Y-78934108D01*
X40500500Y-77427525D01*
X41949500Y-77427525D01*
X41949500Y-77572475D01*
X41979413Y-77684110D01*
X41987017Y-77712488D01*
X42059488Y-77838011D01*
X42059490Y-77838013D01*
X42059491Y-77838015D01*
X42161985Y-77940509D01*
X42161986Y-77940510D01*
X42161988Y-77940511D01*
X42287511Y-78012982D01*
X42287512Y-78012982D01*
X42287515Y-78012984D01*
X42427525Y-78050500D01*
X42427528Y-78050500D01*
X42572472Y-78050500D01*
X42572475Y-78050500D01*
X42712485Y-78012984D01*
X42838015Y-77940509D01*
X42844416Y-77934108D01*
X65499500Y-77934108D01*
X65499500Y-78065891D01*
X65533608Y-78193187D01*
X65547005Y-78216391D01*
X65599500Y-78307314D01*
X65692686Y-78400500D01*
X65806814Y-78466392D01*
X65934108Y-78500500D01*
X65934110Y-78500500D01*
X66065890Y-78500500D01*
X66065892Y-78500500D01*
X66193186Y-78466392D01*
X66307314Y-78400500D01*
X66400500Y-78307314D01*
X66466392Y-78193186D01*
X66500500Y-78065892D01*
X66500500Y-77934108D01*
X66466392Y-77806814D01*
X66400500Y-77692686D01*
X66307314Y-77599500D01*
X66250250Y-77566554D01*
X66193187Y-77533608D01*
X66079887Y-77503250D01*
X66065892Y-77499500D01*
X65934108Y-77499500D01*
X65806812Y-77533608D01*
X65692686Y-77599500D01*
X65692683Y-77599502D01*
X65599502Y-77692683D01*
X65599500Y-77692686D01*
X65533608Y-77806812D01*
X65499500Y-77934108D01*
X42844416Y-77934108D01*
X42940509Y-77838015D01*
X43012984Y-77712485D01*
X43050500Y-77572475D01*
X43050500Y-77427525D01*
X43012984Y-77287515D01*
X42940509Y-77161985D01*
X42838015Y-77059491D01*
X42838013Y-77059490D01*
X42838011Y-77059488D01*
X42712488Y-76987017D01*
X42712489Y-76987017D01*
X42701006Y-76983940D01*
X42572475Y-76949500D01*
X42427525Y-76949500D01*
X42298993Y-76983940D01*
X42287511Y-76987017D01*
X42161988Y-77059488D01*
X42161982Y-77059493D01*
X42059493Y-77161982D01*
X42059488Y-77161988D01*
X41987017Y-77287511D01*
X41987016Y-77287515D01*
X41949500Y-77427525D01*
X40500500Y-77427525D01*
X40500500Y-76184108D01*
X58249500Y-76184108D01*
X58249500Y-76315892D01*
X58281176Y-76434110D01*
X58283609Y-76443188D01*
X58283609Y-76443189D01*
X58352782Y-76563000D01*
X58369255Y-76630900D01*
X58352782Y-76687000D01*
X58283609Y-76806810D01*
X58283609Y-76806811D01*
X58283609Y-76806812D01*
X58283608Y-76806814D01*
X58249500Y-76934108D01*
X58249500Y-77065892D01*
X58266554Y-77129539D01*
X58283608Y-77193187D01*
X58291766Y-77207316D01*
X58349500Y-77307314D01*
X58442686Y-77400500D01*
X58541521Y-77457563D01*
X58556810Y-77466390D01*
X58556814Y-77466392D01*
X58684108Y-77500500D01*
X58684110Y-77500500D01*
X58815890Y-77500500D01*
X58815892Y-77500500D01*
X58943186Y-77466392D01*
X59057314Y-77400500D01*
X59057315Y-77400498D01*
X59062999Y-77397217D01*
X59130899Y-77380744D01*
X59187001Y-77397217D01*
X59192684Y-77400498D01*
X59192686Y-77400500D01*
X59286444Y-77454631D01*
X59306810Y-77466390D01*
X59306814Y-77466392D01*
X59434108Y-77500500D01*
X59434110Y-77500500D01*
X59565890Y-77500500D01*
X59565892Y-77500500D01*
X59693186Y-77466392D01*
X59807314Y-77400500D01*
X59900500Y-77307314D01*
X59966392Y-77193186D01*
X60000500Y-77065892D01*
X60000500Y-76934108D01*
X59973705Y-76834108D01*
X62099500Y-76834108D01*
X62099500Y-76965892D01*
X62106360Y-76991494D01*
X62133608Y-77093187D01*
X62133610Y-77093190D01*
X62199500Y-77207314D01*
X62292686Y-77300500D01*
X62406814Y-77366392D01*
X62534108Y-77400500D01*
X62534110Y-77400500D01*
X62665890Y-77400500D01*
X62665892Y-77400500D01*
X62793186Y-77366392D01*
X62907314Y-77300500D01*
X63000500Y-77207314D01*
X63066392Y-77093186D01*
X63066826Y-77091563D01*
X63067567Y-77090347D01*
X63069500Y-77085682D01*
X63070227Y-77085983D01*
X63103184Y-77031904D01*
X63166028Y-77001370D01*
X63235405Y-77009658D01*
X63289286Y-77054139D01*
X63306376Y-77091556D01*
X63333608Y-77193186D01*
X63399500Y-77307314D01*
X63492686Y-77400500D01*
X63591521Y-77457563D01*
X63606810Y-77466390D01*
X63606814Y-77466392D01*
X63734108Y-77500500D01*
X63734110Y-77500500D01*
X63865890Y-77500500D01*
X63865892Y-77500500D01*
X63993186Y-77466392D01*
X64107314Y-77400500D01*
X64200500Y-77307314D01*
X64266392Y-77193186D01*
X64300500Y-77065892D01*
X64300500Y-76934108D01*
X67749500Y-76934108D01*
X67749500Y-77065892D01*
X67766554Y-77129539D01*
X67783608Y-77193187D01*
X67791766Y-77207316D01*
X67849500Y-77307314D01*
X67942686Y-77400500D01*
X68041521Y-77457563D01*
X68056810Y-77466390D01*
X68056814Y-77466392D01*
X68171247Y-77497054D01*
X68230907Y-77533418D01*
X68261436Y-77596264D01*
X68258928Y-77648920D01*
X68249500Y-77684106D01*
X68249500Y-77815891D01*
X68283608Y-77943187D01*
X68316554Y-78000250D01*
X68349500Y-78057314D01*
X68442686Y-78150500D01*
X68556814Y-78216392D01*
X68684108Y-78250500D01*
X68684110Y-78250500D01*
X68815890Y-78250500D01*
X68815892Y-78250500D01*
X68943186Y-78216392D01*
X69057314Y-78150500D01*
X69150500Y-78057314D01*
X69216392Y-77943186D01*
X69250500Y-77815892D01*
X69250500Y-77684108D01*
X69216926Y-77558807D01*
X69217588Y-77530967D01*
X69214942Y-77503250D01*
X69218408Y-77496524D01*
X69218589Y-77488960D01*
X69234196Y-77465900D01*
X69246957Y-77441147D01*
X69255493Y-77434433D01*
X69257752Y-77431097D01*
X69274700Y-77419330D01*
X69312998Y-77397218D01*
X69380898Y-77380744D01*
X69436999Y-77397217D01*
X69556810Y-77466390D01*
X69556811Y-77466390D01*
X69556814Y-77466392D01*
X69684108Y-77500500D01*
X69684110Y-77500500D01*
X69815890Y-77500500D01*
X69815892Y-77500500D01*
X69943186Y-77466392D01*
X70057314Y-77400500D01*
X70057315Y-77400498D01*
X70062999Y-77397217D01*
X70130899Y-77380744D01*
X70187001Y-77397217D01*
X70192684Y-77400498D01*
X70192686Y-77400500D01*
X70286444Y-77454631D01*
X70306810Y-77466390D01*
X70306814Y-77466392D01*
X70434108Y-77500500D01*
X70434110Y-77500500D01*
X70565890Y-77500500D01*
X70565892Y-77500500D01*
X70693186Y-77466392D01*
X70760505Y-77427525D01*
X71949500Y-77427525D01*
X71949500Y-77572475D01*
X71979413Y-77684110D01*
X71987017Y-77712488D01*
X72059488Y-77838011D01*
X72059490Y-77838013D01*
X72059491Y-77838015D01*
X72161985Y-77940509D01*
X72161986Y-77940510D01*
X72161988Y-77940511D01*
X72287511Y-78012982D01*
X72287512Y-78012982D01*
X72287515Y-78012984D01*
X72427525Y-78050500D01*
X72427528Y-78050500D01*
X72572472Y-78050500D01*
X72572475Y-78050500D01*
X72712485Y-78012984D01*
X72838015Y-77940509D01*
X72844416Y-77934108D01*
X82299500Y-77934108D01*
X82299500Y-78065891D01*
X82333608Y-78193187D01*
X82347005Y-78216391D01*
X82399500Y-78307314D01*
X82399502Y-78307316D01*
X82492686Y-78400500D01*
X82497384Y-78404105D01*
X82538587Y-78460533D01*
X82542741Y-78530279D01*
X82536460Y-78549929D01*
X82533608Y-78556814D01*
X82499500Y-78684108D01*
X82499500Y-78815891D01*
X82533608Y-78943187D01*
X82566554Y-79000250D01*
X82599500Y-79057314D01*
X82692686Y-79150500D01*
X82806814Y-79216392D01*
X82934108Y-79250500D01*
X82934110Y-79250500D01*
X83065890Y-79250500D01*
X83065892Y-79250500D01*
X83193186Y-79216392D01*
X83307314Y-79150500D01*
X83400500Y-79057314D01*
X83466392Y-78943186D01*
X83500500Y-78815892D01*
X83500500Y-78684108D01*
X83466392Y-78556814D01*
X83400500Y-78442686D01*
X83307314Y-78349500D01*
X83307313Y-78349499D01*
X83302610Y-78345890D01*
X83261411Y-78289459D01*
X83257261Y-78219713D01*
X83263542Y-78200067D01*
X83266390Y-78193189D01*
X83266391Y-78193187D01*
X83266392Y-78193186D01*
X83300500Y-78065892D01*
X83300500Y-77934108D01*
X83266392Y-77806814D01*
X83200500Y-77692686D01*
X83107314Y-77599500D01*
X82993186Y-77533608D01*
X82865892Y-77499500D01*
X82734108Y-77499500D01*
X82606812Y-77533608D01*
X82492686Y-77599500D01*
X82492683Y-77599502D01*
X82399502Y-77692683D01*
X82399500Y-77692686D01*
X82333608Y-77806812D01*
X82299500Y-77934108D01*
X72844416Y-77934108D01*
X72940509Y-77838015D01*
X73012984Y-77712485D01*
X73050500Y-77572475D01*
X73050500Y-77427525D01*
X86949500Y-77427525D01*
X86949500Y-77572475D01*
X86979413Y-77684110D01*
X86987017Y-77712488D01*
X87059488Y-77838011D01*
X87059490Y-77838013D01*
X87059491Y-77838015D01*
X87161985Y-77940509D01*
X87161986Y-77940510D01*
X87161988Y-77940511D01*
X87287511Y-78012982D01*
X87287512Y-78012982D01*
X87287515Y-78012984D01*
X87427525Y-78050500D01*
X87427528Y-78050500D01*
X87572472Y-78050500D01*
X87572475Y-78050500D01*
X87712485Y-78012984D01*
X87838015Y-77940509D01*
X87940509Y-77838015D01*
X88012984Y-77712485D01*
X88050500Y-77572475D01*
X88050500Y-77427525D01*
X88012984Y-77287515D01*
X87940509Y-77161985D01*
X87838015Y-77059491D01*
X87838013Y-77059490D01*
X87838011Y-77059488D01*
X87712488Y-76987017D01*
X87712489Y-76987017D01*
X87701006Y-76983940D01*
X87572475Y-76949500D01*
X87427525Y-76949500D01*
X87298993Y-76983940D01*
X87287511Y-76987017D01*
X87161988Y-77059488D01*
X87161982Y-77059493D01*
X87059493Y-77161982D01*
X87059488Y-77161988D01*
X86987017Y-77287511D01*
X86987016Y-77287515D01*
X86949500Y-77427525D01*
X73050500Y-77427525D01*
X73012984Y-77287515D01*
X72940509Y-77161985D01*
X72838015Y-77059491D01*
X72838013Y-77059490D01*
X72838011Y-77059488D01*
X72712488Y-76987017D01*
X72712489Y-76987017D01*
X72701006Y-76983940D01*
X72572475Y-76949500D01*
X72427525Y-76949500D01*
X72298993Y-76983940D01*
X72287511Y-76987017D01*
X72161988Y-77059488D01*
X72161982Y-77059493D01*
X72059493Y-77161982D01*
X72059488Y-77161988D01*
X71987017Y-77287511D01*
X71987016Y-77287515D01*
X71949500Y-77427525D01*
X70760505Y-77427525D01*
X70807314Y-77400500D01*
X70900500Y-77307314D01*
X70966392Y-77193186D01*
X70993395Y-77092405D01*
X71029760Y-77032746D01*
X71092607Y-77002217D01*
X71113170Y-77000500D01*
X71165890Y-77000500D01*
X71165892Y-77000500D01*
X71293186Y-76966392D01*
X71407314Y-76900500D01*
X71500500Y-76807314D01*
X71566392Y-76693186D01*
X71600500Y-76565892D01*
X71600500Y-76434108D01*
X71566392Y-76306814D01*
X71500500Y-76192686D01*
X71407314Y-76099500D01*
X71333380Y-76056814D01*
X71293187Y-76033608D01*
X71229539Y-76016554D01*
X71165892Y-75999500D01*
X71034108Y-75999500D01*
X70906812Y-76033608D01*
X70792686Y-76099500D01*
X70792683Y-76099502D01*
X70699502Y-76192683D01*
X70699500Y-76192686D01*
X70633608Y-76306812D01*
X70606605Y-76407593D01*
X70570240Y-76467254D01*
X70507393Y-76497783D01*
X70486830Y-76499500D01*
X70434108Y-76499500D01*
X70306814Y-76533608D01*
X70306813Y-76533608D01*
X70306811Y-76533609D01*
X70306810Y-76533609D01*
X70187000Y-76602782D01*
X70119100Y-76619255D01*
X70063000Y-76602782D01*
X69943189Y-76533609D01*
X69943186Y-76533608D01*
X69815892Y-76499500D01*
X69684108Y-76499500D01*
X69556814Y-76533608D01*
X69556813Y-76533608D01*
X69556811Y-76533609D01*
X69556810Y-76533609D01*
X69437000Y-76602782D01*
X69369100Y-76619255D01*
X69313000Y-76602782D01*
X69193189Y-76533609D01*
X69193186Y-76533608D01*
X69065892Y-76499500D01*
X68934108Y-76499500D01*
X68806814Y-76533608D01*
X68806813Y-76533608D01*
X68806811Y-76533609D01*
X68806810Y-76533609D01*
X68687000Y-76602782D01*
X68619100Y-76619255D01*
X68563000Y-76602782D01*
X68443189Y-76533609D01*
X68443186Y-76533608D01*
X68315892Y-76499500D01*
X68184108Y-76499500D01*
X68056812Y-76533608D01*
X67942686Y-76599500D01*
X67942683Y-76599502D01*
X67849502Y-76692683D01*
X67849500Y-76692686D01*
X67783608Y-76806812D01*
X67761229Y-76890334D01*
X67749500Y-76934108D01*
X64300500Y-76934108D01*
X64266392Y-76806814D01*
X64200500Y-76692686D01*
X64107314Y-76599500D01*
X64034246Y-76557314D01*
X63993187Y-76533608D01*
X63899499Y-76508505D01*
X63865892Y-76499500D01*
X63734108Y-76499500D01*
X63606812Y-76533608D01*
X63492686Y-76599500D01*
X63492683Y-76599502D01*
X63399502Y-76692683D01*
X63399500Y-76692686D01*
X63333608Y-76806812D01*
X63333171Y-76808446D01*
X63332425Y-76809668D01*
X63330500Y-76814318D01*
X63329774Y-76814017D01*
X63296803Y-76868105D01*
X63233955Y-76898632D01*
X63164580Y-76890334D01*
X63110704Y-76845847D01*
X63093623Y-76808444D01*
X63066392Y-76706814D01*
X63000500Y-76592686D01*
X62907314Y-76499500D01*
X62809781Y-76443189D01*
X62793187Y-76433608D01*
X62729539Y-76416554D01*
X62665892Y-76399500D01*
X62534108Y-76399500D01*
X62406812Y-76433608D01*
X62292686Y-76499500D01*
X62292683Y-76499502D01*
X62199502Y-76592683D01*
X62199500Y-76592686D01*
X62133608Y-76706812D01*
X62106814Y-76806810D01*
X62099500Y-76834108D01*
X59973705Y-76834108D01*
X59966392Y-76806814D01*
X59900500Y-76692686D01*
X59898530Y-76690716D01*
X59892561Y-76678127D01*
X59887846Y-76648375D01*
X59880744Y-76619101D01*
X59882343Y-76613653D01*
X59881625Y-76609118D01*
X59887803Y-76595056D01*
X59897217Y-76562999D01*
X59900498Y-76557315D01*
X59900500Y-76557314D01*
X59966392Y-76443186D01*
X60000500Y-76315892D01*
X60000500Y-76184108D01*
X59966392Y-76056814D01*
X59900500Y-75942686D01*
X59807314Y-75849500D01*
X59750250Y-75816554D01*
X59693187Y-75783608D01*
X59629539Y-75766554D01*
X59565892Y-75749500D01*
X59434108Y-75749500D01*
X59306814Y-75783608D01*
X59306813Y-75783608D01*
X59306811Y-75783609D01*
X59306810Y-75783609D01*
X59187000Y-75852782D01*
X59119100Y-75869255D01*
X59063000Y-75852782D01*
X58943189Y-75783609D01*
X58943186Y-75783608D01*
X58815892Y-75749500D01*
X58684108Y-75749500D01*
X58556812Y-75783608D01*
X58442686Y-75849500D01*
X58442683Y-75849502D01*
X58349502Y-75942683D01*
X58349500Y-75942686D01*
X58283608Y-76056812D01*
X58272170Y-76099500D01*
X58249500Y-76184108D01*
X40500500Y-76184108D01*
X40500500Y-74927525D01*
X49449500Y-74927525D01*
X49449500Y-75072475D01*
X49479413Y-75184110D01*
X49487017Y-75212488D01*
X49559488Y-75338011D01*
X49559490Y-75338013D01*
X49559491Y-75338015D01*
X49661985Y-75440509D01*
X49661986Y-75440510D01*
X49661988Y-75440511D01*
X49787511Y-75512982D01*
X49787512Y-75512982D01*
X49787515Y-75512984D01*
X49927525Y-75550500D01*
X49927528Y-75550500D01*
X50072472Y-75550500D01*
X50072475Y-75550500D01*
X50212485Y-75512984D01*
X50338015Y-75440509D01*
X50440509Y-75338015D01*
X50512984Y-75212485D01*
X50550500Y-75072475D01*
X50550500Y-74927525D01*
X54449500Y-74927525D01*
X54449500Y-75072475D01*
X54479413Y-75184110D01*
X54487017Y-75212488D01*
X54559488Y-75338011D01*
X54559490Y-75338013D01*
X54559491Y-75338015D01*
X54661985Y-75440509D01*
X54661986Y-75440510D01*
X54661988Y-75440511D01*
X54787511Y-75512982D01*
X54787512Y-75512982D01*
X54787515Y-75512984D01*
X54927525Y-75550500D01*
X54927528Y-75550500D01*
X55072472Y-75550500D01*
X55072475Y-75550500D01*
X55212485Y-75512984D01*
X55338015Y-75440509D01*
X55440509Y-75338015D01*
X55512984Y-75212485D01*
X55550500Y-75072475D01*
X55550500Y-74934108D01*
X61499500Y-74934108D01*
X61499500Y-75065891D01*
X61533608Y-75193187D01*
X61544750Y-75212485D01*
X61599500Y-75307314D01*
X61692686Y-75400500D01*
X61806814Y-75466392D01*
X61934108Y-75500500D01*
X61934110Y-75500500D01*
X62065890Y-75500500D01*
X62065892Y-75500500D01*
X62193186Y-75466392D01*
X62307314Y-75400500D01*
X62400500Y-75307314D01*
X62466392Y-75193186D01*
X62500500Y-75065892D01*
X62500500Y-74934108D01*
X62466392Y-74806814D01*
X62400500Y-74692686D01*
X62307314Y-74599500D01*
X62243639Y-74562737D01*
X62194053Y-74534108D01*
X64099500Y-74534108D01*
X64099500Y-74665892D01*
X64116554Y-74729539D01*
X64133608Y-74793187D01*
X64141475Y-74806812D01*
X64199500Y-74907314D01*
X64292686Y-75000500D01*
X64390218Y-75056810D01*
X64405944Y-75065890D01*
X64406814Y-75066392D01*
X64534108Y-75100500D01*
X64534110Y-75100500D01*
X64665890Y-75100500D01*
X64665892Y-75100500D01*
X64793186Y-75066392D01*
X64907314Y-75000500D01*
X65000500Y-74907314D01*
X65066392Y-74793186D01*
X65100500Y-74665892D01*
X65100500Y-74586376D01*
X65115848Y-74534108D01*
X65699500Y-74534108D01*
X65699500Y-74665892D01*
X65716554Y-74729539D01*
X65733608Y-74793187D01*
X65741475Y-74806812D01*
X65799500Y-74907314D01*
X65892686Y-75000500D01*
X65990218Y-75056810D01*
X66005944Y-75065890D01*
X66006814Y-75066392D01*
X66134108Y-75100500D01*
X66134110Y-75100500D01*
X66265890Y-75100500D01*
X66265892Y-75100500D01*
X66393186Y-75066392D01*
X66507314Y-75000500D01*
X66512319Y-74995495D01*
X66573642Y-74962010D01*
X66643334Y-74966994D01*
X66687681Y-74995495D01*
X66692686Y-75000500D01*
X66790218Y-75056810D01*
X66805944Y-75065890D01*
X66806814Y-75066392D01*
X66934108Y-75100500D01*
X66934110Y-75100500D01*
X67065890Y-75100500D01*
X67065892Y-75100500D01*
X67193186Y-75066392D01*
X67307314Y-75000500D01*
X67307315Y-75000498D01*
X67314352Y-74996436D01*
X67315410Y-74998269D01*
X67370100Y-74977112D01*
X67438548Y-74991134D01*
X67488550Y-75039936D01*
X67500221Y-75068584D01*
X67533608Y-75193186D01*
X67599500Y-75307314D01*
X67692686Y-75400500D01*
X67806814Y-75466392D01*
X67934108Y-75500500D01*
X67934110Y-75500500D01*
X68065890Y-75500500D01*
X68065892Y-75500500D01*
X68193186Y-75466392D01*
X68307314Y-75400500D01*
X68400500Y-75307314D01*
X68466392Y-75193186D01*
X68468824Y-75184108D01*
X78249500Y-75184108D01*
X78249500Y-75315891D01*
X78283608Y-75443187D01*
X78297005Y-75466391D01*
X78349500Y-75557314D01*
X78442686Y-75650500D01*
X78556814Y-75716392D01*
X78684108Y-75750500D01*
X78684110Y-75750500D01*
X78815890Y-75750500D01*
X78815892Y-75750500D01*
X78943186Y-75716392D01*
X79057314Y-75650500D01*
X79150500Y-75557314D01*
X79216392Y-75443186D01*
X79250500Y-75315892D01*
X79250500Y-75184108D01*
X79216392Y-75056814D01*
X79216390Y-75056810D01*
X79172851Y-74981398D01*
X79172850Y-74981396D01*
X79150503Y-74942692D01*
X79150500Y-74942686D01*
X79135339Y-74927525D01*
X84449500Y-74927525D01*
X84449500Y-75072475D01*
X84479413Y-75184110D01*
X84487017Y-75212488D01*
X84559488Y-75338011D01*
X84559490Y-75338013D01*
X84559491Y-75338015D01*
X84661985Y-75440509D01*
X84661986Y-75440510D01*
X84661988Y-75440511D01*
X84787511Y-75512982D01*
X84787512Y-75512982D01*
X84787515Y-75512984D01*
X84927525Y-75550500D01*
X84927528Y-75550500D01*
X85072472Y-75550500D01*
X85072475Y-75550500D01*
X85212485Y-75512984D01*
X85338015Y-75440509D01*
X85440509Y-75338015D01*
X85512984Y-75212485D01*
X85550500Y-75072475D01*
X85550500Y-74927525D01*
X85512984Y-74787515D01*
X85510728Y-74783608D01*
X85440511Y-74661988D01*
X85440506Y-74661982D01*
X85338017Y-74559493D01*
X85338011Y-74559488D01*
X85212488Y-74487017D01*
X85212489Y-74487017D01*
X85174784Y-74476914D01*
X85072475Y-74449500D01*
X84927525Y-74449500D01*
X84825216Y-74476914D01*
X84787511Y-74487017D01*
X84661988Y-74559488D01*
X84661982Y-74559493D01*
X84559493Y-74661982D01*
X84559488Y-74661988D01*
X84487017Y-74787511D01*
X84487016Y-74787515D01*
X84449500Y-74927525D01*
X79135339Y-74927525D01*
X79057314Y-74849500D01*
X78983380Y-74806814D01*
X78943187Y-74783608D01*
X78879539Y-74766554D01*
X78815892Y-74749500D01*
X78684108Y-74749500D01*
X78556812Y-74783608D01*
X78442686Y-74849500D01*
X78442683Y-74849502D01*
X78349502Y-74942683D01*
X78349500Y-74942686D01*
X78283608Y-75056812D01*
X78249500Y-75184108D01*
X68468824Y-75184108D01*
X68500500Y-75065892D01*
X68500500Y-74934108D01*
X68466392Y-74806814D01*
X68400500Y-74692686D01*
X68332024Y-74624210D01*
X68298539Y-74562887D01*
X68303523Y-74493195D01*
X68345395Y-74437262D01*
X68357705Y-74429142D01*
X68363023Y-74426070D01*
X68407314Y-74400500D01*
X68500500Y-74307314D01*
X68566392Y-74193186D01*
X68600500Y-74065892D01*
X68600500Y-73934108D01*
X68566392Y-73806814D01*
X68500500Y-73692686D01*
X68495495Y-73687681D01*
X68462010Y-73626358D01*
X68466994Y-73556666D01*
X68495495Y-73512319D01*
X68500500Y-73507314D01*
X68566392Y-73393186D01*
X68600500Y-73265892D01*
X68600500Y-73134108D01*
X75749500Y-73134108D01*
X75749500Y-73265892D01*
X75763148Y-73316826D01*
X75783608Y-73393187D01*
X75798663Y-73419262D01*
X75849500Y-73507314D01*
X75942686Y-73600500D01*
X76056814Y-73666392D01*
X76184108Y-73700500D01*
X76184110Y-73700500D01*
X76315890Y-73700500D01*
X76315892Y-73700500D01*
X76443186Y-73666392D01*
X76557314Y-73600500D01*
X76650500Y-73507314D01*
X76716392Y-73393186D01*
X76750500Y-73265892D01*
X76750500Y-73134108D01*
X76716392Y-73006814D01*
X76650500Y-72892686D01*
X76557314Y-72799500D01*
X76494550Y-72763263D01*
X76443187Y-72733608D01*
X76364353Y-72712485D01*
X76315892Y-72699500D01*
X76184108Y-72699500D01*
X76056812Y-72733608D01*
X75942686Y-72799500D01*
X75942683Y-72799502D01*
X75849502Y-72892683D01*
X75849500Y-72892686D01*
X75783608Y-73006812D01*
X75767778Y-73065892D01*
X75749500Y-73134108D01*
X68600500Y-73134108D01*
X68566392Y-73006814D01*
X68500500Y-72892686D01*
X68436531Y-72828717D01*
X68403046Y-72767394D01*
X68408030Y-72697702D01*
X68416819Y-72679048D01*
X68466392Y-72593186D01*
X68500500Y-72465892D01*
X68500500Y-72334108D01*
X77299500Y-72334108D01*
X77299500Y-72465891D01*
X77333608Y-72593187D01*
X77337337Y-72599645D01*
X77399500Y-72707314D01*
X77492686Y-72800500D01*
X77561793Y-72840399D01*
X77600301Y-72862632D01*
X77606814Y-72866392D01*
X77734108Y-72900500D01*
X77734110Y-72900500D01*
X77865890Y-72900500D01*
X77865892Y-72900500D01*
X77993186Y-72866392D01*
X78107314Y-72800500D01*
X78200500Y-72707314D01*
X78266392Y-72593186D01*
X78300500Y-72465892D01*
X78300500Y-72334108D01*
X78266392Y-72206814D01*
X78200500Y-72092686D01*
X78107314Y-71999500D01*
X78007630Y-71941947D01*
X77993187Y-71933608D01*
X77929539Y-71916554D01*
X77865892Y-71899500D01*
X77734108Y-71899500D01*
X77606812Y-71933608D01*
X77492686Y-71999500D01*
X77492683Y-71999502D01*
X77399502Y-72092683D01*
X77399500Y-72092686D01*
X77333608Y-72206812D01*
X77299500Y-72334108D01*
X68500500Y-72334108D01*
X68466392Y-72206814D01*
X68400500Y-72092686D01*
X68307314Y-71999500D01*
X68307311Y-71999498D01*
X68305847Y-71998375D01*
X68304921Y-71997107D01*
X68301567Y-71993753D01*
X68302090Y-71993229D01*
X68264645Y-71941947D01*
X68260491Y-71872201D01*
X68294704Y-71811281D01*
X68305847Y-71801625D01*
X68307306Y-71800504D01*
X68307314Y-71800500D01*
X68400500Y-71707314D01*
X68466392Y-71593186D01*
X68500500Y-71465892D01*
X68500500Y-71334108D01*
X68466392Y-71206814D01*
X68400500Y-71092686D01*
X68395495Y-71087681D01*
X68362010Y-71026358D01*
X68366994Y-70956666D01*
X68395495Y-70912319D01*
X68400500Y-70907314D01*
X68466392Y-70793186D01*
X68500500Y-70665892D01*
X68500500Y-70534108D01*
X68466392Y-70406814D01*
X68400500Y-70292686D01*
X68307314Y-70199500D01*
X68250250Y-70166554D01*
X68193187Y-70133608D01*
X68129539Y-70116554D01*
X68065892Y-70099500D01*
X67934108Y-70099500D01*
X67806812Y-70133608D01*
X67692686Y-70199500D01*
X67692683Y-70199502D01*
X67599502Y-70292683D01*
X67599500Y-70292686D01*
X67533608Y-70406812D01*
X67517644Y-70466392D01*
X67499500Y-70534108D01*
X67499500Y-70665892D01*
X67516554Y-70729539D01*
X67533608Y-70793187D01*
X67566554Y-70850250D01*
X67599500Y-70907314D01*
X67599502Y-70907316D01*
X67604505Y-70912319D01*
X67637990Y-70973642D01*
X67633006Y-71043334D01*
X67604505Y-71087681D01*
X67599502Y-71092683D01*
X67599500Y-71092686D01*
X67533608Y-71206812D01*
X67499500Y-71334108D01*
X67499500Y-71465891D01*
X67499764Y-71466876D01*
X67499743Y-71467738D01*
X67500561Y-71473948D01*
X67499592Y-71474075D01*
X67498099Y-71536726D01*
X67458935Y-71594587D01*
X67394706Y-71622089D01*
X67325804Y-71610501D01*
X67314410Y-71603462D01*
X67314352Y-71603564D01*
X67307315Y-71599501D01*
X67307314Y-71599500D01*
X67198587Y-71536726D01*
X67193187Y-71533608D01*
X67129539Y-71516554D01*
X67065892Y-71499500D01*
X66934108Y-71499500D01*
X66806812Y-71533608D01*
X66692686Y-71599500D01*
X66692683Y-71599502D01*
X66599502Y-71692683D01*
X66599500Y-71692686D01*
X66533608Y-71806812D01*
X66532411Y-71811281D01*
X66499500Y-71934108D01*
X66499500Y-72065892D01*
X66516554Y-72129539D01*
X66533608Y-72193187D01*
X66541475Y-72206812D01*
X66599500Y-72307314D01*
X66692686Y-72400500D01*
X66791521Y-72457563D01*
X66805944Y-72465890D01*
X66806814Y-72466392D01*
X66934108Y-72500500D01*
X66934110Y-72500500D01*
X67065890Y-72500500D01*
X67065892Y-72500500D01*
X67193186Y-72466392D01*
X67307314Y-72400500D01*
X67307315Y-72400498D01*
X67314352Y-72396436D01*
X67315410Y-72398269D01*
X67370100Y-72377112D01*
X67438548Y-72391134D01*
X67488550Y-72439936D01*
X67500221Y-72468584D01*
X67533608Y-72593186D01*
X67599500Y-72707314D01*
X67599502Y-72707316D01*
X67663467Y-72771281D01*
X67696952Y-72832604D01*
X67691968Y-72902296D01*
X67683174Y-72920961D01*
X67633608Y-73006811D01*
X67617778Y-73065892D01*
X67599500Y-73134108D01*
X67599500Y-73265892D01*
X67613148Y-73316826D01*
X67633608Y-73393187D01*
X67648663Y-73419262D01*
X67699500Y-73507314D01*
X67699502Y-73507316D01*
X67704505Y-73512319D01*
X67737990Y-73573642D01*
X67733006Y-73643334D01*
X67704505Y-73687681D01*
X67699502Y-73692683D01*
X67699500Y-73692686D01*
X67633608Y-73806812D01*
X67599500Y-73934108D01*
X67599500Y-74065891D01*
X67633608Y-74193187D01*
X67640143Y-74204505D01*
X67699500Y-74307314D01*
X67699502Y-74307316D01*
X67767975Y-74375789D01*
X67779681Y-74397227D01*
X67794965Y-74416284D01*
X67796128Y-74427348D01*
X67801460Y-74437112D01*
X67799717Y-74461478D01*
X67802272Y-74485771D01*
X67797269Y-74495706D01*
X67796476Y-74506804D01*
X67781836Y-74526359D01*
X67770852Y-74548177D01*
X67757660Y-74558653D01*
X67754604Y-74562737D01*
X67743319Y-74570259D01*
X67742699Y-74570624D01*
X67692686Y-74599500D01*
X67691119Y-74601066D01*
X67682577Y-74606108D01*
X67655708Y-74612899D01*
X67629865Y-74622889D01*
X67622312Y-74621339D01*
X67614838Y-74623229D01*
X67588568Y-74614417D01*
X67561421Y-74608849D01*
X67555904Y-74603461D01*
X67548595Y-74601010D01*
X67531257Y-74579392D01*
X67511433Y-74560033D01*
X67506999Y-74549146D01*
X67504881Y-74546505D01*
X67504518Y-74543053D01*
X67499778Y-74531416D01*
X67466392Y-74406814D01*
X67400500Y-74292686D01*
X67307314Y-74199500D01*
X67250250Y-74166554D01*
X67193187Y-74133608D01*
X67089777Y-74105900D01*
X67065892Y-74099500D01*
X66934108Y-74099500D01*
X66806812Y-74133608D01*
X66692686Y-74199500D01*
X66692683Y-74199502D01*
X66687681Y-74204505D01*
X66626358Y-74237990D01*
X66556666Y-74233006D01*
X66512319Y-74204505D01*
X66507316Y-74199502D01*
X66507314Y-74199500D01*
X66450250Y-74166554D01*
X66393187Y-74133608D01*
X66289777Y-74105900D01*
X66265892Y-74099500D01*
X66134108Y-74099500D01*
X66006812Y-74133608D01*
X65892686Y-74199500D01*
X65892683Y-74199502D01*
X65799502Y-74292683D01*
X65799500Y-74292686D01*
X65733608Y-74406812D01*
X65710220Y-74494099D01*
X65699500Y-74534108D01*
X65115848Y-74534108D01*
X65120185Y-74519337D01*
X65166241Y-74476914D01*
X65178735Y-74470263D01*
X65193186Y-74466392D01*
X65307314Y-74400500D01*
X65400500Y-74307314D01*
X65466392Y-74193186D01*
X65500500Y-74065892D01*
X65500500Y-73934108D01*
X65466392Y-73806814D01*
X65400500Y-73692686D01*
X65307314Y-73599500D01*
X65233124Y-73556666D01*
X65193187Y-73533608D01*
X65129539Y-73516554D01*
X65065892Y-73499500D01*
X64934108Y-73499500D01*
X64806812Y-73533608D01*
X64692686Y-73599500D01*
X64692683Y-73599502D01*
X64599502Y-73692683D01*
X64599500Y-73692686D01*
X64533608Y-73806812D01*
X64499500Y-73934108D01*
X64499500Y-74013624D01*
X64479815Y-74080663D01*
X64427011Y-74126418D01*
X64407601Y-74133397D01*
X64406814Y-74133607D01*
X64292686Y-74199500D01*
X64292683Y-74199502D01*
X64199502Y-74292683D01*
X64199500Y-74292686D01*
X64133608Y-74406812D01*
X64110220Y-74494099D01*
X64099500Y-74534108D01*
X62194053Y-74534108D01*
X62193187Y-74533608D01*
X62093151Y-74506804D01*
X62065892Y-74499500D01*
X61934108Y-74499500D01*
X61806812Y-74533608D01*
X61692686Y-74599500D01*
X61692683Y-74599502D01*
X61599502Y-74692683D01*
X61599500Y-74692686D01*
X61533608Y-74806812D01*
X61499500Y-74934108D01*
X55550500Y-74934108D01*
X55550500Y-74927525D01*
X55512984Y-74787515D01*
X55510728Y-74783608D01*
X55440511Y-74661988D01*
X55440506Y-74661982D01*
X55338017Y-74559493D01*
X55338011Y-74559488D01*
X55212488Y-74487017D01*
X55212489Y-74487017D01*
X55174784Y-74476914D01*
X55072475Y-74449500D01*
X54927525Y-74449500D01*
X54825216Y-74476914D01*
X54787511Y-74487017D01*
X54661988Y-74559488D01*
X54661982Y-74559493D01*
X54559493Y-74661982D01*
X54559488Y-74661988D01*
X54487017Y-74787511D01*
X54487016Y-74787515D01*
X54449500Y-74927525D01*
X50550500Y-74927525D01*
X50512984Y-74787515D01*
X50510728Y-74783608D01*
X50440511Y-74661988D01*
X50440506Y-74661982D01*
X50338017Y-74559493D01*
X50338011Y-74559488D01*
X50212488Y-74487017D01*
X50212489Y-74487017D01*
X50174784Y-74476914D01*
X50072475Y-74449500D01*
X49927525Y-74449500D01*
X49825216Y-74476914D01*
X49787511Y-74487017D01*
X49661988Y-74559488D01*
X49661982Y-74559493D01*
X49559493Y-74661982D01*
X49559488Y-74661988D01*
X49487017Y-74787511D01*
X49487016Y-74787515D01*
X49449500Y-74927525D01*
X40500500Y-74927525D01*
X40500500Y-73934108D01*
X62499500Y-73934108D01*
X62499500Y-74065891D01*
X62533608Y-74193187D01*
X62540143Y-74204505D01*
X62599500Y-74307314D01*
X62692686Y-74400500D01*
X62791521Y-74457563D01*
X62806810Y-74466390D01*
X62806814Y-74466392D01*
X62934108Y-74500500D01*
X62934110Y-74500500D01*
X63065890Y-74500500D01*
X63065892Y-74500500D01*
X63193186Y-74466392D01*
X63307314Y-74400500D01*
X63400500Y-74307314D01*
X63466392Y-74193186D01*
X63500500Y-74065892D01*
X63500500Y-73934108D01*
X63466392Y-73806814D01*
X63400500Y-73692686D01*
X63307314Y-73599500D01*
X63233124Y-73556666D01*
X63193187Y-73533608D01*
X63129539Y-73516554D01*
X63065892Y-73499500D01*
X62934108Y-73499500D01*
X62806812Y-73533608D01*
X62692686Y-73599500D01*
X62692683Y-73599502D01*
X62599502Y-73692683D01*
X62599500Y-73692686D01*
X62533608Y-73806812D01*
X62499500Y-73934108D01*
X40500500Y-73934108D01*
X40500500Y-73234108D01*
X59799500Y-73234108D01*
X59799500Y-73365891D01*
X59833608Y-73493187D01*
X59841766Y-73507316D01*
X59899500Y-73607314D01*
X59992686Y-73700500D01*
X60106814Y-73766392D01*
X60234108Y-73800500D01*
X60234110Y-73800500D01*
X60365890Y-73800500D01*
X60365892Y-73800500D01*
X60493186Y-73766392D01*
X60607314Y-73700500D01*
X60700500Y-73607314D01*
X60766392Y-73493186D01*
X60786200Y-73419259D01*
X60822564Y-73359602D01*
X60885410Y-73329072D01*
X60954786Y-73337366D01*
X60967971Y-73343966D01*
X61006814Y-73366392D01*
X61134108Y-73400500D01*
X61134110Y-73400500D01*
X61265890Y-73400500D01*
X61265892Y-73400500D01*
X61393186Y-73366392D01*
X61479038Y-73316824D01*
X61546934Y-73300352D01*
X61612961Y-73323203D01*
X61628717Y-73336531D01*
X61692686Y-73400500D01*
X61806814Y-73466392D01*
X61934108Y-73500500D01*
X61934110Y-73500500D01*
X62065890Y-73500500D01*
X62065892Y-73500500D01*
X62193186Y-73466392D01*
X62307314Y-73400500D01*
X62400500Y-73307314D01*
X62466392Y-73193186D01*
X62500500Y-73065892D01*
X62500500Y-72934108D01*
X63499500Y-72934108D01*
X63499500Y-73065891D01*
X63533608Y-73193187D01*
X63557234Y-73234108D01*
X63599500Y-73307314D01*
X63692686Y-73400500D01*
X63806814Y-73466392D01*
X63934108Y-73500500D01*
X63934110Y-73500500D01*
X64065890Y-73500500D01*
X64065892Y-73500500D01*
X64193186Y-73466392D01*
X64307314Y-73400500D01*
X64400500Y-73307314D01*
X64466392Y-73193186D01*
X64500500Y-73065892D01*
X64500500Y-72934108D01*
X65499500Y-72934108D01*
X65499500Y-73065891D01*
X65533608Y-73193187D01*
X65557234Y-73234108D01*
X65599500Y-73307314D01*
X65692686Y-73400500D01*
X65806814Y-73466392D01*
X65934108Y-73500500D01*
X65934110Y-73500500D01*
X66065890Y-73500500D01*
X66065892Y-73500500D01*
X66193186Y-73466392D01*
X66307314Y-73400500D01*
X66400500Y-73307314D01*
X66466392Y-73193186D01*
X66500500Y-73065892D01*
X66500500Y-72934108D01*
X66466392Y-72806814D01*
X66400500Y-72692686D01*
X66307314Y-72599500D01*
X66244903Y-72563467D01*
X66193187Y-72533608D01*
X66129539Y-72516554D01*
X66065892Y-72499500D01*
X65934108Y-72499500D01*
X65806812Y-72533608D01*
X65692686Y-72599500D01*
X65692683Y-72599502D01*
X65599502Y-72692683D01*
X65599500Y-72692686D01*
X65533608Y-72806812D01*
X65499500Y-72934108D01*
X64500500Y-72934108D01*
X64466392Y-72806814D01*
X64400500Y-72692686D01*
X64307314Y-72599500D01*
X64244903Y-72563467D01*
X64193187Y-72533608D01*
X64129539Y-72516554D01*
X64065892Y-72499500D01*
X63934108Y-72499500D01*
X63806812Y-72533608D01*
X63692686Y-72599500D01*
X63692683Y-72599502D01*
X63599502Y-72692683D01*
X63599500Y-72692686D01*
X63533608Y-72806812D01*
X63499500Y-72934108D01*
X62500500Y-72934108D01*
X62466392Y-72806814D01*
X62400500Y-72692686D01*
X62307314Y-72599500D01*
X62244903Y-72563467D01*
X62193187Y-72533608D01*
X62129539Y-72516554D01*
X62065892Y-72499500D01*
X61934108Y-72499500D01*
X61806811Y-72533608D01*
X61720961Y-72583174D01*
X61653061Y-72599645D01*
X61587034Y-72576793D01*
X61571281Y-72563467D01*
X61507316Y-72499502D01*
X61507314Y-72499500D01*
X61449100Y-72465890D01*
X61393187Y-72433608D01*
X61329539Y-72416554D01*
X61265892Y-72399500D01*
X61134108Y-72399500D01*
X61006812Y-72433608D01*
X60892686Y-72499500D01*
X60892683Y-72499502D01*
X60799502Y-72592683D01*
X60799500Y-72592686D01*
X60733609Y-72706811D01*
X60733608Y-72706813D01*
X60733608Y-72706814D01*
X60732088Y-72712488D01*
X60713800Y-72780739D01*
X60677434Y-72840399D01*
X60614587Y-72870927D01*
X60545211Y-72862632D01*
X60532025Y-72856031D01*
X60493189Y-72833609D01*
X60493186Y-72833608D01*
X60365892Y-72799500D01*
X60234108Y-72799500D01*
X60106812Y-72833608D01*
X59992686Y-72899500D01*
X59992683Y-72899502D01*
X59899502Y-72992683D01*
X59899500Y-72992686D01*
X59833608Y-73106812D01*
X59799500Y-73234108D01*
X40500500Y-73234108D01*
X40500500Y-72427525D01*
X46949500Y-72427525D01*
X46949500Y-72572475D01*
X46985631Y-72707316D01*
X46987017Y-72712488D01*
X47059488Y-72838011D01*
X47059490Y-72838013D01*
X47059491Y-72838015D01*
X47161985Y-72940509D01*
X47161986Y-72940510D01*
X47161988Y-72940511D01*
X47287511Y-73012982D01*
X47287512Y-73012982D01*
X47287515Y-73012984D01*
X47427525Y-73050500D01*
X47427528Y-73050500D01*
X47572472Y-73050500D01*
X47572475Y-73050500D01*
X47712485Y-73012984D01*
X47838015Y-72940509D01*
X47940509Y-72838015D01*
X48012984Y-72712485D01*
X48050500Y-72572475D01*
X48050500Y-72427525D01*
X48012984Y-72287515D01*
X47940509Y-72161985D01*
X47838015Y-72059491D01*
X47712485Y-71987016D01*
X47572475Y-71949500D01*
X47427525Y-71949500D01*
X47298993Y-71983940D01*
X47287511Y-71987017D01*
X47161988Y-72059488D01*
X47161982Y-72059493D01*
X47059493Y-72161982D01*
X47059488Y-72161988D01*
X46987017Y-72287511D01*
X46987016Y-72287515D01*
X46949500Y-72427525D01*
X40500500Y-72427525D01*
X40500500Y-71934108D01*
X58499500Y-71934108D01*
X58499500Y-72065892D01*
X58516554Y-72129539D01*
X58533608Y-72193187D01*
X58541475Y-72206812D01*
X58599500Y-72307314D01*
X58692686Y-72400500D01*
X58791521Y-72457563D01*
X58805944Y-72465890D01*
X58806814Y-72466392D01*
X58934108Y-72500500D01*
X58934110Y-72500500D01*
X59065890Y-72500500D01*
X59065892Y-72500500D01*
X59193186Y-72466392D01*
X59307314Y-72400500D01*
X59400500Y-72307314D01*
X59466392Y-72193186D01*
X59500500Y-72065892D01*
X59500500Y-71934108D01*
X62499500Y-71934108D01*
X62499500Y-72065892D01*
X62516554Y-72129539D01*
X62533608Y-72193187D01*
X62541475Y-72206812D01*
X62599500Y-72307314D01*
X62692686Y-72400500D01*
X62791521Y-72457563D01*
X62805944Y-72465890D01*
X62806814Y-72466392D01*
X62934108Y-72500500D01*
X62934110Y-72500500D01*
X63065890Y-72500500D01*
X63065892Y-72500500D01*
X63193186Y-72466392D01*
X63307314Y-72400500D01*
X63400500Y-72307314D01*
X63466392Y-72193186D01*
X63500500Y-72065892D01*
X63500500Y-71934108D01*
X64499500Y-71934108D01*
X64499500Y-72065892D01*
X64516554Y-72129539D01*
X64533608Y-72193187D01*
X64541475Y-72206812D01*
X64599500Y-72307314D01*
X64692686Y-72400500D01*
X64791521Y-72457563D01*
X64805944Y-72465890D01*
X64806814Y-72466392D01*
X64934108Y-72500500D01*
X64934110Y-72500500D01*
X65065890Y-72500500D01*
X65065892Y-72500500D01*
X65193186Y-72466392D01*
X65307314Y-72400500D01*
X65400500Y-72307314D01*
X65466392Y-72193186D01*
X65500500Y-72065892D01*
X65500500Y-71934108D01*
X65466392Y-71806814D01*
X65400500Y-71692686D01*
X65307314Y-71599500D01*
X65198587Y-71536726D01*
X65193187Y-71533608D01*
X65129539Y-71516554D01*
X65065892Y-71499500D01*
X64934108Y-71499500D01*
X64806812Y-71533608D01*
X64692686Y-71599500D01*
X64692683Y-71599502D01*
X64599502Y-71692683D01*
X64599500Y-71692686D01*
X64533608Y-71806812D01*
X64532411Y-71811281D01*
X64499500Y-71934108D01*
X63500500Y-71934108D01*
X63466392Y-71806814D01*
X63400500Y-71692686D01*
X63307314Y-71599500D01*
X63198587Y-71536726D01*
X63193187Y-71533608D01*
X63129539Y-71516554D01*
X63065892Y-71499500D01*
X62934108Y-71499500D01*
X62806812Y-71533608D01*
X62692686Y-71599500D01*
X62692683Y-71599502D01*
X62599502Y-71692683D01*
X62599500Y-71692686D01*
X62533608Y-71806812D01*
X62532411Y-71811281D01*
X62499500Y-71934108D01*
X59500500Y-71934108D01*
X59466392Y-71806814D01*
X59400500Y-71692686D01*
X59307314Y-71599500D01*
X59198587Y-71536726D01*
X59193187Y-71533608D01*
X59129539Y-71516554D01*
X59065892Y-71499500D01*
X58934108Y-71499500D01*
X58806812Y-71533608D01*
X58692686Y-71599500D01*
X58692683Y-71599502D01*
X58599502Y-71692683D01*
X58599500Y-71692686D01*
X58533608Y-71806812D01*
X58532411Y-71811281D01*
X58499500Y-71934108D01*
X40500500Y-71934108D01*
X40500500Y-65124000D01*
X40520185Y-65056961D01*
X40572989Y-65011206D01*
X40624500Y-65000000D01*
X41425500Y-65000000D01*
X41492539Y-65019685D01*
G37*
%TD.AperFunction*%
%TD*%
M02*
