%TF.GenerationSoftware,KiCad,Pcbnew,10.0.4-10.0.4~ubuntu24.04.1*%
%TF.CreationDate,2026-07-19T12:17:15-04:00*%
%TF.ProjectId,kmm-pmask-control,6b6d6d2d-706d-4617-936b-2d636f6e7472,rev?*%
%TF.SameCoordinates,Original*%
%TF.FileFunction,Legend,Bot*%
%TF.FilePolarity,Positive*%
%FSLAX46Y46*%
G04 Gerber Fmt 4.6, Leading zero omitted, Abs format (unit mm)*
G04 Created by KiCad (PCBNEW 10.0.4-10.0.4~ubuntu24.04.1) date 2026-07-19 12:17:15*
%MOMM*%
%LPD*%
G01*
G04 APERTURE LIST*
G04 Aperture macros list*
%AMRoundRect*
0 Rectangle with rounded corners*
0 $1 Rounding radius*
0 $2 $3 $4 $5 $6 $7 $8 $9 X,Y pos of 4 corners*
0 Add a 4 corners polygon primitive as box body*
4,1,4,$2,$3,$4,$5,$6,$7,$8,$9,$2,$3,0*
0 Add four circle primitives for the rounded corners*
1,1,$1+$1,$2,$3*
1,1,$1+$1,$4,$5*
1,1,$1+$1,$6,$7*
1,1,$1+$1,$8,$9*
0 Add four rect primitives between the rounded corners*
20,1,$1+$1,$2,$3,$4,$5,0*
20,1,$1+$1,$4,$5,$6,$7,0*
20,1,$1+$1,$6,$7,$8,$9,0*
20,1,$1+$1,$8,$9,$2,$3,0*%
G04 Aperture macros list end*
%ADD10C,0.100000*%
%ADD11C,0.125000*%
%ADD12C,0.120000*%
%ADD13C,0.000000*%
%ADD14C,6.400000*%
%ADD15C,0.900000*%
%ADD16RoundRect,0.250000X-0.625000X0.350000X-0.625000X-0.350000X0.625000X-0.350000X0.625000X0.350000X0*%
%ADD17O,1.750000X1.200000*%
%ADD18R,1.700000X1.700000*%
%ADD19C,1.700000*%
%ADD20C,1.000000*%
G04 APERTURE END LIST*
D10*
X41000000Y-74000000D02*
X42000000Y-75000000D01*
X42000000Y-85000000D02*
X41000000Y-86000000D01*
X46000000Y-74000000D02*
X41000000Y-74000000D01*
X46000000Y-86000000D02*
X41000000Y-86000000D01*
X84000000Y-76000000D02*
X89000000Y-76000000D01*
X84000000Y-94000000D02*
X89000000Y-94000000D01*
X88000000Y-93000000D02*
X89000000Y-94000000D01*
X89000000Y-76000000D02*
X88000000Y-77000000D01*
X84042419Y-79142856D02*
X84042419Y-79714284D01*
X85042419Y-79428570D02*
X84042419Y-79428570D01*
X85042419Y-80190475D02*
X84994800Y-80095237D01*
X84994800Y-80095237D02*
X84947180Y-80047618D01*
X84947180Y-80047618D02*
X84851942Y-79999999D01*
X84851942Y-79999999D02*
X84566228Y-79999999D01*
X84566228Y-79999999D02*
X84470990Y-80047618D01*
X84470990Y-80047618D02*
X84423371Y-80095237D01*
X84423371Y-80095237D02*
X84375752Y-80190475D01*
X84375752Y-80190475D02*
X84375752Y-80333332D01*
X84375752Y-80333332D02*
X84423371Y-80428570D01*
X84423371Y-80428570D02*
X84470990Y-80476189D01*
X84470990Y-80476189D02*
X84566228Y-80523808D01*
X84566228Y-80523808D02*
X84851942Y-80523808D01*
X84851942Y-80523808D02*
X84947180Y-80476189D01*
X84947180Y-80476189D02*
X84994800Y-80428570D01*
X84994800Y-80428570D02*
X85042419Y-80333332D01*
X85042419Y-80333332D02*
X85042419Y-80190475D01*
X84994800Y-81666666D02*
X85042419Y-81809523D01*
X85042419Y-81809523D02*
X85042419Y-82047618D01*
X85042419Y-82047618D02*
X84994800Y-82142856D01*
X84994800Y-82142856D02*
X84947180Y-82190475D01*
X84947180Y-82190475D02*
X84851942Y-82238094D01*
X84851942Y-82238094D02*
X84756704Y-82238094D01*
X84756704Y-82238094D02*
X84661466Y-82190475D01*
X84661466Y-82190475D02*
X84613847Y-82142856D01*
X84613847Y-82142856D02*
X84566228Y-82047618D01*
X84566228Y-82047618D02*
X84518609Y-81857142D01*
X84518609Y-81857142D02*
X84470990Y-81761904D01*
X84470990Y-81761904D02*
X84423371Y-81714285D01*
X84423371Y-81714285D02*
X84328133Y-81666666D01*
X84328133Y-81666666D02*
X84232895Y-81666666D01*
X84232895Y-81666666D02*
X84137657Y-81714285D01*
X84137657Y-81714285D02*
X84090038Y-81761904D01*
X84090038Y-81761904D02*
X84042419Y-81857142D01*
X84042419Y-81857142D02*
X84042419Y-82095237D01*
X84042419Y-82095237D02*
X84090038Y-82238094D01*
X84994800Y-83047618D02*
X85042419Y-82952380D01*
X85042419Y-82952380D02*
X85042419Y-82761904D01*
X85042419Y-82761904D02*
X84994800Y-82666666D01*
X84994800Y-82666666D02*
X84899561Y-82619047D01*
X84899561Y-82619047D02*
X84518609Y-82619047D01*
X84518609Y-82619047D02*
X84423371Y-82666666D01*
X84423371Y-82666666D02*
X84375752Y-82761904D01*
X84375752Y-82761904D02*
X84375752Y-82952380D01*
X84375752Y-82952380D02*
X84423371Y-83047618D01*
X84423371Y-83047618D02*
X84518609Y-83095237D01*
X84518609Y-83095237D02*
X84613847Y-83095237D01*
X84613847Y-83095237D02*
X84709085Y-82619047D01*
X84375752Y-83523809D02*
X85042419Y-83523809D01*
X84470990Y-83523809D02*
X84423371Y-83571428D01*
X84423371Y-83571428D02*
X84375752Y-83666666D01*
X84375752Y-83666666D02*
X84375752Y-83809523D01*
X84375752Y-83809523D02*
X84423371Y-83904761D01*
X84423371Y-83904761D02*
X84518609Y-83952380D01*
X84518609Y-83952380D02*
X85042419Y-83952380D01*
X84994800Y-84380952D02*
X85042419Y-84476190D01*
X85042419Y-84476190D02*
X85042419Y-84666666D01*
X85042419Y-84666666D02*
X84994800Y-84761904D01*
X84994800Y-84761904D02*
X84899561Y-84809523D01*
X84899561Y-84809523D02*
X84851942Y-84809523D01*
X84851942Y-84809523D02*
X84756704Y-84761904D01*
X84756704Y-84761904D02*
X84709085Y-84666666D01*
X84709085Y-84666666D02*
X84709085Y-84523809D01*
X84709085Y-84523809D02*
X84661466Y-84428571D01*
X84661466Y-84428571D02*
X84566228Y-84380952D01*
X84566228Y-84380952D02*
X84518609Y-84380952D01*
X84518609Y-84380952D02*
X84423371Y-84428571D01*
X84423371Y-84428571D02*
X84375752Y-84523809D01*
X84375752Y-84523809D02*
X84375752Y-84666666D01*
X84375752Y-84666666D02*
X84423371Y-84761904D01*
X85042419Y-85380952D02*
X84994800Y-85285714D01*
X84994800Y-85285714D02*
X84947180Y-85238095D01*
X84947180Y-85238095D02*
X84851942Y-85190476D01*
X84851942Y-85190476D02*
X84566228Y-85190476D01*
X84566228Y-85190476D02*
X84470990Y-85238095D01*
X84470990Y-85238095D02*
X84423371Y-85285714D01*
X84423371Y-85285714D02*
X84375752Y-85380952D01*
X84375752Y-85380952D02*
X84375752Y-85523809D01*
X84375752Y-85523809D02*
X84423371Y-85619047D01*
X84423371Y-85619047D02*
X84470990Y-85666666D01*
X84470990Y-85666666D02*
X84566228Y-85714285D01*
X84566228Y-85714285D02*
X84851942Y-85714285D01*
X84851942Y-85714285D02*
X84947180Y-85666666D01*
X84947180Y-85666666D02*
X84994800Y-85619047D01*
X84994800Y-85619047D02*
X85042419Y-85523809D01*
X85042419Y-85523809D02*
X85042419Y-85380952D01*
X85042419Y-86142857D02*
X84375752Y-86142857D01*
X84566228Y-86142857D02*
X84470990Y-86190476D01*
X84470990Y-86190476D02*
X84423371Y-86238095D01*
X84423371Y-86238095D02*
X84375752Y-86333333D01*
X84375752Y-86333333D02*
X84375752Y-86428571D01*
X85042419Y-87523810D02*
X84042419Y-87523810D01*
X84042419Y-87523810D02*
X84756704Y-87857143D01*
X84756704Y-87857143D02*
X84042419Y-88190476D01*
X84042419Y-88190476D02*
X85042419Y-88190476D01*
X85042419Y-89095238D02*
X84518609Y-89095238D01*
X84518609Y-89095238D02*
X84423371Y-89047619D01*
X84423371Y-89047619D02*
X84375752Y-88952381D01*
X84375752Y-88952381D02*
X84375752Y-88761905D01*
X84375752Y-88761905D02*
X84423371Y-88666667D01*
X84994800Y-89095238D02*
X85042419Y-89000000D01*
X85042419Y-89000000D02*
X85042419Y-88761905D01*
X85042419Y-88761905D02*
X84994800Y-88666667D01*
X84994800Y-88666667D02*
X84899561Y-88619048D01*
X84899561Y-88619048D02*
X84804323Y-88619048D01*
X84804323Y-88619048D02*
X84709085Y-88666667D01*
X84709085Y-88666667D02*
X84661466Y-88761905D01*
X84661466Y-88761905D02*
X84661466Y-89000000D01*
X84661466Y-89000000D02*
X84613847Y-89095238D01*
X84994800Y-89523810D02*
X85042419Y-89619048D01*
X85042419Y-89619048D02*
X85042419Y-89809524D01*
X85042419Y-89809524D02*
X84994800Y-89904762D01*
X84994800Y-89904762D02*
X84899561Y-89952381D01*
X84899561Y-89952381D02*
X84851942Y-89952381D01*
X84851942Y-89952381D02*
X84756704Y-89904762D01*
X84756704Y-89904762D02*
X84709085Y-89809524D01*
X84709085Y-89809524D02*
X84709085Y-89666667D01*
X84709085Y-89666667D02*
X84661466Y-89571429D01*
X84661466Y-89571429D02*
X84566228Y-89523810D01*
X84566228Y-89523810D02*
X84518609Y-89523810D01*
X84518609Y-89523810D02*
X84423371Y-89571429D01*
X84423371Y-89571429D02*
X84375752Y-89666667D01*
X84375752Y-89666667D02*
X84375752Y-89809524D01*
X84375752Y-89809524D02*
X84423371Y-89904762D01*
X85042419Y-90380953D02*
X84042419Y-90380953D01*
X84661466Y-90476191D02*
X85042419Y-90761905D01*
X84375752Y-90761905D02*
X84756704Y-90380953D01*
X85652363Y-77238095D02*
X85652363Y-77333333D01*
X85652363Y-77333333D02*
X85699982Y-77428571D01*
X85699982Y-77428571D02*
X85747601Y-77476190D01*
X85747601Y-77476190D02*
X85842839Y-77523809D01*
X85842839Y-77523809D02*
X86033315Y-77571428D01*
X86033315Y-77571428D02*
X86271410Y-77571428D01*
X86271410Y-77571428D02*
X86461886Y-77523809D01*
X86461886Y-77523809D02*
X86557124Y-77476190D01*
X86557124Y-77476190D02*
X86604744Y-77428571D01*
X86604744Y-77428571D02*
X86652363Y-77333333D01*
X86652363Y-77333333D02*
X86652363Y-77238095D01*
X86652363Y-77238095D02*
X86604744Y-77142857D01*
X86604744Y-77142857D02*
X86557124Y-77095238D01*
X86557124Y-77095238D02*
X86461886Y-77047619D01*
X86461886Y-77047619D02*
X86271410Y-77000000D01*
X86271410Y-77000000D02*
X86033315Y-77000000D01*
X86033315Y-77000000D02*
X85842839Y-77047619D01*
X85842839Y-77047619D02*
X85747601Y-77095238D01*
X85747601Y-77095238D02*
X85699982Y-77142857D01*
X85699982Y-77142857D02*
X85652363Y-77238095D01*
X86557124Y-78000000D02*
X86604744Y-78047619D01*
X86604744Y-78047619D02*
X86652363Y-78000000D01*
X86652363Y-78000000D02*
X86604744Y-77952381D01*
X86604744Y-77952381D02*
X86557124Y-78000000D01*
X86557124Y-78000000D02*
X86652363Y-78000000D01*
X85652363Y-78952380D02*
X85652363Y-78476190D01*
X85652363Y-78476190D02*
X86128553Y-78428571D01*
X86128553Y-78428571D02*
X86080934Y-78476190D01*
X86080934Y-78476190D02*
X86033315Y-78571428D01*
X86033315Y-78571428D02*
X86033315Y-78809523D01*
X86033315Y-78809523D02*
X86080934Y-78904761D01*
X86080934Y-78904761D02*
X86128553Y-78952380D01*
X86128553Y-78952380D02*
X86223791Y-78999999D01*
X86223791Y-78999999D02*
X86461886Y-78999999D01*
X86461886Y-78999999D02*
X86557124Y-78952380D01*
X86557124Y-78952380D02*
X86604744Y-78904761D01*
X86604744Y-78904761D02*
X86652363Y-78809523D01*
X86652363Y-78809523D02*
X86652363Y-78571428D01*
X86652363Y-78571428D02*
X86604744Y-78476190D01*
X86604744Y-78476190D02*
X86557124Y-78428571D01*
X86652363Y-80190476D02*
X85985696Y-80190476D01*
X86080934Y-80190476D02*
X86033315Y-80238095D01*
X86033315Y-80238095D02*
X85985696Y-80333333D01*
X85985696Y-80333333D02*
X85985696Y-80476190D01*
X85985696Y-80476190D02*
X86033315Y-80571428D01*
X86033315Y-80571428D02*
X86128553Y-80619047D01*
X86128553Y-80619047D02*
X86652363Y-80619047D01*
X86128553Y-80619047D02*
X86033315Y-80666666D01*
X86033315Y-80666666D02*
X85985696Y-80761904D01*
X85985696Y-80761904D02*
X85985696Y-80904761D01*
X85985696Y-80904761D02*
X86033315Y-81000000D01*
X86033315Y-81000000D02*
X86128553Y-81047619D01*
X86128553Y-81047619D02*
X86652363Y-81047619D01*
X86652363Y-81523809D02*
X85985696Y-81523809D01*
X86080934Y-81523809D02*
X86033315Y-81571428D01*
X86033315Y-81571428D02*
X85985696Y-81666666D01*
X85985696Y-81666666D02*
X85985696Y-81809523D01*
X85985696Y-81809523D02*
X86033315Y-81904761D01*
X86033315Y-81904761D02*
X86128553Y-81952380D01*
X86128553Y-81952380D02*
X86652363Y-81952380D01*
X86128553Y-81952380D02*
X86033315Y-81999999D01*
X86033315Y-81999999D02*
X85985696Y-82095237D01*
X85985696Y-82095237D02*
X85985696Y-82238094D01*
X85985696Y-82238094D02*
X86033315Y-82333333D01*
X86033315Y-82333333D02*
X86128553Y-82380952D01*
X86128553Y-82380952D02*
X86652363Y-82380952D01*
X85604744Y-83571427D02*
X86890458Y-82714285D01*
X85652363Y-83809523D02*
X85652363Y-84428570D01*
X85652363Y-84428570D02*
X86033315Y-84095237D01*
X86033315Y-84095237D02*
X86033315Y-84238094D01*
X86033315Y-84238094D02*
X86080934Y-84333332D01*
X86080934Y-84333332D02*
X86128553Y-84380951D01*
X86128553Y-84380951D02*
X86223791Y-84428570D01*
X86223791Y-84428570D02*
X86461886Y-84428570D01*
X86461886Y-84428570D02*
X86557124Y-84380951D01*
X86557124Y-84380951D02*
X86604744Y-84333332D01*
X86604744Y-84333332D02*
X86652363Y-84238094D01*
X86652363Y-84238094D02*
X86652363Y-83952380D01*
X86652363Y-83952380D02*
X86604744Y-83857142D01*
X86604744Y-83857142D02*
X86557124Y-83809523D01*
X85652363Y-85047618D02*
X85652363Y-85142856D01*
X85652363Y-85142856D02*
X85699982Y-85238094D01*
X85699982Y-85238094D02*
X85747601Y-85285713D01*
X85747601Y-85285713D02*
X85842839Y-85333332D01*
X85842839Y-85333332D02*
X86033315Y-85380951D01*
X86033315Y-85380951D02*
X86271410Y-85380951D01*
X86271410Y-85380951D02*
X86461886Y-85333332D01*
X86461886Y-85333332D02*
X86557124Y-85285713D01*
X86557124Y-85285713D02*
X86604744Y-85238094D01*
X86604744Y-85238094D02*
X86652363Y-85142856D01*
X86652363Y-85142856D02*
X86652363Y-85047618D01*
X86652363Y-85047618D02*
X86604744Y-84952380D01*
X86604744Y-84952380D02*
X86557124Y-84904761D01*
X86557124Y-84904761D02*
X86461886Y-84857142D01*
X86461886Y-84857142D02*
X86271410Y-84809523D01*
X86271410Y-84809523D02*
X86033315Y-84809523D01*
X86033315Y-84809523D02*
X85842839Y-84857142D01*
X85842839Y-84857142D02*
X85747601Y-84904761D01*
X85747601Y-84904761D02*
X85699982Y-84952380D01*
X85699982Y-84952380D02*
X85652363Y-85047618D01*
X85985696Y-86571428D02*
X86985696Y-86571428D01*
X86033315Y-86571428D02*
X85985696Y-86666666D01*
X85985696Y-86666666D02*
X85985696Y-86857142D01*
X85985696Y-86857142D02*
X86033315Y-86952380D01*
X86033315Y-86952380D02*
X86080934Y-86999999D01*
X86080934Y-86999999D02*
X86176172Y-87047618D01*
X86176172Y-87047618D02*
X86461886Y-87047618D01*
X86461886Y-87047618D02*
X86557124Y-86999999D01*
X86557124Y-86999999D02*
X86604744Y-86952380D01*
X86604744Y-86952380D02*
X86652363Y-86857142D01*
X86652363Y-86857142D02*
X86652363Y-86666666D01*
X86652363Y-86666666D02*
X86604744Y-86571428D01*
X86652363Y-87619047D02*
X86604744Y-87523809D01*
X86604744Y-87523809D02*
X86557124Y-87476190D01*
X86557124Y-87476190D02*
X86461886Y-87428571D01*
X86461886Y-87428571D02*
X86176172Y-87428571D01*
X86176172Y-87428571D02*
X86080934Y-87476190D01*
X86080934Y-87476190D02*
X86033315Y-87523809D01*
X86033315Y-87523809D02*
X85985696Y-87619047D01*
X85985696Y-87619047D02*
X85985696Y-87761904D01*
X85985696Y-87761904D02*
X86033315Y-87857142D01*
X86033315Y-87857142D02*
X86080934Y-87904761D01*
X86080934Y-87904761D02*
X86176172Y-87952380D01*
X86176172Y-87952380D02*
X86461886Y-87952380D01*
X86461886Y-87952380D02*
X86557124Y-87904761D01*
X86557124Y-87904761D02*
X86604744Y-87857142D01*
X86604744Y-87857142D02*
X86652363Y-87761904D01*
X86652363Y-87761904D02*
X86652363Y-87619047D01*
X86604744Y-88333333D02*
X86652363Y-88428571D01*
X86652363Y-88428571D02*
X86652363Y-88619047D01*
X86652363Y-88619047D02*
X86604744Y-88714285D01*
X86604744Y-88714285D02*
X86509505Y-88761904D01*
X86509505Y-88761904D02*
X86461886Y-88761904D01*
X86461886Y-88761904D02*
X86366648Y-88714285D01*
X86366648Y-88714285D02*
X86319029Y-88619047D01*
X86319029Y-88619047D02*
X86319029Y-88476190D01*
X86319029Y-88476190D02*
X86271410Y-88380952D01*
X86271410Y-88380952D02*
X86176172Y-88333333D01*
X86176172Y-88333333D02*
X86128553Y-88333333D01*
X86128553Y-88333333D02*
X86033315Y-88380952D01*
X86033315Y-88380952D02*
X85985696Y-88476190D01*
X85985696Y-88476190D02*
X85985696Y-88619047D01*
X85985696Y-88619047D02*
X86033315Y-88714285D01*
X86128553Y-90285714D02*
X86128553Y-89952381D01*
X86652363Y-89952381D02*
X85652363Y-89952381D01*
X85652363Y-89952381D02*
X85652363Y-90428571D01*
X86128553Y-91142857D02*
X86128553Y-90809524D01*
X86652363Y-90809524D02*
X85652363Y-90809524D01*
X85652363Y-90809524D02*
X85652363Y-91285714D01*
X86557124Y-92238095D02*
X86604744Y-92190476D01*
X86604744Y-92190476D02*
X86652363Y-92047619D01*
X86652363Y-92047619D02*
X86652363Y-91952381D01*
X86652363Y-91952381D02*
X86604744Y-91809524D01*
X86604744Y-91809524D02*
X86509505Y-91714286D01*
X86509505Y-91714286D02*
X86414267Y-91666667D01*
X86414267Y-91666667D02*
X86223791Y-91619048D01*
X86223791Y-91619048D02*
X86080934Y-91619048D01*
X86080934Y-91619048D02*
X85890458Y-91666667D01*
X85890458Y-91666667D02*
X85795220Y-91714286D01*
X85795220Y-91714286D02*
X85699982Y-91809524D01*
X85699982Y-91809524D02*
X85652363Y-91952381D01*
X85652363Y-91952381D02*
X85652363Y-92047619D01*
X85652363Y-92047619D02*
X85699982Y-92190476D01*
X85699982Y-92190476D02*
X85747601Y-92238095D01*
X88262307Y-81976189D02*
X87786116Y-81642856D01*
X88262307Y-81404761D02*
X87262307Y-81404761D01*
X87262307Y-81404761D02*
X87262307Y-81785713D01*
X87262307Y-81785713D02*
X87309926Y-81880951D01*
X87309926Y-81880951D02*
X87357545Y-81928570D01*
X87357545Y-81928570D02*
X87452783Y-81976189D01*
X87452783Y-81976189D02*
X87595640Y-81976189D01*
X87595640Y-81976189D02*
X87690878Y-81928570D01*
X87690878Y-81928570D02*
X87738497Y-81880951D01*
X87738497Y-81880951D02*
X87786116Y-81785713D01*
X87786116Y-81785713D02*
X87786116Y-81404761D01*
X88214688Y-82785713D02*
X88262307Y-82690475D01*
X88262307Y-82690475D02*
X88262307Y-82499999D01*
X88262307Y-82499999D02*
X88214688Y-82404761D01*
X88214688Y-82404761D02*
X88119449Y-82357142D01*
X88119449Y-82357142D02*
X87738497Y-82357142D01*
X87738497Y-82357142D02*
X87643259Y-82404761D01*
X87643259Y-82404761D02*
X87595640Y-82499999D01*
X87595640Y-82499999D02*
X87595640Y-82690475D01*
X87595640Y-82690475D02*
X87643259Y-82785713D01*
X87643259Y-82785713D02*
X87738497Y-82833332D01*
X87738497Y-82833332D02*
X87833735Y-82833332D01*
X87833735Y-82833332D02*
X87928973Y-82357142D01*
X87595640Y-83166666D02*
X88262307Y-83404761D01*
X88262307Y-83404761D02*
X87595640Y-83642856D01*
X88214688Y-84404761D02*
X88262307Y-84309523D01*
X88262307Y-84309523D02*
X88262307Y-84119047D01*
X88262307Y-84119047D02*
X88214688Y-84023809D01*
X88214688Y-84023809D02*
X88119449Y-83976190D01*
X88119449Y-83976190D02*
X87738497Y-83976190D01*
X87738497Y-83976190D02*
X87643259Y-84023809D01*
X87643259Y-84023809D02*
X87595640Y-84119047D01*
X87595640Y-84119047D02*
X87595640Y-84309523D01*
X87595640Y-84309523D02*
X87643259Y-84404761D01*
X87643259Y-84404761D02*
X87738497Y-84452380D01*
X87738497Y-84452380D02*
X87833735Y-84452380D01*
X87833735Y-84452380D02*
X87928973Y-83976190D01*
X88262307Y-84880952D02*
X87595640Y-84880952D01*
X87786116Y-84880952D02*
X87690878Y-84928571D01*
X87690878Y-84928571D02*
X87643259Y-84976190D01*
X87643259Y-84976190D02*
X87595640Y-85071428D01*
X87595640Y-85071428D02*
X87595640Y-85166666D01*
X88214688Y-85452381D02*
X88262307Y-85547619D01*
X88262307Y-85547619D02*
X88262307Y-85738095D01*
X88262307Y-85738095D02*
X88214688Y-85833333D01*
X88214688Y-85833333D02*
X88119449Y-85880952D01*
X88119449Y-85880952D02*
X88071830Y-85880952D01*
X88071830Y-85880952D02*
X87976592Y-85833333D01*
X87976592Y-85833333D02*
X87928973Y-85738095D01*
X87928973Y-85738095D02*
X87928973Y-85595238D01*
X87928973Y-85595238D02*
X87881354Y-85500000D01*
X87881354Y-85500000D02*
X87786116Y-85452381D01*
X87786116Y-85452381D02*
X87738497Y-85452381D01*
X87738497Y-85452381D02*
X87643259Y-85500000D01*
X87643259Y-85500000D02*
X87595640Y-85595238D01*
X87595640Y-85595238D02*
X87595640Y-85738095D01*
X87595640Y-85738095D02*
X87643259Y-85833333D01*
X88262307Y-86309524D02*
X87595640Y-86309524D01*
X87262307Y-86309524D02*
X87309926Y-86261905D01*
X87309926Y-86261905D02*
X87357545Y-86309524D01*
X87357545Y-86309524D02*
X87309926Y-86357143D01*
X87309926Y-86357143D02*
X87262307Y-86309524D01*
X87262307Y-86309524D02*
X87357545Y-86309524D01*
X88262307Y-86785714D02*
X87262307Y-86785714D01*
X87643259Y-86785714D02*
X87595640Y-86880952D01*
X87595640Y-86880952D02*
X87595640Y-87071428D01*
X87595640Y-87071428D02*
X87643259Y-87166666D01*
X87643259Y-87166666D02*
X87690878Y-87214285D01*
X87690878Y-87214285D02*
X87786116Y-87261904D01*
X87786116Y-87261904D02*
X88071830Y-87261904D01*
X88071830Y-87261904D02*
X88167068Y-87214285D01*
X88167068Y-87214285D02*
X88214688Y-87166666D01*
X88214688Y-87166666D02*
X88262307Y-87071428D01*
X88262307Y-87071428D02*
X88262307Y-86880952D01*
X88262307Y-86880952D02*
X88214688Y-86785714D01*
X88262307Y-87833333D02*
X88214688Y-87738095D01*
X88214688Y-87738095D02*
X88119449Y-87690476D01*
X88119449Y-87690476D02*
X87262307Y-87690476D01*
X88214688Y-88595238D02*
X88262307Y-88500000D01*
X88262307Y-88500000D02*
X88262307Y-88309524D01*
X88262307Y-88309524D02*
X88214688Y-88214286D01*
X88214688Y-88214286D02*
X88119449Y-88166667D01*
X88119449Y-88166667D02*
X87738497Y-88166667D01*
X87738497Y-88166667D02*
X87643259Y-88214286D01*
X87643259Y-88214286D02*
X87595640Y-88309524D01*
X87595640Y-88309524D02*
X87595640Y-88500000D01*
X87595640Y-88500000D02*
X87643259Y-88595238D01*
X87643259Y-88595238D02*
X87738497Y-88642857D01*
X87738497Y-88642857D02*
X87833735Y-88642857D01*
X87833735Y-88642857D02*
X87928973Y-88166667D01*
X44957580Y-84833333D02*
X45957580Y-84833333D01*
X45957580Y-84833333D02*
X45243295Y-84500000D01*
X45243295Y-84500000D02*
X45957580Y-84166667D01*
X45957580Y-84166667D02*
X44957580Y-84166667D01*
X44957580Y-83690476D02*
X45624247Y-83690476D01*
X45957580Y-83690476D02*
X45909961Y-83738095D01*
X45909961Y-83738095D02*
X45862342Y-83690476D01*
X45862342Y-83690476D02*
X45909961Y-83642857D01*
X45909961Y-83642857D02*
X45957580Y-83690476D01*
X45957580Y-83690476D02*
X45862342Y-83690476D01*
X45005200Y-82785715D02*
X44957580Y-82880953D01*
X44957580Y-82880953D02*
X44957580Y-83071429D01*
X44957580Y-83071429D02*
X45005200Y-83166667D01*
X45005200Y-83166667D02*
X45052819Y-83214286D01*
X45052819Y-83214286D02*
X45148057Y-83261905D01*
X45148057Y-83261905D02*
X45433771Y-83261905D01*
X45433771Y-83261905D02*
X45529009Y-83214286D01*
X45529009Y-83214286D02*
X45576628Y-83166667D01*
X45576628Y-83166667D02*
X45624247Y-83071429D01*
X45624247Y-83071429D02*
X45624247Y-82880953D01*
X45624247Y-82880953D02*
X45576628Y-82785715D01*
X44957580Y-82357143D02*
X45624247Y-82357143D01*
X45433771Y-82357143D02*
X45529009Y-82309524D01*
X45529009Y-82309524D02*
X45576628Y-82261905D01*
X45576628Y-82261905D02*
X45624247Y-82166667D01*
X45624247Y-82166667D02*
X45624247Y-82071429D01*
X44957580Y-81595238D02*
X45005200Y-81690476D01*
X45005200Y-81690476D02*
X45052819Y-81738095D01*
X45052819Y-81738095D02*
X45148057Y-81785714D01*
X45148057Y-81785714D02*
X45433771Y-81785714D01*
X45433771Y-81785714D02*
X45529009Y-81738095D01*
X45529009Y-81738095D02*
X45576628Y-81690476D01*
X45576628Y-81690476D02*
X45624247Y-81595238D01*
X45624247Y-81595238D02*
X45624247Y-81452381D01*
X45624247Y-81452381D02*
X45576628Y-81357143D01*
X45576628Y-81357143D02*
X45529009Y-81309524D01*
X45529009Y-81309524D02*
X45433771Y-81261905D01*
X45433771Y-81261905D02*
X45148057Y-81261905D01*
X45148057Y-81261905D02*
X45052819Y-81309524D01*
X45052819Y-81309524D02*
X45005200Y-81357143D01*
X45005200Y-81357143D02*
X44957580Y-81452381D01*
X44957580Y-81452381D02*
X44957580Y-81595238D01*
X45005200Y-80880952D02*
X44957580Y-80738095D01*
X44957580Y-80738095D02*
X44957580Y-80500000D01*
X44957580Y-80500000D02*
X45005200Y-80404762D01*
X45005200Y-80404762D02*
X45052819Y-80357143D01*
X45052819Y-80357143D02*
X45148057Y-80309524D01*
X45148057Y-80309524D02*
X45243295Y-80309524D01*
X45243295Y-80309524D02*
X45338533Y-80357143D01*
X45338533Y-80357143D02*
X45386152Y-80404762D01*
X45386152Y-80404762D02*
X45433771Y-80500000D01*
X45433771Y-80500000D02*
X45481390Y-80690476D01*
X45481390Y-80690476D02*
X45529009Y-80785714D01*
X45529009Y-80785714D02*
X45576628Y-80833333D01*
X45576628Y-80833333D02*
X45671866Y-80880952D01*
X45671866Y-80880952D02*
X45767104Y-80880952D01*
X45767104Y-80880952D02*
X45862342Y-80833333D01*
X45862342Y-80833333D02*
X45909961Y-80785714D01*
X45909961Y-80785714D02*
X45957580Y-80690476D01*
X45957580Y-80690476D02*
X45957580Y-80452381D01*
X45957580Y-80452381D02*
X45909961Y-80309524D01*
X44957580Y-79880952D02*
X45957580Y-79880952D01*
X45957580Y-79880952D02*
X45957580Y-79642857D01*
X45957580Y-79642857D02*
X45909961Y-79500000D01*
X45909961Y-79500000D02*
X45814723Y-79404762D01*
X45814723Y-79404762D02*
X45719485Y-79357143D01*
X45719485Y-79357143D02*
X45529009Y-79309524D01*
X45529009Y-79309524D02*
X45386152Y-79309524D01*
X45386152Y-79309524D02*
X45195676Y-79357143D01*
X45195676Y-79357143D02*
X45100438Y-79404762D01*
X45100438Y-79404762D02*
X45005200Y-79500000D01*
X45005200Y-79500000D02*
X44957580Y-79642857D01*
X44957580Y-79642857D02*
X44957580Y-79880952D01*
X45052819Y-77547619D02*
X45005200Y-77595238D01*
X45005200Y-77595238D02*
X44957580Y-77738095D01*
X44957580Y-77738095D02*
X44957580Y-77833333D01*
X44957580Y-77833333D02*
X45005200Y-77976190D01*
X45005200Y-77976190D02*
X45100438Y-78071428D01*
X45100438Y-78071428D02*
X45195676Y-78119047D01*
X45195676Y-78119047D02*
X45386152Y-78166666D01*
X45386152Y-78166666D02*
X45529009Y-78166666D01*
X45529009Y-78166666D02*
X45719485Y-78119047D01*
X45719485Y-78119047D02*
X45814723Y-78071428D01*
X45814723Y-78071428D02*
X45909961Y-77976190D01*
X45909961Y-77976190D02*
X45957580Y-77833333D01*
X45957580Y-77833333D02*
X45957580Y-77738095D01*
X45957580Y-77738095D02*
X45909961Y-77595238D01*
X45909961Y-77595238D02*
X45862342Y-77547619D01*
X44957580Y-76690476D02*
X45481390Y-76690476D01*
X45481390Y-76690476D02*
X45576628Y-76738095D01*
X45576628Y-76738095D02*
X45624247Y-76833333D01*
X45624247Y-76833333D02*
X45624247Y-77023809D01*
X45624247Y-77023809D02*
X45576628Y-77119047D01*
X45005200Y-76690476D02*
X44957580Y-76785714D01*
X44957580Y-76785714D02*
X44957580Y-77023809D01*
X44957580Y-77023809D02*
X45005200Y-77119047D01*
X45005200Y-77119047D02*
X45100438Y-77166666D01*
X45100438Y-77166666D02*
X45195676Y-77166666D01*
X45195676Y-77166666D02*
X45290914Y-77119047D01*
X45290914Y-77119047D02*
X45338533Y-77023809D01*
X45338533Y-77023809D02*
X45338533Y-76785714D01*
X45338533Y-76785714D02*
X45386152Y-76690476D01*
X44957580Y-76214285D02*
X45624247Y-76214285D01*
X45433771Y-76214285D02*
X45529009Y-76166666D01*
X45529009Y-76166666D02*
X45576628Y-76119047D01*
X45576628Y-76119047D02*
X45624247Y-76023809D01*
X45624247Y-76023809D02*
X45624247Y-75928571D01*
X44957580Y-75166666D02*
X45957580Y-75166666D01*
X45005200Y-75166666D02*
X44957580Y-75261904D01*
X44957580Y-75261904D02*
X44957580Y-75452380D01*
X44957580Y-75452380D02*
X45005200Y-75547618D01*
X45005200Y-75547618D02*
X45052819Y-75595237D01*
X45052819Y-75595237D02*
X45148057Y-75642856D01*
X45148057Y-75642856D02*
X45433771Y-75642856D01*
X45433771Y-75642856D02*
X45529009Y-75595237D01*
X45529009Y-75595237D02*
X45576628Y-75547618D01*
X45576628Y-75547618D02*
X45624247Y-75452380D01*
X45624247Y-75452380D02*
X45624247Y-75261904D01*
X45624247Y-75261904D02*
X45576628Y-75166666D01*
X42966684Y-84214286D02*
X43014303Y-84261905D01*
X43014303Y-84261905D02*
X43157160Y-84357143D01*
X43157160Y-84357143D02*
X43252398Y-84404762D01*
X43252398Y-84404762D02*
X43395256Y-84452381D01*
X43395256Y-84452381D02*
X43633351Y-84500000D01*
X43633351Y-84500000D02*
X43823827Y-84500000D01*
X43823827Y-84500000D02*
X44061922Y-84452381D01*
X44061922Y-84452381D02*
X44204779Y-84404762D01*
X44204779Y-84404762D02*
X44300017Y-84357143D01*
X44300017Y-84357143D02*
X44442875Y-84261905D01*
X44442875Y-84261905D02*
X44490494Y-84214286D01*
X43395256Y-83452381D02*
X43347636Y-83547619D01*
X43347636Y-83547619D02*
X43347636Y-83738095D01*
X43347636Y-83738095D02*
X43395256Y-83833333D01*
X43395256Y-83833333D02*
X43490494Y-83880952D01*
X43490494Y-83880952D02*
X43871446Y-83880952D01*
X43871446Y-83880952D02*
X43966684Y-83833333D01*
X43966684Y-83833333D02*
X44014303Y-83738095D01*
X44014303Y-83738095D02*
X44014303Y-83547619D01*
X44014303Y-83547619D02*
X43966684Y-83452381D01*
X43966684Y-83452381D02*
X43871446Y-83404762D01*
X43871446Y-83404762D02*
X43776208Y-83404762D01*
X43776208Y-83404762D02*
X43680970Y-83880952D01*
X43347636Y-83071428D02*
X44014303Y-82547619D01*
X44014303Y-83071428D02*
X43347636Y-82547619D01*
X42966684Y-82261904D02*
X43014303Y-82214285D01*
X43014303Y-82214285D02*
X43157160Y-82119047D01*
X43157160Y-82119047D02*
X43252398Y-82071428D01*
X43252398Y-82071428D02*
X43395256Y-82023809D01*
X43395256Y-82023809D02*
X43633351Y-81976190D01*
X43633351Y-81976190D02*
X43823827Y-81976190D01*
X43823827Y-81976190D02*
X44061922Y-82023809D01*
X44061922Y-82023809D02*
X44204779Y-82071428D01*
X44204779Y-82071428D02*
X44300017Y-82119047D01*
X44300017Y-82119047D02*
X44442875Y-82214285D01*
X44442875Y-82214285D02*
X44490494Y-82261904D01*
X43871446Y-81166666D02*
X43871446Y-81499999D01*
X43347636Y-81499999D02*
X44347636Y-81499999D01*
X44347636Y-81499999D02*
X44347636Y-81023809D01*
X43633351Y-80690475D02*
X43633351Y-80214285D01*
X43347636Y-80785713D02*
X44347636Y-80452380D01*
X44347636Y-80452380D02*
X43347636Y-80119047D01*
X44347636Y-79928570D02*
X44347636Y-79357142D01*
X43347636Y-79642856D02*
X44347636Y-79642856D01*
X44347636Y-78071427D02*
X44347636Y-77880951D01*
X44347636Y-77880951D02*
X44300017Y-77785713D01*
X44300017Y-77785713D02*
X44204779Y-77690475D01*
X44204779Y-77690475D02*
X44014303Y-77642856D01*
X44014303Y-77642856D02*
X43680970Y-77642856D01*
X43680970Y-77642856D02*
X43490494Y-77690475D01*
X43490494Y-77690475D02*
X43395256Y-77785713D01*
X43395256Y-77785713D02*
X43347636Y-77880951D01*
X43347636Y-77880951D02*
X43347636Y-78071427D01*
X43347636Y-78071427D02*
X43395256Y-78166665D01*
X43395256Y-78166665D02*
X43490494Y-78261903D01*
X43490494Y-78261903D02*
X43680970Y-78309522D01*
X43680970Y-78309522D02*
X44014303Y-78309522D01*
X44014303Y-78309522D02*
X44204779Y-78261903D01*
X44204779Y-78261903D02*
X44300017Y-78166665D01*
X44300017Y-78166665D02*
X44347636Y-78071427D01*
X44014303Y-77214284D02*
X43347636Y-77214284D01*
X43919065Y-77214284D02*
X43966684Y-77166665D01*
X43966684Y-77166665D02*
X44014303Y-77071427D01*
X44014303Y-77071427D02*
X44014303Y-76928570D01*
X44014303Y-76928570D02*
X43966684Y-76833332D01*
X43966684Y-76833332D02*
X43871446Y-76785713D01*
X43871446Y-76785713D02*
X43347636Y-76785713D01*
X43347636Y-76166665D02*
X43395256Y-76261903D01*
X43395256Y-76261903D02*
X43490494Y-76309522D01*
X43490494Y-76309522D02*
X44347636Y-76309522D01*
X44014303Y-75880950D02*
X43347636Y-75642855D01*
X44014303Y-75404760D02*
X43347636Y-75642855D01*
X43347636Y-75642855D02*
X43109541Y-75738093D01*
X43109541Y-75738093D02*
X43061922Y-75785712D01*
X43061922Y-75785712D02*
X43014303Y-75880950D01*
D11*
X72238096Y-92846175D02*
X72238096Y-91846175D01*
X72238096Y-91846175D02*
X71904763Y-92560460D01*
X71904763Y-92560460D02*
X71571430Y-91846175D01*
X71571430Y-91846175D02*
X71571430Y-92846175D01*
X70666668Y-92846175D02*
X70666668Y-92322365D01*
X70666668Y-92322365D02*
X70714287Y-92227127D01*
X70714287Y-92227127D02*
X70809525Y-92179508D01*
X70809525Y-92179508D02*
X71000001Y-92179508D01*
X71000001Y-92179508D02*
X71095239Y-92227127D01*
X70666668Y-92798556D02*
X70761906Y-92846175D01*
X70761906Y-92846175D02*
X71000001Y-92846175D01*
X71000001Y-92846175D02*
X71095239Y-92798556D01*
X71095239Y-92798556D02*
X71142858Y-92703317D01*
X71142858Y-92703317D02*
X71142858Y-92608079D01*
X71142858Y-92608079D02*
X71095239Y-92512841D01*
X71095239Y-92512841D02*
X71000001Y-92465222D01*
X71000001Y-92465222D02*
X70761906Y-92465222D01*
X70761906Y-92465222D02*
X70666668Y-92417603D01*
X70238096Y-92798556D02*
X70142858Y-92846175D01*
X70142858Y-92846175D02*
X69952382Y-92846175D01*
X69952382Y-92846175D02*
X69857144Y-92798556D01*
X69857144Y-92798556D02*
X69809525Y-92703317D01*
X69809525Y-92703317D02*
X69809525Y-92655698D01*
X69809525Y-92655698D02*
X69857144Y-92560460D01*
X69857144Y-92560460D02*
X69952382Y-92512841D01*
X69952382Y-92512841D02*
X70095239Y-92512841D01*
X70095239Y-92512841D02*
X70190477Y-92465222D01*
X70190477Y-92465222D02*
X70238096Y-92369984D01*
X70238096Y-92369984D02*
X70238096Y-92322365D01*
X70238096Y-92322365D02*
X70190477Y-92227127D01*
X70190477Y-92227127D02*
X70095239Y-92179508D01*
X70095239Y-92179508D02*
X69952382Y-92179508D01*
X69952382Y-92179508D02*
X69857144Y-92227127D01*
X69380953Y-92846175D02*
X69380953Y-91846175D01*
X69285715Y-92465222D02*
X69000001Y-92846175D01*
X69000001Y-92179508D02*
X69380953Y-92560460D01*
X67238096Y-92750936D02*
X67285715Y-92798556D01*
X67285715Y-92798556D02*
X67428572Y-92846175D01*
X67428572Y-92846175D02*
X67523810Y-92846175D01*
X67523810Y-92846175D02*
X67666667Y-92798556D01*
X67666667Y-92798556D02*
X67761905Y-92703317D01*
X67761905Y-92703317D02*
X67809524Y-92608079D01*
X67809524Y-92608079D02*
X67857143Y-92417603D01*
X67857143Y-92417603D02*
X67857143Y-92274746D01*
X67857143Y-92274746D02*
X67809524Y-92084270D01*
X67809524Y-92084270D02*
X67761905Y-91989032D01*
X67761905Y-91989032D02*
X67666667Y-91893794D01*
X67666667Y-91893794D02*
X67523810Y-91846175D01*
X67523810Y-91846175D02*
X67428572Y-91846175D01*
X67428572Y-91846175D02*
X67285715Y-91893794D01*
X67285715Y-91893794D02*
X67238096Y-91941413D01*
X66666667Y-92846175D02*
X66761905Y-92798556D01*
X66761905Y-92798556D02*
X66809524Y-92750936D01*
X66809524Y-92750936D02*
X66857143Y-92655698D01*
X66857143Y-92655698D02*
X66857143Y-92369984D01*
X66857143Y-92369984D02*
X66809524Y-92274746D01*
X66809524Y-92274746D02*
X66761905Y-92227127D01*
X66761905Y-92227127D02*
X66666667Y-92179508D01*
X66666667Y-92179508D02*
X66523810Y-92179508D01*
X66523810Y-92179508D02*
X66428572Y-92227127D01*
X66428572Y-92227127D02*
X66380953Y-92274746D01*
X66380953Y-92274746D02*
X66333334Y-92369984D01*
X66333334Y-92369984D02*
X66333334Y-92655698D01*
X66333334Y-92655698D02*
X66380953Y-92750936D01*
X66380953Y-92750936D02*
X66428572Y-92798556D01*
X66428572Y-92798556D02*
X66523810Y-92846175D01*
X66523810Y-92846175D02*
X66666667Y-92846175D01*
X65904762Y-92179508D02*
X65904762Y-92846175D01*
X65904762Y-92274746D02*
X65857143Y-92227127D01*
X65857143Y-92227127D02*
X65761905Y-92179508D01*
X65761905Y-92179508D02*
X65619048Y-92179508D01*
X65619048Y-92179508D02*
X65523810Y-92227127D01*
X65523810Y-92227127D02*
X65476191Y-92322365D01*
X65476191Y-92322365D02*
X65476191Y-92846175D01*
X65142857Y-92179508D02*
X64761905Y-92179508D01*
X65000000Y-91846175D02*
X65000000Y-92703317D01*
X65000000Y-92703317D02*
X64952381Y-92798556D01*
X64952381Y-92798556D02*
X64857143Y-92846175D01*
X64857143Y-92846175D02*
X64761905Y-92846175D01*
X64428571Y-92846175D02*
X64428571Y-92179508D01*
X64428571Y-92369984D02*
X64380952Y-92274746D01*
X64380952Y-92274746D02*
X64333333Y-92227127D01*
X64333333Y-92227127D02*
X64238095Y-92179508D01*
X64238095Y-92179508D02*
X64142857Y-92179508D01*
X63666666Y-92846175D02*
X63761904Y-92798556D01*
X63761904Y-92798556D02*
X63809523Y-92750936D01*
X63809523Y-92750936D02*
X63857142Y-92655698D01*
X63857142Y-92655698D02*
X63857142Y-92369984D01*
X63857142Y-92369984D02*
X63809523Y-92274746D01*
X63809523Y-92274746D02*
X63761904Y-92227127D01*
X63761904Y-92227127D02*
X63666666Y-92179508D01*
X63666666Y-92179508D02*
X63523809Y-92179508D01*
X63523809Y-92179508D02*
X63428571Y-92227127D01*
X63428571Y-92227127D02*
X63380952Y-92274746D01*
X63380952Y-92274746D02*
X63333333Y-92369984D01*
X63333333Y-92369984D02*
X63333333Y-92655698D01*
X63333333Y-92655698D02*
X63380952Y-92750936D01*
X63380952Y-92750936D02*
X63428571Y-92798556D01*
X63428571Y-92798556D02*
X63523809Y-92846175D01*
X63523809Y-92846175D02*
X63666666Y-92846175D01*
X62761904Y-92846175D02*
X62857142Y-92798556D01*
X62857142Y-92798556D02*
X62904761Y-92703317D01*
X62904761Y-92703317D02*
X62904761Y-91846175D01*
X61285713Y-92322365D02*
X61142856Y-92369984D01*
X61142856Y-92369984D02*
X61095237Y-92417603D01*
X61095237Y-92417603D02*
X61047618Y-92512841D01*
X61047618Y-92512841D02*
X61047618Y-92655698D01*
X61047618Y-92655698D02*
X61095237Y-92750936D01*
X61095237Y-92750936D02*
X61142856Y-92798556D01*
X61142856Y-92798556D02*
X61238094Y-92846175D01*
X61238094Y-92846175D02*
X61619046Y-92846175D01*
X61619046Y-92846175D02*
X61619046Y-91846175D01*
X61619046Y-91846175D02*
X61285713Y-91846175D01*
X61285713Y-91846175D02*
X61190475Y-91893794D01*
X61190475Y-91893794D02*
X61142856Y-91941413D01*
X61142856Y-91941413D02*
X61095237Y-92036651D01*
X61095237Y-92036651D02*
X61095237Y-92131889D01*
X61095237Y-92131889D02*
X61142856Y-92227127D01*
X61142856Y-92227127D02*
X61190475Y-92274746D01*
X61190475Y-92274746D02*
X61285713Y-92322365D01*
X61285713Y-92322365D02*
X61619046Y-92322365D01*
X60476189Y-92846175D02*
X60571427Y-92798556D01*
X60571427Y-92798556D02*
X60619046Y-92750936D01*
X60619046Y-92750936D02*
X60666665Y-92655698D01*
X60666665Y-92655698D02*
X60666665Y-92369984D01*
X60666665Y-92369984D02*
X60619046Y-92274746D01*
X60619046Y-92274746D02*
X60571427Y-92227127D01*
X60571427Y-92227127D02*
X60476189Y-92179508D01*
X60476189Y-92179508D02*
X60333332Y-92179508D01*
X60333332Y-92179508D02*
X60238094Y-92227127D01*
X60238094Y-92227127D02*
X60190475Y-92274746D01*
X60190475Y-92274746D02*
X60142856Y-92369984D01*
X60142856Y-92369984D02*
X60142856Y-92655698D01*
X60142856Y-92655698D02*
X60190475Y-92750936D01*
X60190475Y-92750936D02*
X60238094Y-92798556D01*
X60238094Y-92798556D02*
X60333332Y-92846175D01*
X60333332Y-92846175D02*
X60476189Y-92846175D01*
X59285713Y-92846175D02*
X59285713Y-92322365D01*
X59285713Y-92322365D02*
X59333332Y-92227127D01*
X59333332Y-92227127D02*
X59428570Y-92179508D01*
X59428570Y-92179508D02*
X59619046Y-92179508D01*
X59619046Y-92179508D02*
X59714284Y-92227127D01*
X59285713Y-92798556D02*
X59380951Y-92846175D01*
X59380951Y-92846175D02*
X59619046Y-92846175D01*
X59619046Y-92846175D02*
X59714284Y-92798556D01*
X59714284Y-92798556D02*
X59761903Y-92703317D01*
X59761903Y-92703317D02*
X59761903Y-92608079D01*
X59761903Y-92608079D02*
X59714284Y-92512841D01*
X59714284Y-92512841D02*
X59619046Y-92465222D01*
X59619046Y-92465222D02*
X59380951Y-92465222D01*
X59380951Y-92465222D02*
X59285713Y-92417603D01*
X58809522Y-92846175D02*
X58809522Y-92179508D01*
X58809522Y-92369984D02*
X58761903Y-92274746D01*
X58761903Y-92274746D02*
X58714284Y-92227127D01*
X58714284Y-92227127D02*
X58619046Y-92179508D01*
X58619046Y-92179508D02*
X58523808Y-92179508D01*
X57761903Y-92846175D02*
X57761903Y-91846175D01*
X57761903Y-92798556D02*
X57857141Y-92846175D01*
X57857141Y-92846175D02*
X58047617Y-92846175D01*
X58047617Y-92846175D02*
X58142855Y-92798556D01*
X58142855Y-92798556D02*
X58190474Y-92750936D01*
X58190474Y-92750936D02*
X58238093Y-92655698D01*
X58238093Y-92655698D02*
X58238093Y-92369984D01*
X58238093Y-92369984D02*
X58190474Y-92274746D01*
X58190474Y-92274746D02*
X58142855Y-92227127D01*
X58142855Y-92227127D02*
X58047617Y-92179508D01*
X58047617Y-92179508D02*
X57857141Y-92179508D01*
X57857141Y-92179508D02*
X57761903Y-92227127D01*
X70833333Y-94456119D02*
X70833333Y-93456119D01*
X70261905Y-94456119D02*
X70690476Y-93884690D01*
X70261905Y-93456119D02*
X70833333Y-94027547D01*
X69404762Y-94456119D02*
X69404762Y-93932309D01*
X69404762Y-93932309D02*
X69452381Y-93837071D01*
X69452381Y-93837071D02*
X69547619Y-93789452D01*
X69547619Y-93789452D02*
X69738095Y-93789452D01*
X69738095Y-93789452D02*
X69833333Y-93837071D01*
X69404762Y-94408500D02*
X69500000Y-94456119D01*
X69500000Y-94456119D02*
X69738095Y-94456119D01*
X69738095Y-94456119D02*
X69833333Y-94408500D01*
X69833333Y-94408500D02*
X69880952Y-94313261D01*
X69880952Y-94313261D02*
X69880952Y-94218023D01*
X69880952Y-94218023D02*
X69833333Y-94122785D01*
X69833333Y-94122785D02*
X69738095Y-94075166D01*
X69738095Y-94075166D02*
X69500000Y-94075166D01*
X69500000Y-94075166D02*
X69404762Y-94027547D01*
X68166666Y-94456119D02*
X68166666Y-93456119D01*
X68166666Y-93456119D02*
X67833333Y-94170404D01*
X67833333Y-94170404D02*
X67500000Y-93456119D01*
X67500000Y-93456119D02*
X67500000Y-94456119D01*
X66880952Y-94456119D02*
X66976190Y-94408500D01*
X66976190Y-94408500D02*
X67023809Y-94360880D01*
X67023809Y-94360880D02*
X67071428Y-94265642D01*
X67071428Y-94265642D02*
X67071428Y-93979928D01*
X67071428Y-93979928D02*
X67023809Y-93884690D01*
X67023809Y-93884690D02*
X66976190Y-93837071D01*
X66976190Y-93837071D02*
X66880952Y-93789452D01*
X66880952Y-93789452D02*
X66738095Y-93789452D01*
X66738095Y-93789452D02*
X66642857Y-93837071D01*
X66642857Y-93837071D02*
X66595238Y-93884690D01*
X66595238Y-93884690D02*
X66547619Y-93979928D01*
X66547619Y-93979928D02*
X66547619Y-94265642D01*
X66547619Y-94265642D02*
X66595238Y-94360880D01*
X66595238Y-94360880D02*
X66642857Y-94408500D01*
X66642857Y-94408500D02*
X66738095Y-94456119D01*
X66738095Y-94456119D02*
X66880952Y-94456119D01*
X65690476Y-94456119D02*
X65690476Y-93932309D01*
X65690476Y-93932309D02*
X65738095Y-93837071D01*
X65738095Y-93837071D02*
X65833333Y-93789452D01*
X65833333Y-93789452D02*
X66023809Y-93789452D01*
X66023809Y-93789452D02*
X66119047Y-93837071D01*
X65690476Y-94408500D02*
X65785714Y-94456119D01*
X65785714Y-94456119D02*
X66023809Y-94456119D01*
X66023809Y-94456119D02*
X66119047Y-94408500D01*
X66119047Y-94408500D02*
X66166666Y-94313261D01*
X66166666Y-94313261D02*
X66166666Y-94218023D01*
X66166666Y-94218023D02*
X66119047Y-94122785D01*
X66119047Y-94122785D02*
X66023809Y-94075166D01*
X66023809Y-94075166D02*
X65785714Y-94075166D01*
X65785714Y-94075166D02*
X65690476Y-94027547D01*
X65214285Y-94456119D02*
X65214285Y-93789452D01*
X65214285Y-93884690D02*
X65166666Y-93837071D01*
X65166666Y-93837071D02*
X65071428Y-93789452D01*
X65071428Y-93789452D02*
X64928571Y-93789452D01*
X64928571Y-93789452D02*
X64833333Y-93837071D01*
X64833333Y-93837071D02*
X64785714Y-93932309D01*
X64785714Y-93932309D02*
X64785714Y-94456119D01*
X64785714Y-93932309D02*
X64738095Y-93837071D01*
X64738095Y-93837071D02*
X64642857Y-93789452D01*
X64642857Y-93789452D02*
X64500000Y-93789452D01*
X64500000Y-93789452D02*
X64404761Y-93837071D01*
X64404761Y-93837071D02*
X64357142Y-93932309D01*
X64357142Y-93932309D02*
X64357142Y-94456119D01*
X63738095Y-94456119D02*
X63833333Y-94408500D01*
X63833333Y-94408500D02*
X63880952Y-94360880D01*
X63880952Y-94360880D02*
X63928571Y-94265642D01*
X63928571Y-94265642D02*
X63928571Y-93979928D01*
X63928571Y-93979928D02*
X63880952Y-93884690D01*
X63880952Y-93884690D02*
X63833333Y-93837071D01*
X63833333Y-93837071D02*
X63738095Y-93789452D01*
X63738095Y-93789452D02*
X63595238Y-93789452D01*
X63595238Y-93789452D02*
X63500000Y-93837071D01*
X63500000Y-93837071D02*
X63452381Y-93884690D01*
X63452381Y-93884690D02*
X63404762Y-93979928D01*
X63404762Y-93979928D02*
X63404762Y-94265642D01*
X63404762Y-94265642D02*
X63452381Y-94360880D01*
X63452381Y-94360880D02*
X63500000Y-94408500D01*
X63500000Y-94408500D02*
X63595238Y-94456119D01*
X63595238Y-94456119D02*
X63738095Y-94456119D01*
X62547619Y-94456119D02*
X62547619Y-93932309D01*
X62547619Y-93932309D02*
X62595238Y-93837071D01*
X62595238Y-93837071D02*
X62690476Y-93789452D01*
X62690476Y-93789452D02*
X62880952Y-93789452D01*
X62880952Y-93789452D02*
X62976190Y-93837071D01*
X62547619Y-94408500D02*
X62642857Y-94456119D01*
X62642857Y-94456119D02*
X62880952Y-94456119D01*
X62880952Y-94456119D02*
X62976190Y-94408500D01*
X62976190Y-94408500D02*
X63023809Y-94313261D01*
X63023809Y-94313261D02*
X63023809Y-94218023D01*
X63023809Y-94218023D02*
X62976190Y-94122785D01*
X62976190Y-94122785D02*
X62880952Y-94075166D01*
X62880952Y-94075166D02*
X62642857Y-94075166D01*
X62642857Y-94075166D02*
X62547619Y-94027547D01*
X60833333Y-94456119D02*
X61309523Y-94456119D01*
X61309523Y-94456119D02*
X61309523Y-93456119D01*
X60071428Y-94456119D02*
X60071428Y-93932309D01*
X60071428Y-93932309D02*
X60119047Y-93837071D01*
X60119047Y-93837071D02*
X60214285Y-93789452D01*
X60214285Y-93789452D02*
X60404761Y-93789452D01*
X60404761Y-93789452D02*
X60499999Y-93837071D01*
X60071428Y-94408500D02*
X60166666Y-94456119D01*
X60166666Y-94456119D02*
X60404761Y-94456119D01*
X60404761Y-94456119D02*
X60499999Y-94408500D01*
X60499999Y-94408500D02*
X60547618Y-94313261D01*
X60547618Y-94313261D02*
X60547618Y-94218023D01*
X60547618Y-94218023D02*
X60499999Y-94122785D01*
X60499999Y-94122785D02*
X60404761Y-94075166D01*
X60404761Y-94075166D02*
X60166666Y-94075166D01*
X60166666Y-94075166D02*
X60071428Y-94027547D01*
X59595237Y-94456119D02*
X59595237Y-93456119D01*
X59595237Y-93837071D02*
X59499999Y-93789452D01*
X59499999Y-93789452D02*
X59309523Y-93789452D01*
X59309523Y-93789452D02*
X59214285Y-93837071D01*
X59214285Y-93837071D02*
X59166666Y-93884690D01*
X59166666Y-93884690D02*
X59119047Y-93979928D01*
X59119047Y-93979928D02*
X59119047Y-94265642D01*
X59119047Y-94265642D02*
X59166666Y-94360880D01*
X59166666Y-94360880D02*
X59214285Y-94408500D01*
X59214285Y-94408500D02*
X59309523Y-94456119D01*
X59309523Y-94456119D02*
X59499999Y-94456119D01*
X59499999Y-94456119D02*
X59595237Y-94408500D01*
X67071428Y-96066063D02*
X67404761Y-95589872D01*
X67642856Y-96066063D02*
X67642856Y-95066063D01*
X67642856Y-95066063D02*
X67261904Y-95066063D01*
X67261904Y-95066063D02*
X67166666Y-95113682D01*
X67166666Y-95113682D02*
X67119047Y-95161301D01*
X67119047Y-95161301D02*
X67071428Y-95256539D01*
X67071428Y-95256539D02*
X67071428Y-95399396D01*
X67071428Y-95399396D02*
X67119047Y-95494634D01*
X67119047Y-95494634D02*
X67166666Y-95542253D01*
X67166666Y-95542253D02*
X67261904Y-95589872D01*
X67261904Y-95589872D02*
X67642856Y-95589872D01*
X66261904Y-96018444D02*
X66357142Y-96066063D01*
X66357142Y-96066063D02*
X66547618Y-96066063D01*
X66547618Y-96066063D02*
X66642856Y-96018444D01*
X66642856Y-96018444D02*
X66690475Y-95923205D01*
X66690475Y-95923205D02*
X66690475Y-95542253D01*
X66690475Y-95542253D02*
X66642856Y-95447015D01*
X66642856Y-95447015D02*
X66547618Y-95399396D01*
X66547618Y-95399396D02*
X66357142Y-95399396D01*
X66357142Y-95399396D02*
X66261904Y-95447015D01*
X66261904Y-95447015D02*
X66214285Y-95542253D01*
X66214285Y-95542253D02*
X66214285Y-95637491D01*
X66214285Y-95637491D02*
X66690475Y-95732729D01*
X65880951Y-95399396D02*
X65642856Y-96066063D01*
X65642856Y-96066063D02*
X65404761Y-95399396D01*
X64309522Y-95161301D02*
X64261903Y-95113682D01*
X64261903Y-95113682D02*
X64166665Y-95066063D01*
X64166665Y-95066063D02*
X63928570Y-95066063D01*
X63928570Y-95066063D02*
X63833332Y-95113682D01*
X63833332Y-95113682D02*
X63785713Y-95161301D01*
X63785713Y-95161301D02*
X63738094Y-95256539D01*
X63738094Y-95256539D02*
X63738094Y-95351777D01*
X63738094Y-95351777D02*
X63785713Y-95494634D01*
X63785713Y-95494634D02*
X64357141Y-96066063D01*
X64357141Y-96066063D02*
X63738094Y-96066063D01*
X63309522Y-95970824D02*
X63261903Y-96018444D01*
X63261903Y-96018444D02*
X63309522Y-96066063D01*
X63309522Y-96066063D02*
X63357141Y-96018444D01*
X63357141Y-96018444D02*
X63309522Y-95970824D01*
X63309522Y-95970824D02*
X63309522Y-96066063D01*
X62642856Y-95066063D02*
X62547618Y-95066063D01*
X62547618Y-95066063D02*
X62452380Y-95113682D01*
X62452380Y-95113682D02*
X62404761Y-95161301D01*
X62404761Y-95161301D02*
X62357142Y-95256539D01*
X62357142Y-95256539D02*
X62309523Y-95447015D01*
X62309523Y-95447015D02*
X62309523Y-95685110D01*
X62309523Y-95685110D02*
X62357142Y-95875586D01*
X62357142Y-95875586D02*
X62404761Y-95970824D01*
X62404761Y-95970824D02*
X62452380Y-96018444D01*
X62452380Y-96018444D02*
X62547618Y-96066063D01*
X62547618Y-96066063D02*
X62642856Y-96066063D01*
X62642856Y-96066063D02*
X62738094Y-96018444D01*
X62738094Y-96018444D02*
X62785713Y-95970824D01*
X62785713Y-95970824D02*
X62833332Y-95875586D01*
X62833332Y-95875586D02*
X62880951Y-95685110D01*
X62880951Y-95685110D02*
X62880951Y-95447015D01*
X62880951Y-95447015D02*
X62833332Y-95256539D01*
X62833332Y-95256539D02*
X62785713Y-95161301D01*
X62785713Y-95161301D02*
X62738094Y-95113682D01*
X62738094Y-95113682D02*
X62642856Y-95066063D01*
D10*
X56500000Y-90500000D02*
X73500000Y-90500000D01*
X73500000Y-97500000D01*
X56500000Y-97500000D01*
X56500000Y-90500000D01*
%TO.C,TP5*%
D12*
X72700000Y-80000000D02*
G75*
G02*
X71300000Y-80000000I-700000J0D01*
G01*
X71300000Y-80000000D02*
G75*
G02*
X72700000Y-80000000I700000J0D01*
G01*
D13*
%TO.C,G\u002A\u002A\u002A*%
G36*
X62852861Y-104862500D02*
G01*
X62852861Y-104950000D01*
X62766913Y-104950000D01*
X62680965Y-104950000D01*
X62680965Y-104862500D01*
X62680965Y-104775000D01*
X62766913Y-104775000D01*
X62852861Y-104775000D01*
X62852861Y-104862500D01*
G37*
G36*
X66250154Y-103250000D02*
G01*
X66250154Y-103875000D01*
X65625077Y-103875000D01*
X65000000Y-103875000D01*
X65000000Y-103250000D01*
X65000000Y-102625000D01*
X65625077Y-102625000D01*
X66250154Y-102625000D01*
X66250154Y-103250000D01*
G37*
G36*
X65565695Y-100271875D02*
G01*
X65565695Y-100950000D01*
X65451618Y-100950000D01*
X65337542Y-100950000D01*
X65337542Y-100271875D01*
X65337542Y-99593750D01*
X65451618Y-99593750D01*
X65565695Y-99593750D01*
X65565695Y-100271875D01*
G37*
G36*
X66168894Y-104498437D02*
G01*
X66168894Y-104950000D01*
X66093885Y-104950000D01*
X66018876Y-104950000D01*
X66018876Y-104498437D01*
X66018876Y-104046875D01*
X66093885Y-104046875D01*
X66168894Y-104046875D01*
X66168894Y-104498437D01*
G37*
G36*
X67337788Y-104862500D02*
G01*
X67337788Y-104950000D01*
X67251840Y-104950000D01*
X67165892Y-104950000D01*
X67165892Y-104862500D01*
X67165892Y-104775000D01*
X67251840Y-104775000D01*
X67337788Y-104775000D01*
X67337788Y-104862500D01*
G37*
G36*
X61187031Y-98937500D02*
G01*
X61187031Y-99000000D01*
X60655716Y-99000000D01*
X60124400Y-99000000D01*
X60124400Y-99593750D01*
X60124400Y-100187500D01*
X60061893Y-100187500D01*
X59999385Y-100187500D01*
X59999385Y-99531250D01*
X59999385Y-98875000D01*
X60593208Y-98875000D01*
X61187031Y-98875000D01*
X61187031Y-98937500D01*
G37*
G36*
X70000615Y-100125000D02*
G01*
X70000615Y-101375000D01*
X69375539Y-101375000D01*
X68750462Y-101375000D01*
X68750462Y-100750000D01*
X68750462Y-100125000D01*
X68125385Y-100125000D01*
X67500308Y-100125000D01*
X67500308Y-99500000D01*
X67500308Y-98875000D01*
X68750462Y-98875000D01*
X70000615Y-98875000D01*
X70000615Y-100125000D01*
G37*
G36*
X68750462Y-102000000D02*
G01*
X68750462Y-102625000D01*
X69375539Y-102625000D01*
X70000615Y-102625000D01*
X70000615Y-103250000D01*
X70000615Y-103875000D01*
X68750462Y-103875000D01*
X67500308Y-103875000D01*
X67500308Y-102625000D01*
X67500308Y-101375000D01*
X68125385Y-101375000D01*
X68750462Y-101375000D01*
X68750462Y-102000000D01*
G37*
G36*
X63771724Y-104498381D02*
G01*
X63771724Y-104950000D01*
X63695166Y-104950000D01*
X63618609Y-104950000D01*
X63617813Y-104620322D01*
X63617018Y-104290644D01*
X63391668Y-104619541D01*
X63166318Y-104948437D01*
X63097100Y-104949278D01*
X63027883Y-104950119D01*
X63027883Y-104498497D01*
X63027883Y-104046875D01*
X63104440Y-104046875D01*
X63180997Y-104046875D01*
X63181793Y-104366974D01*
X63182589Y-104687073D01*
X63401486Y-104367755D01*
X63620383Y-104048437D01*
X63696054Y-104047600D01*
X63771724Y-104046763D01*
X63771724Y-104498381D01*
G37*
G36*
X61605833Y-104498437D02*
G01*
X61605833Y-104950000D01*
X61302670Y-104950000D01*
X60999508Y-104950000D01*
X60999508Y-104884395D01*
X60999508Y-104818790D01*
X61226880Y-104817989D01*
X61454252Y-104817187D01*
X61455068Y-104688281D01*
X61455884Y-104559375D01*
X61258950Y-104559375D01*
X61062016Y-104559375D01*
X61062016Y-104495312D01*
X61062016Y-104431250D01*
X61257352Y-104431250D01*
X61452689Y-104431250D01*
X61452689Y-104304687D01*
X61452689Y-104178125D01*
X61230787Y-104178125D01*
X61008884Y-104178125D01*
X61008884Y-104112500D01*
X61008884Y-104046875D01*
X61307358Y-104046875D01*
X61605833Y-104046875D01*
X61605833Y-104498437D01*
G37*
G36*
X61077643Y-100076707D02*
G01*
X61077646Y-100101420D01*
X61077677Y-100155069D01*
X61077738Y-100206824D01*
X61077829Y-100256349D01*
X61077946Y-100303309D01*
X61078089Y-100347370D01*
X61078255Y-100388196D01*
X61078443Y-100425452D01*
X61078651Y-100458804D01*
X61078877Y-100487916D01*
X61079120Y-100512453D01*
X61079377Y-100532080D01*
X61079647Y-100546462D01*
X61079928Y-100555265D01*
X61080218Y-100558152D01*
X61081749Y-100556109D01*
X61086661Y-100549152D01*
X61094777Y-100537509D01*
X61105921Y-100521435D01*
X61119919Y-100501183D01*
X61136595Y-100477008D01*
X61155777Y-100449163D01*
X61177288Y-100417902D01*
X61200954Y-100383480D01*
X61226601Y-100346150D01*
X61254053Y-100306166D01*
X61283137Y-100263782D01*
X61313677Y-100219252D01*
X61345499Y-100172830D01*
X61378428Y-100124770D01*
X61412290Y-100075326D01*
X61741787Y-99594092D01*
X61853519Y-99593921D01*
X61965252Y-99593750D01*
X61965252Y-100271875D01*
X61965252Y-100950000D01*
X61851185Y-100950000D01*
X61737118Y-100950000D01*
X61736327Y-100454840D01*
X61735536Y-99959680D01*
X61396432Y-100454771D01*
X61057328Y-100949863D01*
X60953402Y-100949931D01*
X60849475Y-100950000D01*
X60850264Y-100272656D01*
X60851052Y-99595312D01*
X60964348Y-99594492D01*
X61077643Y-99593672D01*
X61077643Y-100076707D01*
G37*
G36*
X65800099Y-104498397D02*
G01*
X65800099Y-104950000D01*
X65721978Y-104950000D01*
X65643857Y-104950000D01*
X65643062Y-104601851D01*
X65642267Y-104253703D01*
X65525423Y-104601913D01*
X65408579Y-104950124D01*
X65344547Y-104949280D01*
X65280514Y-104948437D01*
X65162916Y-104597964D01*
X65045318Y-104247492D01*
X65044524Y-104598746D01*
X65043729Y-104950000D01*
X64965608Y-104950000D01*
X64887486Y-104950000D01*
X64887486Y-104498437D01*
X64887486Y-104046875D01*
X64996581Y-104046875D01*
X65105676Y-104046875D01*
X65110714Y-104061718D01*
X65115635Y-104076151D01*
X65122265Y-104095492D01*
X65130286Y-104118811D01*
X65139541Y-104145659D01*
X65149875Y-104175587D01*
X65161132Y-104208145D01*
X65173155Y-104242885D01*
X65185788Y-104279357D01*
X65198875Y-104317111D01*
X65212261Y-104355699D01*
X65225788Y-104394670D01*
X65239301Y-104433577D01*
X65252643Y-104471968D01*
X65265660Y-104509396D01*
X65278193Y-104545410D01*
X65290089Y-104579562D01*
X65301189Y-104611401D01*
X65311338Y-104640480D01*
X65320381Y-104666347D01*
X65328160Y-104688555D01*
X65334521Y-104706654D01*
X65339305Y-104720194D01*
X65342359Y-104728726D01*
X65343525Y-104731801D01*
X65343915Y-104731165D01*
X65346135Y-104725638D01*
X65350178Y-104714747D01*
X65355918Y-104698859D01*
X65363226Y-104678339D01*
X65371974Y-104653550D01*
X65382035Y-104624859D01*
X65393282Y-104592629D01*
X65405585Y-104557226D01*
X65418818Y-104519014D01*
X65432852Y-104478358D01*
X65447560Y-104435624D01*
X65462814Y-104391176D01*
X65580274Y-104048437D01*
X65690186Y-104047616D01*
X65800099Y-104046795D01*
X65800099Y-104498397D01*
G37*
G36*
X63805322Y-99593779D02*
G01*
X63967061Y-99593809D01*
X64143645Y-100103526D01*
X64148218Y-100116727D01*
X64166993Y-100170907D01*
X64185215Y-100223477D01*
X64202778Y-100274131D01*
X64219577Y-100322561D01*
X64235503Y-100368461D01*
X64250451Y-100411523D01*
X64264314Y-100451442D01*
X64276984Y-100487909D01*
X64288357Y-100520618D01*
X64298324Y-100549262D01*
X64306780Y-100573535D01*
X64313618Y-100593129D01*
X64318730Y-100607737D01*
X64322012Y-100617054D01*
X64323355Y-100620770D01*
X64323386Y-100620839D01*
X64324056Y-100620993D01*
X64325229Y-100619496D01*
X64326991Y-100616111D01*
X64329424Y-100610600D01*
X64332612Y-100602728D01*
X64336640Y-100592257D01*
X64341591Y-100578950D01*
X64347549Y-100562570D01*
X64354599Y-100542881D01*
X64362823Y-100519644D01*
X64372307Y-100492624D01*
X64383133Y-100461583D01*
X64395386Y-100426284D01*
X64409149Y-100386490D01*
X64424508Y-100341964D01*
X64441544Y-100292470D01*
X64460343Y-100237770D01*
X64480988Y-100177627D01*
X64503564Y-100111805D01*
X64680648Y-99595312D01*
X64844231Y-99595312D01*
X65007814Y-99595312D01*
X65008602Y-100272656D01*
X65009391Y-100950000D01*
X64892191Y-100950000D01*
X64774991Y-100950000D01*
X64774200Y-100426398D01*
X64773410Y-99902797D01*
X64597983Y-100425617D01*
X64422556Y-100948437D01*
X64327197Y-100949263D01*
X64231838Y-100950089D01*
X64219521Y-100914888D01*
X64217608Y-100909329D01*
X64213639Y-100897663D01*
X64207894Y-100880701D01*
X64200487Y-100858780D01*
X64191532Y-100832238D01*
X64181142Y-100801413D01*
X64169431Y-100766641D01*
X64156513Y-100728261D01*
X64142500Y-100686611D01*
X64127507Y-100642027D01*
X64111647Y-100594847D01*
X64095035Y-100545409D01*
X64077783Y-100494051D01*
X64060005Y-100441109D01*
X64041815Y-100386923D01*
X63876425Y-99894158D01*
X63875634Y-100422079D01*
X63874844Y-100950000D01*
X63759214Y-100950000D01*
X63643583Y-100950000D01*
X63643583Y-100271875D01*
X63643583Y-99593750D01*
X63805322Y-99593779D01*
G37*
G36*
X69828719Y-104498437D02*
G01*
X69828719Y-104950000D01*
X69752175Y-104950000D01*
X69675631Y-104950000D01*
X69674822Y-104786718D01*
X69674013Y-104623437D01*
X69545872Y-104621540D01*
X69521880Y-104621172D01*
X69493578Y-104620682D01*
X69470330Y-104620180D01*
X69451443Y-104619629D01*
X69436223Y-104618990D01*
X69423976Y-104618227D01*
X69414007Y-104617301D01*
X69405623Y-104616177D01*
X69398129Y-104614815D01*
X69390832Y-104613180D01*
X69379329Y-104610245D01*
X69336754Y-104595985D01*
X69298730Y-104577478D01*
X69265279Y-104554741D01*
X69236424Y-104527790D01*
X69212188Y-104496643D01*
X69192593Y-104461318D01*
X69184456Y-104441176D01*
X69174547Y-104405279D01*
X69168935Y-104366889D01*
X69167817Y-104330805D01*
X69313241Y-104330805D01*
X69314527Y-104354088D01*
X69317843Y-104374709D01*
X69325328Y-104397971D01*
X69339508Y-104424568D01*
X69358571Y-104447954D01*
X69382002Y-104467628D01*
X69409286Y-104483086D01*
X69439909Y-104493826D01*
X69446143Y-104495323D01*
X69453348Y-104496722D01*
X69461354Y-104497813D01*
X69470940Y-104498635D01*
X69482884Y-104499225D01*
X69497965Y-104499619D01*
X69516961Y-104499855D01*
X69540651Y-104499970D01*
X69569812Y-104500000D01*
X69675576Y-104500000D01*
X69675576Y-104332565D01*
X69675576Y-104165130D01*
X69566968Y-104166459D01*
X69538870Y-104166843D01*
X69513292Y-104167309D01*
X69492620Y-104167856D01*
X69476151Y-104168519D01*
X69463179Y-104169336D01*
X69453002Y-104170341D01*
X69444914Y-104171572D01*
X69438212Y-104173064D01*
X69409921Y-104182781D01*
X69382420Y-104197511D01*
X69358810Y-104216097D01*
X69339609Y-104238039D01*
X69325338Y-104262839D01*
X69316514Y-104289997D01*
X69314031Y-104307810D01*
X69313241Y-104330805D01*
X69167817Y-104330805D01*
X69167710Y-104327359D01*
X69170959Y-104288040D01*
X69178771Y-104250283D01*
X69182630Y-104237655D01*
X69197718Y-104202123D01*
X69218033Y-104169685D01*
X69243310Y-104140545D01*
X69273286Y-104114908D01*
X69307699Y-104092978D01*
X69346285Y-104074959D01*
X69388780Y-104061056D01*
X69434921Y-104051473D01*
X69440903Y-104050668D01*
X69450210Y-104049763D01*
X69461727Y-104049005D01*
X69475959Y-104048383D01*
X69493413Y-104047886D01*
X69514592Y-104047503D01*
X69540002Y-104047223D01*
X69570148Y-104047035D01*
X69605534Y-104046929D01*
X69646666Y-104046893D01*
X69828719Y-104046875D01*
X69828719Y-104332565D01*
X69828719Y-104498437D01*
G37*
G36*
X62490316Y-104950000D02*
G01*
X62351780Y-104950000D01*
X62340107Y-104949995D01*
X62301756Y-104949885D01*
X62268714Y-104949598D01*
X62240245Y-104949092D01*
X62215612Y-104948324D01*
X62194080Y-104947251D01*
X62174910Y-104945830D01*
X62157368Y-104944018D01*
X62140716Y-104941774D01*
X62124219Y-104939054D01*
X62107140Y-104935816D01*
X62091136Y-104932378D01*
X62041108Y-104918083D01*
X61995300Y-104899277D01*
X61953772Y-104876002D01*
X61916582Y-104848301D01*
X61883791Y-104816215D01*
X61855458Y-104779788D01*
X61831643Y-104739062D01*
X61825160Y-104725682D01*
X61810053Y-104689349D01*
X61798330Y-104652022D01*
X61789814Y-104612754D01*
X61784325Y-104570597D01*
X61781686Y-104524603D01*
X61781717Y-104473826D01*
X61781849Y-104468675D01*
X61781916Y-104466876D01*
X61941072Y-104466876D01*
X61941219Y-104515603D01*
X61942761Y-104545852D01*
X61947284Y-104586917D01*
X61954678Y-104623430D01*
X61965188Y-104656104D01*
X61979062Y-104685656D01*
X61996546Y-104712801D01*
X62017885Y-104738255D01*
X62038728Y-104758076D01*
X62065133Y-104777309D01*
X62094845Y-104793034D01*
X62128714Y-104805692D01*
X62167588Y-104815722D01*
X62171400Y-104816505D01*
X62185091Y-104818843D01*
X62200402Y-104820671D01*
X62218492Y-104822085D01*
X62240516Y-104823181D01*
X62267633Y-104824057D01*
X62337173Y-104825902D01*
X62337173Y-104498888D01*
X62337173Y-104171875D01*
X62279513Y-104171875D01*
X62242055Y-104172497D01*
X62205135Y-104174735D01*
X62172392Y-104178722D01*
X62142830Y-104184582D01*
X62115451Y-104192441D01*
X62102719Y-104196939D01*
X62070815Y-104210942D01*
X62043597Y-104227565D01*
X62020088Y-104247470D01*
X61999316Y-104271319D01*
X61987990Y-104287496D01*
X61971823Y-104316613D01*
X61959177Y-104348567D01*
X61949922Y-104383900D01*
X61943930Y-104423156D01*
X61941072Y-104466876D01*
X61781916Y-104466876D01*
X61782966Y-104438548D01*
X61784678Y-104412934D01*
X61787184Y-104390342D01*
X61790683Y-104369275D01*
X61795375Y-104348241D01*
X61801459Y-104325744D01*
X61811159Y-104296106D01*
X61830181Y-104252719D01*
X61853763Y-104213516D01*
X61881936Y-104178470D01*
X61914733Y-104147558D01*
X61952187Y-104120752D01*
X61994331Y-104098027D01*
X62041196Y-104079359D01*
X62092816Y-104064721D01*
X62149223Y-104054089D01*
X62152176Y-104053677D01*
X62162886Y-104052486D01*
X62176022Y-104051460D01*
X62192131Y-104050582D01*
X62211760Y-104049832D01*
X62235454Y-104049191D01*
X62263759Y-104048642D01*
X62297223Y-104048166D01*
X62336391Y-104047745D01*
X62490316Y-104046283D01*
X62490316Y-104498141D01*
X62490316Y-104498888D01*
X62490316Y-104950000D01*
G37*
G36*
X66975243Y-104498265D02*
G01*
X66975243Y-104950000D01*
X66898699Y-104950000D01*
X66822155Y-104950000D01*
X66821346Y-104786718D01*
X66820537Y-104623437D01*
X66693959Y-104621695D01*
X66682401Y-104621531D01*
X66650720Y-104621019D01*
X66624458Y-104620473D01*
X66602987Y-104619862D01*
X66585678Y-104619159D01*
X66571903Y-104618334D01*
X66561034Y-104617358D01*
X66552444Y-104616202D01*
X66545503Y-104614838D01*
X66513554Y-104606197D01*
X66472143Y-104590730D01*
X66435655Y-104571506D01*
X66403970Y-104548416D01*
X66376968Y-104521353D01*
X66354529Y-104490208D01*
X66336532Y-104454876D01*
X66322858Y-104415246D01*
X66322477Y-104413790D01*
X66319988Y-104399535D01*
X66318238Y-104380775D01*
X66317226Y-104359014D01*
X66316981Y-104338490D01*
X66459773Y-104338490D01*
X66464056Y-104372284D01*
X66467787Y-104386761D01*
X66476633Y-104408386D01*
X66489612Y-104428485D01*
X66507658Y-104448696D01*
X66514443Y-104455183D01*
X66538212Y-104473634D01*
X66563758Y-104486760D01*
X66592384Y-104495278D01*
X66599852Y-104496563D01*
X66610098Y-104497685D01*
X66623239Y-104498551D01*
X66639948Y-104499185D01*
X66660894Y-104499612D01*
X66686748Y-104499857D01*
X66718180Y-104499945D01*
X66822099Y-104500000D01*
X66822099Y-104332536D01*
X66822099Y-104165072D01*
X66713492Y-104166467D01*
X66706327Y-104166560D01*
X66675357Y-104167037D01*
X66649711Y-104167628D01*
X66628622Y-104168432D01*
X66611322Y-104169550D01*
X66597043Y-104171079D01*
X66585018Y-104173121D01*
X66574479Y-104175773D01*
X66564659Y-104179135D01*
X66554791Y-104183307D01*
X66544106Y-104188388D01*
X66543588Y-104188644D01*
X66527865Y-104198222D01*
X66511685Y-104211016D01*
X66496579Y-104225558D01*
X66484074Y-104240381D01*
X66475700Y-104254019D01*
X66468150Y-104273514D01*
X66461169Y-104305247D01*
X66459773Y-104338490D01*
X66316981Y-104338490D01*
X66316948Y-104335755D01*
X66317401Y-104312501D01*
X66318584Y-104290757D01*
X66320493Y-104272026D01*
X66323126Y-104257812D01*
X66326152Y-104247574D01*
X66335023Y-104224329D01*
X66346395Y-104200478D01*
X66359135Y-104178284D01*
X66372110Y-104160011D01*
X66398028Y-104132840D01*
X66429963Y-104108119D01*
X66467004Y-104086979D01*
X66509160Y-104069413D01*
X66556442Y-104055415D01*
X66561757Y-104054166D01*
X66567456Y-104053012D01*
X66573677Y-104052031D01*
X66580939Y-104051203D01*
X66589764Y-104050512D01*
X66600673Y-104049938D01*
X66614186Y-104049465D01*
X66630824Y-104049074D01*
X66651108Y-104048747D01*
X66675559Y-104048465D01*
X66704699Y-104048212D01*
X66739047Y-104047969D01*
X66779125Y-104047718D01*
X66975243Y-104046531D01*
X66975243Y-104332536D01*
X66975243Y-104498265D01*
G37*
G36*
X60363667Y-104409184D02*
G01*
X60378044Y-104449842D01*
X60393699Y-104494002D01*
X60408683Y-104536151D01*
X60422869Y-104575937D01*
X60436128Y-104613005D01*
X60448333Y-104647002D01*
X60459357Y-104677576D01*
X60469073Y-104704373D01*
X60477353Y-104727040D01*
X60484070Y-104745223D01*
X60489097Y-104758570D01*
X60492305Y-104766727D01*
X60493568Y-104769340D01*
X60493800Y-104768843D01*
X60495801Y-104763605D01*
X60499695Y-104752983D01*
X60505350Y-104737349D01*
X60512633Y-104717078D01*
X60521409Y-104692544D01*
X60531547Y-104664119D01*
X60542913Y-104632179D01*
X60555373Y-104597095D01*
X60568795Y-104559243D01*
X60583046Y-104518996D01*
X60597991Y-104476728D01*
X60613498Y-104432812D01*
X60617768Y-104420714D01*
X60633353Y-104376557D01*
X60648450Y-104333790D01*
X60662916Y-104292822D01*
X60676604Y-104254063D01*
X60689371Y-104217923D01*
X60701072Y-104184811D01*
X60711562Y-104155137D01*
X60720696Y-104129309D01*
X60728330Y-104107738D01*
X60734318Y-104090832D01*
X60738517Y-104079002D01*
X60740781Y-104072656D01*
X60750068Y-104046875D01*
X60823219Y-104046875D01*
X60836255Y-104046898D01*
X60855590Y-104047024D01*
X60872134Y-104047246D01*
X60885022Y-104047547D01*
X60893389Y-104047909D01*
X60896370Y-104048316D01*
X60895668Y-104050448D01*
X60893043Y-104058094D01*
X60888604Y-104070919D01*
X60882487Y-104088533D01*
X60874831Y-104110541D01*
X60865772Y-104136552D01*
X60855447Y-104166173D01*
X60843994Y-104199013D01*
X60831550Y-104234677D01*
X60818251Y-104272775D01*
X60804236Y-104312914D01*
X60789641Y-104354700D01*
X60774603Y-104397743D01*
X60759260Y-104441650D01*
X60743748Y-104486027D01*
X60728206Y-104530483D01*
X60712769Y-104574626D01*
X60697576Y-104618063D01*
X60682763Y-104660401D01*
X60668468Y-104701249D01*
X60654828Y-104740213D01*
X60641980Y-104776902D01*
X60630060Y-104810923D01*
X60619207Y-104841883D01*
X60609558Y-104869391D01*
X60601249Y-104893054D01*
X60594418Y-104912479D01*
X60589202Y-104927274D01*
X60585738Y-104937047D01*
X60584163Y-104941406D01*
X60580861Y-104950000D01*
X60492492Y-104949932D01*
X60404122Y-104949864D01*
X60246975Y-104500713D01*
X60241026Y-104483708D01*
X60223357Y-104433181D01*
X60206298Y-104384363D01*
X60189961Y-104337578D01*
X60174457Y-104293147D01*
X60159899Y-104251393D01*
X60146398Y-104212638D01*
X60134068Y-104177204D01*
X60123019Y-104145413D01*
X60113364Y-104117588D01*
X60105216Y-104094050D01*
X60098686Y-104075122D01*
X60093886Y-104061126D01*
X60090928Y-104052384D01*
X60089924Y-104049218D01*
X60091066Y-104048808D01*
X60097453Y-104048186D01*
X60108695Y-104047654D01*
X60123922Y-104047240D01*
X60142267Y-104046970D01*
X60162861Y-104046875D01*
X60235701Y-104046875D01*
X60363667Y-104409184D01*
G37*
G36*
X64608876Y-104594459D02*
G01*
X64625719Y-104641389D01*
X64641772Y-104686108D01*
X64656916Y-104728283D01*
X64671030Y-104767580D01*
X64683995Y-104803666D01*
X64695690Y-104836205D01*
X64705995Y-104864865D01*
X64714791Y-104889311D01*
X64721958Y-104909210D01*
X64727374Y-104924227D01*
X64730922Y-104934029D01*
X64732479Y-104938281D01*
X64736965Y-104950000D01*
X64659863Y-104949951D01*
X64582761Y-104949902D01*
X64547077Y-104849170D01*
X64541038Y-104832156D01*
X64532624Y-104808575D01*
X64524838Y-104786894D01*
X64517972Y-104767913D01*
X64512313Y-104752430D01*
X64508152Y-104741245D01*
X64505777Y-104735156D01*
X64500161Y-104721875D01*
X64328522Y-104721875D01*
X64156884Y-104721875D01*
X64139282Y-104771093D01*
X64132959Y-104788787D01*
X64124827Y-104811574D01*
X64115967Y-104836420D01*
X64107086Y-104861347D01*
X64098889Y-104884375D01*
X64076099Y-104948437D01*
X63999090Y-104949272D01*
X63922081Y-104950108D01*
X63929807Y-104928960D01*
X63931654Y-104923854D01*
X63935522Y-104913119D01*
X63941254Y-104897184D01*
X63948727Y-104876397D01*
X63957816Y-104851106D01*
X63968395Y-104821658D01*
X63980340Y-104788400D01*
X63993526Y-104751680D01*
X64007829Y-104711846D01*
X64023122Y-104669245D01*
X64039283Y-104624225D01*
X64052464Y-104587500D01*
X64193806Y-104587500D01*
X64329464Y-104587500D01*
X64465123Y-104587500D01*
X64451619Y-104547656D01*
X64449775Y-104542236D01*
X64444876Y-104527915D01*
X64438376Y-104508988D01*
X64430568Y-104486304D01*
X64421745Y-104460714D01*
X64412200Y-104433066D01*
X64402225Y-104404212D01*
X64392115Y-104375000D01*
X64385772Y-104356684D01*
X64376143Y-104328869D01*
X64367041Y-104302566D01*
X64358719Y-104278506D01*
X64351430Y-104257423D01*
X64345429Y-104240047D01*
X64340967Y-104227113D01*
X64338299Y-104219352D01*
X64337352Y-104216616D01*
X64333663Y-104206586D01*
X64330818Y-104199810D01*
X64329368Y-104197632D01*
X64329285Y-104197797D01*
X64327706Y-104202020D01*
X64324309Y-104211548D01*
X64319271Y-104225878D01*
X64312765Y-104244508D01*
X64304968Y-104266933D01*
X64296053Y-104292651D01*
X64286197Y-104321159D01*
X64275573Y-104351953D01*
X64264358Y-104384530D01*
X64262471Y-104390015D01*
X64251247Y-104422627D01*
X64240587Y-104453570D01*
X64230672Y-104482314D01*
X64221688Y-104508329D01*
X64213817Y-104531085D01*
X64207243Y-104550050D01*
X64202148Y-104564696D01*
X64198718Y-104574491D01*
X64197134Y-104578906D01*
X64193806Y-104587500D01*
X64052464Y-104587500D01*
X64056185Y-104577133D01*
X64073704Y-104528317D01*
X64091715Y-104478125D01*
X64245898Y-104048437D01*
X64329453Y-104048437D01*
X64413007Y-104048437D01*
X64570500Y-104487500D01*
X64573301Y-104495307D01*
X64591363Y-104545654D01*
X64606379Y-104587500D01*
X64608876Y-104594459D01*
G37*
G36*
X66772093Y-100271705D02*
G01*
X66772093Y-100950000D01*
X66656454Y-100950000D01*
X66540815Y-100950000D01*
X66540815Y-100704687D01*
X66540815Y-100459375D01*
X66386890Y-100459372D01*
X66356674Y-100459313D01*
X66325573Y-100459131D01*
X66295998Y-100458841D01*
X66268738Y-100458455D01*
X66244579Y-100457987D01*
X66224309Y-100457449D01*
X66208715Y-100456855D01*
X66198585Y-100456218D01*
X66191302Y-100455513D01*
X66133403Y-100447089D01*
X66079424Y-100434067D01*
X66029477Y-100416538D01*
X65983674Y-100394594D01*
X65942130Y-100368324D01*
X65904956Y-100337822D01*
X65872265Y-100303177D01*
X65844171Y-100264481D01*
X65820786Y-100221826D01*
X65802223Y-100175301D01*
X65788595Y-100125000D01*
X65787864Y-100121254D01*
X65785491Y-100103388D01*
X65783824Y-100081175D01*
X65782861Y-100056094D01*
X65782603Y-100029626D01*
X65782850Y-100015064D01*
X65998884Y-100015064D01*
X65999453Y-100042036D01*
X66001810Y-100067399D01*
X66005952Y-100089062D01*
X66011569Y-100107406D01*
X66026907Y-100142167D01*
X66047271Y-100173793D01*
X66072193Y-100201867D01*
X66101206Y-100225969D01*
X66133842Y-100245680D01*
X66169633Y-100260580D01*
X66208111Y-100270251D01*
X66209632Y-100270508D01*
X66217621Y-100271610D01*
X66227276Y-100272527D01*
X66239169Y-100273273D01*
X66253875Y-100273863D01*
X66271966Y-100274312D01*
X66294016Y-100274635D01*
X66320596Y-100274848D01*
X66352281Y-100274964D01*
X66389643Y-100275000D01*
X66543940Y-100275000D01*
X66543940Y-100025000D01*
X66543940Y-99775000D01*
X66393140Y-99775012D01*
X66374962Y-99775022D01*
X66338560Y-99775118D01*
X66307506Y-99775352D01*
X66281176Y-99775767D01*
X66258947Y-99776407D01*
X66240194Y-99777315D01*
X66224295Y-99778534D01*
X66210625Y-99780108D01*
X66198561Y-99782079D01*
X66187480Y-99784493D01*
X66176757Y-99787390D01*
X66165769Y-99790816D01*
X66147033Y-99797783D01*
X66116012Y-99813022D01*
X66087243Y-99831736D01*
X66062044Y-99853020D01*
X66041732Y-99875969D01*
X66035631Y-99884521D01*
X66023460Y-99904744D01*
X66013939Y-99926380D01*
X66005928Y-99951842D01*
X66003109Y-99964666D01*
X66000103Y-99988577D01*
X65998884Y-100015064D01*
X65782850Y-100015064D01*
X65783050Y-100003248D01*
X65784201Y-99978441D01*
X65786056Y-99956684D01*
X65788615Y-99939456D01*
X65790344Y-99931204D01*
X65803482Y-99883036D01*
X65821110Y-99838975D01*
X65843463Y-99798587D01*
X65870775Y-99761437D01*
X65903282Y-99727087D01*
X65930711Y-99703590D01*
X65972134Y-99675103D01*
X66018302Y-99650584D01*
X66069140Y-99630067D01*
X66124572Y-99613586D01*
X66184521Y-99601175D01*
X66185973Y-99600937D01*
X66192370Y-99600001D01*
X66199468Y-99599175D01*
X66207694Y-99598451D01*
X66217474Y-99597818D01*
X66229237Y-99597269D01*
X66243408Y-99596793D01*
X66260414Y-99596383D01*
X66280683Y-99596028D01*
X66304642Y-99595719D01*
X66332716Y-99595448D01*
X66365334Y-99595206D01*
X66402922Y-99594982D01*
X66445907Y-99594769D01*
X66494715Y-99594557D01*
X66772093Y-99593410D01*
X66772093Y-100025000D01*
X66772093Y-100271705D01*
G37*
G36*
X68698536Y-104035738D02*
G01*
X68724699Y-104037452D01*
X68748356Y-104039955D01*
X68767651Y-104043176D01*
X68777757Y-104045487D01*
X68823461Y-104059553D01*
X68865613Y-104078687D01*
X68904098Y-104102753D01*
X68938803Y-104131615D01*
X68969616Y-104165134D01*
X68996423Y-104203175D01*
X69019111Y-104245600D01*
X69037565Y-104292274D01*
X69051674Y-104343058D01*
X69061324Y-104397816D01*
X69063262Y-104416917D01*
X69064823Y-104442445D01*
X69065750Y-104470826D01*
X69066029Y-104500289D01*
X69065645Y-104529065D01*
X69064582Y-104555380D01*
X69062827Y-104577466D01*
X69057146Y-104617615D01*
X69045389Y-104670030D01*
X69029227Y-104718883D01*
X69008825Y-104763940D01*
X68984348Y-104804966D01*
X68955959Y-104841727D01*
X68923825Y-104873990D01*
X68888109Y-104901520D01*
X68848976Y-104924084D01*
X68806592Y-104941447D01*
X68789220Y-104946652D01*
X68766363Y-104952363D01*
X68743046Y-104957221D01*
X68722333Y-104960530D01*
X68719137Y-104960859D01*
X68705710Y-104961503D01*
X68688030Y-104961631D01*
X68667584Y-104961302D01*
X68645859Y-104960572D01*
X68624342Y-104959501D01*
X68604521Y-104958146D01*
X68587881Y-104956565D01*
X68575910Y-104954817D01*
X68572806Y-104954187D01*
X68528976Y-104942175D01*
X68488472Y-104925074D01*
X68451560Y-104903069D01*
X68418503Y-104876341D01*
X68389570Y-104845075D01*
X68365024Y-104809452D01*
X68358178Y-104797141D01*
X68343570Y-104765897D01*
X68330841Y-104731848D01*
X68320818Y-104697358D01*
X68314330Y-104664790D01*
X68312182Y-104649893D01*
X68392590Y-104650727D01*
X68472999Y-104651562D01*
X68480610Y-104677928D01*
X68481081Y-104679527D01*
X68486723Y-104695983D01*
X68493927Y-104713835D01*
X68501255Y-104729490D01*
X68512755Y-104748353D01*
X68528795Y-104768805D01*
X68547102Y-104787714D01*
X68566250Y-104803624D01*
X68584816Y-104815073D01*
X68606932Y-104823998D01*
X68638445Y-104831473D01*
X68671700Y-104834204D01*
X68705387Y-104832198D01*
X68738196Y-104825465D01*
X68768816Y-104814010D01*
X68776485Y-104810060D01*
X68800348Y-104793844D01*
X68822615Y-104772946D01*
X68842136Y-104748559D01*
X68857760Y-104721875D01*
X68858830Y-104719645D01*
X68871160Y-104690136D01*
X68880947Y-104658497D01*
X68888327Y-104623962D01*
X68893432Y-104585764D01*
X68896396Y-104543136D01*
X68897355Y-104495312D01*
X68896206Y-104444868D01*
X68892567Y-104398344D01*
X68886339Y-104356781D01*
X68877421Y-104319765D01*
X68865713Y-104286885D01*
X68851115Y-104257728D01*
X68833528Y-104231882D01*
X68828237Y-104225458D01*
X68804751Y-104202940D01*
X68777480Y-104185355D01*
X68746518Y-104172745D01*
X68711957Y-104165149D01*
X68673890Y-104162608D01*
X68643764Y-104164106D01*
X68612141Y-104169858D01*
X68583925Y-104180184D01*
X68558390Y-104195362D01*
X68534810Y-104215669D01*
X68522400Y-104229039D01*
X68510424Y-104244613D01*
X68500169Y-104261675D01*
X68491025Y-104281406D01*
X68482378Y-104304986D01*
X68473617Y-104333593D01*
X68473255Y-104334116D01*
X68470242Y-104335262D01*
X68463786Y-104336139D01*
X68453325Y-104336775D01*
X68438297Y-104337195D01*
X68418143Y-104337428D01*
X68392301Y-104337500D01*
X68312103Y-104337500D01*
X68314154Y-104322039D01*
X68315196Y-104314839D01*
X68324837Y-104272891D01*
X68340028Y-104233049D01*
X68360358Y-104195704D01*
X68385417Y-104161250D01*
X68414794Y-104130079D01*
X68448078Y-104102585D01*
X68484858Y-104079159D01*
X68524724Y-104060195D01*
X68567264Y-104046085D01*
X68612067Y-104037223D01*
X68623567Y-104036038D01*
X68646115Y-104034960D01*
X68671723Y-104034884D01*
X68698536Y-104035738D01*
G37*
G36*
X62444450Y-101777070D02*
G01*
X62472469Y-101778125D01*
X62498038Y-101779890D01*
X62519676Y-101782363D01*
X62542991Y-101786198D01*
X62603663Y-101800213D01*
X62661166Y-101819606D01*
X62715560Y-101844408D01*
X62766904Y-101874647D01*
X62815259Y-101910355D01*
X62860684Y-101951560D01*
X62877281Y-101968835D01*
X62916368Y-102015498D01*
X62952082Y-102067007D01*
X62984241Y-102122953D01*
X63012664Y-102182930D01*
X63037168Y-102246530D01*
X63057571Y-102313345D01*
X63073692Y-102382967D01*
X63085348Y-102454988D01*
X63090287Y-102500199D01*
X63093971Y-102551407D01*
X63095707Y-102602088D01*
X63095478Y-102650895D01*
X63093265Y-102696482D01*
X63089052Y-102737500D01*
X63088215Y-102743469D01*
X63077052Y-102803426D01*
X63061500Y-102859206D01*
X63041654Y-102910710D01*
X63017608Y-102957837D01*
X62989457Y-103000489D01*
X62957295Y-103038564D01*
X62921216Y-103071962D01*
X62881315Y-103100585D01*
X62837685Y-103124331D01*
X62790422Y-103143101D01*
X62739620Y-103156795D01*
X62685373Y-103165312D01*
X62683397Y-103165513D01*
X62662152Y-103167032D01*
X62636929Y-103167940D01*
X62609753Y-103168236D01*
X62582647Y-103167918D01*
X62557637Y-103166986D01*
X62536747Y-103165436D01*
X62485807Y-103158395D01*
X62429064Y-103145642D01*
X62375976Y-103127986D01*
X62326273Y-103105301D01*
X62279686Y-103077460D01*
X62235944Y-103044337D01*
X62194777Y-103005807D01*
X62171563Y-102980669D01*
X62147208Y-102950875D01*
X62125227Y-102919576D01*
X62104539Y-102885210D01*
X62084060Y-102846217D01*
X62083727Y-102845545D01*
X62069332Y-102815256D01*
X62057338Y-102787033D01*
X62046651Y-102758125D01*
X62036176Y-102725781D01*
X62028266Y-102700000D01*
X62147559Y-102700022D01*
X62266852Y-102700045D01*
X62272628Y-102717991D01*
X62276809Y-102729788D01*
X62286095Y-102751957D01*
X62297478Y-102775728D01*
X62309925Y-102798991D01*
X62322402Y-102819638D01*
X62344285Y-102850289D01*
X62374940Y-102885145D01*
X62408239Y-102914775D01*
X62443886Y-102938923D01*
X62481581Y-102957328D01*
X62497606Y-102963086D01*
X62533511Y-102971982D01*
X62571155Y-102976467D01*
X62609270Y-102976577D01*
X62646591Y-102972345D01*
X62681850Y-102963807D01*
X62713781Y-102950997D01*
X62743495Y-102933101D01*
X62770816Y-102909725D01*
X62794178Y-102881626D01*
X62813591Y-102848781D01*
X62829065Y-102811164D01*
X62840609Y-102768751D01*
X62848234Y-102721519D01*
X62851948Y-102669443D01*
X62851763Y-102612500D01*
X62848547Y-102553754D01*
X62841372Y-102481453D01*
X62830843Y-102412440D01*
X62817059Y-102347170D01*
X62800117Y-102286094D01*
X62780117Y-102229669D01*
X62757159Y-102178347D01*
X62756833Y-102177698D01*
X62737075Y-102141435D01*
X62716431Y-102109854D01*
X62693793Y-102081418D01*
X62668055Y-102054590D01*
X62657570Y-102044714D01*
X62641006Y-102030224D01*
X62625605Y-102018579D01*
X62609596Y-102008489D01*
X62591207Y-101998664D01*
X62583636Y-101995039D01*
X62549404Y-101982230D01*
X62512219Y-101973358D01*
X62473529Y-101968545D01*
X62434785Y-101967911D01*
X62397437Y-101971578D01*
X62362933Y-101979666D01*
X62348629Y-101984756D01*
X62316636Y-102000677D01*
X62288065Y-102021623D01*
X62263119Y-102047325D01*
X62241998Y-102077515D01*
X62224903Y-102111924D01*
X62212036Y-102150283D01*
X62203598Y-102192325D01*
X62198566Y-102228125D01*
X62079973Y-102228125D01*
X61961380Y-102228125D01*
X61963489Y-102194531D01*
X61967186Y-102153397D01*
X61973401Y-102114398D01*
X61982400Y-102078188D01*
X61994584Y-102043162D01*
X62010357Y-102007714D01*
X62026890Y-101976499D01*
X62046516Y-101945919D01*
X62068643Y-101918099D01*
X62094602Y-101891199D01*
X62094757Y-101891050D01*
X62132340Y-101859489D01*
X62173823Y-101832807D01*
X62219190Y-101811012D01*
X62268424Y-101794111D01*
X62321509Y-101782112D01*
X62337418Y-101779988D01*
X62360462Y-101778184D01*
X62386968Y-101777098D01*
X62415456Y-101776727D01*
X62444450Y-101777070D01*
G37*
G36*
X68141012Y-104498433D02*
G01*
X68141012Y-104690256D01*
X68141012Y-104950403D01*
X67935518Y-104949187D01*
X67905473Y-104949001D01*
X67867351Y-104948728D01*
X67834613Y-104948436D01*
X67806744Y-104948109D01*
X67783236Y-104947735D01*
X67763575Y-104947298D01*
X67747250Y-104946784D01*
X67733749Y-104946180D01*
X67722562Y-104945471D01*
X67713176Y-104944642D01*
X67705081Y-104943679D01*
X67697763Y-104942569D01*
X67666681Y-104936506D01*
X67624617Y-104924924D01*
X67587800Y-104910236D01*
X67556059Y-104892320D01*
X67529221Y-104871055D01*
X67507113Y-104846317D01*
X67489563Y-104817985D01*
X67476398Y-104785937D01*
X67475192Y-104782006D01*
X67470170Y-104759002D01*
X67467075Y-104732507D01*
X67466003Y-104704600D01*
X67466914Y-104680872D01*
X67620399Y-104680872D01*
X67620879Y-104709141D01*
X67623833Y-104725717D01*
X67632756Y-104750838D01*
X67646670Y-104772376D01*
X67665637Y-104790384D01*
X67689717Y-104804916D01*
X67718973Y-104816023D01*
X67753464Y-104823759D01*
X67763268Y-104825023D01*
X67777931Y-104826177D01*
X67796827Y-104827046D01*
X67820460Y-104827647D01*
X67849332Y-104827997D01*
X67883949Y-104828113D01*
X67987868Y-104828125D01*
X67987868Y-104690256D01*
X67987868Y-104552387D01*
X67876135Y-104554020D01*
X67869935Y-104554112D01*
X67837024Y-104554690D01*
X67809501Y-104555397D01*
X67786630Y-104556326D01*
X67767675Y-104557569D01*
X67751900Y-104559219D01*
X67738566Y-104561368D01*
X67726939Y-104564111D01*
X67716282Y-104567538D01*
X67705858Y-104571742D01*
X67694930Y-104576817D01*
X67673664Y-104589402D01*
X67652722Y-104607863D01*
X67636646Y-104629651D01*
X67625763Y-104654181D01*
X67620399Y-104680872D01*
X67466914Y-104680872D01*
X67467049Y-104677361D01*
X67470309Y-104652870D01*
X67471323Y-104648095D01*
X67478354Y-104624394D01*
X67488296Y-104600659D01*
X67500169Y-104578984D01*
X67512997Y-104561465D01*
X67523187Y-104550842D01*
X67549360Y-104529854D01*
X67580882Y-104511960D01*
X67617816Y-104497120D01*
X67644837Y-104488041D01*
X67618672Y-104475554D01*
X67601013Y-104466589D01*
X67568732Y-104446559D01*
X67542178Y-104424355D01*
X67521161Y-104399679D01*
X67505495Y-104372235D01*
X67494989Y-104341724D01*
X67489457Y-104307849D01*
X67489332Y-104301562D01*
X67636262Y-104301562D01*
X67636262Y-104301716D01*
X67636411Y-104317455D01*
X67637045Y-104328719D01*
X67638455Y-104337265D01*
X67640929Y-104344849D01*
X67644755Y-104353229D01*
X67646879Y-104357341D01*
X67662184Y-104379059D01*
X67682698Y-104397348D01*
X67708433Y-104412217D01*
X67739400Y-104423675D01*
X67742742Y-104424571D01*
X67749128Y-104425888D01*
X67756973Y-104426968D01*
X67766961Y-104427847D01*
X67779777Y-104428558D01*
X67796105Y-104429137D01*
X67816630Y-104429617D01*
X67842037Y-104430034D01*
X67873010Y-104430422D01*
X67987868Y-104431723D01*
X67987868Y-104298674D01*
X67987868Y-104165625D01*
X67905827Y-104165627D01*
X67904269Y-104165628D01*
X67864304Y-104165926D01*
X67829888Y-104166849D01*
X67800362Y-104168500D01*
X67775069Y-104170981D01*
X67753353Y-104174395D01*
X67734556Y-104178843D01*
X67718019Y-104184429D01*
X67703087Y-104191255D01*
X67689102Y-104199423D01*
X67685113Y-104202066D01*
X67668060Y-104215643D01*
X67655072Y-104230945D01*
X67644357Y-104250000D01*
X67641093Y-104257426D01*
X67638562Y-104265299D01*
X67637099Y-104274097D01*
X67636425Y-104285593D01*
X67636262Y-104301562D01*
X67489332Y-104301562D01*
X67488709Y-104270312D01*
X67489301Y-104259469D01*
X67493539Y-104226500D01*
X67501618Y-104197512D01*
X67514006Y-104171456D01*
X67531166Y-104147283D01*
X67553563Y-104123942D01*
X67571025Y-104109486D01*
X67599493Y-104091484D01*
X67632576Y-104076339D01*
X67670667Y-104063878D01*
X67714159Y-104053931D01*
X67718529Y-104053201D01*
X67726049Y-104052280D01*
X67735563Y-104051478D01*
X67747543Y-104050783D01*
X67762463Y-104050181D01*
X67780796Y-104049659D01*
X67803014Y-104049206D01*
X67829592Y-104048807D01*
X67861001Y-104048451D01*
X67897714Y-104048124D01*
X67940206Y-104047814D01*
X68141012Y-104046464D01*
X68141012Y-104298674D01*
X68141012Y-104498433D01*
G37*
G36*
X64212239Y-102532879D02*
G01*
X64221331Y-102594994D01*
X64230155Y-102655242D01*
X64238667Y-102713333D01*
X64246826Y-102768981D01*
X64254590Y-102821898D01*
X64261915Y-102871795D01*
X64268759Y-102918385D01*
X64275081Y-102961380D01*
X64280838Y-103000493D01*
X64285988Y-103035436D01*
X64290488Y-103065921D01*
X64294296Y-103091660D01*
X64297370Y-103112366D01*
X64299667Y-103127751D01*
X64301145Y-103137527D01*
X64301762Y-103141406D01*
X64303536Y-103150000D01*
X64189271Y-103150000D01*
X64075006Y-103150000D01*
X64073426Y-103142968D01*
X64073355Y-103142613D01*
X64072490Y-103137307D01*
X64070838Y-103126567D01*
X64068483Y-103110973D01*
X64065510Y-103091107D01*
X64062005Y-103067549D01*
X64058053Y-103040880D01*
X64053739Y-103011681D01*
X64049148Y-102980532D01*
X64044365Y-102948016D01*
X64039475Y-102914711D01*
X64034564Y-102881200D01*
X64029717Y-102848063D01*
X64025018Y-102815882D01*
X64020554Y-102785236D01*
X64016408Y-102756707D01*
X64012667Y-102730875D01*
X64009415Y-102708322D01*
X64006737Y-102689628D01*
X64004719Y-102675374D01*
X64003446Y-102666141D01*
X64003003Y-102662510D01*
X64000132Y-102661716D01*
X63991106Y-102661008D01*
X63976016Y-102660424D01*
X63954955Y-102659965D01*
X63928018Y-102659635D01*
X63895298Y-102659433D01*
X63856891Y-102659364D01*
X63834299Y-102659324D01*
X63803551Y-102659151D01*
X63774076Y-102658856D01*
X63746705Y-102658453D01*
X63722265Y-102657956D01*
X63701588Y-102657383D01*
X63685502Y-102656746D01*
X63674837Y-102656062D01*
X63633881Y-102650954D01*
X63577893Y-102639311D01*
X63524758Y-102622697D01*
X63474775Y-102601304D01*
X63428240Y-102575329D01*
X63385451Y-102544964D01*
X63346706Y-102510405D01*
X63312302Y-102471845D01*
X63282537Y-102429480D01*
X63257709Y-102383504D01*
X63246615Y-102357950D01*
X63230429Y-102311863D01*
X63218443Y-102264800D01*
X63210698Y-102217522D01*
X63207234Y-102170790D01*
X63207319Y-102166320D01*
X63420724Y-102166320D01*
X63421872Y-102203676D01*
X63427772Y-102241582D01*
X63438209Y-102278904D01*
X63452971Y-102314507D01*
X63471843Y-102347255D01*
X63476366Y-102353582D01*
X63488672Y-102368725D01*
X63503406Y-102384914D01*
X63519065Y-102400607D01*
X63534142Y-102414265D01*
X63547135Y-102424347D01*
X63548013Y-102424941D01*
X63573577Y-102440017D01*
X63602725Y-102453635D01*
X63632891Y-102464593D01*
X63660773Y-102473219D01*
X63819655Y-102474293D01*
X63848917Y-102474486D01*
X63879807Y-102474664D01*
X63905350Y-102474764D01*
X63926046Y-102474771D01*
X63942392Y-102474669D01*
X63954889Y-102474445D01*
X63964036Y-102474084D01*
X63970332Y-102473572D01*
X63974276Y-102472893D01*
X63976368Y-102472033D01*
X63977107Y-102470979D01*
X63976992Y-102469714D01*
X63976875Y-102469154D01*
X63975937Y-102463449D01*
X63974200Y-102452184D01*
X63971735Y-102435839D01*
X63968613Y-102414894D01*
X63964906Y-102389831D01*
X63960683Y-102361128D01*
X63956016Y-102329266D01*
X63950975Y-102294726D01*
X63945632Y-102257988D01*
X63940058Y-102219531D01*
X63904670Y-101975000D01*
X63762034Y-101975000D01*
X63756012Y-101975001D01*
X63718423Y-101975073D01*
X63686380Y-101975295D01*
X63659266Y-101975715D01*
X63636466Y-101976380D01*
X63617365Y-101977339D01*
X63601348Y-101978641D01*
X63587801Y-101980334D01*
X63576107Y-101982467D01*
X63565651Y-101985086D01*
X63555819Y-101988242D01*
X63545996Y-101991983D01*
X63528100Y-102000168D01*
X63499826Y-102017455D01*
X63474989Y-102038311D01*
X63454284Y-102062010D01*
X63438405Y-102087829D01*
X63428047Y-102115042D01*
X63424543Y-102130651D01*
X63420724Y-102166320D01*
X63207319Y-102166320D01*
X63208094Y-102125364D01*
X63213319Y-102082005D01*
X63222951Y-102041473D01*
X63237031Y-102004529D01*
X63250006Y-101978906D01*
X63263650Y-101956889D01*
X63279485Y-101936341D01*
X63299114Y-101914949D01*
X63313175Y-101901291D01*
X63341920Y-101877672D01*
X63373514Y-101857302D01*
X63409048Y-101839517D01*
X63449612Y-101823656D01*
X63450223Y-101823444D01*
X63464580Y-101818574D01*
X63478251Y-101814264D01*
X63491698Y-101810481D01*
X63505384Y-101807190D01*
X63519772Y-101804358D01*
X63535324Y-101801951D01*
X63552503Y-101799934D01*
X63571770Y-101798273D01*
X63593588Y-101796936D01*
X63618420Y-101795886D01*
X63646728Y-101795092D01*
X63678974Y-101794518D01*
X63715621Y-101794131D01*
X63757132Y-101793896D01*
X63803968Y-101793781D01*
X63856593Y-101793750D01*
X64102896Y-101793750D01*
X64104539Y-101800781D01*
X64105130Y-101804420D01*
X64106584Y-101813970D01*
X64108858Y-101829134D01*
X64111909Y-101849625D01*
X64115694Y-101875157D01*
X64120173Y-101905443D01*
X64125302Y-101940197D01*
X64131040Y-101979130D01*
X64137343Y-102021957D01*
X64144171Y-102068390D01*
X64151480Y-102118143D01*
X64159228Y-102170929D01*
X64167374Y-102226461D01*
X64175875Y-102284452D01*
X64184689Y-102344616D01*
X64193773Y-102406665D01*
X64203085Y-102470312D01*
X64203183Y-102470979D01*
X64212239Y-102532879D01*
G37*
G36*
X63220033Y-100409192D02*
G01*
X63239032Y-100462236D01*
X63257632Y-100514180D01*
X63275721Y-100564705D01*
X63293183Y-100613493D01*
X63309906Y-100660224D01*
X63325773Y-100704580D01*
X63340672Y-100746242D01*
X63354487Y-100784891D01*
X63367105Y-100820209D01*
X63378411Y-100851875D01*
X63388292Y-100879573D01*
X63396632Y-100902981D01*
X63403317Y-100921783D01*
X63408234Y-100935659D01*
X63411268Y-100944289D01*
X63412305Y-100947356D01*
X63412305Y-100947363D01*
X63409226Y-100947966D01*
X63400598Y-100948520D01*
X63387114Y-100949010D01*
X63369467Y-100949419D01*
X63348352Y-100949731D01*
X63324461Y-100949930D01*
X63298487Y-100950000D01*
X63184669Y-100950000D01*
X63179655Y-100936718D01*
X63179120Y-100935277D01*
X63176364Y-100927711D01*
X63171805Y-100915096D01*
X63165660Y-100898036D01*
X63158147Y-100877134D01*
X63149481Y-100852995D01*
X63139881Y-100826222D01*
X63129562Y-100797418D01*
X63118742Y-100767187D01*
X63062842Y-100610937D01*
X62803145Y-100610138D01*
X62779496Y-100610068D01*
X62740842Y-100609969D01*
X62704306Y-100609894D01*
X62670346Y-100609842D01*
X62639422Y-100609814D01*
X62611993Y-100609809D01*
X62588519Y-100609828D01*
X62569458Y-100609870D01*
X62555271Y-100609936D01*
X62546416Y-100610025D01*
X62543352Y-100610138D01*
X62542694Y-100612063D01*
X62540126Y-100619363D01*
X62535794Y-100631612D01*
X62529882Y-100648285D01*
X62522577Y-100668860D01*
X62514065Y-100692811D01*
X62504531Y-100719615D01*
X62494163Y-100748748D01*
X62483145Y-100779687D01*
X62423035Y-100948437D01*
X62307871Y-100949257D01*
X62304061Y-100949284D01*
X62273870Y-100949450D01*
X62249375Y-100949484D01*
X62230080Y-100949371D01*
X62215488Y-100949098D01*
X62205102Y-100948651D01*
X62198425Y-100948017D01*
X62194961Y-100947182D01*
X62194212Y-100946132D01*
X62194485Y-100945383D01*
X62196578Y-100939572D01*
X62200646Y-100928260D01*
X62206592Y-100911711D01*
X62214322Y-100890190D01*
X62223742Y-100863961D01*
X62234755Y-100833288D01*
X62247268Y-100798435D01*
X62261186Y-100759666D01*
X62276414Y-100717245D01*
X62292857Y-100671437D01*
X62310420Y-100622506D01*
X62329008Y-100570716D01*
X62348527Y-100516330D01*
X62368882Y-100459615D01*
X62389021Y-100403496D01*
X62602830Y-100403496D01*
X62602909Y-100403577D01*
X62606908Y-100404069D01*
X62616609Y-100404527D01*
X62631538Y-100404945D01*
X62651223Y-100405317D01*
X62675191Y-100405635D01*
X62702967Y-100405894D01*
X62734079Y-100406087D01*
X62768054Y-100406208D01*
X62804418Y-100406250D01*
X62816151Y-100406246D01*
X62850439Y-100406187D01*
X62882645Y-100406065D01*
X62912248Y-100405884D01*
X62938726Y-100405650D01*
X62961558Y-100405370D01*
X62980224Y-100405049D01*
X62994202Y-100404694D01*
X63002971Y-100404311D01*
X63006010Y-100403906D01*
X63005943Y-100403455D01*
X63004440Y-100398219D01*
X63001093Y-100387797D01*
X62996069Y-100372671D01*
X62989538Y-100353324D01*
X62981668Y-100330237D01*
X62972629Y-100303893D01*
X62962589Y-100274774D01*
X62951718Y-100243364D01*
X62940184Y-100210144D01*
X62928156Y-100175596D01*
X62915802Y-100140203D01*
X62903293Y-100104447D01*
X62890797Y-100068811D01*
X62878482Y-100033777D01*
X62866518Y-99999828D01*
X62855073Y-99967445D01*
X62844317Y-99937111D01*
X62834418Y-99909308D01*
X62825545Y-99884519D01*
X62817868Y-99863227D01*
X62811554Y-99845913D01*
X62806773Y-99833059D01*
X62803694Y-99825149D01*
X62802486Y-99822665D01*
X62802472Y-99822690D01*
X62801053Y-99826417D01*
X62797796Y-99835523D01*
X62792872Y-99849516D01*
X62786448Y-99867907D01*
X62778693Y-99890204D01*
X62769776Y-99915917D01*
X62759866Y-99944555D01*
X62749131Y-99975628D01*
X62737740Y-100008644D01*
X62725861Y-100043114D01*
X62713664Y-100078546D01*
X62701316Y-100114450D01*
X62688987Y-100150335D01*
X62676845Y-100185711D01*
X62665060Y-100220086D01*
X62653798Y-100252971D01*
X62643230Y-100283874D01*
X62633524Y-100312305D01*
X62624848Y-100337773D01*
X62617371Y-100359787D01*
X62611263Y-100377857D01*
X62606690Y-100391493D01*
X62603823Y-100400202D01*
X62602830Y-100403496D01*
X62389021Y-100403496D01*
X62389977Y-100400832D01*
X62411719Y-100340247D01*
X62434012Y-100278125D01*
X62443623Y-100251343D01*
X62465735Y-100189731D01*
X62487277Y-100129723D01*
X62508152Y-100071586D01*
X62528264Y-100015588D01*
X62547515Y-99961995D01*
X62565811Y-99911076D01*
X62583055Y-99863098D01*
X62599151Y-99818328D01*
X62614003Y-99777033D01*
X62627514Y-99739482D01*
X62639588Y-99705942D01*
X62650129Y-99676680D01*
X62659042Y-99651964D01*
X62666229Y-99632061D01*
X62671594Y-99617238D01*
X62675042Y-99607764D01*
X62676476Y-99603906D01*
X62680646Y-99593749D01*
X62803834Y-99593749D01*
X62927021Y-99593750D01*
X62932015Y-99607031D01*
X62932522Y-99608392D01*
X62935479Y-99616473D01*
X62940324Y-99629831D01*
X62946941Y-99648147D01*
X62955218Y-99671103D01*
X62965039Y-99698380D01*
X62976291Y-99729658D01*
X62988859Y-99764620D01*
X63002629Y-99802945D01*
X63017487Y-99844316D01*
X63033318Y-99888414D01*
X63050008Y-99934918D01*
X63067444Y-99983512D01*
X63085510Y-100033875D01*
X63104092Y-100085690D01*
X63123077Y-100138637D01*
X63142349Y-100192397D01*
X63161796Y-100246651D01*
X63181301Y-100301081D01*
X63200752Y-100355368D01*
X63218139Y-100403906D01*
X63220033Y-100409192D01*
G37*
G36*
X61728284Y-102470312D02*
G01*
X61729817Y-102480749D01*
X61739206Y-102544680D01*
X61748346Y-102606931D01*
X61757197Y-102667221D01*
X61765717Y-102725266D01*
X61773864Y-102780787D01*
X61781598Y-102833502D01*
X61788877Y-102883129D01*
X61795660Y-102929387D01*
X61801229Y-102967378D01*
X61801906Y-102971994D01*
X61807573Y-103010669D01*
X61812621Y-103045131D01*
X61817007Y-103075097D01*
X61820691Y-103100287D01*
X61823632Y-103120420D01*
X61825788Y-103135213D01*
X61827118Y-103144386D01*
X61827580Y-103147656D01*
X61827305Y-103147804D01*
X61822510Y-103148256D01*
X61812162Y-103148655D01*
X61796794Y-103149000D01*
X61776941Y-103149294D01*
X61753138Y-103149536D01*
X61725918Y-103149728D01*
X61695816Y-103149870D01*
X61663368Y-103149964D01*
X61629106Y-103150010D01*
X61593565Y-103150010D01*
X61557281Y-103149964D01*
X61520786Y-103149873D01*
X61484617Y-103149738D01*
X61449306Y-103149559D01*
X61415390Y-103149339D01*
X61383401Y-103149078D01*
X61353874Y-103148776D01*
X61327345Y-103148435D01*
X61304347Y-103148055D01*
X61285414Y-103147638D01*
X61271082Y-103147184D01*
X61261884Y-103146694D01*
X61248708Y-103145586D01*
X61185191Y-103137995D01*
X61126856Y-103127027D01*
X61073584Y-103112596D01*
X61025254Y-103094615D01*
X60981748Y-103072996D01*
X60942944Y-103047652D01*
X60908725Y-103018497D01*
X60878968Y-102985443D01*
X60853556Y-102948404D01*
X60832368Y-102907291D01*
X60815285Y-102862019D01*
X60802186Y-102812500D01*
X60798535Y-102790754D01*
X60796017Y-102765170D01*
X60794737Y-102737807D01*
X60794712Y-102720635D01*
X61019745Y-102720635D01*
X61021339Y-102754315D01*
X61024792Y-102776354D01*
X61033239Y-102808787D01*
X61045558Y-102837439D01*
X61062229Y-102863335D01*
X61083729Y-102887500D01*
X61103067Y-102905041D01*
X61123023Y-102919562D01*
X61144897Y-102931576D01*
X61170854Y-102942447D01*
X61192562Y-102949828D01*
X61218456Y-102956569D01*
X61246706Y-102961652D01*
X61279230Y-102965486D01*
X61286698Y-102965987D01*
X61299689Y-102966521D01*
X61316764Y-102967012D01*
X61337186Y-102967457D01*
X61360217Y-102967849D01*
X61385117Y-102968184D01*
X61411149Y-102968458D01*
X61437576Y-102968666D01*
X61463657Y-102968803D01*
X61488656Y-102968864D01*
X61511835Y-102968845D01*
X61532454Y-102968741D01*
X61549776Y-102968547D01*
X61563063Y-102968258D01*
X61571577Y-102967870D01*
X61574579Y-102967378D01*
X61574500Y-102966742D01*
X61573705Y-102961057D01*
X61572111Y-102949919D01*
X61569795Y-102933843D01*
X61566829Y-102913342D01*
X61563290Y-102888932D01*
X61559252Y-102861128D01*
X61554789Y-102830445D01*
X61549976Y-102797397D01*
X61544888Y-102762500D01*
X61542727Y-102747689D01*
X61537745Y-102713504D01*
X61533070Y-102681384D01*
X61528776Y-102651844D01*
X61524937Y-102625399D01*
X61521630Y-102602564D01*
X61518927Y-102583854D01*
X61516904Y-102569783D01*
X61515636Y-102560867D01*
X61515197Y-102557621D01*
X61514360Y-102557343D01*
X61508377Y-102556893D01*
X61497241Y-102556545D01*
X61481675Y-102556295D01*
X61462399Y-102556138D01*
X61440134Y-102556068D01*
X61415602Y-102556082D01*
X61389524Y-102556173D01*
X61362621Y-102556338D01*
X61335613Y-102556572D01*
X61309223Y-102556869D01*
X61284171Y-102557224D01*
X61261178Y-102557634D01*
X61240965Y-102558092D01*
X61224254Y-102558595D01*
X61211765Y-102559137D01*
X61204221Y-102559714D01*
X61192397Y-102561333D01*
X61154215Y-102569312D01*
X61120776Y-102580989D01*
X61091758Y-102596496D01*
X61066836Y-102615966D01*
X61048342Y-102636502D01*
X61033230Y-102661780D01*
X61023703Y-102689807D01*
X61019745Y-102720635D01*
X60794712Y-102720635D01*
X60794697Y-102710247D01*
X60795899Y-102684070D01*
X60798343Y-102660857D01*
X60802032Y-102642187D01*
X60810350Y-102616631D01*
X60826660Y-102582361D01*
X60847918Y-102551805D01*
X60874175Y-102524914D01*
X60905481Y-102501638D01*
X60941886Y-102481930D01*
X60983440Y-102465740D01*
X61010447Y-102456902D01*
X60996383Y-102451256D01*
X60986931Y-102447285D01*
X60966922Y-102438092D01*
X60945146Y-102427294D01*
X60923495Y-102415873D01*
X60903861Y-102404811D01*
X60888138Y-102395090D01*
X60859917Y-102374272D01*
X60826688Y-102343128D01*
X60798207Y-102308018D01*
X60774570Y-102269109D01*
X60755874Y-102226568D01*
X60742218Y-102180560D01*
X60735418Y-102141201D01*
X60955790Y-102141201D01*
X60957186Y-102169074D01*
X60963854Y-102205367D01*
X60975920Y-102238610D01*
X60993278Y-102268627D01*
X61015821Y-102295243D01*
X61043441Y-102318282D01*
X61076030Y-102337568D01*
X61076678Y-102337888D01*
X61109959Y-102352112D01*
X61144202Y-102362150D01*
X61181713Y-102368681D01*
X61186268Y-102369101D01*
X61198239Y-102369746D01*
X61215190Y-102370333D01*
X61236335Y-102370847D01*
X61260888Y-102371274D01*
X61288061Y-102371597D01*
X61317069Y-102371803D01*
X61347125Y-102371875D01*
X61375515Y-102371866D01*
X61403937Y-102371823D01*
X61427095Y-102371724D01*
X61445523Y-102371548D01*
X61459758Y-102371274D01*
X61470333Y-102370882D01*
X61477785Y-102370350D01*
X61482649Y-102369657D01*
X61485460Y-102368783D01*
X61486754Y-102367706D01*
X61487065Y-102366406D01*
X61487059Y-102366242D01*
X61486510Y-102361544D01*
X61485136Y-102351275D01*
X61483014Y-102335980D01*
X61480222Y-102316205D01*
X61476837Y-102292496D01*
X61472939Y-102265398D01*
X61468604Y-102235458D01*
X61463911Y-102203221D01*
X61458937Y-102169233D01*
X61458217Y-102164323D01*
X61453289Y-102130714D01*
X61448652Y-102099045D01*
X61444383Y-102069848D01*
X61440558Y-102043653D01*
X61437255Y-102020990D01*
X61434552Y-102002390D01*
X61432525Y-101988382D01*
X61431253Y-101979496D01*
X61430811Y-101976265D01*
X61427884Y-101975767D01*
X61419441Y-101975374D01*
X61406227Y-101975087D01*
X61388985Y-101974901D01*
X61368459Y-101974809D01*
X61345391Y-101974807D01*
X61320527Y-101974888D01*
X61294610Y-101975048D01*
X61268382Y-101975280D01*
X61242589Y-101975579D01*
X61217974Y-101975939D01*
X61195279Y-101976355D01*
X61175250Y-101976821D01*
X61158629Y-101977331D01*
X61146160Y-101977881D01*
X61138588Y-101978464D01*
X61124950Y-101980342D01*
X61086781Y-101988242D01*
X61053538Y-101999510D01*
X61024881Y-102014280D01*
X61000472Y-102032684D01*
X60992271Y-102040633D01*
X60975869Y-102061409D01*
X60964532Y-102084584D01*
X60957945Y-102110925D01*
X60955790Y-102141201D01*
X60735418Y-102141201D01*
X60733699Y-102131253D01*
X60733457Y-102129112D01*
X60731358Y-102086172D01*
X60734628Y-102045139D01*
X60743140Y-102006448D01*
X60756766Y-101970535D01*
X60775379Y-101937835D01*
X60798850Y-101908784D01*
X60806065Y-101901468D01*
X60818543Y-101889673D01*
X60830501Y-101879272D01*
X60840113Y-101871897D01*
X60864418Y-101856986D01*
X60903704Y-101838144D01*
X60947300Y-101822735D01*
X60994503Y-101811037D01*
X60996883Y-101810561D01*
X61010186Y-101807946D01*
X61022526Y-101805649D01*
X61034386Y-101803648D01*
X61046244Y-101801923D01*
X61058584Y-101800454D01*
X61071884Y-101799220D01*
X61086627Y-101798201D01*
X61103293Y-101797376D01*
X61122362Y-101796725D01*
X61144317Y-101796227D01*
X61169637Y-101795862D01*
X61198803Y-101795609D01*
X61232297Y-101795449D01*
X61270599Y-101795359D01*
X61314190Y-101795320D01*
X61363551Y-101795312D01*
X61629144Y-101795312D01*
X61713023Y-102366406D01*
X61728284Y-102470312D01*
G37*
%TO.C,TP6*%
D12*
X69700000Y-84000000D02*
G75*
G02*
X68300000Y-84000000I-700000J0D01*
G01*
X68300000Y-84000000D02*
G75*
G02*
X69700000Y-84000000I700000J0D01*
G01*
D13*
%TO.C,G\u002A\u002A\u002A*%
G36*
X78002364Y-105002364D02*
G01*
X75000000Y-105002364D01*
X71997636Y-105002364D01*
X71997636Y-102000000D01*
X71997636Y-99177777D01*
X72177778Y-99177777D01*
X72177778Y-102000000D01*
X72177778Y-104822222D01*
X75000000Y-104822222D01*
X77822223Y-104822222D01*
X77822223Y-102000000D01*
X77822223Y-99177777D01*
X75000000Y-99177777D01*
X72177778Y-99177777D01*
X71997636Y-99177777D01*
X71997636Y-98997636D01*
X75000000Y-98997636D01*
X78002364Y-98997636D01*
X78002364Y-102000000D01*
X78002364Y-105002364D01*
G37*
G36*
X72884896Y-102137132D02*
G01*
X72995197Y-102215997D01*
X73138505Y-102337376D01*
X73379010Y-102554658D01*
X73651078Y-102331718D01*
X73744352Y-102259907D01*
X73910694Y-102161796D01*
X74018435Y-102145345D01*
X74018509Y-102145373D01*
X74035155Y-102181381D01*
X73993871Y-102262331D01*
X73887284Y-102397576D01*
X73708027Y-102596470D01*
X73448729Y-102868364D01*
X73345575Y-102976091D01*
X73096733Y-103245444D01*
X72867603Y-103505725D01*
X72680020Y-103731748D01*
X72555815Y-103898330D01*
X72327896Y-104241843D01*
X72309857Y-103406146D01*
X72291818Y-102570449D01*
X72542757Y-102345271D01*
X72649852Y-102253279D01*
X72775737Y-102157315D01*
X72845848Y-102120094D01*
X72884896Y-102137132D01*
G37*
G36*
X77231732Y-102136659D02*
G01*
X77337309Y-102217311D01*
X77474419Y-102342446D01*
X77702128Y-102564798D01*
X77702128Y-103430140D01*
X77702128Y-104295481D01*
X77455032Y-103925451D01*
X77426241Y-103883851D01*
X77273361Y-103684830D01*
X77065555Y-103436023D01*
X76826436Y-103165097D01*
X76579618Y-102899722D01*
X76508724Y-102825331D01*
X76260014Y-102554313D01*
X76096316Y-102354705D01*
X76013458Y-102220083D01*
X76007272Y-102144020D01*
X76073587Y-102120094D01*
X76112628Y-102137937D01*
X76223439Y-102215835D01*
X76369886Y-102334602D01*
X76620490Y-102549110D01*
X76882269Y-102334602D01*
X76994204Y-102246604D01*
X77124100Y-102155442D01*
X77195379Y-102120094D01*
X77231732Y-102136659D01*
G37*
G36*
X73118051Y-101942335D02*
G01*
X73383675Y-102187179D01*
X73672229Y-101945588D01*
X73960784Y-101703996D01*
X74131343Y-101882022D01*
X74201644Y-101969315D01*
X74225884Y-102051244D01*
X74167761Y-102058891D01*
X74043972Y-101974567D01*
X74000823Y-101943277D01*
X73932648Y-101938686D01*
X73834781Y-101994730D01*
X73678960Y-102122893D01*
X73556081Y-102226892D01*
X73437577Y-102321369D01*
X73380997Y-102358491D01*
X73345604Y-102336126D01*
X73244924Y-102249328D01*
X73107612Y-102119211D01*
X72861977Y-101878140D01*
X72607078Y-102096325D01*
X72575461Y-102122973D01*
X72414156Y-102241378D01*
X72328517Y-102274762D01*
X72321999Y-102232940D01*
X72398054Y-102125726D01*
X72560138Y-101962936D01*
X72852427Y-101697491D01*
X73118051Y-101942335D01*
G37*
G36*
X76479245Y-101052962D02*
G01*
X77672104Y-101069267D01*
X77689860Y-101474586D01*
X77690074Y-101479549D01*
X77691999Y-101681417D01*
X77680681Y-101825145D01*
X77658506Y-101879905D01*
X77633589Y-101871575D01*
X77531627Y-101807795D01*
X77393259Y-101701747D01*
X77177122Y-101523588D01*
X76944235Y-101729271D01*
X76856707Y-101801770D01*
X76716560Y-101898489D01*
X76623809Y-101937453D01*
X76577116Y-101923555D01*
X76455577Y-101845334D01*
X76311778Y-101720742D01*
X76087286Y-101501531D01*
X75870308Y-101692040D01*
X75795655Y-101752816D01*
X75670716Y-101831856D01*
X75596451Y-101847396D01*
X75561233Y-101816653D01*
X75471129Y-101677479D01*
X75387266Y-101478538D01*
X75328483Y-101261053D01*
X75286386Y-101036658D01*
X76479245Y-101052962D01*
G37*
G36*
X74033047Y-101039285D02*
G01*
X74316097Y-101043886D01*
X74509673Y-101058269D01*
X74627303Y-101087718D01*
X74682514Y-101137518D01*
X74688830Y-101212951D01*
X74659780Y-101319301D01*
X74608889Y-101461852D01*
X74559114Y-101597462D01*
X74481442Y-101760424D01*
X74402797Y-101824474D01*
X74302397Y-101800617D01*
X74159460Y-101699860D01*
X73933320Y-101520753D01*
X73671034Y-101754416D01*
X73530052Y-101876043D01*
X73427858Y-101933499D01*
X73332935Y-101922307D01*
X73213060Y-101838618D01*
X73036011Y-101678585D01*
X72843416Y-101501023D01*
X72585656Y-101734278D01*
X72327896Y-101967534D01*
X72309794Y-101584772D01*
X72304986Y-101398772D01*
X72309255Y-101220480D01*
X72322921Y-101120627D01*
X72349065Y-101095495D01*
X72427571Y-101072749D01*
X72570773Y-101056687D01*
X72792511Y-101046372D01*
X73106625Y-101040869D01*
X73526957Y-101039243D01*
X73646998Y-101039184D01*
X74033047Y-101039285D01*
G37*
G36*
X77441899Y-101928001D02*
G01*
X77547711Y-102023811D01*
X77658963Y-102147573D01*
X77702128Y-102230233D01*
X77702127Y-102230963D01*
X77686851Y-102274373D01*
X77631504Y-102259480D01*
X77521026Y-102177523D01*
X77340359Y-102019739D01*
X77188755Y-101883354D01*
X76920028Y-102119259D01*
X76797528Y-102224023D01*
X76677427Y-102319793D01*
X76618044Y-102357723D01*
X76594974Y-102346308D01*
X76505636Y-102271714D01*
X76381088Y-102150118D01*
X76340259Y-102109346D01*
X76163506Y-101974902D01*
X76020301Y-101949028D01*
X75901258Y-102029362D01*
X75849471Y-102073416D01*
X75769295Y-102083075D01*
X75755882Y-102059141D01*
X75788569Y-101977872D01*
X75873247Y-101878810D01*
X75978716Y-101795081D01*
X76073775Y-101759810D01*
X76121264Y-101774181D01*
X76244807Y-101853193D01*
X76389465Y-101978155D01*
X76613070Y-102196501D01*
X76897370Y-101953488D01*
X77181670Y-101710476D01*
X77441899Y-101928001D01*
G37*
G36*
X75006513Y-100379153D02*
G01*
X75035153Y-100442338D01*
X75072746Y-100591855D01*
X75111648Y-100797744D01*
X75154246Y-101037587D01*
X75211756Y-101286541D01*
X75285972Y-101504246D01*
X75388417Y-101709907D01*
X75530618Y-101922728D01*
X75724098Y-102161912D01*
X75980383Y-102446662D01*
X76310998Y-102796183D01*
X76423991Y-102914728D01*
X76795613Y-103313969D01*
X77087740Y-103646168D01*
X77308254Y-103921660D01*
X77465033Y-104150776D01*
X77565959Y-104343849D01*
X77618910Y-104511212D01*
X77632175Y-104581507D01*
X77629949Y-104666036D01*
X77565302Y-104697484D01*
X77409398Y-104702127D01*
X77358378Y-104701838D01*
X77226579Y-104689363D01*
X77172096Y-104641913D01*
X77161116Y-104536997D01*
X77150868Y-104420018D01*
X77053162Y-104125362D01*
X76867380Y-103826807D01*
X76612322Y-103546557D01*
X76306792Y-103306818D01*
X75969590Y-103129794D01*
X75945659Y-103120551D01*
X75602823Y-103032238D01*
X75196074Y-102989005D01*
X74769218Y-102990854D01*
X74366062Y-103037783D01*
X74030411Y-103129794D01*
X73886474Y-103194909D01*
X73560254Y-103400914D01*
X73273583Y-103660330D01*
X73045264Y-103950952D01*
X72894097Y-104250576D01*
X72838885Y-104536997D01*
X72838330Y-104571010D01*
X72819306Y-104658846D01*
X72748002Y-104695055D01*
X72590603Y-104702127D01*
X72499525Y-104701516D01*
X72392805Y-104686769D01*
X72362939Y-104632094D01*
X72381091Y-104511212D01*
X72381331Y-104510021D01*
X72438219Y-104334044D01*
X72547360Y-104129531D01*
X72716400Y-103886393D01*
X72952981Y-103594544D01*
X73264748Y-103243895D01*
X73659346Y-102824358D01*
X73692373Y-102789822D01*
X73959026Y-102504109D01*
X74201362Y-102232907D01*
X74404310Y-101993898D01*
X74552803Y-101804765D01*
X74631772Y-101683194D01*
X74649039Y-101644373D01*
X74721176Y-101441011D01*
X74796087Y-101178679D01*
X74860069Y-100904137D01*
X74884045Y-100790717D01*
X74934263Y-100579486D01*
X74976922Y-100433327D01*
X75004729Y-100378723D01*
X75006513Y-100379153D01*
G37*
G36*
X54637050Y-102640538D02*
G01*
X54637050Y-102718375D01*
X54557585Y-102715577D01*
X54478119Y-102712779D01*
X54478119Y-102640538D01*
X54478119Y-102568297D01*
X54557585Y-102565499D01*
X54637050Y-102562702D01*
X54637050Y-102640538D01*
G37*
G36*
X54721753Y-102922279D02*
G01*
X54718923Y-102992112D01*
X54677793Y-102995083D01*
X54636663Y-102998055D01*
X54639264Y-103197359D01*
X54641866Y-103396663D01*
X54680395Y-103401479D01*
X54718923Y-103406295D01*
X54721852Y-103463009D01*
X54722605Y-103488074D01*
X54721968Y-103516637D01*
X54719656Y-103533076D01*
X54717550Y-103536022D01*
X54708168Y-103540169D01*
X54689513Y-103542858D01*
X54659093Y-103544251D01*
X54614414Y-103544507D01*
X54552981Y-103543787D01*
X54391430Y-103541145D01*
X54391430Y-103473720D01*
X54391430Y-103406295D01*
X54432367Y-103403333D01*
X54473303Y-103400371D01*
X54473303Y-103126408D01*
X54473303Y-102852446D01*
X54598943Y-102852446D01*
X54724583Y-102852446D01*
X54721753Y-102922279D01*
G37*
G36*
X53827642Y-104709044D02*
G01*
X53827428Y-104724951D01*
X53825926Y-104742802D01*
X53821759Y-104745692D01*
X53813459Y-104736462D01*
X53807469Y-104728903D01*
X53799384Y-104723892D01*
X53793471Y-104734054D01*
X53789181Y-104743171D01*
X53780555Y-104749748D01*
X53774593Y-104739940D01*
X53773442Y-104715712D01*
X53776645Y-104696229D01*
X53779076Y-104692188D01*
X53789420Y-104692188D01*
X53791050Y-104696619D01*
X53803868Y-104701820D01*
X53810515Y-104700733D01*
X53818317Y-104692188D01*
X53816686Y-104687757D01*
X53803868Y-104682556D01*
X53797222Y-104683642D01*
X53789420Y-104692188D01*
X53779076Y-104692188D01*
X53791179Y-104672074D01*
X53815908Y-104663439D01*
X53818222Y-104663885D01*
X53825419Y-104677235D01*
X53826464Y-104692188D01*
X53827642Y-104709044D01*
G37*
G36*
X54319189Y-101994573D02*
G01*
X54318512Y-102012483D01*
X54315022Y-102034675D01*
X54309557Y-102043344D01*
X54303958Y-102039732D01*
X54299924Y-102024080D01*
X54297946Y-102012874D01*
X54289390Y-102004816D01*
X54282304Y-102008447D01*
X54273819Y-102024080D01*
X54273614Y-102024855D01*
X54266438Y-102041706D01*
X54259897Y-102041416D01*
X54255469Y-102026030D01*
X54254636Y-101997592D01*
X54255709Y-101978174D01*
X54257149Y-101971103D01*
X54279215Y-101971103D01*
X54279618Y-101973761D01*
X54289570Y-101983705D01*
X54295037Y-101983091D01*
X54299924Y-101971103D01*
X54298353Y-101963151D01*
X54289570Y-101958501D01*
X54286714Y-101959809D01*
X54279215Y-101971103D01*
X54257149Y-101971103D01*
X54259443Y-101959837D01*
X54268930Y-101951868D01*
X54287884Y-101948821D01*
X54319189Y-101945802D01*
X54319189Y-101971103D01*
X54319189Y-101994573D01*
G37*
G36*
X53876109Y-104707985D02*
G01*
X53870353Y-104732180D01*
X53855166Y-104756584D01*
X53850232Y-104761343D01*
X53821282Y-104776068D01*
X53789791Y-104776258D01*
X53760915Y-104763884D01*
X53739808Y-104740920D01*
X53731627Y-104709335D01*
X53732636Y-104703009D01*
X53751915Y-104703009D01*
X53752980Y-104729121D01*
X53762932Y-104747306D01*
X53764795Y-104748710D01*
X53794572Y-104761716D01*
X53821025Y-104757967D01*
X53839968Y-104739417D01*
X53847213Y-104708016D01*
X53847213Y-104707795D01*
X53843791Y-104682458D01*
X53835654Y-104665218D01*
X53816704Y-104655412D01*
X53789660Y-104655967D01*
X53766028Y-104668795D01*
X53759382Y-104677949D01*
X53751915Y-104703009D01*
X53732636Y-104703009D01*
X53734238Y-104692970D01*
X53750081Y-104664491D01*
X53775250Y-104642935D01*
X53803868Y-104634395D01*
X53819644Y-104637181D01*
X53846936Y-104653558D01*
X53867797Y-104679236D01*
X53876054Y-104707795D01*
X53876109Y-104707985D01*
G37*
G36*
X54362698Y-102018304D02*
G01*
X54343707Y-102048598D01*
X54332496Y-102057990D01*
X54300422Y-102070664D01*
X54267481Y-102068248D01*
X54238266Y-102052733D01*
X54217368Y-102026109D01*
X54209826Y-101992356D01*
X54225042Y-101992356D01*
X54233120Y-102022328D01*
X54234067Y-102023983D01*
X54252558Y-102043448D01*
X54281455Y-102051036D01*
X54286091Y-102051316D01*
X54319207Y-102044730D01*
X54340513Y-102023523D01*
X54347938Y-101989609D01*
X54346261Y-101967905D01*
X54335853Y-101945779D01*
X54311781Y-101928763D01*
X54299390Y-101924043D01*
X54271690Y-101925195D01*
X54247770Y-101939694D01*
X54231073Y-101963447D01*
X54225042Y-101992356D01*
X54209826Y-101992356D01*
X54209382Y-101990368D01*
X54211240Y-101973448D01*
X54227041Y-101940391D01*
X54255231Y-101917225D01*
X54291267Y-101908494D01*
X54308664Y-101910584D01*
X54338093Y-101925933D01*
X54358102Y-101952190D01*
X54366900Y-101984574D01*
X54366273Y-101989609D01*
X54362698Y-102018304D01*
G37*
G36*
X56859950Y-103928839D02*
G01*
X56862638Y-104056465D01*
X56785804Y-104056465D01*
X56708971Y-104056465D01*
X56706059Y-104005897D01*
X56703148Y-103955328D01*
X56626091Y-103955328D01*
X56549033Y-103955328D01*
X56546503Y-104294329D01*
X56543972Y-104633329D01*
X56589847Y-104636270D01*
X56635723Y-104639211D01*
X56638651Y-104695925D01*
X56639405Y-104720991D01*
X56638770Y-104749547D01*
X56636462Y-104765977D01*
X56632696Y-104770043D01*
X56621355Y-104773691D01*
X56600344Y-104776038D01*
X56567267Y-104777226D01*
X56519730Y-104777395D01*
X56455338Y-104776687D01*
X56279333Y-104774061D01*
X56279333Y-104706636D01*
X56279333Y-104639211D01*
X56325208Y-104636270D01*
X56371084Y-104633329D01*
X56368553Y-104294329D01*
X56366022Y-103955328D01*
X56288965Y-103955328D01*
X56211908Y-103955328D01*
X56208983Y-104006292D01*
X56206057Y-104057257D01*
X56131925Y-104054453D01*
X56057793Y-104051649D01*
X56057793Y-103926431D01*
X56057793Y-103801213D01*
X56457528Y-103801213D01*
X56857262Y-103801213D01*
X56859950Y-103928839D01*
G37*
G36*
X55681055Y-102849163D02*
G01*
X55734015Y-102867027D01*
X55774601Y-102896909D01*
X55797725Y-102921623D01*
X55802541Y-102889442D01*
X55807357Y-102857262D01*
X55930167Y-102854566D01*
X56052977Y-102851870D01*
X56052977Y-102924399D01*
X56052977Y-102996928D01*
X56014448Y-102996928D01*
X55975920Y-102996928D01*
X55975920Y-103198622D01*
X55975920Y-103400316D01*
X56012040Y-103403305D01*
X56048161Y-103406295D01*
X56050996Y-103476357D01*
X56053830Y-103546420D01*
X55887249Y-103543782D01*
X55720668Y-103541145D01*
X55720668Y-103473720D01*
X55720668Y-103406295D01*
X55761604Y-103403333D01*
X55802541Y-103400371D01*
X55802541Y-103250674D01*
X55802403Y-103218232D01*
X55800785Y-103156622D01*
X55796729Y-103109995D01*
X55789463Y-103075405D01*
X55778218Y-103049905D01*
X55762222Y-103030551D01*
X55740703Y-103014394D01*
X55722704Y-103004998D01*
X55702036Y-102999874D01*
X55673393Y-102998466D01*
X55631198Y-103000041D01*
X55551360Y-103004475D01*
X55554140Y-102926052D01*
X55556921Y-102847630D01*
X55614317Y-102844681D01*
X55619257Y-102844468D01*
X55681055Y-102849163D01*
G37*
G36*
X55143828Y-104073977D02*
G01*
X55200148Y-104082867D01*
X55246387Y-104099873D01*
X55286874Y-104126603D01*
X55325937Y-104164663D01*
X55336509Y-104176981D01*
X55364448Y-104218285D01*
X55384109Y-104265328D01*
X55396997Y-104322495D01*
X55404614Y-104394170D01*
X55406224Y-104428000D01*
X55402155Y-104521583D01*
X55384883Y-104602301D01*
X55354652Y-104669711D01*
X55311706Y-104723371D01*
X55256288Y-104762835D01*
X55188641Y-104787661D01*
X55153180Y-104793721D01*
X55091546Y-104796902D01*
X55025665Y-104793412D01*
X54961310Y-104783917D01*
X54904255Y-104769089D01*
X54860272Y-104749596D01*
X54828972Y-104730561D01*
X54831741Y-104641541D01*
X54834509Y-104552522D01*
X54911566Y-104552522D01*
X54988624Y-104552522D01*
X54993440Y-104595866D01*
X54998256Y-104639211D01*
X55070932Y-104641989D01*
X55107358Y-104642701D01*
X55135470Y-104640558D01*
X55156519Y-104634175D01*
X55176886Y-104622372D01*
X55197599Y-104604770D01*
X55215423Y-104577770D01*
X55227184Y-104540972D01*
X55233806Y-104491315D01*
X55236211Y-104425737D01*
X55236268Y-104416881D01*
X55235642Y-104370477D01*
X55232823Y-104337401D01*
X55227117Y-104312567D01*
X55217829Y-104290887D01*
X55214045Y-104283984D01*
X55183782Y-104247874D01*
X55142489Y-104226343D01*
X55088391Y-104218400D01*
X55061539Y-104218169D01*
X55027307Y-104220943D01*
X55006595Y-104229428D01*
X54995861Y-104245556D01*
X54991562Y-104271262D01*
X54988624Y-104311718D01*
X54916383Y-104311718D01*
X54844141Y-104311718D01*
X54844141Y-104216368D01*
X54844141Y-104121019D01*
X54906750Y-104096436D01*
X54924401Y-104089788D01*
X54954646Y-104080588D01*
X54985808Y-104075087D01*
X55023995Y-104072387D01*
X55075313Y-104071587D01*
X55143828Y-104073977D01*
G37*
G36*
X56769199Y-103223822D02*
G01*
X56763690Y-103289637D01*
X56753028Y-103349327D01*
X56737831Y-103396523D01*
X56711208Y-103442906D01*
X56663309Y-103493768D01*
X56602584Y-103531938D01*
X56531165Y-103555772D01*
X56497932Y-103560952D01*
X56427081Y-103560362D01*
X56358812Y-103545248D01*
X56296235Y-103517212D01*
X56242459Y-103477857D01*
X56200594Y-103428785D01*
X56173749Y-103371598D01*
X56160367Y-103310833D01*
X56152634Y-103238015D01*
X56152122Y-103197893D01*
X56319469Y-103197893D01*
X56320711Y-103254428D01*
X56326737Y-103304671D01*
X56338733Y-103342128D01*
X56357801Y-103370052D01*
X56385041Y-103391695D01*
X56416638Y-103405747D01*
X56463541Y-103411187D01*
X56509629Y-103401485D01*
X56549986Y-103377903D01*
X56579697Y-103341704D01*
X56585984Y-103324248D01*
X56592529Y-103287369D01*
X56596477Y-103240615D01*
X56597735Y-103189349D01*
X56596213Y-103138933D01*
X56591818Y-103094732D01*
X56584460Y-103062107D01*
X56579846Y-103050682D01*
X56553376Y-103014135D01*
X56513971Y-102991853D01*
X56461660Y-102983856D01*
X56424201Y-102986470D01*
X56384623Y-103000296D01*
X56355201Y-103027085D01*
X56335095Y-103068104D01*
X56323465Y-103124618D01*
X56319469Y-103197893D01*
X56152122Y-103197893D01*
X56151689Y-103163979D01*
X56158032Y-103097463D01*
X56158672Y-103093764D01*
X56179574Y-103013666D01*
X56211640Y-102949174D01*
X56255409Y-102899827D01*
X56311422Y-102865164D01*
X56380220Y-102844724D01*
X56462344Y-102838046D01*
X56497793Y-102838591D01*
X56536492Y-102841698D01*
X56567398Y-102848533D01*
X56597194Y-102860194D01*
X56634417Y-102880070D01*
X56684373Y-102920231D01*
X56721913Y-102971646D01*
X56748362Y-103036335D01*
X56765043Y-103116319D01*
X56768935Y-103158250D01*
X56769060Y-103189349D01*
X56769199Y-103223822D01*
G37*
G36*
X54728555Y-103868638D02*
G01*
X54728555Y-103936063D01*
X54690027Y-103940880D01*
X54651498Y-103945696D01*
X54648969Y-104289486D01*
X54646440Y-104633275D01*
X54687498Y-104636243D01*
X54728555Y-104639211D01*
X54731484Y-104695925D01*
X54732237Y-104720991D01*
X54731601Y-104749553D01*
X54729288Y-104765992D01*
X54727182Y-104768938D01*
X54717800Y-104773085D01*
X54699145Y-104775775D01*
X54668725Y-104777167D01*
X54624046Y-104777423D01*
X54562613Y-104776703D01*
X54401062Y-104774061D01*
X54401062Y-104706636D01*
X54401062Y-104639211D01*
X54439591Y-104634395D01*
X54478119Y-104629579D01*
X54477948Y-104470648D01*
X54477551Y-104417942D01*
X54475560Y-104360688D01*
X54471229Y-104317841D01*
X54463824Y-104286617D01*
X54452611Y-104264229D01*
X54436856Y-104247894D01*
X54415826Y-104234823D01*
X54394620Y-104226435D01*
X54351796Y-104220235D01*
X54309674Y-104225236D01*
X54275976Y-104241094D01*
X54266271Y-104249253D01*
X54250213Y-104267128D01*
X54238579Y-104289183D01*
X54230699Y-104318428D01*
X54225900Y-104357875D01*
X54223514Y-104410534D01*
X54222867Y-104479417D01*
X54222867Y-104633287D01*
X54263804Y-104636249D01*
X54304740Y-104639211D01*
X54304740Y-104706636D01*
X54304740Y-104774061D01*
X54140994Y-104774061D01*
X53977247Y-104774061D01*
X53977247Y-104706636D01*
X53977247Y-104639211D01*
X54012372Y-104636281D01*
X54047496Y-104633351D01*
X54051382Y-104443638D01*
X54052592Y-104394001D01*
X54055410Y-104328016D01*
X54060058Y-104276323D01*
X54067395Y-104235860D01*
X54078283Y-104203564D01*
X54093579Y-104176373D01*
X54114145Y-104151226D01*
X54140840Y-104125061D01*
X54193143Y-104089281D01*
X54252676Y-104069602D01*
X54315793Y-104066221D01*
X54378855Y-104079334D01*
X54438224Y-104109137D01*
X54472852Y-104132636D01*
X54475486Y-103966925D01*
X54478119Y-103801213D01*
X54603337Y-103801213D01*
X54728555Y-103801213D01*
X54728555Y-103868638D01*
G37*
G36*
X56118587Y-104407869D02*
G01*
X56116022Y-104486856D01*
X56103631Y-104562065D01*
X56081651Y-104629097D01*
X56050322Y-104683554D01*
X56030957Y-104705130D01*
X55983676Y-104742342D01*
X55928464Y-104771454D01*
X55872685Y-104788130D01*
X55842094Y-104793196D01*
X55820371Y-104795822D01*
X55801177Y-104795868D01*
X55777305Y-104793340D01*
X55741548Y-104788246D01*
X55665143Y-104771258D01*
X55599406Y-104742487D01*
X55547504Y-104702041D01*
X55511260Y-104664923D01*
X55558171Y-104620926D01*
X55582379Y-104599064D01*
X55601973Y-104582972D01*
X55612024Y-104576765D01*
X55618601Y-104579354D01*
X55637479Y-104590492D01*
X55662745Y-104607460D01*
X55668838Y-104611677D01*
X55698427Y-104628621D01*
X55728995Y-104637851D01*
X55769642Y-104642336D01*
X55814750Y-104641777D01*
X55868358Y-104629277D01*
X55909489Y-104603904D01*
X55936854Y-104566549D01*
X55949164Y-104518105D01*
X55951839Y-104485096D01*
X55726462Y-104482507D01*
X55501085Y-104479918D01*
X55507093Y-104395818D01*
X55510048Y-104361325D01*
X55510979Y-104355062D01*
X55677323Y-104355062D01*
X55816989Y-104355062D01*
X55836442Y-104355054D01*
X55885309Y-104354801D01*
X55918760Y-104353889D01*
X55939708Y-104351910D01*
X55951065Y-104348456D01*
X55955743Y-104343118D01*
X55956656Y-104335489D01*
X55956598Y-104333573D01*
X55952153Y-104310309D01*
X55942787Y-104282723D01*
X55932056Y-104262806D01*
X55902671Y-104233397D01*
X55865225Y-104216013D01*
X55823399Y-104210016D01*
X55780877Y-104214770D01*
X55741340Y-104229640D01*
X55708470Y-104253988D01*
X55685951Y-104287178D01*
X55677465Y-104328574D01*
X55677323Y-104355062D01*
X55510979Y-104355062D01*
X55519764Y-104295941D01*
X55534889Y-104243666D01*
X55556804Y-104200456D01*
X55586893Y-104162266D01*
X55615517Y-104135623D01*
X55673339Y-104099081D01*
X55737197Y-104076369D01*
X55804033Y-104067172D01*
X55870789Y-104071172D01*
X55934408Y-104088054D01*
X55991832Y-104117502D01*
X56040004Y-104159199D01*
X56075867Y-104212829D01*
X56093282Y-104256155D01*
X56111087Y-104329502D01*
X56111660Y-104335489D01*
X56118587Y-104407869D01*
G37*
G36*
X57472732Y-103133550D02*
G01*
X57473332Y-103189571D01*
X57473083Y-103228320D01*
X57470012Y-103293181D01*
X57462709Y-103344695D01*
X57450214Y-103386671D01*
X57431566Y-103422915D01*
X57405805Y-103457233D01*
X57366795Y-103496143D01*
X57317428Y-103527897D01*
X57256213Y-103550439D01*
X57194701Y-103560442D01*
X57124968Y-103559206D01*
X57054959Y-103547217D01*
X56990661Y-103525516D01*
X56938064Y-103495145D01*
X56911873Y-103474227D01*
X56891244Y-103453308D01*
X56884862Y-103435934D01*
X56891635Y-103418191D01*
X56910473Y-103396165D01*
X56932446Y-103374057D01*
X56955449Y-103355649D01*
X56974695Y-103350225D01*
X56995230Y-103356803D01*
X57022097Y-103374398D01*
X57042801Y-103388310D01*
X57067307Y-103400027D01*
X57095463Y-103406165D01*
X57135068Y-103409119D01*
X57138335Y-103409256D01*
X57194084Y-103407228D01*
X57236146Y-103395067D01*
X57267998Y-103371113D01*
X57293117Y-103333708D01*
X57303183Y-103314200D01*
X57312328Y-103294494D01*
X57315545Y-103279918D01*
X57310928Y-103269700D01*
X57296573Y-103263070D01*
X57270574Y-103259256D01*
X57231027Y-103257486D01*
X57176027Y-103256990D01*
X57103670Y-103256996D01*
X57078374Y-103256955D01*
X57017788Y-103256504D01*
X56964364Y-103255619D01*
X56921126Y-103254380D01*
X56891101Y-103252864D01*
X56877314Y-103251150D01*
X56876137Y-103250631D01*
X56866064Y-103236030D01*
X56862651Y-103205217D01*
X56865891Y-103157568D01*
X56875000Y-103097587D01*
X57035457Y-103097587D01*
X57035457Y-103122146D01*
X57175124Y-103122146D01*
X57314790Y-103122146D01*
X57314790Y-103094674D01*
X57312108Y-103076742D01*
X57297316Y-103042821D01*
X57273965Y-103011316D01*
X57247076Y-102989986D01*
X57218090Y-102980939D01*
X57174966Y-102977986D01*
X57131309Y-102983316D01*
X57096126Y-102996538D01*
X57067120Y-103021442D01*
X57044086Y-103058302D01*
X57035457Y-103097587D01*
X56875000Y-103097587D01*
X56875779Y-103092459D01*
X56880072Y-103070703D01*
X56902820Y-102997003D01*
X56936458Y-102938408D01*
X56982388Y-102893439D01*
X57042014Y-102860617D01*
X57116738Y-102838464D01*
X57172669Y-102831626D01*
X57244802Y-102837327D01*
X57311370Y-102858833D01*
X57369735Y-102894832D01*
X57417259Y-102944009D01*
X57451304Y-103005051D01*
X57453003Y-103009386D01*
X57461640Y-103034701D01*
X57467439Y-103060746D01*
X57470952Y-103092152D01*
X57471060Y-103094674D01*
X57472732Y-103133550D01*
G37*
G36*
X54313762Y-103348502D02*
G01*
X54312859Y-103370728D01*
X54300760Y-103431854D01*
X54273951Y-103480907D01*
X54231586Y-103519083D01*
X54172818Y-103547578D01*
X54152705Y-103554026D01*
X54108766Y-103561782D01*
X54057568Y-103561354D01*
X54051046Y-103560821D01*
X54005045Y-103553143D01*
X53962421Y-103539996D01*
X53928468Y-103523371D01*
X53908479Y-103505259D01*
X53901508Y-103501917D01*
X53895366Y-103517162D01*
X53895358Y-103517196D01*
X53892371Y-103527220D01*
X53886777Y-103534053D01*
X53875246Y-103538414D01*
X53854445Y-103541021D01*
X53821046Y-103542595D01*
X53771716Y-103543853D01*
X53653714Y-103546561D01*
X53656550Y-103476428D01*
X53659386Y-103406295D01*
X53694556Y-103403362D01*
X53729727Y-103400429D01*
X53732580Y-103247364D01*
X53895374Y-103247364D01*
X53895374Y-103295864D01*
X53900467Y-103340154D01*
X53919269Y-103379141D01*
X53952316Y-103405855D01*
X53972807Y-103414042D01*
X54013922Y-103422918D01*
X54056635Y-103425524D01*
X54091460Y-103420837D01*
X54126437Y-103404467D01*
X54148455Y-103378533D01*
X54155442Y-103342193D01*
X54155358Y-103337606D01*
X54147600Y-103303550D01*
X54126386Y-103278115D01*
X54090517Y-103260690D01*
X54038795Y-103250662D01*
X53970023Y-103247418D01*
X53895374Y-103247364D01*
X53732580Y-103247364D01*
X53733532Y-103196271D01*
X53735254Y-103120493D01*
X53737685Y-103060559D01*
X53741433Y-103014412D01*
X53747116Y-102979303D01*
X53755356Y-102952482D01*
X53766771Y-102931200D01*
X53781982Y-102912706D01*
X53801607Y-102894252D01*
X53830161Y-102872324D01*
X53862991Y-102855610D01*
X53902011Y-102845089D01*
X53951509Y-102839639D01*
X54015776Y-102838135D01*
X54059533Y-102838786D01*
X54108249Y-102842049D01*
X54149884Y-102848845D01*
X54191439Y-102860047D01*
X54214777Y-102867556D01*
X54242790Y-102879092D01*
X54259779Y-102893163D01*
X54268196Y-102913942D01*
X54270489Y-102945601D01*
X54269110Y-102992313D01*
X54266212Y-103059537D01*
X54192136Y-103062340D01*
X54118060Y-103065143D01*
X54115078Y-103023811D01*
X54112097Y-102982480D01*
X54032286Y-102979677D01*
X53999402Y-102978723D01*
X53971356Y-102979339D01*
X53952978Y-102983152D01*
X53938942Y-102991425D01*
X53923924Y-103005424D01*
X53909261Y-103022041D01*
X53898188Y-103045684D01*
X53895374Y-103078060D01*
X53895374Y-103122146D01*
X53985565Y-103122146D01*
X54008695Y-103122365D01*
X54093303Y-103128025D01*
X54162134Y-103141810D01*
X54216821Y-103164341D01*
X54258996Y-103196240D01*
X54290292Y-103238127D01*
X54294892Y-103246619D01*
X54306848Y-103275260D01*
X54312553Y-103306471D01*
X54313581Y-103342193D01*
X54313762Y-103348502D01*
G37*
G36*
X58015454Y-102556094D02*
G01*
X58096602Y-102575321D01*
X58167899Y-102607433D01*
X58226694Y-102651936D01*
X58240868Y-102666667D01*
X58272417Y-102708446D01*
X58296838Y-102757177D01*
X58314751Y-102815237D01*
X58326777Y-102885004D01*
X58333537Y-102968856D01*
X58335653Y-103069169D01*
X58334626Y-103147094D01*
X58330231Y-103226398D01*
X58321710Y-103291657D01*
X58308349Y-103345616D01*
X58289432Y-103391022D01*
X58264245Y-103430621D01*
X58232074Y-103467158D01*
X58211872Y-103485979D01*
X58173878Y-103513177D01*
X58128946Y-103534148D01*
X58070914Y-103552141D01*
X58064901Y-103553574D01*
X58024122Y-103559026D01*
X57971645Y-103561316D01*
X57913559Y-103560634D01*
X57855954Y-103557171D01*
X57804919Y-103551114D01*
X57766544Y-103542656D01*
X57742593Y-103534227D01*
X57702128Y-103517273D01*
X57663802Y-103498451D01*
X57632975Y-103480469D01*
X57615006Y-103466039D01*
X57612714Y-103461563D01*
X57609302Y-103444410D01*
X57606984Y-103414460D01*
X57605699Y-103370101D01*
X57605384Y-103309721D01*
X57605979Y-103231707D01*
X57608571Y-103011376D01*
X57777133Y-103011376D01*
X57945696Y-103011376D01*
X57948519Y-103080843D01*
X57951341Y-103150309D01*
X57861829Y-103153084D01*
X57772317Y-103155859D01*
X57769545Y-103251020D01*
X57769219Y-103263182D01*
X57768901Y-103305618D01*
X57770734Y-103333837D01*
X57775192Y-103351891D01*
X57782750Y-103363835D01*
X57794742Y-103374506D01*
X57827787Y-103390315D01*
X57875200Y-103399791D01*
X57939060Y-103403463D01*
X57953037Y-103403435D01*
X58011142Y-103397485D01*
X58058777Y-103381129D01*
X58096557Y-103353248D01*
X58125095Y-103312721D01*
X58145005Y-103258428D01*
X58156901Y-103189248D01*
X58161396Y-103104060D01*
X58159104Y-103001744D01*
X58158504Y-102990038D01*
X58153853Y-102924742D01*
X58147240Y-102874436D01*
X58137815Y-102835438D01*
X58124730Y-102804070D01*
X58107134Y-102776652D01*
X58081673Y-102749624D01*
X58038899Y-102724374D01*
X57984505Y-102711379D01*
X57916296Y-102709871D01*
X57905583Y-102710481D01*
X57856015Y-102715511D01*
X57822126Y-102724708D01*
X57800950Y-102740036D01*
X57789518Y-102763462D01*
X57784865Y-102796951D01*
X57781949Y-102847630D01*
X57704892Y-102847630D01*
X57627835Y-102847630D01*
X57625066Y-102752730D01*
X57624969Y-102749270D01*
X57624841Y-102696289D01*
X57627867Y-102661363D01*
X57634122Y-102643582D01*
X57635537Y-102642030D01*
X57654202Y-102628123D01*
X57684106Y-102610851D01*
X57719319Y-102593215D01*
X57753911Y-102578211D01*
X57781949Y-102568840D01*
X57834217Y-102558280D01*
X57927109Y-102550249D01*
X58015454Y-102556094D01*
G37*
G36*
X55479864Y-103179939D02*
G01*
X55479863Y-103182841D01*
X55479598Y-103240371D01*
X55478540Y-103282687D01*
X55476255Y-103313669D01*
X55472307Y-103337195D01*
X55466259Y-103357145D01*
X55457675Y-103377398D01*
X55421762Y-103437195D01*
X55375168Y-103481905D01*
X55317794Y-103510763D01*
X55248975Y-103524235D01*
X55187554Y-103523729D01*
X55127992Y-103509828D01*
X55080567Y-103482242D01*
X55051233Y-103457559D01*
X55051233Y-103512345D01*
X55051281Y-103517741D01*
X55059134Y-103575834D01*
X55079952Y-103621611D01*
X55113071Y-103653554D01*
X55120617Y-103657950D01*
X55142566Y-103666277D01*
X55170927Y-103669668D01*
X55212011Y-103669114D01*
X55242469Y-103667185D01*
X55273296Y-103662124D01*
X55298380Y-103652132D01*
X55325545Y-103634847D01*
X55369807Y-103603649D01*
X55417611Y-103648364D01*
X55441541Y-103672279D01*
X55458821Y-103692515D01*
X55465416Y-103704408D01*
X55464288Y-103710894D01*
X55450016Y-103731894D01*
X55422345Y-103754895D01*
X55385066Y-103777481D01*
X55341972Y-103797239D01*
X55296853Y-103811753D01*
X55271064Y-103817593D01*
X55227714Y-103823475D01*
X55184725Y-103822487D01*
X55132854Y-103814800D01*
X55132705Y-103814772D01*
X55058119Y-103793777D01*
X54997622Y-103760430D01*
X54949603Y-103713539D01*
X54912451Y-103651915D01*
X54912035Y-103651017D01*
X54906480Y-103637890D01*
X54902034Y-103623692D01*
X54898547Y-103606147D01*
X54895867Y-103582983D01*
X54893842Y-103551925D01*
X54892323Y-103510699D01*
X54891158Y-103457031D01*
X54890196Y-103388647D01*
X54889286Y-103303273D01*
X54888345Y-103208017D01*
X55053277Y-103208017D01*
X55057573Y-103250876D01*
X55070027Y-103300707D01*
X55090920Y-103337223D01*
X55121533Y-103363340D01*
X55134121Y-103370027D01*
X55178592Y-103380814D01*
X55223835Y-103374990D01*
X55265376Y-103353698D01*
X55298737Y-103318081D01*
X55303688Y-103309415D01*
X55309871Y-103291634D01*
X55313673Y-103266573D01*
X55315589Y-103230245D01*
X55316117Y-103178661D01*
X55316116Y-103175852D01*
X55315687Y-103126774D01*
X55314065Y-103092631D01*
X55310662Y-103069298D01*
X55304892Y-103052653D01*
X55296168Y-103038571D01*
X55284580Y-103024645D01*
X55245274Y-102995461D01*
X55199945Y-102982419D01*
X55152722Y-102986199D01*
X55107730Y-103007482D01*
X55105505Y-103009137D01*
X55080767Y-103039392D01*
X55063277Y-103084611D01*
X55053843Y-103141813D01*
X55053277Y-103208017D01*
X54888345Y-103208017D01*
X54886269Y-102997976D01*
X54845941Y-102995044D01*
X54805613Y-102992112D01*
X54805613Y-102924687D01*
X54805613Y-102857262D01*
X54928423Y-102854566D01*
X55051233Y-102851870D01*
X55051233Y-102876729D01*
X55051233Y-102901587D01*
X55082537Y-102878208D01*
X55121832Y-102854575D01*
X55180251Y-102837210D01*
X55247961Y-102835511D01*
X55316946Y-102848893D01*
X55374473Y-102877479D01*
X55421112Y-102921819D01*
X55457675Y-102982480D01*
X55458106Y-102983418D01*
X55466571Y-103003577D01*
X55472519Y-103023602D01*
X55476386Y-103047371D01*
X55478609Y-103078765D01*
X55479623Y-103121661D01*
X55479859Y-103178661D01*
X55479864Y-103179939D01*
G37*
G36*
X56998799Y-99207555D02*
G01*
X57166590Y-99228986D01*
X57329560Y-99268068D01*
X57486738Y-99324533D01*
X57637148Y-99398113D01*
X57779819Y-99488542D01*
X57913777Y-99595552D01*
X58038050Y-99718876D01*
X58083128Y-99771461D01*
X58167209Y-99888678D01*
X58235518Y-100012545D01*
X58287535Y-100141323D01*
X58322740Y-100273273D01*
X58340615Y-100406656D01*
X58340639Y-100539732D01*
X58322294Y-100670762D01*
X58285471Y-100799624D01*
X58230515Y-100925227D01*
X58159106Y-101043540D01*
X58072259Y-101153663D01*
X57970988Y-101254695D01*
X57856310Y-101345737D01*
X57729239Y-101425887D01*
X57590790Y-101494246D01*
X57441977Y-101549912D01*
X57283817Y-101591986D01*
X57235123Y-101600453D01*
X57162705Y-101608697D01*
X57080554Y-101614542D01*
X56993837Y-101617807D01*
X56907719Y-101618313D01*
X56827364Y-101615879D01*
X56757939Y-101610325D01*
X56723687Y-101606185D01*
X56578244Y-101584381D01*
X56437769Y-101556639D01*
X56305794Y-101523816D01*
X56185853Y-101486769D01*
X56081479Y-101446353D01*
X56054346Y-101434464D01*
X56018615Y-101418810D01*
X55991825Y-101407080D01*
X55978328Y-101401177D01*
X55972439Y-101401667D01*
X55967720Y-101415013D01*
X55966288Y-101445120D01*
X55966288Y-101494311D01*
X55730399Y-101494311D01*
X55494510Y-101494311D01*
X55492003Y-101063272D01*
X55489496Y-100632233D01*
X55410031Y-100629436D01*
X55330565Y-100626638D01*
X55330565Y-101127900D01*
X55330565Y-101629162D01*
X55455783Y-101629162D01*
X55581001Y-101629162D01*
X55581001Y-101850701D01*
X55581001Y-102072241D01*
X55022336Y-102072241D01*
X54463671Y-102072241D01*
X54463671Y-101850701D01*
X54463671Y-101629162D01*
X54588889Y-101629162D01*
X54714107Y-101629162D01*
X54714107Y-101128142D01*
X54714107Y-100627122D01*
X54437258Y-100629678D01*
X54160408Y-100632233D01*
X54140360Y-100738187D01*
X54120313Y-100844141D01*
X53925970Y-100846748D01*
X53731627Y-100849356D01*
X53731627Y-100487950D01*
X53731627Y-100126545D01*
X55123591Y-100126545D01*
X56515555Y-100126545D01*
X56513030Y-100485343D01*
X56510505Y-100844141D01*
X56323373Y-100846763D01*
X56317397Y-100846843D01*
X56259642Y-100847203D01*
X56208811Y-100846806D01*
X56167989Y-100845729D01*
X56140258Y-100844050D01*
X56128703Y-100841846D01*
X56126882Y-100837649D01*
X56121370Y-100818153D01*
X56113793Y-100787285D01*
X56105207Y-100749829D01*
X56096669Y-100710570D01*
X56089235Y-100674293D01*
X56083961Y-100645784D01*
X56081903Y-100629825D01*
X56080495Y-100629382D01*
X56065313Y-100628377D01*
X56037006Y-100627679D01*
X56000000Y-100627417D01*
X55974979Y-100627649D01*
X55941668Y-100629478D01*
X55923580Y-100633460D01*
X55918127Y-100639995D01*
X55918306Y-100643748D01*
X55924374Y-100671544D01*
X55937429Y-100709513D01*
X55955235Y-100752213D01*
X55975558Y-100794202D01*
X55996163Y-100830039D01*
X56050114Y-100903008D01*
X56131275Y-100984716D01*
X56224984Y-101052500D01*
X56330409Y-101105957D01*
X56446721Y-101144683D01*
X56573086Y-101168273D01*
X56708675Y-101176324D01*
X56818695Y-101172010D01*
X56950652Y-101154621D01*
X57075302Y-101124663D01*
X57191273Y-101082948D01*
X57297192Y-101030291D01*
X57391687Y-100967506D01*
X57473386Y-100895405D01*
X57540916Y-100814802D01*
X57592904Y-100726511D01*
X57627979Y-100631345D01*
X57627999Y-100631270D01*
X57638211Y-100574169D01*
X57642838Y-100505509D01*
X57641963Y-100432135D01*
X57635666Y-100360890D01*
X57624029Y-100298617D01*
X57601036Y-100225548D01*
X57551758Y-100120959D01*
X57485858Y-100025333D01*
X57403933Y-99939363D01*
X57306578Y-99863741D01*
X57194388Y-99799159D01*
X57180949Y-99792648D01*
X57068262Y-99747246D01*
X56954314Y-99718629D01*
X56833182Y-99705256D01*
X56742286Y-99704542D01*
X56597966Y-99718742D01*
X56455585Y-99751306D01*
X56316837Y-99801691D01*
X56183414Y-99869356D01*
X56057012Y-99953757D01*
X55994164Y-100001327D01*
X55773134Y-100001327D01*
X55552105Y-100001327D01*
X55552105Y-99611047D01*
X55552105Y-99220767D01*
X55776053Y-99223353D01*
X56000000Y-99225938D01*
X56002717Y-99333602D01*
X56005434Y-99441267D01*
X56060510Y-99410136D01*
X56068439Y-99405714D01*
X56142888Y-99368350D01*
X56228488Y-99331440D01*
X56318178Y-99297848D01*
X56404899Y-99270436D01*
X56476236Y-99251832D01*
X56652649Y-99218710D01*
X56827161Y-99204040D01*
X56998799Y-99207555D01*
G37*
%TO.C,TP4*%
D12*
X72700000Y-84000000D02*
G75*
G02*
X71300000Y-84000000I-700000J0D01*
G01*
X71300000Y-84000000D02*
G75*
G02*
X72700000Y-84000000I700000J0D01*
G01*
%TO.C,TP3*%
X82700000Y-76000000D02*
G75*
G02*
X81300000Y-76000000I-700000J0D01*
G01*
X81300000Y-76000000D02*
G75*
G02*
X82700000Y-76000000I700000J0D01*
G01*
%TD*%
%LPC*%
D14*
%TO.C,H3*%
X85000000Y-105000000D03*
%TD*%
D15*
%TO.C,SW1*%
X53600000Y-106000000D03*
X60400000Y-106000000D03*
%TD*%
D16*
%TO.C,J2*%
X47450000Y-94000000D03*
D17*
X47450000Y-96000000D03*
%TD*%
D14*
%TO.C,H1*%
X45000000Y-65000000D03*
%TD*%
D18*
%TO.C,J3*%
X51385000Y-96275000D03*
D19*
X51385000Y-93735000D03*
%TD*%
D14*
%TO.C,H2*%
X85000000Y-65000000D03*
%TD*%
%TO.C,H4*%
X45000000Y-105000000D03*
%TD*%
D20*
%TO.C,TP5*%
X72000000Y-80000000D03*
%TD*%
%TO.C,TP6*%
X69000000Y-84000000D03*
%TD*%
%TO.C,TP4*%
X72000000Y-84000000D03*
%TD*%
%TO.C,TP3*%
X82000000Y-76000000D03*
%TD*%
%LPD*%
M02*
