%TF.GenerationSoftware,KiCad,Pcbnew,10.0.4-10.0.4~ubuntu24.04.1*%
%TF.CreationDate,2026-07-19T12:17:15-04:00*%
%TF.ProjectId,kmm-pmask-control,6b6d6d2d-706d-4617-936b-2d636f6e7472,rev?*%
%TF.SameCoordinates,Original*%
%TF.FileFunction,Soldermask,Top*%
%TF.FilePolarity,Negative*%
%FSLAX46Y46*%
G04 Gerber Fmt 4.6, Leading zero omitted, Abs format (unit mm)*
G04 Created by KiCad (PCBNEW 10.0.4-10.0.4~ubuntu24.04.1) date 2026-07-19 12:17:15*
%MOMM*%
%LPD*%
G01*
G04 APERTURE LIST*
G04 Aperture macros list*
%AMRoundRect*
0 Rectangle with rounded corners*
0 $1 Rounding radius*
0 $2 $3 $4 $5 $6 $7 $8 $9 X,Y pos of 4 corners*
0 Add a 4 corners polygon primitive as box body*
4,1,4,$2,$3,$4,$5,$6,$7,$8,$9,$2,$3,0*
0 Add four circle primitives for the rounded corners*
1,1,$1+$1,$2,$3*
1,1,$1+$1,$4,$5*
1,1,$1+$1,$6,$7*
1,1,$1+$1,$8,$9*
0 Add four rect primitives between the rounded corners*
20,1,$1+$1,$2,$3,$4,$5,0*
20,1,$1+$1,$4,$5,$6,$7,0*
20,1,$1+$1,$6,$7,$8,$9,0*
20,1,$1+$1,$8,$9,$2,$3,0*%
G04 Aperture macros list end*
%ADD10RoundRect,0.237500X-0.237500X0.300000X-0.237500X-0.300000X0.237500X-0.300000X0.237500X0.300000X0*%
%ADD11C,3.000000*%
%ADD12C,6.400000*%
%ADD13RoundRect,0.150000X0.150000X-0.512500X0.150000X0.512500X-0.150000X0.512500X-0.150000X-0.512500X0*%
%ADD14RoundRect,0.160000X-0.197500X-0.160000X0.197500X-0.160000X0.197500X0.160000X-0.197500X0.160000X0*%
%ADD15RoundRect,0.250000X-0.475000X-0.250000X0.475000X-0.250000X0.475000X0.250000X-0.475000X0.250000X0*%
%ADD16RoundRect,0.237500X0.237500X-0.287500X0.237500X0.287500X-0.237500X0.287500X-0.237500X-0.287500X0*%
%ADD17RoundRect,0.155000X-0.155000X0.212500X-0.155000X-0.212500X0.155000X-0.212500X0.155000X0.212500X0*%
%ADD18RoundRect,0.237500X0.300000X0.237500X-0.300000X0.237500X-0.300000X-0.237500X0.300000X-0.237500X0*%
%ADD19RoundRect,0.250000X-0.375000X-1.000000X0.375000X-1.000000X0.375000X1.000000X-0.375000X1.000000X0*%
%ADD20C,1.000000*%
%ADD21RoundRect,0.155000X-0.212500X-0.155000X0.212500X-0.155000X0.212500X0.155000X-0.212500X0.155000X0*%
%ADD22RoundRect,0.160000X0.197500X0.160000X-0.197500X0.160000X-0.197500X-0.160000X0.197500X-0.160000X0*%
%ADD23RoundRect,0.160000X-0.160000X0.197500X-0.160000X-0.197500X0.160000X-0.197500X0.160000X0.197500X0*%
%ADD24R,1.500000X0.800000*%
%ADD25RoundRect,0.362500X0.637500X-0.362500X0.637500X0.362500X-0.637500X0.362500X-0.637500X-0.362500X0*%
%ADD26R,2.700000X0.800000*%
%ADD27RoundRect,0.155000X0.212500X0.155000X-0.212500X0.155000X-0.212500X-0.155000X0.212500X-0.155000X0*%
%ADD28RoundRect,0.250000X-0.625000X0.350000X-0.625000X-0.350000X0.625000X-0.350000X0.625000X0.350000X0*%
%ADD29O,1.750000X1.200000*%
%ADD30R,0.600000X0.400000*%
%ADD31R,0.400000X0.600000*%
%ADD32R,1.300000X0.300000*%
%ADD33R,2.200000X1.800000*%
%ADD34R,1.700000X1.700000*%
%ADD35C,1.700000*%
%ADD36R,0.400000X1.100000*%
%ADD37RoundRect,0.160000X0.160000X-0.197500X0.160000X0.197500X-0.160000X0.197500X-0.160000X-0.197500X0*%
%ADD38RoundRect,0.237500X0.287500X0.237500X-0.287500X0.237500X-0.287500X-0.237500X0.287500X-0.237500X0*%
%ADD39RoundRect,0.250000X1.000000X0.650000X-1.000000X0.650000X-1.000000X-0.650000X1.000000X-0.650000X0*%
%ADD40RoundRect,0.150000X0.150000X-0.587500X0.150000X0.587500X-0.150000X0.587500X-0.150000X-0.587500X0*%
%ADD41RoundRect,0.237500X-0.300000X-0.237500X0.300000X-0.237500X0.300000X0.237500X-0.300000X0.237500X0*%
%ADD42R,0.280000X0.280000*%
%ADD43O,0.850000X0.280000*%
%ADD44C,0.600000*%
%ADD45R,0.680000X1.050000*%
%ADD46R,0.260000X0.500000*%
%ADD47R,0.280000X0.700000*%
%ADD48R,1.650000X2.400000*%
%ADD49RoundRect,0.250001X-0.462499X-0.624999X0.462499X-0.624999X0.462499X0.624999X-0.462499X0.624999X0*%
%ADD50RoundRect,0.150000X0.587500X0.150000X-0.587500X0.150000X-0.587500X-0.150000X0.587500X-0.150000X0*%
%ADD51R,2.400000X0.740000*%
G04 APERTURE END LIST*
D10*
%TO.C,C3*%
X69500000Y-102387500D03*
X69500000Y-104112500D03*
%TD*%
D11*
%TO.C,FID2*%
X49000000Y-101000000D03*
%TD*%
D12*
%TO.C,H3*%
X85000000Y-105000000D03*
%TD*%
D13*
%TO.C,U3*%
X64050000Y-93137500D03*
X65000000Y-93137500D03*
X65950000Y-93137500D03*
X65950000Y-90862500D03*
X64050000Y-90862500D03*
%TD*%
D14*
%TO.C,R5*%
X57402500Y-74000000D03*
X58597500Y-74000000D03*
%TD*%
D15*
%TO.C,SW2*%
X83425000Y-70150000D03*
X88575000Y-70150000D03*
X83425000Y-71850000D03*
X88575000Y-71850000D03*
%TD*%
D10*
%TO.C,C4*%
X68000000Y-102387500D03*
X68000000Y-104112500D03*
%TD*%
D14*
%TO.C,R2*%
X75152500Y-89250000D03*
X76347500Y-89250000D03*
%TD*%
D16*
%TO.C,D5*%
X76000000Y-104875000D03*
X76000000Y-103125000D03*
%TD*%
D17*
%TO.C,C9*%
X69750000Y-90432500D03*
X69750000Y-91567500D03*
%TD*%
D18*
%TO.C,C1*%
X66362500Y-98000000D03*
X64637500Y-98000000D03*
%TD*%
D19*
%TO.C,SW1*%
X54500000Y-103250000D03*
X57000000Y-103250000D03*
X59500000Y-103250000D03*
%TD*%
D20*
%TO.C,TP16*%
X74000000Y-87000000D03*
%TD*%
%TO.C,TP1*%
X78250000Y-91750000D03*
%TD*%
D21*
%TO.C,C12*%
X66932500Y-77750000D03*
X68067500Y-77750000D03*
%TD*%
D22*
%TO.C,R8*%
X58097500Y-90000000D03*
X56902500Y-90000000D03*
%TD*%
D23*
%TO.C,R13*%
X71500000Y-71402500D03*
X71500000Y-72597500D03*
%TD*%
D14*
%TO.C,R16*%
X56652500Y-68000000D03*
X57847500Y-68000000D03*
%TD*%
D23*
%TO.C,R11*%
X76000000Y-106402500D03*
X76000000Y-107597500D03*
%TD*%
D24*
%TO.C,J4*%
X45900000Y-83205000D03*
X45900000Y-82105000D03*
X45900000Y-81005000D03*
X45900000Y-79905000D03*
X45900000Y-78805000D03*
X45900000Y-77705000D03*
X45900000Y-76605000D03*
X45900000Y-75505000D03*
D25*
X43300000Y-86875000D03*
X51600000Y-86875000D03*
X43300000Y-73125000D03*
X51600000Y-73125000D03*
%TD*%
D17*
%TO.C,C6*%
X62750000Y-90432500D03*
X62750000Y-91567500D03*
%TD*%
D20*
%TO.C,TP11*%
X68500000Y-88750000D03*
%TD*%
D17*
%TO.C,C2*%
X66500000Y-103682500D03*
X66500000Y-104817500D03*
%TD*%
D26*
%TO.C,L1*%
X69000000Y-98650000D03*
X69000000Y-100850000D03*
%TD*%
D27*
%TO.C,C8*%
X71067500Y-94750000D03*
X69932500Y-94750000D03*
%TD*%
D20*
%TO.C,TP7*%
X71000000Y-88750000D03*
%TD*%
D14*
%TO.C,R17*%
X56652500Y-67000000D03*
X57847500Y-67000000D03*
%TD*%
D28*
%TO.C,J2*%
X47450000Y-94000000D03*
D29*
X47450000Y-96000000D03*
%TD*%
D22*
%TO.C,R1*%
X78847500Y-89250000D03*
X77652500Y-89250000D03*
%TD*%
D23*
%TO.C,R6*%
X57000000Y-99402500D03*
X57000000Y-100597500D03*
%TD*%
D30*
%TO.C,U5*%
X60350000Y-65250000D03*
X60350000Y-66350000D03*
X60350000Y-67150000D03*
X60350000Y-68750000D03*
X61250000Y-69150000D03*
X60350000Y-69550000D03*
X61250000Y-69950000D03*
X60350000Y-70350000D03*
X61250000Y-70750000D03*
X60350000Y-71150000D03*
X61250000Y-71550000D03*
X60350000Y-71950000D03*
X61250000Y-72350000D03*
X60350000Y-72750000D03*
D31*
X60200000Y-76150000D03*
X61000000Y-76150000D03*
X61800000Y-76150000D03*
X62600000Y-76150000D03*
X63000000Y-75250000D03*
X63400000Y-76150000D03*
X63800000Y-75250000D03*
X64200000Y-76150000D03*
X64600000Y-75250000D03*
X65000000Y-76150000D03*
X65400000Y-75250000D03*
X65800000Y-76150000D03*
X66200000Y-75250000D03*
X66600000Y-76150000D03*
X67000000Y-75250000D03*
X67400000Y-76150000D03*
X68200000Y-76150000D03*
X69000000Y-76150000D03*
X69800000Y-76150000D03*
D30*
X69650000Y-75150000D03*
X69650000Y-74350000D03*
X68750000Y-73950000D03*
X69650000Y-73550000D03*
X68750000Y-73150000D03*
X69650000Y-72750000D03*
X68750000Y-72350000D03*
X69650000Y-71950000D03*
X68750000Y-71550000D03*
X68750000Y-70750000D03*
X69650000Y-70350000D03*
X68750000Y-69950000D03*
X69650000Y-69550000D03*
X68750000Y-69150000D03*
X69650000Y-68750000D03*
X68750000Y-68350000D03*
X68750000Y-67550000D03*
X69650000Y-67150000D03*
X68750000Y-66750000D03*
X69650000Y-66350000D03*
X68750000Y-65950000D03*
X69650000Y-65250000D03*
D31*
X63000000Y-69550000D03*
X63800000Y-69550000D03*
X64600000Y-69550000D03*
X65400000Y-69550000D03*
X66200000Y-69550000D03*
X67000000Y-69550000D03*
%TD*%
D12*
%TO.C,H1*%
X45000000Y-65000000D03*
%TD*%
D16*
%TO.C,D4*%
X74000000Y-104875000D03*
X74000000Y-103125000D03*
%TD*%
D27*
%TO.C,C5*%
X64067500Y-94750000D03*
X62932500Y-94750000D03*
%TD*%
D32*
%TO.C,J1*%
X81910000Y-92250000D03*
X81910000Y-91750000D03*
X81910000Y-91250000D03*
X81910000Y-90750000D03*
X81910000Y-90250000D03*
X81910000Y-89750000D03*
X81910000Y-89250000D03*
X81910000Y-88750000D03*
X81910000Y-88250000D03*
X81910000Y-87750000D03*
X81910000Y-87250000D03*
X81910000Y-86750000D03*
X81910000Y-86250000D03*
X81910000Y-85750000D03*
X81910000Y-85250000D03*
X81910000Y-84750000D03*
X81910000Y-84250000D03*
X81910000Y-83750000D03*
X81910000Y-83250000D03*
X81910000Y-82750000D03*
X81910000Y-82250000D03*
X81910000Y-81750000D03*
X81910000Y-81250000D03*
X81910000Y-80750000D03*
X81910000Y-80250000D03*
X81910000Y-79750000D03*
X81910000Y-79250000D03*
X81910000Y-78750000D03*
X81910000Y-78250000D03*
X81910000Y-77750000D03*
D33*
X87560000Y-94400000D03*
X87560000Y-75600000D03*
%TD*%
D34*
%TO.C,J3*%
X51385000Y-96275000D03*
D35*
X51385000Y-93735000D03*
%TD*%
D36*
%TO.C,U1*%
X77975000Y-81350000D03*
X77325000Y-81350000D03*
X76675000Y-81350000D03*
X76025000Y-81350000D03*
X76025000Y-85650000D03*
X76675000Y-85650000D03*
X77325000Y-85650000D03*
X77975000Y-85650000D03*
%TD*%
D37*
%TO.C,R19*%
X77750000Y-74597500D03*
X77750000Y-73402500D03*
%TD*%
D10*
%TO.C,C7*%
X61500000Y-90637500D03*
X61500000Y-92362500D03*
%TD*%
D38*
%TO.C,D7*%
X54875000Y-69250000D03*
X53125000Y-69250000D03*
%TD*%
D14*
%TO.C,R7*%
X56912500Y-91000000D03*
X58107500Y-91000000D03*
%TD*%
D37*
%TO.C,R12*%
X71500000Y-74847500D03*
X71500000Y-73652500D03*
%TD*%
D12*
%TO.C,H2*%
X85000000Y-65000000D03*
%TD*%
D23*
%TO.C,R10*%
X74000000Y-106402500D03*
X74000000Y-107597500D03*
%TD*%
D20*
%TO.C,TP8*%
X68500000Y-96500000D03*
%TD*%
D39*
%TO.C,D2*%
X59000000Y-93500000D03*
X55000000Y-93500000D03*
%TD*%
D40*
%TO.C,D1*%
X59050000Y-98437500D03*
X60950000Y-98437500D03*
X60000000Y-96562500D03*
%TD*%
D41*
%TO.C,C11*%
X66947500Y-79000000D03*
X68672500Y-79000000D03*
%TD*%
D20*
%TO.C,TP15*%
X75500000Y-79000000D03*
%TD*%
D16*
%TO.C,D3*%
X78000000Y-104875000D03*
X78000000Y-103125000D03*
%TD*%
D38*
%TO.C,D6*%
X54875000Y-70750000D03*
X53125000Y-70750000D03*
%TD*%
%TO.C,D9*%
X54875000Y-66250000D03*
X53125000Y-66250000D03*
%TD*%
D42*
%TO.C,U2*%
X66760000Y-102000000D03*
D43*
X66475000Y-102000000D03*
D42*
X66760000Y-101500000D03*
D43*
X66475000Y-101500000D03*
D42*
X66760000Y-101000000D03*
D43*
X66475000Y-101000000D03*
D42*
X66760000Y-100500000D03*
D43*
X66475000Y-100500000D03*
D42*
X66760000Y-100000000D03*
D43*
X66475000Y-100000000D03*
X63525000Y-100000000D03*
D42*
X63240000Y-100000000D03*
D43*
X63525000Y-100500000D03*
D42*
X63240000Y-100500000D03*
D43*
X63525000Y-101000000D03*
D42*
X63240000Y-101000000D03*
D43*
X63525000Y-101500000D03*
D42*
X63240000Y-101500000D03*
D43*
X63525000Y-102000000D03*
D42*
X63240000Y-102000000D03*
D44*
X65500000Y-101750000D03*
X65500000Y-100250000D03*
D45*
X65450000Y-101635000D03*
X65450000Y-100365000D03*
D46*
X65250000Y-102630000D03*
D47*
X65250000Y-102550000D03*
X65250000Y-99450000D03*
D46*
X65250000Y-99370000D03*
D44*
X65000000Y-101000000D03*
D48*
X65000000Y-101000000D03*
D46*
X64750000Y-102630000D03*
D47*
X64750000Y-102550000D03*
X64750000Y-99450000D03*
D46*
X64750000Y-99370000D03*
D45*
X64550000Y-101635000D03*
X64550000Y-100365000D03*
D44*
X64500000Y-101750000D03*
X64500000Y-100250000D03*
%TD*%
D38*
%TO.C,D8*%
X54875000Y-67750000D03*
X53125000Y-67750000D03*
%TD*%
D14*
%TO.C,R14*%
X56652500Y-70000000D03*
X57847500Y-70000000D03*
%TD*%
D20*
%TO.C,TP9*%
X72000000Y-101000000D03*
%TD*%
D14*
%TO.C,R4*%
X57402500Y-75000000D03*
X58597500Y-75000000D03*
%TD*%
D20*
%TO.C,TP18*%
X80500000Y-74000000D03*
%TD*%
D17*
%TO.C,C15*%
X78750000Y-73432500D03*
X78750000Y-74567500D03*
%TD*%
D20*
%TO.C,TP12*%
X64500000Y-104500000D03*
%TD*%
D13*
%TO.C,U4*%
X71050000Y-93137500D03*
X72000000Y-93137500D03*
X72950000Y-93137500D03*
X72950000Y-90862500D03*
X71050000Y-90862500D03*
%TD*%
D23*
%TO.C,R9*%
X78000000Y-106402500D03*
X78000000Y-107597500D03*
%TD*%
D10*
%TO.C,C10*%
X68500000Y-90637500D03*
X68500000Y-92362500D03*
%TD*%
D49*
%TO.C,F1*%
X51512500Y-90500000D03*
X54487500Y-90500000D03*
%TD*%
D11*
%TO.C,FID1*%
X87000000Y-100000000D03*
%TD*%
D50*
%TO.C,Q1*%
X56937500Y-97950000D03*
X56937500Y-96050000D03*
X55062500Y-97000000D03*
%TD*%
D11*
%TO.C,FID3*%
X43000000Y-70000000D03*
%TD*%
D20*
%TO.C,TP10*%
X61500000Y-88750000D03*
%TD*%
D51*
%TO.C,J5*%
X75050000Y-66460000D03*
X78950000Y-66460000D03*
X75050000Y-67730000D03*
X78950000Y-67730000D03*
X75050000Y-69000000D03*
X78950000Y-69000000D03*
X75050000Y-70270000D03*
X78950000Y-70270000D03*
X75050000Y-71540000D03*
X78950000Y-71540000D03*
%TD*%
D21*
%TO.C,C14*%
X78182500Y-80000000D03*
X79317500Y-80000000D03*
%TD*%
D20*
%TO.C,TP2*%
X75750000Y-91750000D03*
%TD*%
D21*
%TO.C,C13*%
X78232500Y-87000000D03*
X79367500Y-87000000D03*
%TD*%
D14*
%TO.C,R15*%
X56652500Y-69000000D03*
X57847500Y-69000000D03*
%TD*%
D12*
%TO.C,H4*%
X45000000Y-105000000D03*
%TD*%
D37*
%TO.C,R3*%
X76750000Y-74597500D03*
X76750000Y-73402500D03*
%TD*%
D20*
%TO.C,TP14*%
X78500000Y-78000000D03*
%TD*%
%TO.C,TP13*%
X72500000Y-96500000D03*
%TD*%
M02*
