M48
; DRILL file KiCad 10.0.4-10.0.4~ubuntu24.04.1 date 2026-07-19T12:17:15
; FORMAT={-:-/ absolute / inch / decimal}
; #@! TF.CreationDate,2026-07-19T12:17:15-04:00
; #@! TF.GenerationSoftware,Kicad,Pcbnew,10.0.4-10.0.4~ubuntu24.04.1
; #@! TF.FileFunction,Plated,1,4,PTH
FMAT,2
INCH
; #@! TA.AperFunction,Plated,PTH,ViaDrill
T1C0.0118
; #@! TA.AperFunction,Plated,PTH,ComponentDrill
T2C0.0118
; #@! TA.AperFunction,Plated,PTH,ComponentDrill
T3C0.0295
; #@! TA.AperFunction,Plated,PTH,ComponentDrill
T4C0.0394
; #@! TA.AperFunction,Plated,PTH,ComponentDrill
T5C0.1260
%
G90
G05
T1
X1.6732Y-3.0512
X1.6732Y-3.248
X1.6732Y-3.4449
X1.6732Y-3.6417
X1.6732Y-3.8386
X1.7618Y-3.1496
X1.7717Y-3.3465
X1.7717Y-3.5433
X1.7717Y-3.7402
X1.7717Y-3.937
X1.8701Y-2.8543
X1.8701Y-3.4449
X1.8701Y-3.6417
X1.8701Y-3.8386
X1.9685Y-2.9528
X1.9685Y-3.5433
X1.9685Y-4.1339
X2.0571Y-2.6083
X2.0571Y-2.6673
X2.0571Y-2.7264
X2.0571Y-2.7854
X2.0669Y-4.0354
X2.0669Y-4.2323
X2.1063Y-4.0354
X2.1063Y-4.0846
X2.1654Y-2.9528
X2.1654Y-3.3465
X2.1654Y-3.937
X2.1654Y-4.1339
X2.185Y-4.0354
X2.185Y-4.0846
X2.2126Y-3.5433
X2.2283Y-2.9134
X2.2283Y-2.9528
X2.2638Y-4.2323
X2.2874Y-3.5197
X2.3031Y-2.5689
X2.3031Y-2.5984
X2.3031Y-3.6319
X2.3031Y-3.7303
X2.313Y-2.6378
X2.313Y-2.6772
X2.313Y-2.7165
X2.313Y-2.7559
X2.313Y-3.002
X2.313Y-3.0315
X2.3228Y-2.8346
X2.3425Y-2.5689
X2.3425Y-2.5984
X2.3425Y-3.002
X2.3425Y-3.0315
X2.3425Y-3.5433
X2.3425Y-3.5827
X2.3425Y-3.6319
X2.3425Y-3.7303
X2.3622Y-3.3465
X2.3622Y-3.563
X2.374Y-2.8858
X2.3819Y-3.5433
X2.3819Y-3.5827
X2.4094Y-2.8701
X2.4114Y-2.5689
X2.4114Y-2.5984
X2.4114Y-2.628
X2.4213Y-3.6713
X2.4409Y-2.5984
X2.4409Y-2.6772
X2.4409Y-2.874
X2.4409Y-2.9528
X2.4409Y-3.7303
X2.4606Y-3.4449
X2.4606Y-4.2323
X2.4646Y-3.0276
X2.4646Y-4.0236
X2.4705Y-3.6319
X2.4803Y-2.6378
X2.4803Y-2.8346
X2.4803Y-2.9134
X2.5039Y-3.8583
X2.5118Y-3.0315
X2.5197Y-2.6772
X2.5197Y-2.874
X2.5433Y-2.937
X2.5591Y-2.6378
X2.5591Y-2.8346
X2.5591Y-2.9134
X2.5591Y-3.3465
X2.5591Y-3.622
X2.5984Y-2.5984
X2.5984Y-2.6772
X2.5984Y-2.874
X2.5984Y-3.0709
X2.6063Y-2.937
X2.6181Y-4.1535
X2.6357Y-3.1399
X2.6378Y-2.6378
X2.6378Y-2.8346
X2.6378Y-2.937
X2.6575Y-3.4449
X2.6575Y-4.2323
X2.6673Y-3.5728
X2.6772Y-2.5689
X2.6772Y-2.5984
X2.6772Y-2.628
X2.6772Y-2.7795
X2.6772Y-2.811
X2.6772Y-2.8504
X2.6772Y-2.9528
X2.6772Y-4.1339
X2.6811Y-2.8819
X2.6811Y-2.9134
X2.687Y-3.0315
X2.6969Y-3.6713
X2.7067Y-3.061
X2.7165Y-3.0315
X2.7165Y-3.7303
X2.7362Y-4.1339
X2.7402Y-3.1102
X2.7461Y-3.0315
X2.7461Y-3.6319
X2.7559Y-3.1496
X2.7559Y-3.3465
X2.7657Y-2.6083
X2.7717Y-2.7441
X2.7717Y-2.7717
X2.7756Y-2.5689
X2.7756Y-3.0315
X2.7795Y-4.0315
X2.7992Y-3.0118
X2.8051Y-2.5689
X2.8051Y-2.5984
X2.815Y-2.7854
X2.815Y-2.9724
X2.815Y-4.0315
X2.8346Y-2.6378
X2.8346Y-3.622
X2.8543Y-3.0512
X2.8543Y-3.4449
X2.8543Y-4.2323
X2.8839Y-2.6181
X2.9134Y-4.2618
X2.9528Y-3.7402
X2.9724Y-3.4843
X2.9921Y-4.0256
X2.9921Y-4.2618
X2.9961Y-3.2402
X3.002Y-2.8819
X3.0217Y-2.9626
X3.0315Y-2.6181
X3.0315Y-2.6673
X3.061Y-2.9626
X3.063Y-2.8504
X3.0709Y-3.122
X3.0709Y-3.4567
X3.0709Y-4.2618
X3.0906Y-3.4843
X3.1004Y-2.9626
X3.1181Y-3.1772
X3.1181Y-3.3976
X3.122Y-3.2165
X3.1299Y-3.4724
X3.1496Y-4.1339
X3.1594Y-3.2382
X3.1594Y-3.4547
X3.1881Y-3.1791
X3.1881Y-3.5138
X3.189Y-3.1299
X3.189Y-3.563
X3.248Y-3.8386
X3.2598Y-3.0709
X3.2598Y-3.622
X3.2677Y-3.1004
X3.2677Y-3.1594
X3.2677Y-3.1988
X3.2677Y-3.3003
X3.2677Y-3.3465
X3.2677Y-3.3926
X3.2677Y-3.4941
X3.2677Y-3.5335
X3.2677Y-3.5925
X3.2681Y-3.2382
X3.2681Y-3.4547
X3.3268Y-2.7598
X3.3465Y-2.9528
X3.3465Y-3.1496
X3.3465Y-3.3465
X3.3465Y-3.5433
X3.3465Y-3.7402
X3.4449Y-2.7598
X3.4449Y-3.0512
X3.4449Y-3.248
X3.4449Y-3.4449
X3.4449Y-3.6417
X3.4449Y-3.8386
T2
X2.5394Y-3.9469
X2.5394Y-4.0059
X2.5591Y-3.9764
X2.5787Y-3.9469
X2.5787Y-4.0059
T3
X1.8681Y-3.7008
X1.8681Y-3.7795
T4
X2.023Y-3.6904
X2.023Y-3.7904
T5
X1.7717Y-2.5591
X1.7717Y-4.1339
X3.3465Y-2.5591
X3.3465Y-4.1339
M30
