%TF.GenerationSoftware,KiCad,Pcbnew,10.0.4-10.0.4~ubuntu24.04.1*%
%TF.CreationDate,2026-07-19T12:17:15-04:00*%
%TF.ProjectId,kmm-pmask-control,6b6d6d2d-706d-4617-936b-2d636f6e7472,rev?*%
%TF.SameCoordinates,Original*%
%TF.FileFunction,Copper,L4,Bot*%
%TF.FilePolarity,Positive*%
%FSLAX46Y46*%
G04 Gerber Fmt 4.6, Leading zero omitted, Abs format (unit mm)*
G04 Created by KiCad (PCBNEW 10.0.4-10.0.4~ubuntu24.04.1) date 2026-07-19 12:17:15*
%MOMM*%
%LPD*%
G01*
G04 APERTURE LIST*
G04 Aperture macros list*
%AMRoundRect*
0 Rectangle with rounded corners*
0 $1 Rounding radius*
0 $2 $3 $4 $5 $6 $7 $8 $9 X,Y pos of 4 corners*
0 Add a 4 corners polygon primitive as box body*
4,1,4,$2,$3,$4,$5,$6,$7,$8,$9,$2,$3,0*
0 Add four circle primitives for the rounded corners*
1,1,$1+$1,$2,$3*
1,1,$1+$1,$4,$5*
1,1,$1+$1,$6,$7*
1,1,$1+$1,$8,$9*
0 Add four rect primitives between the rounded corners*
20,1,$1+$1,$2,$3,$4,$5,0*
20,1,$1+$1,$4,$5,$6,$7,0*
20,1,$1+$1,$6,$7,$8,$9,0*
20,1,$1+$1,$8,$9,$2,$3,0*%
G04 Aperture macros list end*
%TA.AperFunction,ComponentPad*%
%ADD10C,6.400000*%
%TD*%
%TA.AperFunction,ComponentPad*%
%ADD11RoundRect,0.250000X-0.625000X0.350000X-0.625000X-0.350000X0.625000X-0.350000X0.625000X0.350000X0*%
%TD*%
%TA.AperFunction,ComponentPad*%
%ADD12O,1.750000X1.200000*%
%TD*%
%TA.AperFunction,ComponentPad*%
%ADD13R,1.700000X1.700000*%
%TD*%
%TA.AperFunction,ComponentPad*%
%ADD14C,1.700000*%
%TD*%
%TA.AperFunction,ComponentPad*%
%ADD15C,0.600000*%
%TD*%
%TA.AperFunction,SMDPad,CuDef*%
%ADD16R,2.300000X2.800000*%
%TD*%
%TA.AperFunction,SMDPad,CuDef*%
%ADD17C,1.000000*%
%TD*%
%TA.AperFunction,ViaPad*%
%ADD18C,0.500000*%
%TD*%
%TA.AperFunction,ViaPad*%
%ADD19C,0.600000*%
%TD*%
%TA.AperFunction,Conductor*%
%ADD20C,0.508000*%
%TD*%
%TA.AperFunction,Conductor*%
%ADD21C,0.254000*%
%TD*%
G04 APERTURE END LIST*
D10*
%TO.P,H3,1,1_1*%
%TO.N,GND*%
X85000000Y-105000000D03*
%TD*%
D11*
%TO.P,J2,1,Pin_1_1*%
%TO.N,/Power/BATT_RAW_P*%
X47450000Y-94000000D03*
D12*
%TO.P,J2,2,Pin_2_2*%
%TO.N,GND*%
X47450000Y-96000000D03*
%TD*%
D10*
%TO.P,H1,1,1_1*%
%TO.N,GND*%
X45000000Y-65000000D03*
%TD*%
D13*
%TO.P,J3,1,Pin_1_1*%
%TO.N,GND*%
X51385000Y-96275000D03*
D14*
%TO.P,J3,2,Pin_2_2*%
%TO.N,/Power/BATT_RAW_P*%
X51385000Y-93735000D03*
%TD*%
D10*
%TO.P,H2,1,1_1*%
%TO.N,GND*%
X85000000Y-65000000D03*
%TD*%
D15*
%TO.P,U2,11,PAD_11*%
%TO.N,GND*%
X65500000Y-101750000D03*
X65500000Y-100250000D03*
X65000000Y-101000000D03*
D16*
X65000000Y-101000000D03*
D15*
X64500000Y-101750000D03*
X64500000Y-100250000D03*
%TD*%
D10*
%TO.P,H4,1,1_1*%
%TO.N,GND*%
X45000000Y-105000000D03*
%TD*%
D17*
%TO.P,TP5,1,1_1*%
%TO.N,/MCU/PRESEN.B*%
X72000000Y-80000000D03*
%TD*%
%TO.P,TP6,1,1_1*%
%TO.N,GND*%
X69000000Y-84000000D03*
%TD*%
%TO.P,TP4,1,1_1*%
%TO.N,/MCU/PRESEN.A*%
X72000000Y-84000000D03*
%TD*%
%TO.P,TP3,1,1_1*%
%TO.N,/MCU/I2C.~{RST}*%
X82000000Y-76000000D03*
%TD*%
D18*
%TO.N,+5V*%
X82800000Y-92000000D03*
X70600000Y-102400000D03*
X82800000Y-78000000D03*
D19*
X62600000Y-102200000D03*
D18*
X71500000Y-102400000D03*
D19*
%TO.N,GND*%
X47500000Y-72500000D03*
D18*
X68000000Y-105000000D03*
X70500000Y-65250000D03*
D19*
X87500000Y-97500000D03*
D18*
X68000000Y-65250000D03*
X62000000Y-94750000D03*
X69750000Y-92250000D03*
X68500000Y-93250000D03*
X58750000Y-76250000D03*
X62000000Y-66000000D03*
X65000000Y-67000000D03*
D19*
X82500000Y-97500000D03*
X42500000Y-97500000D03*
X52500000Y-102500000D03*
D18*
X79200000Y-80700000D03*
X83010002Y-82250000D03*
D19*
X72500000Y-77500000D03*
D18*
X71250000Y-66000000D03*
D19*
X50000000Y-90000000D03*
D18*
X62000000Y-68000000D03*
X59500000Y-65250000D03*
X72000000Y-92000000D03*
X79200000Y-86300000D03*
D19*
X72500000Y-87500000D03*
X60000000Y-85000000D03*
X62500000Y-107500000D03*
D18*
X83000000Y-80250000D03*
D19*
X42500000Y-77500000D03*
D18*
X61500000Y-93250000D03*
X53500000Y-102500000D03*
X68000000Y-75000000D03*
D19*
X87500000Y-77500000D03*
D18*
X64000000Y-73000000D03*
X83000000Y-88750000D03*
X61250000Y-65250000D03*
X83000000Y-78750000D03*
D19*
X42500000Y-87500000D03*
D18*
X68250000Y-77000000D03*
D19*
X70000000Y-80000000D03*
D18*
X69750000Y-77000000D03*
D19*
X62500000Y-87500000D03*
D18*
X83000000Y-81250000D03*
X63000000Y-74000000D03*
X55500000Y-103750000D03*
X61250000Y-66750000D03*
D19*
X87500000Y-82500000D03*
D18*
X63000000Y-67000000D03*
D19*
X80000000Y-105000000D03*
X67500000Y-87500000D03*
D18*
X62750000Y-92250000D03*
D19*
X85000000Y-80000000D03*
X47500000Y-97500000D03*
D18*
X69000000Y-94750000D03*
X68750000Y-77750000D03*
D19*
X85000000Y-95000000D03*
D18*
X58500000Y-65250000D03*
X76000000Y-108250000D03*
X83000000Y-86173000D03*
D19*
X50000000Y-105000000D03*
X47500000Y-87500000D03*
D18*
X59500000Y-92250000D03*
X78000000Y-108250000D03*
D19*
X45000000Y-100000000D03*
D18*
X74000000Y-108250000D03*
X83000000Y-89750000D03*
X59500000Y-66000000D03*
X58500000Y-92250000D03*
X53500000Y-103750000D03*
D19*
X52500000Y-107500000D03*
D18*
X64000000Y-68000000D03*
X56200000Y-90000000D03*
X66500000Y-105500000D03*
D19*
X42500000Y-92500000D03*
D18*
X63600000Y-98000000D03*
X66000000Y-68000000D03*
X83000000Y-91250000D03*
X66000000Y-73000000D03*
D19*
X75000000Y-95000000D03*
D18*
X67000000Y-72000000D03*
X70500000Y-77000000D03*
D19*
X72500000Y-107500000D03*
X42500000Y-82500000D03*
D18*
X58750000Y-77000000D03*
X59500000Y-77000000D03*
X83000000Y-83827000D03*
D19*
X55000000Y-100000000D03*
D18*
X65000000Y-92000000D03*
D19*
X45000000Y-90000000D03*
D18*
X67000000Y-67000000D03*
X58500000Y-66000000D03*
D19*
X84500000Y-70100000D03*
D18*
X69600000Y-79000000D03*
D19*
X67500000Y-107500000D03*
X45000000Y-85000000D03*
D18*
X62000000Y-75000000D03*
X59500000Y-76250000D03*
D19*
X45000000Y-95000000D03*
D18*
X65000000Y-72000000D03*
D19*
X85000000Y-85000000D03*
X70000000Y-85000000D03*
D18*
X63000000Y-72000000D03*
X55500000Y-102500000D03*
D19*
X47500000Y-92500000D03*
X55000000Y-75000000D03*
D18*
X83000000Y-85000000D03*
X62000000Y-73000000D03*
D19*
X65000000Y-85000000D03*
D18*
X71250000Y-65250000D03*
X66000000Y-66000000D03*
X68000000Y-66750000D03*
D19*
X55000000Y-105000000D03*
X85000000Y-90000000D03*
D18*
X78750000Y-75250000D03*
X59500000Y-94750000D03*
D19*
X87500000Y-87500000D03*
D18*
X58500000Y-94750000D03*
X69000000Y-77000000D03*
D19*
X57500000Y-107500000D03*
D18*
X69500000Y-105000000D03*
D19*
X55000000Y-85000000D03*
D18*
X83010002Y-87750000D03*
X76100000Y-82300000D03*
X68000000Y-66000000D03*
D19*
X87500000Y-70100000D03*
X85000000Y-75000000D03*
X87500000Y-92500000D03*
X50000000Y-75000000D03*
D18*
X65000000Y-74000000D03*
X61250000Y-66000000D03*
%TO.N,+3.3V*%
X81000000Y-90500000D03*
D19*
X66947500Y-79752500D03*
D18*
X52250000Y-70750000D03*
X59500000Y-91000000D03*
X60500000Y-90000000D03*
X56600000Y-74000000D03*
X78500000Y-88500000D03*
X78000000Y-87800000D03*
X52250000Y-69250000D03*
X81000000Y-79500000D03*
X71500000Y-75500000D03*
X71500000Y-70750000D03*
X76000000Y-102250000D03*
X76750000Y-75250000D03*
X59500000Y-90000000D03*
X52250000Y-67750000D03*
X73250000Y-66500000D03*
X75500000Y-88500000D03*
D19*
X44750000Y-80000000D03*
D18*
X56600000Y-75000000D03*
X52250000Y-66250000D03*
X60000000Y-90500000D03*
X77750000Y-75250000D03*
X78000000Y-79300000D03*
X60500000Y-91000000D03*
%TO.N,/MCU/PRESEN.A*%
X79500000Y-88200000D03*
X60300000Y-73300000D03*
%TO.N,/Board Perhipherals/~{RESET}*%
X68000000Y-72400000D03*
X77800000Y-72400000D03*
%TO.N,+1.8V*%
X67750000Y-90750000D03*
X80977156Y-89250001D03*
X80977156Y-80750001D03*
%TO.N,/MCU/I2C.EN*%
X71100000Y-76500000D03*
X68100000Y-74000000D03*
%TO.N,/MCU/BATT_SENSE*%
X59000000Y-72000000D03*
X58100000Y-89400000D03*
%TO.N,/MCU/DEBUG_LED2*%
X70400000Y-70400000D03*
X58750000Y-68000000D03*
%TO.N,/Board Perhipherals/SPI.CS*%
X66000000Y-78000000D03*
X67000000Y-74600000D03*
%TO.N,/Board Perhipherals/SPI.CLK*%
X66200000Y-74600000D03*
X63800000Y-77000000D03*
%TO.N,/Board Perhipherals/SPI.SDO*%
X64600000Y-74600000D03*
X62600000Y-76900000D03*
%TO.N,/MCU/DEBUG_LED3*%
X70400000Y-69699997D03*
X58750000Y-67000000D03*
%TO.N,/MCU/PRESEN.B*%
X61200000Y-72900000D03*
X79300000Y-81700000D03*
%TO.N,/MCU/I2C.~{RST}*%
X80250000Y-82250000D03*
X80250000Y-87750000D03*
X68100000Y-73200000D03*
X76250000Y-73200000D03*
%TO.N,/MCU/DEBUG_LED0*%
X58750000Y-70000000D03*
X68000000Y-71400000D03*
%TO.N,/MCU/DEBUG_LED1*%
X58750000Y-69000000D03*
X68000000Y-70600000D03*
%TO.N,/Board Perhipherals/SWD.IO*%
X77000000Y-66500000D03*
X72000000Y-67000000D03*
%TO.N,/Board Perhipherals/SWD.CLK*%
X77000000Y-67750000D03*
X70250000Y-66250000D03*
%TD*%
%TO.N,+5V*%
D20*
X72845608Y-102400000D02*
X83714002Y-91531605D01*
X83245607Y-78000000D02*
X82800000Y-78000000D01*
X70600000Y-102400000D02*
X69000000Y-104000000D01*
X83714002Y-91531605D02*
X83714002Y-78468395D01*
X83714002Y-78468395D02*
X83245607Y-78000000D01*
X83245607Y-92000000D02*
X83714002Y-91531605D01*
X70600000Y-102400000D02*
X72845608Y-102400000D01*
X82800000Y-92000000D02*
X83245607Y-92000000D01*
X62600000Y-103100000D02*
X62600000Y-102200000D01*
X69000000Y-104000000D02*
X63500000Y-104000000D01*
X63500000Y-104000000D02*
X62600000Y-103100000D01*
%TO.N,/MCU/PRESEN.A*%
D21*
X72500000Y-82300000D02*
X73600000Y-82300000D01*
X72000000Y-84000000D02*
X72000000Y-82800000D01*
X66000000Y-82300000D02*
X72500000Y-82300000D01*
X73600000Y-82300000D02*
X79500000Y-88200000D01*
X60300000Y-76600000D02*
X66000000Y-82300000D01*
X60300000Y-73300000D02*
X60300000Y-76600000D01*
X72000000Y-82800000D02*
X72500000Y-82300000D01*
%TO.N,/Board Perhipherals/~{RESET}*%
X68000000Y-72400000D02*
X77800000Y-72400000D01*
%TO.N,+1.8V*%
D20*
X80977156Y-89250001D02*
X80977156Y-80750001D01*
X80977156Y-89250001D02*
X79477157Y-90750000D01*
X79477157Y-90750000D02*
X67750000Y-90750000D01*
%TO.N,/MCU/I2C.EN*%
D21*
X68100000Y-74000000D02*
X68600000Y-74000000D01*
X68600000Y-74000000D02*
X71100000Y-76500000D01*
%TO.N,/MCU/BATT_SENSE*%
X58100000Y-72900000D02*
X59000000Y-72000000D01*
X58100000Y-89400000D02*
X58100000Y-72900000D01*
%TO.N,/MCU/DEBUG_LED2*%
X70000000Y-70400000D02*
X70400000Y-70400000D01*
X60550000Y-69800000D02*
X69400000Y-69800000D01*
X69400000Y-69800000D02*
X70000000Y-70400000D01*
X58750000Y-68000000D02*
X60550000Y-69800000D01*
%TO.N,/Board Perhipherals/SPI.CS*%
X66000000Y-78000000D02*
X67000000Y-77000000D01*
X67000000Y-77000000D02*
X67000000Y-74600000D01*
%TO.N,/Board Perhipherals/SPI.CLK*%
X63800000Y-77000000D02*
X66200000Y-74600000D01*
%TO.N,/Board Perhipherals/SPI.SDO*%
X62600000Y-76600000D02*
X62600000Y-76900000D01*
X64600000Y-74600000D02*
X62600000Y-76600000D01*
%TO.N,/MCU/DEBUG_LED3*%
X60800000Y-69000000D02*
X69700003Y-69000000D01*
X69700003Y-69000000D02*
X70400000Y-69699997D01*
X58800000Y-67000000D02*
X60800000Y-69000000D01*
X58750000Y-67000000D02*
X58800000Y-67000000D01*
%TO.N,/MCU/PRESEN.B*%
X72500000Y-81700000D02*
X79300000Y-81700000D01*
X61200000Y-76316002D02*
X66583998Y-81700000D01*
X72000000Y-81200000D02*
X72500000Y-81700000D01*
X72000000Y-80000000D02*
X72000000Y-81200000D01*
X66583998Y-81700000D02*
X72500000Y-81700000D01*
X61200000Y-72900000D02*
X61200000Y-76316002D01*
%TO.N,/MCU/I2C.~{RST}*%
X80250000Y-87750000D02*
X80250000Y-82250000D01*
X80950000Y-74950000D02*
X80250000Y-74950000D01*
X80250000Y-82250000D02*
X80250000Y-76500000D01*
X78500000Y-73200000D02*
X76250000Y-73200000D01*
X76250000Y-73200000D02*
X68100000Y-73200000D01*
X80250000Y-76500000D02*
X80250000Y-74950000D01*
X80250000Y-74950000D02*
X78500000Y-73200000D01*
X82000000Y-76000000D02*
X80950000Y-74950000D01*
%TO.N,/MCU/DEBUG_LED0*%
X60150000Y-71400000D02*
X68000000Y-71400000D01*
X58750000Y-70000000D02*
X60150000Y-71400000D01*
%TO.N,/MCU/DEBUG_LED1*%
X58750000Y-69000000D02*
X60350000Y-70600000D01*
X60350000Y-70600000D02*
X68000000Y-70600000D01*
%TO.N,/Board Perhipherals/SWD.IO*%
X72077000Y-67077000D02*
X76423000Y-67077000D01*
X76423000Y-67077000D02*
X77000000Y-66500000D01*
X72000000Y-67000000D02*
X72077000Y-67077000D01*
%TO.N,/Board Perhipherals/SWD.CLK*%
X70250000Y-66250000D02*
X71750000Y-67750000D01*
X71750000Y-67750000D02*
X77000000Y-67750000D01*
%TD*%
%TA.AperFunction,Conductor*%
%TO.N,GND*%
G36*
X78985569Y-82096571D02*
G01*
X78985648Y-82096436D01*
X78986206Y-82096758D01*
X78987659Y-82097185D01*
X78990936Y-82099489D01*
X78992684Y-82100498D01*
X78992686Y-82100500D01*
X79106814Y-82166392D01*
X79234108Y-82200500D01*
X79234110Y-82200500D01*
X79365890Y-82200500D01*
X79365892Y-82200500D01*
X79493186Y-82166392D01*
X79563500Y-82125795D01*
X79631399Y-82109323D01*
X79697426Y-82132175D01*
X79740617Y-82187096D01*
X79749500Y-82233183D01*
X79749500Y-82315891D01*
X79783608Y-82443187D01*
X79817959Y-82502684D01*
X79849500Y-82557314D01*
X79849501Y-82557315D01*
X79853564Y-82564352D01*
X79851400Y-82565601D01*
X79872069Y-82619055D01*
X79872500Y-82629380D01*
X79872500Y-87370619D01*
X79861006Y-87422758D01*
X79853731Y-87438454D01*
X79849500Y-87442686D01*
X79783608Y-87556814D01*
X79762676Y-87634931D01*
X79758177Y-87644641D01*
X79741918Y-87663194D01*
X79729080Y-87684256D01*
X79719296Y-87689008D01*
X79712128Y-87697189D01*
X79688420Y-87704006D01*
X79666233Y-87714785D01*
X79653115Y-87714160D01*
X79644980Y-87716500D01*
X79634159Y-87713257D01*
X79613579Y-87712277D01*
X79558043Y-87697397D01*
X79558688Y-87694989D01*
X79506251Y-87671781D01*
X79498669Y-87664804D01*
X74123046Y-82289181D01*
X74089561Y-82227858D01*
X74094545Y-82158166D01*
X74136417Y-82102233D01*
X74201881Y-82077816D01*
X74210727Y-82077500D01*
X78920620Y-82077500D01*
X78985569Y-82096571D01*
G37*
%TD.AperFunction*%
%TA.AperFunction,Conductor*%
G36*
X89442539Y-65019685D02*
G01*
X89488294Y-65072489D01*
X89499500Y-65124000D01*
X89499500Y-106996249D01*
X89499274Y-107003736D01*
X89481728Y-107293794D01*
X89479923Y-107308659D01*
X89428219Y-107590797D01*
X89424635Y-107605335D01*
X89339304Y-107879174D01*
X89333994Y-107893176D01*
X89216277Y-108154730D01*
X89209319Y-108167987D01*
X89060928Y-108413458D01*
X89052422Y-108425782D01*
X88875525Y-108651573D01*
X88865595Y-108662781D01*
X88662781Y-108865595D01*
X88651573Y-108875525D01*
X88425782Y-109052422D01*
X88413458Y-109060928D01*
X88167987Y-109209319D01*
X88154730Y-109216277D01*
X87893176Y-109333994D01*
X87879174Y-109339304D01*
X87605335Y-109424635D01*
X87590797Y-109428219D01*
X87308659Y-109479923D01*
X87293794Y-109481728D01*
X87003736Y-109499274D01*
X86996249Y-109499500D01*
X43003751Y-109499500D01*
X42996264Y-109499274D01*
X42706205Y-109481728D01*
X42691340Y-109479923D01*
X42409202Y-109428219D01*
X42394664Y-109424635D01*
X42120825Y-109339304D01*
X42106827Y-109333995D01*
X41954096Y-109265256D01*
X41845269Y-109216277D01*
X41832012Y-109209319D01*
X41586541Y-109060928D01*
X41574217Y-109052422D01*
X41348426Y-108875525D01*
X41337218Y-108865595D01*
X41134404Y-108662781D01*
X41124474Y-108651573D01*
X40947573Y-108425776D01*
X40939071Y-108413458D01*
X40790680Y-108167987D01*
X40783722Y-108154730D01*
X40666000Y-107893163D01*
X40660698Y-107879182D01*
X40575363Y-107605334D01*
X40571780Y-107590797D01*
X40520076Y-107308659D01*
X40518271Y-107293794D01*
X40500726Y-107003736D01*
X40500500Y-106996249D01*
X40500500Y-106068995D01*
X52899499Y-106068995D01*
X52926418Y-106204322D01*
X52926421Y-106204332D01*
X52979221Y-106331804D01*
X52979228Y-106331817D01*
X53055885Y-106446541D01*
X53055888Y-106446545D01*
X53153454Y-106544111D01*
X53153458Y-106544114D01*
X53268182Y-106620771D01*
X53268195Y-106620778D01*
X53395667Y-106673578D01*
X53395672Y-106673580D01*
X53395676Y-106673580D01*
X53395677Y-106673581D01*
X53531004Y-106700500D01*
X53531007Y-106700500D01*
X53668995Y-106700500D01*
X53760041Y-106682389D01*
X53804328Y-106673580D01*
X53931811Y-106620775D01*
X54046542Y-106544114D01*
X54144114Y-106446542D01*
X54220775Y-106331811D01*
X54273580Y-106204328D01*
X54300500Y-106068995D01*
X59699499Y-106068995D01*
X59726418Y-106204322D01*
X59726421Y-106204332D01*
X59779221Y-106331804D01*
X59779228Y-106331817D01*
X59855885Y-106446541D01*
X59855888Y-106446545D01*
X59953454Y-106544111D01*
X59953458Y-106544114D01*
X60068182Y-106620771D01*
X60068195Y-106620778D01*
X60195667Y-106673578D01*
X60195672Y-106673580D01*
X60195676Y-106673580D01*
X60195677Y-106673581D01*
X60331004Y-106700500D01*
X60331007Y-106700500D01*
X60468995Y-106700500D01*
X60560041Y-106682389D01*
X60604328Y-106673580D01*
X60731811Y-106620775D01*
X60846542Y-106544114D01*
X60944114Y-106446542D01*
X61020775Y-106331811D01*
X61073580Y-106204328D01*
X61100500Y-106068993D01*
X61100500Y-105931007D01*
X61100500Y-105931004D01*
X61073581Y-105795677D01*
X61073580Y-105795676D01*
X61073580Y-105795672D01*
X61073578Y-105795667D01*
X61020778Y-105668195D01*
X61020771Y-105668182D01*
X60944114Y-105553458D01*
X60944111Y-105553454D01*
X60846545Y-105455888D01*
X60846541Y-105455885D01*
X60731817Y-105379228D01*
X60731804Y-105379221D01*
X60604332Y-105326421D01*
X60604322Y-105326418D01*
X60468995Y-105299500D01*
X60468993Y-105299500D01*
X60331007Y-105299500D01*
X60331005Y-105299500D01*
X60195677Y-105326418D01*
X60195667Y-105326421D01*
X60068195Y-105379221D01*
X60068182Y-105379228D01*
X59953458Y-105455885D01*
X59953454Y-105455888D01*
X59855888Y-105553454D01*
X59855885Y-105553458D01*
X59779228Y-105668182D01*
X59779221Y-105668195D01*
X59726421Y-105795667D01*
X59726418Y-105795677D01*
X59699500Y-105931004D01*
X59699500Y-105931007D01*
X59699500Y-106068993D01*
X59699500Y-106068995D01*
X59699499Y-106068995D01*
X54300500Y-106068995D01*
X54300500Y-106068993D01*
X54300500Y-105931007D01*
X54300500Y-105931004D01*
X54273581Y-105795677D01*
X54273580Y-105795676D01*
X54273580Y-105795672D01*
X54273578Y-105795667D01*
X54220778Y-105668195D01*
X54220771Y-105668182D01*
X54144114Y-105553458D01*
X54144111Y-105553454D01*
X54046545Y-105455888D01*
X54046541Y-105455885D01*
X53931817Y-105379228D01*
X53931804Y-105379221D01*
X53804332Y-105326421D01*
X53804322Y-105326418D01*
X53668995Y-105299500D01*
X53668993Y-105299500D01*
X53531007Y-105299500D01*
X53531005Y-105299500D01*
X53395677Y-105326418D01*
X53395667Y-105326421D01*
X53268195Y-105379221D01*
X53268182Y-105379228D01*
X53153458Y-105455885D01*
X53153454Y-105455888D01*
X53055888Y-105553454D01*
X53055885Y-105553458D01*
X52979228Y-105668182D01*
X52979221Y-105668195D01*
X52926421Y-105795667D01*
X52926418Y-105795677D01*
X52899500Y-105931004D01*
X52899500Y-105931007D01*
X52899500Y-106068993D01*
X52899500Y-106068995D01*
X52899499Y-106068995D01*
X40500500Y-106068995D01*
X40500500Y-102127525D01*
X62049500Y-102127525D01*
X62049500Y-102272475D01*
X62061134Y-102315892D01*
X62089120Y-102420336D01*
X62088133Y-102420600D01*
X62095500Y-102457632D01*
X62095500Y-103166419D01*
X62129881Y-103294730D01*
X62154191Y-103336837D01*
X62196299Y-103409770D01*
X63190230Y-104403701D01*
X63305270Y-104470119D01*
X63433581Y-104504500D01*
X63433584Y-104504500D01*
X69066416Y-104504500D01*
X69066419Y-104504500D01*
X69194730Y-104470119D01*
X69236837Y-104445808D01*
X69309770Y-104403701D01*
X70772652Y-102940819D01*
X70833975Y-102907334D01*
X70860333Y-102904500D01*
X72912024Y-102904500D01*
X72912027Y-102904500D01*
X73040338Y-102870119D01*
X73082445Y-102845808D01*
X73155378Y-102803701D01*
X73774971Y-102184108D01*
X75499500Y-102184108D01*
X75499500Y-102315891D01*
X75533608Y-102443187D01*
X75541948Y-102457632D01*
X75599500Y-102557314D01*
X75692686Y-102650500D01*
X75806814Y-102716392D01*
X75934108Y-102750500D01*
X75934110Y-102750500D01*
X76065890Y-102750500D01*
X76065892Y-102750500D01*
X76193186Y-102716392D01*
X76307314Y-102650500D01*
X76400500Y-102557314D01*
X76466392Y-102443186D01*
X76500500Y-102315892D01*
X76500500Y-102184108D01*
X76466392Y-102056814D01*
X76400500Y-101942686D01*
X76307314Y-101849500D01*
X76250250Y-101816554D01*
X76193187Y-101783608D01*
X76129539Y-101766554D01*
X76065892Y-101749500D01*
X75934108Y-101749500D01*
X75806812Y-101783608D01*
X75692686Y-101849500D01*
X75692683Y-101849502D01*
X75599502Y-101942683D01*
X75599500Y-101942686D01*
X75533608Y-102056812D01*
X75499500Y-102184108D01*
X73774971Y-102184108D01*
X84117703Y-91841375D01*
X84137657Y-91806814D01*
X84184122Y-91726334D01*
X84210793Y-91626793D01*
X84218502Y-91598024D01*
X84218502Y-78401976D01*
X84196665Y-78320480D01*
X84184122Y-78273666D01*
X84117703Y-78158625D01*
X83555377Y-77596299D01*
X83529927Y-77581605D01*
X83482445Y-77554191D01*
X83482444Y-77554191D01*
X83440337Y-77529881D01*
X83440338Y-77529881D01*
X83408259Y-77521285D01*
X83312026Y-77495500D01*
X82733581Y-77495500D01*
X82605270Y-77529881D01*
X82605268Y-77529881D01*
X82605268Y-77529882D01*
X82490230Y-77596300D01*
X82490227Y-77596302D01*
X82396302Y-77690227D01*
X82396300Y-77690230D01*
X82329881Y-77805270D01*
X82295500Y-77933581D01*
X82295500Y-78066419D01*
X82329881Y-78194730D01*
X82396300Y-78309770D01*
X82490230Y-78403700D01*
X82605270Y-78470119D01*
X82733581Y-78504500D01*
X82985274Y-78504500D01*
X83014714Y-78513144D01*
X83044701Y-78519668D01*
X83049716Y-78523422D01*
X83052313Y-78524185D01*
X83072955Y-78540819D01*
X83173183Y-78641047D01*
X83206668Y-78702370D01*
X83209502Y-78728728D01*
X83209502Y-91271272D01*
X83189817Y-91338311D01*
X83173183Y-91358953D01*
X83072955Y-91459181D01*
X83011632Y-91492666D01*
X82985274Y-91495500D01*
X82733581Y-91495500D01*
X82605270Y-91529881D01*
X82605268Y-91529881D01*
X82605268Y-91529882D01*
X82490230Y-91596300D01*
X82490227Y-91596302D01*
X82396302Y-91690227D01*
X82396300Y-91690230D01*
X82329881Y-91805270D01*
X82295500Y-91933581D01*
X82295500Y-92066419D01*
X82312941Y-92131512D01*
X82311279Y-92201361D01*
X82280848Y-92251286D01*
X72672956Y-101859181D01*
X72611633Y-101892666D01*
X72585275Y-101895500D01*
X70533581Y-101895500D01*
X70405270Y-101929881D01*
X70363344Y-101954087D01*
X70326787Y-101975193D01*
X70290231Y-101996298D01*
X70290228Y-101996300D01*
X68827348Y-103459181D01*
X68766025Y-103492666D01*
X68739667Y-103495500D01*
X63760333Y-103495500D01*
X63693294Y-103475815D01*
X63672652Y-103459181D01*
X63140819Y-102927348D01*
X63107334Y-102866025D01*
X63104500Y-102839667D01*
X63104500Y-102465845D01*
X64137706Y-102465845D01*
X64266652Y-102519257D01*
X64266656Y-102519258D01*
X64421202Y-102549999D01*
X64421206Y-102550000D01*
X64578794Y-102550000D01*
X64578797Y-102549999D01*
X64733343Y-102519258D01*
X64733347Y-102519257D01*
X64862293Y-102465845D01*
X65137706Y-102465845D01*
X65266652Y-102519257D01*
X65266656Y-102519258D01*
X65421202Y-102549999D01*
X65421206Y-102550000D01*
X65578794Y-102550000D01*
X65578797Y-102549999D01*
X65733343Y-102519258D01*
X65733347Y-102519257D01*
X65862293Y-102465845D01*
X65500001Y-102103553D01*
X65500000Y-102103553D01*
X65137706Y-102465845D01*
X64862293Y-102465845D01*
X64500001Y-102103553D01*
X64500000Y-102103553D01*
X64137706Y-102465845D01*
X63104500Y-102465845D01*
X63104500Y-102457632D01*
X63109449Y-102422951D01*
X63112002Y-102414184D01*
X63112984Y-102412485D01*
X63150500Y-102272475D01*
X63150500Y-102127525D01*
X63112984Y-101987515D01*
X63110575Y-101983343D01*
X63040511Y-101861988D01*
X63040506Y-101861982D01*
X62938014Y-101759490D01*
X62812488Y-101687017D01*
X62812489Y-101687017D01*
X62801006Y-101683940D01*
X62753467Y-101671202D01*
X63700000Y-101671202D01*
X63700000Y-101828797D01*
X63730741Y-101983343D01*
X63730743Y-101983351D01*
X63784153Y-102112293D01*
X64146446Y-101750001D01*
X64146446Y-101749999D01*
X64116610Y-101720163D01*
X64350000Y-101720163D01*
X64350000Y-101779837D01*
X64372836Y-101834968D01*
X64415032Y-101877164D01*
X64470163Y-101900000D01*
X64529837Y-101900000D01*
X64584968Y-101877164D01*
X64627164Y-101834968D01*
X64650000Y-101779837D01*
X64650000Y-101749999D01*
X64853553Y-101749999D01*
X65000000Y-101896446D01*
X65146446Y-101750001D01*
X65146446Y-101750000D01*
X65116609Y-101720163D01*
X65350000Y-101720163D01*
X65350000Y-101779837D01*
X65372836Y-101834968D01*
X65415032Y-101877164D01*
X65470163Y-101900000D01*
X65529837Y-101900000D01*
X65584968Y-101877164D01*
X65627164Y-101834968D01*
X65650000Y-101779837D01*
X65650000Y-101749999D01*
X65853553Y-101749999D01*
X65853553Y-101750001D01*
X66215845Y-102112293D01*
X66269257Y-101983347D01*
X66269258Y-101983343D01*
X66299999Y-101828797D01*
X66300000Y-101828794D01*
X66300000Y-101671206D01*
X66299999Y-101671202D01*
X66269258Y-101516656D01*
X66269257Y-101516652D01*
X66215845Y-101387706D01*
X65853553Y-101749999D01*
X65650000Y-101749999D01*
X65650000Y-101720163D01*
X65627164Y-101665032D01*
X65584968Y-101622836D01*
X65529837Y-101600000D01*
X65470163Y-101600000D01*
X65415032Y-101622836D01*
X65372836Y-101665032D01*
X65350000Y-101720163D01*
X65116609Y-101720163D01*
X65000000Y-101603553D01*
X64853553Y-101749999D01*
X64650000Y-101749999D01*
X64650000Y-101720163D01*
X64627164Y-101665032D01*
X64584968Y-101622836D01*
X64529837Y-101600000D01*
X64470163Y-101600000D01*
X64415032Y-101622836D01*
X64372836Y-101665032D01*
X64350000Y-101720163D01*
X64116610Y-101720163D01*
X63784153Y-101387705D01*
X63730743Y-101516648D01*
X63730741Y-101516656D01*
X63700000Y-101671202D01*
X62753467Y-101671202D01*
X62672475Y-101649500D01*
X62527525Y-101649500D01*
X62398993Y-101683940D01*
X62387511Y-101687017D01*
X62261988Y-101759488D01*
X62261982Y-101759493D01*
X62159493Y-101861982D01*
X62159488Y-101861988D01*
X62087017Y-101987511D01*
X62087016Y-101987515D01*
X62049500Y-102127525D01*
X40500500Y-102127525D01*
X40500500Y-100965845D01*
X64137705Y-100965845D01*
X64139687Y-100975808D01*
X64139687Y-101024190D01*
X64137705Y-101034153D01*
X64500000Y-101396446D01*
X64500001Y-101396446D01*
X64854864Y-101041580D01*
X64872836Y-101084968D01*
X64915032Y-101127164D01*
X64970163Y-101150000D01*
X65029837Y-101150000D01*
X65084968Y-101127164D01*
X65127164Y-101084968D01*
X65145135Y-101041581D01*
X65500000Y-101396446D01*
X65500001Y-101396446D01*
X65862292Y-101034154D01*
X65860311Y-101024191D01*
X65860311Y-100975806D01*
X65862292Y-100965844D01*
X65500000Y-100603553D01*
X65145134Y-100958416D01*
X65127164Y-100915032D01*
X65084968Y-100872836D01*
X65029837Y-100850000D01*
X64970163Y-100850000D01*
X64915032Y-100872836D01*
X64872836Y-100915032D01*
X64854864Y-100958417D01*
X64500001Y-100603553D01*
X64500000Y-100603553D01*
X64137705Y-100965845D01*
X40500500Y-100965845D01*
X40500500Y-100171202D01*
X63700000Y-100171202D01*
X63700000Y-100328797D01*
X63730741Y-100483343D01*
X63730743Y-100483351D01*
X63784153Y-100612293D01*
X64146446Y-100250001D01*
X64146446Y-100249999D01*
X64116610Y-100220163D01*
X64350000Y-100220163D01*
X64350000Y-100279837D01*
X64372836Y-100334968D01*
X64415032Y-100377164D01*
X64470163Y-100400000D01*
X64529837Y-100400000D01*
X64584968Y-100377164D01*
X64627164Y-100334968D01*
X64650000Y-100279837D01*
X64650000Y-100249999D01*
X64853553Y-100249999D01*
X65000000Y-100396446D01*
X65146446Y-100250001D01*
X65146446Y-100250000D01*
X65116609Y-100220163D01*
X65350000Y-100220163D01*
X65350000Y-100279837D01*
X65372836Y-100334968D01*
X65415032Y-100377164D01*
X65470163Y-100400000D01*
X65529837Y-100400000D01*
X65584968Y-100377164D01*
X65627164Y-100334968D01*
X65650000Y-100279837D01*
X65650000Y-100249999D01*
X65853553Y-100249999D01*
X65853553Y-100250001D01*
X66215845Y-100612293D01*
X66269257Y-100483347D01*
X66269258Y-100483343D01*
X66299999Y-100328797D01*
X66300000Y-100328794D01*
X66300000Y-100171206D01*
X66299999Y-100171202D01*
X66269258Y-100016656D01*
X66269257Y-100016652D01*
X66215845Y-99887706D01*
X65853553Y-100249999D01*
X65650000Y-100249999D01*
X65650000Y-100220163D01*
X65627164Y-100165032D01*
X65584968Y-100122836D01*
X65529837Y-100100000D01*
X65470163Y-100100000D01*
X65415032Y-100122836D01*
X65372836Y-100165032D01*
X65350000Y-100220163D01*
X65116609Y-100220163D01*
X65000000Y-100103553D01*
X64853553Y-100249999D01*
X64650000Y-100249999D01*
X64650000Y-100220163D01*
X64627164Y-100165032D01*
X64584968Y-100122836D01*
X64529837Y-100100000D01*
X64470163Y-100100000D01*
X64415032Y-100122836D01*
X64372836Y-100165032D01*
X64350000Y-100220163D01*
X64116610Y-100220163D01*
X63784153Y-99887705D01*
X63730743Y-100016648D01*
X63730741Y-100016656D01*
X63700000Y-100171202D01*
X40500500Y-100171202D01*
X40500500Y-99534153D01*
X64137705Y-99534153D01*
X64500000Y-99896446D01*
X64500001Y-99896446D01*
X64862293Y-99534153D01*
X65137705Y-99534153D01*
X65500000Y-99896446D01*
X65500001Y-99896446D01*
X65862293Y-99534153D01*
X65733351Y-99480743D01*
X65733343Y-99480741D01*
X65578797Y-99450000D01*
X65421202Y-99450000D01*
X65266656Y-99480741D01*
X65266648Y-99480743D01*
X65137705Y-99534153D01*
X64862293Y-99534153D01*
X64733351Y-99480743D01*
X64733343Y-99480741D01*
X64578797Y-99450000D01*
X64421202Y-99450000D01*
X64266656Y-99480741D01*
X64266648Y-99480743D01*
X64137705Y-99534153D01*
X40500500Y-99534153D01*
X40500500Y-95749999D01*
X46100884Y-95749999D01*
X46100885Y-95750000D01*
X47169670Y-95750000D01*
X47149925Y-95769745D01*
X47100556Y-95855255D01*
X47075000Y-95950630D01*
X47075000Y-96049370D01*
X47100556Y-96144745D01*
X47149925Y-96230255D01*
X47169670Y-96250000D01*
X46100885Y-96250000D01*
X46102085Y-96257584D01*
X46155591Y-96422255D01*
X46234195Y-96576524D01*
X46335967Y-96716602D01*
X46458397Y-96839032D01*
X46598475Y-96940804D01*
X46752742Y-97019408D01*
X46917415Y-97072914D01*
X47088429Y-97100000D01*
X47200000Y-97100000D01*
X47200000Y-96280330D01*
X47219745Y-96300075D01*
X47305255Y-96349444D01*
X47400630Y-96375000D01*
X47499370Y-96375000D01*
X47594745Y-96349444D01*
X47680255Y-96300075D01*
X47700000Y-96280330D01*
X47700000Y-97100000D01*
X47811571Y-97100000D01*
X47982584Y-97072914D01*
X48147257Y-97019408D01*
X48301524Y-96940804D01*
X48441602Y-96839032D01*
X48564032Y-96716602D01*
X48665804Y-96576524D01*
X48744408Y-96422255D01*
X48797914Y-96257584D01*
X48799115Y-96250000D01*
X47730330Y-96250000D01*
X47750075Y-96230255D01*
X47799444Y-96144745D01*
X47825000Y-96049370D01*
X47825000Y-95950630D01*
X47799444Y-95855255D01*
X47750075Y-95769745D01*
X47730330Y-95750000D01*
X48799115Y-95750000D01*
X48799115Y-95749999D01*
X48797914Y-95742415D01*
X48744408Y-95577744D01*
X48669203Y-95430146D01*
X48669202Y-95430144D01*
X48665805Y-95423478D01*
X48632150Y-95377155D01*
X50035000Y-95377155D01*
X50035000Y-96025000D01*
X50951988Y-96025000D01*
X50919075Y-96082007D01*
X50885000Y-96209174D01*
X50885000Y-96340826D01*
X50919075Y-96467993D01*
X50951988Y-96525000D01*
X50035000Y-96525000D01*
X50035000Y-97172844D01*
X50041401Y-97232372D01*
X50041403Y-97232379D01*
X50091645Y-97367086D01*
X50091649Y-97367093D01*
X50177809Y-97482187D01*
X50177812Y-97482190D01*
X50292906Y-97568350D01*
X50292913Y-97568354D01*
X50427620Y-97618596D01*
X50427627Y-97618598D01*
X50487155Y-97624999D01*
X50487172Y-97625000D01*
X51135000Y-97625000D01*
X51135000Y-96708012D01*
X51192007Y-96740925D01*
X51319174Y-96775000D01*
X51450826Y-96775000D01*
X51577993Y-96740925D01*
X51635000Y-96708012D01*
X51635000Y-97625000D01*
X52282828Y-97625000D01*
X52282844Y-97624999D01*
X52342372Y-97618598D01*
X52342379Y-97618596D01*
X52477086Y-97568354D01*
X52477093Y-97568350D01*
X52592187Y-97482190D01*
X52592190Y-97482187D01*
X52678350Y-97367093D01*
X52678354Y-97367086D01*
X52728596Y-97232379D01*
X52728598Y-97232372D01*
X52734999Y-97172844D01*
X52735000Y-97172827D01*
X52735000Y-96525000D01*
X51818012Y-96525000D01*
X51850925Y-96467993D01*
X51885000Y-96340826D01*
X51885000Y-96209174D01*
X51850925Y-96082007D01*
X51818012Y-96025000D01*
X52735000Y-96025000D01*
X52735000Y-95377172D01*
X52734999Y-95377155D01*
X52728598Y-95317627D01*
X52728596Y-95317620D01*
X52678354Y-95182913D01*
X52678350Y-95182906D01*
X52592190Y-95067812D01*
X52592187Y-95067809D01*
X52477093Y-94981649D01*
X52477086Y-94981645D01*
X52342379Y-94931403D01*
X52342372Y-94931401D01*
X52282844Y-94925000D01*
X51990051Y-94925000D01*
X51923012Y-94905315D01*
X51877257Y-94852511D01*
X51867313Y-94783353D01*
X51896338Y-94719797D01*
X51933756Y-94690515D01*
X51936471Y-94689131D01*
X51961788Y-94676232D01*
X52101928Y-94574414D01*
X52224414Y-94451928D01*
X52326232Y-94311788D01*
X52404873Y-94157445D01*
X52458402Y-93992701D01*
X52485500Y-93821611D01*
X52485500Y-93648389D01*
X52458402Y-93477299D01*
X52404873Y-93312555D01*
X52326232Y-93158212D01*
X52224414Y-93018072D01*
X52101928Y-92895586D01*
X51961788Y-92793768D01*
X51807445Y-92715127D01*
X51642701Y-92661598D01*
X51642699Y-92661597D01*
X51642698Y-92661597D01*
X51511271Y-92640781D01*
X51471611Y-92634500D01*
X51298389Y-92634500D01*
X51258728Y-92640781D01*
X51127302Y-92661597D01*
X50962552Y-92715128D01*
X50808211Y-92793768D01*
X50728256Y-92851859D01*
X50668072Y-92895586D01*
X50668070Y-92895588D01*
X50668069Y-92895588D01*
X50545588Y-93018069D01*
X50545588Y-93018070D01*
X50545586Y-93018072D01*
X50501859Y-93078256D01*
X50443768Y-93158211D01*
X50365128Y-93312552D01*
X50311597Y-93477302D01*
X50301268Y-93542517D01*
X50284500Y-93648389D01*
X50284500Y-93821611D01*
X50311598Y-93992701D01*
X50365127Y-94157445D01*
X50443768Y-94311788D01*
X50545586Y-94451928D01*
X50668072Y-94574414D01*
X50808212Y-94676232D01*
X50831213Y-94687951D01*
X50836244Y-94690515D01*
X50887040Y-94738490D01*
X50903835Y-94806311D01*
X50881297Y-94872446D01*
X50826582Y-94915897D01*
X50779949Y-94925000D01*
X50487155Y-94925000D01*
X50427627Y-94931401D01*
X50427620Y-94931403D01*
X50292913Y-94981645D01*
X50292906Y-94981649D01*
X50177812Y-95067809D01*
X50177809Y-95067812D01*
X50091649Y-95182906D01*
X50091645Y-95182913D01*
X50041403Y-95317620D01*
X50041401Y-95317627D01*
X50035000Y-95377155D01*
X48632150Y-95377155D01*
X48564032Y-95283397D01*
X48441602Y-95160967D01*
X48301521Y-95059194D01*
X48258836Y-95037444D01*
X48208041Y-94989470D01*
X48191246Y-94921648D01*
X48213784Y-94855514D01*
X48268499Y-94812063D01*
X48271800Y-94810778D01*
X48317326Y-94793798D01*
X48317326Y-94793797D01*
X48317331Y-94793796D01*
X48432546Y-94707546D01*
X48518796Y-94592331D01*
X48569091Y-94457483D01*
X48575500Y-94397873D01*
X48575499Y-93602128D01*
X48569091Y-93542517D01*
X48544767Y-93477302D01*
X48518797Y-93407671D01*
X48518793Y-93407664D01*
X48432547Y-93292455D01*
X48432544Y-93292452D01*
X48317335Y-93206206D01*
X48317328Y-93206202D01*
X48182482Y-93155908D01*
X48182483Y-93155908D01*
X48122883Y-93149501D01*
X48122881Y-93149500D01*
X48122873Y-93149500D01*
X48122864Y-93149500D01*
X46777129Y-93149500D01*
X46777123Y-93149501D01*
X46717516Y-93155908D01*
X46582671Y-93206202D01*
X46582664Y-93206206D01*
X46467455Y-93292452D01*
X46467452Y-93292455D01*
X46381206Y-93407664D01*
X46381202Y-93407671D01*
X46330908Y-93542517D01*
X46324501Y-93602116D01*
X46324501Y-93602123D01*
X46324500Y-93602135D01*
X46324500Y-94397870D01*
X46324501Y-94397876D01*
X46330908Y-94457483D01*
X46381202Y-94592328D01*
X46381206Y-94592335D01*
X46467452Y-94707544D01*
X46467455Y-94707547D01*
X46582664Y-94793793D01*
X46582673Y-94793798D01*
X46628199Y-94810778D01*
X46684133Y-94852649D01*
X46708551Y-94918113D01*
X46693700Y-94986386D01*
X46644295Y-95035792D01*
X46641164Y-95037444D01*
X46598475Y-95059195D01*
X46458397Y-95160967D01*
X46335967Y-95283397D01*
X46234195Y-95423475D01*
X46155591Y-95577744D01*
X46102085Y-95742415D01*
X46100884Y-95749999D01*
X40500500Y-95749999D01*
X40500500Y-89934108D01*
X58999500Y-89934108D01*
X58999500Y-90065891D01*
X59033608Y-90193187D01*
X59062175Y-90242666D01*
X59099500Y-90307314D01*
X59099502Y-90307316D01*
X59192687Y-90400501D01*
X59194158Y-90401630D01*
X59195083Y-90402897D01*
X59198433Y-90406247D01*
X59197910Y-90406769D01*
X59235356Y-90458060D01*
X59239506Y-90527807D01*
X59205289Y-90588725D01*
X59194158Y-90598370D01*
X59192687Y-90599498D01*
X59099502Y-90692683D01*
X59099500Y-90692686D01*
X59033608Y-90806812D01*
X58999500Y-90934108D01*
X58999500Y-91065891D01*
X59033608Y-91193187D01*
X59049158Y-91220119D01*
X59099500Y-91307314D01*
X59192686Y-91400500D01*
X59306814Y-91466392D01*
X59434108Y-91500500D01*
X59434110Y-91500500D01*
X59565890Y-91500500D01*
X59565892Y-91500500D01*
X59693186Y-91466392D01*
X59807314Y-91400500D01*
X59900500Y-91307314D01*
X59900504Y-91307306D01*
X59901625Y-91305847D01*
X59902892Y-91304921D01*
X59906247Y-91301567D01*
X59906770Y-91302090D01*
X59958053Y-91264645D01*
X60027799Y-91260491D01*
X60088719Y-91294704D01*
X60098375Y-91305847D01*
X60099498Y-91307311D01*
X60099500Y-91307314D01*
X60192686Y-91400500D01*
X60306814Y-91466392D01*
X60434108Y-91500500D01*
X60434110Y-91500500D01*
X60565890Y-91500500D01*
X60565892Y-91500500D01*
X60693186Y-91466392D01*
X60807314Y-91400500D01*
X60900500Y-91307314D01*
X60966392Y-91193186D01*
X61000500Y-91065892D01*
X61000500Y-90934108D01*
X60966392Y-90806814D01*
X60900500Y-90692686D01*
X60807314Y-90599500D01*
X60807311Y-90599498D01*
X60805847Y-90598375D01*
X60804921Y-90597107D01*
X60801567Y-90593753D01*
X60802090Y-90593229D01*
X60764645Y-90541947D01*
X60760491Y-90472201D01*
X60794704Y-90411281D01*
X60805847Y-90401625D01*
X60807306Y-90400504D01*
X60807314Y-90400500D01*
X60900500Y-90307314D01*
X60966392Y-90193186D01*
X61000500Y-90065892D01*
X61000500Y-89934108D01*
X60966392Y-89806814D01*
X60900500Y-89692686D01*
X60807314Y-89599500D01*
X60738498Y-89559769D01*
X60693187Y-89533608D01*
X60629539Y-89516554D01*
X60565892Y-89499500D01*
X60434108Y-89499500D01*
X60306812Y-89533608D01*
X60192686Y-89599500D01*
X60192683Y-89599502D01*
X60099498Y-89692687D01*
X60098370Y-89694158D01*
X60097102Y-89695083D01*
X60093753Y-89698433D01*
X60093230Y-89697910D01*
X60041940Y-89735356D01*
X59972193Y-89739506D01*
X59911275Y-89705289D01*
X59901630Y-89694158D01*
X59900501Y-89692687D01*
X59807316Y-89599502D01*
X59807314Y-89599500D01*
X59738498Y-89559769D01*
X59693187Y-89533608D01*
X59629539Y-89516554D01*
X59565892Y-89499500D01*
X59434108Y-89499500D01*
X59306812Y-89533608D01*
X59192686Y-89599500D01*
X59192683Y-89599502D01*
X59099502Y-89692683D01*
X59099500Y-89692686D01*
X59033608Y-89806812D01*
X58999500Y-89934108D01*
X40500500Y-89934108D01*
X40500500Y-89334108D01*
X57599500Y-89334108D01*
X57599500Y-89465892D01*
X57605113Y-89486840D01*
X57633608Y-89593187D01*
X57666554Y-89650250D01*
X57699500Y-89707314D01*
X57792686Y-89800500D01*
X57891521Y-89857563D01*
X57906810Y-89866390D01*
X57906814Y-89866392D01*
X58034108Y-89900500D01*
X58034110Y-89900500D01*
X58165890Y-89900500D01*
X58165892Y-89900500D01*
X58293186Y-89866392D01*
X58407314Y-89800500D01*
X58500500Y-89707314D01*
X58566392Y-89593186D01*
X58600500Y-89465892D01*
X58600500Y-89334108D01*
X58566392Y-89206814D01*
X58500500Y-89092686D01*
X58500498Y-89092684D01*
X58496436Y-89085648D01*
X58498596Y-89084400D01*
X58477929Y-89030924D01*
X58477500Y-89020619D01*
X58477500Y-88434108D01*
X74999500Y-88434108D01*
X74999500Y-88565891D01*
X75033608Y-88693187D01*
X75066554Y-88750250D01*
X75099500Y-88807314D01*
X75192686Y-88900500D01*
X75306814Y-88966392D01*
X75434108Y-89000500D01*
X75434110Y-89000500D01*
X75565890Y-89000500D01*
X75565892Y-89000500D01*
X75693186Y-88966392D01*
X75807314Y-88900500D01*
X75900500Y-88807314D01*
X75966392Y-88693186D01*
X76000500Y-88565892D01*
X76000500Y-88434108D01*
X75966392Y-88306814D01*
X75900500Y-88192686D01*
X75807314Y-88099500D01*
X75750250Y-88066554D01*
X75693187Y-88033608D01*
X75629539Y-88016554D01*
X75565892Y-87999500D01*
X75434108Y-87999500D01*
X75306812Y-88033608D01*
X75192686Y-88099500D01*
X75192683Y-88099502D01*
X75099502Y-88192683D01*
X75099500Y-88192686D01*
X75033608Y-88306812D01*
X74999500Y-88434108D01*
X58477500Y-88434108D01*
X58477500Y-73107727D01*
X58497185Y-73040688D01*
X58513819Y-73020046D01*
X58753126Y-72780739D01*
X58998671Y-72535193D01*
X59058082Y-72502752D01*
X59058042Y-72502603D01*
X59058659Y-72502437D01*
X59059992Y-72501710D01*
X59063945Y-72501021D01*
X59065889Y-72500500D01*
X59065892Y-72500500D01*
X59193186Y-72466392D01*
X59307314Y-72400500D01*
X59400500Y-72307314D01*
X59466392Y-72193186D01*
X59500500Y-72065892D01*
X59500500Y-71934108D01*
X59466392Y-71806814D01*
X59400500Y-71692686D01*
X59307314Y-71599500D01*
X59250250Y-71566554D01*
X59193187Y-71533608D01*
X59129539Y-71516554D01*
X59065892Y-71499500D01*
X58934108Y-71499500D01*
X58806812Y-71533608D01*
X58692686Y-71599500D01*
X58692683Y-71599502D01*
X58599502Y-71692683D01*
X58599500Y-71692686D01*
X58533608Y-71806812D01*
X58497397Y-71941958D01*
X58494989Y-71941312D01*
X58471778Y-71993751D01*
X58464804Y-72001330D01*
X57797927Y-72668207D01*
X57797925Y-72668210D01*
X57748225Y-72754291D01*
X57748225Y-72754294D01*
X57722500Y-72850301D01*
X57722500Y-89020619D01*
X57703428Y-89085569D01*
X57703564Y-89085648D01*
X57703240Y-89086207D01*
X57702815Y-89087658D01*
X57700512Y-89090932D01*
X57633608Y-89206812D01*
X57604240Y-89316417D01*
X57599500Y-89334108D01*
X40500500Y-89334108D01*
X40500500Y-79927525D01*
X44199500Y-79927525D01*
X44199500Y-80072475D01*
X44231798Y-80193011D01*
X44237017Y-80212488D01*
X44309488Y-80338011D01*
X44309490Y-80338013D01*
X44309491Y-80338015D01*
X44411985Y-80440509D01*
X44411986Y-80440510D01*
X44411988Y-80440511D01*
X44537511Y-80512982D01*
X44537512Y-80512982D01*
X44537515Y-80512984D01*
X44677525Y-80550500D01*
X44677528Y-80550500D01*
X44822472Y-80550500D01*
X44822475Y-80550500D01*
X44962485Y-80512984D01*
X45088015Y-80440509D01*
X45190509Y-80338015D01*
X45262984Y-80212485D01*
X45300500Y-80072475D01*
X45300500Y-79927525D01*
X45262984Y-79787515D01*
X45200924Y-79680025D01*
X45190511Y-79661988D01*
X45190506Y-79661982D01*
X45088017Y-79559493D01*
X45088011Y-79559488D01*
X44962488Y-79487017D01*
X44962489Y-79487017D01*
X44951006Y-79483940D01*
X44822475Y-79449500D01*
X44677525Y-79449500D01*
X44548993Y-79483940D01*
X44537511Y-79487017D01*
X44411988Y-79559488D01*
X44411982Y-79559493D01*
X44309493Y-79661982D01*
X44309488Y-79661988D01*
X44237017Y-79787511D01*
X44237016Y-79787515D01*
X44199500Y-79927525D01*
X40500500Y-79927525D01*
X40500500Y-73934108D01*
X56099500Y-73934108D01*
X56099500Y-74065891D01*
X56133608Y-74193187D01*
X56140143Y-74204505D01*
X56199500Y-74307314D01*
X56199502Y-74307316D01*
X56292687Y-74400501D01*
X56294158Y-74401630D01*
X56295083Y-74402897D01*
X56298433Y-74406247D01*
X56297910Y-74406769D01*
X56335356Y-74458060D01*
X56339506Y-74527807D01*
X56305289Y-74588725D01*
X56294158Y-74598370D01*
X56292687Y-74599498D01*
X56199502Y-74692683D01*
X56199500Y-74692686D01*
X56133608Y-74806812D01*
X56104773Y-74914430D01*
X56099500Y-74934108D01*
X56099500Y-75065892D01*
X56110345Y-75106365D01*
X56133608Y-75193187D01*
X56152733Y-75226311D01*
X56199500Y-75307314D01*
X56292686Y-75400500D01*
X56406814Y-75466392D01*
X56534108Y-75500500D01*
X56534110Y-75500500D01*
X56665890Y-75500500D01*
X56665892Y-75500500D01*
X56793186Y-75466392D01*
X56907314Y-75400500D01*
X57000500Y-75307314D01*
X57066392Y-75193186D01*
X57100500Y-75065892D01*
X57100500Y-74934108D01*
X57066392Y-74806814D01*
X57000500Y-74692686D01*
X56907314Y-74599500D01*
X56907311Y-74599498D01*
X56905847Y-74598375D01*
X56904921Y-74597107D01*
X56901567Y-74593753D01*
X56902090Y-74593229D01*
X56864645Y-74541947D01*
X56860491Y-74472201D01*
X56894704Y-74411281D01*
X56905847Y-74401625D01*
X56907306Y-74400504D01*
X56907314Y-74400500D01*
X57000500Y-74307314D01*
X57066392Y-74193186D01*
X57100500Y-74065892D01*
X57100500Y-73934108D01*
X57066392Y-73806814D01*
X57000500Y-73692686D01*
X56907314Y-73599500D01*
X56850250Y-73566554D01*
X56793187Y-73533608D01*
X56729539Y-73516554D01*
X56665892Y-73499500D01*
X56534108Y-73499500D01*
X56406812Y-73533608D01*
X56292686Y-73599500D01*
X56292683Y-73599502D01*
X56199502Y-73692683D01*
X56199500Y-73692686D01*
X56133608Y-73806812D01*
X56099500Y-73934108D01*
X40500500Y-73934108D01*
X40500500Y-70684108D01*
X51749500Y-70684108D01*
X51749500Y-70815891D01*
X51783608Y-70943187D01*
X51803419Y-70977500D01*
X51849500Y-71057314D01*
X51942686Y-71150500D01*
X52056814Y-71216392D01*
X52184108Y-71250500D01*
X52184110Y-71250500D01*
X52315890Y-71250500D01*
X52315892Y-71250500D01*
X52443186Y-71216392D01*
X52557314Y-71150500D01*
X52650500Y-71057314D01*
X52716392Y-70943186D01*
X52750500Y-70815892D01*
X52750500Y-70684108D01*
X52716392Y-70556814D01*
X52650500Y-70442686D01*
X52557314Y-70349500D01*
X52500250Y-70316554D01*
X52443187Y-70283608D01*
X52379539Y-70266554D01*
X52315892Y-70249500D01*
X52184108Y-70249500D01*
X52056812Y-70283608D01*
X51942686Y-70349500D01*
X51942683Y-70349502D01*
X51849502Y-70442683D01*
X51849500Y-70442686D01*
X51783608Y-70556812D01*
X51749500Y-70684108D01*
X40500500Y-70684108D01*
X40500500Y-69184108D01*
X51749500Y-69184108D01*
X51749500Y-69315892D01*
X51760571Y-69357210D01*
X51783608Y-69443187D01*
X51797006Y-69466392D01*
X51849500Y-69557314D01*
X51942686Y-69650500D01*
X52056814Y-69716392D01*
X52184108Y-69750500D01*
X52184110Y-69750500D01*
X52315890Y-69750500D01*
X52315892Y-69750500D01*
X52443186Y-69716392D01*
X52557314Y-69650500D01*
X52650500Y-69557314D01*
X52716392Y-69443186D01*
X52750500Y-69315892D01*
X52750500Y-69184108D01*
X52716392Y-69056814D01*
X52650500Y-68942686D01*
X52557314Y-68849500D01*
X52483380Y-68806814D01*
X52443187Y-68783608D01*
X52379539Y-68766554D01*
X52315892Y-68749500D01*
X52184108Y-68749500D01*
X52056812Y-68783608D01*
X51942686Y-68849500D01*
X51942683Y-68849502D01*
X51849502Y-68942683D01*
X51849500Y-68942686D01*
X51783608Y-69056812D01*
X51754673Y-69164801D01*
X51749500Y-69184108D01*
X40500500Y-69184108D01*
X40500500Y-67684108D01*
X51749500Y-67684108D01*
X51749500Y-67815891D01*
X51783608Y-67943187D01*
X51816554Y-68000250D01*
X51849500Y-68057314D01*
X51942686Y-68150500D01*
X52056814Y-68216392D01*
X52184108Y-68250500D01*
X52184110Y-68250500D01*
X52315890Y-68250500D01*
X52315892Y-68250500D01*
X52443186Y-68216392D01*
X52557314Y-68150500D01*
X52650500Y-68057314D01*
X52716392Y-67943186D01*
X52750500Y-67815892D01*
X52750500Y-67684108D01*
X52716392Y-67556814D01*
X52650500Y-67442686D01*
X52557314Y-67349500D01*
X52500250Y-67316554D01*
X52443187Y-67283608D01*
X52379539Y-67266554D01*
X52315892Y-67249500D01*
X52184108Y-67249500D01*
X52056812Y-67283608D01*
X51942686Y-67349500D01*
X51942683Y-67349502D01*
X51849502Y-67442683D01*
X51849500Y-67442686D01*
X51783608Y-67556812D01*
X51749500Y-67684108D01*
X40500500Y-67684108D01*
X40500500Y-66934108D01*
X58249500Y-66934108D01*
X58249500Y-67065892D01*
X58266554Y-67129539D01*
X58283608Y-67193187D01*
X58304843Y-67229966D01*
X58349500Y-67307314D01*
X58349502Y-67307316D01*
X58442687Y-67400501D01*
X58444158Y-67401630D01*
X58445083Y-67402897D01*
X58448433Y-67406247D01*
X58447910Y-67406769D01*
X58485356Y-67458060D01*
X58489506Y-67527807D01*
X58455289Y-67588725D01*
X58444158Y-67598370D01*
X58442687Y-67599498D01*
X58349502Y-67692683D01*
X58349500Y-67692686D01*
X58283608Y-67806812D01*
X58249500Y-67934108D01*
X58249500Y-68065892D01*
X58266008Y-68127500D01*
X58283608Y-68193187D01*
X58297005Y-68216391D01*
X58349500Y-68307314D01*
X58349502Y-68307316D01*
X58442687Y-68400501D01*
X58444158Y-68401630D01*
X58445083Y-68402897D01*
X58448433Y-68406247D01*
X58447910Y-68406769D01*
X58485356Y-68458060D01*
X58489506Y-68527807D01*
X58455289Y-68588725D01*
X58444158Y-68598370D01*
X58442687Y-68599498D01*
X58349502Y-68692683D01*
X58349500Y-68692686D01*
X58283608Y-68806812D01*
X58249500Y-68934108D01*
X58249500Y-69065891D01*
X58283608Y-69193187D01*
X58306944Y-69233605D01*
X58349500Y-69307314D01*
X58349502Y-69307316D01*
X58442687Y-69400501D01*
X58444158Y-69401630D01*
X58445083Y-69402897D01*
X58448433Y-69406247D01*
X58447910Y-69406769D01*
X58485356Y-69458060D01*
X58489506Y-69527807D01*
X58455289Y-69588725D01*
X58444158Y-69598370D01*
X58442687Y-69599498D01*
X58349502Y-69692683D01*
X58349500Y-69692686D01*
X58283608Y-69806812D01*
X58260466Y-69893183D01*
X58249500Y-69934108D01*
X58249500Y-70065892D01*
X58261854Y-70111998D01*
X58283608Y-70193187D01*
X58291474Y-70206811D01*
X58349500Y-70307314D01*
X58442686Y-70400500D01*
X58541521Y-70457563D01*
X58551787Y-70463490D01*
X58556814Y-70466392D01*
X58684108Y-70500500D01*
X58684109Y-70500500D01*
X58691958Y-70502603D01*
X58691311Y-70505015D01*
X58743727Y-70528200D01*
X58751330Y-70535195D01*
X59918210Y-71702075D01*
X60004290Y-71751774D01*
X60100301Y-71777500D01*
X60199699Y-71777500D01*
X67616710Y-71777500D01*
X67683749Y-71797185D01*
X67729504Y-71849989D01*
X67739448Y-71919147D01*
X67710423Y-71982703D01*
X67694154Y-71998031D01*
X67599502Y-72092683D01*
X67599500Y-72092686D01*
X67533608Y-72206812D01*
X67499500Y-72334108D01*
X67499500Y-72465891D01*
X67533608Y-72593187D01*
X67558615Y-72636500D01*
X67599500Y-72707314D01*
X67599502Y-72707316D01*
X67663467Y-72771281D01*
X67696952Y-72832604D01*
X67691968Y-72902296D01*
X67683174Y-72920961D01*
X67633608Y-73006811D01*
X67599500Y-73134108D01*
X67599500Y-73265891D01*
X67633608Y-73393187D01*
X67666554Y-73450250D01*
X67699500Y-73507314D01*
X67699502Y-73507316D01*
X67704505Y-73512319D01*
X67737990Y-73573642D01*
X67733006Y-73643334D01*
X67704505Y-73687681D01*
X67699502Y-73692683D01*
X67699500Y-73692686D01*
X67633608Y-73806812D01*
X67599500Y-73934108D01*
X67599500Y-74065891D01*
X67633608Y-74193187D01*
X67640143Y-74204505D01*
X67699500Y-74307314D01*
X67792686Y-74400500D01*
X67906814Y-74466392D01*
X68034108Y-74500500D01*
X68034110Y-74500500D01*
X68165890Y-74500500D01*
X68165892Y-74500500D01*
X68293186Y-74466392D01*
X68362522Y-74426360D01*
X68430420Y-74409888D01*
X68496447Y-74432740D01*
X68512202Y-74446067D01*
X70564804Y-76498669D01*
X70597246Y-76558082D01*
X70597397Y-76558042D01*
X70597563Y-76558663D01*
X70598289Y-76559992D01*
X70598977Y-76563940D01*
X70633608Y-76693187D01*
X70641476Y-76706814D01*
X70699500Y-76807314D01*
X70792686Y-76900500D01*
X70906814Y-76966392D01*
X71034108Y-77000500D01*
X71034110Y-77000500D01*
X71165890Y-77000500D01*
X71165892Y-77000500D01*
X71293186Y-76966392D01*
X71407314Y-76900500D01*
X71500500Y-76807314D01*
X71566392Y-76693186D01*
X71600500Y-76565892D01*
X71600500Y-76434108D01*
X71566392Y-76306814D01*
X71500500Y-76192686D01*
X71500498Y-76192684D01*
X71496436Y-76185648D01*
X71498267Y-76184590D01*
X71477111Y-76129884D01*
X71491141Y-76061438D01*
X71539949Y-76011442D01*
X71568580Y-75999779D01*
X71693186Y-75966392D01*
X71807314Y-75900500D01*
X71900500Y-75807314D01*
X71966392Y-75693186D01*
X72000500Y-75565892D01*
X72000500Y-75434108D01*
X71966392Y-75306814D01*
X71900500Y-75192686D01*
X71891922Y-75184108D01*
X76249500Y-75184108D01*
X76249500Y-75315892D01*
X76254598Y-75334919D01*
X76283608Y-75443187D01*
X76293735Y-75460727D01*
X76349500Y-75557314D01*
X76442686Y-75650500D01*
X76556814Y-75716392D01*
X76684108Y-75750500D01*
X76684110Y-75750500D01*
X76815890Y-75750500D01*
X76815892Y-75750500D01*
X76943186Y-75716392D01*
X77057314Y-75650500D01*
X77150500Y-75557314D01*
X77150504Y-75557306D01*
X77151625Y-75555847D01*
X77152892Y-75554921D01*
X77156247Y-75551567D01*
X77156770Y-75552090D01*
X77208053Y-75514645D01*
X77277799Y-75510491D01*
X77338719Y-75544704D01*
X77348375Y-75555847D01*
X77349498Y-75557311D01*
X77349500Y-75557314D01*
X77442686Y-75650500D01*
X77556814Y-75716392D01*
X77684108Y-75750500D01*
X77684110Y-75750500D01*
X77815890Y-75750500D01*
X77815892Y-75750500D01*
X77943186Y-75716392D01*
X78057314Y-75650500D01*
X78150500Y-75557314D01*
X78216392Y-75443186D01*
X78250500Y-75315892D01*
X78250500Y-75184108D01*
X78216392Y-75056814D01*
X78150500Y-74942686D01*
X78057314Y-74849500D01*
X77983380Y-74806814D01*
X77943187Y-74783608D01*
X77879539Y-74766554D01*
X77815892Y-74749500D01*
X77684108Y-74749500D01*
X77556812Y-74783608D01*
X77442686Y-74849500D01*
X77442683Y-74849502D01*
X77349498Y-74942687D01*
X77348370Y-74944158D01*
X77347102Y-74945083D01*
X77343753Y-74948433D01*
X77343230Y-74947910D01*
X77291940Y-74985356D01*
X77222193Y-74989506D01*
X77161275Y-74955289D01*
X77151630Y-74944158D01*
X77150501Y-74942687D01*
X77057316Y-74849502D01*
X77057314Y-74849500D01*
X76983380Y-74806814D01*
X76943187Y-74783608D01*
X76879539Y-74766554D01*
X76815892Y-74749500D01*
X76684108Y-74749500D01*
X76556812Y-74783608D01*
X76442686Y-74849500D01*
X76442683Y-74849502D01*
X76349502Y-74942683D01*
X76349500Y-74942686D01*
X76283608Y-75056812D01*
X76263631Y-75131369D01*
X76249500Y-75184108D01*
X71891922Y-75184108D01*
X71807314Y-75099500D01*
X71743999Y-75062945D01*
X71693187Y-75033608D01*
X71629539Y-75016554D01*
X71565892Y-74999500D01*
X71434108Y-74999500D01*
X71306812Y-75033608D01*
X71192686Y-75099500D01*
X71192683Y-75099502D01*
X71099502Y-75192683D01*
X71099500Y-75192686D01*
X71033608Y-75306812D01*
X70999500Y-75434108D01*
X70999500Y-75566273D01*
X70979815Y-75633312D01*
X70927011Y-75679067D01*
X70857853Y-75689011D01*
X70794297Y-75659986D01*
X70787819Y-75653954D01*
X68923046Y-73789181D01*
X68889561Y-73727858D01*
X68894545Y-73658166D01*
X68936417Y-73602233D01*
X69001881Y-73577816D01*
X69010727Y-73577500D01*
X75870620Y-73577500D01*
X75935569Y-73596571D01*
X75935648Y-73596436D01*
X75936206Y-73596758D01*
X75937659Y-73597185D01*
X75940936Y-73599489D01*
X75942684Y-73600498D01*
X75942686Y-73600500D01*
X76056814Y-73666392D01*
X76184108Y-73700500D01*
X76184110Y-73700500D01*
X76315890Y-73700500D01*
X76315892Y-73700500D01*
X76443186Y-73666392D01*
X76557314Y-73600500D01*
X76557315Y-73600498D01*
X76564352Y-73596436D01*
X76565601Y-73598599D01*
X76619055Y-73577931D01*
X76629380Y-73577500D01*
X78292273Y-73577500D01*
X78359312Y-73597185D01*
X78379954Y-73613819D01*
X79836181Y-75070046D01*
X79869666Y-75131369D01*
X79872500Y-75157727D01*
X79872500Y-81265324D01*
X79852815Y-81332363D01*
X79800011Y-81378118D01*
X79730853Y-81388062D01*
X79667297Y-81359037D01*
X79660819Y-81353005D01*
X79607316Y-81299502D01*
X79607314Y-81299500D01*
X79548120Y-81265324D01*
X79493187Y-81233608D01*
X79429539Y-81216554D01*
X79365892Y-81199500D01*
X79234108Y-81199500D01*
X79106812Y-81233608D01*
X79027006Y-81279684D01*
X78992686Y-81299500D01*
X78992684Y-81299501D01*
X78985648Y-81303564D01*
X78984398Y-81301400D01*
X78930945Y-81322069D01*
X78920620Y-81322500D01*
X72707727Y-81322500D01*
X72640688Y-81302815D01*
X72620046Y-81286181D01*
X72413819Y-81079954D01*
X72380334Y-81018631D01*
X72377500Y-80992273D01*
X72377500Y-80716659D01*
X72397185Y-80649620D01*
X72432609Y-80613557D01*
X72478416Y-80582951D01*
X72582951Y-80478416D01*
X72665084Y-80355495D01*
X72668892Y-80346303D01*
X72702368Y-80265484D01*
X72721658Y-80218913D01*
X72736348Y-80145063D01*
X72750500Y-80073920D01*
X72750500Y-79926079D01*
X72721659Y-79781092D01*
X72721658Y-79781091D01*
X72721658Y-79781087D01*
X72688278Y-79700500D01*
X72665087Y-79644511D01*
X72665080Y-79644498D01*
X72582951Y-79521584D01*
X72582948Y-79521580D01*
X72478419Y-79417051D01*
X72478415Y-79417048D01*
X72355496Y-79334916D01*
X72355493Y-79334914D01*
X72218917Y-79278343D01*
X72218907Y-79278340D01*
X72073920Y-79249500D01*
X72073918Y-79249500D01*
X71926082Y-79249500D01*
X71926080Y-79249500D01*
X71781092Y-79278340D01*
X71781082Y-79278343D01*
X71644511Y-79334912D01*
X71644498Y-79334919D01*
X71521584Y-79417048D01*
X71521580Y-79417051D01*
X71417051Y-79521580D01*
X71417048Y-79521584D01*
X71334919Y-79644498D01*
X71334912Y-79644511D01*
X71278343Y-79781082D01*
X71278340Y-79781092D01*
X71249500Y-79926079D01*
X71249500Y-79926082D01*
X71249500Y-80073918D01*
X71249500Y-80073920D01*
X71249499Y-80073920D01*
X71278340Y-80218907D01*
X71278343Y-80218917D01*
X71334912Y-80355488D01*
X71334919Y-80355501D01*
X71417048Y-80478415D01*
X71417051Y-80478419D01*
X71521578Y-80582946D01*
X71521583Y-80582950D01*
X71521584Y-80582951D01*
X71567389Y-80613557D01*
X71612195Y-80667168D01*
X71622500Y-80716659D01*
X71622500Y-81198500D01*
X71602815Y-81265539D01*
X71550011Y-81311294D01*
X71498500Y-81322500D01*
X66791725Y-81322500D01*
X66724686Y-81302815D01*
X66704044Y-81286181D01*
X65097888Y-79680025D01*
X66397000Y-79680025D01*
X66397000Y-79824975D01*
X66424091Y-79926079D01*
X66434517Y-79964988D01*
X66506988Y-80090511D01*
X66506990Y-80090513D01*
X66506991Y-80090515D01*
X66609485Y-80193009D01*
X66609486Y-80193010D01*
X66609488Y-80193011D01*
X66735011Y-80265482D01*
X66735012Y-80265482D01*
X66735015Y-80265484D01*
X66875025Y-80303000D01*
X66875028Y-80303000D01*
X67019972Y-80303000D01*
X67019975Y-80303000D01*
X67159985Y-80265484D01*
X67285515Y-80193009D01*
X67388009Y-80090515D01*
X67460484Y-79964985D01*
X67498000Y-79824975D01*
X67498000Y-79680025D01*
X67460484Y-79540015D01*
X67429885Y-79487017D01*
X67388011Y-79414488D01*
X67388006Y-79414482D01*
X67285517Y-79311993D01*
X67285511Y-79311988D01*
X67159988Y-79239517D01*
X67159989Y-79239517D01*
X67139802Y-79234108D01*
X77499500Y-79234108D01*
X77499500Y-79365891D01*
X77533608Y-79493187D01*
X77560642Y-79540011D01*
X77599500Y-79607314D01*
X77692686Y-79700500D01*
X77806814Y-79766392D01*
X77934108Y-79800500D01*
X77934110Y-79800500D01*
X78065890Y-79800500D01*
X78065892Y-79800500D01*
X78193186Y-79766392D01*
X78307314Y-79700500D01*
X78400500Y-79607314D01*
X78466392Y-79493186D01*
X78500500Y-79365892D01*
X78500500Y-79234108D01*
X78466392Y-79106814D01*
X78400500Y-78992686D01*
X78307314Y-78899500D01*
X78250250Y-78866554D01*
X78193187Y-78833608D01*
X78129539Y-78816554D01*
X78065892Y-78799500D01*
X77934108Y-78799500D01*
X77806812Y-78833608D01*
X77692686Y-78899500D01*
X77692683Y-78899502D01*
X77599502Y-78992683D01*
X77599500Y-78992686D01*
X77533608Y-79106812D01*
X77499500Y-79234108D01*
X67139802Y-79234108D01*
X67019975Y-79202000D01*
X66875025Y-79202000D01*
X66755198Y-79234108D01*
X66735011Y-79239517D01*
X66609488Y-79311988D01*
X66609482Y-79311993D01*
X66506993Y-79414482D01*
X66506988Y-79414488D01*
X66434517Y-79540011D01*
X66434516Y-79540015D01*
X66397000Y-79680025D01*
X65097888Y-79680025D01*
X62900381Y-77482518D01*
X62866896Y-77421195D01*
X62871880Y-77351503D01*
X62903746Y-77308426D01*
X62901567Y-77306247D01*
X62907314Y-77300500D01*
X63000500Y-77207314D01*
X63066392Y-77093186D01*
X63066826Y-77091563D01*
X63067567Y-77090347D01*
X63069500Y-77085682D01*
X63070227Y-77085983D01*
X63103184Y-77031904D01*
X63166028Y-77001370D01*
X63235405Y-77009658D01*
X63289286Y-77054139D01*
X63306376Y-77091556D01*
X63333608Y-77193186D01*
X63399500Y-77307314D01*
X63492686Y-77400500D01*
X63591521Y-77457563D01*
X63604063Y-77464804D01*
X63606814Y-77466392D01*
X63734108Y-77500500D01*
X63734110Y-77500500D01*
X63865890Y-77500500D01*
X63865892Y-77500500D01*
X63993186Y-77466392D01*
X64107314Y-77400500D01*
X64200500Y-77307314D01*
X64266392Y-77193186D01*
X64300500Y-77065892D01*
X64300500Y-77065890D01*
X64302603Y-77058042D01*
X64305015Y-77058688D01*
X64328197Y-77006276D01*
X64335183Y-76998681D01*
X66198672Y-75135193D01*
X66245460Y-75105812D01*
X66260667Y-75100500D01*
X66265892Y-75100500D01*
X66393186Y-75066392D01*
X66446603Y-75035551D01*
X66457609Y-75031707D01*
X66481323Y-75030509D01*
X66504398Y-75024911D01*
X66515576Y-75028779D01*
X66527390Y-75028183D01*
X66547987Y-75039996D01*
X66570425Y-75047762D01*
X66577737Y-75057059D01*
X66587998Y-75062945D01*
X66598938Y-75084018D01*
X66613617Y-75102683D01*
X66616562Y-75117964D01*
X66620192Y-75124956D01*
X66619451Y-75132953D01*
X66622500Y-75148771D01*
X66622500Y-76792272D01*
X66602815Y-76859311D01*
X66586181Y-76879953D01*
X66001330Y-77464804D01*
X65941917Y-77497245D01*
X65941958Y-77497397D01*
X65941334Y-77497564D01*
X65940007Y-77498289D01*
X65936057Y-77498977D01*
X65806812Y-77533608D01*
X65692686Y-77599500D01*
X65692683Y-77599502D01*
X65599502Y-77692683D01*
X65599500Y-77692686D01*
X65533608Y-77806812D01*
X65499641Y-77933581D01*
X65499500Y-77934108D01*
X65499500Y-78065892D01*
X65499641Y-78066419D01*
X65533608Y-78193187D01*
X65566554Y-78250250D01*
X65599500Y-78307314D01*
X65692686Y-78400500D01*
X65806814Y-78466392D01*
X65934108Y-78500500D01*
X65934110Y-78500500D01*
X66065890Y-78500500D01*
X66065892Y-78500500D01*
X66193186Y-78466392D01*
X66307314Y-78400500D01*
X66400500Y-78307314D01*
X66466392Y-78193186D01*
X66500500Y-78065892D01*
X66500500Y-78065890D01*
X66502603Y-78058042D01*
X66505015Y-78058688D01*
X66528197Y-78006276D01*
X66535183Y-77998682D01*
X67302076Y-77231790D01*
X67351774Y-77145710D01*
X67377500Y-77049699D01*
X67377500Y-76950301D01*
X67377500Y-74979380D01*
X67396571Y-74914430D01*
X67396436Y-74914352D01*
X67396758Y-74913793D01*
X67397185Y-74912341D01*
X67399489Y-74909063D01*
X67400497Y-74907316D01*
X67400500Y-74907314D01*
X67466392Y-74793186D01*
X67500500Y-74665892D01*
X67500500Y-74534108D01*
X67466392Y-74406814D01*
X67400500Y-74292686D01*
X67307314Y-74199500D01*
X67250250Y-74166554D01*
X67193187Y-74133608D01*
X67129539Y-74116554D01*
X67065892Y-74099500D01*
X66934108Y-74099500D01*
X66806812Y-74133608D01*
X66692686Y-74199500D01*
X66692683Y-74199502D01*
X66687681Y-74204505D01*
X66626358Y-74237990D01*
X66556666Y-74233006D01*
X66512319Y-74204505D01*
X66507316Y-74199502D01*
X66507314Y-74199500D01*
X66450250Y-74166554D01*
X66393187Y-74133608D01*
X66329539Y-74116554D01*
X66265892Y-74099500D01*
X66134108Y-74099500D01*
X66006812Y-74133608D01*
X65892686Y-74199500D01*
X65892683Y-74199502D01*
X65799502Y-74292683D01*
X65799500Y-74292686D01*
X65733608Y-74406812D01*
X65717644Y-74466392D01*
X65701189Y-74527807D01*
X65697397Y-74541958D01*
X65694989Y-74541313D01*
X65671776Y-74593753D01*
X65664804Y-74601329D01*
X63801330Y-76464804D01*
X63741917Y-76497245D01*
X63741958Y-76497397D01*
X63741334Y-76497564D01*
X63740007Y-76498289D01*
X63736057Y-76498977D01*
X63606812Y-76533608D01*
X63492686Y-76599500D01*
X63492683Y-76599502D01*
X63399502Y-76692683D01*
X63399500Y-76692686D01*
X63333608Y-76806812D01*
X63333171Y-76808446D01*
X63332425Y-76809668D01*
X63330500Y-76814318D01*
X63329774Y-76814017D01*
X63296803Y-76868105D01*
X63233955Y-76898632D01*
X63164580Y-76890334D01*
X63110704Y-76845847D01*
X63093624Y-76808446D01*
X63076606Y-76744933D01*
X63078269Y-76675088D01*
X63108698Y-76625165D01*
X64598671Y-75135193D01*
X64658082Y-75102752D01*
X64658042Y-75102603D01*
X64658659Y-75102437D01*
X64659992Y-75101710D01*
X64663945Y-75101021D01*
X64665889Y-75100500D01*
X64665892Y-75100500D01*
X64793186Y-75066392D01*
X64907314Y-75000500D01*
X65000500Y-74907314D01*
X65066392Y-74793186D01*
X65100500Y-74665892D01*
X65100500Y-74534108D01*
X65066392Y-74406814D01*
X65000500Y-74292686D01*
X64907314Y-74199500D01*
X64850250Y-74166554D01*
X64793187Y-74133608D01*
X64729539Y-74116554D01*
X64665892Y-74099500D01*
X64534108Y-74099500D01*
X64406812Y-74133608D01*
X64292686Y-74199500D01*
X64292683Y-74199502D01*
X64199502Y-74292683D01*
X64199500Y-74292686D01*
X64133608Y-74406812D01*
X64117644Y-74466392D01*
X64101189Y-74527807D01*
X64097397Y-74541958D01*
X64094989Y-74541312D01*
X64071778Y-74593751D01*
X64064804Y-74601330D01*
X62297927Y-76368207D01*
X62297925Y-76368210D01*
X62248226Y-76454288D01*
X62241762Y-76478415D01*
X62236437Y-76498289D01*
X62236112Y-76499501D01*
X62224340Y-76543434D01*
X62187975Y-76603094D01*
X62125127Y-76633623D01*
X62055752Y-76625328D01*
X62016884Y-76599021D01*
X61613819Y-76195956D01*
X61580334Y-76134633D01*
X61577500Y-76108275D01*
X61577500Y-73279380D01*
X61596571Y-73214430D01*
X61596436Y-73214352D01*
X61596758Y-73213793D01*
X61597185Y-73212341D01*
X61599489Y-73209063D01*
X61600497Y-73207316D01*
X61600500Y-73207314D01*
X61666392Y-73093186D01*
X61700500Y-72965892D01*
X61700500Y-72834108D01*
X61666392Y-72706814D01*
X61600500Y-72592686D01*
X61507314Y-72499500D01*
X61449100Y-72465890D01*
X61393187Y-72433608D01*
X61329539Y-72416554D01*
X61265892Y-72399500D01*
X61134108Y-72399500D01*
X61006812Y-72433608D01*
X60892686Y-72499500D01*
X60892683Y-72499502D01*
X60799502Y-72592683D01*
X60799500Y-72592686D01*
X60733609Y-72706811D01*
X60733609Y-72706812D01*
X60733608Y-72706814D01*
X60722034Y-72750011D01*
X60713800Y-72780739D01*
X60677434Y-72840399D01*
X60614587Y-72870927D01*
X60545211Y-72862632D01*
X60532025Y-72856031D01*
X60493189Y-72833609D01*
X60493186Y-72833608D01*
X60365892Y-72799500D01*
X60234108Y-72799500D01*
X60106812Y-72833608D01*
X59992686Y-72899500D01*
X59992683Y-72899502D01*
X59899502Y-72992683D01*
X59899500Y-72992686D01*
X59833608Y-73106812D01*
X59799500Y-73234108D01*
X59799500Y-73365891D01*
X59833608Y-73493187D01*
X59841766Y-73507316D01*
X59899500Y-73607314D01*
X59899501Y-73607315D01*
X59903564Y-73614352D01*
X59901400Y-73615601D01*
X59922069Y-73669055D01*
X59922500Y-73679380D01*
X59922500Y-76550301D01*
X59922500Y-76649699D01*
X59948226Y-76745710D01*
X59997925Y-76831790D01*
X65768209Y-82602075D01*
X65768211Y-82602076D01*
X65768215Y-82602079D01*
X65812239Y-82627496D01*
X65812242Y-82627497D01*
X65812247Y-82627500D01*
X65854291Y-82651774D01*
X65950301Y-82677500D01*
X71498500Y-82677500D01*
X71565539Y-82697185D01*
X71611294Y-82749989D01*
X71622500Y-82801500D01*
X71622500Y-83283339D01*
X71602815Y-83350378D01*
X71567391Y-83386441D01*
X71521584Y-83417048D01*
X71521580Y-83417051D01*
X71417051Y-83521580D01*
X71417048Y-83521584D01*
X71334919Y-83644498D01*
X71334912Y-83644511D01*
X71278343Y-83781082D01*
X71278340Y-83781092D01*
X71249500Y-83926079D01*
X71249500Y-83926082D01*
X71249500Y-84073918D01*
X71249500Y-84073920D01*
X71249499Y-84073920D01*
X71278340Y-84218907D01*
X71278343Y-84218917D01*
X71334912Y-84355488D01*
X71334919Y-84355501D01*
X71417048Y-84478415D01*
X71417051Y-84478419D01*
X71521580Y-84582948D01*
X71521584Y-84582951D01*
X71644498Y-84665080D01*
X71644511Y-84665087D01*
X71781082Y-84721656D01*
X71781087Y-84721658D01*
X71781091Y-84721658D01*
X71781092Y-84721659D01*
X71926079Y-84750500D01*
X71926082Y-84750500D01*
X72073920Y-84750500D01*
X72171462Y-84731096D01*
X72218913Y-84721658D01*
X72355495Y-84665084D01*
X72478416Y-84582951D01*
X72582951Y-84478416D01*
X72665084Y-84355495D01*
X72721658Y-84218913D01*
X72750500Y-84073918D01*
X72750500Y-83926082D01*
X72750500Y-83926079D01*
X72721659Y-83781092D01*
X72721658Y-83781091D01*
X72721658Y-83781087D01*
X72721656Y-83781082D01*
X72665087Y-83644511D01*
X72665080Y-83644498D01*
X72582951Y-83521584D01*
X72582948Y-83521580D01*
X72478419Y-83417051D01*
X72478415Y-83417048D01*
X72432609Y-83386441D01*
X72387804Y-83332828D01*
X72377500Y-83283339D01*
X72377500Y-83007727D01*
X72397185Y-82940688D01*
X72413819Y-82920046D01*
X72620046Y-82713819D01*
X72681369Y-82680334D01*
X72707727Y-82677500D01*
X73392273Y-82677500D01*
X73459312Y-82697185D01*
X73479954Y-82713819D01*
X77885971Y-87119836D01*
X77919456Y-87181159D01*
X77914472Y-87250851D01*
X77872600Y-87306784D01*
X77830387Y-87327291D01*
X77806813Y-87333608D01*
X77692686Y-87399500D01*
X77692683Y-87399502D01*
X77599502Y-87492683D01*
X77599500Y-87492686D01*
X77533608Y-87606812D01*
X77499500Y-87734108D01*
X77499500Y-87865891D01*
X77533608Y-87993187D01*
X77537253Y-87999500D01*
X77599500Y-88107314D01*
X77692686Y-88200500D01*
X77781187Y-88251596D01*
X77805691Y-88265744D01*
X77806814Y-88266392D01*
X77909224Y-88293832D01*
X77968882Y-88330195D01*
X77999412Y-88393042D01*
X78000068Y-88429789D01*
X77999500Y-88434103D01*
X77999500Y-88565891D01*
X78033608Y-88693187D01*
X78066554Y-88750250D01*
X78099500Y-88807314D01*
X78192686Y-88900500D01*
X78306814Y-88966392D01*
X78434108Y-89000500D01*
X78434110Y-89000500D01*
X78565890Y-89000500D01*
X78565892Y-89000500D01*
X78693186Y-88966392D01*
X78807314Y-88900500D01*
X78900500Y-88807314D01*
X78966392Y-88693186D01*
X78978212Y-88649069D01*
X79014576Y-88589410D01*
X79077423Y-88558880D01*
X79146799Y-88567174D01*
X79185668Y-88593482D01*
X79192686Y-88600500D01*
X79306814Y-88666392D01*
X79434108Y-88700500D01*
X79434110Y-88700500D01*
X79565890Y-88700500D01*
X79565892Y-88700500D01*
X79693186Y-88666392D01*
X79807314Y-88600500D01*
X79900500Y-88507314D01*
X79966392Y-88393186D01*
X79984554Y-88325402D01*
X80020917Y-88265744D01*
X80083764Y-88235214D01*
X80110713Y-88233661D01*
X80123777Y-88234334D01*
X80184108Y-88250500D01*
X80315892Y-88250500D01*
X80335486Y-88245249D01*
X80355041Y-88246258D01*
X80370271Y-88251596D01*
X80386402Y-88251979D01*
X80402561Y-88262914D01*
X80420978Y-88269369D01*
X80430903Y-88282092D01*
X80444268Y-88291136D01*
X80451951Y-88309074D01*
X80463953Y-88324459D01*
X80465423Y-88340527D01*
X80471778Y-88355362D01*
X80472656Y-88370094D01*
X80472656Y-88989668D01*
X80452971Y-89056707D01*
X80436337Y-89077349D01*
X79304505Y-90209181D01*
X79243182Y-90242666D01*
X79216824Y-90245500D01*
X67683581Y-90245500D01*
X67555270Y-90279881D01*
X67555268Y-90279881D01*
X67555268Y-90279882D01*
X67440230Y-90346300D01*
X67440227Y-90346302D01*
X67346302Y-90440227D01*
X67346300Y-90440230D01*
X67279881Y-90555270D01*
X67245500Y-90683581D01*
X67245500Y-90816419D01*
X67279881Y-90944730D01*
X67346300Y-91059770D01*
X67440230Y-91153700D01*
X67555270Y-91220119D01*
X67683581Y-91254500D01*
X67683584Y-91254500D01*
X79543573Y-91254500D01*
X79543576Y-91254500D01*
X79671887Y-91220119D01*
X79718536Y-91193186D01*
X79786927Y-91153701D01*
X80321268Y-90619359D01*
X80382589Y-90585876D01*
X80452280Y-90590860D01*
X80508214Y-90632731D01*
X80528721Y-90674948D01*
X80533608Y-90693186D01*
X80599500Y-90807314D01*
X80692686Y-90900500D01*
X80806814Y-90966392D01*
X80934108Y-91000500D01*
X80934110Y-91000500D01*
X81065890Y-91000500D01*
X81065892Y-91000500D01*
X81193186Y-90966392D01*
X81307314Y-90900500D01*
X81400500Y-90807314D01*
X81466392Y-90693186D01*
X81500500Y-90565892D01*
X81500500Y-90434108D01*
X81466392Y-90306814D01*
X81400500Y-90192686D01*
X81307314Y-90099500D01*
X81193186Y-90033608D01*
X81174949Y-90028721D01*
X81115289Y-89992358D01*
X81084759Y-89929511D01*
X81093053Y-89860135D01*
X81119358Y-89821269D01*
X81380857Y-89559771D01*
X81422964Y-89486838D01*
X81447275Y-89444731D01*
X81481656Y-89316420D01*
X81481656Y-80683582D01*
X81447275Y-80555271D01*
X81380856Y-80440231D01*
X81286926Y-80346301D01*
X81171886Y-80279882D01*
X81043575Y-80245501D01*
X81043572Y-80245501D01*
X81038997Y-80244275D01*
X80979337Y-80207910D01*
X80948808Y-80145063D01*
X80957103Y-80075687D01*
X81001588Y-80021809D01*
X81058118Y-80003738D01*
X81057832Y-80001561D01*
X81065883Y-80000500D01*
X81065892Y-80000500D01*
X81193186Y-79966392D01*
X81307314Y-79900500D01*
X81400500Y-79807314D01*
X81466392Y-79693186D01*
X81500500Y-79565892D01*
X81500500Y-79434108D01*
X81466392Y-79306814D01*
X81400500Y-79192686D01*
X81307314Y-79099500D01*
X81250250Y-79066554D01*
X81193187Y-79033608D01*
X81129539Y-79016554D01*
X81065892Y-78999500D01*
X80934108Y-78999500D01*
X80806814Y-79033608D01*
X80806813Y-79033608D01*
X80806811Y-79033609D01*
X80799300Y-79036720D01*
X80797975Y-79033522D01*
X80745540Y-79046217D01*
X80679524Y-79023333D01*
X80636360Y-78968390D01*
X80627500Y-78922360D01*
X80627500Y-75460727D01*
X80647185Y-75393688D01*
X80699989Y-75347933D01*
X80769147Y-75337989D01*
X80832703Y-75367014D01*
X80839181Y-75373046D01*
X81226311Y-75760176D01*
X81259796Y-75821499D01*
X81260248Y-75872047D01*
X81249500Y-75926082D01*
X81249500Y-76073918D01*
X81249500Y-76073920D01*
X81249499Y-76073920D01*
X81278340Y-76218907D01*
X81278343Y-76218917D01*
X81334912Y-76355488D01*
X81334919Y-76355501D01*
X81417048Y-76478415D01*
X81417051Y-76478419D01*
X81521580Y-76582948D01*
X81521584Y-76582951D01*
X81644498Y-76665080D01*
X81644511Y-76665087D01*
X81781082Y-76721656D01*
X81781087Y-76721658D01*
X81781091Y-76721658D01*
X81781092Y-76721659D01*
X81926079Y-76750500D01*
X81926082Y-76750500D01*
X82073920Y-76750500D01*
X82171462Y-76731096D01*
X82218913Y-76721658D01*
X82355495Y-76665084D01*
X82478416Y-76582951D01*
X82582951Y-76478416D01*
X82665084Y-76355495D01*
X82721658Y-76218913D01*
X82738423Y-76134633D01*
X82750500Y-76073920D01*
X82750500Y-75926079D01*
X82721659Y-75781092D01*
X82721658Y-75781091D01*
X82721658Y-75781087D01*
X82721656Y-75781082D01*
X82665087Y-75644511D01*
X82665080Y-75644498D01*
X82582951Y-75521584D01*
X82582948Y-75521580D01*
X82478419Y-75417051D01*
X82478415Y-75417048D01*
X82355501Y-75334919D01*
X82355488Y-75334912D01*
X82218917Y-75278343D01*
X82218907Y-75278340D01*
X82073920Y-75249500D01*
X82073918Y-75249500D01*
X81926082Y-75249500D01*
X81872047Y-75260248D01*
X81802456Y-75254019D01*
X81760176Y-75226311D01*
X81181792Y-74647927D01*
X81181790Y-74647925D01*
X81095710Y-74598226D01*
X80999699Y-74572500D01*
X80999698Y-74572500D01*
X80457727Y-74572500D01*
X80390688Y-74552815D01*
X80370046Y-74536181D01*
X78731792Y-72897927D01*
X78731790Y-72897925D01*
X78645710Y-72848226D01*
X78549699Y-72822500D01*
X78549698Y-72822500D01*
X78348772Y-72822500D01*
X78281733Y-72802815D01*
X78235978Y-72750011D01*
X78226034Y-72680853D01*
X78241385Y-72636500D01*
X78266390Y-72593189D01*
X78266392Y-72593186D01*
X78300500Y-72465892D01*
X78300500Y-72334108D01*
X78266392Y-72206814D01*
X78200500Y-72092686D01*
X78107314Y-71999500D01*
X78006530Y-71941312D01*
X77993187Y-71933608D01*
X77929539Y-71916554D01*
X77865892Y-71899500D01*
X77734108Y-71899500D01*
X77606812Y-71933608D01*
X77527006Y-71979684D01*
X77492686Y-71999500D01*
X77492684Y-71999501D01*
X77485648Y-72003564D01*
X77484398Y-72001400D01*
X77430945Y-72022069D01*
X77420620Y-72022500D01*
X68383290Y-72022500D01*
X68316251Y-72002815D01*
X68270496Y-71950011D01*
X68260552Y-71880853D01*
X68289577Y-71817297D01*
X68305845Y-71801968D01*
X68307311Y-71800501D01*
X68307314Y-71800500D01*
X68400500Y-71707314D01*
X68466392Y-71593186D01*
X68500500Y-71465892D01*
X68500500Y-71334108D01*
X68466392Y-71206814D01*
X68400500Y-71092686D01*
X68395495Y-71087681D01*
X68362010Y-71026358D01*
X68366994Y-70956666D01*
X68395495Y-70912319D01*
X68400500Y-70907314D01*
X68466392Y-70793186D01*
X68500500Y-70665892D01*
X68500500Y-70534108D01*
X68466392Y-70406814D01*
X68441385Y-70363500D01*
X68424912Y-70295600D01*
X68447764Y-70229573D01*
X68502685Y-70186383D01*
X68548772Y-70177500D01*
X69192273Y-70177500D01*
X69259312Y-70197185D01*
X69279954Y-70213819D01*
X69768210Y-70702075D01*
X69854290Y-70751774D01*
X69864789Y-70754587D01*
X69950301Y-70777500D01*
X70029528Y-70777500D01*
X70038343Y-70778773D01*
X70062341Y-70789750D01*
X70085569Y-70796571D01*
X70085648Y-70796436D01*
X70086206Y-70796758D01*
X70087659Y-70797185D01*
X70090936Y-70799489D01*
X70092684Y-70800498D01*
X70092686Y-70800500D01*
X70206814Y-70866392D01*
X70334108Y-70900500D01*
X70334110Y-70900500D01*
X70465890Y-70900500D01*
X70465892Y-70900500D01*
X70593186Y-70866392D01*
X70707314Y-70800500D01*
X70787819Y-70719995D01*
X70849142Y-70686510D01*
X70918834Y-70691494D01*
X70974767Y-70733366D01*
X70999184Y-70798830D01*
X70999500Y-70807676D01*
X70999500Y-70815891D01*
X71033608Y-70943187D01*
X71053419Y-70977500D01*
X71099500Y-71057314D01*
X71192686Y-71150500D01*
X71306814Y-71216392D01*
X71434108Y-71250500D01*
X71434110Y-71250500D01*
X71565890Y-71250500D01*
X71565892Y-71250500D01*
X71693186Y-71216392D01*
X71807314Y-71150500D01*
X71900500Y-71057314D01*
X71966392Y-70943186D01*
X72000500Y-70815892D01*
X72000500Y-70684108D01*
X71966392Y-70556814D01*
X71900500Y-70442686D01*
X71807314Y-70349500D01*
X71750250Y-70316554D01*
X71693187Y-70283608D01*
X71629539Y-70266554D01*
X71565892Y-70249500D01*
X71434108Y-70249500D01*
X71306812Y-70283608D01*
X71192686Y-70349500D01*
X71192683Y-70349502D01*
X71112181Y-70430005D01*
X71050858Y-70463490D01*
X70981166Y-70458506D01*
X70925233Y-70416634D01*
X70900816Y-70351170D01*
X70900500Y-70342324D01*
X70900500Y-70334110D01*
X70900500Y-70334108D01*
X70866392Y-70206814D01*
X70862169Y-70199500D01*
X70811650Y-70111998D01*
X70795177Y-70044098D01*
X70811648Y-69988000D01*
X70866392Y-69893183D01*
X70900500Y-69765889D01*
X70900500Y-69634105D01*
X70866392Y-69506811D01*
X70800500Y-69392683D01*
X70707314Y-69299497D01*
X70650250Y-69266551D01*
X70593187Y-69233605D01*
X70537399Y-69218657D01*
X70465892Y-69199497D01*
X70465891Y-69199497D01*
X70458042Y-69197394D01*
X70458687Y-69194985D01*
X70406251Y-69171778D01*
X70398669Y-69164801D01*
X69931795Y-68697927D01*
X69931793Y-68697925D01*
X69845713Y-68648226D01*
X69749702Y-68622500D01*
X69749701Y-68622500D01*
X61007727Y-68622500D01*
X60940688Y-68602815D01*
X60920046Y-68586181D01*
X59267598Y-66933733D01*
X59235504Y-66878144D01*
X59228127Y-66850613D01*
X59216392Y-66806814D01*
X59150500Y-66692686D01*
X59057314Y-66599500D01*
X58999100Y-66565890D01*
X58943187Y-66533608D01*
X58879539Y-66516554D01*
X58815892Y-66499500D01*
X58684108Y-66499500D01*
X58556812Y-66533608D01*
X58442686Y-66599500D01*
X58442683Y-66599502D01*
X58349502Y-66692683D01*
X58349500Y-66692686D01*
X58283608Y-66806812D01*
X58275415Y-66837391D01*
X58249500Y-66934108D01*
X40500500Y-66934108D01*
X40500500Y-66184108D01*
X51749500Y-66184108D01*
X51749500Y-66315891D01*
X51783608Y-66443187D01*
X51797146Y-66466635D01*
X51849500Y-66557314D01*
X51942686Y-66650500D01*
X52056814Y-66716392D01*
X52184108Y-66750500D01*
X52184110Y-66750500D01*
X52315890Y-66750500D01*
X52315892Y-66750500D01*
X52443186Y-66716392D01*
X52557314Y-66650500D01*
X52650500Y-66557314D01*
X52716392Y-66443186D01*
X52750500Y-66315892D01*
X52750500Y-66184108D01*
X69749500Y-66184108D01*
X69749500Y-66315891D01*
X69783608Y-66443187D01*
X69797146Y-66466635D01*
X69849500Y-66557314D01*
X69942686Y-66650500D01*
X70056814Y-66716392D01*
X70184108Y-66750500D01*
X70184109Y-66750500D01*
X70191958Y-66752603D01*
X70191311Y-66755015D01*
X70243727Y-66778200D01*
X70251329Y-66785194D01*
X71518209Y-68052075D01*
X71550088Y-68070480D01*
X71604291Y-68101774D01*
X71700301Y-68127500D01*
X76620620Y-68127500D01*
X76685569Y-68146571D01*
X76685648Y-68146436D01*
X76686206Y-68146758D01*
X76687659Y-68147185D01*
X76690936Y-68149489D01*
X76692684Y-68150498D01*
X76692686Y-68150500D01*
X76806814Y-68216392D01*
X76934108Y-68250500D01*
X76934110Y-68250500D01*
X77065890Y-68250500D01*
X77065892Y-68250500D01*
X77193186Y-68216392D01*
X77307314Y-68150500D01*
X77400500Y-68057314D01*
X77466392Y-67943186D01*
X77500500Y-67815892D01*
X77500500Y-67684108D01*
X77466392Y-67556814D01*
X77400500Y-67442686D01*
X77307314Y-67349500D01*
X77250250Y-67316554D01*
X77193187Y-67283608D01*
X77137399Y-67268660D01*
X77065892Y-67249500D01*
X77065891Y-67249500D01*
X77058042Y-67247397D01*
X77058408Y-67246029D01*
X77053422Y-67243823D01*
X77039263Y-67242811D01*
X77022104Y-67229966D01*
X77002508Y-67221295D01*
X76994693Y-67209445D01*
X76983330Y-67200939D01*
X76975840Y-67180859D01*
X76964041Y-67162968D01*
X76963873Y-67148773D01*
X76958913Y-67135475D01*
X76963468Y-67114534D01*
X76963215Y-67093103D01*
X76971037Y-67079739D01*
X76973765Y-67067202D01*
X76994913Y-67038951D01*
X76998671Y-67035193D01*
X77058082Y-67002752D01*
X77058042Y-67002603D01*
X77058659Y-67002437D01*
X77059992Y-67001710D01*
X77063945Y-67001021D01*
X77065889Y-67000500D01*
X77065892Y-67000500D01*
X77193186Y-66966392D01*
X77307314Y-66900500D01*
X77400500Y-66807314D01*
X77466392Y-66693186D01*
X77500500Y-66565892D01*
X77500500Y-66434108D01*
X77466392Y-66306814D01*
X77400500Y-66192686D01*
X77307314Y-66099500D01*
X77233380Y-66056814D01*
X77193187Y-66033608D01*
X77129539Y-66016554D01*
X77065892Y-65999500D01*
X76934108Y-65999500D01*
X76806812Y-66033608D01*
X76692686Y-66099500D01*
X76692683Y-66099502D01*
X76599502Y-66192683D01*
X76599500Y-66192686D01*
X76533608Y-66306812D01*
X76497397Y-66441958D01*
X76494989Y-66441312D01*
X76490811Y-66450753D01*
X76485955Y-66473076D01*
X76473658Y-66489502D01*
X76471778Y-66493751D01*
X76464805Y-66501330D01*
X76302952Y-66663182D01*
X76241631Y-66696666D01*
X76215273Y-66699500D01*
X73874305Y-66699500D01*
X73807266Y-66679815D01*
X73761511Y-66627011D01*
X73753570Y-66574019D01*
X73750500Y-66574019D01*
X73750500Y-66434110D01*
X73750500Y-66434108D01*
X73716392Y-66306814D01*
X73650500Y-66192686D01*
X73557314Y-66099500D01*
X73483380Y-66056814D01*
X73443187Y-66033608D01*
X73379539Y-66016554D01*
X73315892Y-65999500D01*
X73184108Y-65999500D01*
X73056812Y-66033608D01*
X72942686Y-66099500D01*
X72942683Y-66099502D01*
X72849502Y-66192683D01*
X72849500Y-66192686D01*
X72783608Y-66306812D01*
X72749500Y-66434108D01*
X72749500Y-66574019D01*
X72746341Y-66574019D01*
X72745998Y-66576214D01*
X72748433Y-66593147D01*
X72740726Y-66610021D01*
X72737869Y-66628348D01*
X72726514Y-66641141D01*
X72719408Y-66656703D01*
X72703802Y-66666731D01*
X72691490Y-66680605D01*
X72674722Y-66685420D01*
X72660630Y-66694477D01*
X72625695Y-66699500D01*
X72458676Y-66699500D01*
X72391637Y-66679815D01*
X72370995Y-66663181D01*
X72307316Y-66599502D01*
X72307314Y-66599500D01*
X72249100Y-66565890D01*
X72193187Y-66533608D01*
X72129539Y-66516554D01*
X72065892Y-66499500D01*
X71934108Y-66499500D01*
X71806812Y-66533608D01*
X71692686Y-66599500D01*
X71692683Y-66599502D01*
X71599502Y-66692683D01*
X71599498Y-66692689D01*
X71543789Y-66789177D01*
X71493221Y-66837391D01*
X71424614Y-66850613D01*
X71359750Y-66824644D01*
X71348722Y-66814856D01*
X70785195Y-66251329D01*
X70752753Y-66191917D01*
X70752603Y-66191958D01*
X70752436Y-66191336D01*
X70751710Y-66190006D01*
X70751021Y-66186056D01*
X70750500Y-66184110D01*
X70750500Y-66184108D01*
X70716392Y-66056814D01*
X70650500Y-65942686D01*
X70557314Y-65849500D01*
X70500250Y-65816554D01*
X70443187Y-65783608D01*
X70379539Y-65766554D01*
X70315892Y-65749500D01*
X70184108Y-65749500D01*
X70056812Y-65783608D01*
X69942686Y-65849500D01*
X69942683Y-65849502D01*
X69849502Y-65942683D01*
X69849500Y-65942686D01*
X69783608Y-66056812D01*
X69749500Y-66184108D01*
X52750500Y-66184108D01*
X52716392Y-66056814D01*
X52650500Y-65942686D01*
X52557314Y-65849500D01*
X52500250Y-65816554D01*
X52443187Y-65783608D01*
X52379539Y-65766554D01*
X52315892Y-65749500D01*
X52184108Y-65749500D01*
X52056812Y-65783608D01*
X51942686Y-65849500D01*
X51942683Y-65849502D01*
X51849502Y-65942683D01*
X51849500Y-65942686D01*
X51783608Y-66056812D01*
X51749500Y-66184108D01*
X40500500Y-66184108D01*
X40500500Y-65124000D01*
X40520185Y-65056961D01*
X40572989Y-65011206D01*
X40624500Y-65000000D01*
X58800000Y-65000000D01*
X71200000Y-65000000D01*
X89375500Y-65000000D01*
X89442539Y-65019685D01*
G37*
%TD.AperFunction*%
%TD*%
M02*
