%TF.GenerationSoftware,KiCad,Pcbnew,10.0.4-10.0.4~ubuntu24.04.1*%
%TF.CreationDate,2026-07-19T12:17:15-04:00*%
%TF.ProjectId,kmm-pmask-control,6b6d6d2d-706d-4617-936b-2d636f6e7472,rev?*%
%TF.SameCoordinates,Original*%
%TF.FileFunction,Legend,Top*%
%TF.FilePolarity,Positive*%
%FSLAX46Y46*%
G04 Gerber Fmt 4.6, Leading zero omitted, Abs format (unit mm)*
G04 Created by KiCad (PCBNEW 10.0.4-10.0.4~ubuntu24.04.1) date 2026-07-19 12:17:15*
%MOMM*%
%LPD*%
G01*
G04 APERTURE LIST*
G04 Aperture macros list*
%AMRoundRect*
0 Rectangle with rounded corners*
0 $1 Rounding radius*
0 $2 $3 $4 $5 $6 $7 $8 $9 X,Y pos of 4 corners*
0 Add a 4 corners polygon primitive as box body*
4,1,4,$2,$3,$4,$5,$6,$7,$8,$9,$2,$3,0*
0 Add four circle primitives for the rounded corners*
1,1,$1+$1,$2,$3*
1,1,$1+$1,$4,$5*
1,1,$1+$1,$6,$7*
1,1,$1+$1,$8,$9*
0 Add four rect primitives between the rounded corners*
20,1,$1+$1,$2,$3,$4,$5,0*
20,1,$1+$1,$4,$5,$6,$7,0*
20,1,$1+$1,$6,$7,$8,$9,0*
20,1,$1+$1,$8,$9,$2,$3,0*%
G04 Aperture macros list end*
%ADD10C,0.300000*%
%ADD11C,0.125000*%
%ADD12C,0.200000*%
%ADD13C,0.100000*%
%ADD14C,0.120000*%
%ADD15C,0.127000*%
%ADD16C,0.150000*%
%ADD17RoundRect,0.237500X-0.237500X0.300000X-0.237500X-0.300000X0.237500X-0.300000X0.237500X0.300000X0*%
%ADD18C,3.000000*%
%ADD19C,6.400000*%
%ADD20RoundRect,0.150000X0.150000X-0.512500X0.150000X0.512500X-0.150000X0.512500X-0.150000X-0.512500X0*%
%ADD21RoundRect,0.160000X-0.197500X-0.160000X0.197500X-0.160000X0.197500X0.160000X-0.197500X0.160000X0*%
%ADD22RoundRect,0.250000X-0.475000X-0.250000X0.475000X-0.250000X0.475000X0.250000X-0.475000X0.250000X0*%
%ADD23RoundRect,0.237500X0.237500X-0.287500X0.237500X0.287500X-0.237500X0.287500X-0.237500X-0.287500X0*%
%ADD24RoundRect,0.155000X-0.155000X0.212500X-0.155000X-0.212500X0.155000X-0.212500X0.155000X0.212500X0*%
%ADD25RoundRect,0.237500X0.300000X0.237500X-0.300000X0.237500X-0.300000X-0.237500X0.300000X-0.237500X0*%
%ADD26C,0.900000*%
%ADD27RoundRect,0.250000X-0.375000X-1.000000X0.375000X-1.000000X0.375000X1.000000X-0.375000X1.000000X0*%
%ADD28C,1.000000*%
%ADD29RoundRect,0.155000X-0.212500X-0.155000X0.212500X-0.155000X0.212500X0.155000X-0.212500X0.155000X0*%
%ADD30RoundRect,0.160000X0.197500X0.160000X-0.197500X0.160000X-0.197500X-0.160000X0.197500X-0.160000X0*%
%ADD31RoundRect,0.160000X-0.160000X0.197500X-0.160000X-0.197500X0.160000X-0.197500X0.160000X0.197500X0*%
%ADD32R,1.500000X0.800000*%
%ADD33RoundRect,0.362500X0.637500X-0.362500X0.637500X0.362500X-0.637500X0.362500X-0.637500X-0.362500X0*%
%ADD34R,2.700000X0.800000*%
%ADD35RoundRect,0.155000X0.212500X0.155000X-0.212500X0.155000X-0.212500X-0.155000X0.212500X-0.155000X0*%
%ADD36RoundRect,0.250000X-0.625000X0.350000X-0.625000X-0.350000X0.625000X-0.350000X0.625000X0.350000X0*%
%ADD37O,1.750000X1.200000*%
%ADD38R,0.600000X0.400000*%
%ADD39R,0.400000X0.600000*%
%ADD40R,1.300000X0.300000*%
%ADD41R,2.200000X1.800000*%
%ADD42R,1.700000X1.700000*%
%ADD43C,1.700000*%
%ADD44R,0.400000X1.100000*%
%ADD45RoundRect,0.160000X0.160000X-0.197500X0.160000X0.197500X-0.160000X0.197500X-0.160000X-0.197500X0*%
%ADD46RoundRect,0.237500X0.287500X0.237500X-0.287500X0.237500X-0.287500X-0.237500X0.287500X-0.237500X0*%
%ADD47RoundRect,0.250000X1.000000X0.650000X-1.000000X0.650000X-1.000000X-0.650000X1.000000X-0.650000X0*%
%ADD48RoundRect,0.150000X0.150000X-0.587500X0.150000X0.587500X-0.150000X0.587500X-0.150000X-0.587500X0*%
%ADD49RoundRect,0.237500X-0.300000X-0.237500X0.300000X-0.237500X0.300000X0.237500X-0.300000X0.237500X0*%
%ADD50R,0.280000X0.280000*%
%ADD51O,0.850000X0.280000*%
%ADD52C,0.600000*%
%ADD53R,0.680000X1.050000*%
%ADD54R,0.260000X0.500000*%
%ADD55R,0.280000X0.700000*%
%ADD56R,1.650000X2.400000*%
%ADD57RoundRect,0.250001X-0.462499X-0.624999X0.462499X-0.624999X0.462499X0.624999X-0.462499X0.624999X0*%
%ADD58RoundRect,0.150000X0.587500X0.150000X-0.587500X0.150000X-0.587500X-0.150000X0.587500X-0.150000X0*%
%ADD59R,2.400000X0.740000*%
G04 APERTURE END LIST*
D10*
X73150000Y-65750000D02*
G75*
G02*
X72850000Y-65750000I-150000J0D01*
G01*
X72850000Y-65750000D02*
G75*
G02*
X73150000Y-65750000I150000J0D01*
G01*
D11*
X41225093Y-88456119D02*
X41844140Y-88456119D01*
X41844140Y-88456119D02*
X41510807Y-88837071D01*
X41510807Y-88837071D02*
X41653664Y-88837071D01*
X41653664Y-88837071D02*
X41748902Y-88884690D01*
X41748902Y-88884690D02*
X41796521Y-88932309D01*
X41796521Y-88932309D02*
X41844140Y-89027547D01*
X41844140Y-89027547D02*
X41844140Y-89265642D01*
X41844140Y-89265642D02*
X41796521Y-89360880D01*
X41796521Y-89360880D02*
X41748902Y-89408500D01*
X41748902Y-89408500D02*
X41653664Y-89456119D01*
X41653664Y-89456119D02*
X41367950Y-89456119D01*
X41367950Y-89456119D02*
X41272712Y-89408500D01*
X41272712Y-89408500D02*
X41225093Y-89360880D01*
X42272712Y-89360880D02*
X42320331Y-89408500D01*
X42320331Y-89408500D02*
X42272712Y-89456119D01*
X42272712Y-89456119D02*
X42225093Y-89408500D01*
X42225093Y-89408500D02*
X42272712Y-89360880D01*
X42272712Y-89360880D02*
X42272712Y-89456119D01*
X43177473Y-88789452D02*
X43177473Y-89456119D01*
X42939378Y-88408500D02*
X42701283Y-89122785D01*
X42701283Y-89122785D02*
X43320330Y-89122785D01*
X43701283Y-89075166D02*
X44463188Y-89075166D01*
X45367949Y-88789452D02*
X45367949Y-89456119D01*
X45129854Y-88408500D02*
X44891759Y-89122785D01*
X44891759Y-89122785D02*
X45510806Y-89122785D01*
X45891759Y-89360880D02*
X45939378Y-89408500D01*
X45939378Y-89408500D02*
X45891759Y-89456119D01*
X45891759Y-89456119D02*
X45844140Y-89408500D01*
X45844140Y-89408500D02*
X45891759Y-89360880D01*
X45891759Y-89360880D02*
X45891759Y-89456119D01*
X46320330Y-88551357D02*
X46367949Y-88503738D01*
X46367949Y-88503738D02*
X46463187Y-88456119D01*
X46463187Y-88456119D02*
X46701282Y-88456119D01*
X46701282Y-88456119D02*
X46796520Y-88503738D01*
X46796520Y-88503738D02*
X46844139Y-88551357D01*
X46844139Y-88551357D02*
X46891758Y-88646595D01*
X46891758Y-88646595D02*
X46891758Y-88741833D01*
X46891758Y-88741833D02*
X46844139Y-88884690D01*
X46844139Y-88884690D02*
X46272711Y-89456119D01*
X46272711Y-89456119D02*
X46891758Y-89456119D01*
X47177473Y-88456119D02*
X47510806Y-89456119D01*
X47510806Y-89456119D02*
X47844139Y-88456119D01*
D12*
G36*
X41791844Y-90563430D02*
G01*
X41811296Y-90582882D01*
X41841101Y-90642492D01*
X41841101Y-90738135D01*
X41811296Y-90797743D01*
X41786627Y-90822413D01*
X41727018Y-90852219D01*
X41469673Y-90852219D01*
X41469673Y-90528409D01*
X41686779Y-90528409D01*
X41791844Y-90563430D01*
G37*
G36*
X41739008Y-90082024D02*
G01*
X41763677Y-90106692D01*
X41793482Y-90166302D01*
X41793482Y-90214326D01*
X41763677Y-90273935D01*
X41739008Y-90298603D01*
X41679399Y-90328409D01*
X41469673Y-90328409D01*
X41469673Y-90052219D01*
X41679399Y-90052219D01*
X41739008Y-90082024D01*
G37*
G36*
X42659502Y-90566504D02*
G01*
X42460797Y-90566504D01*
X42560149Y-90268446D01*
X42659502Y-90566504D01*
G37*
G36*
X45721721Y-91163330D02*
G01*
X41158562Y-91163330D01*
X41158562Y-89952219D01*
X41269673Y-89952219D01*
X41269673Y-90952219D01*
X41271594Y-90971728D01*
X41286526Y-91007776D01*
X41314116Y-91035366D01*
X41350164Y-91050298D01*
X41369673Y-91052219D01*
X41750625Y-91052219D01*
X41770134Y-91050298D01*
X41773454Y-91048922D01*
X41777038Y-91048668D01*
X41795346Y-91041662D01*
X41890584Y-90994043D01*
X41898979Y-90988758D01*
X41901421Y-90987747D01*
X41904168Y-90985491D01*
X41907174Y-90983600D01*
X41908904Y-90981605D01*
X41916574Y-90975310D01*
X41952171Y-90939712D01*
X42127601Y-90939712D01*
X42130367Y-90978632D01*
X42147817Y-91013531D01*
X42177293Y-91039096D01*
X42214309Y-91051434D01*
X42253229Y-91048668D01*
X42288128Y-91031218D01*
X42313693Y-91001742D01*
X42321684Y-90983842D01*
X42394130Y-90766504D01*
X42726168Y-90766504D01*
X42798614Y-90983841D01*
X42806605Y-91001742D01*
X42832170Y-91031218D01*
X42867069Y-91048667D01*
X42905989Y-91051434D01*
X42943005Y-91039095D01*
X42972481Y-91013530D01*
X42989931Y-90978631D01*
X42992697Y-90939711D01*
X42988350Y-90920596D01*
X42659055Y-89932710D01*
X42985880Y-89932710D01*
X42985880Y-89971728D01*
X43000812Y-90007776D01*
X43028402Y-90035366D01*
X43064450Y-90050298D01*
X43083959Y-90052219D01*
X43269673Y-90052219D01*
X43269673Y-90952219D01*
X43271594Y-90971728D01*
X43286526Y-91007776D01*
X43314116Y-91035366D01*
X43350164Y-91050298D01*
X43389182Y-91050298D01*
X43425230Y-91035366D01*
X43452820Y-91007776D01*
X43467752Y-90971728D01*
X43469673Y-90952219D01*
X43469673Y-90052219D01*
X43655387Y-90052219D01*
X43674896Y-90050298D01*
X43710944Y-90035366D01*
X43738534Y-90007776D01*
X43750625Y-89978585D01*
X43762717Y-90007776D01*
X43790307Y-90035366D01*
X43826355Y-90050298D01*
X43845864Y-90052219D01*
X44031578Y-90052219D01*
X44031578Y-90952219D01*
X44033499Y-90971728D01*
X44048431Y-91007776D01*
X44076021Y-91035366D01*
X44112069Y-91050298D01*
X44151087Y-91050298D01*
X44187135Y-91035366D01*
X44214725Y-91007776D01*
X44229657Y-90971728D01*
X44231578Y-90952219D01*
X44231578Y-90551757D01*
X44652547Y-90551757D01*
X44652547Y-90590775D01*
X44667479Y-90626823D01*
X44695069Y-90654413D01*
X44731117Y-90669345D01*
X44750626Y-90671266D01*
X45031578Y-90671266D01*
X45031578Y-90952219D01*
X45033499Y-90971728D01*
X45048431Y-91007776D01*
X45076021Y-91035366D01*
X45112069Y-91050298D01*
X45151087Y-91050298D01*
X45187135Y-91035366D01*
X45214725Y-91007776D01*
X45229657Y-90971728D01*
X45231578Y-90952219D01*
X45231578Y-90671266D01*
X45512531Y-90671266D01*
X45532040Y-90669345D01*
X45568088Y-90654413D01*
X45595678Y-90626823D01*
X45610610Y-90590775D01*
X45610610Y-90551757D01*
X45595678Y-90515709D01*
X45568088Y-90488119D01*
X45532040Y-90473187D01*
X45512531Y-90471266D01*
X45231578Y-90471266D01*
X45231578Y-90190314D01*
X45229657Y-90170805D01*
X45214725Y-90134757D01*
X45187135Y-90107167D01*
X45151087Y-90092235D01*
X45112069Y-90092235D01*
X45076021Y-90107167D01*
X45048431Y-90134757D01*
X45033499Y-90170805D01*
X45031578Y-90190314D01*
X45031578Y-90471266D01*
X44750626Y-90471266D01*
X44731117Y-90473187D01*
X44695069Y-90488119D01*
X44667479Y-90515709D01*
X44652547Y-90551757D01*
X44231578Y-90551757D01*
X44231578Y-90052219D01*
X44417292Y-90052219D01*
X44436801Y-90050298D01*
X44472849Y-90035366D01*
X44500439Y-90007776D01*
X44515371Y-89971728D01*
X44515371Y-89932710D01*
X44500439Y-89896662D01*
X44472849Y-89869072D01*
X44436801Y-89854140D01*
X44417292Y-89852219D01*
X43845864Y-89852219D01*
X43826355Y-89854140D01*
X43790307Y-89869072D01*
X43762717Y-89896662D01*
X43750625Y-89925852D01*
X43738534Y-89896662D01*
X43710944Y-89869072D01*
X43674896Y-89854140D01*
X43655387Y-89852219D01*
X43083959Y-89852219D01*
X43064450Y-89854140D01*
X43028402Y-89869072D01*
X43000812Y-89896662D01*
X42985880Y-89932710D01*
X42659055Y-89932710D01*
X42655017Y-89920596D01*
X42647026Y-89902696D01*
X42642341Y-89897294D01*
X42639148Y-89890908D01*
X42629679Y-89882695D01*
X42621461Y-89873220D01*
X42615069Y-89870023D01*
X42609672Y-89865343D01*
X42597778Y-89861378D01*
X42586562Y-89855770D01*
X42579434Y-89855263D01*
X42572656Y-89853004D01*
X42560151Y-89853893D01*
X42547642Y-89853004D01*
X42540860Y-89855264D01*
X42533736Y-89855771D01*
X42522527Y-89861374D01*
X42510626Y-89865342D01*
X42505225Y-89870025D01*
X42498837Y-89873220D01*
X42490621Y-89882691D01*
X42481150Y-89890907D01*
X42477955Y-89897296D01*
X42473272Y-89902696D01*
X42465281Y-89920597D01*
X42131948Y-90920596D01*
X42127601Y-90939712D01*
X41952171Y-90939712D01*
X41964193Y-90927690D01*
X41970485Y-90920023D01*
X41972482Y-90918292D01*
X41974375Y-90915284D01*
X41976630Y-90912537D01*
X41977641Y-90910095D01*
X41982925Y-90901701D01*
X42030544Y-90806464D01*
X42037550Y-90788155D01*
X42037804Y-90784571D01*
X42039180Y-90781251D01*
X42041101Y-90761742D01*
X42041101Y-90618885D01*
X42039180Y-90599376D01*
X42037804Y-90596055D01*
X42037550Y-90592472D01*
X42030544Y-90574163D01*
X41982925Y-90478926D01*
X41977639Y-90470529D01*
X41976629Y-90468089D01*
X41974375Y-90465343D01*
X41972482Y-90462335D01*
X41970484Y-90460602D01*
X41964192Y-90452936D01*
X41916574Y-90405317D01*
X41915785Y-90404669D01*
X41916573Y-90403882D01*
X41922865Y-90396215D01*
X41924863Y-90394483D01*
X41926756Y-90391474D01*
X41929010Y-90388729D01*
X41930020Y-90386288D01*
X41935306Y-90377892D01*
X41982925Y-90282655D01*
X41989931Y-90264346D01*
X41990185Y-90260762D01*
X41991561Y-90257442D01*
X41993482Y-90237933D01*
X41993482Y-90142695D01*
X41991561Y-90123186D01*
X41990185Y-90119865D01*
X41989931Y-90116282D01*
X41982925Y-90097973D01*
X41935306Y-90002736D01*
X41930020Y-89994339D01*
X41929010Y-89991899D01*
X41926756Y-89989153D01*
X41924863Y-89986145D01*
X41922865Y-89984412D01*
X41916573Y-89976746D01*
X41868955Y-89929127D01*
X41861284Y-89922832D01*
X41859555Y-89920838D01*
X41856547Y-89918944D01*
X41853801Y-89916691D01*
X41851361Y-89915680D01*
X41842965Y-89910395D01*
X41747727Y-89862776D01*
X41729419Y-89855770D01*
X41725835Y-89855515D01*
X41722515Y-89854140D01*
X41703006Y-89852219D01*
X41369673Y-89852219D01*
X41350164Y-89854140D01*
X41314116Y-89869072D01*
X41286526Y-89896662D01*
X41271594Y-89932710D01*
X41269673Y-89952219D01*
X41158562Y-89952219D01*
X41158562Y-89741108D01*
X45721721Y-89741108D01*
X45721721Y-91163330D01*
G37*
G36*
X41791844Y-99563430D02*
G01*
X41811296Y-99582882D01*
X41841101Y-99642492D01*
X41841101Y-99738135D01*
X41811296Y-99797743D01*
X41786627Y-99822413D01*
X41727018Y-99852219D01*
X41469673Y-99852219D01*
X41469673Y-99528409D01*
X41686779Y-99528409D01*
X41791844Y-99563430D01*
G37*
G36*
X41739008Y-99082024D02*
G01*
X41763677Y-99106692D01*
X41793482Y-99166302D01*
X41793482Y-99214326D01*
X41763677Y-99273935D01*
X41739008Y-99298603D01*
X41679399Y-99328409D01*
X41469673Y-99328409D01*
X41469673Y-99052219D01*
X41679399Y-99052219D01*
X41739008Y-99082024D01*
G37*
G36*
X42659502Y-99566504D02*
G01*
X42460797Y-99566504D01*
X42560149Y-99268446D01*
X42659502Y-99566504D01*
G37*
G36*
X45721721Y-100163330D02*
G01*
X41158562Y-100163330D01*
X41158562Y-98952219D01*
X41269673Y-98952219D01*
X41269673Y-99952219D01*
X41271594Y-99971728D01*
X41286526Y-100007776D01*
X41314116Y-100035366D01*
X41350164Y-100050298D01*
X41369673Y-100052219D01*
X41750625Y-100052219D01*
X41770134Y-100050298D01*
X41773454Y-100048922D01*
X41777038Y-100048668D01*
X41795346Y-100041662D01*
X41890584Y-99994043D01*
X41898979Y-99988758D01*
X41901421Y-99987747D01*
X41904168Y-99985491D01*
X41907174Y-99983600D01*
X41908904Y-99981605D01*
X41916574Y-99975310D01*
X41952171Y-99939712D01*
X42127601Y-99939712D01*
X42130367Y-99978632D01*
X42147817Y-100013531D01*
X42177293Y-100039096D01*
X42214309Y-100051434D01*
X42253229Y-100048668D01*
X42288128Y-100031218D01*
X42313693Y-100001742D01*
X42321684Y-99983842D01*
X42394130Y-99766504D01*
X42726168Y-99766504D01*
X42798614Y-99983841D01*
X42806605Y-100001742D01*
X42832170Y-100031218D01*
X42867069Y-100048667D01*
X42905989Y-100051434D01*
X42943005Y-100039095D01*
X42972481Y-100013530D01*
X42989931Y-99978631D01*
X42992697Y-99939711D01*
X42988350Y-99920596D01*
X42659055Y-98932710D01*
X42985880Y-98932710D01*
X42985880Y-98971728D01*
X43000812Y-99007776D01*
X43028402Y-99035366D01*
X43064450Y-99050298D01*
X43083959Y-99052219D01*
X43269673Y-99052219D01*
X43269673Y-99952219D01*
X43271594Y-99971728D01*
X43286526Y-100007776D01*
X43314116Y-100035366D01*
X43350164Y-100050298D01*
X43389182Y-100050298D01*
X43425230Y-100035366D01*
X43452820Y-100007776D01*
X43467752Y-99971728D01*
X43469673Y-99952219D01*
X43469673Y-99052219D01*
X43655387Y-99052219D01*
X43674896Y-99050298D01*
X43710944Y-99035366D01*
X43738534Y-99007776D01*
X43750625Y-98978585D01*
X43762717Y-99007776D01*
X43790307Y-99035366D01*
X43826355Y-99050298D01*
X43845864Y-99052219D01*
X44031578Y-99052219D01*
X44031578Y-99952219D01*
X44033499Y-99971728D01*
X44048431Y-100007776D01*
X44076021Y-100035366D01*
X44112069Y-100050298D01*
X44151087Y-100050298D01*
X44187135Y-100035366D01*
X44214725Y-100007776D01*
X44229657Y-99971728D01*
X44231578Y-99952219D01*
X44231578Y-99551757D01*
X44652547Y-99551757D01*
X44652547Y-99590775D01*
X44667479Y-99626823D01*
X44695069Y-99654413D01*
X44731117Y-99669345D01*
X44750626Y-99671266D01*
X45512531Y-99671266D01*
X45532040Y-99669345D01*
X45568088Y-99654413D01*
X45595678Y-99626823D01*
X45610610Y-99590775D01*
X45610610Y-99551757D01*
X45595678Y-99515709D01*
X45568088Y-99488119D01*
X45532040Y-99473187D01*
X45512531Y-99471266D01*
X44750626Y-99471266D01*
X44731117Y-99473187D01*
X44695069Y-99488119D01*
X44667479Y-99515709D01*
X44652547Y-99551757D01*
X44231578Y-99551757D01*
X44231578Y-99052219D01*
X44417292Y-99052219D01*
X44436801Y-99050298D01*
X44472849Y-99035366D01*
X44500439Y-99007776D01*
X44515371Y-98971728D01*
X44515371Y-98932710D01*
X44500439Y-98896662D01*
X44472849Y-98869072D01*
X44436801Y-98854140D01*
X44417292Y-98852219D01*
X43845864Y-98852219D01*
X43826355Y-98854140D01*
X43790307Y-98869072D01*
X43762717Y-98896662D01*
X43750625Y-98925852D01*
X43738534Y-98896662D01*
X43710944Y-98869072D01*
X43674896Y-98854140D01*
X43655387Y-98852219D01*
X43083959Y-98852219D01*
X43064450Y-98854140D01*
X43028402Y-98869072D01*
X43000812Y-98896662D01*
X42985880Y-98932710D01*
X42659055Y-98932710D01*
X42655017Y-98920596D01*
X42647026Y-98902696D01*
X42642341Y-98897294D01*
X42639148Y-98890908D01*
X42629679Y-98882695D01*
X42621461Y-98873220D01*
X42615069Y-98870023D01*
X42609672Y-98865343D01*
X42597778Y-98861378D01*
X42586562Y-98855770D01*
X42579434Y-98855263D01*
X42572656Y-98853004D01*
X42560151Y-98853893D01*
X42547642Y-98853004D01*
X42540860Y-98855264D01*
X42533736Y-98855771D01*
X42522527Y-98861374D01*
X42510626Y-98865342D01*
X42505225Y-98870025D01*
X42498837Y-98873220D01*
X42490621Y-98882691D01*
X42481150Y-98890907D01*
X42477955Y-98897296D01*
X42473272Y-98902696D01*
X42465281Y-98920597D01*
X42131948Y-99920596D01*
X42127601Y-99939712D01*
X41952171Y-99939712D01*
X41964193Y-99927690D01*
X41970485Y-99920023D01*
X41972482Y-99918292D01*
X41974375Y-99915284D01*
X41976630Y-99912537D01*
X41977641Y-99910095D01*
X41982925Y-99901701D01*
X42030544Y-99806464D01*
X42037550Y-99788155D01*
X42037804Y-99784571D01*
X42039180Y-99781251D01*
X42041101Y-99761742D01*
X42041101Y-99618885D01*
X42039180Y-99599376D01*
X42037804Y-99596055D01*
X42037550Y-99592472D01*
X42030544Y-99574163D01*
X41982925Y-99478926D01*
X41977639Y-99470529D01*
X41976629Y-99468089D01*
X41974375Y-99465343D01*
X41972482Y-99462335D01*
X41970484Y-99460602D01*
X41964192Y-99452936D01*
X41916574Y-99405317D01*
X41915785Y-99404669D01*
X41916573Y-99403882D01*
X41922865Y-99396215D01*
X41924863Y-99394483D01*
X41926756Y-99391474D01*
X41929010Y-99388729D01*
X41930020Y-99386288D01*
X41935306Y-99377892D01*
X41982925Y-99282655D01*
X41989931Y-99264346D01*
X41990185Y-99260762D01*
X41991561Y-99257442D01*
X41993482Y-99237933D01*
X41993482Y-99142695D01*
X41991561Y-99123186D01*
X41990185Y-99119865D01*
X41989931Y-99116282D01*
X41982925Y-99097973D01*
X41935306Y-99002736D01*
X41930020Y-98994339D01*
X41929010Y-98991899D01*
X41926756Y-98989153D01*
X41924863Y-98986145D01*
X41922865Y-98984412D01*
X41916573Y-98976746D01*
X41868955Y-98929127D01*
X41861284Y-98922832D01*
X41859555Y-98920838D01*
X41856547Y-98918944D01*
X41853801Y-98916691D01*
X41851361Y-98915680D01*
X41842965Y-98910395D01*
X41747727Y-98862776D01*
X41729419Y-98855770D01*
X41725835Y-98855515D01*
X41722515Y-98854140D01*
X41703006Y-98852219D01*
X41369673Y-98852219D01*
X41350164Y-98854140D01*
X41314116Y-98869072D01*
X41286526Y-98896662D01*
X41271594Y-98932710D01*
X41269673Y-98952219D01*
X41158562Y-98952219D01*
X41158562Y-98741108D01*
X45721721Y-98741108D01*
X45721721Y-100163330D01*
G37*
G36*
X62786626Y-107582023D02*
G01*
X62850805Y-107646202D01*
X62888720Y-107797861D01*
X62888720Y-108106575D01*
X62850804Y-108258235D01*
X62786628Y-108322413D01*
X62727018Y-108352219D01*
X62583756Y-108352219D01*
X62524146Y-108322414D01*
X62459969Y-108258236D01*
X62422054Y-108106575D01*
X62422054Y-107797862D01*
X62459969Y-107646202D01*
X62524148Y-107582023D01*
X62583756Y-107552219D01*
X62727018Y-107552219D01*
X62786626Y-107582023D01*
G37*
G36*
X64959815Y-108663330D02*
G01*
X62110943Y-108663330D01*
X62110943Y-107785552D01*
X62222054Y-107785552D01*
X62222054Y-108118885D01*
X62222389Y-108122287D01*
X62222172Y-108123746D01*
X62223251Y-108131043D01*
X62223975Y-108138394D01*
X62224539Y-108139757D01*
X62225040Y-108143139D01*
X62272659Y-108333614D01*
X62279254Y-108352075D01*
X62283679Y-108358047D01*
X62286525Y-108364918D01*
X62298962Y-108380071D01*
X62394200Y-108475311D01*
X62401868Y-108481604D01*
X62403599Y-108483600D01*
X62406606Y-108485493D01*
X62409353Y-108487747D01*
X62411793Y-108488757D01*
X62420190Y-108494043D01*
X62515427Y-108541662D01*
X62533736Y-108548668D01*
X62537319Y-108548922D01*
X62540640Y-108550298D01*
X62560149Y-108552219D01*
X62750625Y-108552219D01*
X62770134Y-108550298D01*
X62773454Y-108548922D01*
X62777038Y-108548668D01*
X62795346Y-108541662D01*
X62890584Y-108494043D01*
X62898979Y-108488758D01*
X62901421Y-108487747D01*
X62904168Y-108485491D01*
X62907174Y-108483600D01*
X62908904Y-108481605D01*
X62916574Y-108475310D01*
X63011812Y-108380071D01*
X63024249Y-108364918D01*
X63027094Y-108358047D01*
X63031520Y-108352075D01*
X63038115Y-108333615D01*
X63085734Y-108143139D01*
X63086234Y-108139757D01*
X63086799Y-108138394D01*
X63087522Y-108131043D01*
X63088602Y-108123746D01*
X63088384Y-108122287D01*
X63088720Y-108118885D01*
X63088720Y-107785552D01*
X63088384Y-107782149D01*
X63088602Y-107780691D01*
X63087522Y-107773393D01*
X63086799Y-107766043D01*
X63086234Y-107764679D01*
X63085734Y-107761298D01*
X63038115Y-107570822D01*
X63031520Y-107552362D01*
X63027093Y-107546387D01*
X63024248Y-107539519D01*
X63011812Y-107524365D01*
X62939666Y-107452219D01*
X63317292Y-107452219D01*
X63317292Y-108452219D01*
X63319213Y-108471728D01*
X63334145Y-108507776D01*
X63361735Y-108535366D01*
X63397783Y-108550298D01*
X63436801Y-108550298D01*
X63472849Y-108535366D01*
X63500439Y-108507776D01*
X63515371Y-108471728D01*
X63517292Y-108452219D01*
X63517292Y-108028409D01*
X63750625Y-108028409D01*
X63770134Y-108026488D01*
X63806182Y-108011556D01*
X63833772Y-107983966D01*
X63848704Y-107947918D01*
X63848704Y-107908900D01*
X63833772Y-107872852D01*
X63806182Y-107845262D01*
X63770134Y-107830330D01*
X63750625Y-107828409D01*
X63517292Y-107828409D01*
X63517292Y-107552219D01*
X63893482Y-107552219D01*
X63912991Y-107550298D01*
X63949039Y-107535366D01*
X63976629Y-107507776D01*
X63991561Y-107471728D01*
X63991561Y-107452219D01*
X64174435Y-107452219D01*
X64174435Y-108452219D01*
X64176356Y-108471728D01*
X64191288Y-108507776D01*
X64218878Y-108535366D01*
X64254926Y-108550298D01*
X64293944Y-108550298D01*
X64329992Y-108535366D01*
X64357582Y-108507776D01*
X64372514Y-108471728D01*
X64374435Y-108452219D01*
X64374435Y-108028409D01*
X64607768Y-108028409D01*
X64627277Y-108026488D01*
X64663325Y-108011556D01*
X64690915Y-107983966D01*
X64705847Y-107947918D01*
X64705847Y-107908900D01*
X64690915Y-107872852D01*
X64663325Y-107845262D01*
X64627277Y-107830330D01*
X64607768Y-107828409D01*
X64374435Y-107828409D01*
X64374435Y-107552219D01*
X64750625Y-107552219D01*
X64770134Y-107550298D01*
X64806182Y-107535366D01*
X64833772Y-107507776D01*
X64848704Y-107471728D01*
X64848704Y-107432710D01*
X64833772Y-107396662D01*
X64806182Y-107369072D01*
X64770134Y-107354140D01*
X64750625Y-107352219D01*
X64274435Y-107352219D01*
X64254926Y-107354140D01*
X64218878Y-107369072D01*
X64191288Y-107396662D01*
X64176356Y-107432710D01*
X64174435Y-107452219D01*
X63991561Y-107452219D01*
X63991561Y-107432710D01*
X63976629Y-107396662D01*
X63949039Y-107369072D01*
X63912991Y-107354140D01*
X63893482Y-107352219D01*
X63417292Y-107352219D01*
X63397783Y-107354140D01*
X63361735Y-107369072D01*
X63334145Y-107396662D01*
X63319213Y-107432710D01*
X63317292Y-107452219D01*
X62939666Y-107452219D01*
X62916574Y-107429127D01*
X62908903Y-107422832D01*
X62907174Y-107420838D01*
X62904166Y-107418944D01*
X62901420Y-107416691D01*
X62898980Y-107415680D01*
X62890584Y-107410395D01*
X62795346Y-107362776D01*
X62777038Y-107355770D01*
X62773454Y-107355515D01*
X62770134Y-107354140D01*
X62750625Y-107352219D01*
X62560149Y-107352219D01*
X62540640Y-107354140D01*
X62537319Y-107355515D01*
X62533736Y-107355770D01*
X62515427Y-107362776D01*
X62420190Y-107410395D01*
X62411791Y-107415681D01*
X62409354Y-107416691D01*
X62406610Y-107418942D01*
X62403599Y-107420838D01*
X62401866Y-107422835D01*
X62394200Y-107429127D01*
X62298962Y-107524365D01*
X62286526Y-107539519D01*
X62283680Y-107546387D01*
X62279254Y-107552362D01*
X62272659Y-107570823D01*
X62225040Y-107761298D01*
X62224539Y-107764679D01*
X62223975Y-107766043D01*
X62223251Y-107773393D01*
X62222172Y-107780691D01*
X62222389Y-107782149D01*
X62222054Y-107785552D01*
X62110943Y-107785552D01*
X62110943Y-107241108D01*
X64959815Y-107241108D01*
X64959815Y-108663330D01*
G37*
G36*
X54899666Y-89413330D02*
G01*
X51146032Y-89413330D01*
X51146032Y-88202219D01*
X51257143Y-88202219D01*
X51257143Y-89202219D01*
X51259064Y-89221728D01*
X51273996Y-89257776D01*
X51301586Y-89285366D01*
X51337634Y-89300298D01*
X51376652Y-89300298D01*
X51412700Y-89285366D01*
X51440290Y-89257776D01*
X51455222Y-89221728D01*
X51457143Y-89202219D01*
X51457143Y-88778409D01*
X51690476Y-88778409D01*
X51709985Y-88776488D01*
X51746033Y-88761556D01*
X51773623Y-88733966D01*
X51788555Y-88697918D01*
X51788555Y-88658900D01*
X51773623Y-88622852D01*
X51746033Y-88595262D01*
X51709985Y-88580330D01*
X51690476Y-88578409D01*
X51457143Y-88578409D01*
X51457143Y-88302219D01*
X51833333Y-88302219D01*
X51852842Y-88300298D01*
X51888890Y-88285366D01*
X51916480Y-88257776D01*
X51931412Y-88221728D01*
X51931412Y-88202219D01*
X52114286Y-88202219D01*
X52114286Y-89011742D01*
X52116207Y-89031251D01*
X52117582Y-89034571D01*
X52117837Y-89038155D01*
X52124843Y-89056463D01*
X52172462Y-89151701D01*
X52177745Y-89160093D01*
X52178757Y-89162537D01*
X52181013Y-89165286D01*
X52182905Y-89168291D01*
X52184899Y-89170020D01*
X52191194Y-89177690D01*
X52238812Y-89225310D01*
X52246480Y-89231603D01*
X52248212Y-89233600D01*
X52251220Y-89235493D01*
X52253966Y-89237747D01*
X52256406Y-89238757D01*
X52264803Y-89244043D01*
X52360040Y-89291662D01*
X52378349Y-89298668D01*
X52381932Y-89298922D01*
X52385253Y-89300298D01*
X52404762Y-89302219D01*
X52595238Y-89302219D01*
X52614747Y-89300298D01*
X52618067Y-89298922D01*
X52621651Y-89298668D01*
X52639959Y-89291662D01*
X52735197Y-89244043D01*
X52743592Y-89238758D01*
X52746034Y-89237747D01*
X52748781Y-89235491D01*
X52751787Y-89233600D01*
X52753517Y-89231605D01*
X52761187Y-89225310D01*
X52808806Y-89177690D01*
X52815098Y-89170023D01*
X52817095Y-89168292D01*
X52818988Y-89165284D01*
X52821243Y-89162537D01*
X52822254Y-89160095D01*
X52827538Y-89151701D01*
X52875157Y-89056464D01*
X52882163Y-89038155D01*
X52882417Y-89034571D01*
X52883793Y-89031251D01*
X52885714Y-89011742D01*
X52885714Y-88392695D01*
X53114286Y-88392695D01*
X53114286Y-88487933D01*
X53116207Y-88507442D01*
X53117582Y-88510762D01*
X53117837Y-88514346D01*
X53124843Y-88532654D01*
X53172462Y-88627892D01*
X53177747Y-88636288D01*
X53178758Y-88638728D01*
X53181011Y-88641474D01*
X53182905Y-88644482D01*
X53184899Y-88646211D01*
X53191194Y-88653882D01*
X53238813Y-88701500D01*
X53246479Y-88707792D01*
X53248212Y-88709790D01*
X53251220Y-88711683D01*
X53253966Y-88713937D01*
X53256406Y-88714947D01*
X53264803Y-88720233D01*
X53360040Y-88767852D01*
X53361468Y-88768398D01*
X53362048Y-88768828D01*
X53370224Y-88771749D01*
X53378349Y-88774858D01*
X53379069Y-88774909D01*
X53380508Y-88775423D01*
X53560333Y-88820379D01*
X53631240Y-88855833D01*
X53655909Y-88880501D01*
X53685714Y-88940111D01*
X53685714Y-88988135D01*
X53655909Y-89047743D01*
X53631240Y-89072413D01*
X53571631Y-89102219D01*
X53373369Y-89102219D01*
X53245909Y-89059732D01*
X53226793Y-89055385D01*
X53187873Y-89058151D01*
X53152974Y-89075601D01*
X53127409Y-89105077D01*
X53115071Y-89142093D01*
X53117837Y-89181013D01*
X53135287Y-89215912D01*
X53164763Y-89241477D01*
X53182663Y-89249468D01*
X53325520Y-89297087D01*
X53335192Y-89299286D01*
X53337634Y-89300298D01*
X53341171Y-89300646D01*
X53344635Y-89301434D01*
X53347269Y-89301246D01*
X53357143Y-89302219D01*
X53595238Y-89302219D01*
X53614747Y-89300298D01*
X53618067Y-89298922D01*
X53621651Y-89298668D01*
X53639959Y-89291662D01*
X53735197Y-89244043D01*
X53743592Y-89238758D01*
X53746034Y-89237747D01*
X53748781Y-89235491D01*
X53751787Y-89233600D01*
X53753517Y-89231605D01*
X53761187Y-89225310D01*
X53808806Y-89177690D01*
X53815098Y-89170023D01*
X53817095Y-89168292D01*
X53818988Y-89165284D01*
X53821243Y-89162537D01*
X53822254Y-89160095D01*
X53827538Y-89151701D01*
X53875157Y-89056464D01*
X53882163Y-89038155D01*
X53882417Y-89034571D01*
X53883793Y-89031251D01*
X53885714Y-89011742D01*
X53885714Y-88916504D01*
X53883793Y-88896995D01*
X53882417Y-88893674D01*
X53882163Y-88890091D01*
X53875157Y-88871782D01*
X53827538Y-88776545D01*
X53822252Y-88768148D01*
X53821242Y-88765708D01*
X53818988Y-88762962D01*
X53817095Y-88759954D01*
X53815097Y-88758221D01*
X53808805Y-88750555D01*
X53761187Y-88702936D01*
X53753516Y-88696641D01*
X53751787Y-88694647D01*
X53748779Y-88692753D01*
X53746033Y-88690500D01*
X53743593Y-88689489D01*
X53735197Y-88684204D01*
X53639959Y-88636585D01*
X53638532Y-88636039D01*
X53637952Y-88635609D01*
X53629775Y-88632687D01*
X53621651Y-88629579D01*
X53620928Y-88629527D01*
X53619491Y-88629014D01*
X53439666Y-88584057D01*
X53368759Y-88548604D01*
X53344091Y-88523935D01*
X53314286Y-88464325D01*
X53314286Y-88416302D01*
X53344091Y-88356692D01*
X53368759Y-88332023D01*
X53428369Y-88302219D01*
X53626630Y-88302219D01*
X53754091Y-88344706D01*
X53773206Y-88349053D01*
X53812126Y-88346287D01*
X53847025Y-88328837D01*
X53872590Y-88299361D01*
X53884929Y-88262345D01*
X53882162Y-88223425D01*
X53871559Y-88202219D01*
X54114286Y-88202219D01*
X54114286Y-89202219D01*
X54116207Y-89221728D01*
X54131139Y-89257776D01*
X54158729Y-89285366D01*
X54194777Y-89300298D01*
X54214286Y-89302219D01*
X54690476Y-89302219D01*
X54709985Y-89300298D01*
X54746033Y-89285366D01*
X54773623Y-89257776D01*
X54788555Y-89221728D01*
X54788555Y-89182710D01*
X54773623Y-89146662D01*
X54746033Y-89119072D01*
X54709985Y-89104140D01*
X54690476Y-89102219D01*
X54314286Y-89102219D01*
X54314286Y-88778409D01*
X54547619Y-88778409D01*
X54567128Y-88776488D01*
X54603176Y-88761556D01*
X54630766Y-88733966D01*
X54645698Y-88697918D01*
X54645698Y-88658900D01*
X54630766Y-88622852D01*
X54603176Y-88595262D01*
X54567128Y-88580330D01*
X54547619Y-88578409D01*
X54314286Y-88578409D01*
X54314286Y-88302219D01*
X54690476Y-88302219D01*
X54709985Y-88300298D01*
X54746033Y-88285366D01*
X54773623Y-88257776D01*
X54788555Y-88221728D01*
X54788555Y-88182710D01*
X54773623Y-88146662D01*
X54746033Y-88119072D01*
X54709985Y-88104140D01*
X54690476Y-88102219D01*
X54214286Y-88102219D01*
X54194777Y-88104140D01*
X54158729Y-88119072D01*
X54131139Y-88146662D01*
X54116207Y-88182710D01*
X54114286Y-88202219D01*
X53871559Y-88202219D01*
X53864713Y-88188526D01*
X53835237Y-88162961D01*
X53817336Y-88154970D01*
X53674480Y-88107351D01*
X53664808Y-88105151D01*
X53662366Y-88104140D01*
X53658827Y-88103791D01*
X53655364Y-88103004D01*
X53652730Y-88103191D01*
X53642857Y-88102219D01*
X53404762Y-88102219D01*
X53385253Y-88104140D01*
X53381932Y-88105515D01*
X53378349Y-88105770D01*
X53360040Y-88112776D01*
X53264803Y-88160395D01*
X53256406Y-88165680D01*
X53253966Y-88166691D01*
X53251220Y-88168944D01*
X53248212Y-88170838D01*
X53246479Y-88172835D01*
X53238813Y-88179128D01*
X53191194Y-88226746D01*
X53184899Y-88234416D01*
X53182905Y-88236146D01*
X53181011Y-88239153D01*
X53178758Y-88241900D01*
X53177747Y-88244339D01*
X53172462Y-88252736D01*
X53124843Y-88347974D01*
X53117837Y-88366282D01*
X53117582Y-88369865D01*
X53116207Y-88373186D01*
X53114286Y-88392695D01*
X52885714Y-88392695D01*
X52885714Y-88202219D01*
X52883793Y-88182710D01*
X52868861Y-88146662D01*
X52841271Y-88119072D01*
X52805223Y-88104140D01*
X52766205Y-88104140D01*
X52730157Y-88119072D01*
X52702567Y-88146662D01*
X52687635Y-88182710D01*
X52685714Y-88202219D01*
X52685714Y-88988135D01*
X52655909Y-89047743D01*
X52631240Y-89072413D01*
X52571631Y-89102219D01*
X52428369Y-89102219D01*
X52368759Y-89072414D01*
X52344092Y-89047746D01*
X52314286Y-88988134D01*
X52314286Y-88202219D01*
X52312365Y-88182710D01*
X52297433Y-88146662D01*
X52269843Y-88119072D01*
X52233795Y-88104140D01*
X52194777Y-88104140D01*
X52158729Y-88119072D01*
X52131139Y-88146662D01*
X52116207Y-88182710D01*
X52114286Y-88202219D01*
X51931412Y-88202219D01*
X51931412Y-88182710D01*
X51916480Y-88146662D01*
X51888890Y-88119072D01*
X51852842Y-88104140D01*
X51833333Y-88102219D01*
X51357143Y-88102219D01*
X51337634Y-88104140D01*
X51301586Y-88119072D01*
X51273996Y-88146662D01*
X51259064Y-88182710D01*
X51257143Y-88202219D01*
X51146032Y-88202219D01*
X51146032Y-87991108D01*
X54899666Y-87991108D01*
X54899666Y-89413330D01*
G37*
G36*
X50231068Y-65837240D02*
G01*
X50298141Y-65904313D01*
X50333593Y-65975218D01*
X50375564Y-66143099D01*
X50375564Y-66261337D01*
X50333593Y-66429218D01*
X50298140Y-66500124D01*
X50231069Y-66567197D01*
X50126004Y-66602219D01*
X50004136Y-66602219D01*
X50004136Y-65802219D01*
X50126004Y-65802219D01*
X50231068Y-65837240D01*
G37*
G36*
X51639056Y-66913330D02*
G01*
X49693025Y-66913330D01*
X49693025Y-65702219D01*
X49804136Y-65702219D01*
X49804136Y-66702219D01*
X49806057Y-66721728D01*
X49820989Y-66757776D01*
X49848579Y-66785366D01*
X49884627Y-66800298D01*
X49904136Y-66802219D01*
X50142231Y-66802219D01*
X50152104Y-66801246D01*
X50154738Y-66801434D01*
X50158201Y-66800646D01*
X50161740Y-66800298D01*
X50164182Y-66799286D01*
X50173854Y-66797087D01*
X50316710Y-66749468D01*
X50334611Y-66741477D01*
X50337326Y-66739122D01*
X50340646Y-66737747D01*
X50355799Y-66725310D01*
X50451037Y-66630071D01*
X50457329Y-66622404D01*
X50459326Y-66620673D01*
X50461219Y-66617665D01*
X50463474Y-66614918D01*
X50464485Y-66612476D01*
X50469769Y-66604082D01*
X50517388Y-66508845D01*
X50517934Y-66507416D01*
X50518364Y-66506837D01*
X50521285Y-66498660D01*
X50524394Y-66490536D01*
X50524445Y-66489815D01*
X50524959Y-66488377D01*
X50572578Y-66297901D01*
X50573078Y-66294519D01*
X50573643Y-66293156D01*
X50574366Y-66285805D01*
X50575446Y-66278508D01*
X50575228Y-66277049D01*
X50575564Y-66273647D01*
X50575564Y-66130790D01*
X50575228Y-66127387D01*
X50575446Y-66125929D01*
X50574366Y-66118631D01*
X50573643Y-66111281D01*
X50573078Y-66109917D01*
X50572578Y-66106536D01*
X50524959Y-65916060D01*
X50524445Y-65914621D01*
X50524394Y-65913901D01*
X50521285Y-65905776D01*
X50518364Y-65897600D01*
X50517934Y-65897020D01*
X50517388Y-65895592D01*
X50469769Y-65800355D01*
X50464482Y-65791956D01*
X50463473Y-65789519D01*
X50461221Y-65786775D01*
X50459326Y-65783764D01*
X50457328Y-65782031D01*
X50451037Y-65774365D01*
X50359382Y-65682710D01*
X50710819Y-65682710D01*
X50710819Y-65721728D01*
X50725751Y-65757776D01*
X50753341Y-65785366D01*
X50789389Y-65800298D01*
X50808898Y-65802219D01*
X51207568Y-65802219D01*
X51019354Y-66017321D01*
X51013324Y-66025754D01*
X51011465Y-66027614D01*
X51010734Y-66029377D01*
X51007953Y-66033268D01*
X51002748Y-66048656D01*
X50996533Y-66063662D01*
X50996533Y-66067035D01*
X50995453Y-66070229D01*
X50996533Y-66086431D01*
X50996533Y-66102680D01*
X50997823Y-66105795D01*
X50998048Y-66109161D01*
X51005248Y-66123721D01*
X51011465Y-66138728D01*
X51013849Y-66141112D01*
X51015345Y-66144136D01*
X51027570Y-66154833D01*
X51039055Y-66166318D01*
X51042169Y-66167608D01*
X51044709Y-66169830D01*
X51060097Y-66175034D01*
X51075103Y-66181250D01*
X51079862Y-66181718D01*
X51081670Y-66182330D01*
X51084294Y-66182155D01*
X51094612Y-66183171D01*
X51213862Y-66183171D01*
X51273471Y-66212976D01*
X51298140Y-66237644D01*
X51327945Y-66297254D01*
X51327945Y-66488135D01*
X51298140Y-66547743D01*
X51273471Y-66572413D01*
X51213862Y-66602219D01*
X50975362Y-66602219D01*
X50915752Y-66572414D01*
X50879609Y-66536270D01*
X50864456Y-66523833D01*
X50828408Y-66508902D01*
X50789390Y-66508901D01*
X50753341Y-66523832D01*
X50725751Y-66551422D01*
X50710820Y-66587470D01*
X50710819Y-66626488D01*
X50725750Y-66662537D01*
X50738187Y-66677690D01*
X50785805Y-66725310D01*
X50793473Y-66731603D01*
X50795205Y-66733600D01*
X50798213Y-66735493D01*
X50800959Y-66737747D01*
X50803399Y-66738757D01*
X50811796Y-66744043D01*
X50907033Y-66791662D01*
X50925342Y-66798668D01*
X50928925Y-66798922D01*
X50932246Y-66800298D01*
X50951755Y-66802219D01*
X51237469Y-66802219D01*
X51256978Y-66800298D01*
X51260298Y-66798922D01*
X51263882Y-66798668D01*
X51282190Y-66791662D01*
X51377428Y-66744043D01*
X51385823Y-66738758D01*
X51388265Y-66737747D01*
X51391012Y-66735491D01*
X51394018Y-66733600D01*
X51395748Y-66731605D01*
X51403418Y-66725310D01*
X51451037Y-66677690D01*
X51457329Y-66670023D01*
X51459326Y-66668292D01*
X51461219Y-66665284D01*
X51463474Y-66662537D01*
X51464485Y-66660095D01*
X51469769Y-66651701D01*
X51517388Y-66556464D01*
X51524394Y-66538155D01*
X51524648Y-66534571D01*
X51526024Y-66531251D01*
X51527945Y-66511742D01*
X51527945Y-66273647D01*
X51526024Y-66254138D01*
X51524648Y-66250817D01*
X51524394Y-66247234D01*
X51517388Y-66228925D01*
X51469769Y-66133688D01*
X51464483Y-66125291D01*
X51463473Y-66122851D01*
X51461219Y-66120105D01*
X51459326Y-66117097D01*
X51457328Y-66115364D01*
X51451036Y-66107698D01*
X51403418Y-66060079D01*
X51395747Y-66053784D01*
X51394018Y-66051790D01*
X51391010Y-66049896D01*
X51388264Y-66047643D01*
X51385824Y-66046632D01*
X51377428Y-66041347D01*
X51298580Y-66001923D01*
X51503203Y-65768069D01*
X51509232Y-65759635D01*
X51511092Y-65757776D01*
X51511822Y-65756012D01*
X51514604Y-65752122D01*
X51519808Y-65736733D01*
X51526024Y-65721728D01*
X51526024Y-65718354D01*
X51527104Y-65715161D01*
X51526024Y-65698958D01*
X51526024Y-65682710D01*
X51524733Y-65679594D01*
X51524509Y-65676229D01*
X51517306Y-65661663D01*
X51511092Y-65646662D01*
X51508708Y-65644278D01*
X51507213Y-65641254D01*
X51494979Y-65630549D01*
X51483502Y-65619072D01*
X51480388Y-65617782D01*
X51477849Y-65615560D01*
X51462457Y-65610354D01*
X51447454Y-65604140D01*
X51442694Y-65603671D01*
X51440887Y-65603060D01*
X51438262Y-65603234D01*
X51427945Y-65602219D01*
X50808898Y-65602219D01*
X50789389Y-65604140D01*
X50753341Y-65619072D01*
X50725751Y-65646662D01*
X50710819Y-65682710D01*
X50359382Y-65682710D01*
X50355799Y-65679127D01*
X50340645Y-65666691D01*
X50337326Y-65665316D01*
X50334611Y-65662961D01*
X50316710Y-65654970D01*
X50173854Y-65607351D01*
X50164182Y-65605151D01*
X50161740Y-65604140D01*
X50158201Y-65603791D01*
X50154738Y-65603004D01*
X50152104Y-65603191D01*
X50142231Y-65602219D01*
X49904136Y-65602219D01*
X49884627Y-65604140D01*
X49848579Y-65619072D01*
X49820989Y-65646662D01*
X49806057Y-65682710D01*
X49804136Y-65702219D01*
X49693025Y-65702219D01*
X49693025Y-65491108D01*
X51639056Y-65491108D01*
X51639056Y-66913330D01*
G37*
G36*
X50231068Y-67337240D02*
G01*
X50298141Y-67404313D01*
X50333593Y-67475218D01*
X50375564Y-67643099D01*
X50375564Y-67761337D01*
X50333593Y-67929218D01*
X50298140Y-68000124D01*
X50231069Y-68067197D01*
X50126004Y-68102219D01*
X50004136Y-68102219D01*
X50004136Y-67302219D01*
X50126004Y-67302219D01*
X50231068Y-67337240D01*
G37*
G36*
X51639056Y-68413330D02*
G01*
X49693025Y-68413330D01*
X49693025Y-67202219D01*
X49804136Y-67202219D01*
X49804136Y-68202219D01*
X49806057Y-68221728D01*
X49820989Y-68257776D01*
X49848579Y-68285366D01*
X49884627Y-68300298D01*
X49904136Y-68302219D01*
X50142231Y-68302219D01*
X50152104Y-68301246D01*
X50154738Y-68301434D01*
X50158201Y-68300646D01*
X50161740Y-68300298D01*
X50164182Y-68299286D01*
X50173854Y-68297087D01*
X50316710Y-68249468D01*
X50334611Y-68241477D01*
X50337326Y-68239122D01*
X50340646Y-68237747D01*
X50355799Y-68225310D01*
X50398399Y-68182710D01*
X50710819Y-68182710D01*
X50710819Y-68221728D01*
X50725751Y-68257776D01*
X50753341Y-68285366D01*
X50789389Y-68300298D01*
X50808898Y-68302219D01*
X51427945Y-68302219D01*
X51447454Y-68300298D01*
X51483502Y-68285366D01*
X51511092Y-68257776D01*
X51526024Y-68221728D01*
X51526024Y-68182710D01*
X51511092Y-68146662D01*
X51483502Y-68119072D01*
X51447454Y-68104140D01*
X51427945Y-68102219D01*
X51050320Y-68102219D01*
X51451037Y-67701501D01*
X51463473Y-67686347D01*
X51464847Y-67683028D01*
X51467203Y-67680313D01*
X51475194Y-67662413D01*
X51522813Y-67519556D01*
X51525012Y-67509883D01*
X51526024Y-67507442D01*
X51526372Y-67503904D01*
X51527160Y-67500441D01*
X51526972Y-67497806D01*
X51527945Y-67487933D01*
X51527945Y-67392695D01*
X51526024Y-67373186D01*
X51524648Y-67369865D01*
X51524394Y-67366282D01*
X51517388Y-67347973D01*
X51469769Y-67252736D01*
X51464483Y-67244339D01*
X51463473Y-67241899D01*
X51461219Y-67239153D01*
X51459326Y-67236145D01*
X51457328Y-67234412D01*
X51451036Y-67226746D01*
X51403418Y-67179127D01*
X51395747Y-67172832D01*
X51394018Y-67170838D01*
X51391010Y-67168944D01*
X51388264Y-67166691D01*
X51385824Y-67165680D01*
X51377428Y-67160395D01*
X51282190Y-67112776D01*
X51263882Y-67105770D01*
X51260298Y-67105515D01*
X51256978Y-67104140D01*
X51237469Y-67102219D01*
X50999374Y-67102219D01*
X50979865Y-67104140D01*
X50976544Y-67105515D01*
X50972961Y-67105770D01*
X50954652Y-67112776D01*
X50859415Y-67160395D01*
X50851018Y-67165680D01*
X50848578Y-67166691D01*
X50845832Y-67168944D01*
X50842824Y-67170838D01*
X50841091Y-67172835D01*
X50833425Y-67179128D01*
X50785806Y-67226746D01*
X50773370Y-67241900D01*
X50758438Y-67277948D01*
X50758438Y-67316966D01*
X50773370Y-67353014D01*
X50800960Y-67380604D01*
X50837008Y-67395536D01*
X50876026Y-67395536D01*
X50912074Y-67380604D01*
X50927228Y-67368168D01*
X50963371Y-67332023D01*
X51022981Y-67302219D01*
X51213862Y-67302219D01*
X51273471Y-67332024D01*
X51298140Y-67356692D01*
X51327945Y-67416302D01*
X51327945Y-67471706D01*
X51292923Y-67576770D01*
X50738187Y-68131508D01*
X50725751Y-68146662D01*
X50710819Y-68182710D01*
X50398399Y-68182710D01*
X50451037Y-68130071D01*
X50457329Y-68122404D01*
X50459326Y-68120673D01*
X50461219Y-68117665D01*
X50463474Y-68114918D01*
X50464485Y-68112476D01*
X50469769Y-68104082D01*
X50517388Y-68008845D01*
X50517934Y-68007416D01*
X50518364Y-68006837D01*
X50521285Y-67998660D01*
X50524394Y-67990536D01*
X50524445Y-67989815D01*
X50524959Y-67988377D01*
X50572578Y-67797901D01*
X50573078Y-67794519D01*
X50573643Y-67793156D01*
X50574366Y-67785805D01*
X50575446Y-67778508D01*
X50575228Y-67777049D01*
X50575564Y-67773647D01*
X50575564Y-67630790D01*
X50575228Y-67627387D01*
X50575446Y-67625929D01*
X50574366Y-67618631D01*
X50573643Y-67611281D01*
X50573078Y-67609917D01*
X50572578Y-67606536D01*
X50524959Y-67416060D01*
X50524445Y-67414621D01*
X50524394Y-67413901D01*
X50521285Y-67405776D01*
X50518364Y-67397600D01*
X50517934Y-67397020D01*
X50517388Y-67395592D01*
X50469769Y-67300355D01*
X50464482Y-67291956D01*
X50463473Y-67289519D01*
X50461221Y-67286775D01*
X50459326Y-67283764D01*
X50457328Y-67282031D01*
X50451037Y-67274365D01*
X50355799Y-67179127D01*
X50340645Y-67166691D01*
X50337326Y-67165316D01*
X50334611Y-67162961D01*
X50316710Y-67154970D01*
X50173854Y-67107351D01*
X50164182Y-67105151D01*
X50161740Y-67104140D01*
X50158201Y-67103791D01*
X50154738Y-67103004D01*
X50152104Y-67103191D01*
X50142231Y-67102219D01*
X49904136Y-67102219D01*
X49884627Y-67104140D01*
X49848579Y-67119072D01*
X49820989Y-67146662D01*
X49806057Y-67182710D01*
X49804136Y-67202219D01*
X49693025Y-67202219D01*
X49693025Y-66991108D01*
X51639056Y-66991108D01*
X51639056Y-68413330D01*
G37*
G36*
X50231068Y-68837240D02*
G01*
X50298141Y-68904313D01*
X50333593Y-68975218D01*
X50375564Y-69143099D01*
X50375564Y-69261337D01*
X50333593Y-69429218D01*
X50298140Y-69500124D01*
X50231069Y-69567197D01*
X50126004Y-69602219D01*
X50004136Y-69602219D01*
X50004136Y-68802219D01*
X50126004Y-68802219D01*
X50231068Y-68837240D01*
G37*
G36*
X51637135Y-69913330D02*
G01*
X49693025Y-69913330D01*
X49693025Y-68702219D01*
X49804136Y-68702219D01*
X49804136Y-69702219D01*
X49806057Y-69721728D01*
X49820989Y-69757776D01*
X49848579Y-69785366D01*
X49884627Y-69800298D01*
X49904136Y-69802219D01*
X50142231Y-69802219D01*
X50152104Y-69801246D01*
X50154738Y-69801434D01*
X50158201Y-69800646D01*
X50161740Y-69800298D01*
X50164182Y-69799286D01*
X50173854Y-69797087D01*
X50316710Y-69749468D01*
X50334611Y-69741477D01*
X50337326Y-69739122D01*
X50340646Y-69737747D01*
X50355799Y-69725310D01*
X50451037Y-69630071D01*
X50457329Y-69622404D01*
X50459326Y-69620673D01*
X50461219Y-69617665D01*
X50463474Y-69614918D01*
X50464485Y-69612476D01*
X50469769Y-69604082D01*
X50517388Y-69508845D01*
X50517934Y-69507416D01*
X50518364Y-69506837D01*
X50521285Y-69498660D01*
X50524394Y-69490536D01*
X50524445Y-69489815D01*
X50524959Y-69488377D01*
X50572578Y-69297901D01*
X50573078Y-69294519D01*
X50573643Y-69293156D01*
X50574366Y-69285805D01*
X50575446Y-69278508D01*
X50575228Y-69277049D01*
X50575564Y-69273647D01*
X50575564Y-69130790D01*
X50575228Y-69127387D01*
X50575446Y-69125929D01*
X50574366Y-69118631D01*
X50573643Y-69111281D01*
X50573078Y-69109917D01*
X50572578Y-69106536D01*
X50539800Y-68975426D01*
X50757302Y-68975426D01*
X50760068Y-69014346D01*
X50777517Y-69049245D01*
X50806994Y-69074809D01*
X50844010Y-69087148D01*
X50882930Y-69084382D01*
X50901238Y-69077376D01*
X50996476Y-69029757D01*
X51004872Y-69024471D01*
X51007312Y-69023461D01*
X51010058Y-69021207D01*
X51013066Y-69019314D01*
X51014795Y-69017319D01*
X51022466Y-69011025D01*
X51042231Y-68991260D01*
X51042231Y-69602219D01*
X50856517Y-69602219D01*
X50837008Y-69604140D01*
X50800960Y-69619072D01*
X50773370Y-69646662D01*
X50758438Y-69682710D01*
X50758438Y-69721728D01*
X50773370Y-69757776D01*
X50800960Y-69785366D01*
X50837008Y-69800298D01*
X50856517Y-69802219D01*
X51427945Y-69802219D01*
X51447454Y-69800298D01*
X51483502Y-69785366D01*
X51511092Y-69757776D01*
X51526024Y-69721728D01*
X51526024Y-69682710D01*
X51511092Y-69646662D01*
X51483502Y-69619072D01*
X51447454Y-69604140D01*
X51427945Y-69602219D01*
X51242231Y-69602219D01*
X51242231Y-68702219D01*
X51242224Y-68702148D01*
X51242231Y-68702114D01*
X51242210Y-68702012D01*
X51240310Y-68682710D01*
X51236520Y-68673561D01*
X51234579Y-68663854D01*
X51229127Y-68655713D01*
X51225378Y-68646662D01*
X51218378Y-68639662D01*
X51212868Y-68631434D01*
X51204713Y-68625997D01*
X51197788Y-68619072D01*
X51188644Y-68615284D01*
X51180403Y-68609790D01*
X51170789Y-68607888D01*
X51161740Y-68604140D01*
X51151839Y-68604140D01*
X51142127Y-68602219D01*
X51132522Y-68604140D01*
X51122722Y-68604140D01*
X51113573Y-68607929D01*
X51103866Y-68609871D01*
X51095725Y-68615322D01*
X51086674Y-68619072D01*
X51079674Y-68626071D01*
X51071446Y-68631582D01*
X51059157Y-68646588D01*
X51059084Y-68646662D01*
X51059070Y-68646694D01*
X51059026Y-68646749D01*
X50969282Y-68781365D01*
X50892518Y-68858128D01*
X50811796Y-68898490D01*
X50795205Y-68908933D01*
X50769641Y-68938410D01*
X50757302Y-68975426D01*
X50539800Y-68975426D01*
X50524959Y-68916060D01*
X50524445Y-68914621D01*
X50524394Y-68913901D01*
X50521285Y-68905776D01*
X50518364Y-68897600D01*
X50517934Y-68897020D01*
X50517388Y-68895592D01*
X50469769Y-68800355D01*
X50464482Y-68791956D01*
X50463473Y-68789519D01*
X50461221Y-68786775D01*
X50459326Y-68783764D01*
X50457328Y-68782031D01*
X50451037Y-68774365D01*
X50355799Y-68679127D01*
X50340645Y-68666691D01*
X50337326Y-68665316D01*
X50334611Y-68662961D01*
X50316710Y-68654970D01*
X50173854Y-68607351D01*
X50164182Y-68605151D01*
X50161740Y-68604140D01*
X50158201Y-68603791D01*
X50154738Y-68603004D01*
X50152104Y-68603191D01*
X50142231Y-68602219D01*
X49904136Y-68602219D01*
X49884627Y-68604140D01*
X49848579Y-68619072D01*
X49820989Y-68646662D01*
X49806057Y-68682710D01*
X49804136Y-68702219D01*
X49693025Y-68702219D01*
X49693025Y-68491108D01*
X51637135Y-68491108D01*
X51637135Y-69913330D01*
G37*
G36*
X50231068Y-70337240D02*
G01*
X50298141Y-70404313D01*
X50333593Y-70475218D01*
X50375564Y-70643099D01*
X50375564Y-70761337D01*
X50333593Y-70929218D01*
X50298140Y-71000124D01*
X50231069Y-71067197D01*
X50126004Y-71102219D01*
X50004136Y-71102219D01*
X50004136Y-70302219D01*
X50126004Y-70302219D01*
X50231068Y-70337240D01*
G37*
G36*
X51225852Y-70332024D02*
G01*
X51250521Y-70356692D01*
X51285974Y-70427599D01*
X51327945Y-70595480D01*
X51327945Y-70808956D01*
X51285974Y-70976837D01*
X51250521Y-71047743D01*
X51225852Y-71072413D01*
X51166243Y-71102219D01*
X51118219Y-71102219D01*
X51058609Y-71072414D01*
X51033942Y-71047746D01*
X50998487Y-70976837D01*
X50956517Y-70808956D01*
X50956517Y-70595481D01*
X50998487Y-70427599D01*
X51033941Y-70356692D01*
X51058609Y-70332023D01*
X51118219Y-70302219D01*
X51166243Y-70302219D01*
X51225852Y-70332024D01*
G37*
G36*
X51639056Y-71413330D02*
G01*
X49693025Y-71413330D01*
X49693025Y-70202219D01*
X49804136Y-70202219D01*
X49804136Y-71202219D01*
X49806057Y-71221728D01*
X49820989Y-71257776D01*
X49848579Y-71285366D01*
X49884627Y-71300298D01*
X49904136Y-71302219D01*
X50142231Y-71302219D01*
X50152104Y-71301246D01*
X50154738Y-71301434D01*
X50158201Y-71300646D01*
X50161740Y-71300298D01*
X50164182Y-71299286D01*
X50173854Y-71297087D01*
X50316710Y-71249468D01*
X50334611Y-71241477D01*
X50337326Y-71239122D01*
X50340646Y-71237747D01*
X50355799Y-71225310D01*
X50451037Y-71130071D01*
X50457329Y-71122404D01*
X50459326Y-71120673D01*
X50461219Y-71117665D01*
X50463474Y-71114918D01*
X50464485Y-71112476D01*
X50469769Y-71104082D01*
X50517388Y-71008845D01*
X50517934Y-71007416D01*
X50518364Y-71006837D01*
X50521285Y-70998660D01*
X50524394Y-70990536D01*
X50524445Y-70989815D01*
X50524959Y-70988377D01*
X50572578Y-70797901D01*
X50573078Y-70794519D01*
X50573643Y-70793156D01*
X50574366Y-70785805D01*
X50575446Y-70778508D01*
X50575228Y-70777049D01*
X50575564Y-70773647D01*
X50575564Y-70630790D01*
X50575228Y-70627387D01*
X50575446Y-70625929D01*
X50574366Y-70618631D01*
X50573643Y-70611281D01*
X50573078Y-70609917D01*
X50572578Y-70606536D01*
X50566737Y-70583171D01*
X50756517Y-70583171D01*
X50756517Y-70821266D01*
X50756852Y-70824668D01*
X50756635Y-70826127D01*
X50757714Y-70833424D01*
X50758438Y-70840775D01*
X50759002Y-70842138D01*
X50759503Y-70845520D01*
X50807122Y-71035995D01*
X50807635Y-71037432D01*
X50807687Y-71038155D01*
X50810795Y-71046279D01*
X50813717Y-71054456D01*
X50814147Y-71055036D01*
X50814693Y-71056463D01*
X50862312Y-71151701D01*
X50867595Y-71160093D01*
X50868607Y-71162537D01*
X50870863Y-71165286D01*
X50872755Y-71168291D01*
X50874749Y-71170020D01*
X50881044Y-71177690D01*
X50928662Y-71225310D01*
X50936330Y-71231603D01*
X50938062Y-71233600D01*
X50941070Y-71235493D01*
X50943816Y-71237747D01*
X50946256Y-71238757D01*
X50954653Y-71244043D01*
X51049890Y-71291662D01*
X51068199Y-71298668D01*
X51071782Y-71298922D01*
X51075103Y-71300298D01*
X51094612Y-71302219D01*
X51189850Y-71302219D01*
X51209359Y-71300298D01*
X51212679Y-71298922D01*
X51216263Y-71298668D01*
X51234571Y-71291662D01*
X51329809Y-71244043D01*
X51338204Y-71238758D01*
X51340646Y-71237747D01*
X51343393Y-71235491D01*
X51346399Y-71233600D01*
X51348129Y-71231605D01*
X51355799Y-71225310D01*
X51403418Y-71177690D01*
X51409710Y-71170023D01*
X51411707Y-71168292D01*
X51413600Y-71165284D01*
X51415855Y-71162537D01*
X51416866Y-71160095D01*
X51422150Y-71151701D01*
X51469769Y-71056464D01*
X51470315Y-71055035D01*
X51470745Y-71054456D01*
X51473666Y-71046279D01*
X51476775Y-71038155D01*
X51476826Y-71037434D01*
X51477340Y-71035996D01*
X51524959Y-70845520D01*
X51525459Y-70842138D01*
X51526024Y-70840775D01*
X51526747Y-70833424D01*
X51527827Y-70826127D01*
X51527609Y-70824668D01*
X51527945Y-70821266D01*
X51527945Y-70583171D01*
X51527609Y-70579768D01*
X51527827Y-70578310D01*
X51526747Y-70571012D01*
X51526024Y-70563662D01*
X51525459Y-70562298D01*
X51524959Y-70558917D01*
X51477340Y-70368441D01*
X51476826Y-70367002D01*
X51476775Y-70366282D01*
X51473666Y-70358157D01*
X51470745Y-70349981D01*
X51470315Y-70349401D01*
X51469769Y-70347973D01*
X51422150Y-70252736D01*
X51416864Y-70244339D01*
X51415854Y-70241899D01*
X51413600Y-70239153D01*
X51411707Y-70236145D01*
X51409709Y-70234412D01*
X51403417Y-70226746D01*
X51355799Y-70179127D01*
X51348128Y-70172832D01*
X51346399Y-70170838D01*
X51343391Y-70168944D01*
X51340645Y-70166691D01*
X51338205Y-70165680D01*
X51329809Y-70160395D01*
X51234571Y-70112776D01*
X51216263Y-70105770D01*
X51212679Y-70105515D01*
X51209359Y-70104140D01*
X51189850Y-70102219D01*
X51094612Y-70102219D01*
X51075103Y-70104140D01*
X51071782Y-70105515D01*
X51068199Y-70105770D01*
X51049890Y-70112776D01*
X50954653Y-70160395D01*
X50946256Y-70165680D01*
X50943816Y-70166691D01*
X50941070Y-70168944D01*
X50938062Y-70170838D01*
X50936329Y-70172835D01*
X50928663Y-70179128D01*
X50881044Y-70226746D01*
X50874749Y-70234416D01*
X50872755Y-70236146D01*
X50870861Y-70239153D01*
X50868608Y-70241900D01*
X50867597Y-70244339D01*
X50862312Y-70252736D01*
X50814693Y-70347974D01*
X50814147Y-70349400D01*
X50813717Y-70349981D01*
X50810795Y-70358157D01*
X50807687Y-70366282D01*
X50807635Y-70367004D01*
X50807122Y-70368442D01*
X50759503Y-70558917D01*
X50759002Y-70562298D01*
X50758438Y-70563662D01*
X50757714Y-70571012D01*
X50756635Y-70578310D01*
X50756852Y-70579768D01*
X50756517Y-70583171D01*
X50566737Y-70583171D01*
X50524959Y-70416060D01*
X50524445Y-70414621D01*
X50524394Y-70413901D01*
X50521285Y-70405776D01*
X50518364Y-70397600D01*
X50517934Y-70397020D01*
X50517388Y-70395592D01*
X50469769Y-70300355D01*
X50464482Y-70291956D01*
X50463473Y-70289519D01*
X50461221Y-70286775D01*
X50459326Y-70283764D01*
X50457328Y-70282031D01*
X50451037Y-70274365D01*
X50355799Y-70179127D01*
X50340645Y-70166691D01*
X50337326Y-70165316D01*
X50334611Y-70162961D01*
X50316710Y-70154970D01*
X50173854Y-70107351D01*
X50164182Y-70105151D01*
X50161740Y-70104140D01*
X50158201Y-70103791D01*
X50154738Y-70103004D01*
X50152104Y-70103191D01*
X50142231Y-70102219D01*
X49904136Y-70102219D01*
X49884627Y-70104140D01*
X49848579Y-70119072D01*
X49820989Y-70146662D01*
X49806057Y-70182710D01*
X49804136Y-70202219D01*
X49693025Y-70202219D01*
X49693025Y-69991108D01*
X51639056Y-69991108D01*
X51639056Y-71413330D01*
G37*
G36*
X50428232Y-107582023D02*
G01*
X50492411Y-107646202D01*
X50530326Y-107797861D01*
X50530326Y-108106575D01*
X50492410Y-108258235D01*
X50428234Y-108322413D01*
X50368624Y-108352219D01*
X50225362Y-108352219D01*
X50165752Y-108322414D01*
X50101575Y-108258236D01*
X50063660Y-108106575D01*
X50063660Y-107797862D01*
X50101575Y-107646202D01*
X50165754Y-107582023D01*
X50225362Y-107552219D01*
X50368624Y-107552219D01*
X50428232Y-107582023D01*
G37*
G36*
X51841437Y-108663330D02*
G01*
X49752549Y-108663330D01*
X49752549Y-107785552D01*
X49863660Y-107785552D01*
X49863660Y-108118885D01*
X49863995Y-108122287D01*
X49863778Y-108123746D01*
X49864857Y-108131043D01*
X49865581Y-108138394D01*
X49866145Y-108139757D01*
X49866646Y-108143139D01*
X49914265Y-108333614D01*
X49920860Y-108352075D01*
X49925285Y-108358047D01*
X49928131Y-108364918D01*
X49940568Y-108380071D01*
X50035806Y-108475311D01*
X50043474Y-108481604D01*
X50045205Y-108483600D01*
X50048212Y-108485493D01*
X50050959Y-108487747D01*
X50053399Y-108488757D01*
X50061796Y-108494043D01*
X50157033Y-108541662D01*
X50175342Y-108548668D01*
X50178925Y-108548922D01*
X50182246Y-108550298D01*
X50201755Y-108552219D01*
X50392231Y-108552219D01*
X50411740Y-108550298D01*
X50415060Y-108548922D01*
X50418644Y-108548668D01*
X50436952Y-108541662D01*
X50532190Y-108494043D01*
X50540585Y-108488758D01*
X50543027Y-108487747D01*
X50545774Y-108485491D01*
X50548780Y-108483600D01*
X50550510Y-108481605D01*
X50558180Y-108475310D01*
X50653418Y-108380071D01*
X50665855Y-108364918D01*
X50668700Y-108358047D01*
X50673126Y-108352075D01*
X50679721Y-108333615D01*
X50727340Y-108143139D01*
X50727840Y-108139757D01*
X50728405Y-108138394D01*
X50729128Y-108131043D01*
X50730208Y-108123746D01*
X50729990Y-108122287D01*
X50730326Y-108118885D01*
X50730326Y-107785552D01*
X50729990Y-107782149D01*
X50730208Y-107780691D01*
X50729128Y-107773393D01*
X50728405Y-107766043D01*
X50727840Y-107764679D01*
X50727340Y-107761298D01*
X50679721Y-107570822D01*
X50673126Y-107552362D01*
X50668699Y-107546387D01*
X50665854Y-107539519D01*
X50653418Y-107524365D01*
X50581272Y-107452219D01*
X50958898Y-107452219D01*
X50958898Y-108452219D01*
X50960819Y-108471728D01*
X50975751Y-108507776D01*
X51003341Y-108535366D01*
X51039389Y-108550298D01*
X51078407Y-108550298D01*
X51114455Y-108535366D01*
X51142045Y-108507776D01*
X51156977Y-108471728D01*
X51158898Y-108452219D01*
X51158898Y-107828775D01*
X51543502Y-108501833D01*
X51546420Y-108505943D01*
X51547179Y-108507776D01*
X51549045Y-108509642D01*
X51554849Y-108517818D01*
X51565365Y-108525962D01*
X51574769Y-108535366D01*
X51580656Y-108537804D01*
X51585698Y-108541709D01*
X51598530Y-108545208D01*
X51610817Y-108550298D01*
X51617193Y-108550298D01*
X51623342Y-108551975D01*
X51636535Y-108550298D01*
X51649835Y-108550298D01*
X51655723Y-108547858D01*
X51662048Y-108547055D01*
X51673597Y-108540454D01*
X51685883Y-108535366D01*
X51690390Y-108530858D01*
X51695925Y-108527696D01*
X51704069Y-108517179D01*
X51713473Y-108507776D01*
X51715911Y-108501888D01*
X51719816Y-108496847D01*
X51723315Y-108484014D01*
X51728405Y-108471728D01*
X51729387Y-108461750D01*
X51730082Y-108459204D01*
X51729831Y-108457236D01*
X51730326Y-108452219D01*
X51730326Y-107452219D01*
X51728405Y-107432710D01*
X51713473Y-107396662D01*
X51685883Y-107369072D01*
X51649835Y-107354140D01*
X51610817Y-107354140D01*
X51574769Y-107369072D01*
X51547179Y-107396662D01*
X51532247Y-107432710D01*
X51530326Y-107452219D01*
X51530326Y-108075662D01*
X51145722Y-107402605D01*
X51142803Y-107398494D01*
X51142045Y-107396662D01*
X51140178Y-107394795D01*
X51134375Y-107386620D01*
X51123860Y-107378477D01*
X51114455Y-107369072D01*
X51108564Y-107366632D01*
X51103526Y-107362730D01*
X51090697Y-107359231D01*
X51078407Y-107354140D01*
X51072032Y-107354140D01*
X51065883Y-107352463D01*
X51052690Y-107354140D01*
X51039389Y-107354140D01*
X51033500Y-107356579D01*
X51027176Y-107357383D01*
X51015626Y-107363983D01*
X51003341Y-107369072D01*
X50998833Y-107373579D01*
X50993299Y-107376742D01*
X50985156Y-107387256D01*
X50975751Y-107396662D01*
X50973311Y-107402552D01*
X50969409Y-107407591D01*
X50965910Y-107420419D01*
X50960819Y-107432710D01*
X50959836Y-107442687D01*
X50959142Y-107445234D01*
X50959392Y-107447201D01*
X50958898Y-107452219D01*
X50581272Y-107452219D01*
X50558180Y-107429127D01*
X50550509Y-107422832D01*
X50548780Y-107420838D01*
X50545772Y-107418944D01*
X50543026Y-107416691D01*
X50540586Y-107415680D01*
X50532190Y-107410395D01*
X50436952Y-107362776D01*
X50418644Y-107355770D01*
X50415060Y-107355515D01*
X50411740Y-107354140D01*
X50392231Y-107352219D01*
X50201755Y-107352219D01*
X50182246Y-107354140D01*
X50178925Y-107355515D01*
X50175342Y-107355770D01*
X50157033Y-107362776D01*
X50061796Y-107410395D01*
X50053397Y-107415681D01*
X50050960Y-107416691D01*
X50048216Y-107418942D01*
X50045205Y-107420838D01*
X50043472Y-107422835D01*
X50035806Y-107429127D01*
X49940568Y-107524365D01*
X49928132Y-107539519D01*
X49925286Y-107546387D01*
X49920860Y-107552362D01*
X49914265Y-107570823D01*
X49866646Y-107761298D01*
X49866145Y-107764679D01*
X49865581Y-107766043D01*
X49864857Y-107773393D01*
X49863778Y-107780691D01*
X49863995Y-107782149D01*
X49863660Y-107785552D01*
X49752549Y-107785552D01*
X49752549Y-107241108D01*
X51841437Y-107241108D01*
X51841437Y-108663330D01*
G37*
G36*
X73773935Y-99998227D02*
G01*
X73798604Y-100022895D01*
X73828409Y-100082505D01*
X73828409Y-100292231D01*
X73552219Y-100292231D01*
X73552219Y-100082505D01*
X73582024Y-100022895D01*
X73606692Y-99998226D01*
X73666302Y-99968422D01*
X73714326Y-99968422D01*
X73773935Y-99998227D01*
G37*
G36*
X74297746Y-99950609D02*
G01*
X74322414Y-99975276D01*
X74352219Y-100034886D01*
X74352219Y-100292231D01*
X74028409Y-100292231D01*
X74028409Y-100075125D01*
X74063430Y-99970059D01*
X74082882Y-99950607D01*
X74142492Y-99920803D01*
X74238135Y-99920803D01*
X74297746Y-99950609D01*
G37*
G36*
X74066504Y-99301107D02*
G01*
X73768446Y-99201755D01*
X74066504Y-99102402D01*
X74066504Y-99301107D01*
G37*
G36*
X74663330Y-101839516D02*
G01*
X73241108Y-101839516D01*
X73241108Y-101229865D01*
X73592235Y-101229865D01*
X73592235Y-101268883D01*
X73607167Y-101304931D01*
X73634757Y-101332521D01*
X73670805Y-101347453D01*
X73690314Y-101349374D01*
X73971266Y-101349374D01*
X73971266Y-101630326D01*
X73973187Y-101649835D01*
X73988119Y-101685883D01*
X74015709Y-101713473D01*
X74051757Y-101728405D01*
X74090775Y-101728405D01*
X74126823Y-101713473D01*
X74154413Y-101685883D01*
X74169345Y-101649835D01*
X74171266Y-101630326D01*
X74171266Y-101349374D01*
X74452219Y-101349374D01*
X74471728Y-101347453D01*
X74507776Y-101332521D01*
X74535366Y-101304931D01*
X74550298Y-101268883D01*
X74550298Y-101229865D01*
X74535366Y-101193817D01*
X74507776Y-101166227D01*
X74471728Y-101151295D01*
X74452219Y-101149374D01*
X74171266Y-101149374D01*
X74171266Y-100868422D01*
X74169345Y-100848913D01*
X74154413Y-100812865D01*
X74126823Y-100785275D01*
X74090775Y-100770343D01*
X74051757Y-100770343D01*
X74015709Y-100785275D01*
X73988119Y-100812865D01*
X73973187Y-100848913D01*
X73971266Y-100868422D01*
X73971266Y-101149374D01*
X73690314Y-101149374D01*
X73670805Y-101151295D01*
X73634757Y-101166227D01*
X73607167Y-101193817D01*
X73592235Y-101229865D01*
X73241108Y-101229865D01*
X73241108Y-100058898D01*
X73352219Y-100058898D01*
X73352219Y-100392231D01*
X73354140Y-100411740D01*
X73369072Y-100447788D01*
X73396662Y-100475378D01*
X73432710Y-100490310D01*
X73452219Y-100492231D01*
X74452219Y-100492231D01*
X74471728Y-100490310D01*
X74507776Y-100475378D01*
X74535366Y-100447788D01*
X74550298Y-100411740D01*
X74552219Y-100392231D01*
X74552219Y-100011279D01*
X74550298Y-99991770D01*
X74548922Y-99988449D01*
X74548668Y-99984866D01*
X74541662Y-99966557D01*
X74494043Y-99871320D01*
X74488757Y-99862923D01*
X74487747Y-99860483D01*
X74485493Y-99857737D01*
X74483600Y-99854729D01*
X74481603Y-99852997D01*
X74475310Y-99845329D01*
X74427690Y-99797711D01*
X74420020Y-99791416D01*
X74418291Y-99789422D01*
X74415286Y-99787530D01*
X74412537Y-99785274D01*
X74410093Y-99784262D01*
X74401701Y-99778979D01*
X74306463Y-99731360D01*
X74288155Y-99724354D01*
X74284571Y-99724099D01*
X74281251Y-99722724D01*
X74261742Y-99720803D01*
X74118885Y-99720803D01*
X74099376Y-99722724D01*
X74096055Y-99724099D01*
X74092472Y-99724354D01*
X74074163Y-99731360D01*
X73978926Y-99778979D01*
X73970529Y-99784264D01*
X73968089Y-99785275D01*
X73965343Y-99787528D01*
X73962335Y-99789422D01*
X73960602Y-99791419D01*
X73952936Y-99797712D01*
X73905317Y-99845330D01*
X73904670Y-99846118D01*
X73903882Y-99845330D01*
X73896211Y-99839035D01*
X73894482Y-99837041D01*
X73891474Y-99835147D01*
X73888728Y-99832894D01*
X73886288Y-99831883D01*
X73877892Y-99826598D01*
X73782654Y-99778979D01*
X73764346Y-99771973D01*
X73760762Y-99771718D01*
X73757442Y-99770343D01*
X73737933Y-99768422D01*
X73642695Y-99768422D01*
X73623186Y-99770343D01*
X73619865Y-99771718D01*
X73616282Y-99771973D01*
X73597973Y-99778979D01*
X73502736Y-99826598D01*
X73494339Y-99831883D01*
X73491899Y-99832894D01*
X73489153Y-99835147D01*
X73486145Y-99837041D01*
X73484412Y-99839038D01*
X73476746Y-99845331D01*
X73429127Y-99892949D01*
X73422832Y-99900619D01*
X73420838Y-99902349D01*
X73418944Y-99905356D01*
X73416691Y-99908103D01*
X73415680Y-99910542D01*
X73410395Y-99918939D01*
X73362776Y-100014177D01*
X73355770Y-100032485D01*
X73355515Y-100036068D01*
X73354140Y-100039389D01*
X73352219Y-100058898D01*
X73241108Y-100058898D01*
X73241108Y-99189248D01*
X73353004Y-99189248D01*
X73353892Y-99201755D01*
X73353004Y-99214262D01*
X73355263Y-99221040D01*
X73355770Y-99228168D01*
X73361376Y-99239380D01*
X73365342Y-99251278D01*
X73370025Y-99256677D01*
X73373220Y-99263067D01*
X73382691Y-99271282D01*
X73390907Y-99280754D01*
X73397296Y-99283948D01*
X73402696Y-99288632D01*
X73420596Y-99296623D01*
X74420596Y-99629956D01*
X74439711Y-99634303D01*
X74478631Y-99631537D01*
X74513530Y-99614087D01*
X74539095Y-99584611D01*
X74551434Y-99547595D01*
X74548667Y-99508675D01*
X74531218Y-99473776D01*
X74501742Y-99448211D01*
X74483841Y-99440220D01*
X74266504Y-99367774D01*
X74266504Y-99035735D01*
X74483841Y-98963290D01*
X74501742Y-98955299D01*
X74531218Y-98929734D01*
X74548667Y-98894835D01*
X74551434Y-98855915D01*
X74539095Y-98818899D01*
X74513530Y-98789423D01*
X74478631Y-98771973D01*
X74439711Y-98769207D01*
X74420596Y-98773554D01*
X73420596Y-99106887D01*
X73402696Y-99114878D01*
X73397296Y-99119561D01*
X73390907Y-99122756D01*
X73382691Y-99132227D01*
X73373220Y-99140443D01*
X73370025Y-99146832D01*
X73365342Y-99152232D01*
X73361376Y-99164129D01*
X73355770Y-99175342D01*
X73355263Y-99182469D01*
X73353004Y-99189248D01*
X73241108Y-99189248D01*
X73241108Y-97344612D01*
X73352219Y-97344612D01*
X73352219Y-97916040D01*
X73354140Y-97935549D01*
X73369072Y-97971597D01*
X73396662Y-97999187D01*
X73425852Y-98011278D01*
X73396662Y-98023370D01*
X73369072Y-98050960D01*
X73354140Y-98087008D01*
X73352219Y-98106517D01*
X73352219Y-98677945D01*
X73354140Y-98697454D01*
X73369072Y-98733502D01*
X73396662Y-98761092D01*
X73432710Y-98776024D01*
X73471728Y-98776024D01*
X73507776Y-98761092D01*
X73535366Y-98733502D01*
X73550298Y-98697454D01*
X73552219Y-98677945D01*
X73552219Y-98492231D01*
X74452219Y-98492231D01*
X74471728Y-98490310D01*
X74507776Y-98475378D01*
X74535366Y-98447788D01*
X74550298Y-98411740D01*
X74550298Y-98372722D01*
X74535366Y-98336674D01*
X74507776Y-98309084D01*
X74471728Y-98294152D01*
X74452219Y-98292231D01*
X73552219Y-98292231D01*
X73552219Y-98106517D01*
X73550298Y-98087008D01*
X73535366Y-98050960D01*
X73507776Y-98023370D01*
X73478585Y-98011278D01*
X73507776Y-97999187D01*
X73535366Y-97971597D01*
X73550298Y-97935549D01*
X73552219Y-97916040D01*
X73552219Y-97730326D01*
X74452219Y-97730326D01*
X74471728Y-97728405D01*
X74507776Y-97713473D01*
X74535366Y-97685883D01*
X74550298Y-97649835D01*
X74550298Y-97610817D01*
X74535366Y-97574769D01*
X74507776Y-97547179D01*
X74471728Y-97532247D01*
X74452219Y-97530326D01*
X73552219Y-97530326D01*
X73552219Y-97344612D01*
X73550298Y-97325103D01*
X73535366Y-97289055D01*
X73507776Y-97261465D01*
X73471728Y-97246533D01*
X73432710Y-97246533D01*
X73396662Y-97261465D01*
X73369072Y-97289055D01*
X73354140Y-97325103D01*
X73352219Y-97344612D01*
X73241108Y-97344612D01*
X73241108Y-97135422D01*
X74663330Y-97135422D01*
X74663330Y-101839516D01*
G37*
G36*
X76226837Y-98581821D02*
G01*
X76297746Y-98617276D01*
X76322414Y-98641943D01*
X76352219Y-98701553D01*
X76352219Y-98749577D01*
X76322414Y-98809186D01*
X76297746Y-98833853D01*
X76226837Y-98869308D01*
X76058956Y-98911279D01*
X75845480Y-98911279D01*
X75677599Y-98869308D01*
X75606692Y-98833855D01*
X75582024Y-98809186D01*
X75552219Y-98749576D01*
X75552219Y-98701553D01*
X75582024Y-98641943D01*
X75606692Y-98617274D01*
X75677599Y-98581821D01*
X75845480Y-98539851D01*
X76058956Y-98539851D01*
X76226837Y-98581821D01*
G37*
G36*
X76663330Y-101839516D02*
G01*
X75241108Y-101839516D01*
X75241108Y-101229865D01*
X75592235Y-101229865D01*
X75592235Y-101268883D01*
X75607167Y-101304931D01*
X75634757Y-101332521D01*
X75670805Y-101347453D01*
X75690314Y-101349374D01*
X75971266Y-101349374D01*
X75971266Y-101630326D01*
X75973187Y-101649835D01*
X75988119Y-101685883D01*
X76015709Y-101713473D01*
X76051757Y-101728405D01*
X76090775Y-101728405D01*
X76126823Y-101713473D01*
X76154413Y-101685883D01*
X76169345Y-101649835D01*
X76171266Y-101630326D01*
X76171266Y-101349374D01*
X76452219Y-101349374D01*
X76471728Y-101347453D01*
X76507776Y-101332521D01*
X76535366Y-101304931D01*
X76550298Y-101268883D01*
X76550298Y-101229865D01*
X76535366Y-101193817D01*
X76507776Y-101166227D01*
X76471728Y-101151295D01*
X76452219Y-101149374D01*
X76171266Y-101149374D01*
X76171266Y-100868422D01*
X76169345Y-100848913D01*
X76154413Y-100812865D01*
X76126823Y-100785275D01*
X76090775Y-100770343D01*
X76051757Y-100770343D01*
X76015709Y-100785275D01*
X75988119Y-100812865D01*
X75973187Y-100848913D01*
X75971266Y-100868422D01*
X75971266Y-101149374D01*
X75690314Y-101149374D01*
X75670805Y-101151295D01*
X75634757Y-101166227D01*
X75607167Y-101193817D01*
X75592235Y-101229865D01*
X75241108Y-101229865D01*
X75241108Y-99916041D01*
X75352219Y-99916041D01*
X75352219Y-100392231D01*
X75352929Y-100399447D01*
X75352686Y-100401884D01*
X75353403Y-100404262D01*
X75354140Y-100411740D01*
X75359736Y-100425249D01*
X75363957Y-100439239D01*
X75367144Y-100443135D01*
X75369072Y-100447788D01*
X75379408Y-100458124D01*
X75388664Y-100469437D01*
X75393101Y-100471817D01*
X75396662Y-100475378D01*
X75410167Y-100480972D01*
X75423048Y-100487882D01*
X75430412Y-100489358D01*
X75432710Y-100490310D01*
X75435160Y-100490310D01*
X75442269Y-100491735D01*
X75918459Y-100539354D01*
X75938062Y-100539383D01*
X75942884Y-100537928D01*
X75947918Y-100537928D01*
X75961422Y-100532334D01*
X75975417Y-100528112D01*
X75979313Y-100524924D01*
X75983966Y-100522997D01*
X75994302Y-100512660D01*
X76005615Y-100503405D01*
X76007995Y-100498967D01*
X76011556Y-100495407D01*
X76017148Y-100481904D01*
X76024060Y-100469021D01*
X76024561Y-100464008D01*
X76026487Y-100459359D01*
X76026487Y-100444748D01*
X76027942Y-100430197D01*
X76026487Y-100425374D01*
X76026487Y-100420341D01*
X76020893Y-100406835D01*
X76016671Y-100392842D01*
X76013483Y-100388946D01*
X76011556Y-100384292D01*
X75999119Y-100369139D01*
X75962976Y-100332995D01*
X75933171Y-100273385D01*
X75933171Y-100082505D01*
X75962976Y-100022895D01*
X75987644Y-99998226D01*
X76047254Y-99968422D01*
X76238135Y-99968422D01*
X76297746Y-99998228D01*
X76322414Y-100022895D01*
X76352219Y-100082505D01*
X76352219Y-100273386D01*
X76322414Y-100332995D01*
X76286270Y-100369139D01*
X76273833Y-100384292D01*
X76258902Y-100420340D01*
X76258901Y-100459358D01*
X76273832Y-100495407D01*
X76301422Y-100522997D01*
X76337470Y-100537928D01*
X76376488Y-100537929D01*
X76412537Y-100522998D01*
X76427690Y-100510561D01*
X76475310Y-100462943D01*
X76481603Y-100455274D01*
X76483600Y-100453543D01*
X76485493Y-100450534D01*
X76487747Y-100447789D01*
X76488757Y-100445348D01*
X76494043Y-100436952D01*
X76541662Y-100341715D01*
X76548668Y-100323406D01*
X76548922Y-100319822D01*
X76550298Y-100316502D01*
X76552219Y-100296993D01*
X76552219Y-100058898D01*
X76550298Y-100039389D01*
X76548922Y-100036068D01*
X76548668Y-100032485D01*
X76541662Y-100014176D01*
X76494043Y-99918939D01*
X76488757Y-99910542D01*
X76487747Y-99908102D01*
X76485493Y-99905356D01*
X76483600Y-99902348D01*
X76481603Y-99900616D01*
X76475310Y-99892948D01*
X76427690Y-99845330D01*
X76420020Y-99839035D01*
X76418291Y-99837041D01*
X76415286Y-99835149D01*
X76412537Y-99832893D01*
X76410093Y-99831881D01*
X76401701Y-99826598D01*
X76306463Y-99778979D01*
X76288155Y-99771973D01*
X76284571Y-99771718D01*
X76281251Y-99770343D01*
X76261742Y-99768422D01*
X76023647Y-99768422D01*
X76004138Y-99770343D01*
X76000817Y-99771718D01*
X75997234Y-99771973D01*
X75978925Y-99778979D01*
X75883688Y-99826598D01*
X75875291Y-99831883D01*
X75872851Y-99832894D01*
X75870105Y-99835147D01*
X75867097Y-99837041D01*
X75865364Y-99839038D01*
X75857698Y-99845331D01*
X75810079Y-99892949D01*
X75803784Y-99900619D01*
X75801790Y-99902349D01*
X75799896Y-99905356D01*
X75797643Y-99908103D01*
X75796632Y-99910542D01*
X75791347Y-99918939D01*
X75743728Y-100014177D01*
X75736722Y-100032485D01*
X75736467Y-100036068D01*
X75735092Y-100039389D01*
X75733171Y-100058898D01*
X75733171Y-100296993D01*
X75735092Y-100316502D01*
X75736467Y-100319822D01*
X75736491Y-100320159D01*
X75552219Y-100301732D01*
X75552219Y-99916041D01*
X75550298Y-99896532D01*
X75535366Y-99860484D01*
X75507776Y-99832894D01*
X75471728Y-99817962D01*
X75432710Y-99817962D01*
X75396662Y-99832894D01*
X75369072Y-99860484D01*
X75354140Y-99896532D01*
X75352219Y-99916041D01*
X75241108Y-99916041D01*
X75241108Y-99420341D01*
X76258901Y-99420341D01*
X76258901Y-99459359D01*
X76260385Y-99462942D01*
X76273832Y-99495407D01*
X76273833Y-99495408D01*
X76286270Y-99510561D01*
X76333890Y-99558180D01*
X76349043Y-99570617D01*
X76374533Y-99581174D01*
X76385091Y-99585548D01*
X76385092Y-99585548D01*
X76424109Y-99585548D01*
X76445226Y-99576800D01*
X76460158Y-99570616D01*
X76460162Y-99570611D01*
X76475311Y-99558180D01*
X76522929Y-99510561D01*
X76535366Y-99495408D01*
X76546735Y-99467960D01*
X76550298Y-99459359D01*
X76550298Y-99420341D01*
X76535366Y-99384293D01*
X76535366Y-99384292D01*
X76522929Y-99369139D01*
X76475311Y-99321520D01*
X76460162Y-99309088D01*
X76460158Y-99309084D01*
X76445226Y-99302899D01*
X76424109Y-99294152D01*
X76385091Y-99294152D01*
X76374533Y-99298525D01*
X76349043Y-99309083D01*
X76333890Y-99321520D01*
X76286270Y-99369139D01*
X76273833Y-99384292D01*
X76273832Y-99384293D01*
X76263274Y-99409783D01*
X76258901Y-99420341D01*
X75241108Y-99420341D01*
X75241108Y-98677946D01*
X75352219Y-98677946D01*
X75352219Y-98773184D01*
X75354140Y-98792693D01*
X75355515Y-98796013D01*
X75355770Y-98799597D01*
X75362776Y-98817905D01*
X75410395Y-98913143D01*
X75415680Y-98921539D01*
X75416691Y-98923979D01*
X75418944Y-98926725D01*
X75420838Y-98929733D01*
X75422832Y-98931462D01*
X75429127Y-98939133D01*
X75476746Y-98986751D01*
X75484412Y-98993043D01*
X75486145Y-98995041D01*
X75489153Y-98996934D01*
X75491899Y-98999188D01*
X75494339Y-99000198D01*
X75502736Y-99005484D01*
X75597973Y-99053103D01*
X75599401Y-99053649D01*
X75599981Y-99054079D01*
X75608157Y-99057000D01*
X75616282Y-99060109D01*
X75617002Y-99060160D01*
X75618441Y-99060674D01*
X75808917Y-99108293D01*
X75812298Y-99108793D01*
X75813662Y-99109358D01*
X75821012Y-99110081D01*
X75828310Y-99111161D01*
X75829768Y-99110943D01*
X75833171Y-99111279D01*
X76071266Y-99111279D01*
X76074668Y-99110943D01*
X76076127Y-99111161D01*
X76083424Y-99110081D01*
X76090775Y-99109358D01*
X76092138Y-99108793D01*
X76095520Y-99108293D01*
X76285995Y-99060674D01*
X76287432Y-99060160D01*
X76288155Y-99060109D01*
X76296279Y-99057000D01*
X76304456Y-99054079D01*
X76305036Y-99053648D01*
X76306463Y-99053103D01*
X76401701Y-99005484D01*
X76410093Y-99000200D01*
X76412537Y-98999189D01*
X76415286Y-98996932D01*
X76418291Y-98995041D01*
X76420020Y-98993046D01*
X76427690Y-98986752D01*
X76475310Y-98939134D01*
X76481603Y-98931465D01*
X76483600Y-98929734D01*
X76485493Y-98926725D01*
X76487747Y-98923980D01*
X76488757Y-98921539D01*
X76494043Y-98913143D01*
X76541662Y-98817906D01*
X76548668Y-98799597D01*
X76548922Y-98796013D01*
X76550298Y-98792693D01*
X76552219Y-98773184D01*
X76552219Y-98677946D01*
X76550298Y-98658437D01*
X76548922Y-98655116D01*
X76548668Y-98651533D01*
X76541662Y-98633224D01*
X76494043Y-98537987D01*
X76488757Y-98529590D01*
X76487747Y-98527150D01*
X76485493Y-98524404D01*
X76483600Y-98521396D01*
X76481603Y-98519664D01*
X76475310Y-98511996D01*
X76427690Y-98464378D01*
X76420020Y-98458083D01*
X76418291Y-98456089D01*
X76415286Y-98454197D01*
X76412537Y-98451941D01*
X76410093Y-98450929D01*
X76401701Y-98445646D01*
X76306463Y-98398027D01*
X76305036Y-98397481D01*
X76304456Y-98397051D01*
X76296279Y-98394129D01*
X76288155Y-98391021D01*
X76287432Y-98390969D01*
X76285995Y-98390456D01*
X76095520Y-98342837D01*
X76092138Y-98342336D01*
X76090775Y-98341772D01*
X76083424Y-98341048D01*
X76076127Y-98339969D01*
X76074668Y-98340186D01*
X76071266Y-98339851D01*
X75833171Y-98339851D01*
X75829768Y-98340186D01*
X75828310Y-98339969D01*
X75821012Y-98341048D01*
X75813662Y-98341772D01*
X75812298Y-98342336D01*
X75808917Y-98342837D01*
X75618441Y-98390456D01*
X75617002Y-98390969D01*
X75616282Y-98391021D01*
X75608157Y-98394129D01*
X75599981Y-98397051D01*
X75599401Y-98397480D01*
X75597973Y-98398027D01*
X75502736Y-98445646D01*
X75494339Y-98450931D01*
X75491899Y-98451942D01*
X75489153Y-98454195D01*
X75486145Y-98456089D01*
X75484412Y-98458086D01*
X75476746Y-98464379D01*
X75429127Y-98511997D01*
X75422832Y-98519667D01*
X75420838Y-98521397D01*
X75418944Y-98524404D01*
X75416691Y-98527151D01*
X75415680Y-98529590D01*
X75410395Y-98537987D01*
X75362776Y-98633225D01*
X75355770Y-98651533D01*
X75355515Y-98655116D01*
X75354140Y-98658437D01*
X75352219Y-98677946D01*
X75241108Y-98677946D01*
X75241108Y-97474963D01*
X75353004Y-97474963D01*
X75355770Y-97513883D01*
X75373220Y-97548782D01*
X75402696Y-97574347D01*
X75420596Y-97582338D01*
X76135991Y-97820803D01*
X75420596Y-98059268D01*
X75402696Y-98067259D01*
X75373220Y-98092824D01*
X75355770Y-98127723D01*
X75353004Y-98166643D01*
X75365342Y-98203659D01*
X75390907Y-98233135D01*
X75425806Y-98250585D01*
X75464726Y-98253351D01*
X75483842Y-98249004D01*
X76483841Y-97915671D01*
X76501742Y-97907680D01*
X76507143Y-97902995D01*
X76513530Y-97899802D01*
X76521742Y-97890333D01*
X76531218Y-97882115D01*
X76534413Y-97875723D01*
X76539095Y-97870326D01*
X76543061Y-97858428D01*
X76548667Y-97847216D01*
X76549173Y-97840091D01*
X76551434Y-97833310D01*
X76550544Y-97820803D01*
X76551434Y-97808296D01*
X76549173Y-97801514D01*
X76548667Y-97794390D01*
X76543061Y-97783177D01*
X76539095Y-97771280D01*
X76534413Y-97765882D01*
X76531218Y-97759491D01*
X76521742Y-97751272D01*
X76513530Y-97741804D01*
X76507143Y-97738610D01*
X76501742Y-97733926D01*
X76483841Y-97725935D01*
X75483842Y-97392602D01*
X75464726Y-97388255D01*
X75425806Y-97391021D01*
X75390907Y-97408471D01*
X75365342Y-97437947D01*
X75353004Y-97474963D01*
X75241108Y-97474963D01*
X75241108Y-97277144D01*
X76663330Y-97277144D01*
X76663330Y-101839516D01*
G37*
G36*
X78663330Y-101839516D02*
G01*
X77241108Y-101839516D01*
X77241108Y-101229865D01*
X77592235Y-101229865D01*
X77592235Y-101268883D01*
X77607167Y-101304931D01*
X77634757Y-101332521D01*
X77670805Y-101347453D01*
X77690314Y-101349374D01*
X77971266Y-101349374D01*
X77971266Y-101630326D01*
X77973187Y-101649835D01*
X77988119Y-101685883D01*
X78015709Y-101713473D01*
X78051757Y-101728405D01*
X78090775Y-101728405D01*
X78126823Y-101713473D01*
X78154413Y-101685883D01*
X78169345Y-101649835D01*
X78171266Y-101630326D01*
X78171266Y-101349374D01*
X78452219Y-101349374D01*
X78471728Y-101347453D01*
X78507776Y-101332521D01*
X78535366Y-101304931D01*
X78550298Y-101268883D01*
X78550298Y-101229865D01*
X78535366Y-101193817D01*
X78507776Y-101166227D01*
X78471728Y-101151295D01*
X78452219Y-101149374D01*
X78171266Y-101149374D01*
X78171266Y-100868422D01*
X78169345Y-100848913D01*
X78154413Y-100812865D01*
X78126823Y-100785275D01*
X78090775Y-100770343D01*
X78051757Y-100770343D01*
X78015709Y-100785275D01*
X77988119Y-100812865D01*
X77973187Y-100848913D01*
X77971266Y-100868422D01*
X77971266Y-101149374D01*
X77690314Y-101149374D01*
X77670805Y-101151295D01*
X77634757Y-101166227D01*
X77607167Y-101193817D01*
X77592235Y-101229865D01*
X77241108Y-101229865D01*
X77241108Y-99868422D01*
X77352219Y-99868422D01*
X77352219Y-100487469D01*
X77354140Y-100506978D01*
X77369072Y-100543026D01*
X77396662Y-100570616D01*
X77432710Y-100585548D01*
X77471728Y-100585548D01*
X77507776Y-100570616D01*
X77535366Y-100543026D01*
X77550298Y-100506978D01*
X77552219Y-100487469D01*
X77552219Y-100088798D01*
X77767321Y-100277013D01*
X77775754Y-100283042D01*
X77777614Y-100284902D01*
X77779377Y-100285632D01*
X77783268Y-100288414D01*
X77798656Y-100293618D01*
X77813662Y-100299834D01*
X77817036Y-100299834D01*
X77820229Y-100300914D01*
X77836432Y-100299834D01*
X77852680Y-100299834D01*
X77855795Y-100298543D01*
X77859161Y-100298319D01*
X77873726Y-100291116D01*
X77888728Y-100284902D01*
X77891111Y-100282518D01*
X77894136Y-100281023D01*
X77904840Y-100268789D01*
X77916318Y-100257312D01*
X77917607Y-100254198D01*
X77919830Y-100251659D01*
X77925035Y-100236267D01*
X77931250Y-100221264D01*
X77931718Y-100216504D01*
X77932330Y-100214697D01*
X77932155Y-100212072D01*
X77933171Y-100201755D01*
X77933171Y-100082505D01*
X77962976Y-100022895D01*
X77987644Y-99998226D01*
X78047254Y-99968422D01*
X78238135Y-99968422D01*
X78297746Y-99998228D01*
X78322414Y-100022895D01*
X78352219Y-100082505D01*
X78352219Y-100321005D01*
X78322414Y-100380614D01*
X78286270Y-100416758D01*
X78273833Y-100431911D01*
X78258902Y-100467959D01*
X78258901Y-100506977D01*
X78273832Y-100543026D01*
X78301422Y-100570616D01*
X78337470Y-100585547D01*
X78376488Y-100585548D01*
X78412537Y-100570617D01*
X78427690Y-100558180D01*
X78475310Y-100510562D01*
X78481603Y-100502893D01*
X78483600Y-100501162D01*
X78485493Y-100498153D01*
X78487747Y-100495408D01*
X78488757Y-100492967D01*
X78494043Y-100484571D01*
X78541662Y-100389334D01*
X78548668Y-100371025D01*
X78548922Y-100367441D01*
X78550298Y-100364121D01*
X78552219Y-100344612D01*
X78552219Y-100058898D01*
X78550298Y-100039389D01*
X78548922Y-100036068D01*
X78548668Y-100032485D01*
X78541662Y-100014176D01*
X78494043Y-99918939D01*
X78488757Y-99910542D01*
X78487747Y-99908102D01*
X78485493Y-99905356D01*
X78483600Y-99902348D01*
X78481603Y-99900616D01*
X78475310Y-99892948D01*
X78427690Y-99845330D01*
X78420020Y-99839035D01*
X78418291Y-99837041D01*
X78415286Y-99835149D01*
X78412537Y-99832893D01*
X78410093Y-99831881D01*
X78401701Y-99826598D01*
X78306463Y-99778979D01*
X78288155Y-99771973D01*
X78284571Y-99771718D01*
X78281251Y-99770343D01*
X78261742Y-99768422D01*
X78023647Y-99768422D01*
X78004138Y-99770343D01*
X78000817Y-99771718D01*
X77997234Y-99771973D01*
X77978925Y-99778979D01*
X77883688Y-99826598D01*
X77875291Y-99831883D01*
X77872851Y-99832894D01*
X77870105Y-99835147D01*
X77867097Y-99837041D01*
X77865364Y-99839038D01*
X77857698Y-99845331D01*
X77810079Y-99892949D01*
X77803784Y-99900619D01*
X77801790Y-99902349D01*
X77799896Y-99905356D01*
X77797643Y-99908103D01*
X77796632Y-99910542D01*
X77791347Y-99918939D01*
X77751923Y-99997786D01*
X77518069Y-99793164D01*
X77509635Y-99787134D01*
X77507776Y-99785275D01*
X77506012Y-99784544D01*
X77502122Y-99781763D01*
X77486733Y-99776558D01*
X77471728Y-99770343D01*
X77468354Y-99770343D01*
X77465161Y-99769263D01*
X77448958Y-99770343D01*
X77432710Y-99770343D01*
X77429594Y-99771633D01*
X77426229Y-99771858D01*
X77411668Y-99779058D01*
X77396662Y-99785275D01*
X77394277Y-99787659D01*
X77391254Y-99789155D01*
X77380556Y-99801380D01*
X77369072Y-99812865D01*
X77367781Y-99815979D01*
X77365560Y-99818519D01*
X77360355Y-99833907D01*
X77354140Y-99848913D01*
X77353671Y-99853672D01*
X77353060Y-99855480D01*
X77353234Y-99858104D01*
X77352219Y-99868422D01*
X77241108Y-99868422D01*
X77241108Y-99420341D01*
X78258901Y-99420341D01*
X78258901Y-99459359D01*
X78260385Y-99462942D01*
X78273832Y-99495407D01*
X78273833Y-99495408D01*
X78286270Y-99510561D01*
X78333890Y-99558180D01*
X78349043Y-99570617D01*
X78374533Y-99581174D01*
X78385091Y-99585548D01*
X78385092Y-99585548D01*
X78424109Y-99585548D01*
X78445226Y-99576800D01*
X78460158Y-99570616D01*
X78460162Y-99570611D01*
X78475311Y-99558180D01*
X78522929Y-99510561D01*
X78535366Y-99495408D01*
X78546735Y-99467960D01*
X78550298Y-99459359D01*
X78550298Y-99420341D01*
X78535366Y-99384293D01*
X78535366Y-99384292D01*
X78522929Y-99369139D01*
X78475311Y-99321520D01*
X78460162Y-99309088D01*
X78460158Y-99309084D01*
X78445226Y-99302899D01*
X78424109Y-99294152D01*
X78385091Y-99294152D01*
X78374533Y-99298525D01*
X78349043Y-99309083D01*
X78333890Y-99321520D01*
X78286270Y-99369139D01*
X78273833Y-99384292D01*
X78273832Y-99384293D01*
X78263274Y-99409783D01*
X78258901Y-99420341D01*
X77241108Y-99420341D01*
X77241108Y-98439851D01*
X77352219Y-98439851D01*
X77352219Y-99058898D01*
X77354140Y-99078407D01*
X77369072Y-99114455D01*
X77396662Y-99142045D01*
X77432710Y-99156977D01*
X77471728Y-99156977D01*
X77507776Y-99142045D01*
X77535366Y-99114455D01*
X77550298Y-99078407D01*
X77552219Y-99058898D01*
X77552219Y-98660227D01*
X77767321Y-98848442D01*
X77775754Y-98854471D01*
X77777614Y-98856331D01*
X77779377Y-98857061D01*
X77783268Y-98859843D01*
X77798656Y-98865047D01*
X77813662Y-98871263D01*
X77817036Y-98871263D01*
X77820229Y-98872343D01*
X77836432Y-98871263D01*
X77852680Y-98871263D01*
X77855795Y-98869972D01*
X77859161Y-98869748D01*
X77873726Y-98862545D01*
X77888728Y-98856331D01*
X77891111Y-98853947D01*
X77894136Y-98852452D01*
X77904840Y-98840218D01*
X77916318Y-98828741D01*
X77917607Y-98825627D01*
X77919830Y-98823088D01*
X77925035Y-98807696D01*
X77931250Y-98792693D01*
X77931718Y-98787933D01*
X77932330Y-98786126D01*
X77932155Y-98783501D01*
X77933171Y-98773184D01*
X77933171Y-98653934D01*
X77962976Y-98594324D01*
X77987644Y-98569655D01*
X78047254Y-98539851D01*
X78238135Y-98539851D01*
X78297746Y-98569657D01*
X78322414Y-98594324D01*
X78352219Y-98653934D01*
X78352219Y-98892434D01*
X78322414Y-98952043D01*
X78286270Y-98988187D01*
X78273833Y-99003340D01*
X78258902Y-99039388D01*
X78258901Y-99078406D01*
X78273832Y-99114455D01*
X78301422Y-99142045D01*
X78337470Y-99156976D01*
X78376488Y-99156977D01*
X78412537Y-99142046D01*
X78427690Y-99129609D01*
X78475310Y-99081991D01*
X78481603Y-99074322D01*
X78483600Y-99072591D01*
X78485493Y-99069582D01*
X78487747Y-99066837D01*
X78488757Y-99064396D01*
X78494043Y-99056000D01*
X78541662Y-98960763D01*
X78548668Y-98942454D01*
X78548922Y-98938870D01*
X78550298Y-98935550D01*
X78552219Y-98916041D01*
X78552219Y-98630327D01*
X78550298Y-98610818D01*
X78548922Y-98607497D01*
X78548668Y-98603914D01*
X78541662Y-98585605D01*
X78494043Y-98490368D01*
X78488757Y-98481971D01*
X78487747Y-98479531D01*
X78485493Y-98476785D01*
X78483600Y-98473777D01*
X78481603Y-98472045D01*
X78475310Y-98464377D01*
X78427690Y-98416759D01*
X78420020Y-98410464D01*
X78418291Y-98408470D01*
X78415286Y-98406578D01*
X78412537Y-98404322D01*
X78410093Y-98403310D01*
X78401701Y-98398027D01*
X78306463Y-98350408D01*
X78288155Y-98343402D01*
X78284571Y-98343147D01*
X78281251Y-98341772D01*
X78261742Y-98339851D01*
X78023647Y-98339851D01*
X78004138Y-98341772D01*
X78000817Y-98343147D01*
X77997234Y-98343402D01*
X77978925Y-98350408D01*
X77883688Y-98398027D01*
X77875291Y-98403312D01*
X77872851Y-98404323D01*
X77870105Y-98406576D01*
X77867097Y-98408470D01*
X77865364Y-98410467D01*
X77857698Y-98416760D01*
X77810079Y-98464378D01*
X77803784Y-98472048D01*
X77801790Y-98473778D01*
X77799896Y-98476785D01*
X77797643Y-98479532D01*
X77796632Y-98481971D01*
X77791347Y-98490368D01*
X77751923Y-98569215D01*
X77518069Y-98364593D01*
X77509635Y-98358563D01*
X77507776Y-98356704D01*
X77506012Y-98355973D01*
X77502122Y-98353192D01*
X77486733Y-98347987D01*
X77471728Y-98341772D01*
X77468354Y-98341772D01*
X77465161Y-98340692D01*
X77448958Y-98341772D01*
X77432710Y-98341772D01*
X77429594Y-98343062D01*
X77426229Y-98343287D01*
X77411668Y-98350487D01*
X77396662Y-98356704D01*
X77394277Y-98359088D01*
X77391254Y-98360584D01*
X77380556Y-98372809D01*
X77369072Y-98384294D01*
X77367781Y-98387408D01*
X77365560Y-98389948D01*
X77360355Y-98405336D01*
X77354140Y-98420342D01*
X77353671Y-98425101D01*
X77353060Y-98426909D01*
X77353234Y-98429533D01*
X77352219Y-98439851D01*
X77241108Y-98439851D01*
X77241108Y-97474963D01*
X77353004Y-97474963D01*
X77355770Y-97513883D01*
X77373220Y-97548782D01*
X77402696Y-97574347D01*
X77420596Y-97582338D01*
X78135991Y-97820803D01*
X77420596Y-98059268D01*
X77402696Y-98067259D01*
X77373220Y-98092824D01*
X77355770Y-98127723D01*
X77353004Y-98166643D01*
X77365342Y-98203659D01*
X77390907Y-98233135D01*
X77425806Y-98250585D01*
X77464726Y-98253351D01*
X77483842Y-98249004D01*
X78483841Y-97915671D01*
X78501742Y-97907680D01*
X78507143Y-97902995D01*
X78513530Y-97899802D01*
X78521742Y-97890333D01*
X78531218Y-97882115D01*
X78534413Y-97875723D01*
X78539095Y-97870326D01*
X78543061Y-97858428D01*
X78548667Y-97847216D01*
X78549173Y-97840091D01*
X78551434Y-97833310D01*
X78550544Y-97820803D01*
X78551434Y-97808296D01*
X78549173Y-97801514D01*
X78548667Y-97794390D01*
X78543061Y-97783177D01*
X78539095Y-97771280D01*
X78534413Y-97765882D01*
X78531218Y-97759491D01*
X78521742Y-97751272D01*
X78513530Y-97741804D01*
X78507143Y-97738610D01*
X78501742Y-97733926D01*
X78483841Y-97725935D01*
X77483842Y-97392602D01*
X77464726Y-97388255D01*
X77425806Y-97391021D01*
X77390907Y-97408471D01*
X77365342Y-97437947D01*
X77353004Y-97474963D01*
X77241108Y-97474963D01*
X77241108Y-97277144D01*
X78663330Y-97277144D01*
X78663330Y-101839516D01*
G37*
D11*
X57261903Y-82846175D02*
X57261903Y-81846175D01*
X57261903Y-81846175D02*
X57595236Y-82560460D01*
X57595236Y-82560460D02*
X57928569Y-81846175D01*
X57928569Y-81846175D02*
X57928569Y-82846175D01*
X58833331Y-82846175D02*
X58833331Y-82322365D01*
X58833331Y-82322365D02*
X58785712Y-82227127D01*
X58785712Y-82227127D02*
X58690474Y-82179508D01*
X58690474Y-82179508D02*
X58499998Y-82179508D01*
X58499998Y-82179508D02*
X58404760Y-82227127D01*
X58833331Y-82798556D02*
X58738093Y-82846175D01*
X58738093Y-82846175D02*
X58499998Y-82846175D01*
X58499998Y-82846175D02*
X58404760Y-82798556D01*
X58404760Y-82798556D02*
X58357141Y-82703317D01*
X58357141Y-82703317D02*
X58357141Y-82608079D01*
X58357141Y-82608079D02*
X58404760Y-82512841D01*
X58404760Y-82512841D02*
X58499998Y-82465222D01*
X58499998Y-82465222D02*
X58738093Y-82465222D01*
X58738093Y-82465222D02*
X58833331Y-82417603D01*
X59261903Y-82798556D02*
X59357141Y-82846175D01*
X59357141Y-82846175D02*
X59547617Y-82846175D01*
X59547617Y-82846175D02*
X59642855Y-82798556D01*
X59642855Y-82798556D02*
X59690474Y-82703317D01*
X59690474Y-82703317D02*
X59690474Y-82655698D01*
X59690474Y-82655698D02*
X59642855Y-82560460D01*
X59642855Y-82560460D02*
X59547617Y-82512841D01*
X59547617Y-82512841D02*
X59404760Y-82512841D01*
X59404760Y-82512841D02*
X59309522Y-82465222D01*
X59309522Y-82465222D02*
X59261903Y-82369984D01*
X59261903Y-82369984D02*
X59261903Y-82322365D01*
X59261903Y-82322365D02*
X59309522Y-82227127D01*
X59309522Y-82227127D02*
X59404760Y-82179508D01*
X59404760Y-82179508D02*
X59547617Y-82179508D01*
X59547617Y-82179508D02*
X59642855Y-82227127D01*
X60119046Y-82846175D02*
X60119046Y-81846175D01*
X60214284Y-82465222D02*
X60499998Y-82846175D01*
X60499998Y-82179508D02*
X60119046Y-82560460D01*
X62261903Y-82750936D02*
X62214284Y-82798556D01*
X62214284Y-82798556D02*
X62071427Y-82846175D01*
X62071427Y-82846175D02*
X61976189Y-82846175D01*
X61976189Y-82846175D02*
X61833332Y-82798556D01*
X61833332Y-82798556D02*
X61738094Y-82703317D01*
X61738094Y-82703317D02*
X61690475Y-82608079D01*
X61690475Y-82608079D02*
X61642856Y-82417603D01*
X61642856Y-82417603D02*
X61642856Y-82274746D01*
X61642856Y-82274746D02*
X61690475Y-82084270D01*
X61690475Y-82084270D02*
X61738094Y-81989032D01*
X61738094Y-81989032D02*
X61833332Y-81893794D01*
X61833332Y-81893794D02*
X61976189Y-81846175D01*
X61976189Y-81846175D02*
X62071427Y-81846175D01*
X62071427Y-81846175D02*
X62214284Y-81893794D01*
X62214284Y-81893794D02*
X62261903Y-81941413D01*
X62833332Y-82846175D02*
X62738094Y-82798556D01*
X62738094Y-82798556D02*
X62690475Y-82750936D01*
X62690475Y-82750936D02*
X62642856Y-82655698D01*
X62642856Y-82655698D02*
X62642856Y-82369984D01*
X62642856Y-82369984D02*
X62690475Y-82274746D01*
X62690475Y-82274746D02*
X62738094Y-82227127D01*
X62738094Y-82227127D02*
X62833332Y-82179508D01*
X62833332Y-82179508D02*
X62976189Y-82179508D01*
X62976189Y-82179508D02*
X63071427Y-82227127D01*
X63071427Y-82227127D02*
X63119046Y-82274746D01*
X63119046Y-82274746D02*
X63166665Y-82369984D01*
X63166665Y-82369984D02*
X63166665Y-82655698D01*
X63166665Y-82655698D02*
X63119046Y-82750936D01*
X63119046Y-82750936D02*
X63071427Y-82798556D01*
X63071427Y-82798556D02*
X62976189Y-82846175D01*
X62976189Y-82846175D02*
X62833332Y-82846175D01*
X63595237Y-82179508D02*
X63595237Y-82846175D01*
X63595237Y-82274746D02*
X63642856Y-82227127D01*
X63642856Y-82227127D02*
X63738094Y-82179508D01*
X63738094Y-82179508D02*
X63880951Y-82179508D01*
X63880951Y-82179508D02*
X63976189Y-82227127D01*
X63976189Y-82227127D02*
X64023808Y-82322365D01*
X64023808Y-82322365D02*
X64023808Y-82846175D01*
X64357142Y-82179508D02*
X64738094Y-82179508D01*
X64499999Y-81846175D02*
X64499999Y-82703317D01*
X64499999Y-82703317D02*
X64547618Y-82798556D01*
X64547618Y-82798556D02*
X64642856Y-82846175D01*
X64642856Y-82846175D02*
X64738094Y-82846175D01*
X65071428Y-82846175D02*
X65071428Y-82179508D01*
X65071428Y-82369984D02*
X65119047Y-82274746D01*
X65119047Y-82274746D02*
X65166666Y-82227127D01*
X65166666Y-82227127D02*
X65261904Y-82179508D01*
X65261904Y-82179508D02*
X65357142Y-82179508D01*
X65833333Y-82846175D02*
X65738095Y-82798556D01*
X65738095Y-82798556D02*
X65690476Y-82750936D01*
X65690476Y-82750936D02*
X65642857Y-82655698D01*
X65642857Y-82655698D02*
X65642857Y-82369984D01*
X65642857Y-82369984D02*
X65690476Y-82274746D01*
X65690476Y-82274746D02*
X65738095Y-82227127D01*
X65738095Y-82227127D02*
X65833333Y-82179508D01*
X65833333Y-82179508D02*
X65976190Y-82179508D01*
X65976190Y-82179508D02*
X66071428Y-82227127D01*
X66071428Y-82227127D02*
X66119047Y-82274746D01*
X66119047Y-82274746D02*
X66166666Y-82369984D01*
X66166666Y-82369984D02*
X66166666Y-82655698D01*
X66166666Y-82655698D02*
X66119047Y-82750936D01*
X66119047Y-82750936D02*
X66071428Y-82798556D01*
X66071428Y-82798556D02*
X65976190Y-82846175D01*
X65976190Y-82846175D02*
X65833333Y-82846175D01*
X66738095Y-82846175D02*
X66642857Y-82798556D01*
X66642857Y-82798556D02*
X66595238Y-82703317D01*
X66595238Y-82703317D02*
X66595238Y-81846175D01*
X68214286Y-82322365D02*
X68357143Y-82369984D01*
X68357143Y-82369984D02*
X68404762Y-82417603D01*
X68404762Y-82417603D02*
X68452381Y-82512841D01*
X68452381Y-82512841D02*
X68452381Y-82655698D01*
X68452381Y-82655698D02*
X68404762Y-82750936D01*
X68404762Y-82750936D02*
X68357143Y-82798556D01*
X68357143Y-82798556D02*
X68261905Y-82846175D01*
X68261905Y-82846175D02*
X67880953Y-82846175D01*
X67880953Y-82846175D02*
X67880953Y-81846175D01*
X67880953Y-81846175D02*
X68214286Y-81846175D01*
X68214286Y-81846175D02*
X68309524Y-81893794D01*
X68309524Y-81893794D02*
X68357143Y-81941413D01*
X68357143Y-81941413D02*
X68404762Y-82036651D01*
X68404762Y-82036651D02*
X68404762Y-82131889D01*
X68404762Y-82131889D02*
X68357143Y-82227127D01*
X68357143Y-82227127D02*
X68309524Y-82274746D01*
X68309524Y-82274746D02*
X68214286Y-82322365D01*
X68214286Y-82322365D02*
X67880953Y-82322365D01*
X69023810Y-82846175D02*
X68928572Y-82798556D01*
X68928572Y-82798556D02*
X68880953Y-82750936D01*
X68880953Y-82750936D02*
X68833334Y-82655698D01*
X68833334Y-82655698D02*
X68833334Y-82369984D01*
X68833334Y-82369984D02*
X68880953Y-82274746D01*
X68880953Y-82274746D02*
X68928572Y-82227127D01*
X68928572Y-82227127D02*
X69023810Y-82179508D01*
X69023810Y-82179508D02*
X69166667Y-82179508D01*
X69166667Y-82179508D02*
X69261905Y-82227127D01*
X69261905Y-82227127D02*
X69309524Y-82274746D01*
X69309524Y-82274746D02*
X69357143Y-82369984D01*
X69357143Y-82369984D02*
X69357143Y-82655698D01*
X69357143Y-82655698D02*
X69309524Y-82750936D01*
X69309524Y-82750936D02*
X69261905Y-82798556D01*
X69261905Y-82798556D02*
X69166667Y-82846175D01*
X69166667Y-82846175D02*
X69023810Y-82846175D01*
X70214286Y-82846175D02*
X70214286Y-82322365D01*
X70214286Y-82322365D02*
X70166667Y-82227127D01*
X70166667Y-82227127D02*
X70071429Y-82179508D01*
X70071429Y-82179508D02*
X69880953Y-82179508D01*
X69880953Y-82179508D02*
X69785715Y-82227127D01*
X70214286Y-82798556D02*
X70119048Y-82846175D01*
X70119048Y-82846175D02*
X69880953Y-82846175D01*
X69880953Y-82846175D02*
X69785715Y-82798556D01*
X69785715Y-82798556D02*
X69738096Y-82703317D01*
X69738096Y-82703317D02*
X69738096Y-82608079D01*
X69738096Y-82608079D02*
X69785715Y-82512841D01*
X69785715Y-82512841D02*
X69880953Y-82465222D01*
X69880953Y-82465222D02*
X70119048Y-82465222D01*
X70119048Y-82465222D02*
X70214286Y-82417603D01*
X70690477Y-82846175D02*
X70690477Y-82179508D01*
X70690477Y-82369984D02*
X70738096Y-82274746D01*
X70738096Y-82274746D02*
X70785715Y-82227127D01*
X70785715Y-82227127D02*
X70880953Y-82179508D01*
X70880953Y-82179508D02*
X70976191Y-82179508D01*
X71738096Y-82846175D02*
X71738096Y-81846175D01*
X71738096Y-82798556D02*
X71642858Y-82846175D01*
X71642858Y-82846175D02*
X71452382Y-82846175D01*
X71452382Y-82846175D02*
X71357144Y-82798556D01*
X71357144Y-82798556D02*
X71309525Y-82750936D01*
X71309525Y-82750936D02*
X71261906Y-82655698D01*
X71261906Y-82655698D02*
X71261906Y-82369984D01*
X71261906Y-82369984D02*
X71309525Y-82274746D01*
X71309525Y-82274746D02*
X71357144Y-82227127D01*
X71357144Y-82227127D02*
X71452382Y-82179508D01*
X71452382Y-82179508D02*
X71642858Y-82179508D01*
X71642858Y-82179508D02*
X71738096Y-82227127D01*
X58666666Y-84456119D02*
X58666666Y-83456119D01*
X59238094Y-84456119D02*
X58809523Y-83884690D01*
X59238094Y-83456119D02*
X58666666Y-84027547D01*
X60095237Y-84456119D02*
X60095237Y-83932309D01*
X60095237Y-83932309D02*
X60047618Y-83837071D01*
X60047618Y-83837071D02*
X59952380Y-83789452D01*
X59952380Y-83789452D02*
X59761904Y-83789452D01*
X59761904Y-83789452D02*
X59666666Y-83837071D01*
X60095237Y-84408500D02*
X59999999Y-84456119D01*
X59999999Y-84456119D02*
X59761904Y-84456119D01*
X59761904Y-84456119D02*
X59666666Y-84408500D01*
X59666666Y-84408500D02*
X59619047Y-84313261D01*
X59619047Y-84313261D02*
X59619047Y-84218023D01*
X59619047Y-84218023D02*
X59666666Y-84122785D01*
X59666666Y-84122785D02*
X59761904Y-84075166D01*
X59761904Y-84075166D02*
X59999999Y-84075166D01*
X59999999Y-84075166D02*
X60095237Y-84027547D01*
X61333333Y-84456119D02*
X61333333Y-83456119D01*
X61333333Y-83456119D02*
X61666666Y-84170404D01*
X61666666Y-84170404D02*
X61999999Y-83456119D01*
X61999999Y-83456119D02*
X61999999Y-84456119D01*
X62619047Y-84456119D02*
X62523809Y-84408500D01*
X62523809Y-84408500D02*
X62476190Y-84360880D01*
X62476190Y-84360880D02*
X62428571Y-84265642D01*
X62428571Y-84265642D02*
X62428571Y-83979928D01*
X62428571Y-83979928D02*
X62476190Y-83884690D01*
X62476190Y-83884690D02*
X62523809Y-83837071D01*
X62523809Y-83837071D02*
X62619047Y-83789452D01*
X62619047Y-83789452D02*
X62761904Y-83789452D01*
X62761904Y-83789452D02*
X62857142Y-83837071D01*
X62857142Y-83837071D02*
X62904761Y-83884690D01*
X62904761Y-83884690D02*
X62952380Y-83979928D01*
X62952380Y-83979928D02*
X62952380Y-84265642D01*
X62952380Y-84265642D02*
X62904761Y-84360880D01*
X62904761Y-84360880D02*
X62857142Y-84408500D01*
X62857142Y-84408500D02*
X62761904Y-84456119D01*
X62761904Y-84456119D02*
X62619047Y-84456119D01*
X63809523Y-84456119D02*
X63809523Y-83932309D01*
X63809523Y-83932309D02*
X63761904Y-83837071D01*
X63761904Y-83837071D02*
X63666666Y-83789452D01*
X63666666Y-83789452D02*
X63476190Y-83789452D01*
X63476190Y-83789452D02*
X63380952Y-83837071D01*
X63809523Y-84408500D02*
X63714285Y-84456119D01*
X63714285Y-84456119D02*
X63476190Y-84456119D01*
X63476190Y-84456119D02*
X63380952Y-84408500D01*
X63380952Y-84408500D02*
X63333333Y-84313261D01*
X63333333Y-84313261D02*
X63333333Y-84218023D01*
X63333333Y-84218023D02*
X63380952Y-84122785D01*
X63380952Y-84122785D02*
X63476190Y-84075166D01*
X63476190Y-84075166D02*
X63714285Y-84075166D01*
X63714285Y-84075166D02*
X63809523Y-84027547D01*
X64285714Y-84456119D02*
X64285714Y-83789452D01*
X64285714Y-83884690D02*
X64333333Y-83837071D01*
X64333333Y-83837071D02*
X64428571Y-83789452D01*
X64428571Y-83789452D02*
X64571428Y-83789452D01*
X64571428Y-83789452D02*
X64666666Y-83837071D01*
X64666666Y-83837071D02*
X64714285Y-83932309D01*
X64714285Y-83932309D02*
X64714285Y-84456119D01*
X64714285Y-83932309D02*
X64761904Y-83837071D01*
X64761904Y-83837071D02*
X64857142Y-83789452D01*
X64857142Y-83789452D02*
X64999999Y-83789452D01*
X64999999Y-83789452D02*
X65095238Y-83837071D01*
X65095238Y-83837071D02*
X65142857Y-83932309D01*
X65142857Y-83932309D02*
X65142857Y-84456119D01*
X65761904Y-84456119D02*
X65666666Y-84408500D01*
X65666666Y-84408500D02*
X65619047Y-84360880D01*
X65619047Y-84360880D02*
X65571428Y-84265642D01*
X65571428Y-84265642D02*
X65571428Y-83979928D01*
X65571428Y-83979928D02*
X65619047Y-83884690D01*
X65619047Y-83884690D02*
X65666666Y-83837071D01*
X65666666Y-83837071D02*
X65761904Y-83789452D01*
X65761904Y-83789452D02*
X65904761Y-83789452D01*
X65904761Y-83789452D02*
X65999999Y-83837071D01*
X65999999Y-83837071D02*
X66047618Y-83884690D01*
X66047618Y-83884690D02*
X66095237Y-83979928D01*
X66095237Y-83979928D02*
X66095237Y-84265642D01*
X66095237Y-84265642D02*
X66047618Y-84360880D01*
X66047618Y-84360880D02*
X65999999Y-84408500D01*
X65999999Y-84408500D02*
X65904761Y-84456119D01*
X65904761Y-84456119D02*
X65761904Y-84456119D01*
X66952380Y-84456119D02*
X66952380Y-83932309D01*
X66952380Y-83932309D02*
X66904761Y-83837071D01*
X66904761Y-83837071D02*
X66809523Y-83789452D01*
X66809523Y-83789452D02*
X66619047Y-83789452D01*
X66619047Y-83789452D02*
X66523809Y-83837071D01*
X66952380Y-84408500D02*
X66857142Y-84456119D01*
X66857142Y-84456119D02*
X66619047Y-84456119D01*
X66619047Y-84456119D02*
X66523809Y-84408500D01*
X66523809Y-84408500D02*
X66476190Y-84313261D01*
X66476190Y-84313261D02*
X66476190Y-84218023D01*
X66476190Y-84218023D02*
X66523809Y-84122785D01*
X66523809Y-84122785D02*
X66619047Y-84075166D01*
X66619047Y-84075166D02*
X66857142Y-84075166D01*
X66857142Y-84075166D02*
X66952380Y-84027547D01*
X68666666Y-84456119D02*
X68190476Y-84456119D01*
X68190476Y-84456119D02*
X68190476Y-83456119D01*
X69428571Y-84456119D02*
X69428571Y-83932309D01*
X69428571Y-83932309D02*
X69380952Y-83837071D01*
X69380952Y-83837071D02*
X69285714Y-83789452D01*
X69285714Y-83789452D02*
X69095238Y-83789452D01*
X69095238Y-83789452D02*
X69000000Y-83837071D01*
X69428571Y-84408500D02*
X69333333Y-84456119D01*
X69333333Y-84456119D02*
X69095238Y-84456119D01*
X69095238Y-84456119D02*
X69000000Y-84408500D01*
X69000000Y-84408500D02*
X68952381Y-84313261D01*
X68952381Y-84313261D02*
X68952381Y-84218023D01*
X68952381Y-84218023D02*
X69000000Y-84122785D01*
X69000000Y-84122785D02*
X69095238Y-84075166D01*
X69095238Y-84075166D02*
X69333333Y-84075166D01*
X69333333Y-84075166D02*
X69428571Y-84027547D01*
X69904762Y-84456119D02*
X69904762Y-83456119D01*
X69904762Y-83837071D02*
X70000000Y-83789452D01*
X70000000Y-83789452D02*
X70190476Y-83789452D01*
X70190476Y-83789452D02*
X70285714Y-83837071D01*
X70285714Y-83837071D02*
X70333333Y-83884690D01*
X70333333Y-83884690D02*
X70380952Y-83979928D01*
X70380952Y-83979928D02*
X70380952Y-84265642D01*
X70380952Y-84265642D02*
X70333333Y-84360880D01*
X70333333Y-84360880D02*
X70285714Y-84408500D01*
X70285714Y-84408500D02*
X70190476Y-84456119D01*
X70190476Y-84456119D02*
X70000000Y-84456119D01*
X70000000Y-84456119D02*
X69904762Y-84408500D01*
X62428571Y-86066063D02*
X62095238Y-85589872D01*
X61857143Y-86066063D02*
X61857143Y-85066063D01*
X61857143Y-85066063D02*
X62238095Y-85066063D01*
X62238095Y-85066063D02*
X62333333Y-85113682D01*
X62333333Y-85113682D02*
X62380952Y-85161301D01*
X62380952Y-85161301D02*
X62428571Y-85256539D01*
X62428571Y-85256539D02*
X62428571Y-85399396D01*
X62428571Y-85399396D02*
X62380952Y-85494634D01*
X62380952Y-85494634D02*
X62333333Y-85542253D01*
X62333333Y-85542253D02*
X62238095Y-85589872D01*
X62238095Y-85589872D02*
X61857143Y-85589872D01*
X63238095Y-86018444D02*
X63142857Y-86066063D01*
X63142857Y-86066063D02*
X62952381Y-86066063D01*
X62952381Y-86066063D02*
X62857143Y-86018444D01*
X62857143Y-86018444D02*
X62809524Y-85923205D01*
X62809524Y-85923205D02*
X62809524Y-85542253D01*
X62809524Y-85542253D02*
X62857143Y-85447015D01*
X62857143Y-85447015D02*
X62952381Y-85399396D01*
X62952381Y-85399396D02*
X63142857Y-85399396D01*
X63142857Y-85399396D02*
X63238095Y-85447015D01*
X63238095Y-85447015D02*
X63285714Y-85542253D01*
X63285714Y-85542253D02*
X63285714Y-85637491D01*
X63285714Y-85637491D02*
X62809524Y-85732729D01*
X63619048Y-85399396D02*
X63857143Y-86066063D01*
X63857143Y-86066063D02*
X64095238Y-85399396D01*
X65190477Y-85161301D02*
X65238096Y-85113682D01*
X65238096Y-85113682D02*
X65333334Y-85066063D01*
X65333334Y-85066063D02*
X65571429Y-85066063D01*
X65571429Y-85066063D02*
X65666667Y-85113682D01*
X65666667Y-85113682D02*
X65714286Y-85161301D01*
X65714286Y-85161301D02*
X65761905Y-85256539D01*
X65761905Y-85256539D02*
X65761905Y-85351777D01*
X65761905Y-85351777D02*
X65714286Y-85494634D01*
X65714286Y-85494634D02*
X65142858Y-86066063D01*
X65142858Y-86066063D02*
X65761905Y-86066063D01*
X66190477Y-85970824D02*
X66238096Y-86018444D01*
X66238096Y-86018444D02*
X66190477Y-86066063D01*
X66190477Y-86066063D02*
X66142858Y-86018444D01*
X66142858Y-86018444D02*
X66190477Y-85970824D01*
X66190477Y-85970824D02*
X66190477Y-86066063D01*
X66857143Y-85066063D02*
X66952381Y-85066063D01*
X66952381Y-85066063D02*
X67047619Y-85113682D01*
X67047619Y-85113682D02*
X67095238Y-85161301D01*
X67095238Y-85161301D02*
X67142857Y-85256539D01*
X67142857Y-85256539D02*
X67190476Y-85447015D01*
X67190476Y-85447015D02*
X67190476Y-85685110D01*
X67190476Y-85685110D02*
X67142857Y-85875586D01*
X67142857Y-85875586D02*
X67095238Y-85970824D01*
X67095238Y-85970824D02*
X67047619Y-86018444D01*
X67047619Y-86018444D02*
X66952381Y-86066063D01*
X66952381Y-86066063D02*
X66857143Y-86066063D01*
X66857143Y-86066063D02*
X66761905Y-86018444D01*
X66761905Y-86018444D02*
X66714286Y-85970824D01*
X66714286Y-85970824D02*
X66666667Y-85875586D01*
X66666667Y-85875586D02*
X66619048Y-85685110D01*
X66619048Y-85685110D02*
X66619048Y-85447015D01*
X66619048Y-85447015D02*
X66666667Y-85256539D01*
X66666667Y-85256539D02*
X66714286Y-85161301D01*
X66714286Y-85161301D02*
X66761905Y-85113682D01*
X66761905Y-85113682D02*
X66857143Y-85066063D01*
D13*
X56000000Y-80500000D02*
X73000000Y-80500000D01*
X73000000Y-87500000D01*
X56000000Y-87500000D01*
X56000000Y-80500000D01*
%TO.C,C3*%
D14*
X68990000Y-103103733D02*
X68990000Y-103396267D01*
X70010000Y-103103733D02*
X70010000Y-103396267D01*
%TO.C,U3*%
X63440000Y-91090000D02*
X63490000Y-91090000D01*
X63440000Y-92910000D02*
X63440000Y-91090000D01*
X63490000Y-92910000D02*
X63440000Y-92910000D01*
X64610000Y-91090000D02*
X65390000Y-91090000D01*
X66510000Y-91090000D02*
X66560000Y-91090000D01*
X66560000Y-91090000D02*
X66560000Y-92910000D01*
X66560000Y-92910000D02*
X66510000Y-92910000D01*
X63490000Y-93450000D02*
X63160000Y-93690000D01*
X63160000Y-93210000D01*
X63490000Y-93450000D01*
G36*
X63490000Y-93450000D02*
G01*
X63160000Y-93690000D01*
X63160000Y-93210000D01*
X63490000Y-93450000D01*
G37*
%TO.C,R5*%
X57832379Y-73620000D02*
X58167621Y-73620000D01*
X57832379Y-74380000D02*
X58167621Y-74380000D01*
%TO.C,SW2*%
X83540000Y-69140000D02*
X83540000Y-69390000D01*
X83540000Y-72610000D02*
X83540000Y-72860000D01*
X83540000Y-72860000D02*
X88460000Y-72860000D01*
X88460000Y-69140000D02*
X83540000Y-69140000D01*
X88460000Y-69140000D02*
X88460000Y-69390000D01*
X88460000Y-72610000D02*
X88460000Y-72860000D01*
%TO.C,C4*%
X67490000Y-103103733D02*
X67490000Y-103396267D01*
X68510000Y-103103733D02*
X68510000Y-103396267D01*
%TO.C,R2*%
X75582379Y-88870000D02*
X75917621Y-88870000D01*
X75582379Y-89630000D02*
X75917621Y-89630000D01*
%TO.C,D5*%
X75265000Y-103200000D02*
X75265000Y-105660000D01*
X75265000Y-105660000D02*
X76735000Y-105660000D01*
X76735000Y-105660000D02*
X76735000Y-103200000D01*
%TO.C,C9*%
X69390000Y-90884165D02*
X69390000Y-91115835D01*
X70110000Y-90884165D02*
X70110000Y-91115835D01*
%TO.C,C1*%
X65646267Y-97490000D02*
X65353733Y-97490000D01*
X65646267Y-98510000D02*
X65353733Y-98510000D01*
%TO.C,SW1*%
X52400000Y-104100000D02*
X53600000Y-104100000D01*
X52400000Y-106400000D02*
X52400000Y-104100000D01*
X56100000Y-104100000D02*
X55400000Y-104100000D01*
X58600000Y-104100000D02*
X57900000Y-104100000D01*
X60400000Y-104100000D02*
X61600000Y-104100000D01*
X61600000Y-104100000D02*
X61600000Y-106400000D01*
%TO.C,TP16*%
X74700000Y-87000000D02*
G75*
G02*
X73300000Y-87000000I-700000J0D01*
G01*
X73300000Y-87000000D02*
G75*
G02*
X74700000Y-87000000I700000J0D01*
G01*
%TO.C,TP1*%
X78950000Y-91750000D02*
G75*
G02*
X77550000Y-91750000I-700000J0D01*
G01*
X77550000Y-91750000D02*
G75*
G02*
X78950000Y-91750000I700000J0D01*
G01*
%TO.C,C12*%
X67384165Y-77390000D02*
X67615835Y-77390000D01*
X67384165Y-78110000D02*
X67615835Y-78110000D01*
%TO.C,R8*%
X57667621Y-89620000D02*
X57332379Y-89620000D01*
X57667621Y-90380000D02*
X57332379Y-90380000D01*
%TO.C,R13*%
X71120000Y-71832379D02*
X71120000Y-72167621D01*
X71880000Y-71832379D02*
X71880000Y-72167621D01*
%TO.C,R16*%
X57082379Y-67620000D02*
X57417621Y-67620000D01*
X57082379Y-68380000D02*
X57417621Y-68380000D01*
%TO.C,R11*%
X75620000Y-106832379D02*
X75620000Y-107167621D01*
X76380000Y-106832379D02*
X76380000Y-107167621D01*
%TO.C,J4*%
X40640000Y-73090000D02*
X42040000Y-73090000D01*
X40640000Y-86910000D02*
X40640000Y-73090000D01*
X40640000Y-86910000D02*
X42040000Y-86910000D01*
X44560000Y-73090000D02*
X50340000Y-73090000D01*
X50340000Y-86910000D02*
X44560000Y-86910000D01*
X52860000Y-73090000D02*
X55360000Y-73090000D01*
X52860000Y-86910000D02*
X55360000Y-86910000D01*
X55360000Y-86910000D02*
X55360000Y-73090000D01*
%TO.C,C6*%
X62390000Y-90884165D02*
X62390000Y-91115835D01*
X63110000Y-90884165D02*
X63110000Y-91115835D01*
%TO.C,TP11*%
X69200000Y-88750000D02*
G75*
G02*
X67800000Y-88750000I-700000J0D01*
G01*
X67800000Y-88750000D02*
G75*
G02*
X69200000Y-88750000I700000J0D01*
G01*
%TO.C,C2*%
X66140000Y-104134165D02*
X66140000Y-104365835D01*
X66860000Y-104134165D02*
X66860000Y-104365835D01*
%TO.C,L1*%
D15*
X67330000Y-98250000D02*
X67330000Y-101250000D01*
X70670000Y-98250000D02*
X70670000Y-101250000D01*
%TO.C,C8*%
D14*
X70615835Y-94390000D02*
X70384165Y-94390000D01*
X70615835Y-95110000D02*
X70384165Y-95110000D01*
%TO.C,TP7*%
X71700000Y-88750000D02*
G75*
G02*
X70300000Y-88750000I-700000J0D01*
G01*
X70300000Y-88750000D02*
G75*
G02*
X71700000Y-88750000I700000J0D01*
G01*
%TO.C,R17*%
X57082379Y-66620000D02*
X57417621Y-66620000D01*
X57082379Y-67380000D02*
X57417621Y-67380000D01*
%TO.C,J2*%
X41090000Y-91940000D02*
X41090000Y-98060000D01*
X41090000Y-94500000D02*
X45450000Y-94500000D01*
X41090000Y-98060000D02*
X48910000Y-98060000D01*
X43350000Y-93200000D02*
X41090000Y-93200000D01*
X43350000Y-93700000D02*
X41090000Y-93700000D01*
X45450000Y-94500000D02*
X45450000Y-95500000D01*
X45450000Y-95500000D02*
X41090000Y-95500000D01*
X47310000Y-91940000D02*
X47310000Y-92860000D01*
X47310000Y-92860000D02*
X48910000Y-92860000D01*
X47310000Y-93140000D02*
X47310000Y-92860000D01*
X47310000Y-93140000D02*
X48525000Y-93140000D01*
X47310000Y-97140000D02*
X47310000Y-96860000D01*
X47310000Y-98060000D02*
X47310000Y-97140000D01*
X48910000Y-91940000D02*
X41090000Y-91940000D01*
X48910000Y-92860000D02*
X48910000Y-91940000D01*
X48910000Y-97140000D02*
X47310000Y-97140000D01*
X48910000Y-98060000D02*
X48910000Y-97140000D01*
X43350000Y-92700000D02*
X44950000Y-92700000D01*
X44950000Y-93700000D01*
X43350000Y-93700000D01*
X43350000Y-92700000D01*
X43350000Y-96300000D02*
X44950000Y-96300000D01*
X44950000Y-97300000D01*
X43350000Y-97300000D01*
X43350000Y-96300000D01*
%TO.C,R1*%
X78417621Y-88870000D02*
X78082379Y-88870000D01*
X78417621Y-89630000D02*
X78082379Y-89630000D01*
%TO.C,R6*%
X56620000Y-99832379D02*
X56620000Y-100167621D01*
X57380000Y-99832379D02*
X57380000Y-100167621D01*
%TO.C,U5*%
X59650000Y-61150000D02*
X59650000Y-62250000D01*
X59650000Y-75750000D02*
X59650000Y-76850000D01*
X59650000Y-76850000D02*
X60750000Y-76850000D01*
X60750000Y-61150000D02*
X59650000Y-61150000D01*
X69250000Y-61150000D02*
X70350000Y-61150000D01*
X70350000Y-61150000D02*
X70350000Y-62250000D01*
X70350000Y-75750000D02*
X70350000Y-76850000D01*
X70350000Y-76850000D02*
X69250000Y-76850000D01*
X59625000Y-65250000D02*
X59289000Y-65490000D01*
X59289000Y-65010000D01*
X59625000Y-65250000D01*
G36*
X59625000Y-65250000D02*
G01*
X59289000Y-65490000D01*
X59289000Y-65010000D01*
X59625000Y-65250000D01*
G37*
%TO.C,D4*%
X73265000Y-103200000D02*
X73265000Y-105660000D01*
X73265000Y-105660000D02*
X74735000Y-105660000D01*
X74735000Y-105660000D02*
X74735000Y-103200000D01*
%TO.C,C5*%
X63615835Y-94390000D02*
X63384165Y-94390000D01*
X63615835Y-95110000D02*
X63384165Y-95110000D01*
%TO.C,J1*%
D15*
X82790000Y-74850000D02*
X82790000Y-77200000D01*
X82790000Y-92800000D02*
X82790000Y-95150000D01*
X82790000Y-95150000D02*
X86110000Y-95150000D01*
X86110000Y-74850000D02*
X82790000Y-74850000D01*
X89210000Y-74850000D02*
X88980000Y-74850000D01*
X89210000Y-95150000D02*
X88980000Y-95150000D01*
X89210000Y-95150000D02*
X89210000Y-74850000D01*
D12*
X80804200Y-92269800D02*
G75*
G02*
X80604200Y-92269800I-100000J0D01*
G01*
X80604200Y-92269800D02*
G75*
G02*
X80804200Y-92269800I100000J0D01*
G01*
%TO.C,J3*%
D14*
X41235000Y-93305000D02*
X47235000Y-93305000D01*
X41235000Y-94165000D02*
X41235000Y-93305000D01*
X47235000Y-94165000D02*
X41235000Y-94165000D01*
X49995000Y-95005000D02*
X47235000Y-95005000D01*
X50225000Y-95845000D02*
X49995000Y-95845000D01*
X50225000Y-96705000D02*
X49995000Y-96705000D01*
X50307642Y-93305000D02*
X49995000Y-93305000D01*
X50307642Y-94165000D02*
X49995000Y-94165000D01*
X52655000Y-96275000D02*
X52655000Y-97545000D01*
X52655000Y-97545000D02*
X51385000Y-97545000D01*
X41235000Y-95845000D02*
X47235000Y-95845000D01*
X47235000Y-96705000D01*
X41235000Y-96705000D01*
X41235000Y-95845000D01*
G36*
X41235000Y-95845000D02*
G01*
X47235000Y-95845000D01*
X47235000Y-96705000D01*
X41235000Y-96705000D01*
X41235000Y-95845000D01*
G37*
X47235000Y-92355000D02*
X49995000Y-92355000D01*
X49995000Y-97655000D01*
X47235000Y-97655000D01*
X47235000Y-92355000D01*
%TO.C,U1*%
D16*
X75375000Y-81875000D02*
X75375000Y-85125000D01*
X75550000Y-81875000D02*
X75375000Y-81875000D01*
X75550000Y-85125000D02*
X75375000Y-85125000D01*
X78625000Y-81875000D02*
X78450000Y-81875000D01*
X78625000Y-81875000D02*
X78625000Y-85125000D01*
X78625000Y-85125000D02*
X78450000Y-85125000D01*
D14*
X78450000Y-81400000D02*
X78780000Y-81160000D01*
X78780000Y-81640000D01*
X78450000Y-81400000D01*
G36*
X78780000Y-81640000D02*
G01*
X78450000Y-81400000D01*
X78780000Y-81160000D01*
X78780000Y-81640000D01*
G37*
%TO.C,R19*%
X77370000Y-74167621D02*
X77370000Y-73832379D01*
X78130000Y-74167621D02*
X78130000Y-73832379D01*
%TO.C,C7*%
X60990000Y-91353733D02*
X60990000Y-91646267D01*
X62010000Y-91353733D02*
X62010000Y-91646267D01*
%TO.C,D7*%
X53200000Y-69985000D02*
X55660000Y-69985000D01*
X55660000Y-68515000D02*
X53200000Y-68515000D01*
X55660000Y-69985000D02*
X55660000Y-68515000D01*
%TO.C,R7*%
X57342379Y-90620000D02*
X57677621Y-90620000D01*
X57342379Y-91380000D02*
X57677621Y-91380000D01*
%TO.C,R12*%
X71120000Y-74417621D02*
X71120000Y-74082379D01*
X71880000Y-74417621D02*
X71880000Y-74082379D01*
%TO.C,R10*%
X73620000Y-106832379D02*
X73620000Y-107167621D01*
X74380000Y-106832379D02*
X74380000Y-107167621D01*
%TO.C,TP8*%
X69200000Y-96500000D02*
G75*
G02*
X67800000Y-96500000I-700000J0D01*
G01*
X67800000Y-96500000D02*
G75*
G02*
X69200000Y-96500000I700000J0D01*
G01*
%TO.C,D2*%
X60510000Y-91850000D02*
X55000000Y-91850000D01*
X60510000Y-95150000D02*
X55000000Y-95150000D01*
X60510000Y-95150000D02*
X60510000Y-91850000D01*
%TO.C,D1*%
X58440000Y-96740000D02*
X59440000Y-96740000D01*
X58440000Y-98260000D02*
X58440000Y-96740000D01*
X58490000Y-98260000D02*
X58440000Y-98260000D01*
X60390000Y-98260000D02*
X59610000Y-98260000D01*
X60560000Y-96740000D02*
X61560000Y-96740000D01*
X61560000Y-96740000D02*
X61560000Y-98260000D01*
X61560000Y-98260000D02*
X61510000Y-98260000D01*
X59620000Y-98800000D02*
X59950000Y-98560000D01*
X59950000Y-99040000D01*
X59620000Y-98800000D01*
G36*
X59950000Y-99040000D02*
G01*
X59620000Y-98800000D01*
X59950000Y-98560000D01*
X59950000Y-99040000D01*
G37*
%TO.C,C11*%
X67663733Y-78490000D02*
X67956267Y-78490000D01*
X67663733Y-79510000D02*
X67956267Y-79510000D01*
%TO.C,TP15*%
X76200000Y-79000000D02*
G75*
G02*
X74800000Y-79000000I-700000J0D01*
G01*
X74800000Y-79000000D02*
G75*
G02*
X76200000Y-79000000I700000J0D01*
G01*
%TO.C,D3*%
X77265000Y-103200000D02*
X77265000Y-105660000D01*
X77265000Y-105660000D02*
X78735000Y-105660000D01*
X78735000Y-105660000D02*
X78735000Y-103200000D01*
%TO.C,D6*%
X53200000Y-71485000D02*
X55660000Y-71485000D01*
X55660000Y-70015000D02*
X53200000Y-70015000D01*
X55660000Y-71485000D02*
X55660000Y-70015000D01*
%TO.C,D9*%
X53200000Y-66985000D02*
X55660000Y-66985000D01*
X55660000Y-65515000D02*
X53200000Y-65515000D01*
X55660000Y-66985000D02*
X55660000Y-65515000D01*
%TO.C,U2*%
X63375000Y-99600000D02*
X63375000Y-99375000D01*
X63375000Y-102400000D02*
X63375000Y-102625000D01*
X64350000Y-99375000D02*
X63375000Y-99375000D01*
X64350000Y-102625000D02*
X63375000Y-102625000D01*
X66320000Y-102625000D02*
X65650000Y-102625000D01*
X66625000Y-99375000D02*
X65650000Y-99375000D01*
X66625000Y-99375000D02*
X66625000Y-99600000D01*
X66840000Y-102420000D02*
X67080000Y-102750000D01*
X66600000Y-102750000D01*
X66840000Y-102420000D01*
G36*
X67080000Y-102750000D02*
G01*
X66600000Y-102750000D01*
X66840000Y-102420000D01*
X67080000Y-102750000D01*
G37*
%TO.C,D8*%
X53200000Y-68485000D02*
X55660000Y-68485000D01*
X55660000Y-67015000D02*
X53200000Y-67015000D01*
X55660000Y-68485000D02*
X55660000Y-67015000D01*
%TO.C,R14*%
X57082379Y-69620000D02*
X57417621Y-69620000D01*
X57082379Y-70380000D02*
X57417621Y-70380000D01*
%TO.C,TP9*%
X72700000Y-101000000D02*
G75*
G02*
X71300000Y-101000000I-700000J0D01*
G01*
X71300000Y-101000000D02*
G75*
G02*
X72700000Y-101000000I700000J0D01*
G01*
%TO.C,R4*%
X57832379Y-74620000D02*
X58167621Y-74620000D01*
X57832379Y-75380000D02*
X58167621Y-75380000D01*
%TO.C,TP18*%
X81200000Y-74000000D02*
G75*
G02*
X79800000Y-74000000I-700000J0D01*
G01*
X79800000Y-74000000D02*
G75*
G02*
X81200000Y-74000000I700000J0D01*
G01*
%TO.C,C15*%
X78390000Y-73884165D02*
X78390000Y-74115835D01*
X79110000Y-73884165D02*
X79110000Y-74115835D01*
%TO.C,TP12*%
X65200000Y-104500000D02*
G75*
G02*
X63800000Y-104500000I-700000J0D01*
G01*
X63800000Y-104500000D02*
G75*
G02*
X65200000Y-104500000I700000J0D01*
G01*
%TO.C,U4*%
X70440000Y-91090000D02*
X70490000Y-91090000D01*
X70440000Y-92910000D02*
X70440000Y-91090000D01*
X70490000Y-92910000D02*
X70440000Y-92910000D01*
X71610000Y-91090000D02*
X72390000Y-91090000D01*
X73510000Y-91090000D02*
X73560000Y-91090000D01*
X73560000Y-91090000D02*
X73560000Y-92910000D01*
X73560000Y-92910000D02*
X73510000Y-92910000D01*
X70490000Y-93450000D02*
X70160000Y-93690000D01*
X70160000Y-93210000D01*
X70490000Y-93450000D01*
G36*
X70490000Y-93450000D02*
G01*
X70160000Y-93690000D01*
X70160000Y-93210000D01*
X70490000Y-93450000D01*
G37*
%TO.C,R9*%
X77620000Y-106832379D02*
X77620000Y-107167621D01*
X78380000Y-106832379D02*
X78380000Y-107167621D01*
%TO.C,C10*%
X67990000Y-91353733D02*
X67990000Y-91646267D01*
X69010000Y-91353733D02*
X69010000Y-91646267D01*
%TO.C,F1*%
X52397936Y-89590000D02*
X53602064Y-89590000D01*
X52397936Y-91410000D02*
X53602064Y-91410000D01*
%TO.C,Q1*%
X55240000Y-95440000D02*
X56760000Y-95440000D01*
X55240000Y-96440000D02*
X55240000Y-95440000D01*
X55240000Y-98560000D02*
X55240000Y-97560000D01*
X56760000Y-95440000D02*
X56760000Y-95490000D01*
X56760000Y-96610000D02*
X56760000Y-97390000D01*
X56760000Y-98510000D02*
X56760000Y-98560000D01*
X56760000Y-98560000D02*
X55240000Y-98560000D01*
X57300000Y-97380000D02*
X57060000Y-97050000D01*
X57540000Y-97050000D01*
X57300000Y-97380000D01*
G36*
X57300000Y-97380000D02*
G01*
X57060000Y-97050000D01*
X57540000Y-97050000D01*
X57300000Y-97380000D01*
G37*
%TO.C,TP10*%
X62200000Y-88750000D02*
G75*
G02*
X60800000Y-88750000I-700000J0D01*
G01*
X60800000Y-88750000D02*
G75*
G02*
X62200000Y-88750000I700000J0D01*
G01*
%TO.C,J5*%
X73910000Y-65780000D02*
X75185000Y-65780000D01*
X75185000Y-65715000D02*
X75185000Y-65780000D01*
X75185000Y-65715000D02*
X78815000Y-65715000D01*
X75185000Y-72220000D02*
X75185000Y-72285000D01*
X75185000Y-72285000D02*
X78815000Y-72285000D01*
X78815000Y-65715000D02*
X78815000Y-65780000D01*
X78815000Y-72220000D02*
X78815000Y-72285000D01*
%TO.C,C14*%
X78634165Y-79640000D02*
X78865835Y-79640000D01*
X78634165Y-80360000D02*
X78865835Y-80360000D01*
%TO.C,TP2*%
X76450000Y-91750000D02*
G75*
G02*
X75050000Y-91750000I-700000J0D01*
G01*
X75050000Y-91750000D02*
G75*
G02*
X76450000Y-91750000I700000J0D01*
G01*
%TO.C,C13*%
X78684165Y-86640000D02*
X78915835Y-86640000D01*
X78684165Y-87360000D02*
X78915835Y-87360000D01*
%TO.C,R15*%
X57082379Y-68620000D02*
X57417621Y-68620000D01*
X57082379Y-69380000D02*
X57417621Y-69380000D01*
%TO.C,R3*%
X76370000Y-74167621D02*
X76370000Y-73832379D01*
X77130000Y-74167621D02*
X77130000Y-73832379D01*
%TO.C,TP14*%
X79200000Y-78000000D02*
G75*
G02*
X77800000Y-78000000I-700000J0D01*
G01*
X77800000Y-78000000D02*
G75*
G02*
X79200000Y-78000000I700000J0D01*
G01*
%TO.C,TP13*%
X73200000Y-96500000D02*
G75*
G02*
X71800000Y-96500000I-700000J0D01*
G01*
X71800000Y-96500000D02*
G75*
G02*
X73200000Y-96500000I700000J0D01*
G01*
%TD*%
%LPC*%
D17*
%TO.C,C3*%
X69500000Y-102387500D03*
X69500000Y-104112500D03*
%TD*%
D18*
%TO.C,FID2*%
X49000000Y-101000000D03*
%TD*%
D19*
%TO.C,H3*%
X85000000Y-105000000D03*
%TD*%
D20*
%TO.C,U3*%
X64050000Y-93137500D03*
X65000000Y-93137500D03*
X65950000Y-93137500D03*
X65950000Y-90862500D03*
X64050000Y-90862500D03*
%TD*%
D21*
%TO.C,R5*%
X57402500Y-74000000D03*
X58597500Y-74000000D03*
%TD*%
D22*
%TO.C,SW2*%
X83425000Y-70150000D03*
X88575000Y-70150000D03*
X83425000Y-71850000D03*
X88575000Y-71850000D03*
%TD*%
D17*
%TO.C,C4*%
X68000000Y-102387500D03*
X68000000Y-104112500D03*
%TD*%
D21*
%TO.C,R2*%
X75152500Y-89250000D03*
X76347500Y-89250000D03*
%TD*%
D23*
%TO.C,D5*%
X76000000Y-104875000D03*
X76000000Y-103125000D03*
%TD*%
D24*
%TO.C,C9*%
X69750000Y-90432500D03*
X69750000Y-91567500D03*
%TD*%
D25*
%TO.C,C1*%
X66362500Y-98000000D03*
X64637500Y-98000000D03*
%TD*%
D26*
%TO.C,SW1*%
X53600000Y-106000000D03*
X60400000Y-106000000D03*
D27*
X54500000Y-103250000D03*
X57000000Y-103250000D03*
X59500000Y-103250000D03*
%TD*%
D28*
%TO.C,TP16*%
X74000000Y-87000000D03*
%TD*%
%TO.C,TP1*%
X78250000Y-91750000D03*
%TD*%
D29*
%TO.C,C12*%
X66932500Y-77750000D03*
X68067500Y-77750000D03*
%TD*%
D30*
%TO.C,R8*%
X58097500Y-90000000D03*
X56902500Y-90000000D03*
%TD*%
D31*
%TO.C,R13*%
X71500000Y-71402500D03*
X71500000Y-72597500D03*
%TD*%
D21*
%TO.C,R16*%
X56652500Y-68000000D03*
X57847500Y-68000000D03*
%TD*%
D31*
%TO.C,R11*%
X76000000Y-106402500D03*
X76000000Y-107597500D03*
%TD*%
D32*
%TO.C,J4*%
X45900000Y-83205000D03*
X45900000Y-82105000D03*
X45900000Y-81005000D03*
X45900000Y-79905000D03*
X45900000Y-78805000D03*
X45900000Y-77705000D03*
X45900000Y-76605000D03*
X45900000Y-75505000D03*
D33*
X43300000Y-86875000D03*
X51600000Y-86875000D03*
X43300000Y-73125000D03*
X51600000Y-73125000D03*
%TD*%
D24*
%TO.C,C6*%
X62750000Y-90432500D03*
X62750000Y-91567500D03*
%TD*%
D28*
%TO.C,TP11*%
X68500000Y-88750000D03*
%TD*%
D24*
%TO.C,C2*%
X66500000Y-103682500D03*
X66500000Y-104817500D03*
%TD*%
D34*
%TO.C,L1*%
X69000000Y-98650000D03*
X69000000Y-100850000D03*
%TD*%
D35*
%TO.C,C8*%
X71067500Y-94750000D03*
X69932500Y-94750000D03*
%TD*%
D28*
%TO.C,TP7*%
X71000000Y-88750000D03*
%TD*%
D21*
%TO.C,R17*%
X56652500Y-67000000D03*
X57847500Y-67000000D03*
%TD*%
D36*
%TO.C,J2*%
X47450000Y-94000000D03*
D37*
X47450000Y-96000000D03*
%TD*%
D30*
%TO.C,R1*%
X78847500Y-89250000D03*
X77652500Y-89250000D03*
%TD*%
D31*
%TO.C,R6*%
X57000000Y-99402500D03*
X57000000Y-100597500D03*
%TD*%
D38*
%TO.C,U5*%
X60350000Y-65250000D03*
X60350000Y-66350000D03*
X60350000Y-67150000D03*
X60350000Y-68750000D03*
X61250000Y-69150000D03*
X60350000Y-69550000D03*
X61250000Y-69950000D03*
X60350000Y-70350000D03*
X61250000Y-70750000D03*
X60350000Y-71150000D03*
X61250000Y-71550000D03*
X60350000Y-71950000D03*
X61250000Y-72350000D03*
X60350000Y-72750000D03*
D39*
X60200000Y-76150000D03*
X61000000Y-76150000D03*
X61800000Y-76150000D03*
X62600000Y-76150000D03*
X63000000Y-75250000D03*
X63400000Y-76150000D03*
X63800000Y-75250000D03*
X64200000Y-76150000D03*
X64600000Y-75250000D03*
X65000000Y-76150000D03*
X65400000Y-75250000D03*
X65800000Y-76150000D03*
X66200000Y-75250000D03*
X66600000Y-76150000D03*
X67000000Y-75250000D03*
X67400000Y-76150000D03*
X68200000Y-76150000D03*
X69000000Y-76150000D03*
X69800000Y-76150000D03*
D38*
X69650000Y-75150000D03*
X69650000Y-74350000D03*
X68750000Y-73950000D03*
X69650000Y-73550000D03*
X68750000Y-73150000D03*
X69650000Y-72750000D03*
X68750000Y-72350000D03*
X69650000Y-71950000D03*
X68750000Y-71550000D03*
X68750000Y-70750000D03*
X69650000Y-70350000D03*
X68750000Y-69950000D03*
X69650000Y-69550000D03*
X68750000Y-69150000D03*
X69650000Y-68750000D03*
X68750000Y-68350000D03*
X68750000Y-67550000D03*
X69650000Y-67150000D03*
X68750000Y-66750000D03*
X69650000Y-66350000D03*
X68750000Y-65950000D03*
X69650000Y-65250000D03*
D39*
X63000000Y-69550000D03*
X63800000Y-69550000D03*
X64600000Y-69550000D03*
X65400000Y-69550000D03*
X66200000Y-69550000D03*
X67000000Y-69550000D03*
%TD*%
D19*
%TO.C,H1*%
X45000000Y-65000000D03*
%TD*%
D23*
%TO.C,D4*%
X74000000Y-104875000D03*
X74000000Y-103125000D03*
%TD*%
D35*
%TO.C,C5*%
X64067500Y-94750000D03*
X62932500Y-94750000D03*
%TD*%
D40*
%TO.C,J1*%
X81910000Y-92250000D03*
X81910000Y-91750000D03*
X81910000Y-91250000D03*
X81910000Y-90750000D03*
X81910000Y-90250000D03*
X81910000Y-89750000D03*
X81910000Y-89250000D03*
X81910000Y-88750000D03*
X81910000Y-88250000D03*
X81910000Y-87750000D03*
X81910000Y-87250000D03*
X81910000Y-86750000D03*
X81910000Y-86250000D03*
X81910000Y-85750000D03*
X81910000Y-85250000D03*
X81910000Y-84750000D03*
X81910000Y-84250000D03*
X81910000Y-83750000D03*
X81910000Y-83250000D03*
X81910000Y-82750000D03*
X81910000Y-82250000D03*
X81910000Y-81750000D03*
X81910000Y-81250000D03*
X81910000Y-80750000D03*
X81910000Y-80250000D03*
X81910000Y-79750000D03*
X81910000Y-79250000D03*
X81910000Y-78750000D03*
X81910000Y-78250000D03*
X81910000Y-77750000D03*
D41*
X87560000Y-94400000D03*
X87560000Y-75600000D03*
%TD*%
D42*
%TO.C,J3*%
X51385000Y-96275000D03*
D43*
X51385000Y-93735000D03*
%TD*%
D44*
%TO.C,U1*%
X77975000Y-81350000D03*
X77325000Y-81350000D03*
X76675000Y-81350000D03*
X76025000Y-81350000D03*
X76025000Y-85650000D03*
X76675000Y-85650000D03*
X77325000Y-85650000D03*
X77975000Y-85650000D03*
%TD*%
D45*
%TO.C,R19*%
X77750000Y-74597500D03*
X77750000Y-73402500D03*
%TD*%
D17*
%TO.C,C7*%
X61500000Y-90637500D03*
X61500000Y-92362500D03*
%TD*%
D46*
%TO.C,D7*%
X54875000Y-69250000D03*
X53125000Y-69250000D03*
%TD*%
D21*
%TO.C,R7*%
X56912500Y-91000000D03*
X58107500Y-91000000D03*
%TD*%
D45*
%TO.C,R12*%
X71500000Y-74847500D03*
X71500000Y-73652500D03*
%TD*%
D19*
%TO.C,H2*%
X85000000Y-65000000D03*
%TD*%
D31*
%TO.C,R10*%
X74000000Y-106402500D03*
X74000000Y-107597500D03*
%TD*%
D28*
%TO.C,TP8*%
X68500000Y-96500000D03*
%TD*%
D47*
%TO.C,D2*%
X59000000Y-93500000D03*
X55000000Y-93500000D03*
%TD*%
D48*
%TO.C,D1*%
X59050000Y-98437500D03*
X60950000Y-98437500D03*
X60000000Y-96562500D03*
%TD*%
D49*
%TO.C,C11*%
X66947500Y-79000000D03*
X68672500Y-79000000D03*
%TD*%
D28*
%TO.C,TP15*%
X75500000Y-79000000D03*
%TD*%
D23*
%TO.C,D3*%
X78000000Y-104875000D03*
X78000000Y-103125000D03*
%TD*%
D46*
%TO.C,D6*%
X54875000Y-70750000D03*
X53125000Y-70750000D03*
%TD*%
%TO.C,D9*%
X54875000Y-66250000D03*
X53125000Y-66250000D03*
%TD*%
D50*
%TO.C,U2*%
X66760000Y-102000000D03*
D51*
X66475000Y-102000000D03*
D50*
X66760000Y-101500000D03*
D51*
X66475000Y-101500000D03*
D50*
X66760000Y-101000000D03*
D51*
X66475000Y-101000000D03*
D50*
X66760000Y-100500000D03*
D51*
X66475000Y-100500000D03*
D50*
X66760000Y-100000000D03*
D51*
X66475000Y-100000000D03*
X63525000Y-100000000D03*
D50*
X63240000Y-100000000D03*
D51*
X63525000Y-100500000D03*
D50*
X63240000Y-100500000D03*
D51*
X63525000Y-101000000D03*
D50*
X63240000Y-101000000D03*
D51*
X63525000Y-101500000D03*
D50*
X63240000Y-101500000D03*
D51*
X63525000Y-102000000D03*
D50*
X63240000Y-102000000D03*
D52*
X65500000Y-101750000D03*
X65500000Y-100250000D03*
D53*
X65450000Y-101635000D03*
X65450000Y-100365000D03*
D54*
X65250000Y-102630000D03*
D55*
X65250000Y-102550000D03*
X65250000Y-99450000D03*
D54*
X65250000Y-99370000D03*
D52*
X65000000Y-101000000D03*
D56*
X65000000Y-101000000D03*
D54*
X64750000Y-102630000D03*
D55*
X64750000Y-102550000D03*
X64750000Y-99450000D03*
D54*
X64750000Y-99370000D03*
D53*
X64550000Y-101635000D03*
X64550000Y-100365000D03*
D52*
X64500000Y-101750000D03*
X64500000Y-100250000D03*
%TD*%
D46*
%TO.C,D8*%
X54875000Y-67750000D03*
X53125000Y-67750000D03*
%TD*%
D21*
%TO.C,R14*%
X56652500Y-70000000D03*
X57847500Y-70000000D03*
%TD*%
D28*
%TO.C,TP9*%
X72000000Y-101000000D03*
%TD*%
D21*
%TO.C,R4*%
X57402500Y-75000000D03*
X58597500Y-75000000D03*
%TD*%
D28*
%TO.C,TP18*%
X80500000Y-74000000D03*
%TD*%
D24*
%TO.C,C15*%
X78750000Y-73432500D03*
X78750000Y-74567500D03*
%TD*%
D28*
%TO.C,TP12*%
X64500000Y-104500000D03*
%TD*%
D20*
%TO.C,U4*%
X71050000Y-93137500D03*
X72000000Y-93137500D03*
X72950000Y-93137500D03*
X72950000Y-90862500D03*
X71050000Y-90862500D03*
%TD*%
D31*
%TO.C,R9*%
X78000000Y-106402500D03*
X78000000Y-107597500D03*
%TD*%
D17*
%TO.C,C10*%
X68500000Y-90637500D03*
X68500000Y-92362500D03*
%TD*%
D57*
%TO.C,F1*%
X51512500Y-90500000D03*
X54487500Y-90500000D03*
%TD*%
D18*
%TO.C,FID1*%
X87000000Y-100000000D03*
%TD*%
D58*
%TO.C,Q1*%
X56937500Y-97950000D03*
X56937500Y-96050000D03*
X55062500Y-97000000D03*
%TD*%
D18*
%TO.C,FID3*%
X43000000Y-70000000D03*
%TD*%
D28*
%TO.C,TP10*%
X61500000Y-88750000D03*
%TD*%
D59*
%TO.C,J5*%
X75050000Y-66460000D03*
X78950000Y-66460000D03*
X75050000Y-67730000D03*
X78950000Y-67730000D03*
X75050000Y-69000000D03*
X78950000Y-69000000D03*
X75050000Y-70270000D03*
X78950000Y-70270000D03*
X75050000Y-71540000D03*
X78950000Y-71540000D03*
%TD*%
D29*
%TO.C,C14*%
X78182500Y-80000000D03*
X79317500Y-80000000D03*
%TD*%
D28*
%TO.C,TP2*%
X75750000Y-91750000D03*
%TD*%
D29*
%TO.C,C13*%
X78232500Y-87000000D03*
X79367500Y-87000000D03*
%TD*%
D21*
%TO.C,R15*%
X56652500Y-69000000D03*
X57847500Y-69000000D03*
%TD*%
D19*
%TO.C,H4*%
X45000000Y-105000000D03*
%TD*%
D45*
%TO.C,R3*%
X76750000Y-74597500D03*
X76750000Y-73402500D03*
%TD*%
D28*
%TO.C,TP14*%
X78500000Y-78000000D03*
%TD*%
%TO.C,TP13*%
X72500000Y-96500000D03*
%TD*%
%LPD*%
M02*
